<svg width="18" height="18" viewBox="0 0 18 18" fill="none" xmlns="http://www.w3.org/2000/svg">
<path d="M9 18C13.9706 18 18 13.9706 18 9C18 4.02944 13.9706 0 9 0C4.02944 0 0 4.02944 0 9C0 13.9706 4.02944 18 9 18Z" fill="#F0F0F0"/>
<path d="M0 9.00004C0 4.02947 4.02947 0 9 0C13.9705 0 18 4.02947 18 9.00004" fill="#D80027"/>
<path d="M5.47813 4.69564C5.47813 3.38438 6.39968 2.28898 7.63029 2.02021C7.44115 1.97894 7.24494 1.95654 7.04332 1.95654C5.53052 1.95654 4.3042 3.18286 4.3042 4.69567C4.3042 6.20848 5.53052 7.4348 7.04332 7.4348C7.24487 7.4348 7.44111 7.41241 7.63029 7.3711C6.39968 7.10233 5.47813 6.00693 5.47813 4.69564Z" fill="#F0F0F0"/>
<path d="M8.99987 2.15222L9.19414 2.75006H9.82277L9.31417 3.11958L9.50844 3.71742L8.99987 3.34796L8.4913 3.71742L8.68557 3.11958L8.177 2.75006H8.8056L8.99987 2.15222Z" fill="#F0F0F0"/>
<path d="M7.47504 3.32605L7.66928 3.92392H8.2979L7.78933 4.29341L7.98361 4.89124L7.47504 4.52178L6.9664 4.89124L7.16071 4.29341L6.6521 3.92392H7.28073L7.47504 3.32605Z" fill="#F0F0F0"/>
<path d="M10.5248 3.32605L10.7191 3.92392H11.3477L10.8391 4.29341L11.0334 4.89124L10.5248 4.52178L10.0162 4.89124L10.2105 4.29341L9.7019 3.92392H10.3305L10.5248 3.32605Z" fill="#F0F0F0"/>
<path d="M9.93786 5.08704L10.1321 5.6849H10.7607L10.2522 6.0544L10.4464 6.65223L9.93786 6.28277L9.42929 6.65223L9.62356 6.0544L9.11499 5.6849H9.74355L9.93786 5.08704Z" fill="#F0F0F0"/>
<path d="M8.06192 5.08704L8.25615 5.6849H8.88482L8.37621 6.0544L8.57052 6.65223L8.06192 6.28277L7.55331 6.65223L7.74758 6.0544L7.23901 5.6849H7.86764L8.06192 5.08704Z" fill="#F0F0F0"/>
</svg>
