<svg width="18" height="18" viewBox="0 0 18 18" fill="none" xmlns="http://www.w3.org/2000/svg">
<path d="M9 18C13.9706 18 18 13.9706 18 9C18 4.02944 13.9706 0 9 0C4.02944 0 0 4.02944 0 9C0 13.9706 4.02944 18 9 18Z" fill="#F0F0F0"/>
<path d="M17.4402 5.86951H0.559793C0.198 6.8445 0 7.89904 0 8.99992C0 10.1008 0.198 11.1554 0.559793 12.1303H17.4402C17.802 11.1554 18 10.1008 18 8.99992C18 7.89904 17.802 6.8445 17.4402 5.86951Z" fill="#0052B4"/>
<path d="M8.99995 0C6.27214 0 3.82797 1.21373 2.17749 3.13042H15.8224C14.1719 1.21373 11.7278 0 8.99995 0Z" fill="#D80027"/>
<path d="M15.8224 14.8695H2.17749C3.82797 16.7862 6.27214 18 8.99995 18C11.7278 18 14.1719 16.7862 15.8224 14.8695Z" fill="#D80027"/>
</svg>
