<svg width="18" height="18" viewBox="0 0 18 18" fill="none" xmlns="http://www.w3.org/2000/svg">
<g clip-path="url(#clip0)">
<mask id="mask0" mask-type="alpha" maskUnits="userSpaceOnUse" x="1" y="0" width="11" height="18">
<path fill-rule="evenodd" clip-rule="evenodd" d="M7.55742 0.542232C6.24188 1.28134 4.9745 2.08098 3.64359 2.80897V2.80897C3.29195 3.00125 2.93748 3.19191 2.5919 3.39482V3.39482C2.11554 3.67457 1.61408 3.99555 1.33083 4.48376V4.48376C1.04758 4.97204 1.01888 5.56464 1.01353 6.115V6.115C0.995519 7.99683 0.995459 9.93572 1.01353 11.8202V11.8202C1.01888 12.3705 1.04758 12.9631 1.33083 13.4514V13.4514C1.56598 13.8567 2.74641 14.6315 4.04753 15.4055V15.4055L3.12723 17.2461L4.71125 15.0157L8.42554 9.78574L2.52741 9.93488L11.6578 1.07478C11.3422 0.895892 11.0274 0.718315 10.714 0.542232V0.542232C10.2324 0.271624 9.70228 0 9.13573 0V0C8.56911 0 8.03901 0.271624 7.55742 0.542232" fill="white"/>
</mask>
<g mask="url(#mask0)">
<path fill-rule="evenodd" clip-rule="evenodd" d="M7.55742 0.542232C6.24188 1.28134 4.9745 2.08098 3.64359 2.80897V2.80897C3.29195 3.00125 2.93748 3.19191 2.5919 3.39482V3.39482C2.11554 3.67457 1.61408 3.99555 1.33083 4.48376V4.48376C1.04758 4.97204 1.01888 5.56464 1.01353 6.115V6.115C0.995519 7.99683 0.995459 9.93572 1.01353 11.8202V11.8202C1.01888 12.3705 1.04758 12.9631 1.33083 13.4514V13.4514C1.56598 13.8567 2.74641 14.6315 4.04753 15.4055V15.4055L3.12723 17.2461L4.71125 15.0157L8.42554 9.78574L2.52741 9.93488L11.6578 1.07478C11.3422 0.895892 11.0274 0.718315 10.714 0.542232V0.542232C10.2324 0.271624 9.70228 0 9.13573 0V0C8.56911 0 8.03901 0.271624 7.55742 0.542232" fill="#0167FA"/>
</g>
<mask id="mask1" mask-type="alpha" maskUnits="userSpaceOnUse" x="4" y="0" width="14" height="18">
<path fill-rule="evenodd" clip-rule="evenodd" d="M11.5697 2.13067L9.33225 6.76576L16.1098 6.78916L4.7373 15.9256C5.83461 16.5591 6.90036 17.1402 7.45946 17.4549V17.4549C7.94233 17.7267 8.47385 17.9996 9.04192 17.9996V17.9996C9.61005 17.9996 10.1416 17.7267 10.6245 17.4549V17.4549C12.2759 16.5254 13.9678 15.5516 15.6033 14.5894V14.5894C16.081 14.3084 16.5837 13.986 16.8678 13.4955V13.4955C17.1518 13.0051 17.1805 12.4098 17.1859 11.857V11.857C17.2039 9.96505 17.2041 8.02335 17.1859 6.12607V6.12607C17.1805 5.57322 17.1518 4.97795 16.8678 4.48747V4.48747C16.5837 3.99705 16.081 3.67462 15.6033 3.39361V3.39361C14.5087 2.7496 13.3889 2.10048 12.2727 1.46289V1.46289L12.5398 0.121094L11.5697 2.13067Z" fill="white"/>
</mask>
<g mask="url(#mask1)">
<path fill-rule="evenodd" clip-rule="evenodd" d="M11.5697 2.13067L9.33225 6.76576L16.1098 6.78916L4.7373 15.9256C5.83461 16.5591 6.90036 17.1402 7.45946 17.4549V17.4549C7.94233 17.7267 8.47385 17.9996 9.04192 17.9996V17.9996C9.61005 17.9996 10.1416 17.7267 10.6245 17.4549V17.4549C12.2759 16.5254 13.9678 15.5516 15.6033 14.5894V14.5894C16.081 14.3084 16.5837 13.986 16.8678 13.4955V13.4955C17.1518 13.0051 17.1805 12.4098 17.1859 11.857V11.857C17.2039 9.96505 17.2041 8.02335 17.1859 6.12607V6.12607C17.1805 5.57322 17.1518 4.97795 16.8678 4.48747V4.48747C16.5837 3.99705 16.081 3.67462 15.6033 3.39361V3.39361C14.5087 2.7496 13.3889 2.10048 12.2727 1.46289V1.46289L12.5398 0.121094L11.5697 2.13067Z" fill="#0167FA"/>
</g>
</g>
<defs>
<clipPath id="clip0">
<rect width="18" height="18" fill="white"/>
</clipPath>
</defs>
</svg>
