<svg width="30" height="30" viewBox="0 0 30 30" fill="none" xmlns="http://www.w3.org/2000/svg">
<rect width="30" height="30" rx="3" fill="url(#paint0_linear)"/>
<path d="M0 3C0 1.34315 1.34315 0 3 0H27C28.6569 0 30 1.34315 30 3V27C30 28.6569 28.6569 30 27 30H3C1.34315 30 0 28.6569 0 27V3Z" fill="#EF4F2C"/>
<path d="M21.6015 24C22.5217 23.9769 23.2652 23.277 23.344 22.4123L23.3492 22.3085L24 9.96741V9.94929C24 9.74835 23.8268 9.58695 23.6134 9.58695H19.4357C19.3342 7.03242 17.3871 5 14.9991 5C12.6129 5 10.6658 7.03242 10.5643 9.58365H6.37788C6.1697 9.58695 6 9.74835 6 9.946L6.00175 9.97399L6.59656 22.2673L6.60531 22.4205C6.69453 23.2753 7.35932 23.9654 8.26203 23.9967L21.5368 23.9984L21.6015 24ZM14.9991 6.10844C16.7398 6.10844 18.1586 7.6517 18.2233 9.58365H11.7784C11.8431 7.6517 13.2602 6.10844 14.9991 6.10844ZM18.3161 19.222C18.1954 20.141 17.6005 20.8756 16.6803 21.2445C16.166 21.4504 15.4785 21.5591 14.9344 21.5245C14.0842 21.4949 13.2882 21.3022 12.5552 20.9497C12.2875 20.8213 11.8956 20.566 11.6 20.3354L11.5632 20.1493L11.9481 19.6189L12.1895 19.5975L12.3085 19.6815C13.0153 20.1987 13.925 20.5874 14.9379 20.6236C16.215 20.6071 17.1439 20.0735 17.3084 19.2451C17.4886 18.3293 16.7171 17.5453 15.2248 17.1089C14.7507 16.9705 13.5558 16.5225 13.3372 16.4023C12.298 15.8308 11.8134 15.0863 11.8834 14.164C11.9883 12.8876 13.2532 11.9323 14.8592 11.9257C15.6219 11.9241 16.3357 12.0822 16.9707 12.3325C17.2069 12.4248 17.6425 12.6455 17.7982 12.7542L17.856 12.9765C17.793 13.077 17.6023 13.352 17.5271 13.4673L17.3049 13.4986C16.4827 12.9831 15.6377 12.8085 14.8784 12.7937C13.7833 12.8135 12.9575 13.4229 12.9033 14.2579C12.8893 15.0139 13.5016 15.5607 14.8032 15.979C17.4903 16.7861 18.5068 17.7347 18.3161 19.222Z" fill="white"/>
<defs>
<linearGradient id="paint0_linear" x1="15" y1="0" x2="15" y2="30" gradientUnits="userSpaceOnUse">
<stop stop-color="#3E8DFF"/>
<stop offset="1" stop-color="#0042A2"/>
</linearGradient>
</defs>
</svg>
