<svg width="30" height="30" viewBox="0 0 30 30" fill="none" xmlns="http://www.w3.org/2000/svg">
<path d="M0 3C0 1.34315 1.34315 0 3 0H27C28.6569 0 30 1.34315 30 3V27C30 28.6569 28.6569 30 27 30H3C1.34315 30 0 28.6569 0 27V3Z" fill="#00AAF0"/>
<path d="M11.4635 6.03747C11.9929 5.94547 12.5517 6.0246 13.0328 6.26457C13.6187 6.55247 14.0854 7.07647 14.3004 7.69375C14.453 8.11932 14.4839 8.58574 14.4016 9.02933C14.3039 9.55269 14.0352 10.0419 13.646 10.4051C13.2536 10.7795 12.7356 11.0192 12.1969 11.0803C11.604 11.1511 10.9856 11.007 10.4904 10.6715C9.93922 10.307 9.53814 9.72028 9.40733 9.07115C9.28649 8.49793 9.36941 7.88257 9.64419 7.36436C10.0012 6.67148 10.6945 6.16421 11.4635 6.03747ZM10.0299 8.17915C9.9283 8.56387 9.93312 8.97979 10.0703 9.35518C10.2442 9.84991 10.6286 10.2652 11.1078 10.4778C11.5731 10.6888 12.1227 10.7043 12.5983 10.5171C13.0865 10.3298 13.4931 9.93805 13.693 9.45393C13.8643 9.05184 13.89 8.58993 13.7656 8.17079C12.5749 8.17079 11.3845 8.17111 10.1938 8.17047C10.1388 8.17079 10.0842 8.17465 10.0299 8.17915Z" fill="white"/>
<path d="M24.0537 6.01886C24.5702 5.95517 25.1066 6.05361 25.5649 6.30129C26.0907 6.58018 26.5117 7.05143 26.7305 7.60534C26.8973 8.01708 26.9423 8.47224 26.8851 8.91132C26.8051 9.4839 26.5213 10.0243 26.0964 10.4161C25.6976 10.7896 25.1744 11.0279 24.6313 11.0832C24.1106 11.1402 23.5736 11.0295 23.1179 10.7722C22.6262 10.4975 22.2292 10.0545 22.013 9.53408C21.7649 8.948 21.7517 8.26798 21.9699 7.67064C22.2852 6.7883 23.122 6.12212 24.0537 6.01886ZM22.5718 9.45302C22.746 9.87634 23.0777 10.2321 23.4868 10.4373C23.8956 10.6477 24.3809 10.703 24.827 10.5914C25.3315 10.4682 25.7808 10.1337 26.0408 9.68301C26.3086 9.23332 26.3748 8.67265 26.2298 8.17052C24.9861 8.17116 23.7423 8.17084 22.4989 8.17084C22.3735 8.58933 22.4022 9.05061 22.5718 9.45302Z" fill="white"/>
<path d="M11.6526 12.0518C11.9538 11.9897 12.2841 12.019 12.5515 12.1798C12.7967 12.3259 12.9613 12.5871 13.0121 12.8656C13.0497 13.0351 13.0358 13.2092 13.0381 13.3809C13.0384 16.0946 13.0378 18.8078 13.0384 21.5211C13.0355 21.8634 12.8912 22.2201 12.6007 22.416C12.1977 22.6833 11.6186 22.673 11.2306 22.3813C10.9491 22.1667 10.8369 21.7997 10.8376 21.4574C10.8353 18.7229 10.8376 15.9881 10.8363 13.2536C10.836 13.0133 10.8611 12.7643 10.9784 12.5501C11.1101 12.2902 11.3698 12.1094 11.6526 12.0518Z" fill="white"/>
<path d="M14.6634 12.3214C15.0133 11.9756 15.5889 11.9386 16.0161 12.1551C16.3365 12.3191 16.5316 12.6707 16.5406 13.0262C16.5422 14.1006 16.5406 15.1749 16.5415 16.2493C17.6773 15.0418 18.8098 13.831 19.9446 12.6225C20.1111 12.4465 20.2686 12.2513 20.49 12.1413C20.9004 11.9193 21.4465 12.0181 21.7682 12.3513C22.0433 12.6209 22.1422 13.0612 21.9947 13.4193C21.8691 13.7207 21.6309 13.9532 21.4108 14.1864C20.4707 15.1141 19.5281 16.0396 18.589 16.9679C19.7296 18.1562 20.867 19.3477 22.0066 20.5369C22.2422 20.7707 22.4746 21.0377 22.5475 21.371C22.6015 21.6611 22.561 21.9866 22.3679 22.2198C22.1715 22.4659 21.8533 22.5801 21.5477 22.6023C21.3211 22.6248 21.0868 22.5743 20.8956 22.4492C20.6269 22.2752 20.4161 22.0301 20.1988 21.7988C18.9798 20.4793 17.7612 19.1595 16.5415 17.8406C16.5409 19.0884 16.5412 20.3365 16.5415 21.5842C16.5396 21.9175 16.3596 22.2437 16.0794 22.4241C15.6587 22.6937 15.0583 22.667 14.6752 22.3414C14.441 22.1417 14.3365 21.8277 14.3404 21.526C14.3391 18.7345 14.3397 15.9431 14.34 13.152C14.3349 12.8473 14.439 12.5337 14.6634 12.3214Z" fill="white"/>
<path d="M24.0606 12.0554C24.4061 11.9785 24.7972 12.028 25.0794 12.2538C25.3381 12.461 25.4599 12.7987 25.4602 13.1233C25.4595 15.9234 25.4602 18.7239 25.4599 21.524C25.4541 21.8171 25.3528 22.1195 25.1359 22.3234C24.8139 22.6267 24.3103 22.6753 23.9066 22.5244C23.6598 22.4295 23.4551 22.2304 23.3568 21.9844C23.2642 21.7672 23.2549 21.5266 23.2581 21.2937C23.2584 18.6023 23.2584 15.9106 23.2581 13.2192C23.2581 12.9721 23.2947 12.7164 23.4271 12.5031C23.5618 12.2715 23.8022 12.1142 24.0606 12.0554Z" fill="white"/>
<path d="M3.0673 12.7428C3.19329 12.3835 3.54616 12.1197 3.92829 12.112C5.75952 12.1104 7.59076 12.112 9.42199 12.111C9.66914 12.1165 9.91499 12.2191 10.0856 12.3996C10.4414 12.7711 10.4604 13.409 10.1403 13.8082C9.96127 14.0337 9.66817 14.134 9.38761 14.1359C8.85026 14.1405 8.3129 14.1363 7.77555 14.1382C7.77555 16.5456 7.77555 18.9533 7.77555 21.361C7.80126 21.7251 7.70356 22.1269 7.4095 22.3652C7.17425 22.5631 6.85222 22.6281 6.55205 22.6004C6.31005 22.5798 6.06998 22.4859 5.89611 22.3131C5.69814 22.1137 5.59755 21.8316 5.59015 21.554C5.59015 19.082 5.59048 16.6099 5.58983 14.1379C5.07787 14.1379 4.56591 14.1379 4.05395 14.1379C3.83573 14.1382 3.6098 14.1044 3.42372 13.9828C3.02392 13.7274 2.91175 13.1706 3.0673 12.7428Z" fill="white"/>
</svg>
