<svg width="58" height="58" viewBox="0 0 58 58" fill="none" xmlns="http://www.w3.org/2000/svg">
<g opacity="0.8">
<path d="M41.2353 10.875H6.02599C3.24806 10.875 0.996094 13.1793 0.996094 16.0219V52.05C0.996094 54.8925 3.24806 57.1968 6.02599 57.1968H41.2353C44.0132 57.1968 46.2652 54.8925 46.2652 52.05V16.0219C46.2652 13.1793 44.0132 10.875 41.2353 10.875Z" stroke="#0080EC" stroke-linecap="round" stroke-linejoin="round"/>
<path d="M14.8271 28.8893C16.9106 28.8893 18.5995 27.161 18.5995 25.0291C18.5995 22.8972 16.9106 21.1689 14.8271 21.1689C12.7437 21.1689 11.0547 22.8972 11.0547 25.0291C11.0547 27.161 12.7437 28.8893 14.8271 28.8893Z" stroke="#0080EC" stroke-linecap="round" stroke-linejoin="round"/>
<path d="M46.2665 41.7568L33.6918 28.8896L6.02734 57.1974" stroke="#0080EC" stroke-linecap="round" stroke-linejoin="round"/>
<circle cx="44.1944" cy="13.5167" r="7.31941" fill="white"/>
<path d="M47.4027 0.197266C41.5978 0.197266 36.875 4.92009 36.875 10.725C36.875 16.5298 41.5978 21.2527 47.4027 21.2527C53.2076 21.2527 57.9304 16.5298 57.9304 10.725C57.9304 4.92009 53.2076 0.197266 47.4027 0.197266ZM47.4027 20.3754C42.0814 20.3754 37.7523 16.0462 37.7523 10.725C37.7523 5.4037 42.0814 1.07456 47.4027 1.07456C52.7239 1.07456 57.0531 5.4037 57.0531 10.725C57.0531 16.0462 52.7239 20.3754 47.4027 20.3754Z" fill="#0080EC"/>
<path d="M53.1054 10.2865H47.8416V5.02265C47.8416 4.78019 47.6454 4.58398 47.4029 4.58398C47.1604 4.58398 46.9642 4.78019 46.9642 5.02265V10.2865H41.7004C41.4579 10.2865 41.2617 10.4827 41.2617 10.7252C41.2617 10.9676 41.4579 11.1638 41.7004 11.1638H46.9642V16.4277C46.9642 16.6701 47.1604 16.8663 47.4029 16.8663C47.6454 16.8663 47.8416 16.6701 47.8416 16.4277V11.1638H53.1054C53.3479 11.1638 53.5441 10.9676 53.5441 10.7252C53.5441 10.4827 53.3479 10.2865 53.1054 10.2865Z" fill="#0080EC"/>
</g>
</svg>
