<svg width="55" height="32" viewBox="0 0 55 32" fill="none" xmlns="http://www.w3.org/2000/svg">
<path d="M31.5864 10.5703H33.1393C33.1544 12.5503 33.1255 14.5249 33.1544 16.5103C33.7546 15.8899 34.2282 15.1617 34.8298 14.5453C35.5002 14.5044 36.1734 14.5385 36.8438 14.5453C36.0674 15.3321 35.2855 16.1162 34.5476 16.9412C35.3736 17.9571 36.2064 18.9676 37.0256 19.9889C36.3372 19.9889 35.6489 19.9889 34.9606 19.9889C34.3686 19.1926 33.7624 18.408 33.142 17.6353C33.142 18.4194 33.142 19.2049 33.1352 19.9903H31.5906C31.5864 16.8485 31.5933 13.7094 31.5864 10.5703Z" fill="white"/>
<path d="M4.06166 11.5967C5.05697 11.5967 6.05366 11.5967 7.05036 11.5967C7.06688 12.7708 6.93196 13.9435 6.99804 15.1176C7.66847 13.9544 8.29484 12.7735 8.94049 11.5994C10.0418 11.5994 11.1514 11.5994 12.2568 11.5994C11.4171 12.9835 10.4947 14.3171 9.6412 15.6903C10.626 17.1149 11.596 18.5467 12.5514 19.9858C11.3799 19.9953 10.2111 19.9858 9.03548 19.994C8.33477 18.8076 7.63818 17.6171 6.97051 16.4103C6.94848 17.6035 7.04347 18.794 7.04623 19.9871C6.04953 19.9871 5.05284 19.9871 4.05615 19.9871C4.05707 17.1908 4.05891 14.394 4.06166 11.5967Z" fill="white"/>
<path d="M13.1242 19.9942C13.1067 17.1933 13.1067 14.392 13.1242 11.5902C14.1787 11.6502 15.2593 11.4729 16.2904 11.7524C17.8653 12.152 18.1503 14.5192 16.9788 15.4792C18.3637 15.872 18.712 17.6611 18.1104 18.8133C17.7056 19.5852 16.8081 19.9247 15.9752 19.9711C15.0226 20.0161 14.0727 19.9697 13.1242 19.9942ZM14.761 12.9033C14.761 13.6411 14.761 14.3774 14.761 15.1152C15.174 15.0838 15.6847 15.1247 15.9614 14.7565C16.0853 14.5415 16.1535 14.2995 16.16 14.0521C16.1665 13.8046 16.111 13.5594 15.9986 13.3383C15.7467 12.9088 15.1946 12.9238 14.761 12.8979V12.9033ZM14.761 16.3411C14.761 17.1197 14.761 17.8983 14.761 18.6756C15.3117 18.6606 15.9573 18.7424 16.413 18.3688C16.6171 18.1438 16.736 17.8557 16.7496 17.5536C16.7632 17.2514 16.6705 16.954 16.4873 16.712C16.0344 16.2579 15.3433 16.3588 14.7596 16.3356L14.761 16.3411Z" fill="white"/>
<path d="M27.1413 15.0115C27.8709 14.0378 29.6839 14.1169 30.2071 15.2569C30.4411 15.741 30.4824 16.2892 30.4824 16.8183C30.4824 17.8765 30.4824 18.9333 30.4824 19.9915C29.9675 19.9915 29.4527 19.9915 28.9378 19.9915C28.924 18.9306 28.9474 17.8697 28.9268 16.8101C28.8924 16.4187 28.8924 15.9387 28.5207 15.696C28.2386 15.5799 27.9224 15.575 27.6369 15.6824C27.2569 15.9183 27.1619 16.3956 27.1537 16.8074C27.122 17.8669 27.1537 18.9278 27.1399 19.9887H25.5526C25.5526 18.1737 25.5609 16.3601 25.5526 14.5451C26.0771 14.5287 26.6016 14.5287 27.1275 14.5369C27.1289 14.6951 27.1358 14.8533 27.1413 15.0115Z" fill="white"/>
<path d="M19.75 14.9832C20.5857 14.1432 22.0766 14.1337 22.8888 15.0146C22.8888 14.8946 22.8888 14.6532 22.8888 14.5318H24.4334C24.4251 16.3509 24.4458 18.1714 24.4224 19.9864C23.9144 19.9796 23.4064 19.9796 22.8998 19.9864C22.8998 19.8718 22.8888 19.6414 22.886 19.5268C22.473 19.8459 22.0146 20.1541 21.4722 20.1541C20.5471 20.2223 19.6702 19.6441 19.2572 18.8423C18.606 17.6368 18.7506 15.9746 19.75 14.9832ZM21.2643 15.8259C20.0956 16.3714 20.1974 18.3855 21.4626 18.7509C22.5804 19.0237 23.3403 17.6232 22.9507 16.6932C22.7497 16.0005 21.9637 15.5096 21.2602 15.8259H21.2643Z" fill="white"/>
<path d="M1.09375 7H53.4062C53.4062 13 53.4062 19 53.4062 25H1.09375V7ZM40.8127 11.6964C39.6742 12.8255 39.1002 14.4155 39.0768 15.9959C39.1566 16.9586 39.3438 17.935 39.8284 18.7845C40.2599 19.5693 40.862 20.2494 41.5912 20.7755C42.3205 21.3017 43.1586 21.6607 44.0451 21.8268C46.0467 22.2359 48.2163 21.4859 49.5874 19.9995C51.311 18.1982 51.6951 15.2964 50.5098 13.1132C49.5131 11.17 47.3573 9.84045 45.1409 9.89773C44.3339 9.89028 43.5338 10.0459 42.7897 10.3552C42.0455 10.6645 41.3728 11.1208 40.8127 11.6964V11.6964ZM31.5892 10.5714C31.5961 13.7077 31.5892 16.8441 31.5892 19.9886H33.1338C33.1475 19.2032 33.1338 18.4177 33.1407 17.6336C33.7629 18.4055 34.3705 19.1886 34.9633 19.9832C35.6517 19.9914 36.34 19.99 37.0283 19.9832C36.2023 18.9618 35.3763 17.9514 34.5503 16.9355C35.2882 16.1173 36.0647 15.3264 36.8466 14.5395C36.1762 14.5395 35.503 14.5041 34.8326 14.5395C34.231 15.1559 33.7574 15.8841 33.1572 16.5045C33.1283 14.5245 33.1572 12.55 33.142 10.5645L31.5892 10.5714ZM4.0618 11.5968C4.0618 14.395 4.0618 17.1927 4.0618 19.99C5.05849 19.99 6.05518 19.99 7.05187 19.99C7.05187 18.7968 6.95413 17.6064 6.97615 16.4132C7.6397 17.62 8.33628 18.8105 9.04112 19.9968C10.2126 19.9832 11.3814 19.9968 12.5571 19.9886C11.5989 18.5468 10.6279 17.1164 9.64409 15.6973C10.499 14.32 11.4213 12.9864 12.2597 11.6064C11.1584 11.6064 10.0488 11.6064 8.94338 11.6064C8.29498 12.7736 7.6686 13.9545 6.99818 15.1218C6.9321 13.9477 7.06701 12.775 7.05049 11.6009C6.04967 11.5941 5.05711 11.6009 4.0618 11.5968ZM13.1242 19.9941C14.0728 19.9695 15.0226 20.0159 15.9711 19.9709C16.804 19.9245 17.7016 19.585 18.1063 18.8132C18.7079 17.6664 18.3596 15.8718 16.9747 15.4791C18.1531 14.5245 17.8682 12.1518 16.2864 11.7523C15.2539 11.4727 14.1733 11.65 13.1201 11.59C13.1036 14.3909 13.105 17.1923 13.1242 19.9941ZM27.1412 15.0114C27.1412 14.8532 27.1289 14.695 27.1233 14.5368C26.5975 14.5286 26.073 14.5286 25.5485 14.545C25.5609 16.36 25.5485 18.1736 25.5485 19.9886H27.1247C27.1357 18.9277 27.1068 17.8668 27.1385 16.8073C27.1468 16.3982 27.2417 15.9182 27.6217 15.6823C27.9072 15.5749 28.2235 15.5798 28.5055 15.6959C28.8772 15.9386 28.8772 16.4186 28.9116 16.81C28.9323 17.8695 28.9116 18.9305 28.9226 19.9914C29.4375 19.9914 29.9524 19.9914 30.4672 19.9914C30.4672 18.9332 30.4672 17.8764 30.4672 16.8182C30.4672 16.2891 30.4328 15.7409 30.1919 15.2568C29.6839 14.1168 27.8709 14.0377 27.1412 15.0114ZM19.75 14.9827C18.7506 15.9741 18.606 17.6295 19.2558 18.8445C19.6688 19.6464 20.5457 20.2245 21.4708 20.1564C22.0132 20.1564 22.4758 19.8482 22.8847 19.5291C22.8847 19.6436 22.8943 19.8741 22.8984 19.9886C23.405 19.9886 23.913 19.9886 24.421 19.9886C24.4444 18.1695 24.421 16.3491 24.432 14.5341H22.8874C22.8874 14.6555 22.8874 14.8968 22.8874 15.0168C22.0766 14.1332 20.5857 14.1427 19.75 14.9827Z" fill="#0E8F33"/>
<path d="M14.7611 12.8975C15.1947 12.9234 15.7467 12.9084 16 13.3325C16.1125 13.5535 16.1679 13.7987 16.1614 14.0462C16.1549 14.2936 16.0867 14.5356 15.9629 14.7506C15.6875 15.1188 15.1727 15.0779 14.7624 15.1093C14.7611 14.3716 14.7583 13.6352 14.7611 12.8975Z" fill="#0E8F33"/>
<path d="M21.2602 15.8258C21.9636 15.5095 22.7497 15.999 22.9466 16.6931C23.3362 17.6231 22.5762 19.0113 21.4584 18.7508C20.1933 18.3854 20.0914 16.3767 21.2602 15.8258Z" fill="#0E8F33"/>
<path d="M14.7596 16.3359C15.3433 16.3591 16.0344 16.2582 16.4901 16.7068C16.6732 16.9488 16.7659 17.2463 16.7524 17.5484C16.7388 17.8506 16.6199 18.1387 16.4158 18.3637C15.9532 18.7373 15.3144 18.6555 14.7638 18.6705C14.7638 17.8932 14.7596 17.1146 14.7596 16.3359Z" fill="#0E8F33"/>
<path d="M50.8177 16.0462C50.8177 19.488 48.0286 22.277 44.5869 22.277C41.145 22.277 38.3561 19.488 38.3561 16.0462C38.3561 12.6045 41.145 9.81543 44.5869 9.81543C48.0138 9.81543 50.8177 12.6045 50.8177 16.0462Z" fill="white"/>
<path d="M48.1766 19.2772C47.8799 19.1288 47.5832 18.9805 47.1233 18.9805C46.7228 18.9805 46.3964 19.1288 46.0849 19.2772C45.7585 19.4255 45.4172 19.5887 44.9574 19.5887C44.5569 19.5887 44.2602 19.4552 43.9338 19.3068C43.6074 19.1585 43.2661 18.9953 42.8063 18.9953C42.4058 18.9953 42.0794 19.1437 41.7678 19.2772C41.4414 19.4255 41.1002 19.5739 40.6403 19.5739C40.6106 19.5739 40.5958 19.5739 40.5661 19.5739C40.6106 19.6332 40.6552 19.6926 40.7145 19.7371C41.1744 19.7222 41.5156 19.5739 41.842 19.4255C42.1535 19.292 42.4502 19.1585 42.8211 19.1585C43.2364 19.1585 43.548 19.3068 43.8744 19.4552C44.2008 19.6035 44.5272 19.7519 44.9722 19.7519C45.4617 19.7519 45.8178 19.5887 46.1591 19.4255C46.4706 19.2772 46.7672 19.1437 47.1381 19.1437C47.5536 19.1437 47.8206 19.2772 48.1172 19.4255C48.4288 19.5887 48.7552 19.7519 49.2744 19.7519C49.3189 19.6926 49.3783 19.6332 49.4228 19.5739C49.3783 19.5739 49.3338 19.5739 49.2892 19.5739C48.7849 19.5739 48.4733 19.4255 48.1766 19.2772Z" fill="#98867D"/>
<path d="M47.1383 19.293C46.7378 19.293 46.4114 19.4413 46.0999 19.5897C45.7735 19.738 45.4322 19.9012 44.9724 19.9012C44.5719 19.9012 44.2752 19.7677 43.9488 19.6193C43.6224 19.471 43.2811 19.3078 42.8213 19.3078C42.4206 19.3078 42.0944 19.4562 41.7828 19.5897C41.5009 19.7084 41.2191 19.8419 40.863 19.8864C40.9075 19.9309 40.9669 19.9902 41.0114 20.0347C41.3378 19.9754 41.6047 19.8567 41.857 19.738C42.1685 19.5897 42.4652 19.471 42.8361 19.471C43.2514 19.471 43.563 19.6193 43.8894 19.7677C44.2158 19.916 44.5422 20.0644 44.9872 20.0644C45.4767 20.0644 45.8328 19.9012 46.1889 19.738C46.5003 19.5897 46.7971 19.4562 47.168 19.4562C47.5833 19.4562 47.8503 19.5897 48.1471 19.738C48.3992 19.8715 48.6516 19.9902 49.0224 20.0347C49.0817 19.9902 49.1263 19.9309 49.1708 19.8715C48.7553 19.8419 48.4883 19.7084 48.2213 19.5748C47.8949 19.4562 47.5833 19.293 47.1383 19.293Z" fill="#98867D"/>
<path d="M47.1382 19.6201C46.7376 19.6201 46.4112 19.7685 46.0998 19.9168C45.7734 20.0652 45.4321 20.2284 44.9723 20.2284C44.5717 20.2284 44.275 20.0948 43.9487 19.9465C43.6223 19.7981 43.281 19.6349 42.8212 19.6349C42.4206 19.6349 42.0942 19.7833 41.7827 19.9168C41.575 20.0058 41.3673 20.1097 41.1299 20.169C41.1745 20.2135 41.2338 20.258 41.2782 20.3025C41.486 20.2432 41.664 20.1542 41.8568 20.08C42.1684 19.9465 42.4651 19.813 42.836 19.813C43.2514 19.813 43.5629 19.9613 43.8893 20.1097C44.2157 20.258 44.542 20.4064 44.9871 20.4064C45.4767 20.4064 45.8328 20.2432 46.1887 20.08C46.5003 19.9317 46.797 19.7981 47.1679 19.7981C47.5832 19.7981 47.8503 19.9317 48.147 20.08C48.325 20.169 48.5179 20.258 48.7404 20.3322C48.7998 20.2877 48.8442 20.2432 48.8887 20.1987C48.6217 20.1393 48.4289 20.0355 48.2212 19.9317C47.8948 19.7685 47.5832 19.6201 47.1382 19.6201Z" fill="#98867D"/>
<path d="M47.1383 19.9453C46.7377 19.9453 46.4114 20.0937 46.0998 20.242C45.7734 20.3904 45.4322 20.5535 44.9723 20.5535C44.5717 20.5535 44.275 20.42 43.9487 20.2717C43.6223 20.1233 43.2811 19.9601 42.8212 19.9601C42.4206 19.9601 42.0944 20.1085 41.7828 20.242C41.6641 20.3014 41.5306 20.3607 41.397 20.4052C41.4416 20.4497 41.5009 20.4942 41.5455 20.5239C41.6492 20.4794 41.7383 20.4349 41.842 20.3904C42.1536 20.2568 42.4503 20.1233 42.8212 20.1233C43.2366 20.1233 43.5481 20.2717 43.8745 20.42C44.2009 20.5684 44.5273 20.7167 44.9723 20.7167C45.4619 20.7167 45.818 20.5536 46.1739 20.3904C46.4855 20.242 46.7822 20.1085 47.1531 20.1085C47.5685 20.1085 47.8355 20.242 48.1322 20.3904C48.2361 20.4349 48.3399 20.4942 48.4438 20.5387C48.5031 20.4942 48.5477 20.4645 48.6069 20.42C48.4734 20.3607 48.3399 20.3014 48.2213 20.242C47.8949 20.0937 47.5833 19.9453 47.1383 19.9453Z" fill="#98867D"/>
<path d="M47.1382 20.2568C46.7377 20.2568 46.4113 20.4052 46.0998 20.5535C45.7734 20.7019 45.4323 20.8651 44.9723 20.8651C44.5718 20.8651 44.2751 20.7316 43.9487 20.5832C43.6223 20.4349 43.281 20.2717 42.8212 20.2717C42.4207 20.2717 42.0943 20.42 41.7827 20.5535C41.753 20.5684 41.7085 20.5832 41.6788 20.5981C41.7382 20.6426 41.7827 20.6722 41.8421 20.7167L41.8569 20.7019C42.1685 20.5684 42.4652 20.4349 42.836 20.4349C43.2515 20.4349 43.5629 20.5832 43.8893 20.7316C44.2157 20.8799 44.5421 21.0283 44.9871 21.0283C45.4767 21.0283 45.8327 20.8651 46.1888 20.7019C46.5004 20.5535 46.7971 20.42 47.1679 20.42C47.5834 20.42 47.8504 20.5535 48.1471 20.7019C48.1618 20.7019 48.1767 20.7167 48.1915 20.7167C48.2509 20.6871 48.2954 20.6426 48.3548 20.6129C48.3102 20.5981 48.2806 20.5684 48.236 20.5535C47.8948 20.42 47.5834 20.2568 47.1382 20.2568Z" fill="#98867D"/>
<path d="M46.0849 20.8817C45.7585 21.03 45.4173 21.1932 44.9574 21.1932C44.5568 21.1932 44.2602 21.0597 43.9338 20.9113C43.6074 20.763 43.2662 20.5998 42.8063 20.5998C42.4799 20.5998 42.1981 20.7036 41.9459 20.8075C42.0052 20.852 42.0646 20.8817 42.1238 20.9113C42.3316 20.8223 42.5541 20.763 42.8063 20.763C43.2217 20.763 43.5332 20.9113 43.8596 21.0597C44.186 21.208 44.5124 21.3564 44.9574 21.3564C45.447 21.3564 45.8031 21.1932 46.1443 21.03C46.4557 20.8817 46.7524 20.7481 47.1234 20.7481C47.4201 20.7481 47.6426 20.8223 47.8354 20.9113C47.8948 20.8817 47.9542 20.8372 48.0135 20.8075C47.7613 20.6888 47.4943 20.585 47.1234 20.585C46.7228 20.585 46.3965 20.7333 46.0849 20.8817Z" fill="#98867D"/>
<path d="M44.9688 21.6819C41.8386 21.6819 39.2869 19.1451 39.2869 16C39.2869 12.8698 41.8238 10.3181 44.9688 10.3181C48.099 10.3181 50.6507 12.855 50.6507 16C50.6358 19.1451 48.099 21.6819 44.9688 21.6819ZM44.9688 9.25C41.2303 9.25 38.2188 12.2764 38.2188 16C38.2188 19.7385 41.2452 22.75 44.9688 22.75C48.7072 22.75 51.7188 19.7237 51.7188 16C51.7188 12.2764 48.6924 9.25 44.9688 9.25Z" fill="#EC1B2E"/>
<path d="M48.1619 14.3371C48.1174 14.5448 47.9097 14.7673 47.791 14.8563C47.5239 15.064 45.7734 16.1321 45.5806 16.3843C45.3877 16.6365 45.3431 16.9926 45.3431 17.2744V19.3217H45.6102V18.7876C45.6102 18.6096 45.7141 18.3277 45.9217 18.0904C46.2778 17.7195 47.1234 17.2448 47.6723 16.8442C48.1322 16.503 48.1619 16.0579 48.1619 15.6574V14.248V14.3371Z" fill="#00A84F"/>
<path d="M45.3432 16.2488C45.5361 16.0114 47.3459 14.8988 47.5981 14.6911C47.8503 14.4834 48.1618 14.157 48.1618 13.7565V11.457C48.1618 11.7834 47.9839 12.0356 47.7465 12.3323C47.4795 12.6735 46.2629 13.3411 45.6696 13.7565C45.0762 14.1719 44.8685 14.6021 44.8685 15.1213V19.3197H45.1356V17.1241C45.1207 16.8571 45.1503 16.501 45.3432 16.2488Z" fill="#00A84F"/>
<path d="M43.9784 13.8777C43.4294 13.4623 42.3019 12.5574 42.1833 12.3794C42.0498 12.2014 41.7679 11.875 41.7679 11.4893V13.6255C41.7679 13.9371 41.9163 14.486 42.4504 14.8717C42.9844 15.2574 43.741 15.8211 43.9635 16.0585C44.186 16.281 44.3937 16.6964 44.3937 17.275V19.3371H44.6607V15.2129C44.646 14.5601 44.5273 14.308 43.9784 13.8777Z" fill="#00A84F"/>
</svg>
