<svg width="182" height="134" viewBox="0 0 182 134" fill="none" xmlns="http://www.w3.org/2000/svg">
<circle r="3" transform="matrix(-1 0 0 1 3 3)" fill="#D4DCEA"/>
<circle r="3" transform="matrix(-1 0 0 1 19 3)" fill="#D4DCEA"/>
<circle r="3" transform="matrix(-1 0 0 1 35 3)" fill="#D4DCEA"/>
<circle r="3" transform="matrix(-1 0 0 1 51 3)" fill="#D4DCEA"/>
<circle r="3" transform="matrix(-1 0 0 1 67 3)" fill="#D4DCEA"/>
<circle r="3" transform="matrix(-1 0 0 1 83 3)" fill="#D4DCEA"/>
<circle r="3" transform="matrix(-1 0 0 1 99 3)" fill="#D4DCEA"/>
<circle r="3" transform="matrix(-1 0 0 1 115 3)" fill="#D4DCEA"/>
<circle r="3" transform="matrix(-1 0 0 1 131 3)" fill="#D4DCEA"/>
<circle r="3" transform="matrix(-1 0 0 1 147 3)" fill="#D4DCEA"/>
<circle r="3" transform="matrix(-1 0 0 1 163 3)" fill="#D4DCEA"/>
<circle r="3" transform="matrix(-1 0 0 1 179 3)" fill="#D4DCEA"/>
<circle r="3" transform="matrix(-1 0 0 1 3 19)" fill="#D4DCEA"/>
<circle r="3" transform="matrix(-1 0 0 1 19 19)" fill="#D4DCEA"/>
<circle r="3" transform="matrix(-1 0 0 1 35 19)" fill="#D4DCEA"/>
<circle r="3" transform="matrix(-1 0 0 1 51 19)" fill="#D4DCEA"/>
<circle r="3" transform="matrix(-1 0 0 1 67 19)" fill="#D4DCEA"/>
<circle r="3" transform="matrix(-1 0 0 1 83 19)" fill="#D4DCEA"/>
<circle r="3" transform="matrix(-1 0 0 1 99 19)" fill="#D4DCEA"/>
<circle r="3" transform="matrix(-1 0 0 1 115 19)" fill="#D4DCEA"/>
<circle r="3" transform="matrix(-1 0 0 1 131 19)" fill="#D4DCEA"/>
<circle r="3" transform="matrix(-1 0 0 1 147 19)" fill="#D4DCEA"/>
<circle r="3" transform="matrix(-1 0 0 1 163 19)" fill="#D4DCEA"/>
<circle r="3" transform="matrix(-1 0 0 1 179 19)" fill="#D4DCEA"/>
<circle r="3" transform="matrix(-1 0 0 1 3 35)" fill="#D4DCEA"/>
<circle r="3" transform="matrix(-1 0 0 1 19 35)" fill="#D4DCEA"/>
<circle r="3" transform="matrix(-1 0 0 1 35 35)" fill="#D4DCEA"/>
<circle r="3" transform="matrix(-1 0 0 1 51 35)" fill="#D4DCEA"/>
<circle r="3" transform="matrix(-1 0 0 1 67 35)" fill="#D4DCEA"/>
<circle r="3" transform="matrix(-1 0 0 1 83 35)" fill="#D4DCEA"/>
<circle r="3" transform="matrix(-1 0 0 1 99 35)" fill="#D4DCEA"/>
<circle r="3" transform="matrix(-1 0 0 1 115 35)" fill="#D4DCEA"/>
<circle r="3" transform="matrix(-1 0 0 1 131 35)" fill="#D4DCEA"/>
<circle r="3" transform="matrix(-1 0 0 1 147 35)" fill="#D4DCEA"/>
<circle r="3" transform="matrix(-1 0 0 1 163 35)" fill="#D4DCEA"/>
<circle r="3" transform="matrix(-1 0 0 1 179 35)" fill="#D4DCEA"/>
<circle r="3" transform="matrix(-1 0 0 1 3 51)" fill="#D4DCEA"/>
<circle r="3" transform="matrix(-1 0 0 1 19 51)" fill="#D4DCEA"/>
<circle r="3" transform="matrix(-1 0 0 1 35 51)" fill="#D4DCEA"/>
<circle r="3" transform="matrix(-1 0 0 1 51 51)" fill="#D4DCEA"/>
<circle r="3" transform="matrix(-1 0 0 1 67 51)" fill="#D4DCEA"/>
<circle r="3" transform="matrix(-1 0 0 1 83 51)" fill="#D4DCEA"/>
<circle r="3" transform="matrix(-1 0 0 1 99 51)" fill="#D4DCEA"/>
<circle r="3" transform="matrix(-1 0 0 1 115 51)" fill="#D4DCEA"/>
<circle r="3" transform="matrix(-1 0 0 1 131 51)" fill="#D4DCEA"/>
<circle r="3" transform="matrix(-1 0 0 1 147 51)" fill="#D4DCEA"/>
<circle r="3" transform="matrix(-1 0 0 1 163 51)" fill="#D4DCEA"/>
<circle r="3" transform="matrix(-1 0 0 1 179 51)" fill="#D4DCEA"/>
<circle r="3" transform="matrix(-1 0 0 1 115 67)" fill="#D4DCEA"/>
<circle r="3" transform="matrix(-1 0 0 1 131 67)" fill="#D4DCEA"/>
<circle r="3" transform="matrix(-1 0 0 1 147 67)" fill="#D4DCEA"/>
<circle r="3" transform="matrix(-1 0 0 1 163 67)" fill="#D4DCEA"/>
<circle r="3" transform="matrix(-1 0 0 1 179 67)" fill="#D4DCEA"/>
<circle r="3" transform="matrix(-1 0 0 1 115 83)" fill="#D4DCEA"/>
<circle r="3" transform="matrix(-1 0 0 1 131 83)" fill="#D4DCEA"/>
<circle r="3" transform="matrix(-1 0 0 1 147 83)" fill="#D4DCEA"/>
<circle r="3" transform="matrix(-1 0 0 1 163 83)" fill="#D4DCEA"/>
<circle r="3" transform="matrix(-1 0 0 1 179 83)" fill="#D4DCEA"/>
<circle r="3" transform="matrix(-1 0 0 1 3 99)" fill="#D4DCEA"/>
<circle r="3" transform="matrix(-1 0 0 1 19 99)" fill="#D4DCEA"/>
<circle r="3" transform="matrix(-1 0 0 1 35 99)" fill="#D4DCEA"/>
<circle r="3" transform="matrix(-1 0 0 1 51 99)" fill="#D4DCEA"/>
<circle r="3" transform="matrix(-1 0 0 1 67 99)" fill="#D4DCEA"/>
<circle r="3" transform="matrix(-1 0 0 1 115 99)" fill="#D4DCEA"/>
<circle r="3" transform="matrix(-1 0 0 1 131 99)" fill="#D4DCEA"/>
<circle r="3" transform="matrix(-1 0 0 1 147 99)" fill="#D4DCEA"/>
<circle r="3" transform="matrix(-1 0 0 1 163 99)" fill="#D4DCEA"/>
<circle r="3" transform="matrix(-1 0 0 1 179 99)" fill="#D4DCEA"/>
<circle r="3" transform="matrix(-1 0 0 1 3 115)" fill="#D4DCEA"/>
<circle r="3" transform="matrix(-1 0 0 1 19 115)" fill="#D4DCEA"/>
<circle r="3" transform="matrix(-1 0 0 1 35 115)" fill="#D4DCEA"/>
<circle r="3" transform="matrix(-1 0 0 1 51 115)" fill="#D4DCEA"/>
<circle r="3" transform="matrix(-1 0 0 1 67 115)" fill="#D4DCEA"/>
<circle r="3" transform="matrix(-1 0 0 1 115 115)" fill="#D4DCEA"/>
<circle r="3" transform="matrix(-1 0 0 1 131 115)" fill="#D4DCEA"/>
<circle r="3" transform="matrix(-1 0 0 1 147 115)" fill="#D4DCEA"/>
<circle r="3" transform="matrix(-1 0 0 1 163 115)" fill="#D4DCEA"/>
<circle r="3" transform="matrix(-1 0 0 1 179 115)" fill="#D4DCEA"/>
<circle r="3" transform="matrix(-1 0 0 1 3 131)" fill="#D4DCEA"/>
<circle r="3" transform="matrix(-1 0 0 1 19 131)" fill="#D4DCEA"/>
<circle r="3" transform="matrix(-1 0 0 1 35 131)" fill="#D4DCEA"/>
<circle r="3" transform="matrix(-1 0 0 1 51 131)" fill="#D4DCEA"/>
<circle r="3" transform="matrix(-1 0 0 1 67 131)" fill="#D4DCEA"/>
<circle r="3" transform="matrix(-1 0 0 1 115 131)" fill="#D4DCEA"/>
<circle r="3" transform="matrix(-1 0 0 1 131 131)" fill="#D4DCEA"/>
<circle r="3" transform="matrix(-1 0 0 1 147 131)" fill="#D4DCEA"/>
<circle r="3" transform="matrix(-1 0 0 1 163 131)" fill="#D4DCEA"/>
<circle r="3" transform="matrix(-1 0 0 1 179 131)" fill="#D4DCEA"/>
</svg>
