<svg width="163" height="154" viewBox="0 0 163 154" fill="none" xmlns="http://www.w3.org/2000/svg">
<g opacity="0.3">
<mask id="mask0" mask-type="alpha" maskUnits="userSpaceOnUse" x="0" y="0" width="13" height="14">
<path d="M6.44139 13.9599C9.99887 13.9599 12.8828 10.8348 12.8828 6.97989C12.8828 3.12499 9.99887 0 6.44139 0C2.8839 0 0 3.12499 0 6.97989C0 10.8348 2.8839 13.9599 6.44139 13.9599Z" fill="#D4DCEA"/>
</mask>
<g mask="url(#mask0)">
<path d="M6.44139 13.9599C9.99887 13.9599 12.8828 10.8348 12.8828 6.97989C12.8828 3.12499 9.99887 0 6.44139 0C2.8839 0 0 3.12499 0 6.97989C0 10.8348 2.8839 13.9599 6.44139 13.9599Z" fill="#D4DCEA"/>
</g>
<mask id="mask1" mask-type="alpha" maskUnits="userSpaceOnUse" x="37" y="0" width="14" height="14">
<path d="M43.748 13.9599C47.3055 13.9599 50.1894 10.8348 50.1894 6.97989C50.1894 3.12499 47.3055 0 43.748 0C40.1906 0 37.3066 3.12499 37.3066 6.97989C37.3066 10.8348 40.1906 13.9599 43.748 13.9599Z" fill="#D4DCEA"/>
</mask>
<g mask="url(#mask1)">
<path d="M43.748 13.9599C47.3055 13.9599 50.1894 10.8348 50.1894 6.97989C50.1894 3.12499 47.3055 0 43.748 0C40.1906 0 37.3066 3.12499 37.3066 6.97989C37.3066 10.8348 40.1906 13.9599 43.748 13.9599Z" fill="#D4DCEA"/>
</g>
<mask id="mask2" mask-type="alpha" maskUnits="userSpaceOnUse" x="74" y="0" width="14" height="14">
<path d="M81.0547 13.9599C84.6122 13.9599 87.4961 10.8348 87.4961 6.97989C87.4961 3.12499 84.6122 0 81.0547 0C77.4972 0 74.6133 3.12499 74.6133 6.97989C74.6133 10.8348 77.4972 13.9599 81.0547 13.9599Z" fill="#D4DCEA"/>
</mask>
<g mask="url(#mask2)">
<path d="M81.0547 13.9599C84.6122 13.9599 87.4961 10.8348 87.4961 6.97989C87.4961 3.12499 84.6122 0 81.0547 0C77.4972 0 74.6133 3.12499 74.6133 6.97989C74.6133 10.8348 77.4972 13.9599 81.0547 13.9599Z" fill="#D4DCEA"/>
</g>
<mask id="mask3" mask-type="alpha" maskUnits="userSpaceOnUse" x="111" y="0" width="14" height="14">
<path d="M118.361 13.9599C121.919 13.9599 124.803 10.8348 124.803 6.97989C124.803 3.12499 121.919 0 118.361 0C114.804 0 111.92 3.12499 111.92 6.97989C111.92 10.8348 114.804 13.9599 118.361 13.9599Z" fill="#D4DCEA"/>
</mask>
<g mask="url(#mask3)">
<path d="M118.361 13.9599C121.919 13.9599 124.803 10.8348 124.803 6.97989C124.803 3.12499 121.919 0 118.361 0C114.804 0 111.92 3.12499 111.92 6.97989C111.92 10.8348 114.804 13.9599 118.361 13.9599Z" fill="#D4DCEA"/>
</g>
<mask id="mask4" mask-type="alpha" maskUnits="userSpaceOnUse" x="149" y="0" width="14" height="14">
<path d="M155.666 13.9599C159.223 13.9599 162.107 10.8348 162.107 6.97989C162.107 3.12499 159.223 0 155.666 0C152.109 0 149.225 3.12499 149.225 6.97989C149.225 10.8348 152.109 13.9599 155.666 13.9599Z" fill="#D4DCEA"/>
</mask>
<g mask="url(#mask4)">
<path d="M155.666 13.9599C159.223 13.9599 162.107 10.8348 162.107 6.97989C162.107 3.12499 159.223 0 155.666 0C152.109 0 149.225 3.12499 149.225 6.97989C149.225 10.8348 152.109 13.9599 155.666 13.9599Z" fill="#D4DCEA"/>
</g>
<mask id="mask5" mask-type="alpha" maskUnits="userSpaceOnUse" x="0" y="35" width="13" height="15">
<path d="M6.44139 49.0058C9.99887 49.0058 12.8828 45.8808 12.8828 42.0258C12.8828 38.1709 9.99887 35.0459 6.44139 35.0459C2.8839 35.0459 0 38.1709 0 42.0258C0 45.8808 2.8839 49.0058 6.44139 49.0058Z" fill="#D4DCEA"/>
</mask>
<g mask="url(#mask5)">
<path d="M6.44139 49.0058C9.99887 49.0058 12.8828 45.8808 12.8828 42.0258C12.8828 38.1709 9.99887 35.0459 6.44139 35.0459C2.8839 35.0459 0 38.1709 0 42.0258C0 45.8808 2.8839 49.0058 6.44139 49.0058Z" fill="#D4DCEA"/>
</g>
<mask id="mask6" mask-type="alpha" maskUnits="userSpaceOnUse" x="37" y="35" width="14" height="15">
<path d="M43.748 49.0058C47.3055 49.0058 50.1894 45.8808 50.1894 42.0258C50.1894 38.1709 47.3055 35.0459 43.748 35.0459C40.1906 35.0459 37.3066 38.1709 37.3066 42.0258C37.3066 45.8808 40.1906 49.0058 43.748 49.0058Z" fill="#D4DCEA"/>
</mask>
<g mask="url(#mask6)">
<path d="M43.748 49.0058C47.3055 49.0058 50.1894 45.8808 50.1894 42.0258C50.1894 38.1709 47.3055 35.0459 43.748 35.0459C40.1906 35.0459 37.3066 38.1709 37.3066 42.0258C37.3066 45.8808 40.1906 49.0058 43.748 49.0058Z" fill="#D4DCEA"/>
</g>
<mask id="mask7" mask-type="alpha" maskUnits="userSpaceOnUse" x="74" y="35" width="14" height="15">
<path d="M81.0547 49.0058C84.6122 49.0058 87.4961 45.8808 87.4961 42.0258C87.4961 38.1709 84.6122 35.0459 81.0547 35.0459C77.4972 35.0459 74.6133 38.1709 74.6133 42.0258C74.6133 45.8808 77.4972 49.0058 81.0547 49.0058Z" fill="#D4DCEA"/>
</mask>
<g mask="url(#mask7)">
<path d="M81.0547 49.0058C84.6122 49.0058 87.4961 45.8808 87.4961 42.0258C87.4961 38.1709 84.6122 35.0459 81.0547 35.0459C77.4972 35.0459 74.6133 38.1709 74.6133 42.0258C74.6133 45.8808 77.4972 49.0058 81.0547 49.0058Z" fill="#D4DCEA"/>
</g>
<mask id="mask8" mask-type="alpha" maskUnits="userSpaceOnUse" x="111" y="35" width="14" height="15">
<path d="M118.361 49.0058C121.919 49.0058 124.803 45.8808 124.803 42.0258C124.803 38.1709 121.919 35.0459 118.361 35.0459C114.804 35.0459 111.92 38.1709 111.92 42.0258C111.92 45.8808 114.804 49.0058 118.361 49.0058Z" fill="#D4DCEA"/>
</mask>
<g mask="url(#mask8)">
<path d="M118.361 49.0058C121.919 49.0058 124.803 45.8808 124.803 42.0258C124.803 38.1709 121.919 35.0459 118.361 35.0459C114.804 35.0459 111.92 38.1709 111.92 42.0258C111.92 45.8808 114.804 49.0058 118.361 49.0058Z" fill="#D4DCEA"/>
</g>
<mask id="mask9" mask-type="alpha" maskUnits="userSpaceOnUse" x="149" y="35" width="14" height="15">
<path d="M155.666 49.0058C159.223 49.0058 162.107 45.8808 162.107 42.0258C162.107 38.1709 159.223 35.0459 155.666 35.0459C152.109 35.0459 149.225 38.1709 149.225 42.0258C149.225 45.8808 152.109 49.0058 155.666 49.0058Z" fill="#D4DCEA"/>
</mask>
<g mask="url(#mask9)">
<path d="M155.666 49.0058C159.223 49.0058 162.107 45.8808 162.107 42.0258C162.107 38.1709 159.223 35.0459 155.666 35.0459C152.109 35.0459 149.225 38.1709 149.225 42.0258C149.225 45.8808 152.109 49.0058 155.666 49.0058Z" fill="#D4DCEA"/>
</g>
<mask id="mask10" mask-type="alpha" maskUnits="userSpaceOnUse" x="0" y="70" width="13" height="14">
<path d="M6.44139 83.9789C9.99887 83.9789 12.8828 80.8539 12.8828 76.999C12.8828 73.1441 9.99887 70.019 6.44139 70.019C2.8839 70.019 0 73.1441 0 76.999C0 80.8539 2.8839 83.9789 6.44139 83.9789Z" fill="#D4DCEA"/>
</mask>
<g mask="url(#mask10)">
<path d="M6.44139 83.9789C9.99887 83.9789 12.8828 80.8539 12.8828 76.999C12.8828 73.1441 9.99887 70.019 6.44139 70.019C2.8839 70.019 0 73.1441 0 76.999C0 80.8539 2.8839 83.9789 6.44139 83.9789Z" fill="#D4DCEA"/>
</g>
<mask id="mask11" mask-type="alpha" maskUnits="userSpaceOnUse" x="37" y="70" width="14" height="14">
<path d="M43.748 83.9789C47.3055 83.9789 50.1894 80.8539 50.1894 76.999C50.1894 73.1441 47.3055 70.019 43.748 70.019C40.1906 70.019 37.3066 73.1441 37.3066 76.999C37.3066 80.8539 40.1906 83.9789 43.748 83.9789Z" fill="#D4DCEA"/>
</mask>
<g mask="url(#mask11)">
<path d="M43.748 83.9789C47.3055 83.9789 50.1894 80.8539 50.1894 76.999C50.1894 73.1441 47.3055 70.019 43.748 70.019C40.1906 70.019 37.3066 73.1441 37.3066 76.999C37.3066 80.8539 40.1906 83.9789 43.748 83.9789Z" fill="#D4DCEA"/>
</g>
<mask id="mask12" mask-type="alpha" maskUnits="userSpaceOnUse" x="74" y="70" width="14" height="14">
<path d="M81.0547 83.9789C84.6122 83.9789 87.4961 80.8539 87.4961 76.999C87.4961 73.1441 84.6122 70.019 81.0547 70.019C77.4972 70.019 74.6133 73.1441 74.6133 76.999C74.6133 80.8539 77.4972 83.9789 81.0547 83.9789Z" fill="#D4DCEA"/>
</mask>
<g mask="url(#mask12)">
<path d="M81.0547 83.9789C84.6122 83.9789 87.4961 80.8539 87.4961 76.999C87.4961 73.1441 84.6122 70.019 81.0547 70.019C77.4972 70.019 74.6133 73.1441 74.6133 76.999C74.6133 80.8539 77.4972 83.9789 81.0547 83.9789Z" fill="#D4DCEA"/>
</g>
<mask id="mask13" mask-type="alpha" maskUnits="userSpaceOnUse" x="111" y="70" width="14" height="14">
<path d="M118.361 83.9789C121.919 83.9789 124.803 80.8539 124.803 76.999C124.803 73.1441 121.919 70.019 118.361 70.019C114.804 70.019 111.92 73.1441 111.92 76.999C111.92 80.8539 114.804 83.9789 118.361 83.9789Z" fill="#D4DCEA"/>
</mask>
<g mask="url(#mask13)">
<path d="M118.361 83.9789C121.919 83.9789 124.803 80.8539 124.803 76.999C124.803 73.1441 121.919 70.019 118.361 70.019C114.804 70.019 111.92 73.1441 111.92 76.999C111.92 80.8539 114.804 83.9789 118.361 83.9789Z" fill="#D4DCEA"/>
</g>
<mask id="mask14" mask-type="alpha" maskUnits="userSpaceOnUse" x="149" y="70" width="14" height="14">
<path d="M155.666 83.9789C159.223 83.9789 162.107 80.8539 162.107 76.999C162.107 73.1441 159.223 70.019 155.666 70.019C152.109 70.019 149.225 73.1441 149.225 76.999C149.225 80.8539 152.109 83.9789 155.666 83.9789Z" fill="#D4DCEA"/>
</mask>
<g mask="url(#mask14)">
<path d="M155.666 83.9789C159.223 83.9789 162.107 80.8539 162.107 76.999C162.107 73.1441 159.223 70.019 155.666 70.019C152.109 70.019 149.225 73.1441 149.225 76.999C149.225 80.8539 152.109 83.9789 155.666 83.9789Z" fill="#D4DCEA"/>
</g>
<mask id="mask15" mask-type="alpha" maskUnits="userSpaceOnUse" x="0" y="105" width="13" height="15">
<path d="M6.44139 119.025C9.99887 119.025 12.8828 115.9 12.8828 112.045C12.8828 108.19 9.99887 105.065 6.44139 105.065C2.8839 105.065 0 108.19 0 112.045C0 115.9 2.8839 119.025 6.44139 119.025Z" fill="#D4DCEA"/>
</mask>
<g mask="url(#mask15)">
<path d="M6.44139 119.025C9.99887 119.025 12.8828 115.9 12.8828 112.045C12.8828 108.19 9.99887 105.065 6.44139 105.065C2.8839 105.065 0 108.19 0 112.045C0 115.9 2.8839 119.025 6.44139 119.025Z" fill="#D4DCEA"/>
</g>
<mask id="mask16" mask-type="alpha" maskUnits="userSpaceOnUse" x="37" y="105" width="14" height="15">
<path d="M43.748 119.025C47.3055 119.025 50.1894 115.9 50.1894 112.045C50.1894 108.19 47.3055 105.065 43.748 105.065C40.1906 105.065 37.3066 108.19 37.3066 112.045C37.3066 115.9 40.1906 119.025 43.748 119.025Z" fill="#D4DCEA"/>
</mask>
<g mask="url(#mask16)">
<path d="M43.748 119.025C47.3055 119.025 50.1894 115.9 50.1894 112.045C50.1894 108.19 47.3055 105.065 43.748 105.065C40.1906 105.065 37.3066 108.19 37.3066 112.045C37.3066 115.9 40.1906 119.025 43.748 119.025Z" fill="#D4DCEA"/>
</g>
<mask id="mask17" mask-type="alpha" maskUnits="userSpaceOnUse" x="74" y="105" width="14" height="15">
<path d="M81.0547 119.025C84.6122 119.025 87.4961 115.9 87.4961 112.045C87.4961 108.19 84.6122 105.065 81.0547 105.065C77.4972 105.065 74.6133 108.19 74.6133 112.045C74.6133 115.9 77.4972 119.025 81.0547 119.025Z" fill="#D4DCEA"/>
</mask>
<g mask="url(#mask17)">
<path d="M81.0547 119.025C84.6122 119.025 87.4961 115.9 87.4961 112.045C87.4961 108.19 84.6122 105.065 81.0547 105.065C77.4972 105.065 74.6133 108.19 74.6133 112.045C74.6133 115.9 77.4972 119.025 81.0547 119.025Z" fill="#D4DCEA"/>
</g>
<mask id="mask18" mask-type="alpha" maskUnits="userSpaceOnUse" x="111" y="105" width="14" height="15">
<path d="M118.361 119.025C121.919 119.025 124.803 115.9 124.803 112.045C124.803 108.19 121.919 105.065 118.361 105.065C114.804 105.065 111.92 108.19 111.92 112.045C111.92 115.9 114.804 119.025 118.361 119.025Z" fill="#D4DCEA"/>
</mask>
<g mask="url(#mask18)">
<path d="M118.361 119.025C121.919 119.025 124.803 115.9 124.803 112.045C124.803 108.19 121.919 105.065 118.361 105.065C114.804 105.065 111.92 108.19 111.92 112.045C111.92 115.9 114.804 119.025 118.361 119.025Z" fill="#D4DCEA"/>
</g>
<mask id="mask19" mask-type="alpha" maskUnits="userSpaceOnUse" x="149" y="105" width="14" height="15">
<path d="M155.666 119.025C159.223 119.025 162.107 115.9 162.107 112.045C162.107 108.19 159.223 105.065 155.666 105.065C152.109 105.065 149.225 108.19 149.225 112.045C149.225 115.9 152.109 119.025 155.666 119.025Z" fill="#D4DCEA"/>
</mask>
<g mask="url(#mask19)">
<path d="M155.666 119.025C159.223 119.025 162.107 115.9 162.107 112.045C162.107 108.19 159.223 105.065 155.666 105.065C152.109 105.065 149.225 108.19 149.225 112.045C149.225 115.9 152.109 119.025 155.666 119.025Z" fill="#D4DCEA"/>
</g>
<mask id="mask20" mask-type="alpha" maskUnits="userSpaceOnUse" x="0" y="140" width="13" height="14">
<path d="M6.44139 153.999C9.99887 153.999 12.8828 150.874 12.8828 147.019C12.8828 143.164 9.99887 140.039 6.44139 140.039C2.8839 140.039 0 143.164 0 147.019C0 150.874 2.8839 153.999 6.44139 153.999Z" fill="#D4DCEA"/>
</mask>
<g mask="url(#mask20)">
<path d="M6.44139 153.999C9.99887 153.999 12.8828 150.874 12.8828 147.019C12.8828 143.164 9.99887 140.039 6.44139 140.039C2.8839 140.039 0 143.164 0 147.019C0 150.874 2.8839 153.999 6.44139 153.999Z" fill="#D4DCEA"/>
</g>
<mask id="mask21" mask-type="alpha" maskUnits="userSpaceOnUse" x="37" y="140" width="14" height="14">
<path d="M43.748 153.999C47.3055 153.999 50.1894 150.874 50.1894 147.019C50.1894 143.164 47.3055 140.039 43.748 140.039C40.1906 140.039 37.3066 143.164 37.3066 147.019C37.3066 150.874 40.1906 153.999 43.748 153.999Z" fill="#D4DCEA"/>
</mask>
<g mask="url(#mask21)">
<path d="M43.748 153.999C47.3055 153.999 50.1894 150.874 50.1894 147.019C50.1894 143.164 47.3055 140.039 43.748 140.039C40.1906 140.039 37.3066 143.164 37.3066 147.019C37.3066 150.874 40.1906 153.999 43.748 153.999Z" fill="#D4DCEA"/>
</g>
<mask id="mask22" mask-type="alpha" maskUnits="userSpaceOnUse" x="74" y="140" width="14" height="14">
<path d="M81.0547 153.999C84.6122 153.999 87.4961 150.874 87.4961 147.019C87.4961 143.164 84.6122 140.039 81.0547 140.039C77.4972 140.039 74.6133 143.164 74.6133 147.019C74.6133 150.874 77.4972 153.999 81.0547 153.999Z" fill="#D4DCEA"/>
</mask>
<g mask="url(#mask22)">
<path d="M81.0547 153.999C84.6122 153.999 87.4961 150.874 87.4961 147.019C87.4961 143.164 84.6122 140.039 81.0547 140.039C77.4972 140.039 74.6133 143.164 74.6133 147.019C74.6133 150.874 77.4972 153.999 81.0547 153.999Z" fill="#D4DCEA"/>
</g>
<mask id="mask23" mask-type="alpha" maskUnits="userSpaceOnUse" x="111" y="140" width="14" height="14">
<path d="M118.361 153.999C121.919 153.999 124.803 150.874 124.803 147.019C124.803 143.164 121.919 140.039 118.361 140.039C114.804 140.039 111.92 143.164 111.92 147.019C111.92 150.874 114.804 153.999 118.361 153.999Z" fill="#D4DCEA"/>
</mask>
<g mask="url(#mask23)">
<path d="M118.361 153.999C121.919 153.999 124.803 150.874 124.803 147.019C124.803 143.164 121.919 140.039 118.361 140.039C114.804 140.039 111.92 143.164 111.92 147.019C111.92 150.874 114.804 153.999 118.361 153.999Z" fill="#D4DCEA"/>
</g>
<mask id="mask24" mask-type="alpha" maskUnits="userSpaceOnUse" x="149" y="140" width="14" height="14">
<path d="M155.666 153.999C159.223 153.999 162.107 150.874 162.107 147.019C162.107 143.164 159.223 140.039 155.666 140.039C152.109 140.039 149.225 143.164 149.225 147.019C149.225 150.874 152.109 153.999 155.666 153.999Z" fill="#D4DCEA"/>
</mask>
<g mask="url(#mask24)">
<path d="M155.666 153.999C159.223 153.999 162.107 150.874 162.107 147.019C162.107 143.164 159.223 140.039 155.666 140.039C152.109 140.039 149.225 143.164 149.225 147.019C149.225 150.874 152.109 153.999 155.666 153.999Z" fill="#D4DCEA"/>
</g>
</g>
</svg>
