<svg width="132" height="125" viewBox="0 0 132 125" fill="none" xmlns="http://www.w3.org/2000/svg">
<g opacity="0.3">
<mask id="mask0" mask-type="alpha" maskUnits="userSpaceOnUse" x="0" y="0" width="11" height="12">
<path d="M5.22839 11.3311C8.11595 11.3311 10.4568 8.79446 10.4568 5.66549C10.4568 2.53652 8.11595 0 5.22839 0C2.34083 0 0 2.53652 0 5.66549C0 8.79446 2.34083 11.3311 5.22839 11.3311Z" fill="#D4DCEA"/>
</mask>
<g mask="url(#mask0)">
<path d="M5.22839 11.3311C8.11595 11.3311 10.4568 8.79446 10.4568 5.66549C10.4568 2.53652 8.11595 0 5.22839 0C2.34083 0 0 2.53652 0 5.66549C0 8.79446 2.34083 11.3311 5.22839 11.3311Z" fill="#D4DCEA"/>
</g>
<mask id="mask1" mask-type="alpha" maskUnits="userSpaceOnUse" x="30" y="0" width="11" height="12">
<path d="M35.5096 11.3311C38.3972 11.3311 40.738 8.79446 40.738 5.66549C40.738 2.53652 38.3972 0 35.5096 0C32.6221 0 30.2812 2.53652 30.2812 5.66549C30.2812 8.79446 32.6221 11.3311 35.5096 11.3311Z" fill="#D4DCEA"/>
</mask>
<g mask="url(#mask1)">
<path d="M35.5096 11.3311C38.3972 11.3311 40.738 8.79446 40.738 5.66549C40.738 2.53652 38.3972 0 35.5096 0C32.6221 0 30.2812 2.53652 30.2812 5.66549C30.2812 8.79446 32.6221 11.3311 35.5096 11.3311Z" fill="#D4DCEA"/>
</g>
<mask id="mask2" mask-type="alpha" maskUnits="userSpaceOnUse" x="60" y="0" width="12" height="12">
<path d="M65.7904 11.3311C68.678 11.3311 71.0188 8.79446 71.0188 5.66549C71.0188 2.53652 68.678 0 65.7904 0C62.9028 0 60.562 2.53652 60.562 5.66549C60.562 8.79446 62.9028 11.3311 65.7904 11.3311Z" fill="#D4DCEA"/>
</mask>
<g mask="url(#mask2)">
<path d="M65.7904 11.3311C68.678 11.3311 71.0188 8.79446 71.0188 5.66549C71.0188 2.53652 68.678 0 65.7904 0C62.9028 0 60.562 2.53652 60.562 5.66549C60.562 8.79446 62.9028 11.3311 65.7904 11.3311Z" fill="#D4DCEA"/>
</g>
<mask id="mask3" mask-type="alpha" maskUnits="userSpaceOnUse" x="90" y="0" width="12" height="12">
<path d="M96.0716 11.3311C98.9591 11.3311 101.3 8.79446 101.3 5.66549C101.3 2.53652 98.9591 0 96.0716 0C93.1841 0 90.8433 2.53652 90.8433 5.66549C90.8433 8.79446 93.1841 11.3311 96.0716 11.3311Z" fill="#D4DCEA"/>
</mask>
<g mask="url(#mask3)">
<path d="M96.0716 11.3311C98.9591 11.3311 101.3 8.79446 101.3 5.66549C101.3 2.53652 98.9591 0 96.0716 0C93.1841 0 90.8433 2.53652 90.8433 5.66549C90.8433 8.79446 93.1841 11.3311 96.0716 11.3311Z" fill="#D4DCEA"/>
</g>
<mask id="mask4" mask-type="alpha" maskUnits="userSpaceOnUse" x="121" y="0" width="11" height="12">
<path d="M126.352 11.3311C129.24 11.3311 131.581 8.79446 131.581 5.66549C131.581 2.53652 129.24 0 126.352 0C123.465 0 121.124 2.53652 121.124 5.66549C121.124 8.79446 123.465 11.3311 126.352 11.3311Z" fill="#D4DCEA"/>
</mask>
<g mask="url(#mask4)">
<path d="M126.352 11.3311C129.24 11.3311 131.581 8.79446 131.581 5.66549C131.581 2.53652 129.24 0 126.352 0C123.465 0 121.124 2.53652 121.124 5.66549C121.124 8.79446 123.465 11.3311 126.352 11.3311Z" fill="#D4DCEA"/>
</g>
<mask id="mask5" mask-type="alpha" maskUnits="userSpaceOnUse" x="0" y="28" width="11" height="12">
<path d="M5.22839 39.7773C8.11595 39.7773 10.4568 37.2408 10.4568 34.1118C10.4568 30.9828 8.11595 28.4463 5.22839 28.4463C2.34083 28.4463 0 30.9828 0 34.1118C0 37.2408 2.34083 39.7773 5.22839 39.7773Z" fill="#D4DCEA"/>
</mask>
<g mask="url(#mask5)">
<path d="M5.22839 39.7773C8.11595 39.7773 10.4568 37.2408 10.4568 34.1118C10.4568 30.9828 8.11595 28.4463 5.22839 28.4463C2.34083 28.4463 0 30.9828 0 34.1118C0 37.2408 2.34083 39.7773 5.22839 39.7773Z" fill="#D4DCEA"/>
</g>
<mask id="mask6" mask-type="alpha" maskUnits="userSpaceOnUse" x="30" y="28" width="11" height="12">
<path d="M35.5094 39.7773C38.397 39.7773 40.7378 37.2408 40.7378 34.1118C40.7378 30.9828 38.397 28.4463 35.5094 28.4463C32.6218 28.4463 30.281 30.9828 30.281 34.1118C30.281 37.2408 32.6218 39.7773 35.5094 39.7773Z" fill="#D4DCEA"/>
</mask>
<g mask="url(#mask6)">
<path d="M35.5094 39.7773C38.397 39.7773 40.7378 37.2408 40.7378 34.1118C40.7378 30.9828 38.397 28.4463 35.5094 28.4463C32.6218 28.4463 30.281 30.9828 30.281 34.1118C30.281 37.2408 32.6218 39.7773 35.5094 39.7773Z" fill="#D4DCEA"/>
</g>
<mask id="mask7" mask-type="alpha" maskUnits="userSpaceOnUse" x="60" y="28" width="12" height="12">
<path d="M65.7904 39.7773C68.678 39.7773 71.0188 37.2408 71.0188 34.1118C71.0188 30.9828 68.678 28.4463 65.7904 28.4463C62.9028 28.4463 60.562 30.9828 60.562 34.1118C60.562 37.2408 62.9028 39.7773 65.7904 39.7773Z" fill="#D4DCEA"/>
</mask>
<g mask="url(#mask7)">
<path d="M65.7904 39.7773C68.678 39.7773 71.0188 37.2408 71.0188 34.1118C71.0188 30.9828 68.678 28.4463 65.7904 28.4463C62.9028 28.4463 60.562 30.9828 60.562 34.1118C60.562 37.2408 62.9028 39.7773 65.7904 39.7773Z" fill="#D4DCEA"/>
</g>
<mask id="mask8" mask-type="alpha" maskUnits="userSpaceOnUse" x="90" y="28" width="12" height="12">
<path d="M96.0716 39.7773C98.9591 39.7773 101.3 37.2408 101.3 34.1118C101.3 30.9828 98.9591 28.4463 96.0716 28.4463C93.1841 28.4463 90.8433 30.9828 90.8433 34.1118C90.8433 37.2408 93.1841 39.7773 96.0716 39.7773Z" fill="#D4DCEA"/>
</mask>
<g mask="url(#mask8)">
<path d="M96.0716 39.7773C98.9591 39.7773 101.3 37.2408 101.3 34.1118C101.3 30.9828 98.9591 28.4463 96.0716 28.4463C93.1841 28.4463 90.8433 30.9828 90.8433 34.1118C90.8433 37.2408 93.1841 39.7773 96.0716 39.7773Z" fill="#D4DCEA"/>
</g>
<mask id="mask9" mask-type="alpha" maskUnits="userSpaceOnUse" x="121" y="28" width="11" height="12">
<path d="M126.352 39.7773C129.24 39.7773 131.581 37.2408 131.581 34.1118C131.581 30.9828 129.24 28.4463 126.352 28.4463C123.465 28.4463 121.124 30.9828 121.124 34.1118C121.124 37.2408 123.465 39.7773 126.352 39.7773Z" fill="#D4DCEA"/>
</mask>
<g mask="url(#mask9)">
<path d="M126.352 39.7773C129.24 39.7773 131.581 37.2408 131.581 34.1118C131.581 30.9828 129.24 28.4463 126.352 28.4463C123.465 28.4463 121.124 30.9828 121.124 34.1118C121.124 37.2408 123.465 39.7773 126.352 39.7773Z" fill="#D4DCEA"/>
</g>
<mask id="mask10" mask-type="alpha" maskUnits="userSpaceOnUse" x="0" y="56" width="11" height="13">
<path d="M5.22839 68.1645C8.11595 68.1645 10.4568 65.628 10.4568 62.499C10.4568 59.37 8.11595 56.8335 5.22839 56.8335C2.34083 56.8335 0 59.37 0 62.499C0 65.628 2.34083 68.1645 5.22839 68.1645Z" fill="#D4DCEA"/>
</mask>
<g mask="url(#mask10)">
<path d="M5.22839 68.1645C8.11595 68.1645 10.4568 65.628 10.4568 62.499C10.4568 59.37 8.11595 56.8335 5.22839 56.8335C2.34083 56.8335 0 59.37 0 62.499C0 65.628 2.34083 68.1645 5.22839 68.1645Z" fill="#D4DCEA"/>
</g>
<mask id="mask11" mask-type="alpha" maskUnits="userSpaceOnUse" x="30" y="56" width="11" height="13">
<path d="M35.5094 68.1645C38.397 68.1645 40.7378 65.628 40.7378 62.499C40.7378 59.37 38.397 56.8335 35.5094 56.8335C32.6218 56.8335 30.281 59.37 30.281 62.499C30.281 65.628 32.6218 68.1645 35.5094 68.1645Z" fill="#D4DCEA"/>
</mask>
<g mask="url(#mask11)">
<path d="M35.5094 68.1645C38.397 68.1645 40.7378 65.628 40.7378 62.499C40.7378 59.37 38.397 56.8335 35.5094 56.8335C32.6218 56.8335 30.281 59.37 30.281 62.499C30.281 65.628 32.6218 68.1645 35.5094 68.1645Z" fill="#D4DCEA"/>
</g>
<mask id="mask12" mask-type="alpha" maskUnits="userSpaceOnUse" x="60" y="56" width="12" height="13">
<path d="M65.7904 68.1645C68.678 68.1645 71.0188 65.628 71.0188 62.499C71.0188 59.37 68.678 56.8335 65.7904 56.8335C62.9028 56.8335 60.562 59.37 60.562 62.499C60.562 65.628 62.9028 68.1645 65.7904 68.1645Z" fill="#D4DCEA"/>
</mask>
<g mask="url(#mask12)">
<path d="M65.7904 68.1645C68.678 68.1645 71.0188 65.628 71.0188 62.499C71.0188 59.37 68.678 56.8335 65.7904 56.8335C62.9028 56.8335 60.562 59.37 60.562 62.499C60.562 65.628 62.9028 68.1645 65.7904 68.1645Z" fill="#D4DCEA"/>
</g>
<mask id="mask13" mask-type="alpha" maskUnits="userSpaceOnUse" x="90" y="56" width="12" height="13">
<path d="M96.0716 68.1645C98.9591 68.1645 101.3 65.628 101.3 62.499C101.3 59.37 98.9591 56.8335 96.0716 56.8335C93.1841 56.8335 90.8433 59.37 90.8433 62.499C90.8433 65.628 93.1841 68.1645 96.0716 68.1645Z" fill="#D4DCEA"/>
</mask>
<g mask="url(#mask13)">
<path d="M96.0716 68.1645C98.9591 68.1645 101.3 65.628 101.3 62.499C101.3 59.37 98.9591 56.8335 96.0716 56.8335C93.1841 56.8335 90.8433 59.37 90.8433 62.499C90.8433 65.628 93.1841 68.1645 96.0716 68.1645Z" fill="#D4DCEA"/>
</g>
<mask id="mask14" mask-type="alpha" maskUnits="userSpaceOnUse" x="121" y="56" width="11" height="13">
<path d="M126.352 68.1645C129.24 68.1645 131.581 65.628 131.581 62.499C131.581 59.37 129.24 56.8335 126.352 56.8335C123.465 56.8335 121.124 59.37 121.124 62.499C121.124 65.628 123.465 68.1645 126.352 68.1645Z" fill="#D4DCEA"/>
</mask>
<g mask="url(#mask14)">
<path d="M126.352 68.1645C129.24 68.1645 131.581 65.628 131.581 62.499C131.581 59.37 129.24 56.8335 126.352 56.8335C123.465 56.8335 121.124 59.37 121.124 62.499C121.124 65.628 123.465 68.1645 126.352 68.1645Z" fill="#D4DCEA"/>
</g>
<mask id="mask15" mask-type="alpha" maskUnits="userSpaceOnUse" x="0" y="85" width="11" height="12">
<path d="M5.22839 96.6107C8.11595 96.6107 10.4568 94.0743 10.4568 90.9455C10.4568 87.8167 8.11595 85.2803 5.22839 85.2803C2.34083 85.2803 0 87.8167 0 90.9455C0 94.0743 2.34083 96.6107 5.22839 96.6107Z" fill="#D4DCEA"/>
</mask>
<g mask="url(#mask15)">
<path d="M5.22839 96.6107C8.11595 96.6107 10.4568 94.0743 10.4568 90.9455C10.4568 87.8167 8.11595 85.2803 5.22839 85.2803C2.34083 85.2803 0 87.8167 0 90.9455C0 94.0743 2.34083 96.6107 5.22839 96.6107Z" fill="#D4DCEA"/>
</g>
<mask id="mask16" mask-type="alpha" maskUnits="userSpaceOnUse" x="30" y="85" width="11" height="12">
<path d="M35.5094 96.6107C38.397 96.6107 40.7378 94.0743 40.7378 90.9455C40.7378 87.8167 38.397 85.2803 35.5094 85.2803C32.6218 85.2803 30.281 87.8167 30.281 90.9455C30.281 94.0743 32.6218 96.6107 35.5094 96.6107Z" fill="#D4DCEA"/>
</mask>
<g mask="url(#mask16)">
<path d="M35.5094 96.6107C38.397 96.6107 40.7378 94.0743 40.7378 90.9455C40.7378 87.8167 38.397 85.2803 35.5094 85.2803C32.6218 85.2803 30.281 87.8167 30.281 90.9455C30.281 94.0743 32.6218 96.6107 35.5094 96.6107Z" fill="#D4DCEA"/>
</g>
<mask id="mask17" mask-type="alpha" maskUnits="userSpaceOnUse" x="60" y="85" width="12" height="12">
<path d="M65.7904 96.6107C68.678 96.6107 71.0188 94.0743 71.0188 90.9455C71.0188 87.8167 68.678 85.2803 65.7904 85.2803C62.9028 85.2803 60.562 87.8167 60.562 90.9455C60.562 94.0743 62.9028 96.6107 65.7904 96.6107Z" fill="#D4DCEA"/>
</mask>
<g mask="url(#mask17)">
<path d="M65.7904 96.6107C68.678 96.6107 71.0188 94.0743 71.0188 90.9455C71.0188 87.8167 68.678 85.2803 65.7904 85.2803C62.9028 85.2803 60.562 87.8167 60.562 90.9455C60.562 94.0743 62.9028 96.6107 65.7904 96.6107Z" fill="#D4DCEA"/>
</g>
<mask id="mask18" mask-type="alpha" maskUnits="userSpaceOnUse" x="90" y="85" width="12" height="12">
<path d="M96.0716 96.6107C98.9591 96.6107 101.3 94.0743 101.3 90.9455C101.3 87.8167 98.9591 85.2803 96.0716 85.2803C93.1841 85.2803 90.8433 87.8167 90.8433 90.9455C90.8433 94.0743 93.1841 96.6107 96.0716 96.6107Z" fill="#D4DCEA"/>
</mask>
<g mask="url(#mask18)">
<path d="M96.0716 96.6107C98.9591 96.6107 101.3 94.0743 101.3 90.9455C101.3 87.8167 98.9591 85.2803 96.0716 85.2803C93.1841 85.2803 90.8433 87.8167 90.8433 90.9455C90.8433 94.0743 93.1841 96.6107 96.0716 96.6107Z" fill="#D4DCEA"/>
</g>
<mask id="mask19" mask-type="alpha" maskUnits="userSpaceOnUse" x="121" y="85" width="11" height="12">
<path d="M126.352 96.6107C129.24 96.6107 131.581 94.0743 131.581 90.9455C131.581 87.8167 129.24 85.2803 126.352 85.2803C123.465 85.2803 121.124 87.8167 121.124 90.9455C121.124 94.0743 123.465 96.6107 126.352 96.6107Z" fill="#D4DCEA"/>
</mask>
<g mask="url(#mask19)">
<path d="M126.352 96.6107C129.24 96.6107 131.581 94.0743 131.581 90.9455C131.581 87.8167 129.24 85.2803 126.352 85.2803C123.465 85.2803 121.124 87.8167 121.124 90.9455C121.124 94.0743 123.465 96.6107 126.352 96.6107Z" fill="#D4DCEA"/>
</g>
<mask id="mask20" mask-type="alpha" maskUnits="userSpaceOnUse" x="0" y="113" width="11" height="12">
<path d="M5.22839 124.999C8.11595 124.999 10.4568 122.462 10.4568 119.333C10.4568 116.204 8.11595 113.667 5.22839 113.667C2.34083 113.667 0 116.204 0 119.333C0 122.462 2.34083 124.999 5.22839 124.999Z" fill="#D4DCEA"/>
</mask>
<g mask="url(#mask20)">
<path d="M5.22839 124.999C8.11595 124.999 10.4568 122.462 10.4568 119.333C10.4568 116.204 8.11595 113.667 5.22839 113.667C2.34083 113.667 0 116.204 0 119.333C0 122.462 2.34083 124.999 5.22839 124.999Z" fill="#D4DCEA"/>
</g>
<mask id="mask21" mask-type="alpha" maskUnits="userSpaceOnUse" x="30" y="113" width="11" height="12">
<path d="M35.5094 124.999C38.397 124.999 40.7378 122.462 40.7378 119.333C40.7378 116.204 38.397 113.667 35.5094 113.667C32.6218 113.667 30.281 116.204 30.281 119.333C30.281 122.462 32.6218 124.999 35.5094 124.999Z" fill="#D4DCEA"/>
</mask>
<g mask="url(#mask21)">
<path d="M35.5094 124.999C38.397 124.999 40.7378 122.462 40.7378 119.333C40.7378 116.204 38.397 113.667 35.5094 113.667C32.6218 113.667 30.281 116.204 30.281 119.333C30.281 122.462 32.6218 124.999 35.5094 124.999Z" fill="#D4DCEA"/>
</g>
<mask id="mask22" mask-type="alpha" maskUnits="userSpaceOnUse" x="60" y="113" width="12" height="12">
<path d="M65.7904 124.999C68.678 124.999 71.0188 122.462 71.0188 119.333C71.0188 116.204 68.678 113.667 65.7904 113.667C62.9028 113.667 60.562 116.204 60.562 119.333C60.562 122.462 62.9028 124.999 65.7904 124.999Z" fill="#D4DCEA"/>
</mask>
<g mask="url(#mask22)">
<path d="M65.7904 124.999C68.678 124.999 71.0188 122.462 71.0188 119.333C71.0188 116.204 68.678 113.667 65.7904 113.667C62.9028 113.667 60.562 116.204 60.562 119.333C60.562 122.462 62.9028 124.999 65.7904 124.999Z" fill="#D4DCEA"/>
</g>
<mask id="mask23" mask-type="alpha" maskUnits="userSpaceOnUse" x="90" y="113" width="12" height="12">
<path d="M96.0716 124.999C98.9591 124.999 101.3 122.462 101.3 119.333C101.3 116.204 98.9591 113.667 96.0716 113.667C93.1841 113.667 90.8433 116.204 90.8433 119.333C90.8433 122.462 93.1841 124.999 96.0716 124.999Z" fill="#D4DCEA"/>
</mask>
<g mask="url(#mask23)">
<path d="M96.0716 124.999C98.9591 124.999 101.3 122.462 101.3 119.333C101.3 116.204 98.9591 113.667 96.0716 113.667C93.1841 113.667 90.8433 116.204 90.8433 119.333C90.8433 122.462 93.1841 124.999 96.0716 124.999Z" fill="#D4DCEA"/>
</g>
<mask id="mask24" mask-type="alpha" maskUnits="userSpaceOnUse" x="121" y="113" width="11" height="12">
<path d="M126.352 124.999C129.24 124.999 131.581 122.462 131.581 119.333C131.581 116.204 129.24 113.667 126.352 113.667C123.465 113.667 121.124 116.204 121.124 119.333C121.124 122.462 123.465 124.999 126.352 124.999Z" fill="#D4DCEA"/>
</mask>
<g mask="url(#mask24)">
<path d="M126.352 124.999C129.24 124.999 131.581 122.462 131.581 119.333C131.581 116.204 129.24 113.667 126.352 113.667C123.465 113.667 121.124 116.204 121.124 119.333C121.124 122.462 123.465 124.999 126.352 124.999Z" fill="#D4DCEA"/>
</g>
</g>
</svg>
