<svg width="728" height="484" viewBox="0 0 728 484" fill="none" xmlns="http://www.w3.org/2000/svg">
<path d="M637.256 478.083C633.693 462.402 616.632 448.348 591.653 440.528C585.249 438.522 578.568 436.838 572.109 435.219C557.948 431.659 543.311 427.977 530.562 420.594C512.238 409.98 500.099 393.145 488.358 376.856C479.347 364.362 470.018 351.43 457.923 341.262C434.16 321.288 402.025 313.496 370.948 305.946C340.58 298.576 309.169 290.952 285.176 272.016C265.809 256.724 251.686 234.583 242.009 204.324C238.025 191.866 235.045 179.051 232.148 166.651C229.256 154.234 226.263 141.397 222.273 128.955C212.671 98.9784 198.757 77.6652 179.966 61.0861C157.038 39.9685 111.51 -3.85271 89.1699 6.74945L88.3961 5.56089C111.262 -5.28988 156.384 37.1864 180.891 60.1138C199.706 76.4003 214.003 98.4276 223.702 128.685C227.706 141.178 230.701 154.043 233.596 166.48C236.48 178.857 239.459 191.643 243.429 204.051C253.019 234.032 266.976 255.943 286.101 271.044C309.808 289.764 341.035 297.337 371.227 304.666C402.493 312.251 434.83 320.102 458.89 340.322C471.143 350.617 480.512 363.617 489.589 376.198C501.24 392.346 513.286 409.049 531.3 419.486C543.836 426.752 558.356 430.404 572.4 433.934C578.888 435.563 585.588 437.253 592.039 439.274C617.581 447.273 635.033 461.734 638.712 477.923L637.256 478.083Z" fill="#E0E9FB"/>
<path d="M610.072 474.098C602.642 450.033 580.939 425.522 558.465 415.818C540.725 408.163 521.184 405.122 502.286 402.175C498.398 401.57 494.381 400.94 490.453 400.294C468.583 396.652 443.703 390.937 424.985 376.193C409.618 364.077 400.337 347.429 391.369 331.328C385.341 320.51 379.117 309.332 371.071 299.537C351.483 275.676 321.796 260.573 293.093 245.964C265.371 231.857 236.703 217.27 216.787 194.736C196.77 172.096 187.784 144.002 179.099 116.838C177.682 112.394 176.209 107.803 174.725 103.337C165.232 74.7699 140.73 44.6189 151.325 20.7439L152.748 21.2183C141.837 42.8795 166.566 74.2471 176.15 103.047C177.64 107.524 179.111 112.124 180.528 116.568C189.173 143.599 198.112 171.548 217.92 193.962C237.63 216.261 266.164 230.776 293.739 244.816C322.595 259.503 352.435 274.685 372.234 298.801C380.361 308.697 386.619 319.932 392.671 330.804C401.566 346.779 410.773 363.301 425.901 375.218C444.316 389.732 468.934 395.378 490.597 398.979C494.521 399.633 498.529 400.259 502.417 400.865C521.425 403.829 541.079 406.88 559.01 414.627C581.881 424.5 603.949 449.4 611.498 473.836L610.072 474.098Z" fill="#E0E9FB"/>
</svg>
