<svg width="429" height="276" viewBox="0 0 429 276" fill="none" xmlns="http://www.w3.org/2000/svg">
<path d="M645.63 271.184C637.29 257.434 616.66 249.498 590.49 249.978C583.78 250.101 576.91 250.617 570.27 251.124C555.71 252.225 540.66 253.361 526.23 250.389C505.49 246.115 488.65 233.983 472.36 222.244C459.86 213.241 446.92 203.923 432.23 198.102C403.37 186.669 370.42 189.44 338.55 192.106C307.41 194.719 275.2 197.42 246.45 187.045C223.24 178.662 202.84 162.125 184.09 136.479C176.37 125.92 169.49 114.706 162.82 103.858C156.15 92.9935 149.25 81.7616 141.53 71.2201C122.94 45.8193 102.75 29.4653 79.81 21.214C51.31 10.9697 18.95 15.7684 1.11 32.8917L0 32.0089C18.26 14.4835 51.31 9.54497 80.38 19.999C103.62 28.3552 124.03 44.8753 142.8 70.5121C150.55 81.0973 157.46 92.3554 164.14 103.238C170.79 114.068 177.66 125.256 185.35 135.771C203.93 161.181 224.1 177.552 247.02 185.83C275.43 196.091 307.45 193.399 338.41 190.803C370.47 188.111 403.63 185.331 432.85 196.904C447.73 202.796 460.73 212.166 473.32 221.23C489.48 232.864 506.19 244.9 526.58 249.104C540.77 252.033 555.7 250.905 570.14 249.812C576.81 249.305 583.7 248.79 590.46 248.667C617.22 248.178 638.35 256.377 646.96 270.572L645.63 271.184Z" fill="#E0E9FB"/>
<path d="M618.58 276C603.92 255.52 575.58 239.131 551.19 237.033C531.94 235.381 512.44 238.677 493.58 241.858C489.7 242.514 485.69 243.187 481.76 243.816C459.86 247.278 434.45 249.725 412.03 241.657C393.62 235.023 379.55 222.165 365.95 209.727C356.81 201.371 347.37 192.735 336.64 185.987C310.51 169.546 277.57 164.607 245.72 159.826C214.96 155.211 183.15 150.438 157.13 135.36C130.98 120.212 113.57 96.4025 96.74 73.3791C93.99 69.6119 91.14 65.7222 88.32 61.9549C70.28 37.8565 44.87 9.1866 8.29004 1.27616L8.65004 0C45.74 8.02407 71.38 36.9387 89.58 61.2294C92.41 65.0054 95.26 68.9038 98.01 72.6711C114.76 95.5808 132.08 119.268 157.96 134.268C183.71 149.188 215.37 153.934 245.97 158.532C277.99 163.34 311.1 168.304 337.51 184.921C348.35 191.739 357.84 200.418 367.02 208.818C380.51 221.16 394.47 233.922 412.59 240.442C434.65 248.388 459.79 245.958 481.48 242.523C485.41 241.902 489.41 241.229 493.29 240.573C512.26 237.374 531.87 234.053 551.33 235.731C576.15 237.864 604.96 254.506 619.85 275.301L618.58 276Z" fill="#E0E9FB"/>
</svg>
