<?xml version="1.0" encoding="UTF-8"?>
<svg width="96px" height="64px" viewBox="0 0 96 64" version="1.1" xmlns="http://www.w3.org/2000/svg" xmlns:xlink="http://www.w3.org/1999/xlink">
    <!-- Generator: Sketch 53.1 (72631) - https://sketchapp.com -->
    <title>my</title>
    <desc>Created with Sketch.</desc>
    <g id="Page-1" stroke="none" stroke-width="1" fill="none" fill-rule="evenodd">
        <g id="Desktop-HD" transform="translate(-419.000000, -325.000000)" fill-rule="nonzero">
            <g id="my" transform="translate(419.000000, 325.000000)">
                <rect id="Rectangle" fill="#F0F0F0" x="0" y="0.0619415205" width="95.8128655" height="63.8759298"></rect>
                <g id="Group" transform="translate(0.000000, 7.859649)" fill="#D80027">
                    <rect id="Rectangle" x="0" y="0.186011696" width="95.8128655" height="7.9837193"></rect>
                    <rect id="Rectangle" x="0" y="16.1555088" width="95.8128655" height="7.9837193"></rect>
                    <rect id="Rectangle" x="0" y="32.1229474" width="95.8128655" height="7.9837193"></rect>
                    <rect id="Rectangle" x="0" y="48.0924444" width="95.8128655" height="7.9837193"></rect>
                </g>
                <rect id="Rectangle" fill="#0052B4" x="0" y="0.0619415205" width="47.9064327" height="34.3947602"></rect>
                <g id="Group" transform="translate(13.473684, 7.485380)" fill="#FFDA44">
                    <path d="M12.8971228,17.670924 C8.53539181,17.670924 4.99967251,14.1350175 4.99967251,9.77347368 C4.99967251,5.41192982 8.53557895,1.87602339 12.8971228,1.87602339 C14.2570292,1.87602339 15.5364678,2.21997661 16.653848,2.82516959 C14.9013333,1.11139181 12.5045146,0.0535204678 9.85955556,0.0535204678 C4.4914152,0.0535204678 0.139602339,4.40533333 0.139602339,9.77347368 C0.139602339,15.141614 4.49160234,19.4934269 9.85955556,19.4934269 C12.5043275,19.4934269 14.9013333,18.4355556 16.653848,16.7217778 C15.536655,17.3269708 14.2570292,17.670924 12.8971228,17.670924 Z" id="Path"></path>
                    <polygon id="Path" points="15.1225263 4.21894737 16.5247251 7.15097076 19.6910409 6.41927485 18.2731228 9.3434386 20.8196491 11.3629942 17.6490292 12.0776608 17.6580117 15.3276257 15.1225263 13.2942222 12.5870409 15.3276257 12.5958363 12.0776608 9.42521637 11.3629942 11.9717427 9.3434386 10.5534503 6.41927485 13.7201404 7.15097076"></polygon>
                </g>
            </g>
        </g>
    </g>
</svg>