<?xml version="1.0" encoding="utf-8"?>
<!-- Generator: Adobe Illustrator 24.1.0, SVG Export Plug-In . SVG Version: 6.00 Build 0)  -->
<svg version="1.1" id="Layer_1" xmlns="http://www.w3.org/2000/svg" xmlns:xlink="http://www.w3.org/1999/xlink" x="0px" y="0px"
	 viewBox="0 0 24 24" style="enable-background:new 0 0 24 24;" xml:space="preserve">
<style type="text/css">
	.st0{fill:#FFFFFF;stroke:#005EF9;stroke-linecap:round;stroke-linejoin:round;}
	.st1{fill:none;stroke:#005EF9;stroke-linecap:round;stroke-linejoin:round;}
</style>
<path class="st0" d="M2,0.5h20c0.8,0,1.5,0.7,1.5,1.5v20c0,0.8-0.7,1.5-1.5,1.5H2c-0.8,0-1.5-0.7-1.5-1.5V2C0.5,1.2,1.2,0.5,2,0.5z"
	/>
<g>
	<path class="st1" d="M9.5,6.7c-1.7,1-2.8,2.8-2.8,4.9c0,1.1,0.3,2.2,1,3.1c0.6,0.9,1.5,1.7,2.5,2.1c1,0.4,2.2,0.5,3.3,0.3
		s2.1-0.8,2.9-1.5c0.8-0.8,1.3-1.8,1.5-2.9c0.2-1.1,0.1-2.2-0.3-3.3c-0.4-1-1.2-1.9-2.1-2.5"/>
	<path class="st1" d="M9.5,10.2V6.7H6"/>
</g>
</svg>
