<svg width="24" height="25" viewBox="0 0 24 25" fill="none" xmlns="http://www.w3.org/2000/svg">
<rect x="0.5" y="0.900391" width="23" height="23" rx="1.5" stroke="#005EF9"/>
<path d="M9.52958 7C7.82558 7.972 6.70605 9.83906 6.70605 11.9412C6.70605 13.0581 7.03725 14.1499 7.65776 15.0785C8.27826 16.0072 9.16021 16.731 10.1921 17.1584C11.2239 17.5858 12.3594 17.6976 13.4548 17.4797C14.5502 17.2618 15.5564 16.724 16.3462 15.9342C17.1359 15.1445 17.6738 14.1383 17.8917 13.0429C18.1096 11.9474 17.9977 10.812 17.5703 9.78014C17.1429 8.74827 16.4191 7.86633 15.4904 7.24582" stroke="#005EF9" stroke-linecap="round" stroke-linejoin="round"/>
<path d="M9.52941 10.5294V7H6" stroke="#005EF9" stroke-linecap="round" stroke-linejoin="round"/>
</svg>
