<?xml version="1.0" encoding="utf-8"?>
<!-- Generator: Adobe Illustrator 24.1.0, SVG Export Plug-In . SVG Version: 6.00 Build 0)  -->
<svg version="1.1" id="Layer_1" xmlns="http://www.w3.org/2000/svg" xmlns:xlink="http://www.w3.org/1999/xlink" x="0px" y="0px"
	 viewBox="0 0 24 24" style="enable-background:new 0 0 24 24;" xml:space="preserve">
<style type="text/css">
	.st0{fill:#FFFFFF;stroke:#D9DFEA;}
	.st1{fill:none;stroke:#CCCCCC;stroke-linecap:round;stroke-linejoin:round;}
	.st2{fill:none;stroke:#CCCCCC;}
</style>
<path class="st0" d="M2,0.5h20c0.8,0,1.5,0.7,1.5,1.5v20c0,0.8-0.7,1.5-1.5,1.5H2c-0.8,0-1.5-0.7-1.5-1.5V2C0.5,1.2,1.2,0.5,2,0.5z"
	/>
<g>
	<path class="st1" d="M8.2,11.4l-1.9,1.8c-0.6,0.6-0.9,1.3-0.9,2.1c0,0.8,0.3,1.6,0.8,2.1c0.6,0.6,1.3,0.9,2.1,0.9
		c0.8,0,1.6-0.3,2.2-0.8l1.5-1.7"/>
	<path class="st1" d="M16.1,12.4l1.9-1.8c0.6-0.6,0.9-1.3,0.9-2.1c0-0.8-0.3-1.6-0.8-2.1s-1.3-0.9-2.1-0.9c-0.8,0-1.6,0.3-2.2,0.8
		l-1.5,1.7"/>
	<line class="st2" x1="7.4" y1="6.1" x2="16.5" y2="16.9"/>
</g>
</svg>
