<svg width="18" height="17" viewBox="0 0 18 17" fill="none" xmlns="http://www.w3.org/2000/svg">
<path d="M16.0256 7.4633H15.2188C15.1729 7.29594 15.074 7.14819 14.9372 7.04238C14.8003 6.93656 14.633 6.87845 14.4604 6.87681H13.5992V4.75816C13.6002 4.71852 13.5906 4.67934 13.5716 4.64463C13.5525 4.60992 13.5247 4.58094 13.4908 4.56064L7.41545 1.03057C7.38121 1.01055 7.34231 1 7.3027 1C7.2631 1 7.2242 1.01055 7.18996 1.03057L1.11271 4.56064C1.07833 4.58069 1.0498 4.60951 1.03001 4.64418C1.01023 4.67886 0.999874 4.71817 1 4.75816V11.8183C1 11.8584 1.01048 11.8977 1.03038 11.9324C1.05028 11.967 1.0789 11.9958 1.11336 12.0158L7.19122 15.5459C7.22569 15.5659 7.26479 15.5765 7.30458 15.5765C7.34541 15.5765 7.38556 15.566 7.42118 15.5459L10.6194 13.6901V15.0317C10.6191 15.1594 10.644 15.2859 10.6926 15.4039C10.7412 15.5219 10.8126 15.629 10.9026 15.7191C10.9926 15.8091 11.0995 15.8803 11.2171 15.9285C11.3347 15.9768 11.4606 16.001 11.5876 16H16.0256C16.1529 16.0011 16.2792 15.977 16.3972 15.9289C16.5151 15.8808 16.6225 15.8097 16.7131 15.7197C16.8036 15.6297 16.8756 15.5226 16.9248 15.4045C16.9741 15.2864 16.9996 15.1597 17 15.0317V8.44671C16.9998 8.18649 16.8972 7.93693 16.7146 7.75263C16.532 7.56833 16.2843 7.4643 16.0256 7.4633ZM14.4685 7.33297C14.5558 7.33297 14.6395 7.36785 14.7012 7.42994C14.7629 7.49203 14.7976 7.57623 14.7976 7.66404V7.68613C14.7976 7.77394 14.7629 7.85815 14.7012 7.92024C14.6395 7.98232 14.5558 8.0172 14.4685 8.0172H13.151C13.0637 8.0172 12.98 7.98232 12.9183 7.92024C12.8565 7.85815 12.8219 7.77394 12.8219 7.68613V7.66404C12.8219 7.57623 12.8565 7.49203 12.9183 7.42994C12.98 7.36785 13.0637 7.33297 13.151 7.33297H14.4685ZM7.30458 1.49145L9.83006 2.95826L4.20603 6.22473L1.68058 4.75793L7.30458 1.49145ZM7.08907 14.9533L1.45344 11.6866V5.1527L7.08907 8.4194V14.9533ZM7.30458 8.02437L4.65947 6.48807L10.2835 3.22162L12.9287 4.75793L7.30458 8.02437ZM10.6194 8.44671V13.1634L7.54251 14.9533V8.4194L13.1457 5.1527V6.87681H13.1528C12.9802 6.87844 12.8128 6.93656 12.676 7.04237C12.5392 7.14818 12.4403 7.29594 12.3943 7.4633H11.5876C11.3295 7.46456 11.0826 7.56887 10.901 7.7533C10.7195 7.93772 10.6182 8.18715 10.6194 8.44671ZM16.5466 15.0317C16.5462 15.0998 16.5325 15.1673 16.506 15.23C16.4796 15.2928 16.441 15.3497 16.3926 15.3973C16.3441 15.445 16.2867 15.4825 16.2237 15.5076C16.1607 15.5328 16.0934 15.5451 16.0256 15.5438H11.5876C11.5201 15.5449 11.4532 15.5325 11.3906 15.5073C11.328 15.482 11.271 15.4444 11.2231 15.3967C11.1751 15.349 11.1371 15.2921 11.1114 15.2294C11.0856 15.1667 11.0725 15.0995 11.0729 15.0317V8.44671C11.0722 8.37807 11.085 8.30998 11.1105 8.24632C11.136 8.18265 11.1737 8.12468 11.2215 8.07571C11.2693 8.02673 11.3263 7.98772 11.3891 7.96091C11.4519 7.9341 11.5193 7.92001 11.5876 7.91946H12.4032C12.4518 8.0809 12.5511 8.22214 12.6863 8.322C12.8214 8.42187 12.9851 8.47497 13.1528 8.47336H14.4604C14.6281 8.47498 14.7918 8.42187 14.9269 8.32201C15.062 8.22214 15.1614 8.0809 15.21 7.91946H16.0256C16.1641 7.92033 16.2965 7.97627 16.3941 8.07505C16.4917 8.17383 16.5465 8.30744 16.5466 8.44671V15.0317Z" fill="white" stroke="white" stroke-width="0.5"/>
</svg>
