<svg width="18" height="18" viewBox="0 0 18 18" fill="none" xmlns="http://www.w3.org/2000/svg">
<path d="M16.9911 5.93705L16.1022 1.36562C16.0599 1.1529 15.8778 1 15.6667 1H2.33333C2.12218 1 1.9401 1.1529 1.89779 1.36562L1.0089 5.93705C1.00304 5.96719 1 5.99777 1 6.02857C1 6.08705 1.01107 6.14241 1.01476 6.2C1.00499 6.29487 1.00022 6.39018 1 6.48571C1 6.59933 1.04123 6.70893 1.11545 6.79286C1.30642 7.46942 1.74219 8.04464 2.33333 8.40022V16.5429C2.33333 16.7953 2.53234 17 2.77778 17H15.2222C15.4677 17 15.6667 16.7953 15.6667 16.5429V8.39933C16.2574 8.04375 16.6934 7.46897 16.8845 6.79286C16.9588 6.70893 17 6.59933 17 6.48571C16.9998 6.39018 16.995 6.29487 16.9852 6.2C16.9889 6.14241 17 6.08705 17 6.02857C17 5.99777 16.997 5.96719 16.9911 5.93705ZM2.69727 1.91429H15.3027L15.9822 5.41094C15.9427 5.49621 15.9303 5.59219 15.9466 5.68527L16.0801 6.36741C15.9453 7.09911 15.3937 7.67455 14.684 7.82321C14.5686 7.84732 14.451 7.85871 14.3333 7.85714C13.7743 7.85491 13.2483 7.58437 12.911 7.12567C12.8273 7.01071 12.6955 6.94286 12.5556 6.94286C12.4156 6.94286 12.2839 7.01071 12.2001 7.12567C11.8644 7.58616 11.3372 7.85714 10.7778 7.85714C10.2183 7.85714 9.69119 7.58616 9.35547 7.12567C9.26801 7.01629 9.13759 6.95312 9 6.95312C8.86241 6.95312 8.73199 7.01629 8.64453 7.12567C8.30881 7.58616 7.78168 7.85714 7.22222 7.85714C6.66276 7.85714 6.13563 7.58616 5.79991 7.12567C5.71246 7.01629 5.58203 6.95312 5.44444 6.95312C5.30686 6.95312 5.17643 7.01629 5.08898 7.12567C4.75174 7.58437 4.22569 7.85491 3.66667 7.85714C3.54709 7.85804 3.42795 7.84554 3.3112 7.82009C2.60395 7.67031 2.05512 7.09576 1.92231 6.36585L2.05556 5.68393C2.07183 5.59085 2.05946 5.49487 2.01997 5.4096L2.69727 1.91429ZM7.66667 16.0857V11.9714H10.3333V16.0857H7.66667ZM11.2222 16.0857V11.5143C11.2222 11.2618 11.0232 11.0571 10.7778 11.0571H7.22222C6.97678 11.0571 6.77778 11.2618 6.77778 11.5143V16.0857H3.22222V8.73036C3.36892 8.75714 3.51758 8.77098 3.66667 8.77143C4.32248 8.76942 4.95486 8.52054 5.44444 8.07165C6.45595 9.00469 7.9885 9.00469 9 8.07165C10.0115 9.00469 11.5441 9.00469 12.5556 8.07165C13.0451 8.52054 13.6775 8.76942 14.3333 8.77143C14.4824 8.77098 14.6311 8.75737 14.7778 8.7308V16.0857H11.2222Z" fill="white" stroke="white" stroke-width="0.3"/>
</svg>
