<svg width="124" height="132" viewBox="0 0 124 132" fill="none" xmlns="http://www.w3.org/2000/svg">
<path d="M0 91.7041V86.5264C0 85.6822 0.684218 84.998 1.52843 84.998H103.977C104.821 84.998 105.505 85.6822 105.505 86.5264V91.7041C105.505 92.5483 104.821 93.2326 103.977 93.2326H1.52843C0.684218 93.2328 0 92.5483 0 91.7041Z" fill="#F5F9FF"/>
<path d="M99.6013 84.4982H84.1321V9.31729C84.1321 8.18642 85.0487 7.26983 86.1796 7.26983H97.5539C98.6847 7.26983 99.6013 8.18642 99.6013 9.31729V84.4982Z" stroke="#D9DFEA"/>
<path d="M99.5419 82.1143C99.5419 83.4444 98.4636 84.5226 97.1336 84.5226C95.8035 84.5226 94.7253 83.4444 94.7253 82.1143V9.96747C94.7253 8.58138 95.0589 7.4579 95.4703 7.4579H98.7968C99.2083 7.4579 99.5419 8.58138 99.5419 9.96747V82.1143Z" fill="#F5F9FF"/>
<path d="M73.5252 84.4982H58.056V25.2717C58.056 24.1408 58.9725 23.2242 60.1034 23.2242H71.4777C72.6086 23.2242 73.5252 24.1408 73.5252 25.2717V84.4982Z" stroke="#D9DFEA"/>
<path d="M47.4492 84.4982H31.98V36.3369C31.98 35.206 32.8965 34.2894 34.0274 34.2894H45.4017C46.5326 34.2894 47.4492 35.206 47.4492 36.3369V84.4982Z" stroke="#D9DFEA"/>
<path d="M21.373 84.4982H5.90378V49.2035C5.90378 48.0726 6.82037 47.156 7.95124 47.156H19.3255C20.4564 47.156 21.373 48.0726 21.373 49.2035V84.4982Z" stroke="#D9DFEA"/>
<rect x="69.7873" y="23.255" width="3.29704" height="46.9829" rx="1.64852" fill="#F5F9FF"/>
<rect x="43.411" y="34.7947" width="3.29704" height="46.9829" rx="1.64852" fill="#F5F9FF"/>
<path d="M17.0346 47.9829H18.3317C19.4362 47.9829 20.3317 48.8783 20.3317 49.9829V82.2503C20.3317 83.3549 19.4362 84.2503 18.3317 84.2503H17.0346V47.9829Z" fill="#F5F9FF"/>
<path d="M54.8431 131.5H50.1569C50.1482 131.498 50.117 131.486 50.0636 131.431C49.9845 131.35 49.8903 131.206 49.8006 130.988C49.622 130.555 49.5 129.921 49.5 129.195V115.5H55.5V129.195C55.5 129.921 55.3779 130.555 55.1993 130.988C55.1096 131.206 55.0153 131.35 54.9363 131.431C54.8829 131.486 54.8518 131.498 54.8431 131.5ZM50.1594 131.5C50.1594 131.5 50.1586 131.5 50.1571 131.5L50.1594 131.5ZM54.8405 131.5C54.8405 131.5 54.8413 131.5 54.8428 131.5L54.8405 131.5Z" fill="white" stroke="#D9DFEA"/>
<path d="M57.8923 122.874H47.5474C46.4166 122.874 45.5 121.957 45.5 120.827V114.61H59.9398V120.826C59.9398 120.826 59.9398 120.827 59.9398 120.827C59.9395 121.957 59.0228 122.874 57.8923 122.874Z" fill="white" stroke="#D9DFEA"/>
<path d="M83.1321 84.9982C83.1321 101.776 69.5307 115.378 52.7526 115.378C35.9744 115.378 22.373 101.776 22.373 84.9982C22.373 68.22 35.9744 54.6186 52.7526 54.6186C69.5307 54.6186 83.1321 68.22 83.1321 84.9982Z" fill="white" stroke="#D9DFEA"/>
<path d="M71.0678 61.128C74.9326 66.1456 77.2283 72.4055 77.2283 79.1954C77.2283 95.6956 63.6806 109.072 46.9689 109.072C40.0919 109.072 33.7516 106.805 28.6698 102.989C34.1967 110.165 42.934 114.798 52.7686 114.798C69.4804 114.798 83.028 101.422 83.028 84.9217C83.028 75.2115 78.3351 66.5849 71.0678 61.128Z" fill="#F5F9FF"/>
<path d="M74.8975 84.9982C74.8975 97.2285 64.9829 107.143 52.7526 107.143C40.5222 107.143 30.6076 97.2285 30.6076 84.9982C30.6076 72.7679 40.5222 62.8532 52.7526 62.8532C64.9829 62.8532 74.8975 72.7679 74.8975 84.9982Z" stroke="#D9DFEA"/>
<path d="M118.446 1V6" stroke="#D9DFEA" stroke-linecap="round" stroke-linejoin="round"/>
<path d="M115.946 3.5H120.946" stroke="#D9DFEA" stroke-linecap="round" stroke-linejoin="round"/>
<path d="M120.094 15.0124V20.0124" stroke="#D9DFEA" stroke-linecap="round" stroke-linejoin="round"/>
<path d="M117.594 17.5124H122.594" stroke="#D9DFEA" stroke-linecap="round" stroke-linejoin="round"/>
<path d="M111.028 9.24261V14.2426" stroke="#D9DFEA" stroke-linecap="round" stroke-linejoin="round"/>
<path d="M108.528 11.7426H113.528" stroke="#D9DFEA" stroke-linecap="round" stroke-linejoin="round"/>
</svg>
