<svg width="18" height="11" viewBox="0 0 18 11" fill="none" xmlns="http://www.w3.org/2000/svg">
<rect y="0.201172" width="18" height="10" rx="1" fill="#8F8F8F"/>
<path d="M2.5 4.40061C2.5 4.23511 2.5363 4.07983 2.60889 3.93478C2.68148 3.78974 2.77969 3.66328 2.90352 3.55543C3.02949 3.44571 3.17574 3.35924 3.34227 3.29601C3.50881 3.23279 3.68708 3.20117 3.8771 3.20117H5.98439V4.00173H3.8771C3.81305 4.00173 3.75327 4.01196 3.69776 4.03241C3.64225 4.05287 3.59314 4.08169 3.55044 4.11888C3.50987 4.15422 3.47785 4.19606 3.45436 4.24441C3.43088 4.29276 3.41914 4.34483 3.41914 4.40061C3.41914 4.4564 3.43088 4.5094 3.45436 4.55961C3.47785 4.60796 3.50987 4.65073 3.55044 4.68792C3.59314 4.72325 3.64225 4.75115 3.69776 4.7716C3.75327 4.79206 3.81305 4.80229 3.8771 4.80229H4.79624C4.98626 4.80229 5.16453 4.8339 5.33106 4.89713C5.49973 4.95849 5.64598 5.04404 5.76982 5.15375C5.89578 5.26161 5.994 5.38899 6.06445 5.5359C6.13704 5.68095 6.17334 5.83623 6.17334 6.00173C6.17334 6.16723 6.13704 6.32251 6.06445 6.46756C5.994 6.61261 5.89578 6.73999 5.76982 6.84971C5.64598 6.95756 5.49973 7.04311 5.33106 7.10633C5.16453 7.16956 4.98626 7.20117 4.79624 7.20117H2.7562V6.40061H4.79624C4.86029 6.40061 4.92007 6.39039 4.97558 6.36993C5.03109 6.34948 5.07913 6.32158 5.1197 6.28625C5.1624 6.24906 5.19549 6.20629 5.21898 6.15794C5.24246 6.10959 5.2542 6.05752 5.2542 6.00173C5.2542 5.94594 5.24246 5.89387 5.21898 5.84552C5.19549 5.79717 5.1624 5.75533 5.1197 5.72C5.07913 5.68281 5.03109 5.65398 4.97558 5.63353C4.92007 5.61307 4.86029 5.60285 4.79624 5.60285H3.8771C3.68708 5.60285 3.50881 5.57123 3.34227 5.50801C3.17574 5.44478 3.02949 5.35924 2.90352 5.25138C2.77969 5.14166 2.68148 5.01428 2.60889 4.86923C2.5363 4.72232 2.5 4.56612 2.5 4.40061Z" fill="white"/>
<path d="M8.19776 7.20117H7.27862V3.20117H8.19776V5.20117L9.90793 3.20117H10.952L9.5012 4.88876L10.952 7.20117H9.90793L8.89912 5.58332L8.19776 6.40061V7.20117Z" fill="white"/>
<path d="M15.5 5.60285C15.5 5.82414 15.452 6.03241 15.3559 6.22767C15.2598 6.42107 15.1285 6.59029 14.962 6.73534C14.7954 6.87853 14.6001 6.99197 14.3759 7.07565C14.1539 7.15933 13.9158 7.20117 13.6617 7.20117C13.4077 7.20117 13.1685 7.15933 12.9444 7.07565C12.7223 6.99197 12.528 6.87853 12.3615 6.73534C12.1971 6.59029 12.0669 6.42107 11.9708 6.22767C11.8747 6.03241 11.8267 5.82414 11.8267 5.60285V3.20117H12.7426V5.60285C12.7426 5.71256 12.7661 5.81577 12.8131 5.91247C12.8622 6.00917 12.9283 6.09378 13.0116 6.1663C13.0949 6.23883 13.192 6.29648 13.303 6.33925C13.4162 6.38016 13.5358 6.40061 13.6617 6.40061C13.7877 6.40061 13.9062 6.38016 14.0172 6.33925C14.1304 6.29648 14.2286 6.23883 14.3118 6.1663C14.3951 6.09378 14.4602 6.00917 14.5072 5.91247C14.5563 5.81577 14.5809 5.71256 14.5809 5.60285V3.20117H15.5V5.60285Z" fill="white"/>
<rect y="0.201172" width="18" height="10" rx="1" fill="#8392A5"/>
<path d="M2.5 4.40061C2.5 4.23511 2.5363 4.07983 2.60889 3.93478C2.68148 3.78974 2.77969 3.66328 2.90352 3.55543C3.02949 3.44571 3.17574 3.35924 3.34227 3.29601C3.50881 3.23279 3.68708 3.20117 3.8771 3.20117H5.98439V4.00173H3.8771C3.81305 4.00173 3.75327 4.01196 3.69776 4.03241C3.64225 4.05287 3.59314 4.08169 3.55044 4.11888C3.50987 4.15422 3.47785 4.19606 3.45436 4.24441C3.43088 4.29276 3.41914 4.34483 3.41914 4.40061C3.41914 4.4564 3.43088 4.5094 3.45436 4.55961C3.47785 4.60796 3.50987 4.65073 3.55044 4.68792C3.59314 4.72325 3.64225 4.75115 3.69776 4.7716C3.75327 4.79206 3.81305 4.80229 3.8771 4.80229H4.79624C4.98626 4.80229 5.16453 4.8339 5.33106 4.89713C5.49973 4.95849 5.64598 5.04404 5.76982 5.15375C5.89578 5.26161 5.994 5.38899 6.06445 5.5359C6.13704 5.68095 6.17334 5.83623 6.17334 6.00173C6.17334 6.16723 6.13704 6.32251 6.06445 6.46756C5.994 6.61261 5.89578 6.73999 5.76982 6.84971C5.64598 6.95756 5.49973 7.04311 5.33106 7.10633C5.16453 7.16956 4.98626 7.20117 4.79624 7.20117H2.7562V6.40061H4.79624C4.86029 6.40061 4.92007 6.39039 4.97558 6.36993C5.03109 6.34948 5.07913 6.32158 5.1197 6.28625C5.1624 6.24906 5.19549 6.20629 5.21898 6.15794C5.24246 6.10959 5.2542 6.05752 5.2542 6.00173C5.2542 5.94594 5.24246 5.89387 5.21898 5.84552C5.19549 5.79717 5.1624 5.75533 5.1197 5.72C5.07913 5.68281 5.03109 5.65398 4.97558 5.63353C4.92007 5.61307 4.86029 5.60285 4.79624 5.60285H3.8771C3.68708 5.60285 3.50881 5.57123 3.34227 5.50801C3.17574 5.44478 3.02949 5.35924 2.90352 5.25138C2.77969 5.14166 2.68148 5.01428 2.60889 4.86923C2.5363 4.72232 2.5 4.56612 2.5 4.40061Z" fill="white"/>
<path d="M8.19776 7.20117H7.27862V3.20117H8.19776V5.20117L9.90793 3.20117H10.952L9.5012 4.88876L10.952 7.20117H9.90793L8.89912 5.58332L8.19776 6.40061V7.20117Z" fill="white"/>
<path d="M15.5 5.60285C15.5 5.82414 15.452 6.03241 15.3559 6.22767C15.2598 6.42107 15.1285 6.59029 14.962 6.73534C14.7954 6.87853 14.6001 6.99197 14.3759 7.07565C14.1539 7.15933 13.9158 7.20117 13.6617 7.20117C13.4077 7.20117 13.1685 7.15933 12.9444 7.07565C12.7223 6.99197 12.528 6.87853 12.3615 6.73534C12.1971 6.59029 12.0669 6.42107 11.9708 6.22767C11.8747 6.03241 11.8267 5.82414 11.8267 5.60285V3.20117H12.7426V5.60285C12.7426 5.71256 12.7661 5.81577 12.8131 5.91247C12.8622 6.00917 12.9283 6.09378 13.0116 6.1663C13.0949 6.23883 13.192 6.29648 13.303 6.33925C13.4162 6.38016 13.5358 6.40061 13.6617 6.40061C13.7877 6.40061 13.9062 6.38016 14.0172 6.33925C14.1304 6.29648 14.2286 6.23883 14.3118 6.1663C14.3951 6.09378 14.4602 6.00917 14.5072 5.91247C14.5563 5.81577 14.5809 5.71256 14.5809 5.60285V3.20117H15.5V5.60285Z" fill="white"/>
</svg>
