<svg width="19" height="19" viewBox="0 0 19 19" fill="none" xmlns="http://www.w3.org/2000/svg">
<rect width="19" height="19" rx="2" fill="#F46061"/>
<path d="M8.5835 9.95848C8.78033 10.2216 9.03145 10.4394 9.31983 10.5969C9.60821 10.7545 9.9271 10.8482 10.2549 10.8716C10.5827 10.8951 10.9116 10.8478 11.2195 10.733C11.5274 10.6181 11.807 10.4384 12.0393 10.206L13.4143 8.83098C13.8318 8.39877 14.0628 7.81989 14.0575 7.21902C14.0523 6.61815 13.8113 6.04337 13.3864 5.61848C12.9615 5.19359 12.3867 4.95257 11.7859 4.94735C11.185 4.94213 10.6061 5.17312 10.1739 5.59056L9.38558 6.37431" stroke="white" stroke-linecap="round" stroke-linejoin="round"/>
<path d="M10.4165 9.04205C10.2197 8.77891 9.96856 8.56118 9.68018 8.40362C9.3918 8.24607 9.07291 8.15238 8.74513 8.1289C8.41736 8.10543 8.08837 8.15272 7.78048 8.26757C7.47259 8.38242 7.193 8.56215 6.96068 8.79455L5.58568 10.1696C5.16824 10.6018 4.93725 11.1806 4.94247 11.7815C4.94769 12.3824 5.1887 12.9572 5.6136 13.3821C6.03849 13.8069 6.61327 14.048 7.21414 14.0532C7.815 14.0584 8.39388 13.8274 8.8261 13.41L9.60985 12.6262" stroke="white" stroke-linecap="round" stroke-linejoin="round"/>
</svg>
