<svg width="66" height="104" viewBox="0 0 66 104" fill="none" xmlns="http://www.w3.org/2000/svg">
<path d="M63.843 89.3439H65.843C65.843 88.2393 64.9476 87.3439 63.843 87.3439V89.3439ZM63.843 102V104C64.9476 104 65.843 103.105 65.843 102H63.843ZM9.11391 102H7.11391C7.11391 103.105 8.00934 104 9.11391 104V102ZM9.11391 89.3439V87.3439C8.00934 87.3439 7.11391 88.2393 7.11391 89.3439H9.11391ZM29.1585 89.3439V91.3439C30.263 91.3439 31.1585 90.4485 31.1585 89.3439H29.1585ZM29.3637 24.6267L31.3605 24.7397C31.4055 23.9438 30.9736 23.1971 30.2612 22.8394C29.5487 22.4816 28.6919 22.5812 28.0804 23.0927L29.3637 24.6267ZM15.1341 36.5303L16.362 38.109C16.3807 38.0944 16.3992 38.0795 16.4174 38.0643L15.1341 36.5303ZM12.6713 37.7617L13.0189 39.7312C13.0478 39.7262 13.0765 39.7204 13.1052 39.7141L12.6713 37.7617ZM10.4137 37.7617L10.0215 39.7228C10.0294 39.7244 10.0373 39.7259 10.0451 39.7274L10.4137 37.7617ZM8.56662 37.0776L7.45723 38.7417C7.49047 38.7638 7.52437 38.785 7.55888 38.8051L8.56662 37.0776ZM7.33522 35.9146L8.99932 34.8052C8.98382 34.7819 8.96784 34.759 8.95138 34.7364L7.33522 35.9146ZM1.99913 28.5946L0.703529 27.0709C-0.0937834 27.7489 -0.233559 28.927 0.382961 29.7727L1.99913 28.5946ZM32.1686 2.94028V0.940277C31.6938 0.940277 31.2346 1.10913 30.873 1.41665L32.1686 2.94028ZM46.0561 2.94028H48.0561C48.0561 1.83571 47.1606 0.940277 46.0561 0.940277V2.94028ZM46.0561 89.3439H44.0561C44.0561 90.4485 44.9515 91.3439 46.0561 91.3439V89.3439ZM63.843 87.3439H61.6197V91.3439H63.843V87.3439ZM57.1729 87.3439H52.7262V91.3439H57.1729V87.3439ZM48.2794 87.3439H46.0561V91.3439H48.2794V87.3439ZM48.0561 89.3439V86.9438H44.0561V89.3439H48.0561ZM48.0561 82.1436V77.3434H44.0561V82.1436H48.0561ZM48.0561 72.5432V67.743H44.0561V72.5432H48.0561ZM48.0561 62.9428V58.1426H44.0561V62.9428H48.0561ZM48.0561 53.3424V48.5422H44.0561V53.3424H48.0561ZM48.0561 43.742V38.9418H44.0561V43.742H48.0561ZM48.0561 34.1416V29.3414H44.0561V34.1416H48.0561ZM48.0561 24.5412V19.741H44.0561V24.5412H48.0561ZM48.0561 14.9408V10.1406H44.0561V14.9408H48.0561ZM48.0561 5.34037V2.94028H44.0561V5.34037H48.0561ZM46.0561 0.940277H42.5842V4.94028H46.0561V0.940277ZM35.6404 0.940277H32.1686V4.94028H35.6404V0.940277ZM30.873 1.41665L28.9874 3.02005L31.5786 6.06729L33.4642 4.4639L30.873 1.41665ZM25.2162 6.22683L21.445 9.43362L24.0362 12.4809L27.8074 9.27408L25.2162 6.22683ZM17.6738 12.6404L13.9027 15.8472L16.4939 18.8944L20.265 15.6876L17.6738 12.6404ZM10.1315 19.054L6.3603 22.2608L8.95149 25.308L12.7227 22.1012L10.1315 19.054ZM2.58912 25.4675L0.703529 27.0709L3.29472 30.1182L5.18031 28.5148L2.58912 25.4675ZM0.382961 29.7727L1.71698 31.6027L4.94931 29.2464L3.61529 27.4164L0.382961 29.7727ZM4.38503 35.2627L5.71905 37.0927L8.95138 34.7364L7.61736 32.9064L4.38503 35.2627ZM5.67111 37.024C5.79996 37.2173 5.94162 37.3999 6.09331 37.5724L9.09727 34.9311C9.05441 34.8824 9.02268 34.8402 8.99932 34.8052L5.67111 37.024ZM6.99847 38.413C7.14608 38.5269 7.29924 38.6364 7.45723 38.7417L9.67602 35.4135C9.58935 35.3557 9.51153 35.2998 9.44184 35.246L6.99847 38.413ZM7.55888 38.8051C7.75365 38.9187 7.95363 39.0233 8.15851 39.119L9.85101 35.4947C9.75466 35.4497 9.66255 35.4015 9.57437 35.35L7.55888 38.8051ZM9.39793 39.5745C9.6029 39.6314 9.81083 39.6807 10.0215 39.7228L10.806 35.8005C10.6879 35.7769 10.5751 35.75 10.4671 35.7201L9.39793 39.5745ZM10.0451 39.7274C10.2934 39.774 10.5435 39.8086 10.7952 39.8314L11.156 35.8477C11.0302 35.8363 10.9057 35.8191 10.7823 35.7959L10.0451 39.7274ZM12.292 39.8289C12.5346 39.8066 12.777 39.7739 13.0189 39.7312L12.3237 35.7921C12.1881 35.8161 12.0556 35.8338 11.9261 35.8457L12.292 39.8289ZM13.1052 39.7141C13.42 39.6441 13.7296 39.5517 14.0336 39.4385L12.6384 35.6897C12.4993 35.7415 12.3658 35.7808 12.2374 35.8093L13.1052 39.7141ZM15.6598 38.6101C15.898 38.4552 16.1321 38.2878 16.362 38.109L13.9062 34.9516C13.7597 35.0656 13.6172 35.167 13.479 35.257L15.6598 38.6101ZM16.4174 38.0643L18.1961 36.5764L15.6295 33.5083L13.8508 34.9963L16.4174 38.0643ZM21.7535 33.6005L25.3109 30.6246L22.7443 27.5565L19.1869 30.5324L21.7535 33.6005ZM28.8683 27.6487L30.647 26.1607L28.0804 23.0927L26.3017 24.5806L28.8683 27.6487ZM27.3669 24.5137C27.3329 25.1132 27.3032 25.7088 27.2775 26.3004L31.2737 26.4737C31.2986 25.9 31.3275 25.3219 31.3605 24.7397L27.3669 24.5137ZM27.1721 29.8804C27.163 30.4823 27.1585 31.0798 27.1585 31.6731H31.1585C31.1585 31.1003 31.1628 30.5229 31.1716 29.9408L27.1721 29.8804ZM27.1585 31.6731V34.076H31.1585V31.6731H27.1585ZM27.1585 38.8819V43.6878H31.1585V38.8819H27.1585ZM27.1585 48.4937V53.2996H31.1585V48.4937H27.1585ZM27.1585 58.1055V62.9114H31.1585V58.1055H27.1585ZM27.1585 67.7173V72.5232H31.1585V67.7173H27.1585ZM27.1585 77.3291V82.135H31.1585V77.3291H27.1585ZM27.1585 86.9409V89.3439H31.1585V86.9409H27.1585ZM29.1585 87.3439H26.6529V91.3439H29.1585V87.3439ZM21.6418 87.3439H16.6306V91.3439H21.6418V87.3439ZM11.6195 87.3439H9.11391V91.3439H11.6195V87.3439ZM7.11391 89.3439V92.5079H11.1139V89.3439H7.11391ZM7.11391 98.836V102H11.1139V98.836H7.11391ZM9.11391 104H11.8504V100H9.11391V104ZM17.3233 104H22.7962V100H17.3233V104ZM28.2691 104H33.742V100H28.2691V104ZM39.2149 104H44.6878V100H39.2149V104ZM50.1608 104H55.6337V100H50.1608V104ZM61.1066 104H63.843V100H61.1066V104ZM65.843 102V98.836H61.843V102H65.843ZM65.843 92.5079V89.3439H61.843V92.5079H65.843Z" fill="#D4DCEA"/>
</svg>
