<svg width="73" height="105" viewBox="0 0 73 105" fill="none" xmlns="http://www.w3.org/2000/svg">
<path d="M68.4587 88.8388L67.0445 90.2531C67.065 90.2735 67.0859 90.2936 67.1073 90.3131L68.4587 88.8388ZM70.1006 103V105C71.2052 105 72.1006 104.105 72.1006 103H70.1006ZM2.2365 103H0.236498C0.236498 104.105 1.13193 105 2.2365 105V103ZM2.92061 93.8329L1.05911 93.1016C1.05433 93.1137 1.04966 93.126 1.04511 93.1382L2.92061 93.8329ZM5.2466 90.4123L6.62905 91.8576C6.6403 91.8468 6.65142 91.8359 6.66242 91.8249L5.2466 90.4123ZM35.2792 60.3113L36.695 61.7239C36.6987 61.7202 36.7024 61.7164 36.7061 61.7127L35.2792 60.3113ZM41.9835 52.9913L40.4692 51.6848C40.4643 51.6905 40.4594 51.6963 40.4545 51.7021L41.9835 52.9913ZM46.9776 46.0817L45.2475 45.0783L46.9776 46.0817ZM49.9877 39.1722L48.0761 38.584C48.0737 38.5919 48.0713 38.5999 48.0689 38.6078L49.9877 39.1722ZM50.0561 25.4899L48.1834 26.1921C48.1854 26.1974 48.1874 26.2026 48.1894 26.2078L50.0561 25.4899ZM47.1144 20.9063L45.7002 22.3205C45.7087 22.3291 45.7174 22.3376 45.7261 22.346L47.1144 20.9063ZM42.5992 18.1699L41.9078 20.0465C41.9274 20.0537 41.947 20.0606 41.9668 20.0672L42.5992 18.1699ZM31.1061 18.1014L31.7231 20.0039C31.7333 20.0006 31.7434 19.9972 31.7535 19.9938L31.1061 18.1014ZM26.591 20.4958L27.7997 22.0892C27.8112 22.0805 27.8225 22.0717 27.8337 22.0628L26.591 20.4958ZM23.2388 24.0532L24.9029 25.1626L23.2388 24.0532ZM21.1865 28.5684L23.0624 29.2617C23.0816 29.2097 23.0987 29.157 23.1135 29.1037L21.1865 28.5684ZM18.1764 32.7415L17.2051 30.9932L18.1764 32.7415ZM12.8403 33.2204L12.4918 35.1898C12.5046 35.192 12.5175 35.1942 12.5303 35.1962L12.8403 33.2204ZM3.94678 31.6469L1.96727 31.3614C1.81313 32.4301 2.5351 33.4282 3.59835 33.6163L3.94678 31.6469ZM7.91465 19.196L9.66615 20.1616L9.67129 20.1522L7.91465 19.196ZM15.2347 10.2341L16.4959 11.7864L16.4985 11.7842L15.2347 10.2341ZM25.3596 4.82962L25.9574 6.73817C25.9621 6.73669 25.9669 6.7352 25.9716 6.73368L25.3596 4.82962ZM50.1929 5.03486L49.5131 6.91577C49.5198 6.91819 49.5265 6.92058 49.5332 6.92293L50.1929 5.03486ZM66.2012 19.6065L68.0357 18.8099L66.2012 19.6065ZM66.8169 41.2929L64.9309 40.6273C64.928 40.6355 64.9251 40.6438 64.9223 40.6521L66.8169 41.2929ZM62.507 50.1864L60.8264 49.1021C60.8222 49.1086 60.8181 49.115 60.814 49.1215L62.507 50.1864ZM56.2131 58.3958L57.6895 59.7449H57.6895L56.2131 58.3958ZM48.6194 66.4683L50.0486 67.8674L50.0574 67.8584L48.6194 66.4683ZM26.3173 89.2493L24.8882 87.8502C24.2505 88.5016 24.1339 89.5018 24.6047 90.2823C25.0756 91.0629 26.0146 91.4263 26.8883 91.1661L26.3173 89.2493ZM32.6796 87.8127L32.9805 89.7899C32.992 89.7881 33.0036 89.7863 33.0152 89.7843L32.6796 87.8127ZM64.1488 85.2654H62.0338V89.2654H64.1488V85.2654ZM57.8037 85.2654H53.5736V89.2654H57.8037V85.2654ZM49.3435 85.2654H45.1133V89.2654H49.3435V85.2654ZM40.8832 85.2654H38.7682V89.2654H40.8832V85.2654ZM38.7682 85.2654C38.233 85.2654 37.6909 85.2787 37.1421 85.3053L37.3355 89.3006C37.8219 89.2771 38.2995 89.2654 38.7682 89.2654V85.2654ZM33.9286 85.6004C33.4061 85.6699 32.8778 85.7502 32.344 85.841L33.0152 89.7843C33.5028 89.7013 33.9831 89.6284 34.4561 89.5655L33.9286 85.6004ZM32.3787 85.8354C31.8196 85.9205 31.2594 86.0164 30.698 86.123L31.4443 90.0527C31.9582 89.9551 32.4702 89.8676 32.9805 89.7899L32.3787 85.8354ZM27.3803 86.8744C26.8367 87.0173 26.292 87.17 25.7464 87.3325L26.8883 91.1661C27.3929 91.0158 27.8958 90.8748 28.3969 90.7431L27.3803 86.8744ZM27.7465 90.6484L29.605 88.75L26.7467 85.9518L24.8882 87.8502L27.7465 90.6484ZM33.322 84.9532L37.039 81.1563L34.1807 78.3581L30.4637 82.1549L33.322 84.9532ZM40.756 77.3595L44.4731 73.5627L41.6147 70.7644L37.8977 74.5613L40.756 77.3595ZM48.1901 69.7658L50.0486 67.8674L47.1903 65.0692L45.3318 66.9676L48.1901 69.7658ZM50.0574 67.8584C50.707 67.1864 51.3498 66.5171 51.9858 65.8504L49.0917 63.0892C48.4618 63.7495 47.825 64.4125 47.1815 65.0783L50.0574 67.8584ZM55.8026 61.7943C56.439 61.1082 57.068 60.4251 57.6895 59.7449L54.7367 57.0466C54.122 57.7193 53.4998 58.3951 52.8701 59.0739L55.8026 61.7943ZM57.6895 59.7449C58.2957 59.0815 58.883 58.412 59.4512 57.7363L56.3899 55.1618C55.8576 55.7947 55.3066 56.423 54.7367 57.0466L57.6895 59.7449ZM62.7151 53.4892C63.2314 52.7501 63.7263 52.0041 64.1999 51.2513L60.814 49.1215C60.3752 49.819 59.9159 50.5114 59.4358 51.1987L62.7151 53.4892ZM64.1875 51.2706C64.6593 50.5395 65.1067 49.7989 65.5296 49.049L62.0455 47.084C61.662 47.7641 61.2556 48.4368 60.8264 49.1021L64.1875 51.2706ZM67.7997 44.372C68.1295 43.5685 68.4334 42.7557 68.7114 41.9337L64.9223 40.6521C64.6714 41.394 64.397 42.1277 64.0993 42.8533L67.7997 44.372ZM68.7029 41.9585C69.0079 41.0944 69.2728 40.2118 69.498 39.3112L65.6175 38.341C65.4223 39.1216 65.1934 39.8836 64.9309 40.6273L68.7029 41.9585ZM70.359 33.8912C70.4256 32.9976 70.4587 32.0898 70.4587 31.168H66.4587C66.4587 31.994 66.4291 32.8026 66.3701 33.5939L70.359 33.8912ZM70.4587 31.168C70.4587 30.1023 70.4137 29.0561 70.3231 28.0297L66.3386 28.3815C66.4185 29.2862 66.4587 30.2149 66.4587 31.168H70.4587ZM69.1363 21.808C68.8248 20.7821 68.458 19.7825 68.0357 18.8099L64.3666 20.4031C64.7271 21.2331 65.0412 22.0887 65.3089 22.9702L69.1363 21.808ZM68.0357 18.8099C67.6409 17.9007 67.2069 17.0214 66.7335 16.1725L63.2401 18.1209C63.6476 18.8515 64.0232 19.6121 64.3666 20.4031L68.0357 18.8099ZM63.3295 11.3486C62.679 10.61 61.9882 9.90633 61.2576 9.23766L58.557 12.1883C59.1827 12.761 59.7729 13.3624 60.3279 13.9925L63.3295 11.3486ZM61.2576 9.23766C60.5084 8.55193 59.7205 7.90771 58.8942 7.30504L56.537 10.5367C57.2448 11.0529 57.9179 11.6034 58.557 12.1883L61.2576 9.23766ZM53.6482 4.26344C52.7469 3.85508 51.8148 3.483 50.8526 3.14679L49.5332 6.92293C50.3872 7.22131 51.2084 7.54944 51.9974 7.90691L53.6482 4.26344ZM50.8727 3.15395C49.8204 2.7736 48.7419 2.44364 47.6375 2.16375L46.6548 6.04116C47.6345 6.28946 48.5871 6.5811 49.5131 6.91577L50.8727 3.15395ZM41.0068 1.10386C39.9158 1.02283 38.8047 0.982521 37.6736 0.982521V4.98252C38.7097 4.98252 39.7219 5.01944 40.7105 5.09288L41.0068 1.10386ZM37.6736 0.982521C36.5713 0.982521 35.4836 1.01995 34.4107 1.09507L34.69 5.0853C35.6674 5.01687 36.6619 4.98252 37.6736 4.98252V0.982521ZM27.9236 2.05209C26.8469 2.29998 25.7881 2.59109 24.7475 2.92557L25.9716 6.73368C26.9032 6.43422 27.853 6.17299 28.821 5.95012L27.9236 2.05209ZM24.7617 2.92108C23.7767 3.22963 22.8159 3.57812 21.8797 3.96682L23.4135 7.66106C24.2365 7.31938 25.0844 7.01166 25.9574 6.73817L24.7617 2.92108ZM16.4509 6.85572C15.596 7.42355 14.7692 8.03307 13.9708 8.68409L16.4985 11.7842C17.1964 11.2152 17.9181 10.6831 18.6639 10.1878L16.4509 6.85572ZM13.9735 8.6819C13.1672 9.33698 12.3955 10.0354 11.6585 10.7768L14.4953 13.5968C15.1334 12.9549 15.8002 12.3515 16.4959 11.7864L13.9735 8.6819ZM7.74703 15.5962C7.1864 16.4421 6.65683 17.3234 6.15801 18.2399L9.67129 20.1522C10.1166 19.334 10.5866 18.5522 11.0811 17.8062L7.74703 15.5962ZM6.16316 18.2305C5.6072 19.239 5.10089 20.2891 4.64376 21.3802L8.33304 22.9259C8.73683 21.9621 9.18136 21.0409 9.66613 20.1616L6.16316 18.2305ZM2.57856 27.9852C2.33759 29.08 2.13398 30.2055 1.96727 31.3614L5.9263 31.9324C6.0797 30.8688 6.26611 29.8398 6.48506 28.845L2.57856 27.9852ZM3.59835 33.6163L5.82172 34.0097L6.51859 30.0708L4.29522 29.6775L3.59835 33.6163ZM10.2685 34.7964L12.4918 35.1898L13.1887 31.2509L10.9653 30.8576L10.2685 34.7964ZM12.5303 35.1962C13.0533 35.2782 13.5604 35.3377 14.0507 35.3729L14.3374 31.3832C13.9706 31.3569 13.5752 31.3112 13.1502 31.2445L12.5303 35.1962ZM17.3607 35.1666C17.9904 35.0192 18.5916 34.7987 19.1476 34.4898L17.2051 30.9932C17.0141 31.0993 16.7677 31.1973 16.449 31.2719L17.3607 35.1666ZM19.1476 34.4898C19.6945 34.186 20.1887 33.8012 20.6334 33.3531L17.7942 30.5355C17.5875 30.7437 17.3902 30.8903 17.2051 30.9932L19.1476 34.4898ZM22.4787 30.6459C22.6887 30.2098 22.8828 29.7477 23.0624 29.2617L19.3105 27.8751C19.1697 28.2559 19.024 28.6004 18.8747 28.9105L22.4787 30.6459ZM23.1135 29.1037C23.2124 28.7476 23.3231 28.4001 23.4455 28.061L19.6829 26.7033C19.5259 27.1385 19.3848 27.5819 19.2594 28.0331L23.1135 29.1037ZM24.3403 26.0862C24.5152 25.7707 24.7027 25.4629 24.9029 25.1626L21.5747 22.9438C21.3141 23.3348 21.0698 23.7357 20.842 24.1465L24.3403 26.0862ZM24.9029 25.1626C25.1003 24.8665 25.3085 24.5808 25.5273 24.3054L22.3957 21.8169C22.107 22.1801 21.8334 22.5558 21.5747 22.9438L24.9029 25.1626ZM26.9787 22.7662C27.2407 22.5314 27.5143 22.3058 27.7997 22.0892L25.3822 18.9025C25.0111 19.184 24.6533 19.4789 24.3093 19.7873L26.9787 22.7662ZM27.8337 22.0628C28.1207 21.8353 28.4176 21.6216 28.7246 21.4216L26.5417 18.0697C26.1305 18.3376 25.7326 18.624 25.3482 18.9288L27.8337 22.0628ZM30.6749 20.3921C31.0131 20.2504 31.3624 20.1209 31.7231 20.0039L30.4891 16.199C30.0252 16.3494 29.5717 16.5174 29.1288 16.703L30.6749 20.3921ZM31.7535 19.9938C32.1428 19.8606 32.5412 19.7442 32.9488 19.6448L32.001 15.7587C31.4778 15.8863 30.9637 16.0364 30.4587 16.2091L31.7535 19.9938ZM35.4372 19.2582C35.8541 19.2276 36.2803 19.2121 36.7159 19.2121V15.2121C36.1854 15.2121 35.6614 15.2309 35.1439 15.269L35.4372 19.2582ZM36.7159 19.2121C37.1819 19.2121 37.6331 19.228 38.0699 19.2592L38.3556 15.2695C37.8193 15.2311 37.2727 15.2121 36.7159 15.2121V19.2121ZM40.6785 19.6673C41.1057 19.7753 41.5153 19.9019 41.9078 20.0465L43.2906 16.2932C42.7617 16.0983 42.2175 15.9305 41.6588 15.7893L40.6785 19.6673ZM41.9668 20.0672C42.3326 20.1892 42.6811 20.3257 43.013 20.4763L44.6655 16.8336C44.2026 16.6236 43.7244 16.4367 43.2317 16.2725L41.9668 20.0672ZM44.8877 21.6026C45.173 21.8248 45.4437 22.064 45.7002 22.3205L48.5286 19.4921C48.1558 19.1193 47.7615 18.7708 47.3459 18.4471L44.8877 21.6026ZM45.7261 22.346C45.9965 22.6068 46.2511 22.884 46.49 23.1781L49.5948 20.6562C49.2544 20.237 48.8903 19.8404 48.5027 19.4666L45.7261 22.346ZM47.7179 25.1109C47.8861 25.4533 48.0414 25.8135 48.1834 26.1921L51.9287 24.7876C51.7428 24.2917 51.5361 23.8115 51.3083 23.3475L47.7179 25.1109ZM48.1894 26.2078C48.3457 26.6143 48.4828 27.0442 48.5997 27.4987L52.4736 26.5023C52.3203 25.9062 52.1371 25.3291 51.9228 24.7719L48.1894 26.2078ZM49.0332 30.2702C49.0657 30.7338 49.0822 31.2154 49.0822 31.7153H53.0822C53.0822 31.1273 53.0628 30.5521 53.0233 29.9901L49.0332 30.2702ZM49.0822 31.7153C49.0822 32.3062 49.0619 32.8894 49.0215 33.4649L53.0117 33.7453C53.0588 33.0746 53.0822 32.3979 53.0822 31.7153H49.0822ZM48.5211 36.9072C48.3943 37.4732 48.2459 38.032 48.0761 38.584L51.8992 39.7603C52.0997 39.1086 52.2748 38.4492 52.4243 37.7821L48.5211 36.9072ZM48.0689 38.6078C47.9052 39.1645 47.7215 39.7208 47.5177 40.2767L51.2731 41.6537C51.5065 41.0173 51.7177 40.3782 51.9064 39.7365L48.0689 38.6078ZM46.0993 43.5149C45.8336 44.0361 45.5497 44.5572 45.2475 45.0783L48.7076 47.0851C49.0451 46.5033 49.3636 45.9188 49.6629 45.3317L46.0993 43.5149ZM45.2475 45.0783C44.9166 45.6488 44.5619 46.2228 44.1833 46.8L47.528 48.9939C47.9452 48.3578 48.3385 47.7215 48.7076 47.0851L45.2475 45.0783ZM41.7827 50.1022C41.3641 50.6274 40.9263 51.155 40.4692 51.6848L43.4978 54.2977C43.9876 53.7301 44.4586 53.1626 44.9107 52.5954L41.7827 50.1022ZM40.4545 51.7021C39.9434 52.3082 39.4127 52.923 38.8624 53.5466L41.8613 56.1936C42.4307 55.5484 42.9812 54.9107 43.5126 54.2805L40.4545 51.7021ZM35.5561 57.1481C35.0035 57.7287 34.4356 58.316 33.8523 58.9099L36.7061 61.7127C37.3036 61.1044 37.8861 60.502 38.4536 59.9057L35.5561 57.1481ZM33.8634 58.8987L31.9864 60.78L34.818 63.6052L36.695 61.7239L33.8634 58.8987ZM28.2323 64.5426L24.4782 68.3052L27.3098 71.1305L31.0639 67.3678L28.2323 64.5426ZM20.7241 72.0679L16.97 75.8305L19.8017 78.6557L23.5558 74.8931L20.7241 72.0679ZM13.216 79.5931L9.46189 83.3558L12.2935 86.181L16.0476 82.4183L13.216 79.5931ZM5.70782 87.1184L3.83078 88.9997L6.66242 91.8249L8.53946 89.9436L5.70782 87.1184ZM3.86415 88.967C3.5625 89.2556 3.27772 89.5558 3.01048 89.868L6.04919 92.4692C6.22742 92.261 6.42049 92.0571 6.62905 91.8576L3.86415 88.967ZM1.58913 91.9489C1.3908 92.3227 1.2141 92.707 1.05911 93.1016L4.78212 94.5642C4.88197 94.31 4.99543 94.0633 5.12256 93.8237L1.58913 91.9489ZM1.04511 93.1382C0.920958 93.4735 0.81035 93.8087 0.713808 94.144L4.55761 95.2509C4.62558 95.0148 4.70491 94.7737 4.79611 94.5275L1.04511 93.1382ZM0.29431 96.2766C0.255959 96.649 0.236498 97.0203 0.236498 97.3903H4.2365C4.2365 97.1607 4.24856 96.9262 4.27326 96.6864L0.29431 96.2766ZM0.236498 97.3903V98.7927H4.2365V97.3903H0.236498ZM0.236498 101.598V103H4.2365V101.598H0.236498ZM2.2365 105H4.66022V101H2.2365V105ZM9.50766 105H14.3551V101H9.50766V105ZM19.2025 105H24.05V101H19.2025V105ZM28.8974 105H33.7448V101H28.8974V105ZM38.5923 105H43.4397V101H38.5923V105ZM48.2872 105H53.1346V101H48.2872V105ZM57.982 105H62.8295V101H57.982V105ZM67.6769 105H70.1006V101H67.6769V105ZM72.1006 103V100.469H68.1006V103H72.1006ZM72.1006 95.4063V92.8751H68.1006V95.4063H72.1006ZM72.1006 92.8751C72.1006 92.3837 72.0637 91.9007 71.9853 91.4288L68.0393 92.0839C68.0787 92.3211 68.1006 92.584 68.1006 92.8751H72.1006ZM70.8434 88.5487C70.5454 88.116 70.1994 87.7213 69.8102 87.3645L67.1073 90.3131C67.2825 90.4737 67.4281 90.6418 67.549 90.8174L70.8434 88.5487ZM69.873 87.4246C69.4823 87.034 69.0505 86.6932 68.5798 86.405L66.4914 89.8165C66.6913 89.9389 66.875 90.0836 67.0445 90.2531L69.873 87.4246ZM65.6077 85.3656C65.1333 85.2976 64.6463 85.2654 64.1488 85.2654V89.2654C64.474 89.2654 64.7703 89.2865 65.0399 89.3251L65.6077 85.3656Z" fill="#D4DCEA"/>
</svg>
