<svg width="73" height="107" viewBox="0 0 73 107" fill="none" xmlns="http://www.w3.org/2000/svg">
<path d="M5.42566 31.6469L3.44615 31.3614C3.29201 32.4301 4.01398 33.4282 5.07723 33.6163L5.42566 31.6469ZM9.39353 19.196L11.145 20.1616L11.1502 20.1522L9.39353 19.196ZM16.7135 10.2341L17.9747 11.7864L17.9774 11.7842L16.7135 10.2341ZM26.8384 4.82962L27.4363 6.73817C27.441 6.73669 27.4457 6.7352 27.4505 6.73368L26.8384 4.82962ZM51.4665 4.96645L50.7849 6.84672C50.7943 6.85012 50.8037 6.85344 50.8131 6.8567L51.4665 4.96645ZM60.9073 10.3709L59.5737 11.8614C59.5786 11.8658 59.5835 11.8701 59.5884 11.8745L60.9073 10.3709ZM66.8591 18.4435L65.0293 19.2508C65.0326 19.2582 65.0359 19.2657 65.0393 19.2731L66.8591 18.4435ZM67.8853 36.8462L65.9706 36.2682C65.9682 36.276 65.9659 36.2839 65.9636 36.2918L67.8853 36.8462ZM64.8752 43.0716L63.2703 41.8782L64.8752 43.0716ZM59.9496 47.5868L58.886 45.893H58.886L59.9496 47.5868ZM53.3137 50.6653L52.6812 48.7679C51.8588 49.042 51.3067 49.8147 51.3137 50.6815C51.3208 51.5483 51.8854 52.3119 52.7121 52.5727L53.3137 50.6653ZM66.5855 59.2167L68.1763 58.0046L66.5855 59.2167ZM68.2273 86.7181L66.4256 85.8498V85.8498L68.2273 86.7181ZM60.8389 96.2957L62.1103 97.8395C62.1148 97.8359 62.1193 97.8322 62.1237 97.8284L60.8389 96.2957ZM50.0299 102.111L49.4165 100.207L49.4103 100.209L50.0299 102.111ZM24.102 102.384L23.5121 104.295L24.102 102.384ZM14.456 97.3219L15.721 95.7728H15.721L14.456 97.3219ZM7.47801 89.1125L9.19938 88.0942L7.47801 89.1125ZM2.55238 77.893L1.78918 76.0444C0.825121 76.4424 0.328768 77.5144 0.648968 78.507L2.55238 77.893ZM10.0092 74.8145L10.7724 76.6632L10.7815 76.6594L10.0092 74.8145ZM15.4821 74.1988L15.0094 76.1421C15.0296 76.147 15.0498 76.1516 15.0701 76.1559L15.4821 74.1988ZM19.2448 76.9353L21.0233 76.0206C21.0193 76.0127 21.0152 76.0048 21.011 75.9969L19.2448 76.9353ZM21.9128 81.6556L20.2112 82.7066C20.2186 82.7185 20.2261 82.7304 20.2337 82.7421L21.9128 81.6556ZM25.4702 85.8287L24.1323 87.3153C24.1416 87.3237 24.1509 87.3319 24.1603 87.3401L25.4702 85.8287ZM30.259 88.7704L29.4767 90.6111C29.495 90.6189 29.5134 90.6264 29.5319 90.6336L30.259 88.7704ZM44.4202 88.4968L45.2033 90.3371C45.2142 90.3324 45.2252 90.3277 45.236 90.3228L44.4202 88.4968ZM49.7563 84.8026L48.3205 83.4103C48.3131 83.4179 48.3058 83.4255 48.2986 83.4332L49.7563 84.8026ZM52.9716 79.8085L51.1084 79.0815C51.1052 79.0897 51.102 79.098 51.0989 79.1063L52.9716 79.8085ZM53.3137 67.7681L51.376 68.2638L51.3789 68.2748L53.3137 67.7681ZM50.1667 62.7741L48.8651 64.2926L48.8651 64.2926L50.1667 62.7741ZM43.2572 59.5588L42.7511 61.4937L42.7583 61.4955L43.2572 59.5588ZM31.2852 58.3958H29.2852C29.2852 59.5003 30.1806 60.3958 31.2852 60.3958V58.3958ZM31.2852 46.3553L31.2632 44.3555C30.1673 44.3675 29.2852 45.2594 29.2852 46.3553H31.2852ZM41.6153 45.1924L42.1306 47.1248H42.1306L41.6153 45.1924ZM48.1144 42.1823L49.3638 43.744L49.369 43.7398L48.1144 42.1823ZM51.535 37.4619L53.4227 38.1226V38.1226L51.535 37.4619ZM48.5933 20.8379L49.9552 19.3732L48.5933 20.8379ZM32.6534 18.1014L33.2704 20.0039C33.2858 19.9989 33.3011 19.9937 33.3164 19.9884L32.6534 18.1014ZM28.0698 20.4958L29.2786 22.0892L29.2867 22.083L28.0698 20.4958ZM24.7177 24.0532L26.3818 25.1626L24.7177 24.0532ZM22.6653 28.5684L24.5413 29.2617C24.5605 29.2097 24.5776 29.157 24.5924 29.1037L22.6653 28.5684ZM19.5868 32.7415L18.6424 30.9785C18.6334 30.9833 18.6245 30.9882 18.6155 30.9932L19.5868 32.7415ZM14.3191 33.2204L13.9707 35.1898C13.9815 35.1917 13.9923 35.1935 14.0032 35.1952L14.3191 33.2204ZM7.40518 31.9324C7.55858 30.8688 7.74499 29.8398 7.96394 28.845L4.05744 27.9852C3.81647 29.08 3.61286 30.2055 3.44615 31.3614L7.40518 31.9324ZM9.81192 22.9259C10.2157 21.9621 10.6602 21.0409 11.145 20.1616L7.64204 18.2305C7.08608 19.239 6.57977 20.2891 6.12264 21.3802L9.81192 22.9259ZM11.1502 20.1522C11.5955 19.334 12.0655 18.5522 12.56 17.8062L9.22591 15.5962C8.66528 16.4421 8.13571 17.3234 7.63689 18.2399L11.1502 20.1522ZM15.9742 13.5968C16.6123 12.9549 17.2791 12.3515 17.9747 11.7864L15.4524 8.6819C14.6461 9.33698 13.8744 10.0354 13.1374 10.7768L15.9742 13.5968ZM17.9774 11.7842C18.6752 11.2152 19.397 10.6831 20.1428 10.1878L17.9298 6.85572C17.0749 7.42355 16.2481 8.03307 15.4497 8.68409L17.9774 11.7842ZM24.8924 7.66106C25.7154 7.31938 26.5632 7.01166 27.4363 6.73817L26.2406 2.92108C25.2556 3.22963 24.2948 3.57812 23.3586 3.96682L24.8924 7.66106ZM27.4505 6.73368C28.3821 6.43422 29.3319 6.17299 30.2999 5.95012L29.4025 2.05209C28.3258 2.29998 27.267 2.59109 26.2264 2.92557L27.4505 6.73368ZM36.1689 5.0853C37.1463 5.01687 38.1407 4.98252 39.1525 4.98252V0.982521C38.0502 0.982521 36.9625 1.01995 35.8895 1.09507L36.1689 5.0853ZM39.1525 4.98252C40.1762 4.98252 41.1726 5.01731 42.142 5.08644L42.4265 1.09658C41.3582 1.02039 40.2667 0.982521 39.1525 0.982521V4.98252ZM47.985 5.99464C48.9515 6.23616 49.8847 6.52037 50.7849 6.84672L52.1481 3.08617C51.1147 2.71154 50.05 2.38765 48.9547 2.11396L47.985 5.99464ZM50.8131 6.8567C51.6414 7.14301 52.4372 7.45621 53.2009 7.79587L54.8263 4.141C53.9541 3.75312 53.0519 3.39834 52.12 3.0762L50.8131 6.8567ZM57.6093 10.2928C58.2994 10.7841 58.9541 11.307 59.5737 11.8614L62.2409 8.88047C61.5091 8.22569 60.7383 7.61029 59.9292 7.0342L57.6093 10.2928ZM59.5884 11.8745C60.1783 12.3919 60.7319 12.9307 61.2498 13.4907L64.1865 10.7749C63.5721 10.1104 62.9184 9.47464 62.2262 8.86743L59.5884 11.8745ZM63.9846 17.1929C64.3674 17.8542 64.7157 18.54 65.0293 19.2508L68.6889 17.6362C68.3173 16.7937 67.9031 15.9778 67.4462 15.1887L63.9846 17.1929ZM65.0393 19.2731C65.3675 19.993 65.6537 20.7271 65.8983 21.4758L69.7006 20.2336C69.4094 19.3425 69.0688 18.4691 68.6789 17.6139L65.0393 19.2731ZM66.864 26.1112C66.9411 26.8909 66.9799 27.687 66.9799 28.5H70.9799C70.9799 27.5596 70.935 26.6321 70.8446 25.7178L66.864 26.1112ZM66.9799 28.5C66.9799 29.1875 66.9616 29.8536 66.9253 30.4987L70.9189 30.7234C70.9597 29.9996 70.9799 29.2584 70.9799 28.5H66.9799ZM66.4387 34.4C66.306 35.0523 66.1498 35.6748 65.9706 36.2682L69.7999 37.4242C70.0167 36.7062 70.2026 35.9636 70.3585 35.1971L66.4387 34.4ZM65.9636 36.2918C65.814 36.8105 65.6485 37.311 65.4674 37.7935L69.2124 39.1988C69.4314 38.6152 69.6295 38.0157 69.8069 37.4005L65.9636 36.2918ZM64.1243 40.5997C63.8578 41.045 63.5731 41.471 63.2703 41.8782L66.4801 44.265C66.8637 43.7491 67.2224 43.2121 67.5563 42.6543L64.1243 40.5997ZM63.2703 41.8782C62.9736 42.2771 62.6591 42.6602 62.3265 43.0278L65.2924 45.7117C65.7112 45.2489 66.1071 44.7666 66.4801 44.265L63.2703 41.8782ZM60.1258 45.0382C59.7312 45.3367 59.3181 45.6217 58.886 45.893L61.0131 49.2805C61.5411 48.949 62.0499 48.5983 62.539 48.2282L60.1258 45.0382ZM58.886 45.893C58.4139 46.1894 57.9247 46.4738 57.4181 46.7461L59.312 50.2694C59.8958 49.9556 60.4629 49.626 61.0131 49.2805L58.886 45.893ZM54.3068 48.1793C53.78 48.386 53.2381 48.5823 52.6812 48.7679L53.9461 52.5626C54.5669 52.3557 55.1741 52.1359 55.7676 51.9031L54.3068 48.1793ZM52.7121 52.5727C53.3315 52.768 53.9318 52.974 54.513 53.1905L55.909 49.442C55.2616 49.2009 54.5969 48.9729 53.9152 48.7579L52.7121 52.5727ZM57.9567 54.7079C59.1041 55.3034 60.1526 55.9513 61.1054 56.6497L63.4702 53.4236C62.3401 52.5953 61.1154 51.8406 59.7993 51.1575L57.9567 54.7079ZM63.8312 59.0537C64.2456 59.4962 64.6333 59.9546 64.9946 60.4288L68.1763 58.0046C67.7319 57.4213 67.2566 56.8596 66.7508 56.3195L63.8312 59.0537ZM64.9946 60.4288C65.3438 60.8871 65.6696 61.3608 65.9722 61.8501L69.3743 59.7463C69.0034 59.1466 68.604 58.5659 68.1763 58.0046L64.9946 60.4288ZM67.5014 64.9513C67.9051 66.0078 68.2273 67.1291 68.4654 68.3177L72.3875 67.532C72.1079 66.1366 71.7255 64.7995 71.2378 63.5233L67.5014 64.9513ZM68.9117 71.8495C68.9464 72.4363 68.9638 73.0369 68.9638 73.6515H72.9638C72.9638 72.9613 72.9442 72.282 72.9048 71.6139L68.9117 71.8495ZM68.9638 73.6515C68.9638 74.7456 68.9164 75.8053 68.8225 76.831L72.8058 77.1958C72.9114 76.0426 72.9638 74.861 72.9638 73.6515H68.9638ZM67.5824 82.9736C67.2544 83.972 66.8687 84.9305 66.4256 85.8498L70.029 87.5864C70.5502 86.505 71.0012 85.3832 71.3827 84.2217L67.5824 82.9736ZM66.4256 85.8498C66.0068 86.7189 65.5532 87.5522 65.0652 88.3503L68.4777 90.4371C69.0369 89.5226 69.5539 88.5722 70.029 87.5864L66.4256 85.8498ZM61.62 92.8314C60.9696 93.5097 60.2811 94.1535 59.5541 94.7629L62.1237 97.8284C62.9611 97.1265 63.7557 96.3836 64.5073 95.5997L61.62 92.8314ZM59.5675 94.7518C58.8265 95.3621 58.0545 95.9349 57.2514 96.4704L59.4706 99.7984C60.385 99.1887 61.265 98.5357 62.1103 97.8395L59.5675 94.7518ZM52.1507 99.1969C51.2694 99.5668 50.3581 99.9036 49.4165 100.207L50.6433 104.014C51.6905 103.677 52.7091 103.301 53.6988 102.885L52.1507 99.1969ZM49.4103 100.209C48.4265 100.53 47.4267 100.809 46.4106 101.048L47.3262 104.942C48.4505 104.678 49.5584 104.368 50.6495 104.012L49.4103 100.209ZM40.2369 101.983C39.2072 102.057 38.1617 102.095 37.1001 102.095V106.095C38.2557 106.095 39.3977 106.054 40.5259 105.972L40.2369 101.983ZM37.1001 102.095C36.0057 102.095 34.9465 102.066 33.9222 102.009L33.7013 106.003C34.8034 106.064 35.9364 106.095 37.1001 106.095V102.095ZM27.6894 101.235C26.6386 101.02 25.6397 100.766 24.6918 100.473L23.5121 104.295C24.5925 104.629 25.7181 104.915 26.888 105.154L27.6894 101.235ZM24.6918 100.473C23.8562 100.215 23.0495 99.9286 22.2712 99.6133L20.7693 103.321C21.6568 103.68 22.5712 104.005 23.5121 104.295L24.6918 100.473ZM17.7616 97.2667C17.0512 96.8017 16.3712 96.3037 15.721 95.7728L13.1909 98.8709C13.9507 99.4914 14.7441 100.072 15.5708 100.613L17.7616 97.2667ZM15.721 95.7728C15.0714 95.2422 14.4464 94.6811 13.8459 94.0892L11.038 96.9381C11.7267 97.6169 12.4444 98.2613 13.1909 98.8709L15.721 95.7728ZM10.5816 90.2316C10.0992 89.5487 9.63841 88.8364 9.19938 88.0942L5.75664 90.1308C6.24912 90.9633 6.76836 91.7663 7.31455 92.5395L10.5816 90.2316ZM9.19938 88.0942C8.713 87.272 8.24369 86.4135 7.79168 85.5182L4.221 87.3211C4.71132 88.2922 5.22311 89.2289 5.75664 90.1308L9.19938 88.0942ZM5.43307 80.0928C5.09337 79.1834 4.76757 78.2455 4.4558 77.279L0.648968 78.507C0.978559 79.5287 1.32418 80.524 1.68595 81.4925L5.43307 80.0928ZM3.31559 79.7417L5.1798 78.972L3.65339 75.2747L1.78918 76.0444L3.31559 79.7417ZM8.90822 77.4328L10.7724 76.6631L9.24602 72.9658L7.38181 73.7355L8.90822 77.4328ZM10.7815 76.6594C11.161 76.5005 11.526 76.3724 11.8769 76.2726L10.7826 72.4252C10.2674 72.5717 9.75209 72.754 9.23695 72.9696L10.7815 76.6594ZM14.0058 75.9994C14.3506 76.0152 14.6845 76.0631 15.0094 76.1421L15.9548 72.2555C15.3763 72.1147 14.7871 72.0311 14.1892 72.0036L14.0058 75.9994ZM15.0701 76.1559C15.3697 76.219 15.6339 76.3011 15.867 76.3976L17.3977 72.7021C16.9177 72.5033 16.415 72.3513 15.8942 72.2417L15.0701 76.1559ZM17.0524 77.2418C17.206 77.4211 17.349 77.6297 17.4785 77.8736L21.011 75.9969C20.7516 75.5086 20.4453 75.0539 20.0894 74.6387L17.0524 77.2418ZM17.4662 77.8499C17.6787 78.2631 17.8955 78.6747 18.1168 79.0847L21.6369 77.1849C21.4281 76.7981 21.2236 76.41 21.0233 76.0206L17.4662 77.8499ZM19.4899 81.5134C19.726 81.9126 19.9665 82.3104 20.2112 82.7066L23.6144 80.6047C23.3831 80.2301 23.1559 79.8543 22.9329 79.4772L19.4899 81.5134ZM20.2337 82.7421C20.5071 83.1647 20.7932 83.5769 21.092 83.9785L24.3014 81.5912C24.055 81.2599 23.8185 80.9192 23.592 80.5691L20.2337 82.7421ZM23.0464 86.2716C23.3962 86.6307 23.7581 86.9786 24.1323 87.3153L26.8081 84.3421C26.4988 84.0637 26.2 83.7766 25.9118 83.4807L23.0464 86.2716ZM24.1603 87.3401C24.5571 87.684 24.9701 88.0118 25.399 88.3235L27.7506 85.0877C27.4127 84.8422 27.0893 84.5854 26.7801 84.3174L24.1603 87.3401ZM28.072 89.9562C28.5275 90.1885 28.9959 90.4067 29.4767 90.6111L31.0413 86.9298C30.6434 86.7607 30.2593 86.5816 29.889 86.3927L28.072 89.9562ZM29.5319 90.6336C30.1213 90.8636 30.734 91.0598 31.3687 91.2234L32.3675 87.3501C31.8785 87.224 31.4184 87.076 30.9861 86.9073L29.5319 90.6336ZM35.0668 91.8036C35.6612 91.8447 36.2706 91.865 36.8949 91.865V87.865C36.3571 87.865 35.84 87.8475 35.3431 87.8131L35.0668 91.8036ZM36.8949 91.865C37.6039 91.865 38.2967 91.8391 38.9729 91.7867L38.6639 87.7987C38.0963 87.8427 37.5068 87.865 36.8949 87.865V91.865ZM43.153 91.0591C43.8611 90.8576 44.5449 90.6172 45.2033 90.3371L43.6371 86.6565C43.1388 86.8685 42.6129 87.054 42.0581 87.2118L43.153 91.0591ZM45.236 90.3228C45.7929 90.074 46.3306 89.8068 46.8487 89.521L44.9161 86.0188C44.5003 86.2483 44.0632 86.4657 43.6043 86.6708L45.236 90.3228ZM49.8669 87.4515C50.3427 87.0477 50.7919 86.6212 51.214 86.1719L48.2986 83.4332C47.9815 83.7708 47.6416 84.0937 47.2785 84.402L49.8669 87.4515ZM51.1921 86.1949C51.5867 85.7879 51.9581 85.3683 52.3057 84.9359L49.1882 82.4297C48.9207 82.7625 48.6316 83.0894 48.3205 83.4103L51.1921 86.1949ZM54.1548 82.0807C54.4136 81.5697 54.6434 81.0463 54.8443 80.5108L51.0989 79.1063C50.9498 79.5041 50.7789 79.8931 50.5862 80.2736L54.1548 82.0807ZM54.8347 80.5356C55.0315 80.0316 55.2052 79.5252 55.3557 79.0165L51.5198 77.8822C51.4023 78.2797 51.2653 78.6794 51.1084 79.0815L54.8347 80.5356ZM55.9847 75.8323C56.039 75.2883 56.0662 74.7438 56.0662 74.1988H52.0662C52.0662 74.6104 52.0456 75.0224 52.0045 75.435L55.9847 75.8323ZM56.0662 74.1988C56.0662 73.6127 56.0517 73.0374 56.0226 72.4731L52.0279 72.6795C52.0533 73.172 52.0662 73.6784 52.0662 74.1988H56.0662ZM55.6304 68.9976C55.5233 68.4045 55.3962 67.8256 55.2484 67.2614L51.3789 68.2748C51.4993 68.7345 51.6044 69.212 51.6939 69.7079L55.6304 68.9976ZM55.2513 67.2725C55.1007 66.6838 54.9077 66.1131 54.6716 65.5616L50.9945 67.1362C51.1476 67.4936 51.2751 67.869 51.376 68.2638L55.2513 67.2725ZM52.7367 62.5048C52.3484 62.0632 51.925 61.647 51.4683 61.2556L48.8651 64.2926C49.1853 64.567 49.4739 64.8517 49.7328 65.1462L52.7367 62.5048ZM51.4683 61.2556C50.9112 60.7781 50.296 60.3418 49.6287 59.9436L47.5789 63.3784C48.0719 63.6727 48.4986 63.9784 48.8651 64.2926L51.4683 61.2556ZM45.7334 58.2027C45.1037 57.9926 44.4443 57.7993 43.756 57.622L42.7583 61.4955C43.3642 61.6516 43.9337 61.819 44.4676 61.9971L45.7334 58.2027ZM43.7632 57.6238C42.7925 57.37 41.7378 57.1586 40.6031 56.9869L40.0044 60.9418C41.0243 61.0962 41.9385 61.2811 42.7511 61.4937L43.7632 57.6238ZM34.3706 56.4479C33.385 56.4131 32.3564 56.3958 31.2852 56.3958V60.3958C32.3136 60.3958 33.2948 60.4124 34.2292 60.4454L34.3706 56.4479ZM33.2852 58.3958V55.3857H29.2852V58.3958H33.2852ZM33.2852 49.3655V46.3553H29.2852V49.3655H33.2852ZM31.3072 48.3552C32.2328 48.3451 33.1272 48.3183 33.9902 48.2747L33.7883 44.2798C32.9819 44.3205 32.1403 44.3458 31.2632 44.3555L31.3072 48.3552ZM39.403 47.7107C40.3642 47.548 41.274 47.3532 42.1306 47.1248L41.1 43.2599C40.3769 43.4527 39.5894 43.6222 38.7354 43.7668L39.403 47.7107ZM42.1306 47.1248C42.7746 46.9531 43.394 46.7659 43.9883 46.5625L42.6935 42.7779C42.1927 42.9492 41.6618 43.1101 41.1 43.2599L42.1306 47.1248ZM47.6368 44.9242C48.2546 44.5627 48.8314 44.1699 49.3638 43.744L46.865 40.6205C46.4963 40.9155 46.0813 41.1999 45.6164 41.472L47.6368 44.9242ZM49.369 43.7398C49.8221 43.3748 50.2467 42.9895 50.6413 42.5834L47.7725 39.7959C47.4962 40.0803 47.1924 40.3567 46.8597 40.6247L49.369 43.7398ZM52.714 39.7484C52.9903 39.2253 53.2265 38.6831 53.4227 38.1226L49.6472 36.8012C49.5163 37.1753 49.3595 37.5348 49.177 37.8805L52.714 39.7484ZM53.4227 38.1226C53.6111 37.5843 53.7742 37.0338 53.9123 36.4716L50.0279 35.5172C49.9195 35.9582 49.7925 36.3861 49.6472 36.8012L53.4227 38.1226ZM54.4334 33.1157C54.4731 32.5663 54.4927 32.0082 54.4927 31.4417H50.4927C50.4927 31.9158 50.4763 32.3777 50.4438 32.8277L54.4334 33.1157ZM54.4927 31.4417C54.4927 30.3397 54.4252 29.2815 54.2865 28.2694L50.3235 28.8125C50.4351 29.6267 50.4927 30.5023 50.4927 31.4417H54.4927ZM52.1349 22.0189C51.5249 21.0397 50.7975 20.1565 49.9552 19.3732L47.2314 22.3026C47.8136 22.8439 48.3156 23.453 48.7399 24.134L52.1349 22.0189ZM49.9552 19.3732C49.1532 18.6276 48.2784 17.9799 47.3327 17.4322L45.328 20.8936C46.014 21.2909 46.6478 21.7599 47.2314 22.3026L49.9552 19.3732ZM41.2836 15.4175C40.2914 15.2795 39.2612 15.2121 38.1947 15.2121V19.2121C39.093 19.2121 39.9383 19.2689 40.7325 19.3794L41.2836 15.4175ZM38.1947 15.2121C37.6691 15.2121 37.1508 15.2306 36.6399 15.268L36.9322 19.2573C37.3423 19.2273 37.7631 19.2121 38.1947 19.2121V15.2121ZM33.523 15.7573C33.0017 15.8864 32.4907 16.0387 31.9904 16.2145L33.3164 19.9884C33.6947 19.8554 34.084 19.7392 34.4847 19.64L33.523 15.7573ZM32.0364 16.199C31.5699 16.3503 31.1128 16.5192 30.6653 16.7057L32.2049 20.3976C32.5503 20.2536 32.9054 20.1223 33.2704 20.0039L32.0364 16.199ZM28.0594 18.0642C27.6456 18.3278 27.2434 18.6093 26.853 18.9086L29.2867 22.083C29.5854 21.854 29.8926 21.6391 30.2083 21.438L28.0594 18.0642ZM26.8611 18.9025C26.4899 19.184 26.1322 19.4789 25.7881 19.7873L28.4576 22.7662C28.7196 22.5314 28.9931 22.3058 29.2786 22.0892L26.8611 18.9025ZM23.8746 21.8169C23.5859 22.1801 23.3123 22.5558 23.0536 22.9438L26.3818 25.1626C26.5792 24.8665 26.7874 24.5808 27.0062 24.3054L23.8746 21.8169ZM23.0536 22.9438C22.7929 23.3348 22.5487 23.7357 22.3209 24.1465L25.8192 26.0862C25.9941 25.7707 26.1816 25.4629 26.3818 25.1626L23.0536 22.9438ZM21.1618 26.7033C21.0048 27.1385 20.8636 27.5819 20.7383 28.0331L24.5924 29.1037C24.6913 28.7476 24.802 28.4001 24.9243 28.061L21.1618 26.7033ZM20.7893 27.8751C20.6483 28.2567 20.5016 28.6012 20.3506 28.9107L23.9455 30.6647C24.1611 30.2227 24.3593 29.7543 24.5413 29.2617L20.7893 27.8751ZM19.2525 30.5222C19.0429 30.7262 18.8389 30.8732 18.6424 30.9785L20.5313 34.5044C21.0852 34.2077 21.5883 33.8307 22.0425 33.3886L19.2525 30.5222ZM18.6155 30.9932C18.4235 31.0999 18.1797 31.1971 17.869 31.2711L18.7955 35.1623C19.4163 35.0145 20.0089 34.7949 20.5581 34.4898L18.6155 30.9932ZM15.8004 31.3839C15.4404 31.3578 15.0523 31.3122 14.6351 31.2455L14.0032 35.1952C14.5212 35.2781 15.0241 35.3381 15.5111 35.3734L15.8004 31.3839ZM14.6676 31.2509L12.4442 30.8576L11.7473 34.7964L13.9707 35.1898L14.6676 31.2509ZM7.99747 30.0708L5.7741 29.6775L5.07723 33.6163L7.3006 34.0097L7.99747 30.0708Z" fill="#D4DCEA"/>
</svg>
