<svg width="80" height="103" viewBox="0 0 80 103" fill="none" xmlns="http://www.w3.org/2000/svg">
<path d="M50.7462 63.7158V65.7158C51.8507 65.7158 52.7462 64.8204 52.7462 63.7158H50.7462ZM51.3619 21.2323L53.3496 21.4532C53.4499 20.5504 52.9293 19.6935 52.082 19.3664C51.2346 19.0394 50.2733 19.3244 49.7411 20.0605L51.3619 21.2323ZM20.6451 63.7158L19.0244 62.5439C18.5842 63.1527 18.5223 63.9568 18.8642 64.6258C19.206 65.2948 19.8939 65.7158 20.6451 65.7158V63.7158ZM77.9055 63.7158H79.9055C79.9055 62.6112 79.0101 61.7158 77.9055 61.7158V63.7158ZM77.0161 75.893L78.4817 77.2539C78.4973 77.2372 78.5125 77.2202 78.5275 77.2029L77.0161 75.893ZM65.4546 76.8508V74.8508C64.35 74.8508 63.4546 75.7462 63.4546 76.8508H65.4546ZM65.4546 101V103C66.5592 103 67.4546 102.105 67.4546 101H65.4546ZM50.7462 101H48.7462C48.7462 102.105 49.6416 103 50.7462 103V101ZM50.7462 76.8508H52.7462C52.7462 75.7462 51.8507 74.8508 50.7462 74.8508V76.8508ZM6.00509 75.8246L4.71682 77.3544C4.73294 77.368 4.74927 77.3813 4.7658 77.3944L6.00509 75.8246ZM4.36322 73.1566L2.40513 73.5638C2.40635 73.5697 2.40759 73.5756 2.40887 73.5814L4.36322 73.1566ZM2.58452 64.6051L0.983473 63.4065C0.639626 63.8658 0.509592 64.4507 0.626432 65.0124L2.58452 64.6051ZM49.4463 2.00869V0.00868988C48.8162 0.00868988 48.2229 0.305656 47.8453 0.810093L49.4463 2.00869ZM65.4546 2.00869H67.4546C67.4546 0.904121 66.5592 0.00868988 65.4546 0.00868988V2.00869ZM65.4546 63.7158H63.4546C63.4546 64.8204 64.35 65.7158 65.4546 65.7158V63.7158ZM50.7462 61.7158H48.2377V65.7158H50.7462V61.7158ZM43.2209 61.7158H38.2041V65.7158H43.2209V61.7158ZM33.1872 61.7158H28.1704V65.7158H33.1872V61.7158ZM23.1536 61.7158H20.6451V65.7158H23.1536V61.7158ZM22.2659 64.8876L23.8017 62.7634L20.5602 60.4198L19.0244 62.5439L22.2659 64.8876ZM26.8734 58.5151L29.9451 54.2667L26.7036 51.9231L23.6319 56.1714L26.8734 58.5151ZM33.0167 50.0184L36.0884 45.7701L32.8469 43.4264L29.7752 47.6747L33.0167 50.0184ZM39.1601 41.5217L42.2317 37.2734L38.9903 34.9297L35.9186 39.178L39.1601 41.5217ZM45.3034 33.025L48.3751 28.7767L45.1336 26.433L42.0619 30.6813L45.3034 33.025ZM51.4468 24.5283L52.9826 22.4041L49.7411 20.0605L48.2053 22.1846L51.4468 24.5283ZM49.3741 21.0114C49.2771 21.8842 49.1913 22.7404 49.1167 23.58L53.101 23.934C53.1729 23.125 53.2558 22.298 53.3496 21.4532L49.3741 21.0114ZM48.7919 28.7523C48.7615 29.6425 48.7462 30.5108 48.7462 31.3572H52.7462C52.7462 30.5589 52.7606 29.7362 52.7896 28.8892L48.7919 28.7523ZM48.7462 31.3572V34.0537H52.7462V31.3572H48.7462ZM48.7462 39.4468V44.8399H52.7462V39.4468H48.7462ZM48.7462 50.233V55.6261H52.7462V50.233H48.7462ZM48.7462 61.0192V63.7158H52.7462V61.0192H48.7462ZM77.9055 61.7158H74.7928V65.7158H77.9055V61.7158ZM68.5673 61.7158H65.4546V65.7158H68.5673V61.7158ZM67.4546 63.7158V61.1447H63.4546V63.7158H67.4546ZM67.4546 56.0024V50.8601H63.4546V56.0024H67.4546ZM67.4546 45.7179V40.5756H63.4546V45.7179H67.4546ZM67.4546 35.4334V30.2911H63.4546V35.4334H67.4546ZM67.4546 25.1488V20.0066H63.4546V25.1488H67.4546ZM67.4546 14.8643V9.72208H63.4546V14.8643H67.4546ZM67.4546 4.57982V2.00869H63.4546V4.57982H67.4546ZM65.4546 0.00868988H63.4536V4.00869H65.4546V0.00868988ZM59.4515 0.00868988H55.4494V4.00869H59.4515V0.00868988ZM51.4474 0.00868988H49.4463V4.00869H51.4474V0.00868988ZM47.8453 0.810093L46.3809 2.76623L49.583 5.16343L51.0474 3.20729L47.8453 0.810093ZM43.452 6.67851L40.5231 10.5908L43.7252 12.988L46.6541 9.07571L43.452 6.67851ZM37.5943 14.5031L34.6654 18.4153L37.8675 20.8125L40.7964 16.9003L37.5943 14.5031ZM31.7365 22.3276L28.8077 26.2399L32.0098 28.6371L34.9386 24.7248L31.7365 22.3276ZM25.8788 30.1522L22.9499 34.0645L26.152 36.4616L29.0809 32.5494L25.8788 30.1522ZM20.0211 37.9767L17.0922 41.889L20.2943 44.2862L23.2232 40.3739L20.0211 37.9767ZM14.1634 45.8013L11.2345 49.7136L14.4366 52.1108L17.3655 48.1985L14.1634 45.8013ZM8.30563 53.6258L5.37677 57.5381L8.57887 59.9353L11.5077 56.023L8.30563 53.6258ZM2.4479 61.4504L0.983473 63.4065L4.18557 65.8037L5.65 63.8476L2.4479 61.4504ZM0.626432 65.0124L1.07111 67.1503L4.98729 66.3357L4.54261 64.1978L0.626432 65.0124ZM1.96045 71.426L2.40513 73.5638L6.32131 72.7493L5.87664 70.6114L1.96045 71.426ZM2.40887 73.5814C2.4894 73.9519 2.59951 74.3133 2.74032 74.664L6.45231 73.1737C6.39721 73.0365 6.35192 72.8897 6.31757 72.7317L2.40887 73.5814ZM3.93451 76.5924C4.17484 76.8645 4.43641 77.1183 4.71682 77.3544L7.29336 74.2948C7.1556 74.1788 7.03618 74.0618 6.93268 73.9446L3.93451 76.5924ZM4.7658 77.3944C5.06599 77.6314 5.38301 77.8427 5.71679 78.026L7.64218 74.5199C7.50932 74.4469 7.37674 74.3593 7.24438 74.2548L4.7658 77.3944ZM7.90118 78.7665C8.26852 78.8234 8.64034 78.8508 9.0152 78.8508V74.8508C8.83539 74.8508 8.66874 74.8377 8.51381 74.8137L7.90118 78.7665ZM9.0152 78.8508H11.6234V74.8508H9.0152V78.8508ZM16.8398 78.8508H22.0561V74.8508H16.8398V78.8508ZM27.2725 78.8508H32.4889V74.8508H27.2725V78.8508ZM37.7052 78.8508H42.9216V74.8508H37.7052V78.8508ZM48.138 78.8508H50.7462V74.8508H48.138V78.8508ZM48.7462 76.8508V79.8694H52.7462V76.8508H48.7462ZM48.7462 85.9067V91.944H52.7462V85.9067H48.7462ZM48.7462 97.9814V101H52.7462V97.9814H48.7462ZM50.7462 103H54.4233V99H50.7462V103ZM61.7775 103H65.4546V99H61.7775V103ZM67.4546 101V97.9814H63.4546V101H67.4546ZM67.4546 91.944V85.9067H63.4546V91.944H67.4546ZM67.4546 79.8694V76.8508H63.4546V79.8694H67.4546ZM65.4546 78.8508H67.7122V74.8508H65.4546V78.8508ZM72.2273 78.8508H74.4849V74.8508H72.2273V78.8508ZM74.4849 78.8508C74.8154 78.8508 75.1434 78.8293 75.4666 78.7825L74.893 74.8238C74.7779 74.8405 74.6426 74.8508 74.4849 74.8508V78.8508ZM77.5625 78.0228C77.9012 77.8056 78.2085 77.5482 78.4817 77.2539L75.5506 74.5321C75.5047 74.5815 75.4565 74.6215 75.4035 74.6554L77.5625 78.0228ZM78.5275 77.2029C78.745 76.9519 78.9413 76.6841 79.1131 76.3993L75.6882 74.3329C75.6398 74.4132 75.5797 74.4967 75.5048 74.5831L78.5275 77.2029ZM79.8239 74.4834C79.8792 74.1576 79.9055 73.8287 79.9055 73.4986H75.9055C75.9055 73.6156 75.8962 73.7202 75.8803 73.8141L79.8239 74.4834ZM79.9055 73.4986V71.0529H75.9055V73.4986H79.9055ZM79.9055 66.1615V63.7158H75.9055V66.1615H79.9055Z" fill="#D4DCEA"/>
</svg>
