<svg width="71" height="105" viewBox="0 0 71 105" fill="none" xmlns="http://www.w3.org/2000/svg">
<path d="M24.8123 37.9931L22.8404 37.659C22.7299 38.3108 22.9487 38.975 23.4249 39.4336C23.901 39.8922 24.573 40.0859 25.2202 39.951L24.8123 37.9931ZM31.1061 37.0353L31.2872 39.0271C31.3021 39.0258 31.317 39.0242 31.3319 39.0225L31.1061 37.0353ZM50.6718 39.0193L49.9438 40.8821H49.9438L50.6718 39.0193ZM60.6598 45.4499L62.0859 44.0477L60.6598 45.4499ZM66.7485 55.0959L64.8729 55.7906L64.8758 55.7982L66.7485 55.0959ZM65.9959 81.2975L64.1596 80.505C64.1573 80.5105 64.155 80.5159 64.1527 80.5214L65.9959 81.2975ZM58.3339 92.4486L59.6963 93.9127C59.6999 93.9093 59.7035 93.906 59.7071 93.9026L58.3339 92.4486ZM46.6355 99.5634L45.9353 97.6899L45.9291 97.6923L46.6355 99.5634ZM23.1704 101.137L23.6178 99.1875L23.1704 101.137ZM15.3031 98.6056L14.4781 100.428C14.4918 100.434 14.5055 100.44 14.5194 100.446L15.3031 98.6056ZM8.53035 94.9114L7.39574 96.5584C7.40964 96.568 7.42367 96.5774 7.43781 96.5866L8.53035 94.9114ZM2.98902 90.4646L1.36889 89.292C0.78014 90.1054 0.885773 91.2292 1.61578 91.9187L2.98902 90.4646ZM8.18829 83.2814L9.80843 84.4541C9.81307 84.4477 9.81767 84.4413 9.82223 84.4348L8.18829 83.2814ZM15.9872 82.05L17.0354 80.3467L15.9872 82.05ZM20.0235 84.4444L19.0255 86.1777C19.0329 86.1819 19.0404 86.1862 19.0478 86.1903L20.0235 84.4444ZM25.428 86.8388L24.7579 88.7233L24.7709 88.7278L25.428 86.8388ZM41.1626 86.4284L40.3833 84.5864L41.1626 86.4284ZM47.046 82.2553L45.5408 80.9383L45.5384 80.941L47.046 82.2553ZM50.6034 75.8246L48.7026 75.2025C48.7002 75.2097 48.6979 75.2168 48.6957 75.224L50.6034 75.8246ZM47.1144 55.0959L45.7107 56.5206C45.7177 56.5275 45.7248 56.5344 45.7319 56.5412L47.1144 55.0959ZM18.8605 53.112L18.311 55.0351C18.7095 55.1489 19.1334 55.1362 19.5243 54.9986L18.8605 53.112ZM8.32511 50.1019L6.35371 49.7649C6.18178 50.7707 6.79456 51.7446 7.77567 52.025L8.32511 50.1019ZM16.5345 2.0771V0.0770988C15.5599 0.0770988 14.7273 0.779503 14.5631 1.7401L16.5345 2.0771ZM65.3802 2.0771H67.3802C67.3802 0.97253 66.4848 0.0770988 65.3802 0.0770988V2.0771ZM63.1227 15.1437L61.7084 13.7295H61.7084L63.1227 15.1437ZM28.3012 17.4013V15.4013C27.3256 15.4013 26.4923 16.1052 26.3294 17.0672L28.3012 17.4013ZM26.7842 38.3272L27.2203 35.7532L23.2765 35.085L22.8404 37.659L26.7842 38.3272ZM28.0925 30.6053L28.9648 25.4573L25.021 24.7891L24.1487 29.937L28.0925 30.6053ZM29.837 20.3093L30.2731 17.7354L26.3294 17.0672L25.8932 19.6411L29.837 20.3093ZM28.3012 19.4013H30.5645V15.4013H28.3012V19.4013ZM35.0911 19.4013H39.6176V15.4013H35.0911V19.4013ZM44.1442 19.4013H48.6707V15.4013H44.1442V19.4013ZM53.1973 19.4013H55.4606V15.4013H53.1973V19.4013ZM55.4606 19.4013C56.2399 19.4013 56.9852 19.3686 57.6947 19.3011L57.3161 15.3191C56.7471 15.3732 56.1292 15.4013 55.4606 15.4013V19.4013ZM62.3295 18.1084C63.159 17.7039 63.9034 17.1914 64.5369 16.5579L61.7084 13.7295C61.4239 14.014 61.0551 14.2796 60.5762 14.5131L62.3295 18.1084ZM64.5369 16.5579C65.024 16.0707 65.4535 15.5401 65.8215 14.9663L62.4546 12.8068C62.246 13.1319 61.9986 13.4393 61.7084 13.7295L64.5369 16.5579ZM67.2333 11.187C67.3325 10.5621 67.3802 9.91916 67.3802 9.2603H63.3802C63.3802 9.72616 63.3465 10.1585 63.2828 10.5597L67.2333 11.187ZM67.3802 9.2603V7.4645H63.3802V9.2603H67.3802ZM67.3802 3.8729V2.0771H63.3802V3.8729H67.3802ZM65.3802 0.0770988H62.9379V4.0771H65.3802V0.0770988ZM58.0534 0.0770988H53.1688V4.0771H58.0534V0.0770988ZM48.2842 0.0770988H43.3996V4.0771H48.2842V0.0770988ZM38.5151 0.0770988H33.6305V4.0771H38.5151V0.0770988ZM28.7459 0.0770988H23.8613V4.0771H28.7459V0.0770988ZM18.9768 0.0770988H16.5345V4.0771H18.9768V0.0770988ZM14.5631 1.7401L14.1526 4.14135L18.0954 4.81533L18.5059 2.41409L14.5631 1.7401ZM13.3317 8.94383L12.5107 13.7463L16.4535 14.4203L17.2745 9.61781L13.3317 8.94383ZM11.6898 18.5488L10.8689 23.3513L14.8117 24.0253L15.6326 19.2228L11.6898 18.5488ZM10.0479 28.1538L9.22699 32.9562L13.1698 33.6302L13.9907 28.8277L10.0479 28.1538ZM8.40605 37.7587L7.58511 42.5612L11.5279 43.2352L12.3489 38.4327L8.40605 37.7587ZM6.76418 47.3637L6.35371 49.7649L10.2965 50.4389L10.707 48.0377L6.76418 47.3637ZM7.77567 52.025L10.4095 52.7775L11.5084 48.9314L8.87456 48.1789L7.77567 52.025ZM15.6772 54.2825L18.311 55.0351L19.4099 51.189L16.7761 50.4364L15.6772 54.2825ZM19.5243 54.9986C20.6583 54.5996 21.7835 54.2493 22.9001 53.9471L21.8551 50.086C20.64 50.4148 19.4205 50.7948 18.1967 51.2254L19.5243 54.9986ZM29.8047 52.6784C30.9771 52.5676 32.1406 52.5124 33.2953 52.5124V48.5124C32.0128 48.5124 30.7237 48.5738 29.4283 48.6962L29.8047 52.6784ZM33.2953 52.5124C34.5359 52.5124 35.6982 52.579 36.7842 52.7093L37.2608 48.7378C36.0006 48.5866 34.6781 48.5124 33.2953 48.5124V52.5124ZM43.1568 54.6217C44.1201 55.1563 44.9689 55.7897 45.7107 56.5206L48.5181 53.6713C47.5085 52.6766 46.3659 51.828 45.0979 51.1242L43.1568 54.6217ZM45.7319 56.5412C46.457 57.2348 47.0823 57.9983 47.6109 58.8339L50.9912 56.6953C50.287 55.5823 49.4545 54.5667 48.4968 53.6507L45.7319 56.5412ZM49.6174 64.5243C49.7611 65.5094 49.8348 66.5617 49.8348 67.6836H53.8348C53.8348 66.3872 53.7496 65.1409 53.5755 63.9471L49.6174 64.5243ZM49.8348 67.6836C49.8348 68.339 49.8127 68.981 49.7687 69.6098L53.759 69.8885C53.8096 69.164 53.8348 68.429 53.8348 67.6836H49.8348ZM49.2106 73.3811C49.0661 74.0023 48.8967 74.6094 48.7026 75.2025L52.5042 76.4467C52.7353 75.7405 52.936 75.0207 53.1066 74.2875L49.2106 73.3811ZM48.6957 75.224C48.5258 75.7635 48.3351 76.2831 48.1238 76.7834L51.8087 78.3395C52.0705 77.7195 52.3045 77.0813 52.5111 76.4252L48.6957 75.224ZM46.5462 79.6539C46.2346 80.1003 45.8995 80.5284 45.5408 80.9383L48.5511 83.5723C49.0058 83.0526 49.4309 82.5096 49.826 81.9436L46.5462 79.6539ZM45.5384 80.941C45.194 81.3361 44.826 81.7092 44.4342 82.0605L47.1045 85.0387C47.618 84.5783 48.1011 84.0885 48.5535 83.5695L45.5384 80.941ZM41.8405 83.8837C41.3792 84.1361 40.8937 84.3705 40.3833 84.5864L41.9419 88.2703C42.5708 88.0042 43.1771 87.7119 43.7603 87.3929L41.8405 83.8837ZM40.3833 84.5864C39.8265 84.822 39.243 85.0277 38.6318 85.2028L39.7333 89.0481C40.4943 88.8302 41.2308 88.5712 41.9419 88.2703L40.3833 84.5864ZM34.8937 85.8587C34.2692 85.9083 33.6225 85.9334 32.9532 85.9334V89.9334C33.7224 89.9334 34.4748 89.9046 35.2101 89.8462L34.8937 85.8587ZM32.9532 85.9334C32.3335 85.9334 31.7373 85.916 31.1642 85.8815L30.9243 89.8743C31.5823 89.9139 32.2587 89.9334 32.9532 89.9334V85.9334ZM27.7067 85.4104C27.1306 85.2797 26.5904 85.1256 26.085 84.9498L24.7709 88.7278C25.4266 88.9559 26.1105 89.1499 26.8213 89.3112L27.7067 85.4104ZM26.098 84.9544C25.6424 84.7924 25.2011 84.6274 24.774 84.4595L23.3101 88.1819C23.7801 88.3668 24.2627 88.5472 24.7579 88.7233L26.098 84.9544ZM22.2167 83.3365C21.7912 83.1272 21.3854 82.9144 20.9991 82.6985L19.0478 86.1903C19.4984 86.4421 19.9662 86.6871 20.4507 86.9256L22.2167 83.3365ZM21.0214 82.7112C20.6776 82.5132 20.3424 82.319 20.0159 82.1286L18.0004 85.5837C18.3338 85.7782 18.6755 85.9762 19.0255 86.1777L21.0214 82.7112ZM18.0216 80.9471C17.6807 80.7417 17.352 80.5416 17.0354 80.3467L14.939 83.7534C15.2669 83.9551 15.6062 84.1617 15.957 84.3731L18.0216 80.9471ZM17.0354 80.3467C16.7077 80.1451 16.3754 79.9628 16.0384 79.8015L14.3118 83.4097C14.5138 83.5064 14.7229 83.6204 14.939 83.7534L17.0354 80.3467ZM13.7544 79.0623C13.3378 78.9916 12.9187 78.9555 12.4982 78.9555V82.9555C12.6888 82.9555 12.8841 82.9718 13.0852 83.0059L13.7544 79.0623ZM12.4982 78.9555C11.9094 78.9555 11.3299 79.0195 10.7651 79.1552L11.6995 83.0445C11.9362 82.9877 12.2006 82.9555 12.4982 82.9555V78.9555ZM7.64651 80.8597C7.24464 81.239 6.88167 81.6644 6.55436 82.1281L9.82223 84.4348C10.0109 84.1676 10.2019 83.9482 10.3919 83.7688L7.64651 80.8597ZM6.56815 82.1088L5.26834 83.9046L8.50861 86.2499L9.80843 84.4541L6.56815 82.1088ZM2.6687 87.4962L1.36889 89.292L4.60916 91.6373L5.90898 89.8415L2.6687 87.4962ZM1.61578 91.9187C2.06272 92.3408 2.5234 92.7574 2.99774 93.1684L5.61744 90.1457C5.18514 89.771 4.76678 89.3927 4.36227 89.0106L1.61578 91.9187ZM5.89312 95.4854C6.38232 95.8477 6.88321 96.2053 7.39574 96.5584L9.66496 93.2644C9.18908 92.9365 8.72537 92.6054 8.27376 92.2709L5.89312 95.4854ZM7.43781 96.5866C7.99643 96.9509 8.56548 97.3057 9.14491 97.6508L11.1921 94.2144C10.6586 93.8966 10.1355 93.5705 9.62288 93.2362L7.43781 96.5866ZM12.6694 99.5696C13.2629 99.8643 13.8658 100.15 14.4781 100.428L16.1281 96.7837C15.5585 96.5257 14.9985 96.2601 14.4483 95.9869L12.6694 99.5696ZM14.5194 100.446C15.179 100.727 15.8491 100.993 16.5294 101.246L17.9207 97.4954C17.2988 97.2647 16.6875 97.0214 16.0868 96.7655L14.5194 100.446ZM20.637 102.563C21.3232 102.75 22.0185 102.924 22.723 103.086L23.6178 99.1875C22.9656 99.0378 22.3233 98.8766 21.6909 98.7038L20.637 102.563ZM22.723 103.086C23.4803 103.26 24.2478 103.411 25.0254 103.54L25.6785 99.5935C24.9806 99.478 24.2937 99.3426 23.6178 99.1875L22.723 103.086ZM29.6703 104.036C30.4368 104.075 31.2119 104.095 31.9955 104.095V100.095C31.2783 100.095 30.5713 100.077 29.8744 100.041L29.6703 104.036ZM31.9955 104.095C33.3137 104.095 34.6102 104.044 35.8848 103.943L35.5684 99.9556C34.4027 100.048 33.2118 100.095 31.9955 100.095V104.095ZM43.5972 102.637C44.873 102.296 46.1214 101.895 47.3419 101.434L45.9291 97.6923C44.8351 98.1053 43.7138 98.4654 42.565 98.7722L43.5972 102.637ZM47.3357 101.437C48.4824 101.008 49.5938 100.537 50.6696 100.022L48.9425 96.4137C47.9768 96.876 46.9745 97.3015 45.9353 97.6899L47.3357 101.437ZM56.8952 96.2576C57.8713 95.5237 58.8051 94.7421 59.6963 93.9127L56.9714 90.9844C56.1828 91.7183 55.3562 92.4102 54.4914 93.0605L56.8952 96.2576ZM59.7071 93.9026C60.5878 93.0709 61.4196 92.1969 62.2023 91.2807L59.1611 88.6824C58.4716 89.4895 57.7382 90.2601 56.9606 90.9946L59.7071 93.9026ZM66.2836 85.3213C66.8495 84.2756 67.3679 83.1929 67.8392 82.0736L64.1527 80.5214C63.7306 81.5238 63.2682 82.489 62.7657 83.4174L66.2836 85.3213ZM67.8322 82.09C68.3468 80.8976 68.7943 79.6737 69.1749 78.4188L65.347 77.2581C65.0097 78.3704 64.6138 79.4526 64.1596 80.505L67.8322 82.09ZM70.6329 70.7889C70.745 69.5269 70.8008 68.2409 70.8008 66.9311H66.8008C66.8008 68.1273 66.7499 69.2951 66.6486 70.4348L70.6329 70.7889ZM70.8008 66.9311C70.8008 65.8566 70.759 64.7976 70.675 63.7544L66.6879 64.0753C66.7631 65.0085 66.8008 65.9603 66.8008 66.9311H70.8008ZM69.6006 57.4537C69.3226 56.4138 68.9961 55.3937 68.6211 54.3937L64.8758 55.7982C65.2047 56.6752 65.4916 57.5714 65.7364 58.4869L69.6006 57.4537ZM68.624 54.4013C68.2644 53.4306 67.8613 52.4887 67.4143 51.5758L63.8219 53.3351C64.2086 54.1246 64.559 54.9429 64.873 55.7906L68.624 54.4013ZM64.1294 46.3599C63.4924 45.5559 62.8111 44.7851 62.0859 44.0477L59.2338 46.8522C59.86 47.489 60.4467 48.1529 60.9942 48.844L64.1294 46.3599ZM62.0859 44.0477C61.3343 43.2833 60.5372 42.5626 59.6952 41.8855L57.1886 45.0027C57.9108 45.5834 58.5923 46.1999 59.2338 46.8522L62.0859 44.0477ZM54.3016 38.4438C53.3698 37.9772 52.4023 37.5483 51.3998 37.1565L49.9438 40.8821C50.837 41.2312 51.6925 41.6108 52.5108 42.0205L54.3016 38.4438ZM51.3998 37.1565C50.2589 36.7106 49.0749 36.3264 47.8486 36.003L46.8285 39.8707C47.9133 40.1568 48.9514 40.4943 49.9438 40.8821L51.3998 37.1565ZM40.5706 34.8227C39.3845 34.7362 38.1678 34.6933 36.9211 34.6933V38.6933C38.0761 38.6933 39.1956 38.7331 40.2799 38.8121L40.5706 34.8227ZM36.9211 34.6933C36.4191 34.6933 35.913 34.7011 35.4028 34.7169L35.5259 38.715C35.9959 38.7005 36.4609 38.6933 36.9211 38.6933V34.6933ZM32.3815 34.897C31.8848 34.9405 31.3844 34.9908 30.8803 35.0481L31.3319 39.0225C31.8024 38.9691 32.2685 38.9222 32.7301 38.8818L32.3815 34.897ZM30.925 35.0435C30.3815 35.0929 29.8325 35.1519 29.2779 35.2204L29.7679 39.1902C30.2811 39.1269 30.7875 39.0725 31.2872 39.0271L30.925 35.0435ZM26.0172 35.7202C25.4844 35.8171 24.9468 35.9221 24.4044 36.0351L25.2202 39.951C25.7302 39.8448 26.2346 39.7463 26.7332 39.6556L26.0172 35.7202Z" fill="#D4DCEA"/>
</svg>
