<svg width="136" height="127" viewBox="0 0 136 127" fill="none" xmlns="http://www.w3.org/2000/svg">
<path fill-rule="evenodd" clip-rule="evenodd" d="M95.0448 76.9794H104.369C121.797 76.9794 136 64.3442 136 48.7462C136 33.1482 121.797 20.4258 104.282 20.4258C102.8 20.4258 101.406 20.513 99.9246 20.6872C93.4763 8.052 79.5339 0.0351562 63.7617 0.0351562C42.8482 0.0351562 25.5945 14.5875 24.1132 33.3225C11.1294 33.8453 0.759766 43.4307 0.759766 55.1945C0.759766 67.2198 11.7394 76.9794 25.1588 77.0665H38.4912C39.9726 77.0665 41.1054 75.9337 41.1054 74.4524C41.1054 72.971 39.8854 71.8382 38.4912 71.8382H25.1588C14.615 71.8382 5.98814 64.3442 5.98814 55.1945C5.98814 46.2191 14.0921 38.9865 24.2003 38.5508C24.4617 42.8207 25.4203 47.1777 27.4245 49.9661C28.2087 51.0989 29.8644 51.4475 30.9972 50.6632C32.13 49.7919 32.4786 48.1362 31.6072 47.0034C29.8644 44.4763 28.9058 38.4637 29.4287 32.3639V31.8411C31.52 16.9402 46.0723 5.26353 63.7617 5.26353C77.1812 5.26353 89.3807 12.1476 95.1319 22.5172C90.6878 24.6957 86.0694 27.7455 84.0652 31.2311C83.3681 32.5382 83.8038 34.1067 85.0237 34.8038C86.2437 35.501 87.8122 35.0653 88.5965 33.8453C90.0778 31.2311 95.0448 27.9198 100.709 25.8285C101.929 25.6542 103.149 25.5671 104.369 25.5671C119.008 25.5671 130.859 35.9367 130.859 48.659C130.859 61.3814 119.008 71.751 104.369 71.751H95.0448C93.5634 71.751 92.4306 72.8838 92.4306 74.3652C92.4306 75.8466 93.6506 76.9794 95.0448 76.9794ZM51.5626 126.475C50.8655 126.475 50.2555 126.213 49.8198 125.778L49.7327 125.69L38.7531 113.317C37.7945 112.271 37.8817 110.615 38.9273 109.657C39.973 108.698 41.6287 108.785 42.5872 109.831L49.0355 117.064V50.4889C49.0355 49.0947 50.1684 47.8747 51.6497 47.8747C53.1311 47.8747 54.2639 49.0075 54.2639 50.4889V117.064L60.7122 109.831C61.6708 108.785 63.3264 108.698 64.3721 109.657C65.4178 110.615 65.5049 112.271 64.5464 113.317L53.5668 125.69C53.044 126.126 52.3468 126.475 51.5626 126.475ZM79.4466 126.475C78.0524 126.475 76.8324 125.342 76.8324 123.86V57.2858L70.3841 64.6055C69.4256 65.6512 67.7699 65.7383 66.7242 64.7798C65.6786 63.8213 65.5914 62.1656 66.55 61.1199L77.5296 48.7461C77.9652 48.2233 78.6624 47.8747 79.4466 47.8747C80.1437 47.8747 80.7537 48.1361 81.1894 48.5718L92.169 60.9457C93.1275 61.9913 93.0404 63.647 91.9947 64.6055C90.9491 65.5641 89.2934 65.4769 88.3349 64.4312L82.0608 57.2858V123.86C82.0608 125.342 80.8409 126.475 79.4466 126.475Z" fill="url(#paint0_linear)"/>
<defs>
<linearGradient id="paint0_linear" x1="241.657" y1="289.943" x2="79.0472" y2="341.177" gradientUnits="userSpaceOnUse">
<stop stop-color="#33B2FA"/>
<stop offset="0.940675" stop-color="#3B76EF"/>
</linearGradient>
</defs>
</svg>
