<svg width="132" height="128" viewBox="0 0 132 128" fill="none" xmlns="http://www.w3.org/2000/svg">
<path fill-rule="evenodd" clip-rule="evenodd" d="M101.378 82.2616L130.876 111.759C131.929 112.725 131.929 114.393 130.963 115.358L119.112 127.21C118.585 127.737 117.97 128 117.268 128C116.566 128 115.951 127.737 115.425 127.21L85.9272 97.7125C81.0988 100.873 75.568 103.331 69.6861 104.736C68.2815 104.999 66.8768 104.209 66.5257 102.804C66.1745 101.4 67.0524 99.9951 68.457 99.6439C89.79 94.4643 104.714 75.4139 104.714 53.3787C104.714 27.0418 83.3813 5.70889 57.0444 5.70889C30.7075 5.70889 9.37454 27.1296 9.37454 53.3787C9.37454 54.8712 8.23327 56.0124 6.74085 56.0124C5.24842 56.0124 4.10716 54.7834 4.10716 53.3787C4.10716 24.2325 27.8982 0.529297 57.0444 0.529297C86.1906 0.529297 109.894 24.2325 109.894 53.4665C109.894 64.0013 106.821 73.9215 101.378 82.2616ZM90.6678 95.0789L117.268 121.679L125.433 113.515L98.9201 87.09L90.6678 95.0789ZM60.9074 79.3649L68.8963 82.5253C70.1253 83.052 70.8276 84.4567 70.7399 85.6857L67.755 95.5182C67.316 96.835 65.9992 97.6251 64.6824 97.3618L56.2545 95.606C55.9473 95.9571 55.662 96.3083 55.3766 96.6594C55.0913 97.0106 54.806 97.3618 54.4987 97.7129L57.8348 105.614C58.3615 106.843 57.9225 108.335 56.6935 108.95L47.6511 113.778C46.4221 114.393 44.9297 114.042 44.2273 112.901L39.4867 105.702C38.6088 105.877 37.6431 105.965 36.7652 105.965L33.517 113.954C33.078 115.007 32.1124 115.622 31.0589 115.622H31.0588C30.7955 115.622 30.5321 115.622 30.2688 115.534L20.4363 112.549C19.1195 112.198 18.3294 110.881 18.5927 109.565L20.3485 101.137C19.9974 100.829 19.6462 100.544 19.2951 100.259L19.2947 100.259C18.9437 99.9733 18.5926 99.6881 18.2416 99.3809L10.3405 102.717C9.11144 103.244 7.61902 102.717 6.9167 101.576L2.08826 92.5333C1.47374 91.3043 1.8249 89.8118 2.96616 89.1095L10.1649 84.3689C10.137 84.0899 10.1003 83.802 10.0631 83.5109C9.98326 82.886 9.90155 82.2463 9.90155 81.6474L1.91268 78.3992C0.683628 77.8724 0.0691001 76.5556 0.420259 75.2387L3.40511 65.4941C3.84406 64.1772 5.07312 63.3871 6.47775 63.6505L14.8178 65.4063C15.125 65.0552 15.4102 64.7042 15.6954 64.3531L15.6957 64.3528L15.6957 64.3528C15.981 64.0016 16.2663 63.6505 16.5736 63.2993L13.2376 55.3983C12.7108 54.1692 13.2376 52.6768 14.3788 52.0622L23.4212 47.2338C24.6502 46.6193 26.1427 46.9704 26.845 48.1117L31.4978 55.3105C32.3757 55.1349 33.3414 55.0471 34.2193 55.0471L37.4675 47.0582C37.9943 45.8292 39.3989 45.1269 40.628 45.478L50.4604 48.5507C51.7773 48.9018 52.5674 50.2187 52.304 51.5355L50.5482 59.9633C51.2505 60.4901 51.9528 61.0168 52.6552 61.6313L60.5562 58.2953C61.7853 57.7686 63.1899 58.2953 63.8922 59.4366L68.7207 68.4789C69.3352 69.708 68.9841 71.2004 67.8428 71.9027L60.644 76.6434C60.6719 76.9223 60.7087 77.2101 60.7458 77.5011L60.7459 77.5012L60.7459 77.5014L60.7459 77.5014C60.8257 78.1263 60.9074 78.766 60.9074 79.3649ZM55.2888 90.163L63.1021 91.7432L64.7701 86.4758L57.3958 83.491C56.3423 83.1398 55.7278 82.0863 55.7278 81.0329C55.7278 79.3649 55.5522 77.6969 55.2011 76.0288C54.9377 74.9754 55.3766 73.8341 56.2545 73.3074L62.9266 68.9179L60.3807 64.0894L53.0941 67.1621C52.1284 67.601 50.8994 67.3377 50.197 66.5476C48.968 65.3185 47.6511 64.1772 46.2465 63.2993C45.2808 62.7726 44.8419 61.6313 45.0174 60.5779L46.6855 52.7646L41.4181 51.1843L38.4332 58.5587C38.0821 59.6122 36.853 60.1389 35.9751 60.2267C34.2193 60.1389 32.5513 60.3145 30.8833 60.8412C29.8298 61.1046 28.7763 60.5779 28.1618 59.7L23.7723 53.0279L18.9439 55.5738L22.1043 62.8604C22.4555 63.9139 22.2799 65.0551 21.4898 65.7574C20.173 66.9865 19.1195 68.3034 18.2416 69.708C17.7148 70.5859 16.5736 71.0248 15.5201 70.8493L7.70681 69.269L6.12659 74.5364L13.5009 77.5213C14.5544 77.8724 15.1689 78.9259 15.1689 79.9794C15.0811 81.6474 15.2567 83.3154 15.6957 84.8956C15.8713 85.9491 15.4323 87.0026 14.5544 87.6171L7.88239 92.0066L10.4283 96.835L17.7148 93.7624C18.6805 93.3234 19.8218 93.5868 20.6119 94.3769C21.841 95.606 23.1578 96.7472 24.5624 97.6251C25.4403 98.1519 25.8793 99.2931 25.7037 100.347L24.1235 108.16L29.3909 109.74L32.3757 102.366C32.7269 101.312 33.517 100.61 34.8338 100.698C36.5896 100.698 38.2576 100.522 39.8379 100.171C40.9791 99.9955 42.0326 100.434 42.6471 101.312L47.0366 107.984L51.865 105.438L48.7924 98.1519C48.3535 97.0984 48.6168 95.9571 49.3191 95.2548C50.636 94.0257 51.6895 92.7089 52.5674 91.3043C53.0941 90.4264 54.2354 89.9874 55.2888 90.163ZM34.9212 74.0972C32.2875 74.0972 30.3562 75.6774 29.4783 78.6622C28.2492 82.525 29.8294 85.3343 33.6044 86.4755C37.3793 87.6168 40.2764 86.1244 41.4177 82.2616C42.5589 78.4867 41.0665 75.6774 37.2038 74.5361C36.4137 74.2728 35.6236 74.0972 34.9212 74.0972ZM94.6196 53.8177C94.6196 55.3101 95.8487 56.4514 97.2533 56.4514C98.7458 56.4514 99.887 55.2223 99.7992 53.7299C99.7992 29.8511 80.3977 10.3618 56.4311 10.3618C54.9387 10.3618 53.7974 11.503 53.7974 12.9954C53.7974 14.4879 55.0265 15.6291 56.4311 15.6291C77.5006 15.6291 94.6196 32.7481 94.6196 53.8177Z" fill="url(#paint0_linear)"/>
<defs>
<linearGradient id="paint0_linear" x1="234.298" y1="292.801" x2="75.3288" y2="341.056" gradientUnits="userSpaceOnUse">
<stop stop-color="#33B2FA"/>
<stop offset="0.940675" stop-color="#3B76EF"/>
</linearGradient>
</defs>
</svg>
