<svg width="143" height="124" viewBox="0 0 143 124" fill="none" xmlns="http://www.w3.org/2000/svg">
<path fill-rule="evenodd" clip-rule="evenodd" d="M109.808 28.9811C109.808 21.5603 115.825 15.4432 123.346 15.4432C130.867 15.4432 136.884 21.5603 136.884 28.9811C136.884 36.4018 130.867 42.5189 123.346 42.5189C119.034 42.5189 115.123 40.413 112.616 37.2041L102.087 42.3184C102.096 42.4011 102.105 42.4829 102.114 42.5641C102.204 43.3687 102.287 44.1058 102.287 44.9257C102.287 52.3464 96.17 58.4635 88.7493 58.4635C81.3285 58.4635 75.2114 52.4467 75.2114 44.9257C75.2114 42.6192 75.9134 40.3128 77.0164 38.4074L61.9744 24.669C57.8629 27.5771 51.6455 27.878 47.3334 25.2707L31.088 41.2153C31.0378 41.2153 31.0128 41.2404 30.9877 41.2654C30.9626 41.2905 30.9375 41.3156 30.8874 41.3156C32.2913 43.4215 33.0936 45.9285 33.0936 48.636C33.0936 56.1571 26.9765 62.1739 19.5557 62.1739C12.135 62.1739 6.01784 56.0568 6.01784 48.636C6.01784 41.2153 12.135 35.0982 19.5557 35.0982C22.163 35.0982 24.67 35.9004 26.7759 37.2041C26.7759 37.1038 26.8762 37.0035 26.8762 37.0035L42.9211 21.1592C41.5171 18.953 40.6146 16.3457 40.6146 13.5379C40.6146 6.11711 46.6315 0 54.1525 0C61.6735 0 67.6904 6.11711 67.6904 13.5379C67.6904 15.9446 67.0887 18.1508 65.9856 20.1564L80.9274 33.8948C83.1336 32.2903 85.8411 31.3878 88.7493 31.3878C93.2619 31.3878 97.1728 33.594 99.6798 36.9032L110.109 31.7889C109.908 30.8864 109.808 29.9839 109.808 28.9811ZM11.9344 48.636C11.9344 52.8478 15.3439 56.2574 19.5557 56.2574C23.7675 56.2574 27.177 52.8478 27.177 48.636C27.177 44.5245 23.7675 41.115 19.5557 41.115C15.3439 41.115 11.9344 44.4243 11.9344 48.636ZM46.5312 13.5379C46.5312 17.7496 49.9407 21.1592 54.1525 21.1592C58.3643 21.1592 61.7738 17.7496 61.7738 13.5379C61.7738 9.42637 58.3643 6.01683 54.1525 6.01683C49.9407 6.01683 46.5312 9.32609 46.5312 13.5379ZM81.2282 44.9257C81.2282 49.1374 84.6378 52.547 88.7493 52.547C92.961 52.547 96.3706 49.1374 96.4709 44.9257C96.4709 40.8142 93.0613 37.4046 88.8495 37.4046C84.6378 37.4046 81.2282 40.7139 81.2282 44.9257ZM115.725 28.9811C115.725 33.1928 119.134 36.6024 123.346 36.6024C127.558 36.6024 130.967 33.1928 130.967 28.9811C130.967 24.8696 127.558 21.46 123.346 21.46C119.134 21.46 115.725 24.7693 115.725 28.9811ZM135.579 117.328H139.992C141.596 117.328 143 118.632 143 120.336C143 122.041 141.596 123.345 139.992 123.345H3.00842C1.30365 123.345 0 121.941 0 120.336C0 118.732 1.30365 117.328 3.00842 117.428H7.42076V81.4276C7.42076 79.7229 8.82468 78.4192 10.4292 78.4192H28.6802C30.385 78.4192 31.6886 79.8231 31.6886 81.4276V117.328H42.0175V46.8309C42.0175 45.1261 43.4215 43.8224 45.0259 43.8224H63.277C64.9818 43.8224 66.2854 45.2264 66.2854 46.8309V117.428H76.6143V77.7172C76.6143 76.0125 78.0182 74.7088 79.6227 74.7088H97.8738C99.5785 74.7088 100.882 76.1128 100.882 77.7172V117.428H111.211V61.6724C111.211 59.9676 112.615 58.664 114.219 58.664H132.571C134.276 58.664 135.579 60.0679 135.579 61.6724V117.328ZM13.4376 117.127H25.7721V84.436H13.4376V117.127ZM48.0344 117.127H60.3689V49.8393H48.0344V117.127ZM82.6311 117.127H94.9656V80.7257H82.6311V117.127ZM117.228 117.127H129.562V64.6808H117.228V117.127Z" fill="url(#paint0_linear)"/>
<defs>
<linearGradient id="paint0_linear" x1="254.719" y1="282.812" x2="85.4519" y2="340.619" gradientUnits="userSpaceOnUse">
<stop stop-color="#33B2FA"/>
<stop offset="0.940675" stop-color="#3B76EF"/>
</linearGradient>
</defs>
</svg>
