<svg width="119" height="138" viewBox="0 0 119 138" fill="none" xmlns="http://www.w3.org/2000/svg">
<path fill-rule="evenodd" clip-rule="evenodd" d="M6.75827 5.00613H60.4907V26.0324C60.4907 29.787 63.4944 32.7906 67.249 32.7906H88.2747V64.9133C88.4416 64.8298 88.6919 64.8298 88.9422 64.8298C89.6097 64.8298 91.0281 65.0802 91.6122 65.247L93.1974 65.7476V32.29C93.1974 31.853 93.1339 31.4796 93.0622 31.0587C93.0518 30.9974 93.0412 30.9352 93.0306 30.8716C93.2809 30.0373 93.114 29.1195 92.4465 28.5354L64.7459 0.751423C64.6595 0.674563 64.5686 0.603235 64.474 0.53782C64.0647 0.203551 63.551 0 62.9938 0H6.75827C3.08711 0 0 3.08711 0 6.75827V117.894C0 121.649 3.08711 124.653 6.75827 124.653H51.3962L48.7263 119.646H6.75827C5.84048 119.646 5.00613 118.812 5.00613 117.894V6.75827C5.00613 5.84048 5.84048 5.00613 6.75827 5.00613ZM67.249 27.7845C66.2478 27.7845 65.4134 27.0336 65.4134 26.0324V8.51092L84.687 27.7845H67.249ZM19.1901 27.8673H46.6403C47.9753 27.8673 49.1434 26.7826 49.1434 25.3642C49.1434 23.9458 47.9753 22.8612 46.6403 22.8612H19.1901C17.7716 22.8612 16.687 24.0293 16.687 25.3642C16.687 26.6992 17.8551 27.8673 19.1901 27.8673ZM74.0071 50.0615H19.1901C17.8551 50.0615 16.687 48.9769 16.687 47.6419C16.687 46.3069 17.7716 45.1388 19.1901 45.1388H74.0071C75.3421 45.1388 76.5102 46.2235 76.5102 47.6419C76.5102 49.0603 75.4255 50.0615 74.0071 50.0615ZM19.1901 65.8308H67.4992C68.9176 65.8308 70.0022 64.7462 70.0022 63.3278C70.0022 61.9094 68.8341 60.8247 67.4992 60.8247H19.1901C17.7716 60.8247 16.687 61.9094 16.687 63.3278C16.687 64.7462 17.8551 65.8308 19.1901 65.8308ZM53.0648 81.517H19.1901C17.8551 81.517 16.687 80.4323 16.687 79.0974C16.687 77.7624 17.7716 76.5943 19.1901 76.5943H53.0648C54.3998 76.5943 55.5679 77.679 55.5679 79.0974C55.5679 80.5158 54.3998 81.517 53.0648 81.517ZM19.1901 96.7851H40.5495C41.9679 96.7851 43.0526 95.7005 43.0526 94.2821C43.0526 92.8637 41.8845 91.779 40.5495 91.779H19.1901C17.8551 91.779 16.687 92.8637 16.687 94.2821C16.687 95.7005 17.8551 96.7851 19.1901 96.7851ZM116.56 105.963L108.967 102.876C108.967 102.307 108.89 101.699 108.814 101.105L108.814 101.105C108.778 100.828 108.743 100.555 108.717 100.29L115.559 95.7841C116.643 95.1166 116.977 93.6982 116.393 92.5301L111.804 83.9363C111.22 82.7682 109.802 82.351 108.633 82.8516L101.124 86.0221C100.791 85.7301 100.457 85.459 100.123 85.1878C99.7894 84.9166 99.4556 84.6455 99.1219 84.3534L100.791 76.3436C101.041 75.0921 100.29 73.8406 99.0384 73.5068L89.6936 70.67C88.4421 70.3363 87.1906 70.9203 86.69 72.0884L83.6029 79.6811C82.7685 79.6811 81.8507 79.7645 81.0164 79.9314L76.5943 73.2565C75.9268 72.1719 74.5084 71.8381 73.3403 72.4222L64.7465 77.0111C63.5784 77.5952 63.0777 79.0136 63.5784 80.1817L66.7489 87.6909C66.4569 88.0246 66.1858 88.3583 65.9146 88.692C65.6434 89.0258 65.3722 89.3595 65.0802 89.6933L57.0704 88.0246C55.8189 87.7743 54.5673 88.5252 54.1502 89.7767L51.3133 99.1215C50.9796 100.373 51.5637 101.625 52.7318 102.125L60.3244 105.212C60.3244 105.781 60.402 106.389 60.4779 106.983C60.5132 107.26 60.5482 107.534 60.5747 107.799L53.733 112.304C52.6483 112.972 52.3146 114.39 52.8986 115.558L57.4876 124.152C58.3219 125.153 59.6569 125.654 60.825 125.153L68.3342 121.983C68.6679 122.275 69.0017 122.546 69.3355 122.817L69.3358 122.817C69.6694 123.089 70.003 123.36 70.3366 123.652L68.6679 131.661C68.4176 132.913 69.1685 134.164 70.4201 134.498L79.7648 137.335C80.0151 137.418 80.2654 137.418 80.5157 137.418C81.517 137.418 82.4348 136.834 82.8519 135.833L85.9391 128.24C86.7734 128.24 87.6912 128.157 88.5256 127.99L93.0311 134.832C93.6985 135.917 95.117 136.25 96.285 135.666L104.879 131.077C106.047 130.493 106.464 129.075 105.964 127.907L102.793 120.398C103.085 120.064 103.356 119.73 103.627 119.396C103.899 119.063 104.17 118.729 104.462 118.395L112.472 120.064C113.723 120.314 114.975 119.563 115.392 118.312L118.229 108.967C118.312 107.799 117.728 106.464 116.56 105.963ZM111.053 114.724L103.627 113.222C102.626 113.055 101.541 113.472 101.041 114.307C100.207 115.642 99.2053 116.893 97.9538 118.061C97.2028 118.729 96.9525 119.897 97.3697 120.815L100.29 127.74L95.701 130.16L91.5292 123.818C90.9452 122.984 89.944 122.567 88.8593 122.734C87.3575 123.067 85.7722 123.234 84.1035 123.234C82.8519 123.151 82.101 123.818 81.7673 124.82L78.9305 131.828L73.9243 130.326L75.4262 122.901C75.5931 121.899 75.1759 120.815 74.3415 120.314C73.0066 119.48 71.755 118.395 70.5869 117.227C69.836 116.476 68.7514 116.226 67.8336 116.643L60.9084 119.563L58.5722 115.141L64.9133 110.969C65.7477 110.385 66.1649 109.384 65.998 108.383C65.6642 106.798 65.4974 105.212 65.4974 103.544C65.4974 102.542 64.9133 101.541 63.9121 101.207L56.9035 98.3706L58.4054 93.3645L65.8311 94.8663C66.7489 95.1166 67.8336 94.616 68.4176 93.7816C69.252 92.4467 70.2532 91.1951 71.5047 90.027C72.2556 89.3596 72.506 88.1915 72.0888 87.2737L69.0851 80.3485L73.674 77.9289L77.8458 84.27C78.4299 85.1044 79.4311 85.605 80.4323 85.3547C82.0176 85.0209 83.6029 84.7706 85.1881 84.854C86.0225 84.7706 87.1906 84.27 87.5243 83.2688L90.3611 76.2602L95.3673 77.762L93.8654 85.1878C93.6985 86.189 94.1157 87.2737 94.9501 87.7743C96.285 88.6087 97.5366 89.6933 98.7047 90.8614C99.3722 91.6123 100.54 91.8626 101.458 91.4454L108.467 88.3583L110.886 92.9473L104.545 97.1191C103.711 97.7031 103.294 98.7043 103.46 99.789C103.794 101.374 103.961 102.96 103.961 104.545C103.961 105.546 104.545 106.547 105.546 106.881L112.555 109.718L111.053 114.724ZM79.0136 102.292C79.848 99.4549 81.6836 97.9531 84.1866 97.9531C84.9376 97.9531 85.6885 98.12 86.4394 98.2868C90.1105 99.3715 91.529 102.041 90.4443 105.713C89.3596 109.384 86.6063 110.802 83.0185 109.717C79.3474 108.633 77.929 105.879 79.0136 102.292Z" fill="url(#paint0_linear)"/>
<defs>
<linearGradient id="paint0_linear" x1="210.608" y1="315.081" x2="63.764" y2="352.299" gradientUnits="userSpaceOnUse">
<stop stop-color="#33B2FA"/>
<stop offset="0.940675" stop-color="#3B76EF"/>
</linearGradient>
</defs>
</svg>
