<svg width="58" height="59" viewBox="0 0 58 59" fill="none" xmlns="http://www.w3.org/2000/svg">
<g opacity="0.8">
<path d="M41.2392 11.6777H6.0299C3.25196 11.6777 1 13.9821 1 16.8246V52.8527C1 55.6953 3.25196 57.9996 6.0299 57.9996H41.2392C44.0171 57.9996 46.2691 55.6953 46.2691 52.8527V16.8246C46.2691 13.9821 44.0171 11.6777 41.2392 11.6777Z" fill="white" stroke="#0167FA" stroke-linecap="round" stroke-linejoin="round"/>
<path d="M14.831 29.692C16.9145 29.692 18.6034 27.9637 18.6034 25.8318C18.6034 23.6999 16.9145 21.9717 14.831 21.9717C12.7476 21.9717 11.0586 23.6999 11.0586 25.8318C11.0586 27.9637 12.7476 29.692 14.831 29.692Z" fill="white" stroke="#0167FA" stroke-linecap="round" stroke-linejoin="round"/>
<path d="M46.2704 42.5596L33.6957 29.6924L6.03125 58.0002" fill="white"/>
<path d="M46.2704 42.5596L33.6957 29.6924L6.03125 58.0002" stroke="#0167FA" stroke-linecap="round" stroke-linejoin="round"/>
<circle cx="44.1983" cy="14.3194" r="7.31941" fill="white"/>
<circle cx="47" cy="11" r="10" fill="white" stroke="#0167FA" stroke-linecap="round" stroke-linejoin="round" stroke-dasharray="2 2"/>
<path d="M52.8437 10.7025H47.5798V5.43867C47.5798 5.1962 47.3836 5 47.1412 5C46.8987 5 46.7025 5.1962 46.7025 5.43867V10.7025H41.4387C41.1962 10.7025 41 10.8987 41 11.1412C41 11.3836 41.1962 11.5798 41.4387 11.5798H46.7025V16.8437C46.7025 17.0862 46.8987 17.2824 47.1412 17.2824C47.3836 17.2824 47.5798 17.0862 47.5798 16.8437V11.5798H52.8437C53.0862 11.5798 53.2824 11.3836 53.2824 11.1412C53.2824 10.8987 53.0862 10.7025 52.8437 10.7025Z" fill="#0167FA"/>
</g>
</svg>
