<svg width="17" height="16" viewBox="0 0 17 16" fill="none" xmlns="http://www.w3.org/2000/svg">
<path fill-rule="evenodd" clip-rule="evenodd" d="M7.81791 1.03625C7.93729 0.988406 8.07052 0.988406 8.18991 1.03625L14.1579 3.42325L11.7539 4.38425L5.59991 1.92325L7.81791 1.03625ZM4.25391 2.46225L10.4079 4.92325L8.00391 5.88425L1.84991 3.42325L4.25391 2.46225ZM1.00391 4.16225L7.50391 6.76225V14.6842L1.00391 12.0843V4.16225ZM8.50391 14.6853V6.76125L15.0039 4.16225V12.0852L8.50391 14.6853ZM8.56091 0.107251C8.20334 -0.0357502 7.80447 -0.0357502 7.44691 0.107251L0.317906 2.95925C0.225219 2.9964 0.145777 3.06044 0.0898132 3.14314C0.0338497 3.22584 0.00392914 3.3234 0.00390625 3.42325V12.0852C0.00403309 12.2851 0.0640211 12.4803 0.176134 12.6457C0.288247 12.8111 0.447344 12.9391 0.632906 13.0133L7.81791 15.8872C7.93729 15.9351 8.07052 15.9351 8.18991 15.8872L15.3739 13.0133C15.5597 12.9393 15.719 12.8113 15.8313 12.6459C15.9436 12.4805 16.0037 12.2852 16.0039 12.0852V3.42325C16.0039 3.3234 15.974 3.22584 15.918 3.14314C15.862 3.06044 15.7826 2.9964 15.6899 2.95925L8.56091 0.107251Z" fill="#005EF9"/>
</svg>
