<svg width="1482" height="565" viewBox="0 0 1482 565" fill="none" xmlns="http://www.w3.org/2000/svg">
<rect y="1" width="1440" height="320" fill="url(#paint0_linear)"/>
<g opacity="0.08">
<path opacity="0.15" d="M712.635 470.625C692.213 463.227 668.246 462.233 645.535 464.305C581.465 470.156 527.502 497.789 470.182 516.702C409.843 536.609 341.384 543.773 276.01 533.233C269.315 532.155 262.582 530.833 256 529.211V564.505H785.773C773.368 554.912 763.785 543.454 758.103 531.039C747.254 507.297 748.126 483.481 712.635 470.625Z" fill="url(#paint1_linear)"/>
<path d="M908.606 75.3416C923.778 96.1297 955.283 108.047 986.348 115.605C1025.79 125.197 1067.25 129.792 1107.29 138.025C1147.33 146.257 1187.16 158.766 1215.07 180.857C1249.06 207.75 1261.32 245.397 1291.81 274.352C1338.73 318.901 1414.83 330.95 1481.6 316.519V102.647C1477.36 104.953 1472.79 106.997 1468.14 108.694C1418.53 126.857 1351.89 123.238 1307.67 99.9929C1287.05 89.1441 1270.29 74.2539 1245.22 68.506C1227.92 64.5397 1208.99 65.5336 1190.63 65.7024C1159.2 65.9837 1125.7 63.1425 1101.48 50.2215C1079.72 38.6131 1068.44 18.7346 1076.21 1.21894C1076.38 0.81574 1076.59 0.412543 1076.79 0.0187225H922.849C917.073 5.46657 912.057 11.477 907.997 18.1157C896.942 36.1846 895.835 57.8447 908.606 75.3416Z" fill="url(#paint2_linear)"/>
<path d="M1061.86 50.2215C1086.08 63.1519 1119.57 65.9837 1151 65.7024C1169.36 65.5336 1188.29 64.5397 1205.6 68.506C1230.67 74.2539 1247.42 89.1441 1268.04 99.9929C1312.26 123.247 1378.9 126.857 1428.52 108.694C1433.16 106.997 1437.72 104.953 1441.97 102.647V0.00935364H1037.15C1036.96 0.412551 1036.75 0.806372 1036.57 1.20957C1028.82 18.7346 1040.1 38.6038 1061.86 50.2215Z" fill="url(#paint3_linear)"/>
<path opacity="0.15" d="M1252.18 274.343C1221.69 245.388 1209.44 207.74 1175.44 180.848C1147.53 158.766 1107.68 146.248 1067.65 138.015C1027.62 129.783 986.153 125.197 946.714 115.596C915.64 108.038 884.134 96.111 868.972 75.3323C856.201 57.8354 857.308 36.1752 868.363 18.097C872.423 11.4583 877.43 5.44785 883.216 0H456.436C460.43 3.18807 464.125 6.58243 467.463 10.1737C515.668 62.1018 487.276 134.143 522.767 191.05C548.196 231.829 605.656 260.119 667.186 268.032C728.716 275.946 793.218 264.985 847.631 243.006C881.828 229.194 915.115 210.553 954.394 209.709C1008.42 208.547 1051.86 241.618 1077.26 275.684C1102.66 309.749 1119.05 348.372 1156.99 375.855C1210.42 414.581 1293.87 422.063 1369.94 419.738C1393.64 419.016 1418.67 417.825 1441.94 420.319V316.519C1375.2 330.95 1299.1 318.901 1252.18 274.343Z" fill="url(#paint4_linear)"/>
<path d="M1259.3 521.84C1164.67 484.728 1044.84 535.605 959.645 479.411C931.571 460.892 911.055 437.413 887.576 415.884C857.795 388.579 822.164 363.778 778.834 348.269C735.505 332.75 683.727 327.293 637.912 338.573C599.487 348.044 568.384 368.082 536.672 386.244C478.668 419.447 410.65 434.825 336.293 423.704C307.694 419.419 280.389 411.121 256 399.644V529.211C262.573 530.833 269.315 532.155 276.01 533.233C341.375 543.763 409.843 536.609 470.182 516.702C527.502 497.789 581.465 470.156 645.535 464.305C668.255 462.233 692.213 463.227 712.635 470.625C748.126 483.48 747.254 507.297 758.112 531.039C763.794 543.454 773.377 554.912 785.783 564.504H1327.4C1306.2 548.883 1285.88 532.267 1259.3 521.84Z" fill="url(#paint5_linear)"/>
</g>
<g opacity="0.3">
<mask id="mask0" mask-type="alpha" maskUnits="userSpaceOnUse" x="47" y="248" width="8" height="7">
<path d="M51.1307 254.898C52.8886 254.898 54.3137 253.354 54.3137 251.449C54.3137 249.544 52.8886 248 51.1307 248C49.3728 248 47.9478 249.544 47.9478 251.449C47.9478 253.354 49.3728 254.898 51.1307 254.898Z" fill="white"/>
</mask>
<g mask="url(#mask0)">
<path d="M51.1307 254.898C52.8886 254.898 54.3137 253.354 54.3137 251.449C54.3137 249.544 52.8886 248 51.1307 248C49.3728 248 47.9478 249.544 47.9478 251.449C47.9478 253.354 49.3728 254.898 51.1307 254.898Z" fill="white"/>
</g>
<mask id="mask1" mask-type="alpha" maskUnits="userSpaceOnUse" x="66" y="248" width="7" height="7">
<path d="M69.5654 254.898C71.3233 254.898 72.7484 253.354 72.7484 251.449C72.7484 249.544 71.3233 248 69.5654 248C67.8075 248 66.3824 249.544 66.3824 251.449C66.3824 253.354 67.8075 254.898 69.5654 254.898Z" fill="white"/>
</mask>
<g mask="url(#mask1)">
<path d="M69.5654 254.898C71.3233 254.898 72.7484 253.354 72.7484 251.449C72.7484 249.544 71.3233 248 69.5654 248C67.8075 248 66.3824 249.544 66.3824 251.449C66.3824 253.354 67.8075 254.898 69.5654 254.898Z" fill="white"/>
</g>
<mask id="mask2" mask-type="alpha" maskUnits="userSpaceOnUse" x="84" y="248" width="8" height="7">
<path d="M88 254.898C89.7579 254.898 91.1829 253.354 91.1829 251.449C91.1829 249.544 89.7579 248 88 248C86.2421 248 84.817 249.544 84.817 251.449C84.817 253.354 86.2421 254.898 88 254.898Z" fill="white"/>
</mask>
<g mask="url(#mask2)">
<path d="M88 254.898C89.7579 254.898 91.1829 253.354 91.1829 251.449C91.1829 249.544 89.7579 248 88 248C86.2421 248 84.817 249.544 84.817 251.449C84.817 253.354 86.2421 254.898 88 254.898Z" fill="white"/>
</g>
<mask id="mask3" mask-type="alpha" maskUnits="userSpaceOnUse" x="103" y="248" width="7" height="7">
<path d="M106.435 254.898C108.192 254.898 109.617 253.354 109.617 251.449C109.617 249.544 108.192 248 106.435 248C104.677 248 103.252 249.544 103.252 251.449C103.252 253.354 104.677 254.898 106.435 254.898Z" fill="white"/>
</mask>
<g mask="url(#mask3)">
<path d="M106.435 254.898C108.192 254.898 109.617 253.354 109.617 251.449C109.617 249.544 108.192 248 106.435 248C104.677 248 103.252 249.544 103.252 251.449C103.252 253.354 104.677 254.898 106.435 254.898Z" fill="white"/>
</g>
<mask id="mask4" mask-type="alpha" maskUnits="userSpaceOnUse" x="121" y="248" width="8" height="7">
<path d="M124.869 254.898C126.627 254.898 128.052 253.354 128.052 251.449C128.052 249.544 126.627 248 124.869 248C123.111 248 121.686 249.544 121.686 251.449C121.686 253.354 123.111 254.898 124.869 254.898Z" fill="white"/>
</mask>
<g mask="url(#mask4)">
<path d="M124.869 254.898C126.627 254.898 128.052 253.354 128.052 251.449C128.052 249.544 126.627 248 124.869 248C123.111 248 121.686 249.544 121.686 251.449C121.686 253.354 123.111 254.898 124.869 254.898Z" fill="white"/>
</g>
<mask id="mask5" mask-type="alpha" maskUnits="userSpaceOnUse" x="47" y="265" width="8" height="8">
<path d="M51.1307 272.216C52.8886 272.216 54.3137 270.671 54.3137 268.767C54.3137 266.862 52.8886 265.318 51.1307 265.318C49.3728 265.318 47.9478 266.862 47.9478 268.767C47.9478 270.671 49.3728 272.216 51.1307 272.216Z" fill="white"/>
</mask>
<g mask="url(#mask5)">
<path d="M51.1307 272.216C52.8886 272.216 54.3137 270.671 54.3137 268.767C54.3137 266.862 52.8886 265.318 51.1307 265.318C49.3728 265.318 47.9478 266.862 47.9478 268.767C47.9478 270.671 49.3728 272.216 51.1307 272.216Z" fill="white"/>
</g>
<mask id="mask6" mask-type="alpha" maskUnits="userSpaceOnUse" x="66" y="265" width="7" height="8">
<path d="M69.5653 272.216C71.3232 272.216 72.7482 270.671 72.7482 268.767C72.7482 266.862 71.3232 265.318 69.5653 265.318C67.8074 265.318 66.3823 266.862 66.3823 268.767C66.3823 270.671 67.8074 272.216 69.5653 272.216Z" fill="white"/>
</mask>
<g mask="url(#mask6)">
<path d="M69.5653 272.216C71.3232 272.216 72.7482 270.671 72.7482 268.767C72.7482 266.862 71.3232 265.318 69.5653 265.318C67.8074 265.318 66.3823 266.862 66.3823 268.767C66.3823 270.671 67.8074 272.216 69.5653 272.216Z" fill="white"/>
</g>
<mask id="mask7" mask-type="alpha" maskUnits="userSpaceOnUse" x="84" y="265" width="8" height="8">
<path d="M88 272.216C89.7579 272.216 91.1829 270.671 91.1829 268.767C91.1829 266.862 89.7579 265.318 88 265.318C86.2421 265.318 84.817 266.862 84.817 268.767C84.817 270.671 86.2421 272.216 88 272.216Z" fill="white"/>
</mask>
<g mask="url(#mask7)">
<path d="M88 272.216C89.7579 272.216 91.1829 270.671 91.1829 268.767C91.1829 266.862 89.7579 265.318 88 265.318C86.2421 265.318 84.817 266.862 84.817 268.767C84.817 270.671 86.2421 272.216 88 272.216Z" fill="white"/>
</g>
<mask id="mask8" mask-type="alpha" maskUnits="userSpaceOnUse" x="103" y="265" width="7" height="8">
<path d="M106.435 272.216C108.192 272.216 109.617 270.671 109.617 268.767C109.617 266.862 108.192 265.318 106.435 265.318C104.677 265.318 103.252 266.862 103.252 268.767C103.252 270.671 104.677 272.216 106.435 272.216Z" fill="white"/>
</mask>
<g mask="url(#mask8)">
<path d="M106.435 272.216C108.192 272.216 109.617 270.671 109.617 268.767C109.617 266.862 108.192 265.318 106.435 265.318C104.677 265.318 103.252 266.862 103.252 268.767C103.252 270.671 104.677 272.216 106.435 272.216Z" fill="white"/>
</g>
<mask id="mask9" mask-type="alpha" maskUnits="userSpaceOnUse" x="121" y="265" width="8" height="8">
<path d="M124.869 272.216C126.627 272.216 128.052 270.671 128.052 268.767C128.052 266.862 126.627 265.318 124.869 265.318C123.111 265.318 121.686 266.862 121.686 268.767C121.686 270.671 123.111 272.216 124.869 272.216Z" fill="white"/>
</mask>
<g mask="url(#mask9)">
<path d="M124.869 272.216C126.627 272.216 128.052 270.671 128.052 268.767C128.052 266.862 126.627 265.318 124.869 265.318C123.111 265.318 121.686 266.862 121.686 268.767C121.686 270.671 123.111 272.216 124.869 272.216Z" fill="white"/>
</g>
<mask id="mask10" mask-type="alpha" maskUnits="userSpaceOnUse" x="47" y="282" width="8" height="8">
<path d="M51.1307 289.498C52.8886 289.498 54.3137 287.953 54.3137 286.048C54.3137 284.144 52.8886 282.599 51.1307 282.599C49.3728 282.599 47.9478 284.144 47.9478 286.048C47.9478 287.953 49.3728 289.498 51.1307 289.498Z" fill="white"/>
</mask>
<g mask="url(#mask10)">
<path d="M51.1307 289.498C52.8886 289.498 54.3137 287.953 54.3137 286.048C54.3137 284.144 52.8886 282.599 51.1307 282.599C49.3728 282.599 47.9478 284.144 47.9478 286.048C47.9478 287.953 49.3728 289.498 51.1307 289.498Z" fill="white"/>
</g>
<mask id="mask11" mask-type="alpha" maskUnits="userSpaceOnUse" x="66" y="282" width="7" height="8">
<path d="M69.5653 289.498C71.3232 289.498 72.7482 287.953 72.7482 286.048C72.7482 284.144 71.3232 282.599 69.5653 282.599C67.8074 282.599 66.3823 284.144 66.3823 286.048C66.3823 287.953 67.8074 289.498 69.5653 289.498Z" fill="white"/>
</mask>
<g mask="url(#mask11)">
<path d="M69.5653 289.498C71.3232 289.498 72.7482 287.953 72.7482 286.048C72.7482 284.144 71.3232 282.599 69.5653 282.599C67.8074 282.599 66.3823 284.144 66.3823 286.048C66.3823 287.953 67.8074 289.498 69.5653 289.498Z" fill="white"/>
</g>
<mask id="mask12" mask-type="alpha" maskUnits="userSpaceOnUse" x="84" y="282" width="8" height="8">
<path d="M88 289.498C89.7579 289.498 91.1829 287.953 91.1829 286.048C91.1829 284.144 89.7579 282.599 88 282.599C86.2421 282.599 84.817 284.144 84.817 286.048C84.817 287.953 86.2421 289.498 88 289.498Z" fill="white"/>
</mask>
<g mask="url(#mask12)">
<path d="M88 289.498C89.7579 289.498 91.1829 287.953 91.1829 286.048C91.1829 284.144 89.7579 282.599 88 282.599C86.2421 282.599 84.817 284.144 84.817 286.048C84.817 287.953 86.2421 289.498 88 289.498Z" fill="white"/>
</g>
<mask id="mask13" mask-type="alpha" maskUnits="userSpaceOnUse" x="103" y="282" width="7" height="8">
<path d="M106.435 289.498C108.192 289.498 109.617 287.953 109.617 286.048C109.617 284.144 108.192 282.599 106.435 282.599C104.677 282.599 103.252 284.144 103.252 286.048C103.252 287.953 104.677 289.498 106.435 289.498Z" fill="white"/>
</mask>
<g mask="url(#mask13)">
<path d="M106.435 289.498C108.192 289.498 109.617 287.953 109.617 286.048C109.617 284.144 108.192 282.599 106.435 282.599C104.677 282.599 103.252 284.144 103.252 286.048C103.252 287.953 104.677 289.498 106.435 289.498Z" fill="white"/>
</g>
<mask id="mask14" mask-type="alpha" maskUnits="userSpaceOnUse" x="121" y="282" width="8" height="8">
<path d="M124.869 289.498C126.627 289.498 128.052 287.953 128.052 286.048C128.052 284.144 126.627 282.599 124.869 282.599C123.111 282.599 121.686 284.144 121.686 286.048C121.686 287.953 123.111 289.498 124.869 289.498Z" fill="white"/>
</mask>
<g mask="url(#mask14)">
<path d="M124.869 289.498C126.627 289.498 128.052 287.953 128.052 286.048C128.052 284.144 126.627 282.599 124.869 282.599C123.111 282.599 121.686 284.144 121.686 286.048C121.686 287.953 123.111 289.498 124.869 289.498Z" fill="white"/>
</g>
<mask id="mask15" mask-type="alpha" maskUnits="userSpaceOnUse" x="47" y="299" width="8" height="8">
<path d="M51.1307 306.815C52.8886 306.815 54.3137 305.271 54.3137 303.366C54.3137 301.461 52.8886 299.917 51.1307 299.917C49.3728 299.917 47.9478 301.461 47.9478 303.366C47.9478 305.271 49.3728 306.815 51.1307 306.815Z" fill="white"/>
</mask>
<g mask="url(#mask15)">
<path d="M51.1307 306.815C52.8886 306.815 54.3137 305.271 54.3137 303.366C54.3137 301.461 52.8886 299.917 51.1307 299.917C49.3728 299.917 47.9478 301.461 47.9478 303.366C47.9478 305.271 49.3728 306.815 51.1307 306.815Z" fill="white"/>
</g>
<mask id="mask16" mask-type="alpha" maskUnits="userSpaceOnUse" x="66" y="299" width="7" height="8">
<path d="M69.5653 306.815C71.3232 306.815 72.7482 305.271 72.7482 303.366C72.7482 301.461 71.3232 299.917 69.5653 299.917C67.8074 299.917 66.3823 301.461 66.3823 303.366C66.3823 305.271 67.8074 306.815 69.5653 306.815Z" fill="white"/>
</mask>
<g mask="url(#mask16)">
<path d="M69.5653 306.815C71.3232 306.815 72.7482 305.271 72.7482 303.366C72.7482 301.461 71.3232 299.917 69.5653 299.917C67.8074 299.917 66.3823 301.461 66.3823 303.366C66.3823 305.271 67.8074 306.815 69.5653 306.815Z" fill="white"/>
</g>
<mask id="mask17" mask-type="alpha" maskUnits="userSpaceOnUse" x="84" y="299" width="8" height="8">
<path d="M88 306.815C89.7579 306.815 91.1829 305.271 91.1829 303.366C91.1829 301.461 89.7579 299.917 88 299.917C86.2421 299.917 84.817 301.461 84.817 303.366C84.817 305.271 86.2421 306.815 88 306.815Z" fill="white"/>
</mask>
<g mask="url(#mask17)">
<path d="M88 306.815C89.7579 306.815 91.1829 305.271 91.1829 303.366C91.1829 301.461 89.7579 299.917 88 299.917C86.2421 299.917 84.817 301.461 84.817 303.366C84.817 305.271 86.2421 306.815 88 306.815Z" fill="white"/>
</g>
<mask id="mask18" mask-type="alpha" maskUnits="userSpaceOnUse" x="103" y="299" width="7" height="8">
<path d="M106.435 306.815C108.192 306.815 109.617 305.271 109.617 303.366C109.617 301.461 108.192 299.917 106.435 299.917C104.677 299.917 103.252 301.461 103.252 303.366C103.252 305.271 104.677 306.815 106.435 306.815Z" fill="white"/>
</mask>
<g mask="url(#mask18)">
<path d="M106.435 306.815C108.192 306.815 109.617 305.271 109.617 303.366C109.617 301.461 108.192 299.917 106.435 299.917C104.677 299.917 103.252 301.461 103.252 303.366C103.252 305.271 104.677 306.815 106.435 306.815Z" fill="white"/>
</g>
<mask id="mask19" mask-type="alpha" maskUnits="userSpaceOnUse" x="121" y="299" width="8" height="8">
<path d="M124.869 306.815C126.627 306.815 128.052 305.271 128.052 303.366C128.052 301.461 126.627 299.917 124.869 299.917C123.111 299.917 121.686 301.461 121.686 303.366C121.686 305.271 123.111 306.815 124.869 306.815Z" fill="white"/>
</mask>
<g mask="url(#mask19)">
<path d="M124.869 306.815C126.627 306.815 128.052 305.271 128.052 303.366C128.052 301.461 126.627 299.917 124.869 299.917C123.111 299.917 121.686 301.461 121.686 303.366C121.686 305.271 123.111 306.815 124.869 306.815Z" fill="white"/>
</g>
<mask id="mask20" mask-type="alpha" maskUnits="userSpaceOnUse" x="47" y="317" width="8" height="8">
<path d="M51.1307 324.097C52.8886 324.097 54.3137 322.553 54.3137 320.648C54.3137 318.743 52.8886 317.199 51.1307 317.199C49.3728 317.199 47.9478 318.743 47.9478 320.648C47.9478 322.553 49.3728 324.097 51.1307 324.097Z" fill="white"/>
</mask>
<g mask="url(#mask20)">
<path d="M51.1307 324.097C52.8886 324.097 54.3137 322.553 54.3137 320.648C54.3137 318.743 52.8886 317.199 51.1307 317.199C49.3728 317.199 47.9478 318.743 47.9478 320.648C47.9478 322.553 49.3728 324.097 51.1307 324.097Z" fill="white"/>
</g>
<mask id="mask21" mask-type="alpha" maskUnits="userSpaceOnUse" x="66" y="317" width="7" height="8">
<path d="M69.5653 324.097C71.3232 324.097 72.7482 322.553 72.7482 320.648C72.7482 318.743 71.3232 317.199 69.5653 317.199C67.8074 317.199 66.3823 318.743 66.3823 320.648C66.3823 322.553 67.8074 324.097 69.5653 324.097Z" fill="white"/>
</mask>
<g mask="url(#mask21)">
<path d="M69.5653 324.097C71.3232 324.097 72.7482 322.553 72.7482 320.648C72.7482 318.743 71.3232 317.199 69.5653 317.199C67.8074 317.199 66.3823 318.743 66.3823 320.648C66.3823 322.553 67.8074 324.097 69.5653 324.097Z" fill="white"/>
</g>
<mask id="mask22" mask-type="alpha" maskUnits="userSpaceOnUse" x="84" y="317" width="8" height="8">
<path d="M88 324.097C89.7579 324.097 91.1829 322.553 91.1829 320.648C91.1829 318.743 89.7579 317.199 88 317.199C86.2421 317.199 84.817 318.743 84.817 320.648C84.817 322.553 86.2421 324.097 88 324.097Z" fill="white"/>
</mask>
<g mask="url(#mask22)">
<path d="M88 324.097C89.7579 324.097 91.1829 322.553 91.1829 320.648C91.1829 318.743 89.7579 317.199 88 317.199C86.2421 317.199 84.817 318.743 84.817 320.648C84.817 322.553 86.2421 324.097 88 324.097Z" fill="white"/>
</g>
<mask id="mask23" mask-type="alpha" maskUnits="userSpaceOnUse" x="103" y="317" width="7" height="8">
<path d="M106.435 324.097C108.192 324.097 109.617 322.553 109.617 320.648C109.617 318.743 108.192 317.199 106.435 317.199C104.677 317.199 103.252 318.743 103.252 320.648C103.252 322.553 104.677 324.097 106.435 324.097Z" fill="white"/>
</mask>
<g mask="url(#mask23)">
<path d="M106.435 324.097C108.192 324.097 109.617 322.553 109.617 320.648C109.617 318.743 108.192 317.199 106.435 317.199C104.677 317.199 103.252 318.743 103.252 320.648C103.252 322.553 104.677 324.097 106.435 324.097Z" fill="white"/>
</g>
<mask id="mask24" mask-type="alpha" maskUnits="userSpaceOnUse" x="121" y="317" width="8" height="8">
<path d="M124.869 324.097C126.627 324.097 128.052 322.553 128.052 320.648C128.052 318.743 126.627 317.199 124.869 317.199C123.111 317.199 121.686 318.743 121.686 320.648C121.686 322.553 123.111 324.097 124.869 324.097Z" fill="white"/>
</mask>
<g mask="url(#mask24)">
<path d="M124.869 324.097C126.627 324.097 128.052 322.553 128.052 320.648C128.052 318.743 126.627 317.199 124.869 317.199C123.111 317.199 121.686 318.743 121.686 320.648C121.686 322.553 123.111 324.097 124.869 324.097Z" fill="white"/>
</g>
</g>
<circle cx="99" cy="141.011" r="28" fill="white" fill-opacity="0.1"/>
<circle cx="1340" cy="92.0114" r="22" fill="white" fill-opacity="0.2"/>
<defs>
<linearGradient id="paint0_linear" x1="865" y1="303.545" x2="870.291" y2="-25.2576" gradientUnits="userSpaceOnUse">
<stop stop-color="#33B2FA"/>
<stop offset="0.940675" stop-color="#3B76EF"/>
</linearGradient>
<linearGradient id="paint1_linear" x1="611.129" y1="300.549" x2="493.884" y2="620.561" gradientUnits="userSpaceOnUse">
<stop stop-color="#2B292A"/>
<stop offset="0.0206" stop-color="#373536" stop-opacity="0.9794"/>
<stop offset="0.1127" stop-color="#656464" stop-opacity="0.8873"/>
<stop offset="0.2105" stop-color="#8E8D8E" stop-opacity="0.7895"/>
<stop offset="0.3123" stop-color="#B1B1B1" stop-opacity="0.6877"/>
<stop offset="0.4193" stop-color="#CECDCD" stop-opacity="0.5807"/>
<stop offset="0.5334" stop-color="#E4E3E3" stop-opacity="0.4666"/>
<stop offset="0.6576" stop-color="#F3F3F3" stop-opacity="0.3424"/>
<stop offset="0.7998" stop-color="#FCFCFC" stop-opacity="0.2002"/>
<stop offset="1" stop-color="white" stop-opacity="0"/>
</linearGradient>
<linearGradient id="paint2_linear" x1="899.369" y1="161.153" x2="1481.6" y2="161.153" gradientUnits="userSpaceOnUse">
<stop stop-color="white"/>
<stop offset="1" stop-color="white" stop-opacity="0"/>
</linearGradient>
<linearGradient id="paint3_linear" x1="1034.13" y1="60.1144" x2="1441.96" y2="60.1144" gradientUnits="userSpaceOnUse">
<stop stop-color="white"/>
<stop offset="1" stop-color="white" stop-opacity="0"/>
</linearGradient>
<linearGradient id="paint4_linear" x1="456.437" y1="210.178" x2="1441.96" y2="210.178" gradientUnits="userSpaceOnUse">
<stop stop-color="#2B292A"/>
<stop offset="0.0206" stop-color="#373536" stop-opacity="0.9794"/>
<stop offset="0.1127" stop-color="#656464" stop-opacity="0.8873"/>
<stop offset="0.2105" stop-color="#8E8D8E" stop-opacity="0.7895"/>
<stop offset="0.3123" stop-color="#B1B1B1" stop-opacity="0.6877"/>
<stop offset="0.4193" stop-color="#CECDCD" stop-opacity="0.5807"/>
<stop offset="0.5334" stop-color="#E4E3E3" stop-opacity="0.4666"/>
<stop offset="0.6576" stop-color="#F3F3F3" stop-opacity="0.3424"/>
<stop offset="0.7998" stop-color="#FCFCFC" stop-opacity="0.2002"/>
<stop offset="1" stop-color="white" stop-opacity="0"/>
</linearGradient>
<linearGradient id="paint5_linear" x1="256" y1="448.541" x2="1327.39" y2="448.541" gradientUnits="userSpaceOnUse">
<stop stop-color="white" stop-opacity="0"/>
<stop offset="1" stop-color="white"/>
</linearGradient>
</defs>
</svg>
