<svg width="3740" height="3740" viewBox="0 0 3740 3740" fill="none" xmlns="http://www.w3.org/2000/svg">
<rect width="3740" height="3740" fill="white"/>
<path d="M1434.36 2209L1418.61 2161.75H1353.36L1338.11 2209H1309.36L1368.86 2034.5H1404.36L1463.86 2209H1434.36ZM1386.61 2060.5H1385.36L1360.11 2137.5H1411.61L1386.61 2060.5ZM1570.64 2187.5H1569.39C1566.56 2195.17 1561.89 2201.17 1555.39 2205.5C1549.06 2209.83 1541.56 2212 1532.89 2212C1516.39 2212 1503.64 2206.08 1494.64 2194.25C1485.64 2182.25 1481.14 2165.5 1481.14 2144C1481.14 2122.5 1485.64 2105.83 1494.64 2094C1503.64 2082 1516.39 2076 1532.89 2076C1541.56 2076 1549.06 2078.17 1555.39 2082.5C1561.89 2086.67 1566.56 2092.67 1569.39 2100.5H1570.64V2024H1597.89V2209H1570.64V2187.5ZM1541.14 2188.5C1549.47 2188.5 1556.47 2186.5 1562.14 2182.5C1567.81 2178.33 1570.64 2172.92 1570.64 2166.25V2121.75C1570.64 2115.08 1567.81 2109.75 1562.14 2105.75C1556.47 2101.58 1549.47 2099.5 1541.14 2099.5C1531.64 2099.5 1524.06 2102.58 1518.39 2108.75C1512.72 2114.75 1509.89 2122.75 1509.89 2132.75V2155.25C1509.89 2165.25 1512.72 2173.33 1518.39 2179.5C1524.06 2185.5 1531.64 2188.5 1541.14 2188.5ZM1665.09 2209L1620.84 2079H1647.84L1667.59 2138.25L1680.84 2183.75H1682.34L1695.59 2138.25L1715.84 2079H1741.84L1697.09 2209H1665.09ZM1857.82 2209C1850.65 2209 1845.15 2207 1841.32 2203C1837.49 2198.83 1835.15 2193.58 1834.32 2187.25H1833.07C1830.57 2195.42 1825.99 2201.58 1819.32 2205.75C1812.65 2209.92 1804.57 2212 1795.07 2212C1781.57 2212 1771.15 2208.5 1763.82 2201.5C1756.65 2194.5 1753.07 2185.08 1753.07 2173.25C1753.07 2160.25 1757.74 2150.5 1767.07 2144C1776.57 2137.5 1790.4 2134.25 1808.57 2134.25H1832.07V2123.25C1832.07 2115.25 1829.9 2109.08 1825.57 2104.75C1821.24 2100.42 1814.49 2098.25 1805.32 2098.25C1797.65 2098.25 1791.4 2099.92 1786.57 2103.25C1781.74 2106.58 1777.65 2110.83 1774.32 2116L1758.07 2101.25C1762.4 2093.92 1768.49 2087.92 1776.32 2083.25C1784.15 2078.42 1794.4 2076 1807.07 2076C1823.9 2076 1836.82 2079.92 1845.82 2087.75C1854.82 2095.58 1859.32 2106.83 1859.32 2121.5V2186.75H1873.07V2209H1857.82ZM1802.82 2191.25C1811.32 2191.25 1818.32 2189.42 1823.82 2185.75C1829.32 2181.92 1832.07 2176.83 1832.07 2170.5V2151.75H1809.07C1790.24 2151.75 1780.82 2157.58 1780.82 2169.25V2173.75C1780.82 2179.58 1782.74 2184 1786.57 2187C1790.57 2189.83 1795.99 2191.25 1802.82 2191.25ZM1899.78 2209V2079H1927.03V2100.5H1928.28C1931.11 2093.5 1935.36 2087.67 1941.03 2083C1946.86 2078.33 1954.78 2076 1964.78 2076C1978.11 2076 1988.44 2080.42 1995.78 2089.25C2003.28 2097.92 2007.03 2110.33 2007.03 2126.5V2209H1979.78V2130C1979.78 2109.67 1971.61 2099.5 1955.28 2099.5C1951.78 2099.5 1948.28 2100 1944.78 2101C1941.44 2101.83 1938.44 2103.17 1935.78 2105C1933.11 2106.83 1930.94 2109.17 1929.28 2112C1927.78 2114.83 1927.03 2118.17 1927.03 2122V2209H1899.78ZM2095.05 2212C2085.71 2212 2077.38 2210.42 2070.05 2207.25C2062.71 2204.08 2056.55 2199.58 2051.55 2193.75C2046.55 2187.75 2042.71 2180.58 2040.05 2172.25C2037.38 2163.75 2036.05 2154.33 2036.05 2144C2036.05 2133.67 2037.38 2124.33 2040.05 2116C2042.71 2107.5 2046.55 2100.33 2051.55 2094.5C2056.55 2088.5 2062.71 2083.92 2070.05 2080.75C2077.38 2077.58 2085.71 2076 2095.05 2076C2108.05 2076 2118.71 2078.92 2127.05 2084.75C2135.38 2090.58 2141.46 2098.33 2145.3 2108L2122.8 2118.5C2120.96 2112.5 2117.71 2107.75 2113.05 2104.25C2108.55 2100.58 2102.55 2098.75 2095.05 2098.75C2085.05 2098.75 2077.46 2101.92 2072.3 2108.25C2067.3 2114.42 2064.8 2122.5 2064.8 2132.5V2155.75C2064.8 2165.75 2067.3 2173.92 2072.3 2180.25C2077.46 2186.42 2085.05 2189.5 2095.05 2189.5C2103.05 2189.5 2109.38 2187.58 2114.05 2183.75C2118.88 2179.75 2122.71 2174.5 2125.55 2168L2146.3 2179C2141.96 2189.67 2135.46 2197.83 2126.8 2203.5C2118.13 2209.17 2107.55 2212 2095.05 2212ZM2221.77 2212C2212.44 2212 2204.11 2210.42 2196.77 2207.25C2189.44 2204.08 2183.19 2199.58 2178.02 2193.75C2172.86 2187.75 2168.86 2180.58 2166.02 2172.25C2163.36 2163.75 2162.02 2154.33 2162.02 2144C2162.02 2133.67 2163.36 2124.33 2166.02 2116C2168.86 2107.5 2172.86 2100.33 2178.02 2094.5C2183.19 2088.5 2189.44 2083.92 2196.77 2080.75C2204.11 2077.58 2212.44 2076 2221.77 2076C2231.27 2076 2239.61 2077.67 2246.77 2081C2254.11 2084.33 2260.19 2089 2265.02 2095C2269.86 2100.83 2273.44 2107.67 2275.77 2115.5C2278.27 2123.33 2279.52 2131.75 2279.52 2140.75V2151H2190.27V2155.25C2190.27 2165.25 2193.19 2173.5 2199.02 2180C2205.02 2186.33 2213.52 2189.5 2224.52 2189.5C2232.52 2189.5 2239.27 2187.75 2244.77 2184.25C2250.27 2180.75 2254.94 2176 2258.77 2170L2274.77 2185.75C2269.94 2193.75 2262.94 2200.17 2253.77 2205C2244.61 2209.67 2233.94 2212 2221.77 2212ZM2221.77 2097.25C2217.11 2097.25 2212.77 2098.08 2208.77 2099.75C2204.94 2101.42 2201.61 2103.75 2198.77 2106.75C2196.11 2109.75 2194.02 2113.33 2192.52 2117.5C2191.02 2121.67 2190.27 2126.25 2190.27 2131.25V2133H2250.77V2130.5C2250.77 2120.5 2248.19 2112.5 2243.02 2106.5C2237.86 2100.33 2230.77 2097.25 2221.77 2097.25ZM2391.44 2187.5H2390.19C2387.36 2195.17 2382.69 2201.17 2376.19 2205.5C2369.86 2209.83 2362.36 2212 2353.69 2212C2337.19 2212 2324.44 2206.08 2315.44 2194.25C2306.44 2182.25 2301.94 2165.5 2301.94 2144C2301.94 2122.5 2306.44 2105.83 2315.44 2094C2324.44 2082 2337.19 2076 2353.69 2076C2362.36 2076 2369.86 2078.17 2376.19 2082.5C2382.69 2086.67 2387.36 2092.67 2390.19 2100.5H2391.44V2024H2418.69V2209H2391.44V2187.5ZM2361.94 2188.5C2370.27 2188.5 2377.27 2186.5 2382.94 2182.5C2388.61 2178.33 2391.44 2172.92 2391.44 2166.25V2121.75C2391.44 2115.08 2388.61 2109.75 2382.94 2105.75C2377.27 2101.58 2370.27 2099.5 2361.94 2099.5C2352.44 2099.5 2344.86 2102.58 2339.19 2108.75C2333.52 2114.75 2330.69 2122.75 2330.69 2132.75V2155.25C2330.69 2165.25 2333.52 2173.33 2339.19 2179.5C2344.86 2185.5 2352.44 2188.5 2361.94 2188.5Z" fill="#2D3847"/>
<path d="M997.919 1743V1429.72H1122.88C1155.15 1429.72 1180.23 1437.49 1198.12 1453.04C1216.31 1468.59 1225.4 1490 1225.4 1517.28C1225.4 1544.27 1216.31 1565.68 1198.12 1581.52C1179.93 1597.36 1154.85 1605.28 1122.88 1605.28H1034V1743H997.919ZM1034 1575.36H1119.8C1142.97 1575.36 1160.43 1570.37 1172.16 1560.4C1183.89 1550.13 1189.76 1535.76 1189.76 1517.28C1189.76 1498.8 1183.89 1484.57 1172.16 1474.6C1160.43 1464.63 1142.97 1459.64 1119.8 1459.64H1034V1575.36ZM1397.63 1746.52C1368.3 1746.52 1342.93 1740.07 1321.51 1727.16C1300.39 1714.25 1283.97 1695.77 1272.23 1671.72C1260.79 1647.67 1255.07 1619.21 1255.07 1586.36C1255.07 1553.21 1260.79 1524.76 1272.23 1501C1283.67 1476.95 1299.95 1458.47 1321.07 1445.56C1342.49 1432.65 1368.01 1426.2 1397.63 1426.2C1426.97 1426.2 1452.34 1432.65 1473.75 1445.56C1495.17 1458.47 1511.59 1476.95 1523.03 1501C1534.47 1524.76 1540.19 1553.07 1540.19 1585.92C1540.19 1619.07 1534.33 1647.67 1522.59 1671.72C1511.15 1695.77 1494.73 1714.25 1473.31 1727.16C1452.19 1740.07 1426.97 1746.52 1397.63 1746.52ZM1397.63 1715.72C1430.78 1715.72 1456.59 1704.57 1475.07 1682.28C1493.55 1659.69 1502.79 1627.57 1502.79 1585.92C1502.79 1544.27 1493.55 1512.44 1475.07 1490.44C1456.59 1468.15 1430.78 1457 1397.63 1457C1364.49 1457 1338.53 1468.15 1319.75 1490.44C1301.27 1512.73 1292.03 1544.56 1292.03 1585.92C1292.03 1627.28 1301.27 1659.25 1319.75 1681.84C1338.53 1704.43 1364.49 1715.72 1397.63 1715.72ZM1669.89 1743L1559.89 1429.72H1596.85L1692.77 1712.2H1678.69L1776.81 1429.72L1804.53 1430.16L1900.89 1712.2H1887.25L1984.05 1429.72H2019.69L1910.13 1743H1879.33L1785.17 1472.84H1794.85L1700.25 1743H1669.89ZM2058.51 1743V1429.72H2256.51V1459.64H2094.15V1568.76H2247.71V1599.12H2094.15V1713.08H2256.51V1743H2058.51ZM2302.18 1743V1429.72H2426.7C2460.43 1429.72 2486.24 1437.2 2504.14 1452.16C2522.32 1467.12 2531.42 1488.68 2531.42 1516.84C2531.42 1543.83 2522.18 1565.09 2503.7 1580.64C2485.51 1595.89 2459.84 1603.52 2426.7 1603.52L2459.26 1597.36C2470.7 1597.36 2480.52 1600.59 2488.74 1607.04C2496.95 1613.2 2503.55 1623.17 2508.54 1636.96L2548.14 1743H2509.86L2471.14 1638.72C2466.15 1625.52 2459.26 1616.87 2450.46 1612.76C2441.95 1608.36 2430.51 1606.16 2416.14 1606.16H2337.82V1743H2302.18ZM2337.82 1576.24H2423.62C2447.96 1576.24 2466 1571.25 2477.74 1561.28C2489.76 1551.31 2495.78 1536.64 2495.78 1517.28C2495.78 1497.92 2489.91 1483.55 2478.18 1474.16C2466.44 1464.48 2448.26 1459.64 2423.62 1459.64H2337.82V1576.24Z" fill="#2D3847"/>
<path d="M2693.46 1746.96C2669.4 1746.96 2646.82 1743.73 2625.7 1737.28C2604.87 1730.83 2587.12 1721.59 2572.46 1709.56L2591.82 1668.2C2607.07 1679.64 2622.91 1688.15 2639.34 1693.72C2656.06 1699 2674.24 1701.64 2693.9 1701.64C2715.6 1701.64 2732.32 1697.83 2744.06 1690.2C2756.08 1682.57 2762.1 1671.87 2762.1 1658.08C2762.1 1646.35 2756.52 1637.4 2745.38 1631.24C2734.52 1624.79 2716.48 1618.77 2691.26 1613.2C2651.95 1604.69 2623.35 1593.69 2605.46 1580.2C2587.56 1566.71 2578.62 1547.05 2578.62 1521.24C2578.62 1502.76 2583.6 1486.33 2593.58 1471.96C2603.55 1457.59 2617.63 1446.29 2635.82 1438.08C2654.3 1429.87 2675.56 1425.76 2699.62 1425.76C2721.62 1425.76 2742.44 1429.13 2762.1 1435.88C2782.04 1442.33 2798.32 1451.43 2810.94 1463.16L2792.02 1504.52C2764.15 1482.23 2733.35 1471.08 2699.62 1471.08C2679.38 1471.08 2663.39 1475.33 2651.66 1483.84C2639.92 1492.05 2634.06 1503.35 2634.06 1517.72C2634.06 1530.04 2639.19 1539.43 2649.46 1545.88C2660.02 1552.33 2677.91 1558.35 2703.14 1563.92C2729.24 1570.08 2750.51 1576.83 2766.94 1584.16C2783.36 1591.2 2795.98 1600.44 2804.78 1611.88C2813.58 1623.03 2817.98 1637.11 2817.98 1654.12C2817.98 1672.89 2812.99 1689.32 2803.02 1703.4C2793.04 1717.19 2778.67 1727.89 2759.9 1735.52C2741.12 1743.15 2718.98 1746.96 2693.46 1746.96ZM2855.58 1429.72H3065.02V1474.6H2911.02V1561.28H3055.78V1606.16H2911.02V1698.12H3065.02V1743H2855.58V1429.72ZM3102.26 1429.72H3159.02V1696.36H3305.54V1743H3102.26V1429.72ZM3333.47 1429.72H3390.23V1696.36H3536.75V1743H3333.47V1429.72Z" fill="#0167FA"/>
<path d="M485.334 1198.12C427.094 1231.05 370.986 1266.58 312.056 1298.98C296.485 1307.53 280.788 1316.01 265.483 1325.01C244.392 1337.46 222.188 1351.67 209.658 1373.46C197.113 1395.18 195.843 1421.56 195.545 1446.05C194.808 1529.81 194.808 1616.07 195.608 1699.92C195.843 1724.41 197.176 1750.77 209.721 1772.49C220.133 1790.52 272.446 1825 329.996 1859.44L289.193 1941.28L359.32 1842.05L523.768 1609.34L262.629 1616.04L666.812 1221.81C652.835 1213.86 638.905 1205.96 625.022 1198.12C603.758 1186.07 580.283 1174 555.209 1174C530.119 1174 506.597 1186.09 485.334 1198.13" fill="#0167FA"/>
<path d="M666.812 1269.11L568.021 1474.4L867.281 1475.44L365.138 1880.12C413.593 1908.18 460.652 1933.93 485.334 1947.87C506.66 1959.91 530.119 1972 555.209 1972C580.299 1972 603.821 1959.91 625.085 1947.87C698.002 1906.69 772.708 1863.56 844.919 1820.94C866.011 1808.49 888.215 1794.29 900.744 1772.49C913.289 1750.77 914.56 1724.39 914.857 1699.92C915.657 1616.12 915.657 1530.1 914.857 1446.07C914.622 1421.57 913.289 1395.21 900.744 1373.48C888.199 1351.76 865.995 1337.41 844.919 1325.03C796.59 1296.5 747.131 1267.74 697.861 1239.5L709.653 1180.07L666.812 1269.11Z" fill="#0167FA"/>
</svg>
