<svg width="3868" height="926" viewBox="0 0 3868 926" fill="none" xmlns="http://www.w3.org/2000/svg">
<rect width="3868" height="926" fill="white"/>
<path d="M1104.3 781L1094.85 752.65H1055.7L1046.55 781H1029.3L1065 676.3H1086.3L1122 781H1104.3ZM1075.65 691.9H1074.9L1059.75 738.1H1090.65L1075.65 691.9ZM1186.07 768.1H1185.32C1183.62 772.7 1180.82 776.3 1176.92 778.9C1173.12 781.5 1168.62 782.8 1163.42 782.8C1153.52 782.8 1145.87 779.25 1140.47 772.15C1135.07 764.95 1132.37 754.9 1132.37 742C1132.37 729.1 1135.07 719.1 1140.47 712C1145.87 704.8 1153.52 701.2 1163.42 701.2C1168.62 701.2 1173.12 702.5 1176.92 705.1C1180.82 707.6 1183.62 711.2 1185.32 715.9H1186.07V670H1202.42V781H1186.07V768.1ZM1168.37 768.7C1173.37 768.7 1177.57 767.5 1180.97 765.1C1184.37 762.6 1186.07 759.35 1186.07 755.35V728.65C1186.07 724.65 1184.37 721.45 1180.97 719.05C1177.57 716.55 1173.37 715.3 1168.37 715.3C1162.67 715.3 1158.12 717.15 1154.72 720.85C1151.32 724.45 1149.62 729.25 1149.62 735.25V748.75C1149.62 754.75 1151.32 759.6 1154.72 763.3C1158.12 766.9 1162.67 768.7 1168.37 768.7ZM1242.74 781L1216.19 703H1232.39L1244.24 738.55L1252.19 765.85H1253.09L1261.04 738.55L1273.19 703H1288.79L1261.94 781H1242.74ZM1358.38 781C1354.08 781 1350.78 779.8 1348.48 777.4C1346.18 774.9 1344.78 771.75 1344.28 767.95H1343.53C1342.03 772.85 1339.28 776.55 1335.28 779.05C1331.28 781.55 1326.43 782.8 1320.73 782.8C1312.63 782.8 1306.38 780.7 1301.98 776.5C1297.68 772.3 1295.53 766.65 1295.53 759.55C1295.53 751.75 1298.33 745.9 1303.93 742C1309.63 738.1 1317.93 736.15 1328.83 736.15H1342.93V729.55C1342.93 724.75 1341.63 721.05 1339.03 718.45C1336.43 715.85 1332.38 714.55 1326.88 714.55C1322.28 714.55 1318.53 715.55 1315.63 717.55C1312.73 719.55 1310.28 722.1 1308.28 725.2L1298.53 716.35C1301.13 711.95 1304.78 708.35 1309.48 705.55C1314.18 702.65 1320.33 701.2 1327.93 701.2C1338.03 701.2 1345.78 703.55 1351.18 708.25C1356.58 712.95 1359.28 719.7 1359.28 728.5V767.65H1367.53V781H1358.38ZM1325.38 770.35C1330.48 770.35 1334.68 769.25 1337.98 767.05C1341.28 764.75 1342.93 761.7 1342.93 757.9V746.65H1329.13C1317.83 746.65 1312.18 750.15 1312.18 757.15V759.85C1312.18 763.35 1313.33 766 1315.63 767.8C1318.03 769.5 1321.28 770.35 1325.38 770.35ZM1383.55 781V703H1399.9V715.9H1400.65C1402.35 711.7 1404.9 708.2 1408.3 705.4C1411.8 702.6 1416.55 701.2 1422.55 701.2C1430.55 701.2 1436.75 703.85 1441.15 709.15C1445.65 714.35 1447.9 721.8 1447.9 731.5V781H1431.55V733.6C1431.55 721.4 1426.65 715.3 1416.85 715.3C1414.75 715.3 1412.65 715.6 1410.55 716.2C1408.55 716.7 1406.75 717.5 1405.15 718.6C1403.55 719.7 1402.25 721.1 1401.25 722.8C1400.35 724.5 1399.9 726.5 1399.9 728.8V781H1383.55ZM1500.71 782.8C1495.11 782.8 1490.11 781.85 1485.71 779.95C1481.31 778.05 1477.61 775.35 1474.61 771.85C1471.61 768.25 1469.31 763.95 1467.71 758.95C1466.11 753.85 1465.31 748.2 1465.31 742C1465.31 735.8 1466.11 730.2 1467.71 725.2C1469.31 720.1 1471.61 715.8 1474.61 712.3C1477.61 708.7 1481.31 705.95 1485.71 704.05C1490.11 702.15 1495.11 701.2 1500.71 701.2C1508.51 701.2 1514.91 702.95 1519.91 706.45C1524.91 709.95 1528.56 714.6 1530.86 720.4L1517.36 726.7C1516.26 723.1 1514.31 720.25 1511.51 718.15C1508.81 715.95 1505.21 714.85 1500.71 714.85C1494.71 714.85 1490.16 716.75 1487.06 720.55C1484.06 724.25 1482.56 729.1 1482.56 735.1V749.05C1482.56 755.05 1484.06 759.95 1487.06 763.75C1490.16 767.45 1494.71 769.3 1500.71 769.3C1505.51 769.3 1509.31 768.15 1512.11 765.85C1515.01 763.45 1517.31 760.3 1519.01 756.4L1531.46 763C1528.86 769.4 1524.96 774.3 1519.76 777.7C1514.56 781.1 1508.21 782.8 1500.71 782.8ZM1576.75 782.8C1571.15 782.8 1566.15 781.85 1561.75 779.95C1557.35 778.05 1553.6 775.35 1550.5 771.85C1547.4 768.25 1545 763.95 1543.3 758.95C1541.7 753.85 1540.9 748.2 1540.9 742C1540.9 735.8 1541.7 730.2 1543.3 725.2C1545 720.1 1547.4 715.8 1550.5 712.3C1553.6 708.7 1557.35 705.95 1561.75 704.05C1566.15 702.15 1571.15 701.2 1576.75 701.2C1582.45 701.2 1587.45 702.2 1591.75 704.2C1596.15 706.2 1599.8 709 1602.7 712.6C1605.6 716.1 1607.75 720.2 1609.15 724.9C1610.65 729.6 1611.4 734.65 1611.4 740.05V746.2H1557.85V748.75C1557.85 754.75 1559.6 759.7 1563.1 763.6C1566.7 767.4 1571.8 769.3 1578.4 769.3C1583.2 769.3 1587.25 768.25 1590.55 766.15C1593.85 764.05 1596.65 761.2 1598.95 757.6L1608.55 767.05C1605.65 771.85 1601.45 775.7 1595.95 778.6C1590.45 781.4 1584.05 782.8 1576.75 782.8ZM1576.75 713.95C1573.95 713.95 1571.35 714.45 1568.95 715.45C1566.65 716.45 1564.65 717.85 1562.95 719.65C1561.35 721.45 1560.1 723.6 1559.2 726.1C1558.3 728.6 1557.85 731.35 1557.85 734.35V735.4H1594.15V733.9C1594.15 727.9 1592.6 723.1 1589.5 719.5C1586.4 715.8 1582.15 713.95 1576.75 713.95ZM1678.55 768.1H1677.8C1676.1 772.7 1673.3 776.3 1669.4 778.9C1665.6 781.5 1661.1 782.8 1655.9 782.8C1646 782.8 1638.35 779.25 1632.95 772.15C1627.55 764.95 1624.85 754.9 1624.85 742C1624.85 729.1 1627.55 719.1 1632.95 712C1638.35 704.8 1646 701.2 1655.9 701.2C1661.1 701.2 1665.6 702.5 1669.4 705.1C1673.3 707.6 1676.1 711.2 1677.8 715.9H1678.55V670H1694.9V781H1678.55V768.1ZM1660.85 768.7C1665.85 768.7 1670.05 767.5 1673.45 765.1C1676.85 762.6 1678.55 759.35 1678.55 755.35V728.65C1678.55 724.65 1676.85 721.45 1673.45 719.05C1670.05 716.55 1665.85 715.3 1660.85 715.3C1655.15 715.3 1650.6 717.15 1647.2 720.85C1643.8 724.45 1642.1 729.25 1642.1 735.25V748.75C1642.1 754.75 1643.8 759.6 1647.2 763.3C1650.6 766.9 1655.15 768.7 1660.85 768.7Z" fill="#2D3847"/>
<path d="M1040.9 614.867V301.587H1165.86C1198.12 301.587 1223.2 309.361 1241.1 324.907C1259.28 340.454 1268.38 361.867 1268.38 389.147C1268.38 416.134 1259.28 437.547 1241.1 453.387C1222.91 469.227 1197.83 477.147 1165.86 477.147H1076.98V614.867H1040.9ZM1076.98 447.227H1162.78C1185.95 447.227 1203.4 442.241 1215.14 432.267C1226.87 422.001 1232.74 407.627 1232.74 389.147C1232.74 370.667 1226.87 356.441 1215.14 346.467C1203.4 336.494 1185.95 331.507 1162.78 331.507H1076.98V447.227ZM1440.61 618.387C1411.28 618.387 1385.9 611.934 1364.49 599.027C1343.37 586.121 1326.94 567.641 1315.21 543.587C1303.77 519.534 1298.05 491.081 1298.05 458.227C1298.05 425.081 1303.77 396.627 1315.21 372.867C1326.65 348.814 1342.93 330.334 1364.05 317.427C1385.46 304.521 1410.98 298.067 1440.61 298.067C1469.94 298.067 1495.32 304.521 1516.73 317.427C1538.14 330.334 1554.57 348.814 1566.01 372.867C1577.45 396.627 1583.17 424.934 1583.17 457.787C1583.17 490.934 1577.3 519.534 1565.57 543.587C1554.13 567.641 1537.7 586.121 1516.29 599.027C1495.17 611.934 1469.94 618.387 1440.61 618.387ZM1440.61 587.587C1473.76 587.587 1499.57 576.441 1518.05 554.147C1536.53 531.561 1545.77 499.441 1545.77 457.787C1545.77 416.134 1536.53 384.307 1518.05 362.307C1499.57 340.014 1473.76 328.867 1440.61 328.867C1407.46 328.867 1381.5 340.014 1362.73 362.307C1344.25 384.601 1335.01 416.427 1335.01 457.787C1335.01 499.147 1344.25 531.121 1362.73 553.707C1381.5 576.294 1407.46 587.587 1440.61 587.587ZM1712.87 614.867L1602.87 301.587H1639.83L1735.75 584.067H1721.67L1819.79 301.587L1847.51 302.027L1943.87 584.067H1930.23L2027.03 301.587H2062.67L1953.11 614.867H1922.31L1828.15 344.707H1837.83L1743.23 614.867H1712.87ZM2101.48 614.867V301.587H2299.48V331.507H2137.12V440.627H2290.68V470.987H2137.12V584.947H2299.48V614.867H2101.48ZM2345.15 614.867V301.587H2469.67C2503.41 301.587 2529.22 309.067 2547.11 324.027C2565.3 338.987 2574.39 360.547 2574.39 388.707C2574.39 415.694 2565.15 436.961 2546.67 452.507C2528.49 467.761 2502.82 475.387 2469.67 475.387L2502.23 469.227C2513.67 469.227 2523.5 472.454 2531.71 478.907C2539.93 485.067 2546.53 495.041 2551.51 508.827L2591.11 614.867H2552.83L2514.11 510.587C2509.13 497.387 2502.23 488.734 2493.43 484.627C2484.93 480.227 2473.49 478.027 2459.11 478.027H2380.79V614.867H2345.15ZM2380.79 448.107H2466.59C2490.94 448.107 2508.98 443.121 2520.71 433.147C2532.74 423.174 2538.75 408.507 2538.75 389.147C2538.75 369.787 2532.89 355.414 2521.15 346.027C2509.42 336.347 2491.23 331.507 2466.59 331.507H2380.79V448.107Z" fill="#2D3847"/>
<path d="M2736.43 618.827C2712.38 618.827 2689.79 615.601 2668.67 609.147C2647.84 602.694 2630.1 593.454 2615.43 581.427L2634.79 540.067C2650.04 551.507 2665.88 560.014 2682.31 565.587C2699.03 570.867 2717.22 573.507 2736.87 573.507C2758.58 573.507 2775.3 569.694 2787.03 562.067C2799.06 554.441 2805.07 543.734 2805.07 529.947C2805.07 518.214 2799.5 509.267 2788.35 503.107C2777.5 496.654 2759.46 490.641 2734.23 485.067C2694.92 476.561 2666.32 465.561 2648.43 452.067C2630.54 438.574 2621.59 418.921 2621.59 393.107C2621.59 374.627 2626.58 358.201 2636.55 343.827C2646.52 329.454 2660.6 318.161 2678.79 309.947C2697.27 301.734 2718.54 297.627 2742.59 297.627C2764.59 297.627 2785.42 301.001 2805.07 307.747C2825.02 314.201 2841.3 323.294 2853.91 335.027L2834.99 376.387C2807.12 354.094 2776.32 342.947 2742.59 342.947C2722.35 342.947 2706.36 347.201 2694.63 355.707C2682.9 363.921 2677.03 375.214 2677.03 389.587C2677.03 401.907 2682.16 411.294 2692.43 417.747C2702.99 424.201 2720.88 430.214 2746.11 435.787C2772.22 441.947 2793.48 448.694 2809.91 456.027C2826.34 463.067 2838.95 472.307 2847.75 483.747C2856.55 494.894 2860.95 508.974 2860.95 525.987C2860.95 544.761 2855.96 561.187 2845.99 575.267C2836.02 589.054 2821.64 599.761 2802.87 607.387C2784.1 615.014 2761.95 618.827 2736.43 618.827ZM2898.56 301.587H3108V346.467H2954V433.147H3098.76V478.027H2954V569.987H3108V614.867H2898.56V301.587ZM3145.23 301.587H3201.99V568.227H3348.51V614.867H3145.23V301.587ZM3376.45 301.587H3433.21V568.227H3579.73V614.867H3376.45V301.587Z" fill="#0167FA"/>
<path d="M323.914 26.9072C258.938 63.6465 196.341 103.29 130.595 139.435C113.223 148.969 95.7106 158.434 78.6356 168.476C55.1049 182.367 30.3321 198.217 16.3536 222.535C2.35771 246.766 0.94062 276.192 0.608216 303.519C-0.214045 396.96 -0.214045 493.199 0.678196 586.745C0.94062 614.072 2.42769 643.481 16.4236 667.711C28.0403 687.83 86.4033 726.302 150.61 764.721L105.088 856.026L183.325 745.319L366.794 485.694L75.4515 493.164L526.383 53.342C510.789 44.4663 495.248 35.6547 479.759 26.9072C456.036 13.4711 429.846 0 401.872 0C373.88 0 347.637 13.4886 323.914 26.9247" fill="#0167FA"/>
<path d="M526.383 106.107L416.165 335.15L750.038 336.305L189.816 787.796C243.875 819.095 296.377 847.821 323.914 863.374C347.708 876.81 373.88 890.299 401.872 890.299C429.864 890.299 456.106 876.81 479.829 863.374C561.181 817.433 644.526 769.322 725.091 721.77C748.621 707.879 773.394 692.029 787.372 667.711C801.368 643.481 802.785 614.054 803.118 586.745C804.01 493.252 804.01 397.292 803.118 303.537C802.855 276.21 801.368 246.801 787.372 222.553C773.376 198.322 748.604 182.314 725.091 168.493C671.171 136.67 615.992 104.585 561.023 73.0762L574.179 6.77045L526.383 106.107Z" fill="#0167FA"/>
</svg>
