<svg width="3740" height="3740" viewBox="0 0 3740 3740" fill="none" xmlns="http://www.w3.org/2000/svg">
<rect width="3740" height="3740" fill="white"/>
<path d="M1128.8 2209V2034.5H1237.8V2059.5H1157.05V2108H1228.8V2133H1157.05V2209H1128.8ZM1263.28 2209V2079H1290.53V2104H1291.78C1293.61 2097.33 1297.45 2091.5 1303.28 2086.5C1309.11 2081.5 1317.2 2079 1327.53 2079H1334.78V2105.25H1324.03C1313.2 2105.25 1304.86 2107 1299.03 2110.5C1293.36 2114 1290.53 2119.17 1290.53 2126V2209H1263.28ZM1408.76 2212C1399.43 2212 1391.1 2210.42 1383.76 2207.25C1376.43 2204.08 1370.18 2199.58 1365.01 2193.75C1359.85 2187.75 1355.85 2180.58 1353.01 2172.25C1350.35 2163.75 1349.01 2154.33 1349.01 2144C1349.01 2133.67 1350.35 2124.33 1353.01 2116C1355.85 2107.5 1359.85 2100.33 1365.01 2094.5C1370.18 2088.5 1376.43 2083.92 1383.76 2080.75C1391.1 2077.58 1399.43 2076 1408.76 2076C1418.26 2076 1426.6 2077.67 1433.76 2081C1441.1 2084.33 1447.18 2089 1452.01 2095C1456.85 2100.83 1460.43 2107.67 1462.76 2115.5C1465.26 2123.33 1466.51 2131.75 1466.51 2140.75V2151H1377.26V2155.25C1377.26 2165.25 1380.18 2173.5 1386.01 2180C1392.01 2186.33 1400.51 2189.5 1411.51 2189.5C1419.51 2189.5 1426.26 2187.75 1431.76 2184.25C1437.26 2180.75 1441.93 2176 1445.76 2170L1461.76 2185.75C1456.93 2193.75 1449.93 2200.17 1440.76 2205C1431.6 2209.67 1420.93 2212 1408.76 2212ZM1408.76 2097.25C1404.1 2097.25 1399.76 2098.08 1395.76 2099.75C1391.93 2101.42 1388.6 2103.75 1385.76 2106.75C1383.1 2109.75 1381.01 2113.33 1379.51 2117.5C1378.01 2121.67 1377.26 2126.25 1377.26 2131.25V2133H1437.76V2130.5C1437.76 2120.5 1435.18 2112.5 1430.01 2106.5C1424.85 2100.33 1417.76 2097.25 1408.76 2097.25ZM1547.68 2212C1538.34 2212 1530.01 2210.42 1522.68 2207.25C1515.34 2204.08 1509.09 2199.58 1503.93 2193.75C1498.76 2187.75 1494.76 2180.58 1491.93 2172.25C1489.26 2163.75 1487.93 2154.33 1487.93 2144C1487.93 2133.67 1489.26 2124.33 1491.93 2116C1494.76 2107.5 1498.76 2100.33 1503.93 2094.5C1509.09 2088.5 1515.34 2083.92 1522.68 2080.75C1530.01 2077.58 1538.34 2076 1547.68 2076C1557.18 2076 1565.51 2077.67 1572.68 2081C1580.01 2084.33 1586.09 2089 1590.93 2095C1595.76 2100.83 1599.34 2107.67 1601.68 2115.5C1604.18 2123.33 1605.43 2131.75 1605.43 2140.75V2151H1516.18V2155.25C1516.18 2165.25 1519.09 2173.5 1524.93 2180C1530.93 2186.33 1539.43 2189.5 1550.43 2189.5C1558.43 2189.5 1565.18 2187.75 1570.68 2184.25C1576.18 2180.75 1580.84 2176 1584.68 2170L1600.68 2185.75C1595.84 2193.75 1588.84 2200.17 1579.68 2205C1570.51 2209.67 1559.84 2212 1547.68 2212ZM1547.68 2097.25C1543.01 2097.25 1538.68 2098.08 1534.68 2099.75C1530.84 2101.42 1527.51 2103.75 1524.68 2106.75C1522.01 2109.75 1519.93 2113.33 1518.43 2117.5C1516.93 2121.67 1516.18 2126.25 1516.18 2131.25V2133H1576.68V2130.5C1576.68 2120.5 1574.09 2112.5 1568.93 2106.5C1563.76 2100.33 1556.68 2097.25 1547.68 2097.25ZM1694.68 2079H1721.93V2100.5H1723.18C1726.01 2092.67 1730.59 2086.67 1736.93 2082.5C1743.43 2078.17 1751.01 2076 1759.68 2076C1776.18 2076 1788.93 2082 1797.93 2094C1806.93 2105.83 1811.43 2122.5 1811.43 2144C1811.43 2165.5 1806.93 2182.25 1797.93 2194.25C1788.93 2206.08 1776.18 2212 1759.68 2212C1751.01 2212 1743.43 2209.83 1736.93 2205.5C1730.59 2201.17 1726.01 2195.17 1723.18 2187.5H1721.93V2259H1694.68V2079ZM1751.43 2188.5C1760.93 2188.5 1768.51 2185.5 1774.18 2179.5C1779.84 2173.33 1782.68 2165.25 1782.68 2155.25V2132.75C1782.68 2122.75 1779.84 2114.75 1774.18 2108.75C1768.51 2102.58 1760.93 2099.5 1751.43 2099.5C1743.09 2099.5 1736.09 2101.58 1730.43 2105.75C1724.76 2109.75 1721.93 2115.08 1721.93 2121.75V2166.25C1721.93 2172.92 1724.76 2178.33 1730.43 2182.5C1736.09 2186.5 1743.09 2188.5 1751.43 2188.5ZM1937.88 2209C1930.71 2209 1925.21 2207 1921.38 2203C1917.54 2198.83 1915.21 2193.58 1914.38 2187.25H1913.13C1910.63 2195.42 1906.04 2201.58 1899.38 2205.75C1892.71 2209.92 1884.63 2212 1875.13 2212C1861.63 2212 1851.21 2208.5 1843.88 2201.5C1836.71 2194.5 1833.13 2185.08 1833.13 2173.25C1833.13 2160.25 1837.79 2150.5 1847.13 2144C1856.63 2137.5 1870.46 2134.25 1888.63 2134.25H1912.13V2123.25C1912.13 2115.25 1909.96 2109.08 1905.63 2104.75C1901.29 2100.42 1894.54 2098.25 1885.38 2098.25C1877.71 2098.25 1871.46 2099.92 1866.63 2103.25C1861.79 2106.58 1857.71 2110.83 1854.38 2116L1838.13 2101.25C1842.46 2093.92 1848.54 2087.92 1856.38 2083.25C1864.21 2078.42 1874.46 2076 1887.13 2076C1903.96 2076 1916.88 2079.92 1925.88 2087.75C1934.88 2095.58 1939.38 2106.83 1939.38 2121.5V2186.75H1953.13V2209H1937.88ZM1882.88 2191.25C1891.38 2191.25 1898.38 2189.42 1903.88 2185.75C1909.38 2181.92 1912.13 2176.83 1912.13 2170.5V2151.75H1889.12C1870.29 2151.75 1860.88 2157.58 1860.88 2169.25V2173.75C1860.88 2179.58 1862.79 2184 1866.63 2187C1870.63 2189.83 1876.04 2191.25 1882.88 2191.25ZM2030.08 2212C2020.75 2212 2012.42 2210.42 2005.08 2207.25C1997.75 2204.08 1991.58 2199.58 1986.58 2193.75C1981.58 2187.75 1977.75 2180.58 1975.08 2172.25C1972.42 2163.75 1971.08 2154.33 1971.08 2144C1971.08 2133.67 1972.42 2124.33 1975.08 2116C1977.75 2107.5 1981.58 2100.33 1986.58 2094.5C1991.58 2088.5 1997.75 2083.92 2005.08 2080.75C2012.42 2077.58 2020.75 2076 2030.08 2076C2043.08 2076 2053.75 2078.92 2062.08 2084.75C2070.42 2090.58 2076.5 2098.33 2080.33 2108L2057.83 2118.5C2056 2112.5 2052.75 2107.75 2048.08 2104.25C2043.58 2100.58 2037.58 2098.75 2030.08 2098.75C2020.08 2098.75 2012.5 2101.92 2007.33 2108.25C2002.33 2114.42 1999.83 2122.5 1999.83 2132.5V2155.75C1999.83 2165.75 2002.33 2173.92 2007.33 2180.25C2012.5 2186.42 2020.08 2189.5 2030.08 2189.5C2038.08 2189.5 2044.42 2187.58 2049.08 2183.75C2053.92 2179.75 2057.75 2174.5 2060.58 2168L2081.33 2179C2077 2189.67 2070.5 2197.83 2061.83 2203.5C2053.17 2209.17 2042.58 2212 2030.08 2212ZM2107.27 2024H2134.52V2137.5H2135.77L2153.77 2114.25L2185.02 2079H2216.77L2171.27 2129.25L2222.27 2209H2189.77L2152.52 2147L2134.52 2166.5V2209H2107.27V2024ZM2338.51 2209C2331.34 2209 2325.84 2207 2322.01 2203C2318.18 2198.83 2315.84 2193.58 2315.01 2187.25H2313.76C2311.26 2195.42 2306.68 2201.58 2300.01 2205.75C2293.34 2209.92 2285.26 2212 2275.76 2212C2262.26 2212 2251.84 2208.5 2244.51 2201.5C2237.34 2194.5 2233.76 2185.08 2233.76 2173.25C2233.76 2160.25 2238.43 2150.5 2247.76 2144C2257.26 2137.5 2271.09 2134.25 2289.26 2134.25H2312.76V2123.25C2312.76 2115.25 2310.59 2109.08 2306.26 2104.75C2301.93 2100.42 2295.18 2098.25 2286.01 2098.25C2278.34 2098.25 2272.09 2099.92 2267.26 2103.25C2262.43 2106.58 2258.34 2110.83 2255.01 2116L2238.76 2101.25C2243.09 2093.92 2249.18 2087.92 2257.01 2083.25C2264.84 2078.42 2275.09 2076 2287.76 2076C2304.59 2076 2317.51 2079.92 2326.51 2087.75C2335.51 2095.58 2340.01 2106.83 2340.01 2121.5V2186.75H2353.76V2209H2338.51ZM2283.51 2191.25C2292.01 2191.25 2299.01 2189.42 2304.51 2185.75C2310.01 2181.92 2312.76 2176.83 2312.76 2170.5V2151.75H2289.76C2270.93 2151.75 2261.51 2157.58 2261.51 2169.25V2173.75C2261.51 2179.58 2263.43 2184 2267.26 2187C2271.26 2189.83 2276.68 2191.25 2283.51 2191.25ZM2494.47 2221.25C2494.47 2234.75 2489.3 2244.92 2478.97 2251.75C2468.63 2258.58 2451.8 2262 2428.47 2262C2417.8 2262 2408.72 2261.25 2401.22 2259.75C2393.88 2258.42 2387.8 2256.42 2382.97 2253.75C2378.3 2251.08 2374.88 2247.83 2372.72 2244C2370.55 2240.17 2369.47 2235.75 2369.47 2230.75C2369.47 2223.58 2371.38 2218 2375.22 2214C2379.22 2210 2384.72 2207.25 2391.72 2205.75V2203C2381.88 2199.83 2376.97 2193.17 2376.97 2183C2376.97 2176.33 2379.22 2171.25 2383.72 2167.75C2388.22 2164.08 2393.63 2161.5 2399.97 2160V2159C2392.3 2155.33 2386.38 2150.25 2382.22 2143.75C2378.22 2137.08 2376.22 2129.33 2376.22 2120.5C2376.22 2107.17 2380.63 2096.42 2389.47 2088.25C2398.47 2080.08 2411.3 2076 2427.97 2076C2437.13 2076 2444.97 2077.33 2451.47 2080V2076.5C2451.47 2070.67 2452.8 2066.17 2455.47 2063C2458.3 2059.67 2462.63 2058 2468.47 2058H2488.47V2080H2461.97V2085.25C2467.8 2089.08 2472.3 2094.08 2475.47 2100.25C2478.63 2106.25 2480.22 2113 2480.22 2120.5C2480.22 2133.67 2475.72 2144.33 2466.72 2152.5C2457.72 2160.5 2444.88 2164.5 2428.22 2164.5C2421.88 2164.5 2416.22 2163.83 2411.22 2162.5C2407.88 2163.67 2404.97 2165.33 2402.47 2167.5C2399.97 2169.5 2398.72 2172.17 2398.72 2175.5C2398.72 2179 2400.3 2181.5 2403.47 2183C2406.63 2184.5 2411.13 2185.25 2416.97 2185.25H2448.97C2464.97 2185.25 2476.55 2188.5 2483.72 2195C2490.88 2201.33 2494.47 2210.08 2494.47 2221.25ZM2468.97 2224.25C2468.97 2219.75 2467.22 2216.17 2463.72 2213.5C2460.38 2210.83 2454.22 2209.5 2445.22 2209.5H2401.22C2395.22 2213 2392.22 2218 2392.22 2224.5C2392.22 2229.83 2394.3 2234.08 2398.47 2237.25C2402.8 2240.58 2410.05 2242.25 2420.22 2242.25H2437.22C2458.38 2242.25 2468.97 2236.25 2468.97 2224.25ZM2428.22 2144.75C2436.22 2144.75 2442.38 2143 2446.72 2139.5C2451.22 2135.83 2453.47 2130.25 2453.47 2122.75V2117.75C2453.47 2110.25 2451.22 2104.75 2446.72 2101.25C2442.38 2097.58 2436.22 2095.75 2428.22 2095.75C2420.22 2095.75 2413.97 2097.58 2409.47 2101.25C2405.13 2104.75 2402.97 2110.25 2402.97 2117.75V2122.75C2402.97 2130.25 2405.13 2135.83 2409.47 2139.5C2413.97 2143 2420.22 2144.75 2428.22 2144.75ZM2564.28 2212C2554.95 2212 2546.61 2210.42 2539.28 2207.25C2531.95 2204.08 2525.7 2199.58 2520.53 2193.75C2515.36 2187.75 2511.36 2180.58 2508.53 2172.25C2505.86 2163.75 2504.53 2154.33 2504.53 2144C2504.53 2133.67 2505.86 2124.33 2508.53 2116C2511.36 2107.5 2515.36 2100.33 2520.53 2094.5C2525.7 2088.5 2531.95 2083.92 2539.28 2080.75C2546.61 2077.58 2554.95 2076 2564.28 2076C2573.78 2076 2582.11 2077.67 2589.28 2081C2596.61 2084.33 2602.7 2089 2607.53 2095C2612.36 2100.83 2615.95 2107.67 2618.28 2115.5C2620.78 2123.33 2622.03 2131.75 2622.03 2140.75V2151H2532.78V2155.25C2532.78 2165.25 2535.7 2173.5 2541.53 2180C2547.53 2186.33 2556.03 2189.5 2567.03 2189.5C2575.03 2189.5 2581.78 2187.75 2587.28 2184.25C2592.78 2180.75 2597.45 2176 2601.28 2170L2617.28 2185.75C2612.45 2193.75 2605.45 2200.17 2596.28 2205C2587.11 2209.67 2576.45 2212 2564.28 2212ZM2564.28 2097.25C2559.61 2097.25 2555.28 2098.08 2551.28 2099.75C2547.45 2101.42 2544.11 2103.75 2541.28 2106.75C2538.61 2109.75 2536.53 2113.33 2535.03 2117.5C2533.53 2121.67 2532.78 2126.25 2532.78 2131.25V2133H2593.28V2130.5C2593.28 2120.5 2590.7 2112.5 2585.53 2106.5C2580.36 2100.33 2573.28 2097.25 2564.28 2097.25Z" fill="#2D3847"/>
<path d="M997.919 1743V1429.72H1122.88C1155.15 1429.72 1180.23 1437.49 1198.12 1453.04C1216.31 1468.59 1225.4 1490 1225.4 1517.28C1225.4 1544.27 1216.31 1565.68 1198.12 1581.52C1179.93 1597.36 1154.85 1605.28 1122.88 1605.28H1034V1743H997.919ZM1034 1575.36H1119.8C1142.97 1575.36 1160.43 1570.37 1172.16 1560.4C1183.89 1550.13 1189.76 1535.76 1189.76 1517.28C1189.76 1498.8 1183.89 1484.57 1172.16 1474.6C1160.43 1464.63 1142.97 1459.64 1119.8 1459.64H1034V1575.36ZM1397.63 1746.52C1368.3 1746.52 1342.93 1740.07 1321.51 1727.16C1300.39 1714.25 1283.97 1695.77 1272.23 1671.72C1260.79 1647.67 1255.07 1619.21 1255.07 1586.36C1255.07 1553.21 1260.79 1524.76 1272.23 1501C1283.67 1476.95 1299.95 1458.47 1321.07 1445.56C1342.49 1432.65 1368.01 1426.2 1397.63 1426.2C1426.97 1426.2 1452.34 1432.65 1473.75 1445.56C1495.17 1458.47 1511.59 1476.95 1523.03 1501C1534.47 1524.76 1540.19 1553.07 1540.19 1585.92C1540.19 1619.07 1534.33 1647.67 1522.59 1671.72C1511.15 1695.77 1494.73 1714.25 1473.31 1727.16C1452.19 1740.07 1426.97 1746.52 1397.63 1746.52ZM1397.63 1715.72C1430.78 1715.72 1456.59 1704.57 1475.07 1682.28C1493.55 1659.69 1502.79 1627.57 1502.79 1585.92C1502.79 1544.27 1493.55 1512.44 1475.07 1490.44C1456.59 1468.15 1430.78 1457 1397.63 1457C1364.49 1457 1338.53 1468.15 1319.75 1490.44C1301.27 1512.73 1292.03 1544.56 1292.03 1585.92C1292.03 1627.28 1301.27 1659.25 1319.75 1681.84C1338.53 1704.43 1364.49 1715.72 1397.63 1715.72ZM1669.89 1743L1559.89 1429.72H1596.85L1692.77 1712.2H1678.69L1776.81 1429.72L1804.53 1430.16L1900.89 1712.2H1887.25L1984.05 1429.72H2019.69L1910.13 1743H1879.33L1785.17 1472.84H1794.85L1700.25 1743H1669.89ZM2058.51 1743V1429.72H2256.51V1459.64H2094.15V1568.76H2247.71V1599.12H2094.15V1713.08H2256.51V1743H2058.51ZM2302.18 1743V1429.72H2426.7C2460.43 1429.72 2486.24 1437.2 2504.14 1452.16C2522.32 1467.12 2531.42 1488.68 2531.42 1516.84C2531.42 1543.83 2522.18 1565.09 2503.7 1580.64C2485.51 1595.89 2459.84 1603.52 2426.7 1603.52L2459.26 1597.36C2470.7 1597.36 2480.52 1600.59 2488.74 1607.04C2496.95 1613.2 2503.55 1623.17 2508.54 1636.96L2548.14 1743H2509.86L2471.14 1638.72C2466.15 1625.52 2459.26 1616.87 2450.46 1612.76C2441.95 1608.36 2430.51 1606.16 2416.14 1606.16H2337.82V1743H2302.18ZM2337.82 1576.24H2423.62C2447.96 1576.24 2466 1571.25 2477.74 1561.28C2489.76 1551.31 2495.78 1536.64 2495.78 1517.28C2495.78 1497.92 2489.91 1483.55 2478.18 1474.16C2466.44 1464.48 2448.26 1459.64 2423.62 1459.64H2337.82V1576.24Z" fill="#2D3847"/>
<path d="M2693.46 1746.96C2669.4 1746.96 2646.82 1743.73 2625.7 1737.28C2604.87 1730.83 2587.12 1721.59 2572.46 1709.56L2591.82 1668.2C2607.07 1679.64 2622.91 1688.15 2639.34 1693.72C2656.06 1699 2674.24 1701.64 2693.9 1701.64C2715.6 1701.64 2732.32 1697.83 2744.06 1690.2C2756.08 1682.57 2762.1 1671.87 2762.1 1658.08C2762.1 1646.35 2756.52 1637.4 2745.38 1631.24C2734.52 1624.79 2716.48 1618.77 2691.26 1613.2C2651.95 1604.69 2623.35 1593.69 2605.46 1580.2C2587.56 1566.71 2578.62 1547.05 2578.62 1521.24C2578.62 1502.76 2583.6 1486.33 2593.58 1471.96C2603.55 1457.59 2617.63 1446.29 2635.82 1438.08C2654.3 1429.87 2675.56 1425.76 2699.62 1425.76C2721.62 1425.76 2742.44 1429.13 2762.1 1435.88C2782.04 1442.33 2798.32 1451.43 2810.94 1463.16L2792.02 1504.52C2764.15 1482.23 2733.35 1471.08 2699.62 1471.08C2679.38 1471.08 2663.39 1475.33 2651.66 1483.84C2639.92 1492.05 2634.06 1503.35 2634.06 1517.72C2634.06 1530.04 2639.19 1539.43 2649.46 1545.88C2660.02 1552.33 2677.91 1558.35 2703.14 1563.92C2729.24 1570.08 2750.51 1576.83 2766.94 1584.16C2783.36 1591.2 2795.98 1600.44 2804.78 1611.88C2813.58 1623.03 2817.98 1637.11 2817.98 1654.12C2817.98 1672.89 2812.99 1689.32 2803.02 1703.4C2793.04 1717.19 2778.67 1727.89 2759.9 1735.52C2741.12 1743.15 2718.98 1746.96 2693.46 1746.96ZM2855.58 1429.72H3065.02V1474.6H2911.02V1561.28H3055.78V1606.16H2911.02V1698.12H3065.02V1743H2855.58V1429.72ZM3102.26 1429.72H3159.02V1696.36H3305.54V1743H3102.26V1429.72ZM3333.47 1429.72H3390.23V1696.36H3536.75V1743H3333.47V1429.72Z" fill="#0167FA"/>
<path d="M485.334 1198.12C427.094 1231.05 370.986 1266.58 312.056 1298.98C296.485 1307.53 280.788 1316.01 265.483 1325.01C244.392 1337.46 222.188 1351.67 209.658 1373.46C197.113 1395.18 195.843 1421.56 195.545 1446.05C194.808 1529.81 194.808 1616.07 195.608 1699.92C195.843 1724.41 197.176 1750.77 209.721 1772.49C220.133 1790.52 272.446 1825 329.996 1859.44L289.193 1941.28L359.32 1842.05L523.768 1609.34L262.629 1616.04L666.812 1221.81C652.835 1213.86 638.905 1205.96 625.022 1198.12C603.758 1186.07 580.283 1174 555.209 1174C530.119 1174 506.597 1186.09 485.334 1198.13" fill="#0167FA"/>
<path d="M666.812 1269.11L568.02 1474.4L867.28 1475.44L365.137 1880.12C413.592 1908.18 460.651 1933.93 485.334 1947.87C506.66 1959.91 530.119 1972 555.209 1972C580.299 1972 603.821 1959.91 625.084 1947.87C698.002 1906.69 772.707 1863.56 844.919 1820.94C866.01 1808.49 888.215 1794.29 900.744 1772.49C913.289 1750.77 914.559 1724.39 914.857 1699.92C915.657 1616.12 915.657 1530.1 914.857 1446.07C914.622 1421.57 913.289 1395.21 900.744 1373.48C888.199 1351.76 865.994 1337.41 844.919 1325.03C796.589 1296.5 747.131 1267.74 697.861 1239.5L709.653 1180.07L666.812 1269.11Z" fill="#0167FA"/>
</svg>
