<svg width="3868" height="926" viewBox="0 0 3868 926" fill="none" xmlns="http://www.w3.org/2000/svg">
<rect width="3868" height="926" fill="white"/>
<path d="M1038.9 781V676.3H1104.3V691.3H1055.85V720.4H1098.9V735.4H1055.85V781H1038.9ZM1119.58 781V703H1135.93V718H1136.68C1137.78 714 1140.08 710.5 1143.58 707.5C1147.08 704.5 1151.93 703 1158.13 703H1162.48V718.75H1156.03C1149.53 718.75 1144.53 719.8 1141.03 721.9C1137.63 724 1135.93 727.1 1135.93 731.2V781H1119.58ZM1206.87 782.8C1201.27 782.8 1196.27 781.85 1191.87 779.95C1187.47 778.05 1183.72 775.35 1180.62 771.85C1177.52 768.25 1175.12 763.95 1173.42 758.95C1171.82 753.85 1171.02 748.2 1171.02 742C1171.02 735.8 1171.82 730.2 1173.42 725.2C1175.12 720.1 1177.52 715.8 1180.62 712.3C1183.72 708.7 1187.47 705.95 1191.87 704.05C1196.27 702.15 1201.27 701.2 1206.87 701.2C1212.57 701.2 1217.57 702.2 1221.87 704.2C1226.27 706.2 1229.92 709 1232.82 712.6C1235.72 716.1 1237.87 720.2 1239.27 724.9C1240.77 729.6 1241.52 734.65 1241.52 740.05V746.2H1187.97V748.75C1187.97 754.75 1189.72 759.7 1193.22 763.6C1196.82 767.4 1201.92 769.3 1208.52 769.3C1213.32 769.3 1217.37 768.25 1220.67 766.15C1223.97 764.05 1226.77 761.2 1229.07 757.6L1238.67 767.05C1235.77 771.85 1231.57 775.7 1226.07 778.6C1220.57 781.4 1214.17 782.8 1206.87 782.8ZM1206.87 713.95C1204.07 713.95 1201.47 714.45 1199.07 715.45C1196.77 716.45 1194.77 717.85 1193.07 719.65C1191.47 721.45 1190.22 723.6 1189.32 726.1C1188.42 728.6 1187.97 731.35 1187.97 734.35V735.4H1224.27V733.9C1224.27 727.9 1222.72 723.1 1219.62 719.5C1216.52 715.8 1212.27 713.95 1206.87 713.95ZM1290.22 782.8C1284.62 782.8 1279.62 781.85 1275.22 779.95C1270.82 778.05 1267.07 775.35 1263.97 771.85C1260.87 768.25 1258.47 763.95 1256.77 758.95C1255.17 753.85 1254.37 748.2 1254.37 742C1254.37 735.8 1255.17 730.2 1256.77 725.2C1258.47 720.1 1260.87 715.8 1263.97 712.3C1267.07 708.7 1270.82 705.95 1275.22 704.05C1279.62 702.15 1284.62 701.2 1290.22 701.2C1295.92 701.2 1300.92 702.2 1305.22 704.2C1309.62 706.2 1313.27 709 1316.17 712.6C1319.07 716.1 1321.22 720.2 1322.62 724.9C1324.12 729.6 1324.87 734.65 1324.87 740.05V746.2H1271.32V748.75C1271.32 754.75 1273.07 759.7 1276.57 763.6C1280.17 767.4 1285.27 769.3 1291.87 769.3C1296.67 769.3 1300.72 768.25 1304.02 766.15C1307.32 764.05 1310.12 761.2 1312.42 757.6L1322.02 767.05C1319.12 771.85 1314.92 775.7 1309.42 778.6C1303.92 781.4 1297.52 782.8 1290.22 782.8ZM1290.22 713.95C1287.42 713.95 1284.82 714.45 1282.42 715.45C1280.12 716.45 1278.12 717.85 1276.42 719.65C1274.82 721.45 1273.57 723.6 1272.67 726.1C1271.77 728.6 1271.32 731.35 1271.32 734.35V735.4H1307.62V733.9C1307.62 727.9 1306.07 723.1 1302.97 719.5C1299.87 715.8 1295.62 713.95 1290.22 713.95Z" fill="#2D3847"/>
<path d="M1040.68 301.587H1165.64C1197.91 301.587 1222.99 309.361 1240.88 324.907C1259.07 340.454 1268.16 361.867 1268.16 389.147C1268.16 416.427 1259.07 437.987 1240.88 453.827C1222.69 469.374 1197.61 477.147 1165.64 477.147H1076.76V614.867H1040.68V301.587ZM1162.56 447.227C1185.73 447.227 1203.19 442.241 1214.92 432.267C1226.65 422.294 1232.52 407.921 1232.52 389.147C1232.52 370.374 1226.65 356.147 1214.92 346.467C1203.19 336.494 1185.73 331.507 1162.56 331.507H1076.76V447.227H1162.56ZM1440.39 618.387C1411.35 618.387 1386.13 611.934 1364.71 599.027C1343.3 586.121 1326.73 567.641 1314.99 543.587C1303.55 519.241 1297.83 490.787 1297.83 458.227C1297.83 425.374 1303.55 396.921 1314.99 372.867C1326.43 348.814 1342.86 330.334 1364.27 317.427C1385.69 304.521 1411.06 298.067 1440.39 298.067C1469.73 298.067 1495.1 304.521 1516.51 317.427C1537.93 330.334 1554.35 348.814 1565.79 372.867C1577.23 396.921 1582.95 425.227 1582.95 457.787C1582.95 490.641 1577.09 519.094 1565.35 543.147C1553.91 567.201 1537.49 585.827 1516.07 599.027C1494.66 611.934 1469.43 618.387 1440.39 618.387ZM1440.39 587.587C1473.54 587.587 1499.35 576.294 1517.83 553.707C1536.31 531.121 1545.55 499.147 1545.55 457.787C1545.55 416.427 1536.31 384.601 1517.83 362.307C1499.65 340.014 1473.83 328.867 1440.39 328.867C1406.95 328.867 1380.99 340.161 1362.51 362.747C1344.03 385.041 1334.79 416.721 1334.79 457.787C1334.79 499.147 1344.03 531.121 1362.51 553.707C1380.99 576.294 1406.95 587.587 1440.39 587.587ZM2062.88 301.587L1953.32 614.867H1922.52L1833.2 358.347L1743.44 614.867H1713.08L1603.08 301.587H1640.04L1728.92 563.387L1820 301.587L1847.72 302.027L1937.48 564.267L2027.24 301.587H2062.88ZM2101.7 301.587H2299.7V331.507H2137.34V440.627H2290.9V470.987H2137.34V584.947H2299.7V614.867H2101.7V301.587ZM2591.33 614.867H2553.05L2514.33 510.587C2509.63 497.681 2503.03 489.027 2494.53 484.627C2486.31 480.227 2474.58 478.027 2459.33 478.027H2381.01V614.867H2345.37V301.587H2469.89C2503.62 301.587 2529.43 309.067 2547.33 324.027C2565.51 338.987 2574.61 360.547 2574.61 388.707C2574.61 409.241 2569.18 426.547 2558.33 440.627C2547.77 454.414 2532.37 464.241 2512.13 470.107C2521.22 471.574 2528.99 475.534 2535.45 481.987C2541.9 488.147 2547.33 497.094 2551.73 508.827L2591.33 614.867ZM2466.81 448.107C2514.91 448.107 2538.97 428.454 2538.97 389.147C2538.97 369.787 2533.1 355.414 2521.37 346.027C2509.63 336.347 2491.45 331.507 2466.81 331.507H2381.01V448.107H2466.81Z" fill="#2D3847"/>
<path d="M2736.65 618.827C2712.59 618.827 2690.01 615.601 2668.89 609.147C2648.06 602.694 2630.31 593.454 2615.65 581.427L2635.01 540.067C2650.26 551.507 2666.1 560.014 2682.53 565.587C2699.25 570.867 2717.43 573.507 2737.09 573.507C2758.79 573.507 2775.51 569.694 2787.25 562.067C2799.27 554.441 2805.29 543.734 2805.29 529.947C2805.29 518.214 2799.71 509.267 2788.57 503.107C2777.71 496.654 2759.67 490.641 2734.45 485.067C2695.14 476.561 2666.54 465.561 2648.65 452.067C2630.75 438.574 2621.81 418.921 2621.81 393.107C2621.81 374.627 2626.79 358.201 2636.77 343.827C2646.74 329.454 2660.82 318.161 2679.01 309.947C2697.49 301.734 2718.75 297.627 2742.81 297.627C2764.81 297.627 2785.63 301.001 2805.29 307.747C2825.23 314.201 2841.51 323.294 2854.13 335.027L2835.21 376.387C2807.34 354.094 2776.54 342.947 2742.81 342.947C2722.57 342.947 2706.58 347.201 2694.85 355.707C2683.11 363.921 2677.25 375.214 2677.25 389.587C2677.25 401.907 2682.38 411.294 2692.65 417.747C2703.21 424.201 2721.1 430.214 2746.33 435.787C2772.43 441.947 2793.7 448.694 2810.13 456.027C2826.55 463.067 2839.17 472.307 2847.97 483.747C2856.77 494.894 2861.17 508.974 2861.17 525.987C2861.17 544.761 2856.18 561.187 2846.21 575.267C2836.23 589.054 2821.86 599.761 2803.09 607.387C2784.31 615.014 2762.17 618.827 2736.65 618.827ZM2898.77 301.587H3108.21V346.467H2954.21V433.147H3098.97V478.027H2954.21V569.987H3108.21V614.867H2898.77V301.587ZM3145.45 301.587H3202.21V568.227H3348.73V614.867H3145.45V301.587ZM3376.66 301.587H3433.42V568.227H3579.94V614.867H3376.66V301.587Z" fill="#0167FA"/>
<path d="M323.914 26.9072C258.938 63.6465 196.341 103.29 130.595 139.435C113.223 148.969 95.7106 158.434 78.6356 168.476C55.1049 182.367 30.3321 198.217 16.3536 222.535C2.35771 246.766 0.94062 276.192 0.608216 303.519C-0.214045 396.96 -0.214045 493.199 0.678196 586.745C0.94062 614.072 2.42769 643.481 16.4236 667.711C28.0403 687.83 86.4033 726.302 150.61 764.721L105.088 856.026L183.325 745.319L366.794 485.694L75.4515 493.164L526.383 53.342C510.789 44.4663 495.248 35.6547 479.759 26.9072C456.036 13.4711 429.846 0 401.872 0C373.88 0 347.637 13.4886 323.914 26.9247" fill="#0167FA"/>
<path d="M526.383 106.107L416.165 335.15L750.038 336.305L189.816 787.796C243.875 819.095 296.377 847.821 323.914 863.374C347.708 876.81 373.88 890.299 401.872 890.299C429.864 890.299 456.106 876.81 479.829 863.374C561.181 817.433 644.526 769.322 725.091 721.77C748.621 707.879 773.394 692.029 787.372 667.711C801.368 643.481 802.785 614.054 803.118 586.745C804.01 493.252 804.01 397.292 803.118 303.537C802.855 276.21 801.368 246.801 787.372 222.553C773.376 198.322 748.604 182.314 725.091 168.493C671.171 136.67 615.992 104.585 561.023 73.0762L574.179 6.77045L526.383 106.107Z" fill="#0167FA"/>
</svg>
