<svg width="124" height="96" viewBox="0 0 124 96" fill="none" xmlns="http://www.w3.org/2000/svg">
<path d="M82.8508 93.0342H41.1689C38.8954 93.0342 37.0406 91.1794 37.0406 88.9059V42.0187C37.0406 39.7451 38.8954 37.8904 41.1689 37.8904H82.8508C85.1244 37.8904 86.9792 39.7451 86.9792 42.0187V88.9059C86.9592 91.1794 85.1244 93.0342 82.8508 93.0342Z" stroke="url(#paint0_linear)" stroke-width="4" stroke-miterlimit="10"/>
<path d="M52.9359 11.2262L61.1726 2.9895L69.4093 11.2262" fill="white"/>
<path d="M113.763 57.2158L122 65.4525L113.763 73.6892" fill="white"/>
<path d="M11.4931 36.1945V24.5275H23.16" fill="white"/>
<path d="M10.2367 57.2158L2 65.4525L10.2367 73.6892" fill="white"/>
<path d="M110.832 36.1964V24.5294H99.1848" fill="white"/>
<path d="M61.1723 27.0607V4.2453M52.9359 11.2262L61.1726 2.9895L69.4093 11.2262M100.721 65.4522H121.222M113.763 57.2158L122 65.4525L113.763 73.6892M28.5446 41.481L14.2251 27.1616M11.4931 36.1945V24.5275H23.16M23.2798 65.4522H2.7779M10.2367 57.2158L2 65.4525L10.2367 73.6892M93.7998 41.4812L108.119 27.1618M110.832 36.1964V24.5294H99.1848" stroke="url(#paint1_linear)" stroke-width="4" stroke-miterlimit="22.9256" stroke-linecap="round" stroke-linejoin="round"/>
<mask id="path-4-inside-1" fill="white">
<path d="M68.8506 55.8399C66.238 55.8399 65.4602 56.9966 65.4602 59.5693V63.8173H72.4603L71.7623 70.6978H65.4602V91.5786H57.0639V70.6978H51.4V63.8173H57.0639V59.669C57.0639 52.7287 59.856 49.0591 67.6739 49.0591C69.3691 49.0591 71.3435 49.1787 72.58 49.3582V55.8399"/>
</mask>
<path d="M68.8506 55.8399C66.238 55.8399 65.4602 56.9966 65.4602 59.5693V63.8173H72.4603L71.7623 70.6978H65.4602V91.5786H57.0639V70.6978H51.4V63.8173H57.0639V59.669C57.0639 52.7287 59.856 49.0591 67.6739 49.0591C69.3691 49.0591 71.3435 49.1787 72.58 49.3582V55.8399" fill="url(#paint2_linear)"/>
<path d="M65.4602 63.8173H64.4602V64.8173H65.4602V63.8173ZM72.4603 63.8173L73.4552 63.9182L73.5669 62.8173H72.4603V63.8173ZM71.7623 70.6978V71.6978H72.666L72.7572 70.7987L71.7623 70.6978ZM65.4602 70.6978V69.6978H64.4602V70.6978H65.4602ZM65.4602 91.5786V92.5786H66.4602V91.5786H65.4602ZM57.0639 91.5786H56.0639V92.5786H57.0639V91.5786ZM57.0639 70.6978H58.0639V69.6978H57.0639V70.6978ZM51.4 70.6978H50.4V71.6978H51.4V70.6978ZM51.4 63.8173V62.8173H50.4V63.8173H51.4ZM57.0639 63.8173V64.8173H58.0639V63.8173H57.0639ZM72.58 49.3582H73.58V48.4929L72.7236 48.3686L72.58 49.3582ZM68.8506 54.8399C67.426 54.8399 66.2156 55.1521 65.4148 56.0908C64.6496 56.9879 64.4602 58.2351 64.4602 59.5693H66.4602C66.4602 58.3308 66.6596 57.7133 66.9364 57.3888C67.1777 57.106 67.6625 56.8399 68.8506 56.8399V54.8399ZM64.4602 59.5693V63.8173H66.4602V59.5693H64.4602ZM65.4602 64.8173H72.4603V62.8173H65.4602V64.8173ZM71.4654 63.7163L70.7674 70.5969L72.7572 70.7987L73.4552 63.9182L71.4654 63.7163ZM71.7623 69.6978H65.4602V71.6978H71.7623V69.6978ZM64.4602 70.6978V91.5786H66.4602V70.6978H64.4602ZM65.4602 90.5786H57.0639V92.5786H65.4602V90.5786ZM58.0639 91.5786V70.6978H56.0639V91.5786H58.0639ZM57.0639 69.6978H51.4V71.6978H57.0639V69.6978ZM52.4 70.6978V63.8173H50.4V70.6978H52.4ZM51.4 64.8173H57.0639V62.8173H51.4V64.8173ZM58.0639 63.8173V59.669H56.0639V63.8173H58.0639ZM58.0639 59.669C58.0639 56.3028 58.7461 53.959 60.1664 52.4458C61.5744 50.9456 63.9012 50.0591 67.6739 50.0591V48.0591C63.6288 48.0591 60.6505 49.0074 58.7081 51.0771C56.7778 53.1337 56.0639 56.0949 56.0639 59.669H58.0639ZM67.6739 50.0591C69.3373 50.0591 71.2612 50.1773 72.4363 50.3479L72.7236 48.3686C71.4258 48.1802 69.4009 48.0591 67.6739 48.0591V50.0591ZM71.58 49.3582V55.8399H73.58V49.3582H71.58Z" fill="url(#paint3_linear)" mask="url(#path-4-inside-1)"/>
<defs>
<linearGradient id="paint0_linear" x1="125.994" y1="164.327" x2="64.3731" y2="180.766" gradientUnits="userSpaceOnUse">
<stop stop-color="#33B2FA"/>
<stop offset="0.940675" stop-color="#3B76EF"/>
</linearGradient>
<linearGradient id="paint1_linear" x1="215.75" y1="165.094" x2="88.8614" y2="228.536" gradientUnits="userSpaceOnUse">
<stop stop-color="#33B2FA"/>
<stop offset="0.940675" stop-color="#3B76EF"/>
</linearGradient>
<linearGradient id="paint2_linear" x1="89.1269" y1="146.55" x2="61.7225" y2="150.572" gradientUnits="userSpaceOnUse">
<stop stop-color="#33B2FA"/>
<stop offset="0.940675" stop-color="#3B76EF"/>
</linearGradient>
<linearGradient id="paint3_linear" x1="89.1269" y1="146.55" x2="61.7225" y2="150.572" gradientUnits="userSpaceOnUse">
<stop stop-color="#33B2FA"/>
<stop offset="0.940675" stop-color="#3B76EF"/>
</linearGradient>
</defs>
</svg>
