<?xml version="1.0" encoding="utf-8"?>
<!-- Generator: Adobe Illustrator 24.1.0, SVG Export Plug-In . SVG Version: 6.00 Build 0)  -->
<svg version="1.1" id="Layer_1" xmlns="http://www.w3.org/2000/svg" xmlns:xlink="http://www.w3.org/1999/xlink" x="0px" y="0px"
	 viewBox="0 0 12 12" style="enable-background:new 0 0 12 12;" xml:space="preserve">
<style type="text/css">
	.st0{fill:none;stroke:#8392A5;stroke-linecap:round;stroke-linejoin:round;}
</style>
<path class="st0" d="M8.2,4.7L3.8,2.1"/>
<path class="st0" d="M10.5,8V4c0-0.2,0-0.3-0.1-0.5c-0.1-0.2-0.2-0.3-0.4-0.4l-3.5-2C6.3,1,6.2,1,6,1S5.7,1,5.5,1.1L2,3.1
	C1.8,3.2,1.7,3.3,1.6,3.5C1.5,3.7,1.5,3.8,1.5,4v4c0,0.2,0,0.3,0.1,0.5C1.7,8.7,1.8,8.8,2,8.9l3.5,2C5.7,11,5.8,11,6,11
	s0.3,0,0.5-0.1l3.5-2c0.2-0.1,0.3-0.2,0.4-0.4C10.5,8.3,10.5,8.2,10.5,8z"/>
<path class="st0" d="M1.6,3.5L6,6l4.4-2.5"/>
<path class="st0" d="M6,11V6"/>
</svg>
