<?xml version="1.0" encoding="utf-8"?>
<!-- Generator: Adobe Illustrator 24.1.0, SVG Export Plug-In . SVG Version: 6.00 Build 0)  -->
<svg version="1.1" id="Layer_1" xmlns="http://www.w3.org/2000/svg" xmlns:xlink="http://www.w3.org/1999/xlink" x="0px" y="0px"
	 viewBox="0 0 24 24" style="enable-background:new 0 0 24 24;" xml:space="preserve">
<style type="text/css">
	.st0{fill:#FFFFFF;stroke:#E0E3EB;}
	.st1{fill:none;stroke:#CCCCCC;stroke-linecap:round;stroke-linejoin:round;}
</style>
<path class="st0" d="M2,0.5h20c0.8,0,1.5,0.7,1.5,1.5v20c0,0.8-0.7,1.5-1.5,1.5H2c-0.8,0-1.5-0.7-1.5-1.5V2C0.5,1.2,1.2,0.5,2,0.5z"
	/>
<g>
	<path class="st1" d="M10.7,12.7c0.3,0.4,0.7,0.7,1.1,0.9c0.4,0.2,0.9,0.4,1.4,0.4s1,0,1.4-0.2s0.9-0.4,1.2-0.8l2-2
		c0.6-0.6,0.9-1.5,0.9-2.3c0-0.9-0.4-1.7-1-2.3s-1.5-1-2.3-1c-0.9,0-1.7,0.3-2.3,0.9L12,7.4"/>
	<path class="st1" d="M13.3,11.3c-0.3-0.4-0.7-0.7-1.1-0.9c-0.4-0.2-0.9-0.4-1.4-0.4s-1,0-1.4,0.2S8.5,10.6,8.2,11l-2,2
		c-0.6,0.6-0.9,1.5-0.9,2.3c0,0.9,0.4,1.7,1,2.3c0.6,0.6,1.5,1,2.3,1c0.9,0,1.7-0.3,2.3-0.9l1.1-1.1"/>
</g>
</svg>
