<svg width="98" height="98" viewBox="0 0 98 98" fill="none" xmlns="http://www.w3.org/2000/svg">
<mask id="path-1-inside-1" fill="white">
<path fill-rule="evenodd" clip-rule="evenodd" d="M54.5165 10.7521H48.8701C47.8966 4.66358 42.5748 0 36.2145 0C29.8543 0 24.5973 4.66358 23.6238 10.7521H17.9125C16.8741 10.7521 15.9655 11.5942 15.9655 12.6953V15.6096H5.25695C2.40132 15.6096 0.0649006 18.0062 0 20.7914V20.8561V92.8178V92.8826C0.0649006 95.6678 2.46622 97.9995 5.25695 97.9995H67.2371C70.0927 97.9995 72.494 95.603 72.494 92.753V59.6555L89.2058 42.9768L91.8993 45.665L77.037 60.433C76.2582 61.2102 76.2582 62.3761 77.037 63.1534C77.4264 63.542 77.8807 63.7363 78.3999 63.7363C78.9191 63.7363 79.4383 63.6068 79.7628 63.1534L95.988 47.0252C96.3774 46.7013 96.5721 46.1831 96.5721 45.665C96.5721 45.1468 96.3774 44.6934 95.988 44.3047L91.9316 40.2564L97.4159 34.7831C97.8053 34.4592 98 33.941 98 33.4228C98 32.9047 97.7404 32.3865 97.351 31.9979L88.9788 23.6423C88.2 22.865 87.0318 22.865 86.253 23.6423L79.7162 30.1661C79.5959 30.2437 79.481 30.3362 79.3734 30.4435C79.2487 30.5577 79.1439 30.6851 79.0591 30.8219L72.494 37.374V20.8561C72.494 18.0062 70.0927 15.6096 67.237 15.6096H56.4635V12.6953C56.4635 11.5942 55.6198 10.7521 54.5165 10.7521ZM5.25695 19.4959H15.9655V22.5406C15.9655 23.577 16.8092 24.4838 17.9125 24.4838H54.5165C55.5549 24.4838 56.4635 23.6418 56.4635 22.5406V19.4964V19.4959H67.237C67.9509 19.4959 68.5999 20.1437 68.5999 20.8561V41.2603L42.8344 66.9747C40.5629 69.3065 39.1351 71.7678 38.7457 74.2292C38.4878 75.8166 38.7139 77.3471 39.3298 78.6326L35.7603 82.195C34.9815 82.9075 34.9815 84.1382 35.7603 84.9154C36.1497 85.304 36.604 85.4984 37.1232 85.4984C37.6424 85.4984 38.0967 85.304 38.4861 84.9154L41.9789 81.4296C42.9975 81.9775 44.1856 82.2609 45.4305 82.2609C45.8848 82.2609 46.2742 82.2609 46.7285 82.1961C49.1947 81.8075 51.7258 80.3825 53.9973 78.1155L68.6 63.5418V92.753C68.6 93.4655 67.951 94.1132 67.2371 94.1132H5.25695C4.54305 94.1132 3.89404 93.4655 3.89404 92.753V20.8561C3.89404 20.1437 4.54305 19.4959 5.25695 19.4959ZM52.5695 20.5975H19.8596V14.5737H25.3761C26.4145 14.5737 27.3231 13.7317 27.3231 12.6305C27.3231 7.77263 31.347 3.82155 36.2145 3.82155C41.0821 3.82155 45.1059 7.77263 45.1059 12.6305C45.1059 13.6669 45.9496 14.5737 47.0529 14.5737H52.5695V20.5975ZM43.409 77.834C43.3372 77.7276 43.2539 77.6261 43.159 77.5314C43.1133 77.4858 43.0663 77.4429 43.0181 77.4027C42.5708 76.7585 42.41 75.8641 42.5748 74.8769C42.7695 73.711 43.4834 71.8974 45.6252 69.7599L80.8336 34.6213L86.4475 40.224L51.2066 75.3951C47.9866 78.6717 44.8895 79.0672 43.409 77.834ZM93.2622 33.4228L89.1734 37.5036L83.5595 31.9008L87.6808 27.7877L93.2622 33.4228ZM17.9774 69.1771C17.3933 69.1771 16.8092 68.918 16.4198 68.3998L12.5258 63.3476C11.8768 62.5056 12.0066 61.2749 12.9152 60.6272C13.7589 59.9795 14.9271 60.1738 15.5761 61.0158L17.9774 64.1249L20.898 60.3033C21.547 59.4613 22.7801 59.267 23.6238 59.9147C24.4675 60.5624 24.6622 61.7931 24.0132 62.6351L19.535 68.4646C19.1456 68.918 18.5615 69.1771 17.9774 69.1771ZM17.9774 56.2227C17.3933 56.2227 16.8092 55.9636 16.4198 55.4454L12.5258 50.3932C11.8768 49.5512 12.0066 48.3205 12.9152 47.6728C13.7589 47.0251 14.9271 47.2194 15.5761 48.0614L17.9125 51.1057L20.898 47.2842C21.547 46.4421 22.7801 46.2478 23.6238 46.8955C24.4675 47.5432 24.6622 48.7739 24.0132 49.6159L19.535 55.4454C19.1456 55.9636 18.5615 56.2227 17.9774 56.2227ZM17.9774 43.2683C17.3933 43.2683 16.8092 43.0092 16.4198 42.491L12.5258 37.4388C11.8768 36.5968 12.0066 35.3661 12.9152 34.7184C13.7589 34.0707 14.9271 34.2002 15.5761 35.0423L17.9125 38.1513L20.898 34.3298C21.547 33.4877 22.7801 33.2934 23.6238 34.0059C24.4675 34.6536 24.6622 35.8843 24.0132 36.7263L19.535 42.5558C19.1456 42.9444 18.5615 43.2683 17.9774 43.2683ZM29.6595 40.0294H55.2304C56.2688 40.0294 57.1774 39.1873 57.1774 38.0862C57.1774 36.9851 56.2688 36.1431 55.2304 36.1431H29.6595C28.5562 36.1431 27.7125 36.9851 27.7125 38.0862C27.7125 39.1873 28.6211 40.0294 29.6595 40.0294ZM48.5456 52.9837H29.6595C28.6211 52.9837 27.7125 52.1417 27.7125 51.0406C27.7125 49.9394 28.5562 49.0974 29.6595 49.0974H48.5456C49.584 49.0974 50.4927 49.9394 50.4927 51.0406C50.4927 52.1417 49.6489 52.9837 48.5456 52.9837ZM29.6595 66.003H39.5244C40.5629 66.003 41.4715 65.161 41.4715 64.0599C41.4715 62.9587 40.5629 62.1167 39.5244 62.1167H29.6595C28.5562 62.1167 27.7125 62.9587 27.7125 64.0599C27.7125 65.161 28.6211 66.003 29.6595 66.003ZM30.5681 12.6964C30.5681 9.58739 33.0993 7.06128 36.2145 7.06128C39.3297 7.06128 41.8609 9.58739 41.8609 12.6964C41.8609 15.8055 39.3297 18.3316 36.2145 18.3316C33.0993 18.3316 30.5681 15.8055 30.5681 12.6964ZM34.3973 12.6964C34.3973 13.7328 35.241 14.5101 36.2145 14.5101C37.2529 14.5101 38.0317 13.7328 38.0317 12.6964C38.0317 11.6601 37.2529 10.8828 36.2145 10.8828C35.1761 10.8828 34.3973 11.6601 34.3973 12.6964Z"/>
</mask>
<path fill-rule="evenodd" clip-rule="evenodd" d="M54.5165 10.7521H48.8701C47.8966 4.66358 42.5748 0 36.2145 0C29.8543 0 24.5973 4.66358 23.6238 10.7521H17.9125C16.8741 10.7521 15.9655 11.5942 15.9655 12.6953V15.6096H5.25695C2.40132 15.6096 0.0649006 18.0062 0 20.7914V20.8561V92.8178V92.8826C0.0649006 95.6678 2.46622 97.9995 5.25695 97.9995H67.2371C70.0927 97.9995 72.494 95.603 72.494 92.753V59.6555L89.2058 42.9768L91.8993 45.665L77.037 60.433C76.2582 61.2102 76.2582 62.3761 77.037 63.1534C77.4264 63.542 77.8807 63.7363 78.3999 63.7363C78.9191 63.7363 79.4383 63.6068 79.7628 63.1534L95.988 47.0252C96.3774 46.7013 96.5721 46.1831 96.5721 45.665C96.5721 45.1468 96.3774 44.6934 95.988 44.3047L91.9316 40.2564L97.4159 34.7831C97.8053 34.4592 98 33.941 98 33.4228C98 32.9047 97.7404 32.3865 97.351 31.9979L88.9788 23.6423C88.2 22.865 87.0318 22.865 86.253 23.6423L79.7162 30.1661C79.5959 30.2437 79.481 30.3362 79.3734 30.4435C79.2487 30.5577 79.1439 30.6851 79.0591 30.8219L72.494 37.374V20.8561C72.494 18.0062 70.0927 15.6096 67.237 15.6096H56.4635V12.6953C56.4635 11.5942 55.6198 10.7521 54.5165 10.7521ZM5.25695 19.4959H15.9655V22.5406C15.9655 23.577 16.8092 24.4838 17.9125 24.4838H54.5165C55.5549 24.4838 56.4635 23.6418 56.4635 22.5406V19.4964V19.4959H67.237C67.9509 19.4959 68.5999 20.1437 68.5999 20.8561V41.2603L42.8344 66.9747C40.5629 69.3065 39.1351 71.7678 38.7457 74.2292C38.4878 75.8166 38.7139 77.3471 39.3298 78.6326L35.7603 82.195C34.9815 82.9075 34.9815 84.1382 35.7603 84.9154C36.1497 85.304 36.604 85.4984 37.1232 85.4984C37.6424 85.4984 38.0967 85.304 38.4861 84.9154L41.9789 81.4296C42.9975 81.9775 44.1856 82.2609 45.4305 82.2609C45.8848 82.2609 46.2742 82.2609 46.7285 82.1961C49.1947 81.8075 51.7258 80.3825 53.9973 78.1155L68.6 63.5418V92.753C68.6 93.4655 67.951 94.1132 67.2371 94.1132H5.25695C4.54305 94.1132 3.89404 93.4655 3.89404 92.753V20.8561C3.89404 20.1437 4.54305 19.4959 5.25695 19.4959ZM52.5695 20.5975H19.8596V14.5737H25.3761C26.4145 14.5737 27.3231 13.7317 27.3231 12.6305C27.3231 7.77263 31.347 3.82155 36.2145 3.82155C41.0821 3.82155 45.1059 7.77263 45.1059 12.6305C45.1059 13.6669 45.9496 14.5737 47.0529 14.5737H52.5695V20.5975ZM43.409 77.834C43.3372 77.7276 43.2539 77.6261 43.159 77.5314C43.1133 77.4858 43.0663 77.4429 43.0181 77.4027C42.5708 76.7585 42.41 75.8641 42.5748 74.8769C42.7695 73.711 43.4834 71.8974 45.6252 69.7599L80.8336 34.6213L86.4475 40.224L51.2066 75.3951C47.9866 78.6717 44.8895 79.0672 43.409 77.834ZM93.2622 33.4228L89.1734 37.5036L83.5595 31.9008L87.6808 27.7877L93.2622 33.4228ZM17.9774 69.1771C17.3933 69.1771 16.8092 68.918 16.4198 68.3998L12.5258 63.3476C11.8768 62.5056 12.0066 61.2749 12.9152 60.6272C13.7589 59.9795 14.9271 60.1738 15.5761 61.0158L17.9774 64.1249L20.898 60.3033C21.547 59.4613 22.7801 59.267 23.6238 59.9147C24.4675 60.5624 24.6622 61.7931 24.0132 62.6351L19.535 68.4646C19.1456 68.918 18.5615 69.1771 17.9774 69.1771ZM17.9774 56.2227C17.3933 56.2227 16.8092 55.9636 16.4198 55.4454L12.5258 50.3932C11.8768 49.5512 12.0066 48.3205 12.9152 47.6728C13.7589 47.0251 14.9271 47.2194 15.5761 48.0614L17.9125 51.1057L20.898 47.2842C21.547 46.4421 22.7801 46.2478 23.6238 46.8955C24.4675 47.5432 24.6622 48.7739 24.0132 49.6159L19.535 55.4454C19.1456 55.9636 18.5615 56.2227 17.9774 56.2227ZM17.9774 43.2683C17.3933 43.2683 16.8092 43.0092 16.4198 42.491L12.5258 37.4388C11.8768 36.5968 12.0066 35.3661 12.9152 34.7184C13.7589 34.0707 14.9271 34.2002 15.5761 35.0423L17.9125 38.1513L20.898 34.3298C21.547 33.4877 22.7801 33.2934 23.6238 34.0059C24.4675 34.6536 24.6622 35.8843 24.0132 36.7263L19.535 42.5558C19.1456 42.9444 18.5615 43.2683 17.9774 43.2683ZM29.6595 40.0294H55.2304C56.2688 40.0294 57.1774 39.1873 57.1774 38.0862C57.1774 36.9851 56.2688 36.1431 55.2304 36.1431H29.6595C28.5562 36.1431 27.7125 36.9851 27.7125 38.0862C27.7125 39.1873 28.6211 40.0294 29.6595 40.0294ZM48.5456 52.9837H29.6595C28.6211 52.9837 27.7125 52.1417 27.7125 51.0406C27.7125 49.9394 28.5562 49.0974 29.6595 49.0974H48.5456C49.584 49.0974 50.4927 49.9394 50.4927 51.0406C50.4927 52.1417 49.6489 52.9837 48.5456 52.9837ZM29.6595 66.003H39.5244C40.5629 66.003 41.4715 65.161 41.4715 64.0599C41.4715 62.9587 40.5629 62.1167 39.5244 62.1167H29.6595C28.5562 62.1167 27.7125 62.9587 27.7125 64.0599C27.7125 65.161 28.6211 66.003 29.6595 66.003ZM30.5681 12.6964C30.5681 9.58739 33.0993 7.06128 36.2145 7.06128C39.3297 7.06128 41.8609 9.58739 41.8609 12.6964C41.8609 15.8055 39.3297 18.3316 36.2145 18.3316C33.0993 18.3316 30.5681 15.8055 30.5681 12.6964ZM34.3973 12.6964C34.3973 13.7328 35.241 14.5101 36.2145 14.5101C37.2529 14.5101 38.0317 13.7328 38.0317 12.6964C38.0317 11.6601 37.2529 10.8828 36.2145 10.8828C35.1761 10.8828 34.3973 11.6601 34.3973 12.6964Z" fill="url(#paint0_linear)"/>
<path d="M48.8701 10.7521L47.389 10.989L47.5909 12.2521H48.8701V10.7521ZM23.6238 10.7521V12.2521H24.903L25.105 10.989L23.6238 10.7521ZM15.9655 15.6096V17.1096H17.4655V15.6096H15.9655ZM0 20.7914L-1.49959 20.7564L-1.5 20.7739V20.7914H0ZM0 92.8826H-1.5V92.9L-1.49959 92.9175L0 92.8826ZM72.494 59.6555L71.4344 58.5938L70.994 59.0333V59.6555H72.494ZM89.2058 42.9768L90.2654 41.9151L89.2058 40.8576L88.1462 41.9151L89.2058 42.9768ZM91.8993 45.665L92.9566 46.729L94.025 45.6673L92.9589 44.6032L91.8993 45.665ZM77.037 60.433L75.9797 59.3689L75.9774 59.3712L77.037 60.433ZM77.037 63.1534L75.9774 64.2151V64.2151L77.037 63.1534ZM79.7628 63.1534L78.7054 62.0896L78.6162 62.1782L78.5431 62.2804L79.7628 63.1534ZM95.988 47.0252L95.0289 45.8719L94.9777 45.9144L94.9305 45.9613L95.988 47.0252ZM95.988 44.3047L94.9284 45.3665V45.3665L95.988 44.3047ZM91.9316 40.2564L90.872 39.1947L89.8082 40.2564L90.872 41.3181L91.9316 40.2564ZM97.4159 34.7831L96.4567 33.6298L96.4044 33.6733L96.3563 33.7213L97.4159 34.7831ZM97.351 31.9979L98.4106 30.9361V30.9361L97.351 31.9979ZM88.9788 23.6423L90.0384 22.5806V22.5806L88.9788 23.6423ZM86.253 23.6423L85.1934 22.5806V22.5806L86.253 23.6423ZM79.7162 30.1661L80.5298 31.4263L80.6633 31.3401L80.7758 31.2278L79.7162 30.1661ZM79.3734 30.4435L80.3859 31.5503L80.41 31.5283L80.433 31.5053L79.3734 30.4435ZM79.0591 30.8219L80.1187 31.8836L80.2421 31.7605L80.3339 31.6124L79.0591 30.8219ZM72.494 37.374H70.994V40.9902L73.5536 38.4357L72.494 37.374ZM56.4635 15.6096H54.9635V17.1096H56.4635V15.6096ZM15.9655 19.4959H17.4655V17.9959H15.9655V19.4959ZM56.4635 19.4959V17.9959H54.9635V19.4959H56.4635ZM68.5999 41.2603L69.6596 42.322L70.0999 41.8825V41.2603H68.5999ZM42.8344 66.9747L41.7748 65.913L41.7673 65.9205L41.76 65.928L42.8344 66.9747ZM38.7457 74.2292L40.2263 74.4697L40.2273 74.4636L38.7457 74.2292ZM39.3298 78.6326L40.3894 79.6944L41.1419 78.9433L40.6825 77.9845L39.3298 78.6326ZM35.7603 82.195L36.7728 83.3017L36.7969 83.2797L36.8199 83.2567L35.7603 82.195ZM35.7603 84.9154L36.8199 83.8537H36.8199L35.7603 84.9154ZM38.4861 84.9154L37.4265 83.8537H37.4265L38.4861 84.9154ZM41.9789 81.4296L42.6895 80.1086L41.7081 79.5806L40.9193 80.3679L41.9789 81.4296ZM46.7285 82.1961L46.9402 83.6811L46.9511 83.6796L46.962 83.6778L46.7285 82.1961ZM53.9973 78.1155L55.0569 79.1772L53.9973 78.1155ZM68.6 63.5418H70.1V59.9256L67.5404 62.4801L68.6 63.5418ZM19.8596 20.5975H18.3596V22.0975H19.8596V20.5975ZM52.5695 20.5975V22.0975H54.0695V20.5975H52.5695ZM19.8596 14.5737V13.0737H18.3596V14.5737H19.8596ZM52.5695 14.5737H54.0695V13.0737H52.5695V14.5737ZM43.159 77.5314L44.2186 76.4697L44.2185 76.4697L43.159 77.5314ZM43.409 77.834L42.1654 78.6727L42.2848 78.8498L42.4489 78.9865L43.409 77.834ZM43.0181 77.4027L41.7859 78.2581L41.9014 78.4244L42.0568 78.5542L43.0181 77.4027ZM42.5748 74.8769L41.0953 74.6298L42.5748 74.8769ZM45.6252 69.7599L44.5655 68.6982L45.6252 69.7599ZM80.8336 34.6213L81.8932 33.5595L80.8336 32.502L79.774 33.5595L80.8336 34.6213ZM86.4475 40.224L87.5071 41.2857L88.571 40.224L87.5071 39.1623L86.4475 40.224ZM51.2066 75.3951L50.147 74.3334L50.1418 74.3385L50.1367 74.3437L51.2066 75.3951ZM89.1734 37.5036L88.1138 38.5653L89.1734 39.6228L90.233 38.5653L89.1734 37.5036ZM93.2622 33.4228L94.3218 34.4846L95.3795 33.429L94.328 32.3673L93.2622 33.4228ZM83.5595 31.9008L82.4998 30.8391L81.436 31.9008L82.4998 32.9626L83.5595 31.9008ZM87.6808 27.7877L88.7465 26.7321L87.6869 25.6623L86.6212 26.726L87.6808 27.7877ZM16.4198 68.3998L17.619 67.4987L17.6135 67.4914L17.6079 67.4841L16.4198 68.3998ZM12.5258 63.3476L13.7138 62.4319L13.7138 62.4319L12.5258 63.3476ZM12.9152 60.6272L13.7859 61.8486L13.8075 61.8332L13.8286 61.817L12.9152 60.6272ZM15.5761 61.0158L14.388 61.9315L14.389 61.9327L15.5761 61.0158ZM17.9774 64.1249L16.7903 65.0418L17.9837 66.5869L19.1692 65.0357L17.9774 64.1249ZM20.898 60.3033L19.7099 59.3876L19.7061 59.3925L20.898 60.3033ZM23.6238 59.9147L24.5372 58.7249L24.5372 58.7249L23.6238 59.9147ZM24.0132 62.6351L22.8251 61.7194L22.8237 61.7213L24.0132 62.6351ZM19.535 68.4646L20.673 69.4419L20.6996 69.4108L20.7246 69.3784L19.535 68.4646ZM16.4198 55.4454L17.619 54.5443L17.6135 54.537L17.6079 54.5297L16.4198 55.4454ZM12.5258 50.3932L13.7138 49.4775L13.7138 49.4775L12.5258 50.3932ZM12.9152 47.6728L13.7859 48.8942L13.8075 48.8788L13.8286 48.8626L12.9152 47.6728ZM15.5761 48.0614L16.7661 47.1482L16.7642 47.1457L15.5761 48.0614ZM17.9125 51.1057L16.7226 52.019L17.902 53.5557L19.0946 52.0291L17.9125 51.1057ZM20.898 47.2842L22.08 48.2076L22.086 48.1999L20.898 47.2842ZM23.6238 46.8955L24.5372 45.7057L24.5372 45.7057L23.6238 46.8955ZM24.0132 49.6159L22.8251 48.7002L22.8237 48.7022L24.0132 49.6159ZM19.535 55.4454L18.3455 54.5316L18.3407 54.5379L18.3359 54.5443L19.535 55.4454ZM16.4198 42.491L17.619 41.5899L17.6135 41.5826L17.6079 41.5753L16.4198 42.491ZM12.5258 37.4388L13.7138 36.5231L13.7138 36.5231L12.5258 37.4388ZM12.9152 34.7184L13.7859 35.9398L13.8075 35.9244L13.8286 35.9082L12.9152 34.7184ZM15.5761 35.0423L16.7753 34.1411L16.7698 34.1338L16.7642 34.1265L15.5761 35.0423ZM17.9125 38.1513L16.7134 39.0525L17.8894 40.6174L19.0946 39.0748L17.9125 38.1513ZM20.898 34.3298L22.08 35.2532L22.086 35.2455L20.898 34.3298ZM23.6238 34.0059L22.656 35.1519L22.6827 35.1745L22.7104 35.1957L23.6238 34.0059ZM24.0132 36.7263L22.8251 35.8106L22.8237 35.8125L24.0132 36.7263ZM19.535 42.5558L20.5947 43.6175L20.6645 43.5478L20.7246 43.4696L19.535 42.5558ZM48.8701 12.2521H54.5165V9.25214H48.8701V12.2521ZM36.2145 1.5C41.8307 1.5 46.5307 5.62113 47.389 10.989L50.3513 10.5153C49.2626 3.70604 43.3189 -1.5 36.2145 -1.5V1.5ZM25.105 10.989C25.9648 5.61178 30.6077 1.5 36.2145 1.5V-1.5C29.1008 -1.5 23.2299 3.71538 22.1426 10.5153L25.105 10.989ZM17.9125 12.2521H23.6238V9.25214H17.9125V12.2521ZM17.4655 12.6953C17.4655 12.4577 17.667 12.2521 17.9125 12.2521V9.25214C16.0812 9.25214 14.4655 10.7307 14.4655 12.6953H17.4655ZM17.4655 15.6096V12.6953H14.4655V15.6096H17.4655ZM5.25695 17.1096H15.9655V14.1096H5.25695V17.1096ZM1.49959 20.8263C1.54621 18.8258 3.24577 17.1096 5.25695 17.1096V14.1096C1.55688 14.1096 -1.41641 17.1866 -1.49959 20.7564L1.49959 20.8263ZM1.5 20.8561V20.7914H-1.5V20.8561H1.5ZM1.5 92.8178V20.8561H-1.5V92.8178H1.5ZM1.5 92.8826V92.8178H-1.5V92.8826H1.5ZM5.25695 96.4995C3.27483 96.4995 1.54537 94.812 1.49959 92.8476L-1.49959 92.9175C-1.41557 96.5235 1.65762 99.4995 5.25695 99.4995V96.4995ZM67.2371 96.4995H5.25695V99.4995H67.2371V96.4995ZM70.994 92.753C70.994 94.7718 69.2671 96.4995 67.2371 96.4995V99.4995C70.9183 99.4995 73.994 96.4342 73.994 92.753H70.994ZM70.994 59.6555V92.753H73.994V59.6555H70.994ZM88.1462 41.9151L71.4344 58.5938L73.5536 60.7172L90.2654 44.0386L88.1462 41.9151ZM92.9589 44.6032L90.2654 41.9151L88.1462 44.0386L90.8397 46.7267L92.9589 44.6032ZM78.0943 61.497L92.9566 46.729L90.842 44.6009L75.9797 59.3689L78.0943 61.497ZM78.0966 62.0917C77.9799 61.9751 77.9529 61.8676 77.9529 61.7932C77.9529 61.7187 77.9799 61.6112 78.0966 61.4947L75.9774 59.3712C74.6114 60.7345 74.6114 62.8518 75.9774 64.2151L78.0966 62.0917ZM78.3999 62.2363C78.3036 62.2363 78.2234 62.2182 78.0966 62.0917L75.9774 64.2151C76.6294 64.8658 77.4579 65.2363 78.3999 65.2363V62.2363ZM78.5431 62.2804C78.5542 62.2648 78.5716 62.2464 78.5929 62.2306C78.6129 62.2158 78.6258 62.2111 78.6233 62.212C78.6197 62.2134 78.6007 62.22 78.5613 62.226C78.5218 62.232 78.4686 62.2363 78.3999 62.2363V65.2363C79.1218 65.2363 80.2452 65.0567 80.9826 64.0264L78.5431 62.2804ZM94.9305 45.9613L78.7054 62.0896L80.8203 64.2172L97.0455 48.089L94.9305 45.9613ZM95.0721 45.665C95.0721 45.7403 95.0573 45.8027 95.0405 45.8434C95.0242 45.8826 95.0139 45.8844 95.0289 45.8719L96.9472 48.1784C97.7527 47.5085 98.0721 46.5235 98.0721 45.665H95.0721ZM94.9284 45.3665C95.0552 45.493 95.0721 45.5716 95.0721 45.665H98.0721C98.0721 44.722 97.6997 43.8938 97.0476 43.243L94.9284 45.3665ZM90.872 41.3181L94.9284 45.3665L97.0476 43.243L92.9912 39.1947L90.872 41.3181ZM96.3563 33.7213L90.872 39.1947L92.9912 41.3181L98.4755 35.8448L96.3563 33.7213ZM96.5 33.4228C96.5 33.4982 96.4852 33.5606 96.4683 33.6013C96.4521 33.6404 96.4417 33.6422 96.4567 33.6298L98.375 35.9363C99.1806 35.2664 99.5 34.2814 99.5 33.4228H96.5ZM96.2914 33.0596C96.4702 33.238 96.5 33.3936 96.5 33.4228H99.5C99.5 32.4158 99.0106 31.535 98.4106 30.9361L96.2914 33.0596ZM87.9192 24.704L96.2914 33.0596L98.4106 30.9361L90.0384 22.5806L87.9192 24.704ZM87.3126 24.704C87.4294 24.5874 87.5385 24.5593 87.6159 24.5593C87.6933 24.5593 87.8024 24.5874 87.9192 24.704L90.0384 22.5806C88.674 21.2189 86.5577 21.2189 85.1934 22.5806L87.3126 24.704ZM80.7758 31.2278L87.3126 24.704L85.1934 22.5806L78.6566 29.1044L80.7758 31.2278ZM80.433 31.5053C80.4671 31.4713 80.4998 31.4456 80.5298 31.4263L78.9026 28.9059C78.692 29.0419 78.4948 29.2012 78.3138 29.3818L80.433 31.5053ZM80.3339 31.6124C80.3467 31.5917 80.3634 31.5709 80.3859 31.5503L78.361 29.3368C78.1339 29.5445 77.9411 29.7785 77.7843 30.0314L80.3339 31.6124ZM73.5536 38.4357L80.1187 31.8836L77.9995 29.7602L71.4344 36.3123L73.5536 38.4357ZM70.994 20.8561V37.374H73.994V20.8561H70.994ZM67.237 17.1096C69.267 17.1096 70.994 18.8374 70.994 20.8561H73.994C73.994 17.1749 70.9183 14.1096 67.237 14.1096V17.1096ZM56.4635 17.1096H67.237V14.1096H56.4635V17.1096ZM54.9635 12.6953V15.6096H57.9635V12.6953H54.9635ZM54.5165 12.2521C54.6768 12.2521 54.7807 12.3092 54.8441 12.3725C54.9075 12.4357 54.9635 12.538 54.9635 12.6953H57.9635C57.9635 10.7629 56.4454 9.25214 54.5165 9.25214V12.2521ZM15.9655 17.9959H5.25695V20.9959H15.9655V17.9959ZM17.4655 22.5406V19.4959H14.4655V22.5406H17.4655ZM17.9125 22.9838C17.6672 22.9838 17.4655 22.7784 17.4655 22.5406H14.4655C14.4655 24.3756 15.9512 25.9838 17.9125 25.9838V22.9838ZM54.5165 22.9838H17.9125V25.9838H54.5165V22.9838ZM54.9635 22.5406C54.9635 22.7782 54.762 22.9838 54.5165 22.9838V25.9838C56.3478 25.9838 57.9635 24.5053 57.9635 22.5406H54.9635ZM54.9635 19.4964V22.5406H57.9635V19.4964H54.9635ZM54.9635 19.4959V19.4964H57.9635V19.4959H54.9635ZM67.237 17.9959H56.4635V20.9959H67.237V17.9959ZM70.0999 20.8561C70.0999 19.3124 68.7766 17.9959 67.237 17.9959V20.9959C67.1875 20.9959 67.1548 20.9847 67.1406 20.9784C67.1274 20.9725 67.1248 20.9688 67.1266 20.9706C67.1284 20.9724 67.1244 20.9695 67.1182 20.9557C67.1115 20.9408 67.0999 20.907 67.0999 20.8561H70.0999ZM70.0999 41.2603V20.8561H67.0999V41.2603H70.0999ZM43.894 68.0364L69.6596 42.322L67.5403 40.1986L41.7748 65.913L43.894 68.0364ZM40.2273 74.4636C40.5526 72.4071 41.7718 70.2152 43.9089 68.0214L41.76 65.928C39.354 68.3978 37.7176 71.1285 37.2641 73.9948L40.2273 74.4636ZM40.6825 77.9845C40.2054 76.9886 40.015 75.7698 40.2263 74.4697L37.2651 73.9886C36.9605 75.8634 37.2224 77.7056 37.977 79.2807L40.6825 77.9845ZM36.8199 83.2567L40.3894 79.6944L38.2702 77.5709L34.7007 81.1333L36.8199 83.2567ZM36.8199 83.8537C36.6014 83.6357 36.6709 83.395 36.7728 83.3017L34.7478 81.0883C33.2921 82.42 33.3616 84.6407 34.7007 85.9771L36.8199 83.8537ZM37.1232 83.9984C37.0269 83.9984 36.9467 83.9802 36.8199 83.8537L34.7007 85.9771C35.3527 86.6279 36.1812 86.9984 37.1232 86.9984V83.9984ZM37.4265 83.8537C37.2997 83.9802 37.2196 83.9984 37.1232 83.9984V86.9984C38.0653 86.9984 38.8937 86.6279 39.5457 85.9771L37.4265 83.8537ZM40.9193 80.3679L37.4265 83.8537L39.5457 85.9771L43.0385 82.4913L40.9193 80.3679ZM45.4305 80.7609C44.4105 80.7609 43.4702 80.5285 42.6895 80.1086L41.2683 82.7506C42.5249 83.4265 43.9607 83.7609 45.4305 83.7609V80.7609ZM46.5168 80.7111C46.1822 80.7588 45.8938 80.7609 45.4305 80.7609V83.7609C45.8757 83.7609 46.3661 83.7629 46.9402 83.6811L46.5168 80.7111ZM52.9377 77.0538C50.8246 79.1627 48.5677 80.3878 46.495 80.7144L46.962 83.6778C49.8217 83.2272 52.627 81.6023 55.0569 79.1772L52.9377 77.0538ZM67.5404 62.4801L52.9377 77.0538L55.0569 79.1772L69.6596 64.6035L67.5404 62.4801ZM70.1 92.753V63.5418H67.1V92.753H70.1ZM67.2371 95.6132C68.7766 95.6132 70.1 94.2967 70.1 92.753H67.1C67.1 92.7022 67.1116 92.6684 67.1182 92.6535C67.1244 92.6397 67.1284 92.6368 67.1266 92.6386C67.1248 92.6404 67.1275 92.6366 67.1406 92.6308C67.1548 92.6245 67.1876 92.6132 67.2371 92.6132V95.6132ZM5.25695 95.6132H67.2371V92.6132H5.25695V95.6132ZM2.39404 92.753C2.39404 94.2967 3.71743 95.6132 5.25695 95.6132V92.6132C5.30646 92.6132 5.33923 92.6245 5.35341 92.6308C5.36654 92.6366 5.36918 92.6404 5.36739 92.6386C5.36559 92.6368 5.36962 92.6397 5.3758 92.6535C5.38245 92.6684 5.39404 92.7022 5.39404 92.753H2.39404ZM2.39404 20.8561V92.753H5.39404V20.8561H2.39404ZM5.25695 17.9959C3.71742 17.9959 2.39404 19.3124 2.39404 20.8561H5.39404C5.39404 20.907 5.38245 20.9408 5.3758 20.9557C5.36962 20.9695 5.36559 20.9724 5.36739 20.9706C5.36918 20.9688 5.36654 20.9725 5.35341 20.9784C5.33923 20.9847 5.30646 20.9959 5.25695 20.9959V17.9959ZM19.8596 22.0975H52.5695V19.0975H19.8596V22.0975ZM18.3596 14.5737V20.5975H21.3596V14.5737H18.3596ZM25.3761 13.0737H19.8596V16.0737H25.3761V13.0737ZM25.8231 12.6305C25.8231 12.8681 25.6216 13.0737 25.3761 13.0737V16.0737C27.2074 16.0737 28.8231 14.5952 28.8231 12.6305H25.8231ZM36.2145 2.32154C30.5357 2.32154 25.8231 6.92717 25.8231 12.6305H28.8231C28.8231 8.6181 32.1583 5.32155 36.2145 5.32155V2.32154ZM46.6059 12.6305C46.6059 6.92717 41.8934 2.32154 36.2145 2.32154V5.32155C40.2708 5.32155 43.6059 8.6181 43.6059 12.6305H46.6059ZM47.0529 13.0737C46.8076 13.0737 46.6059 12.8683 46.6059 12.6305H43.6059C43.6059 14.4655 45.0916 16.0737 47.0529 16.0737V13.0737ZM52.5695 13.0737H47.0529V16.0737H52.5695V13.0737ZM54.0695 20.5975V14.5737H51.0695V20.5975H54.0695ZM42.0994 78.5931C42.1259 78.6196 42.1476 78.6463 42.1654 78.6727L44.6526 76.9952C44.5268 76.8088 44.3819 76.6327 44.2186 76.4697L42.0994 78.5931ZM42.0568 78.5542C42.0705 78.5656 42.0848 78.5786 42.0994 78.5932L44.2185 76.4697C44.1418 76.3931 44.062 76.3202 43.9793 76.2511L42.0568 78.5542ZM41.0953 74.6298C40.8833 75.8996 41.0624 77.216 41.7859 78.2581L44.2502 76.5472C44.0793 76.301 43.9367 75.8287 44.0543 75.124L41.0953 74.6298ZM44.5655 68.6982C42.2355 71.0236 41.3488 73.1119 41.0953 74.6298L44.0543 75.124C44.1903 74.3101 44.7313 72.7712 46.6848 70.8216L44.5655 68.6982ZM79.774 33.5595L44.5655 68.6982L46.6848 70.8216L81.8932 35.683L79.774 33.5595ZM87.5071 39.1623L81.8932 33.5595L79.774 35.683L85.3879 41.2857L87.5071 39.1623ZM52.2662 76.4568L87.5071 41.2857L85.3879 39.1623L50.147 74.3334L52.2662 76.4568ZM42.4489 78.9865C43.6675 80.0016 45.3562 80.1937 47.0332 79.7574C48.7217 79.3181 50.5286 78.225 52.2765 76.4464L50.1367 74.3437C48.6646 75.8417 47.313 76.5847 46.2778 76.854C45.231 77.1264 44.6309 76.8996 44.369 76.6814L42.4489 78.9865ZM90.233 38.5653L94.3218 34.4846L92.2026 32.3611L88.1138 36.4419L90.233 38.5653ZM82.4998 32.9626L88.1138 38.5653L90.233 36.4419L84.6191 30.8391L82.4998 32.9626ZM86.6212 26.726L82.4998 30.8391L84.6191 32.9625L88.7404 28.8494L86.6212 26.726ZM94.328 32.3673L88.7465 26.7321L86.6151 28.8432L92.1965 34.4784L94.328 32.3673ZM15.2207 69.3009C15.91 70.2182 16.95 70.6771 17.9774 70.6771V67.6771C17.8367 67.6771 17.7085 67.6178 17.619 67.4987L15.2207 69.3009ZM11.3377 64.2633L15.2318 69.3155L17.6079 67.4841L13.7138 62.4319L11.3377 64.2633ZM12.0445 59.4058C10.4044 60.5749 10.1993 62.7863 11.3377 64.2633L13.7138 62.4319C13.6367 62.3318 13.6098 62.2147 13.6236 62.11C13.6363 62.0129 13.6834 61.9217 13.7859 61.8486L12.0445 59.4058ZM16.7642 60.1001C15.6474 58.6512 13.5491 58.2495 12.0018 59.4374L13.8286 61.817C13.9157 61.7502 14.0044 61.7323 14.0929 61.7458C14.1869 61.7601 14.2976 61.8141 14.3881 61.9315L16.7642 60.1001ZM19.1646 63.208L16.7632 60.0989L14.389 61.9327L16.7903 65.0418L19.1646 63.208ZM19.7061 59.3925L16.7856 63.214L19.1692 65.0357L22.0898 61.2141L19.7061 59.3925ZM24.5372 58.7249C23.0006 57.5452 20.8353 57.9275 19.7099 59.3876L22.086 61.219C22.1622 61.1201 22.278 61.0533 22.4064 61.0343C22.5317 61.0159 22.6353 61.0468 22.7104 61.1045L24.5372 58.7249ZM25.2012 63.5508C26.3859 62.0138 26.0003 59.8481 24.5372 58.7249L22.7104 61.1045C22.8098 61.1809 22.8758 61.2957 22.8944 61.4214C22.9125 61.5439 22.8823 61.6453 22.8251 61.7194L25.2012 63.5508ZM20.7246 69.3784L25.2027 63.5489L22.8237 61.7213L18.3455 67.5508L20.7246 69.3784ZM17.9774 70.6771C18.9885 70.6771 19.9919 70.2349 20.673 69.4419L18.3971 67.4873C18.2994 67.6011 18.1346 67.6771 17.9774 67.6771V70.6771ZM15.2207 56.3466C15.91 57.2638 16.95 57.7227 17.9774 57.7227V54.7227C17.8367 54.7227 17.7085 54.6634 17.619 54.5443L15.2207 56.3466ZM11.3377 51.3089L15.2318 56.3611L17.6079 54.5297L13.7138 49.4775L11.3377 51.3089ZM12.0445 46.4514C10.4044 47.6205 10.1993 49.8319 11.3377 51.3089L13.7138 49.4775C13.6367 49.3774 13.6098 49.2604 13.6236 49.1556C13.6363 49.0585 13.6834 48.9673 13.7859 48.8942L12.0445 46.4514ZM16.7642 47.1457C15.6474 45.6968 13.5491 45.2951 12.0018 46.483L13.8286 48.8626C13.9157 48.7958 14.0044 48.7779 14.0929 48.7914C14.1869 48.8057 14.2976 48.8597 14.3881 48.9771L16.7642 47.1457ZM19.1025 50.1924L16.7661 47.1482L14.3862 48.9747L16.7226 52.019L19.1025 50.1924ZM19.7159 46.3607L16.7305 50.1823L19.0946 52.0291L22.08 48.2076L19.7159 46.3607ZM24.5372 45.7057C23.0006 44.5261 20.8353 44.9084 19.7099 46.3685L22.086 48.1999C22.1622 48.101 22.278 48.0341 22.4064 48.0152C22.5317 47.9967 22.6353 48.0277 22.7104 48.0853L24.5372 45.7057ZM25.2012 50.5317C26.3859 48.9946 26.0003 46.8289 24.5372 45.7057L22.7104 48.0853C22.8098 48.1617 22.8758 48.2765 22.8944 48.4022C22.9125 48.5248 22.8823 48.6261 22.8251 48.7002L25.2012 50.5317ZM20.7246 56.3592L25.2027 50.5297L22.8237 48.7022L18.3455 54.5316L20.7246 56.3592ZM17.9774 57.7227C19.0049 57.7227 20.0449 57.2638 20.7342 56.3466L18.3359 54.5443C18.2464 54.6634 18.1182 54.7227 17.9774 54.7227V57.7227ZM15.2207 43.3922C15.91 44.3094 16.95 44.7683 17.9774 44.7683V41.7683C17.8367 41.7683 17.7084 41.709 17.619 41.5899L15.2207 43.3922ZM11.3377 38.3545L15.2318 43.4067L17.6079 41.5753L13.7138 36.5231L11.3377 38.3545ZM12.0445 33.497C10.4044 34.6661 10.1993 36.8775 11.3377 38.3545L13.7138 36.5231C13.6367 36.423 13.6098 36.306 13.6236 36.2012C13.6363 36.1042 13.6834 36.0129 13.7859 35.9398L12.0445 33.497ZM16.7642 34.1265C15.5898 32.6029 13.475 32.3976 12.0018 33.5286L13.8286 35.9082C13.9417 35.8214 14.054 35.8008 14.1423 35.8113C14.2275 35.8214 14.3143 35.8622 14.3881 35.958L16.7642 34.1265ZM19.1117 37.2502L16.7753 34.1411L14.377 35.9434L16.7134 39.0525L19.1117 37.2502ZM19.7159 33.4063L16.7305 37.2279L19.0946 39.0748L22.08 35.2532L19.7159 33.4063ZM24.5916 32.8599C23.043 31.5522 20.8383 31.9501 19.7099 33.4141L22.086 35.2455C22.163 35.1455 22.2731 35.0865 22.3825 35.0722C22.4835 35.059 22.5747 35.0833 22.656 35.1519L24.5916 32.8599ZM25.2012 37.642C26.3859 36.105 26.0003 33.9393 24.5372 32.8161L22.7104 35.1957C22.8098 35.2721 22.8758 35.3869 22.8944 35.5126C22.9125 35.6351 22.8823 35.7365 22.8251 35.8106L25.2012 37.642ZM20.7246 43.4696L25.2027 37.6401L22.8237 35.8125L18.3455 41.642L20.7246 43.4696ZM17.9774 44.7683C19.0764 44.7683 20.0199 44.1912 20.5947 43.6175L18.4754 41.4941C18.393 41.5763 18.2855 41.6545 18.1759 41.7076C18.0649 41.7613 17.9962 41.7683 17.9774 41.7683V44.7683ZM55.2304 38.5294H29.6595V41.5294H55.2304V38.5294ZM55.6774 38.0862C55.6774 38.3238 55.4759 38.5294 55.2304 38.5294V41.5294C57.0617 41.5294 58.6774 40.0509 58.6774 38.0862H55.6774ZM55.2304 37.6431C55.4759 37.6431 55.6774 37.8486 55.6774 38.0862H58.6774C58.6774 36.1216 57.0617 34.6431 55.2304 34.6431V37.6431ZM29.6595 37.6431H55.2304V34.6431H29.6595V37.6431ZM29.2125 38.0862C29.2125 37.929 29.2686 37.8267 29.3319 37.7634C29.3954 37.7001 29.4993 37.6431 29.6595 37.6431V34.6431C27.7306 34.6431 26.2125 36.1539 26.2125 38.0862H29.2125ZM29.6595 38.5294C29.414 38.5294 29.2125 38.3238 29.2125 38.0862H26.2125C26.2125 40.0509 27.8282 41.5294 29.6595 41.5294V38.5294ZM29.6595 54.4837H48.5456V51.4837H29.6595V54.4837ZM26.2125 51.0406C26.2125 53.0052 27.8282 54.4837 29.6595 54.4837V51.4837C29.414 51.4837 29.2125 51.2782 29.2125 51.0406H26.2125ZM29.6595 47.5974C27.7306 47.5974 26.2125 49.1082 26.2125 51.0406H29.2125C29.2125 50.8833 29.2686 50.781 29.3319 50.7178C29.3954 50.6545 29.4993 50.5974 29.6595 50.5974V47.5974ZM48.5456 47.5974H29.6595V50.5974H48.5456V47.5974ZM51.9927 51.0406C51.9927 49.0759 50.3769 47.5974 48.5456 47.5974V50.5974C48.7911 50.5974 48.9926 50.803 48.9926 51.0406H51.9927ZM48.5456 54.4837C50.4746 54.4837 51.9927 52.9729 51.9927 51.0406H48.9926C48.9926 51.1978 48.9366 51.3002 48.8733 51.3634C48.8098 51.4267 48.7059 51.4837 48.5456 51.4837V54.4837ZM39.5244 64.503H29.6595V67.503H39.5244V64.503ZM39.9715 64.0599C39.9715 64.2975 39.77 64.503 39.5244 64.503V67.503C41.3557 67.503 42.9715 66.0245 42.9715 64.0599H39.9715ZM39.5244 63.6167C39.77 63.6167 39.9715 63.8223 39.9715 64.0599H42.9715C42.9715 62.0952 41.3557 60.6167 39.5244 60.6167V63.6167ZM29.6595 63.6167H39.5244V60.6167H29.6595V63.6167ZM29.2125 64.0599C29.2125 63.9026 29.2686 63.8003 29.3319 63.7371C29.3954 63.6737 29.4993 63.6167 29.6595 63.6167V60.6167C27.7306 60.6167 26.2125 62.1275 26.2125 64.0599H29.2125ZM29.6595 64.503C29.414 64.503 29.2125 64.2975 29.2125 64.0599H26.2125C26.2125 66.0245 27.8282 67.503 29.6595 67.503V64.503ZM36.2145 5.56128C32.2737 5.56128 29.0681 8.75615 29.0681 12.6964H32.0681C32.0681 10.4186 33.9249 8.56128 36.2145 8.56128V5.56128ZM43.3609 12.6964C43.3609 8.75615 40.1554 5.56128 36.2145 5.56128V8.56128C38.5041 8.56128 40.3609 10.4186 40.3609 12.6964H43.3609ZM36.2145 19.8316C40.1554 19.8316 43.3609 16.6367 43.3609 12.6964H40.3609C40.3609 14.9743 38.5041 16.8316 36.2145 16.8316V19.8316ZM29.0681 12.6964C29.0681 16.6367 32.2737 19.8316 36.2145 19.8316V16.8316C33.9249 16.8316 32.0681 14.9743 32.0681 12.6964H29.0681ZM36.2145 13.0101C36.0314 13.0101 35.8973 12.8669 35.8973 12.6964H32.8973C32.8973 14.5987 34.4505 16.0101 36.2145 16.0101V13.0101ZM36.5317 12.6964C36.5317 12.8285 36.4869 12.8962 36.4529 12.9302C36.4188 12.9642 36.3495 13.0101 36.2145 13.0101V16.0101C38.0785 16.0101 39.5317 14.564 39.5317 12.6964H36.5317ZM36.2145 12.3828C36.3495 12.3828 36.4188 12.4287 36.4529 12.4627C36.4869 12.4966 36.5317 12.5643 36.5317 12.6964H39.5317C39.5317 10.8289 38.0785 9.38282 36.2145 9.38282V12.3828ZM35.8973 12.6964C35.8973 12.5643 35.9421 12.4966 35.9761 12.4627C36.0102 12.4287 36.0795 12.3828 36.2145 12.3828V9.38282C34.3505 9.38282 32.8973 10.8289 32.8973 12.6964H35.8973Z" fill="url(#paint1_linear)" mask="url(#path-1-inside-1)"/>
<defs>
<linearGradient id="paint0_linear" x1="174.563" y1="224.699" x2="55.3745" y2="259.809" gradientUnits="userSpaceOnUse">
<stop stop-color="#33B2FA"/>
<stop offset="0.940675" stop-color="#3B76EF"/>
</linearGradient>
<linearGradient id="paint1_linear" x1="174.563" y1="224.699" x2="55.3745" y2="259.809" gradientUnits="userSpaceOnUse">
<stop stop-color="#33B2FA"/>
<stop offset="0.940675" stop-color="#3B76EF"/>
</linearGradient>
</defs>
</svg>
