<svg width="65" height="65" viewBox="0 0 65 65" fill="none" xmlns="http://www.w3.org/2000/svg">
<path d="M20.24 25.0877C23.1416 25.0877 25.4937 22.6808 25.4937 19.7118C25.4937 16.7428 23.1416 14.3359 20.24 14.3359C17.3385 14.3359 14.9863 16.7428 14.9863 19.7118C14.9863 22.6808 17.3385 25.0877 20.24 25.0877Z" stroke="#E0E3EB" stroke-width="1.5" stroke-linecap="round" stroke-linejoin="round"/>
<path d="M46.6345 24.2344L64.2699 42.1325C64.2699 47.8015 64.8022 60.1734 64.3801 61.9459C63.9581 63.7185 62.0238 64.1616 61.1094 64.1616C42.4342 64.2319 4.72529 64.3304 3.29037 64.1616C1.85545 63.9928 1.07443 62.6141 0.863281 61.9459V51.395L20.8182 32.3655L28.8184 40.0047L46.6345 24.2344Z" fill="#E0E3EB"/>
<path fill-rule="evenodd" clip-rule="evenodd" d="M20 32.887L33.4766 46.0173C33.7733 46.3063 34.2482 46.3001 34.5372 46.0035C34.8263 45.7068 34.8201 45.2319 34.5234 44.9429L20.4221 31.204C20.3027 31.0876 20.154 31.0189 20 30.998V32.887Z" fill="white"/>
<rect x="0.5" y="0.5" width="64" height="64" rx="3.5" stroke="#E0E3EB"/>
</svg>
