<svg width="436" height="300" viewBox="0 0 436 300" fill="none" xmlns="http://www.w3.org/2000/svg">
<g clip-path="url(#clip0)">
<path opacity="0.1" d="M134.376 15.1567C149.141 1.85691 172.32 -0.851254 193.417 0.207153C259.682 3.53304 319.499 35.8352 371.241 72.3747C389.972 85.6029 408.413 99.8707 420.583 118.075C445.337 155.156 437.992 206.529 403.577 237.076C391.866 247.471 377.67 255.438 363.097 262.504C337.187 275.061 309.235 285.141 279.822 288.011C258.85 290.056 237.637 288.388 216.77 285.54C158.52 277.562 101.343 259.927 53.4172 229.742C32.3884 216.506 12.5763 200.05 3.91315 178.626C-4.74996 157.202 0.794432 130.079 22.2564 117.404C31.1342 112.161 41.7446 109.796 52.1366 107.57C67.4326 104.3 82.9698 101.072 96.7743 94.4204C111.031 87.5502 127.909 74.2617 125.088 59.0523C122.059 42.7468 119.63 28.415 134.376 15.1567Z" fill="#6C63FF"/>
<path d="M96.688 168.671C96.688 168.671 100.594 165.872 104.635 167.601C104.635 167.601 103.505 170.004 98.4696 169.974L96.688 168.671Z" fill="#6C63FF"/>
<path d="M96.2019 168.833C96.2019 168.833 95.1586 173.522 98.3376 176.566C98.3376 176.566 100.1 174.581 98.0965 169.963L96.2019 168.833Z" fill="#6C63FF"/>
<path d="M91.0381 164.565C91.0381 164.565 91.1812 160.607 100.146 161.575C100.146 161.575 100.285 164.121 97.204 165.447C94.1229 166.773 92.6464 165.82 91.0381 164.565Z" fill="#6C63FF"/>
<path d="M90.4844 164.558C90.4844 164.558 86.7592 165.914 90.4429 174.147C90.4429 174.147 92.9063 173.496 93.2189 170.155C93.5315 166.814 92.168 165.71 90.4844 164.558Z" fill="#6C63FF"/>
<path d="M85.2226 159.153C85.2226 159.153 84.4693 152.674 93.5995 152.991C93.5995 152.991 94.4696 158.848 86.8912 160.652L85.2226 159.153Z" fill="#6C63FF"/>
<path d="M78.9209 152.049C78.9209 152.049 79.8889 144.64 89.0906 146.482C89.0906 146.482 89.3694 152.848 80.4878 153.748L78.9209 152.049Z" fill="#6C63FF"/>
<path d="M74.2314 144.633C74.2314 144.633 76.0469 137.367 85.1545 139.182C85.1545 139.182 83.2712 145.717 74.8831 145.936L74.2314 144.633Z" fill="#6C63FF"/>
<path d="M69.7681 137.39C69.7681 137.39 71.5271 129.856 80.3145 131.77C80.3145 131.77 77.6779 138.953 70.382 138.636L69.7681 137.39Z" fill="#6C63FF"/>
<path d="M66.8042 130.459C66.8042 130.459 68.0283 121.295 76.2206 122.997C76.2206 122.997 74.1792 131.371 67.4445 131.758L66.8042 130.459Z" fill="#6C63FF"/>
<path d="M63.9526 122.056C63.9526 122.056 65.4856 112.809 73.8022 115.163C73.8022 115.163 70.9095 123.958 64.5741 123.303L63.9526 122.056Z" fill="#6C63FF"/>
<path d="M62.0845 114.218C62.0845 114.218 64.7211 104.929 71.0941 104.933C71.0941 104.933 68.401 114.726 62.6871 116.037L62.0845 114.218Z" fill="#6C63FF"/>
<path d="M60.7964 106.526C60.7964 106.526 63.6326 95.3546 68.838 96.0099C68.838 96.0099 66.9058 104.537 61.045 108.24L60.7964 106.526Z" fill="#6C63FF"/>
<path d="M59.8809 97.3282C59.8809 97.3282 62.5815 88.0097 67.6739 87.4448C67.6739 87.4448 65.9413 96.5787 60.0843 99.7163L59.8809 97.3282Z" fill="#6C63FF"/>
<path d="M58.9316 88.7706C58.9316 88.7706 62.3894 79.4107 65.7567 79.0717C65.7567 79.0717 64.4497 88.2056 59.3271 90.2697L58.9316 88.7706Z" fill="#6C63FF"/>
<path d="M58.2051 80.793C58.2051 80.793 60.1637 70.6948 63.5009 69.7381C63.5009 69.7381 63.354 77.9379 58.5704 81.5275L58.2051 80.793Z" fill="#6C63FF"/>
<path d="M56.5361 70.3822C56.5361 70.3822 58.6944 62.3142 61.3762 60.9921C61.3762 60.9921 61.1954 70.4086 57.233 72.2918L56.5361 70.3822Z" fill="#6C63FF"/>
<path d="M55.2179 63.5496L54.1821 49.5078C54.1821 49.5078 59.6813 59.9262 55.6888 66.0167L55.2179 63.5496Z" fill="#6C63FF"/>
<path d="M50.7357 49.7263C50.7357 49.7263 46.6716 39.598 45.7676 39.0594C45.7676 39.0594 53.2254 45.4625 52.8487 54.0428L50.7357 49.7263Z" fill="#6C63FF"/>
<path d="M84.974 159.115C84.974 159.115 78.4767 158.516 79.0228 167.639C79.0228 167.639 84.8987 168.366 86.5146 160.742L84.974 159.115Z" fill="#6C63FF"/>
<path d="M78.6081 151.815C78.6081 151.815 71.1427 152.075 72.107 161.398C72.107 161.398 78.416 162.279 80.1524 153.522L78.6081 151.815Z" fill="#6C63FF"/>
<path d="M74.1823 145.243C74.1823 145.243 67.282 142.324 63.2593 150.693C63.2593 150.693 69.621 153.1 74.8302 146.55L74.1823 145.243Z" fill="#6C63FF"/>
<path d="M69.6177 137.465C69.6177 137.465 62.5516 134.346 58.7812 142.52C58.7812 142.52 66.1072 144.731 70.2392 138.708L69.6177 137.465Z" fill="#6C63FF"/>
<path d="M66.8981 130.651C66.8981 130.651 59.9752 124.527 54.894 131.186C54.894 131.186 61.9187 136.173 67.2597 132.06L66.8981 130.651Z" fill="#6C63FF"/>
<path d="M64.3217 121.822C64.3217 121.822 57.3536 115.555 52.3252 122.576C52.3252 122.576 60.073 127.642 64.6155 123.174L64.3217 121.822Z" fill="#6C63FF"/>
<path d="M62.7625 113.92C62.7625 113.92 57.2746 105.973 51.248 108.022C51.248 108.022 56.9506 116.444 62.7775 115.837L62.7625 113.92Z" fill="#6C63FF"/>
<path d="M60.9509 106.47C60.9509 106.47 55.335 96.4054 50.4761 98.3753C50.4761 98.3753 54.5364 106.119 61.1468 108.187L60.9509 106.47Z" fill="#6C63FF"/>
<path d="M60.2162 96.7896C60.2162 96.7896 54.5437 88.9175 49.5605 90.0964C49.5605 90.0964 54.2575 98.1192 60.8264 99.1099L60.2162 96.7896Z" fill="#6C63FF"/>
<path d="M59.4928 88.5672C59.4928 88.5672 54.9918 79.663 51.6094 79.712C51.6094 79.712 53.9484 88.6388 59.2706 90.1002L59.4928 88.5672Z" fill="#6C63FF"/>
<path d="M58.3631 80.5896C58.3631 80.5896 53.3912 71.5875 49.9185 71.7005C49.9185 71.7005 52.5852 79.4596 58.2388 81.4032L58.3631 80.5896Z" fill="#6C63FF"/>
<path d="M57.2967 70.902C57.2967 70.902 53.549 63.4366 50.6562 62.6871C50.6562 62.6871 52.7392 71.8775 56.9916 72.9322L57.2967 70.902Z" fill="#6C63FF"/>
<path d="M54.7962 63.301L46.6265 51.8356C46.6265 51.8356 49.0484 63.3688 56.009 65.5007L54.7962 63.301Z" fill="#6C63FF"/>
<path d="M49.0069 50.7395C49.0069 50.7395 39.8127 44.89 39.436 43.8994C39.436 43.8994 44.3326 52.4043 52.8676 53.6096L49.0069 50.7395Z" fill="#6C63FF"/>
<path d="M48.3628 47.9748C48.3628 47.9748 37.6808 38.4642 35.0518 38.5772C35.0518 38.5772 43.5642 38.6375 48.6114 47.44L48.3628 47.9748Z" fill="#6C63FF"/>
<path d="M57.2521 72.4086L56.8754 72.4726C54.3594 57.3875 51.1917 48.5398 47.96 47.553L48.0692 47.1763C51.4892 48.2159 54.6758 56.9355 57.2521 72.4086Z" fill="#444053"/>
<path d="M61.4893 108.522L60.9244 108.59C60.7511 107.182 60.6004 105.735 60.4837 104.296C59.4629 91.7725 58.1823 80.2845 56.751 71.6892L57.0636 71.2711C58.4987 79.8815 60.0279 91.7085 61.0524 104.251C61.1692 105.682 61.3161 107.118 61.4893 108.522Z" fill="#444053"/>
<path d="M107.547 175.481C107.445 175.439 97.2904 171.364 86.518 161.126C80.2095 155.134 74.8904 148.18 70.7587 140.523C65.5947 130.952 62.2161 119.073 60.7886 107.464L61.3912 107.72C64.5928 133.777 77.1807 151.194 87.0039 160.554C97.6709 170.701 107.72 174.735 107.814 174.773L107.547 175.481Z" fill="#444053"/>
<g opacity="0.7">
<path opacity="0.7" d="M112.447 144.806C112.447 144.806 117.009 143.299 120.357 146.151C120.357 146.151 118.56 148.109 113.762 146.58L112.447 144.806Z" fill="#6C63FF"/>
<path opacity="0.7" d="M111.935 144.813C111.935 144.813 109.547 148.983 111.675 152.829C111.675 152.829 113.935 151.461 113.412 146.456L111.935 144.813Z" fill="#6C63FF"/>
<path opacity="0.7" d="M108.271 139.205C108.271 139.205 109.589 135.469 117.856 139.058C117.856 139.058 117.235 141.533 113.894 141.879C110.553 142.226 109.438 140.874 108.271 139.205Z" fill="#6C63FF"/>
<path opacity="0.7" d="M107.747 139.035C107.747 139.035 103.792 139.224 104.854 148.177C104.854 148.177 107.404 148.29 108.696 145.19C109.988 142.09 109.012 140.633 107.747 139.035Z" fill="#6C63FF"/>
<path opacity="0.7" d="M104.334 132.297C104.334 132.297 105.536 125.894 114.161 128.907C114.161 128.907 113.254 134.757 105.48 134.226L104.334 132.297Z" fill="#6C63FF"/>
<path opacity="0.7" d="M100.432 123.634C100.432 123.634 103.558 116.854 111.785 121.344C111.785 121.344 110.157 127.502 101.408 125.721L100.432 123.634Z" fill="#6C63FF"/>
<path opacity="0.7" d="M98.1572 115.178C98.1572 115.178 102.056 108.775 110.21 113.223C110.21 113.223 106.444 118.896 98.3945 116.613L98.1572 115.178Z" fill="#6C63FF"/>
<path opacity="0.7" d="M96.0518 106.933C96.0518 106.933 99.969 100.274 107.8 104.707C107.8 104.707 103.148 110.779 96.2778 108.308L96.0518 106.933Z" fill="#6C63FF"/>
<path opacity="0.7" d="M95.2832 99.4338C95.2832 99.4338 99.1778 91.0494 106.5 95.1173C106.5 95.1173 102.059 102.5 95.5167 100.869L95.2832 99.4338Z" fill="#6C63FF"/>
<path opacity="0.7" d="M95.0645 90.5635C95.0645 90.5635 99.2792 82.1904 106.515 86.9137C106.515 86.9137 101.14 94.4468 95.2867 91.9383L95.0645 90.5635Z" fill="#6C63FF"/>
<path opacity="0.7" d="M95.6187 82.5143C95.6187 82.5143 100.892 74.4312 106.979 76.3296C106.979 76.3296 101.491 84.891 95.6488 84.4315L95.6187 82.5143Z" fill="#6C63FF"/>
<path opacity="0.7" d="M96.6882 74.7966C96.6882 74.7966 102.715 64.9771 107.494 67.1505C107.494 67.1505 103.11 74.7175 96.417 76.5066L96.6882 74.7966Z" fill="#6C63FF"/>
<path opacity="0.7" d="M98.5298 65.7455C98.5298 65.7455 103.886 57.6512 108.911 58.6267C108.911 58.6267 104.541 66.8341 98.0176 68.0846L98.5298 65.7455Z" fill="#6C63FF"/>
<path opacity="0.7" d="M100.176 57.2896C100.176 57.2896 106.259 49.3798 109.574 50.0653C109.574 50.0653 105.607 58.397 100.104 58.8376L100.176 57.2896Z" fill="#6C63FF"/>
<path opacity="0.7" d="M101.852 49.4588C101.852 49.4588 106.726 40.4191 110.199 40.4793C110.199 40.4793 107.615 48.2648 101.984 50.2724L101.852 49.4588Z" fill="#6C63FF"/>
<path opacity="0.7" d="M103.355 39.0217C103.355 39.0217 107.818 31.9631 110.771 31.4886C110.771 31.4886 107.796 40.4304 103.457 41.0594L103.355 39.0217Z" fill="#6C63FF"/>
<path opacity="0.7" d="M104.131 32.1063L107.321 18.3884C107.321 18.3884 109.472 29.9706 103.845 34.5847L104.131 32.1063Z" fill="#6C63FF"/>
<path opacity="0.7" d="M103.973 17.5786C103.973 17.5786 103.102 6.70073 102.402 5.90222C102.402 5.90222 107.622 14.2188 104.707 22.3169L103.973 17.5786Z" fill="#6C63FF"/>
<path opacity="0.7" d="M104.105 132.195C104.105 132.195 98.078 129.694 95.8896 138.568C95.8896 138.568 101.28 141.009 105.091 134.211L104.105 132.195Z" fill="#6C63FF"/>
<path opacity="0.7" d="M100.199 123.333C100.199 123.333 92.9933 121.363 91.1401 130.549C91.1401 130.549 96.903 133.269 101.167 125.423L100.199 123.333Z" fill="#6C63FF"/>
<path opacity="0.7" d="M97.931 115.743C97.931 115.743 92.2133 110.903 85.8779 117.698C85.8779 117.698 91.234 121.89 98.1607 117.178L97.931 115.743Z" fill="#6C63FF"/>
<path opacity="0.7" d="M95.8897 106.959C95.8897 106.959 90.0666 101.882 84.04 108.56C84.04 108.56 90.3754 112.854 96.1119 108.334L95.8897 106.959Z" fill="#6C63FF"/>
<path opacity="0.7" d="M95.3209 99.6485C95.3209 99.6485 90.5298 91.7387 83.6973 96.5825C83.6973 96.5825 88.9215 103.438 95.2456 101.102L95.3209 99.6485Z" fill="#6C63FF"/>
<path opacity="0.7" d="M95.4869 90.4505C95.4869 90.4505 90.6959 82.3938 83.8105 87.6067C83.8105 87.6067 89.7015 94.7632 95.3626 91.8366L95.4869 90.4505Z" fill="#6C63FF"/>
<path opacity="0.7" d="M96.3455 82.439C96.3455 82.439 93.4716 73.2222 87.1099 73.3992C87.1099 73.3992 90.0478 83.1396 95.7918 84.2922L96.3455 82.439Z" fill="#6C63FF"/>
<path opacity="0.7" d="M96.8313 74.7891C96.8313 74.7891 94.4659 63.5082 89.2417 63.9451C89.2417 63.9451 90.8161 72.5479 96.5112 76.4915L96.8313 74.7891Z" fill="#6C63FF"/>
<path opacity="0.7" d="M99.0158 65.3312C99.0158 65.3312 95.9423 56.1257 90.8311 55.7679C90.8311 55.7679 92.929 64.8265 98.9066 67.7267L99.0158 65.3312Z" fill="#6C63FF"/>
<path opacity="0.7" d="M100.771 57.2632C100.771 57.2632 99.1213 47.4249 95.8745 46.4644C95.8745 46.4644 95.4564 55.6812 100.101 58.6644L100.771 57.2632Z" fill="#6C63FF"/>
<path opacity="0.7" d="M102.063 49.312C102.063 49.312 99.9955 39.2364 96.647 38.3136C96.647 38.3136 96.8843 46.5134 101.705 50.0502L102.063 49.312Z" fill="#6C63FF"/>
<path opacity="0.7" d="M103.924 39.76C103.924 39.76 102.568 31.5187 100.029 29.9405C100.029 29.9405 99.276 39.3343 103.043 41.6169L103.924 39.76Z" fill="#6C63FF"/>
<path opacity="0.7" d="M103.803 31.7296L99.4112 18.3507C99.4112 18.3507 98.2812 30.0798 104.308 34.1892L103.803 31.7296Z" fill="#6C63FF"/>
<path opacity="0.7" d="M102.014 18.0306C102.014 18.0306 94.9595 9.70267 94.9067 8.65179C94.9067 8.65179 97.065 18.2302 104.839 21.9177L102.014 18.0306Z" fill="#6C63FF"/>
<path opacity="0.7" d="M102.221 15.2019C102.221 15.2019 94.8501 2.94169 92.3076 2.2637C92.3076 2.2637 100.413 4.85887 102.598 14.7537L102.221 15.2019Z" fill="#6C63FF"/>
<path opacity="0.7" d="M103.442 41.146L103.065 41.0933C105.148 25.9479 104.76 16.5541 101.965 14.652L102.18 14.3394C105.144 16.362 105.577 25.6315 103.442 41.146Z" fill="#444053"/>
<path opacity="0.7" d="M96.737 76.9285L96.1758 76.8268C96.4319 75.4294 96.7182 74.0056 97.0346 72.5932C99.7879 60.333 101.984 48.988 103.17 40.355L103.596 40.0462C102.406 48.7093 100.345 60.4422 97.592 72.7212C97.2756 74.1035 96.9894 75.5198 96.737 76.9285Z" fill="#444053"/>
<path opacity="0.7" d="M120.794 154.539C120.711 154.471 112.229 147.559 104.975 134.576C100.735 126.979 97.7271 118.757 96.0629 110.217C93.9799 99.543 94.285 87.1962 96.3793 75.6893L96.8764 76.1112C92.1871 101.942 99.0234 122.319 105.63 134.18C112.786 147.039 121.178 153.88 121.265 153.947L120.794 154.539Z" fill="#444053"/>
</g>
<path d="M382.063 284.041C382.063 284.041 366.137 283.081 368.017 294.241C368.017 294.241 367.64 296.211 369.429 297.107C369.429 297.107 369.46 296.279 371.064 296.561C371.635 296.657 372.215 296.685 372.793 296.644C373.575 296.589 374.317 296.283 374.91 295.77C374.91 295.77 379.385 293.921 381.125 286.606C381.125 286.606 382.413 285.009 382.364 284.598L379.675 285.728C379.675 285.728 380.594 287.668 379.87 289.277C379.87 289.277 379.784 285.8 379.268 285.887C379.162 285.905 377.87 286.561 377.87 286.561C377.87 286.561 379.452 289.951 378.247 292.392C378.247 292.392 378.699 288.229 377.366 286.802L375.482 287.909C375.482 287.909 377.328 291.397 376.077 294.241C376.077 294.241 376.398 289.875 375.083 288.177L373.369 289.514C373.369 289.514 375.106 292.953 374.047 295.311C374.047 295.311 373.908 290.23 373 289.845C373 289.845 371.494 291.167 371.271 291.729C371.271 291.729 372.458 294.222 371.723 295.54C371.723 295.54 371.271 292.15 370.898 292.15C370.898 292.15 369.392 294.392 369.249 295.917C369.249 295.917 369.313 293.631 370.537 291.924C369.675 292.086 368.88 292.498 368.251 293.107C368.251 293.107 368.484 291.521 370.887 291.382C370.887 291.382 372.123 289.683 372.454 289.578C372.454 289.578 370.04 289.378 368.578 290.026C368.578 290.026 369.866 288.519 372.895 289.209L374.586 287.826C374.586 287.826 371.411 287.393 370.066 287.872C370.066 287.872 371.614 286.55 375.042 287.514L376.884 286.414C376.884 286.414 374.179 285.83 372.567 286.037C372.567 286.037 374.27 285.118 377.426 286.113L378.744 285.521C378.744 285.521 376.759 285.145 376.179 285.069C375.599 284.994 375.569 284.847 375.569 284.847C376.824 284.638 378.112 284.781 379.29 285.261C379.29 285.261 382.112 284.218 382.063 284.041Z" fill="#6C63FF"/>
<path opacity="0.1" d="M371.094 299.985C377.318 299.985 382.363 299.132 382.363 298.079C382.363 297.026 377.318 296.173 371.094 296.173C364.87 296.173 359.824 297.026 359.824 298.079C359.824 299.132 364.87 299.985 371.094 299.985Z" fill="#6C63FF"/>
<path d="M412.609 254.635C412.609 254.635 403.633 254.097 404.699 260.387C404.644 260.706 404.692 261.034 404.834 261.324C404.977 261.614 405.208 261.852 405.494 262.003C405.494 262.003 405.513 261.536 406.417 261.694C406.739 261.75 407.066 261.767 407.392 261.743C407.832 261.713 408.251 261.54 408.583 261.249C408.583 261.249 411.106 260.206 412.089 256.082C412.089 256.082 412.816 255.182 412.786 254.952L411.279 255.6C411.279 255.6 411.796 256.692 411.389 257.6C411.389 257.6 411.34 255.637 411.05 255.686C410.989 255.686 410.263 256.063 410.263 256.063C410.263 256.063 411.151 257.969 410.481 259.351C410.481 259.351 410.737 257.005 409.984 256.202L408.918 256.824C408.918 256.824 409.957 258.79 409.253 260.394C409.253 260.394 409.434 257.935 408.692 256.974L407.728 257.728C407.728 257.728 408.703 259.668 408.104 260.997C408.104 260.997 408.025 258.135 407.513 257.916C407.147 258.226 406.82 258.579 406.537 258.967C406.537 258.967 407.208 260.376 406.794 261.118C406.794 261.118 406.537 259.208 406.33 259.2C406.33 259.2 405.486 260.466 405.4 261.332C405.44 260.528 405.691 259.749 406.127 259.072C405.64 259.164 405.191 259.396 404.835 259.739C404.835 259.739 404.967 258.846 406.341 258.767C406.341 258.767 407.038 257.807 407.223 257.75C407.223 257.75 405.863 257.637 405.038 258.003C405.038 258.003 405.765 257.159 407.471 257.539L408.428 256.764C408.428 256.764 406.635 256.519 405.878 256.79C405.878 256.79 406.752 256.037 408.684 256.586L409.724 255.965C408.924 255.79 408.105 255.719 407.287 255.754C407.287 255.754 408.247 255.238 410.025 255.799L410.779 255.464C410.779 255.464 409.649 255.246 409.332 255.212C409.016 255.178 408.986 255.084 408.986 255.084C409.694 254.966 410.422 255.047 411.087 255.317C411.087 255.317 412.635 254.737 412.609 254.635Z" fill="#6C63FF"/>
<path opacity="0.1" d="M406.428 263.626C409.938 263.626 412.783 263.146 412.783 262.553C412.783 261.96 409.938 261.479 406.428 261.479C402.919 261.479 400.074 261.96 400.074 262.553C400.074 263.146 402.919 263.626 406.428 263.626Z" fill="#6C63FF"/>
<path d="M359.617 260.097C359.617 260.097 348.777 259.442 350.058 267.039C349.991 267.424 350.048 267.82 350.221 268.17C350.393 268.521 350.673 268.808 351.018 268.99C351.018 268.99 351.018 268.429 352.129 268.613C352.519 268.678 352.914 268.698 353.308 268.673C353.839 268.635 354.344 268.426 354.747 268.078C354.747 268.078 357.794 266.82 358.981 261.837C358.981 261.837 359.858 260.752 359.821 260.474L357.994 261.253C357.994 261.253 358.619 262.575 358.126 263.671C358.126 263.671 358.069 261.302 357.715 261.359C357.644 261.359 356.766 261.814 356.766 261.814C356.766 261.814 357.84 264.116 357.03 265.784C357.03 265.784 357.339 262.952 356.431 261.98L355.143 262.734C355.143 262.734 356.397 265.106 355.546 267.046C355.546 267.046 355.764 264.074 354.871 262.903L353.704 263.811C353.704 263.811 354.887 266.15 354.167 267.758C354.167 267.758 354.073 264.3 353.451 264.037C353.451 264.037 352.431 264.937 352.276 265.306C352.276 265.306 353.082 267.005 352.581 267.901C352.581 267.901 352.276 265.6 352.024 265.589C352.024 265.589 351.007 267.114 350.894 268.161C350.945 267.194 351.247 266.256 351.772 265.442C351.186 265.553 350.645 265.833 350.216 266.248C350.216 266.248 350.374 265.167 352.024 265.073C352.024 265.073 352.864 263.916 353.09 263.845C353.09 263.845 351.448 263.709 350.453 264.15C350.453 264.15 351.327 263.129 353.387 263.592L354.54 262.654C354.54 262.654 352.382 262.357 351.463 262.685C351.463 262.685 352.517 261.784 354.853 262.44L356.107 261.686C356.107 261.686 354.265 261.287 353.165 261.43C353.165 261.43 354.325 260.809 356.472 261.483L357.372 261.114C357.372 261.114 356.024 260.85 355.629 260.809C355.233 260.767 355.214 260.658 355.214 260.658C356.069 260.516 356.947 260.614 357.749 260.941C357.749 260.941 359.651 260.217 359.617 260.097Z" fill="#6C63FF"/>
<path opacity="0.1" d="M352.152 270.948C356.389 270.948 359.825 270.368 359.825 269.653C359.825 268.937 356.389 268.357 352.152 268.357C347.915 268.357 344.479 268.937 344.479 269.653C344.479 270.368 347.915 270.948 352.152 270.948Z" fill="#6C63FF"/>
<path opacity="0.1" d="M268.96 264.037L231.177 278.655L175.952 300C173.869 296.132 170.795 290.84 166.991 284.557C153.913 262.88 132.271 229.166 113.008 199.538C91.2979 166.155 72.6157 137.966 72.6157 137.966L86.1415 134.045L196.623 102.003L268.96 264.037Z" fill="black"/>
<path d="M269.713 261.4L231.931 276.018L176.705 297.363C174.622 293.495 171.549 288.203 167.744 281.92C154.667 260.244 133.024 226.529 113.762 196.901C92.0513 163.518 73.3691 135.329 73.3691 135.329L86.8949 131.408L197.376 99.366L269.713 261.4Z" fill="white"/>
<path opacity="0.1" d="M269.713 261.4L231.93 276.018C210.828 280.414 189.294 282.394 167.744 281.92C154.666 260.244 133.024 226.529 113.761 196.901L86.8945 131.408L197.376 99.366L269.713 261.4Z" fill="black"/>
<path d="M297.823 252.308C297.823 252.308 239.125 287.028 151.492 279.193L81.6216 108.873L115.103 103.121L230.842 83.245L296.512 249.016L297.823 252.308Z" fill="#6C63FF"/>
<path opacity="0.1" d="M296.512 249.016C282.689 249.694 266.703 249.63 250.613 247.712C233.203 245.671 215.712 241.445 200.683 233.708C188.133 227.241 177.402 220.216 168.042 211.783C143.706 189.892 128.643 158.576 115.118 103.121L230.857 83.245L296.512 249.016Z" fill="black"/>
<path d="M339.568 239.494C339.568 239.494 296.283 247.976 252.266 242.752C234.857 240.699 217.347 236.484 202.337 228.748C189.786 222.281 179.056 215.256 169.696 206.823C139.563 179.703 123.664 138.188 107.265 54.3102C107.265 54.3102 179.206 71.6704 250.285 33.643C250.285 33.643 274.259 183.278 339.568 239.494Z" fill="white"/>
<path opacity="0.1" d="M252.267 242.752C234.857 240.699 217.347 236.484 202.337 228.748C189.787 222.281 179.056 215.256 169.696 206.823C195.342 204.74 199.03 190.717 199.03 190.717C218.044 220.894 252.267 242.752 252.267 242.752Z" fill="black"/>
<path opacity="0.3" d="M144.467 85.1057C144.467 85.1057 183.112 89.5164 219.283 69.192L221.761 77.1507C221.761 77.1507 187.158 94.4054 144.467 94.4054V85.1057Z" fill="#6C63FF"/>
<path opacity="0.3" d="M144.467 124.387C144.467 124.387 182.886 121.287 225.656 100.616L227.102 103.924C227.102 103.924 211.362 123.732 144.467 128.907V124.387Z" fill="black"/>
<path opacity="0.3" d="M149.021 139.71C149.021 139.71 187.44 136.61 230.209 115.943L231.655 119.25C231.655 119.25 215.919 139.077 149.021 144.256V139.71Z" fill="black"/>
<path opacity="0.3" d="M153.187 156.226C153.187 156.226 191.606 153.126 234.375 132.459L235.821 135.766C235.821 135.766 220.062 155.582 153.187 160.772V156.226Z" fill="black"/>
<path opacity="0.3" d="M158.132 170.381C158.132 170.381 196.551 167.281 239.32 146.614L240.767 149.921C240.767 149.921 225.03 169.741 158.132 174.931V170.381Z" fill="black"/>
<path opacity="0.1" d="M162.689 185.718C162.689 185.718 201.109 182.619 243.878 161.951L245.324 165.258C245.324 165.258 229.584 185.078 162.689 190.265V185.718Z" fill="black"/>
<path opacity="0.3" d="M242.752 90.3022L232.001 93.9619L235.661 104.712L246.412 101.053L242.752 90.3022Z" fill="#6C63FF"/>
<path opacity="0.3" d="M248.868 106.295L238.118 109.955L241.777 120.706L252.528 117.046L248.868 106.295Z" fill="#6C63FF"/>
<path opacity="0.3" d="M258.672 137.068L247.921 140.728L251.581 151.478L262.331 147.819L258.672 137.068Z" fill="#6C63FF"/>
<path opacity="0.3" d="M264.297 153.584L253.547 157.244L257.207 167.994L267.957 164.335L264.297 153.584Z" fill="#6C63FF"/>
<path opacity="0.3" d="M253.854 122.91L243.104 126.569L246.763 137.32L257.514 133.66L253.854 122.91Z" fill="#6C63FF"/>
<path d="M366.261 169.334L365.858 168.957C366.898 168.746 367.877 168.652 367.877 168.652C367.877 168.652 364.31 155.748 358.295 151.443C355.32 149.314 352.841 145.77 351.09 142.731C347.897 137.234 344.311 131.976 340.359 126.998L339.274 125.63L338.807 125.035C339.458 124.048 340.257 123.11 340.167 121.965C340.165 121.958 340.165 121.95 340.167 121.943C340.17 121.883 340.17 121.822 340.167 121.762C340.156 121.62 340.13 121.48 340.091 121.344L340.05 121.408C339.541 119.931 337.586 119.28 336.136 118.466C332.746 116.557 331.296 112.383 330.573 108.504C330.008 105.49 329.541 102.101 327.183 100.161C325.677 98.914 323.628 98.5034 322.11 97.2642C320.671 96.0891 319.869 94.3075 318.965 92.669C317.458 89.9383 315.469 87.3958 312.844 85.7649C310.219 84.134 306.885 83.5049 304.004 84.5972C302.9 85.0191 301.898 85.6745 300.806 86.1302C298.094 87.2602 294.987 87.1096 292.301 88.3036C288.994 89.7725 286.843 93.0193 284.877 96.1004C283.86 97.6936 282.263 100.025 281.355 102.372C281.355 102.289 281.355 102.21 281.355 102.127C280.92 103.161 280.682 104.267 280.655 105.389C280.637 105.866 280.689 106.343 280.809 106.805C281.216 108.312 282.429 109.144 283.868 109.724C283.951 110.203 284.062 110.677 284.199 111.144C284.85 113.287 286.008 115.242 287.576 116.842C289.143 118.443 291.072 119.642 293.201 120.338C293.325 120.383 293.454 120.414 293.578 120.451C293.683 120.749 293.834 121.029 294.026 121.28C295.228 122.787 297.638 122.357 299.205 121.261C299.269 121.22 299.329 121.167 299.39 121.122C299.4 121.335 299.423 121.548 299.457 121.758C299.491 121.939 299.518 122.135 299.555 122.297C300.968 129.909 304.584 134.018 304.584 134.018C304.584 134.018 304.919 134.523 305.465 135.359C305.179 139.559 307.096 143.386 309.311 146.343C307.401 147.446 303.284 149.608 300.738 149.428C300.738 149.428 291.382 150.637 290.297 150.03C290.147 149.947 290.003 150.06 289.868 150.316C287.291 148.746 279.054 144.218 278.35 150.03C277.713 155.303 285.22 155.978 288.794 156.004C288.632 157.548 288.542 158.784 288.542 158.784L303.913 157.733L311.917 156.554C311.032 157.725 310.034 158.769 309.058 159.277C309.058 159.277 301.823 165.134 300.572 165.187C300.395 165.187 300.339 165.364 300.365 165.646C297.322 165.646 287.856 166.087 290.482 171.36C292.866 176.14 299.578 172.833 302.614 171.006C303.33 172.396 303.94 173.485 303.94 173.485L316.343 164.652L319.029 162.392C319.939 162.348 320.838 162.174 321.699 161.876C321.699 161.91 321.725 161.944 321.737 161.974C321.833 162.251 321.905 162.536 321.951 162.825C322.705 167.153 320.174 177.247 320.174 177.247C320.174 177.247 314.607 191.444 317.281 193.38C319.955 195.316 317.978 203.485 317.978 203.485C318.445 204.271 318.982 205.012 319.582 205.7C319.865 206.027 320.18 206.326 320.52 206.593C320.396 206.931 320.293 207.277 320.211 207.629C319.803 209.369 319.957 211.194 320.652 212.842C322.49 217.301 321.371 223.765 321.371 223.765L317.763 248.142C316.03 247.878 313.793 247.66 312.961 248.142C311.684 248.861 312.102 252.488 315.066 254.048C314.166 254.737 313.124 255.217 312.015 255.453C309.379 256.055 307.525 256.44 306.305 256.673C306.226 256.673 299.977 255.295 298.373 256.206C296.768 257.118 297.54 262.172 302.105 263.412C306.573 264.621 323.232 266.395 328.031 265.671L328.336 265.619C332.415 264.813 328.833 259.453 328.381 258.801C328.351 258.583 328.325 258.353 328.294 258.104C328.23 257.547 328.174 256.907 328.132 256.221C332.682 256.639 337.172 256.843 339.233 256.534C339.33 256.534 339.421 256.504 339.504 256.485C343.116 255.769 339.952 251.031 339.545 250.458C339.528 250.313 339.509 250.158 339.489 249.995V249.954C339.489 249.844 339.462 249.728 339.451 249.615C339.44 249.502 339.451 249.422 339.421 249.321C339.391 249.219 339.421 249.14 339.394 249.046C339.379 248.86 339.364 248.668 339.349 248.47C339.349 248.39 339.349 248.308 339.349 248.225C339.349 248.074 339.33 247.923 339.323 247.769C339.323 247.686 339.323 247.603 339.323 247.517C339.323 247.291 339.323 247.057 339.3 246.824C339.3 246.76 339.3 246.695 339.3 246.631C339.3 246.443 339.3 246.255 339.3 246.059C339.3 245.969 339.3 245.878 339.3 245.784C339.3 245.584 339.3 245.385 339.3 245.181C339.3 245.114 339.3 245.049 339.3 244.982C339.3 244.729 339.323 244.469 339.338 244.21L339.361 243.931C339.361 243.739 339.391 243.554 339.41 243.358C339.41 243.264 339.41 243.17 339.44 243.076C339.47 242.812 339.504 242.548 339.541 242.281C339.541 242.202 339.568 242.123 339.579 242.044C339.613 241.844 339.647 241.641 339.684 241.437C339.684 241.339 339.722 241.238 339.745 241.136C339.79 240.918 339.839 240.699 339.892 240.481C339.892 240.42 339.918 240.36 339.933 240.3C340.001 240.036 340.076 239.776 340.155 239.516C340.182 239.426 340.212 239.336 340.242 239.245C340.306 239.049 340.374 238.869 340.445 238.665L340.536 238.424C340.637 238.168 340.747 237.916 340.86 237.671C340.89 237.607 340.924 237.543 340.958 237.479C341.052 237.283 341.153 237.102 341.259 236.899L341.387 236.676C341.53 236.435 341.677 236.194 341.839 235.965C345.982 230.059 347.075 218.668 346.973 216.19C346.871 213.712 347.466 208.57 348.208 207.809C348.705 207.301 351.598 203.289 353.327 200.239C353.64 199.681 353.911 199.158 354.126 198.691C355.353 198.265 356.167 197.937 356.167 197.937C355.734 196.356 355.526 194.721 355.549 193.082C355.579 189.877 356.461 185.654 360.099 182.227C365.47 177.165 366.22 172.147 366.292 170.219C366.292 170.083 366.292 169.963 366.292 169.861C366.28 169.507 366.261 169.334 366.261 169.334Z" fill="url(#paint0_linear)"/>
<path d="M351.949 200.924C350.491 203.529 348.855 206.029 347.052 208.408C346.344 209.162 345.775 214.25 345.873 216.695C345.971 219.139 344.935 230.409 340.977 236.247C337.018 242.085 339.052 252.176 339.052 252.176L332.735 254.391H325.146L319.918 252.827L318.539 249.023C318.539 249.023 320.377 248.741 324.942 247.656C326.208 247.398 327.356 246.733 328.209 245.763C329.063 244.793 329.575 243.57 329.669 242.281L332.875 219.896C332.875 219.896 333.82 214.246 332.261 210.337C331.821 209.236 331.639 208.05 331.728 206.869C331.817 205.687 332.174 204.542 332.773 203.519L332.875 203.361C332.875 203.361 337.82 199.455 342.86 197.011C347.323 194.856 351.851 193.832 353.135 197.655C353.301 198.148 352.758 199.417 351.949 200.924Z" fill="#A5636D"/>
<path opacity="0.05" d="M351.949 200.924C350.491 203.529 348.855 206.029 347.052 208.408C346.344 209.162 345.775 214.25 345.873 216.695C345.971 219.139 344.935 230.409 340.977 236.247C338.189 240.364 338.374 246.586 338.717 249.905C338.863 251.294 339.044 252.165 339.044 252.165L332.728 254.379H325.146L319.918 252.827L318.539 249.023C318.539 249.023 318.999 248.952 320.046 248.748C321.093 248.545 322.682 248.198 324.965 247.656C326.227 247.394 327.369 246.727 328.218 245.757C329.067 244.787 329.577 243.567 329.669 242.281L332.875 219.896C332.875 219.896 333.82 214.246 332.261 210.337C331.821 209.236 331.639 208.05 331.728 206.869C331.817 205.687 332.174 204.542 332.773 203.519L332.875 203.361C332.875 203.361 337.82 199.455 342.86 197.011C347.323 194.856 351.851 193.832 353.135 197.655C353.301 198.148 352.758 199.417 351.949 200.924Z" fill="black"/>
<path opacity="0.1" d="M339.052 252.18L332.735 254.394H325.146L319.918 252.827L318.539 249.023C318.539 249.023 318.999 248.952 320.046 248.748C319.972 249.439 320.154 250.134 320.557 250.7C320.96 251.267 321.557 251.666 322.234 251.822L325.202 251.923C325.62 251.923 326.042 251.946 326.456 251.946C330.631 251.948 334.778 251.26 338.728 249.908C338.879 251.298 339.052 252.18 339.052 252.18Z" fill="black"/>
<path d="M325.199 252.564L322.227 252.462C322.227 252.462 319.455 251.874 320.133 248.729C320.133 248.729 314.784 247.517 313.417 248.319C312.05 249.121 312.709 253.547 316.573 254.632C320.34 255.69 334.449 257.246 338.506 256.609L338.766 256.564C342.442 255.811 338.766 250.537 338.766 250.537C334.404 252.03 329.807 252.717 325.199 252.564Z" fill="#BEBED0"/>
<path d="M343.5 201.79C343.3 202.19 343.086 202.604 342.841 203.037C340.976 206.427 337.986 210.695 337.462 211.248C336.664 212.099 336.027 217.84 336.129 220.612C336.23 223.384 335.07 236.085 330.603 242.677C328.317 246.066 327.801 250.68 327.839 254.394C327.85 255.653 327.924 256.91 328.061 258.161C328.227 259.694 328.437 260.651 328.437 260.651L321.311 263.148H312.735L306.832 261.393L305.288 257.084C305.288 257.084 305.804 257.001 306.964 256.771C308.124 256.541 309.932 256.157 312.516 255.547C313.942 255.252 315.233 254.5 316.193 253.406C317.153 252.312 317.731 250.935 317.838 249.483L321.45 224.22C321.45 224.22 322.516 217.836 320.761 213.429C320.099 211.793 319.951 209.994 320.339 208.273C320.549 207.306 320.932 206.384 321.469 205.553C321.469 205.553 322.848 204.468 324.927 203.033C325.846 202.401 326.912 201.7 328.057 200.992C333.089 197.877 339.707 194.698 342.878 197.014C343.578 197.542 344.09 198.28 344.34 199.12C344.468 199.557 344.11 200.547 343.5 201.79Z" fill="#A5636D"/>
<path opacity="0.1" d="M328.419 260.654L321.292 263.152H312.735L306.832 261.396L305.288 257.087C305.288 257.087 305.804 257.005 306.964 256.775C306.89 257.285 306.943 257.806 307.117 258.292C307.292 258.777 307.584 259.212 307.966 259.558C308.56 260.063 309.311 260.345 310.09 260.357L312.791 260.443C313.262 260.443 313.737 260.47 314.207 260.47C318.921 260.469 323.601 259.69 328.061 258.165C328.227 259.698 328.419 260.654 328.419 260.654Z" fill="black"/>
<path d="M312.788 261.084L310.091 260.993C309.311 260.98 308.559 260.698 307.963 260.195C307.277 259.585 306.686 258.53 307.07 256.756C307.07 256.756 301.043 255.389 299.488 256.293C297.932 257.197 298.693 262.195 303.051 263.419C307.319 264.613 323.229 266.368 327.809 265.653L328.099 265.6C332.242 264.749 328.099 258.79 328.099 258.79C323.177 260.48 317.988 261.258 312.788 261.084Z" fill="#BEBED0"/>
<path opacity="0.1" d="M351.948 200.924C349.368 201.824 345.579 203.018 343.5 203.067C343.285 203.076 343.069 203.065 342.856 203.037C341.402 202.837 336.909 203.158 332.788 203.527C331.134 203.674 329.545 203.828 328.23 203.964C326.272 204.167 324.923 204.314 324.923 204.314V203.037C325.842 202.404 326.908 201.704 328.053 200.996C333.085 197.881 339.703 194.702 342.875 197.018C347.338 194.864 351.866 193.839 353.15 197.662C353.301 198.148 352.758 199.417 351.948 200.924Z" fill="black"/>
<path d="M364.33 171.217C364.258 173.127 363.542 178.084 358.412 183.093C351.874 189.477 354.646 198.645 354.646 198.645C354.646 198.645 346.849 201.708 343.485 201.79C343.27 201.799 343.055 201.789 342.841 201.76C340.822 201.478 332.807 202.22 328.201 202.687C326.242 202.89 324.894 203.037 324.894 203.037V175.918L361.026 167.145L364.299 170.404C364.328 170.674 364.338 170.946 364.33 171.217Z" fill="#5C5C8E"/>
<g opacity="0.1">
<path opacity="0.1" d="M325.503 202.702L324.908 202.766V203.052C324.908 203.052 326.257 202.905 328.215 202.702C331.522 202.367 336.573 201.896 339.914 201.756C337.602 201.546 329.963 202.25 325.503 202.702Z" fill="black"/>
<path opacity="0.1" d="M364.314 170.419L361.041 167.157L358.86 167.703L361.602 170.434C361.621 170.706 361.621 170.979 361.602 171.251C361.53 173.157 360.815 178.117 355.685 183.127C349.146 189.508 351.918 198.679 351.918 198.679C351.918 198.679 345.466 201.21 341.771 201.734C342.123 201.733 342.475 201.752 342.826 201.79C343.039 201.82 343.254 201.831 343.47 201.824C346.833 201.741 354.63 198.679 354.63 198.679C354.63 198.679 351.843 189.508 358.397 183.127C363.527 178.117 364.242 173.157 364.314 171.251C364.333 170.974 364.333 170.696 364.314 170.419Z" fill="black"/>
</g>
<path d="M292.124 152.06C292.124 152.06 281.201 144.482 280.399 151.307C279.596 158.132 292.124 157.156 292.124 157.156V152.06Z" fill="#A5636D"/>
<path d="M310.957 147.036C310.957 147.036 305.047 150.945 301.778 150.704C301.778 150.704 292.843 151.902 291.804 151.303C290.764 150.704 290.131 159.966 290.131 159.966L304.821 158.931L314.237 157.492C314.237 157.492 318.946 154.622 318.946 152.147C318.946 149.672 310.957 147.036 310.957 147.036Z" fill="#F7CDDD"/>
<path opacity="0.05" d="M310.957 147.036C310.957 147.036 305.047 150.945 301.778 150.704C301.778 150.704 292.843 151.902 291.804 151.303C290.764 150.704 290.131 159.966 290.131 159.966L304.821 158.931L314.237 157.492C314.237 157.492 318.946 154.622 318.946 152.147C318.946 149.672 310.957 147.036 310.957 147.036Z" fill="black"/>
<path d="M302.29 166.757C302.29 166.757 289.005 166.208 291.981 172.407C294.956 178.607 305.024 171.082 305.024 171.082L302.29 166.757Z" fill="#A5636D"/>
<path d="M315.654 153.578C315.654 153.578 304.885 145.522 306.403 135.71C307.921 125.898 315.654 143.22 315.654 143.22V153.578Z" fill="#5C5C8E"/>
<path d="M312.678 109.095C312.675 112.625 311.301 116.015 308.848 118.553C308.251 119.176 307.592 119.738 306.882 120.229C305.526 121.175 304.013 121.873 302.414 122.293C301.779 122.452 301.133 122.566 300.482 122.636C300.015 122.681 299.544 122.707 299.066 122.707C297.538 122.716 296.021 122.461 294.58 121.954C292.221 121.131 290.135 119.674 288.549 117.744C286.963 115.814 285.938 113.484 285.588 111.011C285.238 108.537 285.575 106.015 286.563 103.72C287.55 101.426 289.151 99.447 291.188 98.0011C293.225 96.5553 295.621 95.698 298.113 95.5231C300.605 95.3482 303.098 95.8626 305.317 97.0098C307.536 98.157 309.397 99.8928 310.695 102.027C311.994 104.161 312.68 106.612 312.678 109.11V109.095Z" fill="#A5636D"/>
<path opacity="0.1" d="M364.329 171.217C363.109 171.443 361.602 171.85 361.602 172.483C361.602 173.549 344.585 179.293 344.585 179.293C344.585 179.293 345.221 180.777 343.523 183.33C341.824 185.884 327.993 200.559 327.993 200.559L328.038 200.996L328.215 202.687L329.059 210.77C329.059 210.77 323.741 208.856 322.038 209.067C321.488 209.139 320.908 208.785 320.339 208.276C320.549 207.309 320.932 206.388 321.469 205.557C321.469 205.557 322.848 204.472 324.927 203.037V175.918L361.06 167.145L364.333 170.404C364.35 170.674 364.349 170.946 364.329 171.217Z" fill="black"/>
<path d="M365.858 169.718C365.858 169.718 361.602 170.14 361.602 171.206C361.602 172.272 344.585 178.016 344.585 178.016C344.585 178.016 345.221 179.5 343.523 182.054C341.824 184.607 327.993 199.286 327.993 199.286L329.059 209.493C329.059 209.493 323.741 207.58 322.038 207.791C321.285 207.885 320.437 207.184 319.74 206.367C319.165 205.685 318.652 204.953 318.207 204.178C318.207 204.178 320.125 196.092 317.571 194.178C315.017 192.265 320.336 178.227 320.336 178.227C320.336 178.227 322.739 168.245 322.031 163.963C321.987 163.676 321.919 163.394 321.827 163.119C321.827 163.089 321.808 163.055 321.797 163.025C320.29 158.934 303.958 124.606 303.958 124.606C303.969 123.632 304.037 122.66 304.162 121.694C304.196 121.427 304.241 121.148 304.29 120.866C304.373 120.358 304.483 119.855 304.621 119.359C304.708 119.041 304.811 118.728 304.93 118.421C305.435 117.125 306.207 116.127 307.36 116.105C307.36 116.105 308.637 114.692 311.631 114.308C313.823 114.022 316.953 114.308 321.191 116.105C331.183 120.353 333.526 120.572 333.526 120.572L338.547 127.163L339.579 128.515C343.362 133.45 346.787 138.648 349.828 144.071C351.5 147.085 353.869 150.584 356.709 152.689C362.453 156.957 365.858 169.718 365.858 169.718Z" fill="#F7CDDD"/>
<path opacity="0.1" d="M328.577 145.122C328.577 145.122 342.777 148.633 348.28 157.484L328.577 145.122Z" fill="black"/>
<path opacity="0.1" d="M332.965 160.674C332.965 160.674 335.65 178.705 334.905 180.061C334.159 181.417 332.965 160.674 332.965 160.674Z" fill="black"/>
<path opacity="0.1" d="M332.005 169.929C330.973 171.281 326.78 181.733 326.78 181.733L327.99 199.286L329.055 209.493C329.055 209.493 323.741 207.58 322.038 207.791C321.285 207.885 320.434 207.184 319.741 206.367C320.844 200.389 323.206 187.88 323.632 187.639C324.193 187.319 327.067 177.27 327.217 174.456C327.368 171.643 331.361 165.371 331.361 165.371C331.361 165.371 333.044 168.577 332.005 169.929Z" fill="black"/>
<path opacity="0.1" d="M327.993 152.701C327.729 153.495 327.323 158.125 327.323 158.125C327.029 162.2 323.933 163.533 322.031 163.963C321.987 163.676 321.919 163.394 321.827 163.119C320.55 159.507 303.958 124.621 303.958 124.621C303.976 122.851 304.198 121.089 304.621 119.37C308.234 118.308 313.951 119.943 313.951 119.943C315.605 119.724 320.998 130.448 320.998 130.448C320.998 130.448 324.592 138.659 324.987 139.778C325.383 140.896 324.987 142.731 325.145 143.371C325.304 144.011 326.984 144.561 327.221 145.442C327.458 146.324 327.304 148.079 327.462 148.392C327.62 148.704 328.26 151.902 327.993 152.701Z" fill="black"/>
<path d="M326.716 152.06C326.452 152.859 326.046 157.484 326.046 157.484C325.805 160.874 323.62 162.381 321.797 163.025C320.975 163.319 320.115 163.49 319.243 163.533L316.678 165.763L304.832 174.483C304.832 174.483 300.418 166.321 301.616 166.275C302.813 166.23 309.721 160.43 309.721 160.43C311.834 159.3 313.951 155.533 314.934 153.597C314.878 153.366 314.835 153.132 314.806 152.896C314.381 149.284 305.446 135.453 305.446 135.453C305.446 135.453 301.992 131.389 300.648 123.86C300.61 123.687 300.584 123.51 300.55 123.329C300.512 123.095 300.489 122.858 300.482 122.621C300.32 119.724 302.429 118.67 304.93 118.421C306.236 118.317 307.55 118.358 308.847 118.542C310.14 118.704 311.42 118.956 312.678 119.295C313.748 119.152 316.384 123.6 318.113 126.753C319.044 128.463 319.714 129.796 319.714 129.796C319.714 129.796 323.307 138.011 323.703 139.126C324.098 140.241 323.703 142.083 323.861 142.719C324.019 143.356 325.699 143.913 325.936 144.795C326.174 145.676 326.019 147.431 326.177 147.744C326.336 148.056 326.983 151.262 326.716 152.06Z" fill="#F7CDDD"/>
<path opacity="0.1" d="M340.457 133.657C338.197 135.966 334.547 135.973 331.616 134.787C328.686 133.6 326.204 131.476 323.488 129.822C321.725 128.745 319.857 127.864 318.121 126.753C317.865 126.587 317.616 126.421 317.367 126.248C315.364 124.832 313.627 123.013 311.552 121.728C310.164 120.805 308.547 120.283 306.881 120.221C306.114 120.215 305.355 120.374 304.655 120.689C304.526 120.741 304.4 120.803 304.279 120.873C303.595 121.265 302.963 121.739 302.395 122.286C301.808 122.813 301.247 123.374 300.629 123.868C300.591 123.694 300.565 123.517 300.531 123.336C300.493 123.102 300.47 122.866 300.463 122.628C299.996 122.674 299.525 122.7 299.047 122.7C297.519 122.709 296.002 122.454 294.561 121.947C294.561 121.89 294.561 121.834 294.527 121.777C294.018 119.095 293.099 116.255 290.941 114.749C289.691 113.875 287.694 113.517 285.962 112.865C285.361 110.775 285.27 108.572 285.697 106.439C286.123 104.307 287.053 102.308 288.411 100.609C289.768 98.9103 291.513 97.5614 293.499 96.6755C295.485 95.7896 297.654 95.3923 299.825 95.5169C301.996 95.6416 304.106 96.2845 305.977 97.3919C307.849 98.4994 309.428 100.039 310.582 101.882C311.736 103.725 312.432 105.818 312.611 107.985C312.79 110.152 312.448 112.331 311.612 114.338C313.804 114.052 316.934 114.338 321.172 116.135C331.164 120.383 333.507 120.602 333.507 120.602L338.528 127.193C337.986 128.022 337.372 128.839 337.315 129.807C337.221 131.581 338.95 132.821 340.457 133.657Z" fill="black"/>
<path d="M290.956 113.464C293.114 114.971 294.034 117.807 294.546 120.485C294.704 121.321 294.855 122.203 295.367 122.866C296.497 124.35 298.817 123.932 300.312 122.866C301.808 121.8 302.987 120.184 304.655 119.431C306.87 118.429 309.477 119.159 311.552 120.459C313.627 121.758 315.364 123.578 317.367 124.979C319.307 126.346 321.469 127.321 323.488 128.553C326.204 130.207 328.686 132.342 331.616 133.517C334.547 134.693 338.208 134.689 340.453 132.388C338.946 131.551 337.217 130.316 337.334 128.523C337.451 126.73 339.538 125.393 339.398 123.555C339.259 121.717 337.097 120.997 335.545 120.093C332.306 118.21 330.923 114.067 330.23 110.244C329.692 107.253 329.247 103.912 327.014 101.991C325.571 100.756 323.624 100.353 322.17 99.1287C320.795 97.9648 320.03 96.2058 319.157 94.5824C317.714 91.8818 315.819 89.3695 313.315 87.7536C310.81 86.1378 307.623 85.4937 304.874 86.6011C303.819 87.0191 302.859 87.667 301.819 88.1077C299.228 89.2377 296.263 89.0757 293.698 90.2546C290.538 91.7085 288.485 94.9177 286.606 97.9648C285.016 100.575 281.864 105.178 282.756 108.568C283.645 112.014 288.613 111.83 290.956 113.464Z" fill="#4C3E42"/>
<g opacity="0.1">
<path opacity="0.1" d="M339.395 123.348C339.383 123.208 339.359 123.069 339.323 122.933C338.751 123.834 338.039 124.707 337.971 125.762C337.956 126.006 337.977 126.251 338.031 126.489C338.668 125.476 339.485 124.523 339.395 123.348Z" fill="black"/>
<path opacity="0.1" d="M332.253 130.768C329.323 129.593 326.844 127.457 324.129 125.804C322.106 124.572 319.944 123.596 318.004 122.229C316.001 120.813 314.264 118.994 312.189 117.709C310.113 116.425 307.511 115.679 305.292 116.677C303.624 117.43 302.448 119.031 300.949 120.116C299.45 121.201 297.153 121.623 296.004 120.116C295.491 119.453 295.341 118.572 295.183 117.736C294.674 115.057 293.751 112.221 291.597 110.715C289.25 109.076 284.282 109.261 283.382 105.818C283.232 105.202 283.192 104.565 283.265 103.935C282.689 105.472 282.391 107.016 282.742 108.361C283.646 111.818 288.614 111.634 290.957 113.257C293.115 114.764 294.034 117.604 294.546 120.282C294.704 121.118 294.855 121.999 295.363 122.662C296.493 124.146 298.814 123.728 300.313 122.643C301.812 121.559 302.983 119.962 304.656 119.208C306.87 118.21 309.477 118.941 311.552 120.24C313.628 121.54 315.364 123.359 317.368 124.76C319.308 126.131 321.47 127.103 323.488 128.335C326.204 129.992 328.686 132.128 331.617 133.303C334.547 134.478 338.208 134.47 340.453 132.173C339.872 131.861 339.321 131.497 338.807 131.084C336.766 131.834 334.329 131.6 332.253 130.768Z" fill="black"/>
</g>
<path d="M265.589 156.531L295.721 145.277C296.074 145.145 296.449 145.083 296.825 145.096C297.201 145.109 297.571 145.196 297.914 145.352C298.256 145.508 298.564 145.73 298.821 146.005C299.078 146.281 299.277 146.604 299.409 146.957C299.54 147.309 299.601 147.684 299.588 148.061C299.574 148.437 299.487 148.807 299.331 149.149C299.174 149.491 298.952 149.8 298.677 150.056C298.401 150.313 298.078 150.512 297.725 150.644L267.593 161.902L261.137 161.255L265.589 156.531Z" fill="#5C5C8E"/>
<path opacity="0.1" d="M298.493 146.053C298.759 146.765 298.731 147.555 298.415 148.247C298.1 148.939 297.522 149.477 296.81 149.744L266.677 160.998L261.826 160.513L261.129 161.266L267.585 161.914L297.717 150.655C298.07 150.524 298.393 150.324 298.669 150.068C298.944 149.811 299.167 149.503 299.323 149.16C299.479 148.818 299.567 148.448 299.58 148.072C299.593 147.696 299.533 147.321 299.401 146.968C299.18 146.374 298.768 145.871 298.23 145.537C298.333 145.7 298.422 145.873 298.493 146.053Z" fill="white"/>
<path d="M265.589 156.531L267.596 161.902L262.297 161.371L261.137 161.255L262.722 159.575L265.589 156.531Z" fill="#EFC8C4"/>
<path d="M262.718 159.575C262.843 159.666 262.948 159.781 263.027 159.914C263.077 159.992 263.104 160.083 263.104 160.175C263.104 160.268 263.077 160.359 263.027 160.437C262.941 160.521 262.841 160.591 262.734 160.644C262.611 160.725 262.509 160.832 262.435 160.958C262.36 161.084 262.316 161.225 262.304 161.371L261.144 161.255L262.718 159.575Z" fill="#727A9C"/>
<path d="M239.287 98.3339L234.206 95.8555C234.133 95.8202 234.068 95.7709 234.015 95.7105C233.961 95.6501 233.92 95.5797 233.894 95.5035C233.868 95.4272 233.857 95.3465 233.862 95.2661C233.867 95.1856 233.888 95.1069 233.923 95.0344L234.462 93.927C234.497 93.8542 234.546 93.7891 234.606 93.7354C234.666 93.6817 234.737 93.6405 234.813 93.6142C234.89 93.5879 234.97 93.5771 235.051 93.5823C235.132 93.5875 235.21 93.6086 235.283 93.6445L238.707 95.3131L242.281 87.9834C242.353 87.8371 242.479 87.7249 242.633 87.6713C242.787 87.6177 242.955 87.627 243.102 87.6971L244.21 88.2395C244.282 88.2745 244.348 88.3236 244.401 88.3839C244.455 88.4442 244.496 88.5146 244.522 88.591C244.549 88.6674 244.56 88.7483 244.554 88.8289C244.549 88.9095 244.528 88.9882 244.492 89.0606L240.108 98.0514C240.072 98.1239 240.023 98.1887 239.963 98.2421C239.902 98.2955 239.832 98.3365 239.756 98.3627C239.679 98.389 239.599 98.3999 239.518 98.395C239.438 98.39 239.359 98.3693 239.287 98.3339Z" fill="#3ACC6C"/>
<path d="M250.387 130.037L245.306 127.559C245.233 127.523 245.168 127.474 245.115 127.414C245.062 127.353 245.021 127.283 244.994 127.207C244.968 127.13 244.957 127.05 244.962 126.969C244.967 126.889 244.988 126.81 245.023 126.738L245.562 125.63C245.634 125.484 245.761 125.372 245.916 125.319C246.07 125.266 246.24 125.276 246.387 125.348L249.807 127.016L253.377 119.679C253.449 119.533 253.575 119.421 253.729 119.367C253.883 119.313 254.052 119.323 254.199 119.393L255.302 119.935C255.375 119.97 255.44 120.019 255.494 120.08C255.548 120.14 255.589 120.21 255.616 120.286C255.642 120.363 255.654 120.443 255.649 120.524C255.644 120.605 255.624 120.684 255.588 120.756L251.204 129.747C251.131 129.893 251.004 130.004 250.85 130.057C250.695 130.11 250.526 130.1 250.379 130.03L250.387 130.037Z" fill="#3ACC6C"/>
<path d="M245.404 114.41L240.323 111.931C240.176 111.86 240.064 111.733 240.011 111.58C239.957 111.426 239.966 111.257 240.036 111.11L240.579 110.003C240.614 109.93 240.663 109.865 240.723 109.811C240.783 109.757 240.854 109.716 240.93 109.69C241.007 109.664 241.087 109.653 241.168 109.658C241.249 109.663 241.327 109.684 241.4 109.72L244.824 111.389L248.398 104.048C248.433 103.975 248.483 103.911 248.543 103.857C248.604 103.804 248.674 103.763 248.75 103.736C248.826 103.71 248.907 103.699 248.988 103.704C249.068 103.709 249.147 103.73 249.219 103.765L250.327 104.304C250.473 104.377 250.584 104.504 250.637 104.659C250.69 104.813 250.68 104.982 250.609 105.129L246.221 114.127C246.186 114.2 246.136 114.264 246.076 114.318C246.016 114.371 245.945 114.412 245.869 114.438C245.793 114.465 245.712 114.476 245.632 114.471C245.551 114.466 245.472 114.445 245.4 114.41H245.404Z" fill="#3ACC6C"/>
<path d="M255.208 144.35L250.127 141.872C250.054 141.836 249.99 141.787 249.936 141.727C249.883 141.666 249.842 141.596 249.816 141.52C249.789 141.443 249.778 141.363 249.783 141.282C249.788 141.202 249.809 141.123 249.844 141.051L250.383 139.943C250.418 139.871 250.468 139.806 250.528 139.753C250.589 139.699 250.659 139.658 250.735 139.632C250.811 139.606 250.892 139.595 250.973 139.6C251.053 139.605 251.132 139.625 251.204 139.661L254.628 141.329L258.203 134C258.275 133.853 258.402 133.741 258.556 133.687C258.711 133.634 258.88 133.643 259.027 133.713L260.131 134.256C260.204 134.291 260.269 134.34 260.323 134.4C260.376 134.46 260.418 134.531 260.444 134.607C260.47 134.684 260.481 134.764 260.476 134.845C260.471 134.926 260.449 135.004 260.413 135.077L256.033 144.068C255.96 144.214 255.833 144.325 255.678 144.378C255.524 144.431 255.355 144.421 255.208 144.35Z" fill="#3ACC6C"/>
<path d="M65.2447 241.663C65.2447 241.663 67.4858 244.594 64.2126 249.016C60.9395 253.438 58.2351 257.174 59.3161 259.939C59.3161 259.939 64.2578 251.724 68.2768 251.611C72.2957 251.498 69.6666 246.605 65.2447 241.663Z" fill="#3ACC6C"/>
<path opacity="0.1" d="M65.2445 241.663C65.4407 241.946 65.5954 242.256 65.704 242.582C69.625 247.193 71.7305 251.494 67.9451 251.622C64.4309 251.72 60.2161 258.003 59.2104 259.588C59.2408 259.716 59.2798 259.842 59.3272 259.965C59.3272 259.965 64.269 251.75 68.2879 251.637C72.3068 251.524 69.6665 246.605 65.2445 241.663Z" fill="black"/>
<path d="M69.4106 245.4C69.4106 246.428 69.2938 247.283 69.1507 247.283C69.0075 247.283 68.8945 246.447 68.8945 245.4C68.8945 244.353 69.0377 244.854 69.1808 244.854C69.3239 244.854 69.4106 244.368 69.4106 245.4Z" fill="#FFD037"/>
<path d="M70.8382 246.628C69.9343 247.121 69.1433 247.422 69.0755 247.294C69.0077 247.166 69.6857 246.669 70.5821 246.164C71.4786 245.66 71.1283 246.029 71.1961 246.164C71.2639 246.3 71.746 246.134 70.8382 246.628Z" fill="#FFD037"/>
<path d="M53.4097 241.663C53.4097 241.663 51.1724 244.594 54.4455 249.016C57.7187 253.438 60.4193 257.174 59.3421 259.939C59.3421 259.939 54.4041 251.724 50.3814 251.611C46.3587 251.498 48.9878 246.605 53.4097 241.663Z" fill="#3ACC6C"/>
<path opacity="0.1" d="M53.4099 241.663C53.216 241.947 53.0626 242.256 52.9542 242.582C49.0294 247.193 46.9276 251.494 50.7131 251.622C54.2235 251.72 58.4383 258.003 59.4477 259.588C59.4161 259.717 59.3759 259.842 59.3272 259.965C59.3272 259.965 54.3892 251.716 50.359 251.603C46.3288 251.49 48.988 246.605 53.4099 241.663Z" fill="black"/>
<path d="M49.248 245.4C49.248 246.428 49.361 247.283 49.5042 247.283C49.6473 247.283 49.7641 246.447 49.7641 245.4C49.7641 244.353 49.6209 244.854 49.4778 244.854C49.3347 244.854 49.248 244.368 49.248 245.4Z" fill="#FFD037"/>
<path d="M47.8164 246.628C48.7242 247.121 49.5114 247.422 49.5792 247.294C49.647 247.166 48.969 246.669 48.0725 246.164C47.1761 245.66 47.5226 246.029 47.4548 246.164C47.387 246.3 46.9124 246.134 47.8164 246.628Z" fill="#FFD037"/>
<path opacity="0.1" d="M59.3311 282.342C72.268 282.342 82.7554 280.734 82.7554 278.749C82.7554 276.764 72.268 275.156 59.3311 275.156C46.3942 275.156 35.9067 276.764 35.9067 278.749C35.9067 280.734 46.3942 282.342 59.3311 282.342Z" fill="#6C63FF"/>
<path d="M71.384 255.984L71.271 256.899L71.1166 258.191L71.0488 258.73L70.8944 260.022L70.8228 260.56L70.6684 261.852L68.8755 276.542C68.7135 277.853 66.5703 278.877 63.9789 278.877H54.6717C52.0841 278.877 49.9447 277.853 49.7752 276.542L47.9823 261.852L47.8241 260.56L47.7601 260.022L47.5981 258.73L47.5341 258.191L47.3759 256.899L47.2629 255.984C47.1762 255.231 48.3326 254.613 49.7978 254.613H68.8529C70.3218 254.613 71.4782 255.242 71.384 255.984Z" fill="#65617D"/>
<path d="M71.2748 256.899L71.1166 258.191H47.5416L47.3872 256.899H71.2748Z" fill="#9D9CB5"/>
<path d="M71.0525 258.73L70.8943 260.022H47.7676L47.6094 258.73H71.0525Z" fill="#9D9CB5"/>
<path d="M70.8265 260.56L70.6683 261.852H47.9897L47.8315 260.56H70.8265Z" fill="#9D9CB5"/>
</g>
<defs>
<linearGradient id="paint0_linear" x1="323.112" y1="265.818" x2="323.112" y2="84.0398" gradientUnits="userSpaceOnUse">
<stop stop-color="#808080" stop-opacity="0.25"/>
<stop offset="0.54" stop-color="#808080" stop-opacity="0.12"/>
<stop offset="1" stop-color="#808080" stop-opacity="0.1"/>
</linearGradient>
<clipPath id="clip0">
<rect width="435.194" height="300" fill="white"/>
</clipPath>
</defs>
</svg>
