<svg width="340" height="220" viewBox="0 0 340 220" fill="none" xmlns="http://www.w3.org/2000/svg">
<path d="M121.328 117.47H22V193.948H121.328V117.47Z" fill="#EBEBEB"/>
<path d="M96.4372 193.411C96.3313 193.411 96.2405 176.363 96.2405 155.343C96.2405 134.315 96.3313 117.266 96.4372 117.266C96.5431 117.266 96.6338 134.307 96.6338 155.343C96.6338 176.363 96.5506 193.411 96.4372 193.411Z" fill="#E0E0E0"/>
<path d="M112.902 176.544H105.286V185.136H112.902V176.544Z" fill="#FAFAFA"/>
<path d="M63.5825 117.674H52.2982V133.99H63.5825V117.674Z" fill="#E0E0E0"/>
<path d="M63.5825 177.405H52.2982V193.721H63.5825V177.405Z" fill="#E0E0E0"/>
<path d="M114.506 56.1765H34.6381V117.666H114.506V56.1765Z" fill="#F5F5F5"/>
<path d="M94.4858 117.236C94.3951 117.236 94.327 103.532 94.327 86.6271C94.327 69.7144 94.3951 56.0105 94.4858 56.0105C94.5766 56.0105 94.6447 69.7144 94.6447 86.6271C94.6447 103.532 94.5766 117.236 94.4858 117.236Z" fill="#E0E0E0"/>
<path d="M107.729 103.676H101.603V110.584H107.729V103.676Z" fill="#FAFAFA"/>
<path d="M68.0676 56.3352H58.9993V69.4577H68.0676V56.3352Z" fill="#E0E0E0"/>
<path d="M68.0676 104.363H58.9993V117.485H68.0676V104.363Z" fill="#E0E0E0"/>
<path d="M209.553 0.158691H134.533V57.9188H209.553V0.158691Z" fill="#F5F5F5"/>
<path d="M190.758 57.5109C190.675 57.5109 190.607 44.6376 190.607 28.7592C190.607 12.8733 190.675 0 190.758 0C190.841 0 190.909 12.8733 190.909 28.7592C190.909 44.6376 190.841 57.5109 190.758 57.5109Z" fill="#E0E0E0"/>
<path d="M203.192 44.7734H197.444V51.2667H203.192V44.7734Z" fill="#FAFAFA"/>
<path d="M165.943 0.30957H157.419V12.6317H165.943V0.30957Z" fill="#E0E0E0"/>
<path d="M165.943 45.4229H157.419V57.745H165.943V45.4229Z" fill="#E0E0E0"/>
<path d="M234.693 124.324H148.23V190.903H234.693V124.324Z" fill="#EBEBEB"/>
<path d="M213.032 190.435C212.933 190.435 212.858 175.598 212.858 157.296C212.858 138.987 212.933 124.15 213.032 124.15C213.13 124.15 213.206 138.987 213.206 157.296C213.206 175.591 213.13 190.435 213.032 190.435Z" fill="#E0E0E0"/>
<path d="M227.364 175.749H220.739V183.231H227.364V175.749Z" fill="#FAFAFA"/>
<path d="M184.435 124.498H174.611V138.7H184.435V124.498Z" fill="#E0E0E0"/>
<path d="M184.435 176.497H174.611V190.699H184.435V176.497Z" fill="#E0E0E0"/>
<path d="M222.751 57.9185H136.288V124.497H222.751V57.9185Z" fill="#EBEBEB"/>
<path d="M201.089 124.029C200.991 124.029 200.916 109.193 200.916 90.8909C200.916 72.5813 200.991 57.7449 201.089 57.7449C201.188 57.7449 201.263 72.5813 201.263 90.8909C201.263 109.185 201.188 124.029 201.089 124.029Z" fill="#E0E0E0"/>
<path d="M215.422 109.344H208.796V116.826H215.422V109.344Z" fill="#FAFAFA"/>
<path d="M172.493 58.0923H162.668V72.2945H172.493V58.0923Z" fill="#E0E0E0"/>
<path d="M172.493 110.091H162.668V124.293H172.493V110.091Z" fill="#E0E0E0"/>
<path d="M310.975 134.871H235.956V192.631H310.975V134.871Z" fill="#F5F5F5"/>
<path d="M292.173 192.223C292.09 192.223 292.022 179.349 292.022 163.471C292.022 147.585 292.09 134.712 292.173 134.712C292.257 134.712 292.325 147.585 292.325 163.471C292.325 179.349 292.257 192.223 292.173 192.223Z" fill="#E0E0E0"/>
<path d="M304.607 179.485H298.859V185.979H304.607V179.485Z" fill="#FAFAFA"/>
<path d="M267.366 135.021H258.842V147.344H267.366V135.021Z" fill="#E0E0E0"/>
<path d="M267.366 180.135H258.842V192.457H267.366V180.135Z" fill="#E0E0E0"/>
<path d="M317.624 77.2539H242.604V135.014H317.624V77.2539Z" fill="#EBEBEB"/>
<path d="M298.829 134.606C298.746 134.606 298.678 121.733 298.678 105.854C298.678 89.9685 298.746 77.0952 298.829 77.0952C298.912 77.0952 298.98 89.9685 298.98 105.854C298.98 121.733 298.912 134.606 298.829 134.606Z" fill="#E0E0E0"/>
<path d="M311.263 121.869H305.515V128.362H311.263V121.869Z" fill="#FAFAFA"/>
<path d="M274.014 77.4048H265.49V89.7269H274.014V77.4048Z" fill="#E0E0E0"/>
<path d="M274.014 122.518H265.49V134.84H274.014V122.518Z" fill="#E0E0E0"/>
<path d="M314.818 37.1692H261.141V78.4997H314.818V37.1692Z" fill="#EBEBEB"/>
<path d="M301.37 78.2052C301.31 78.2052 301.264 68.9938 301.264 57.6306C301.264 46.2673 301.31 37.0559 301.37 37.0559C301.431 37.0559 301.476 46.2673 301.476 57.6306C301.476 68.9938 301.431 78.2052 301.37 78.2052Z" fill="#E0E0E0"/>
<path d="M310.264 69.092H306.15V73.7355H310.264V69.092Z" fill="#FAFAFA"/>
<path d="M283.612 37.2749H277.516V46.0937H283.612V37.2749Z" fill="#E0E0E0"/>
<path d="M283.612 69.5601H277.516V78.3788H283.612V69.5601Z" fill="#E0E0E0"/>
<path d="M251.617 142.883C252.358 138.325 256.267 134.961 260.883 134.909C280.886 134.642 331.814 134.185 334.547 136.351C337.952 139.055 339.759 140.439 339.464 144.73C339.215 148.669 334.924 216.71 334.924 216.71H239.594L251.617 142.883Z" fill="#455A64"/>
<path d="M324.048 216.744C324.036 216.675 324.025 216.611 324.019 216.542C324.019 216.397 324.019 216.2 323.972 215.962C323.932 215.43 323.874 214.665 323.804 213.698C323.735 212.731 323.654 211.503 323.608 210.102C323.561 208.7 323.469 207.102 323.469 205.336C323.469 204.449 323.469 203.523 323.44 202.562C323.411 201.6 323.44 200.593 323.474 199.556C323.474 197.477 323.596 195.259 323.694 192.925C323.961 188.257 324.401 183.138 325.113 177.793C325.826 172.447 326.798 167.368 327.789 162.822C328.316 160.546 328.802 158.38 329.347 156.371C329.613 155.369 329.85 154.396 330.117 153.475C330.383 152.554 330.644 151.663 330.887 150.811C331.362 149.109 331.877 147.597 332.294 146.254C332.711 144.91 333.111 143.775 333.453 142.842C333.794 141.91 334.032 141.209 334.217 140.7L334.426 140.121C334.472 139.999 334.501 139.935 334.501 139.935C334.495 140.005 334.478 140.068 334.454 140.132L334.275 140.711C334.107 141.227 333.87 141.951 333.563 142.877C333.256 143.804 332.862 144.956 332.462 146.3C332.063 147.643 331.559 149.161 331.101 150.863C330.858 151.715 330.609 152.601 330.349 153.533C330.088 154.465 329.856 155.438 329.596 156.429C329.063 158.432 328.588 160.604 328.067 162.874C327.088 167.438 326.161 172.488 325.42 177.827C324.679 183.167 324.262 188.251 323.978 192.931C323.874 195.247 323.747 197.477 323.729 199.556C323.729 200.593 323.677 201.594 323.677 202.556C323.677 203.517 323.677 204.444 323.677 205.324C323.677 207.09 323.741 208.689 323.775 210.09C323.81 211.492 323.862 212.696 323.914 213.681C323.967 214.665 324.001 215.418 324.025 215.957C324.025 216.2 324.025 216.397 324.025 216.536C324.036 216.605 324.048 216.675 324.048 216.744Z" fill="#263238"/>
<path d="M270.45 169.158C270.45 169.158 270.496 169.158 270.595 169.1C270.74 169.077 270.89 169.077 271.035 169.1C271.597 169.164 272.101 169.465 272.431 169.922C272.917 170.623 272.975 171.544 272.57 172.297C272.355 172.737 272.037 173.125 271.643 173.414C271.209 173.715 270.699 173.895 270.166 173.93C269.628 173.97 269.089 173.831 268.643 173.53C268.226 173.241 267.942 172.795 267.856 172.291C267.711 171.457 267.983 170.606 268.585 170.009C269.657 169.094 270.601 169.065 270.583 169.152C270.566 169.239 270.531 169.152 270.438 169.152C270.299 169.187 270.166 169.233 270.033 169.291C269.552 169.488 269.112 169.772 268.736 170.131C268.215 170.687 267.989 171.457 268.128 172.21C268.203 172.638 268.452 173.015 268.811 173.258C269.205 173.519 269.674 173.64 270.143 173.6C270.618 173.571 271.075 173.414 271.469 173.142C271.834 172.887 272.124 172.546 272.321 172.146C272.697 171.48 272.668 170.658 272.257 170.015C271.967 169.586 271.527 169.291 271.023 169.187C270.832 169.164 270.641 169.152 270.45 169.158Z" fill="#263238"/>
<path d="M285.397 160.512C285.397 160.575 284.413 160.396 282.837 160.541C278.656 160.911 274.99 163.488 273.224 167.299C272.546 168.729 272.384 169.708 272.321 169.696C272.326 169.465 272.367 169.233 272.431 169.007C272.564 168.393 272.761 167.791 273.01 167.212C274.718 163.257 278.511 160.604 282.814 160.349C283.445 160.309 284.083 160.326 284.708 160.402C284.94 160.407 285.171 160.442 285.397 160.512Z" fill="#263238"/>
<path d="M257.75 178.215C257.802 178.042 257.877 177.874 257.976 177.723C258.213 177.295 258.497 176.889 258.815 176.519C260.952 173.953 264.346 172.795 267.607 173.519C268.087 173.623 268.556 173.774 269.008 173.965C269.176 174.028 269.338 174.109 269.489 174.214C269.489 174.272 268.771 173.941 267.566 173.727C264.387 173.148 261.132 174.254 258.972 176.658C258.155 177.561 257.802 178.244 257.75 178.215Z" fill="#263238"/>
<path d="M276.195 180.584C275.83 180.404 275.5 180.167 275.216 179.877C274.486 179.223 273.849 178.47 273.322 177.648C272.79 176.825 272.378 175.934 272.089 175.001C271.938 174.625 271.863 174.219 271.851 173.814C272.315 175.088 272.894 176.322 273.589 177.486C274.365 178.592 275.234 179.628 276.195 180.584Z" fill="#263238"/>
<path d="M302.638 169.963C302.638 169.963 302.684 169.934 302.782 169.905C302.927 169.882 303.078 169.882 303.222 169.905C303.784 169.969 304.288 170.27 304.618 170.727C305.099 171.434 305.157 172.343 304.763 173.102C304.549 173.542 304.224 173.93 303.831 174.219C303.396 174.52 302.887 174.7 302.354 174.735C301.815 174.775 301.277 174.636 300.831 174.335C300.414 174.04 300.13 173.6 300.043 173.096C299.881 172.25 300.153 171.382 300.767 170.774C301.838 169.864 302.782 169.83 302.765 169.916C302.748 170.003 302.713 169.916 302.62 169.945C302.481 169.98 302.348 170.026 302.215 170.084C301.734 170.281 301.294 170.565 300.918 170.924C300.408 171.486 300.194 172.256 300.338 173.003C300.42 173.432 300.663 173.808 301.022 174.051C301.416 174.312 301.885 174.434 302.354 174.393C302.829 174.364 303.286 174.208 303.68 173.936C304.045 173.681 304.334 173.339 304.531 172.939C304.908 172.273 304.879 171.451 304.468 170.808C304.178 170.38 303.738 170.084 303.234 169.98C303.037 169.957 302.834 169.951 302.638 169.963Z" fill="#263238"/>
<path d="M317.562 161.316C317.562 161.38 316.577 161.201 315.002 161.345C310.826 161.716 307.166 164.282 305.4 168.081C304.722 169.511 304.56 170.49 304.497 170.478C304.502 170.247 304.543 170.015 304.607 169.789C304.74 169.175 304.937 168.573 305.186 167.994C306.894 164.044 310.682 161.386 314.979 161.131C315.61 161.091 316.247 161.108 316.872 161.183C317.11 161.195 317.342 161.241 317.562 161.316Z" fill="#263238"/>
<path d="M289.937 179.02C289.989 178.847 290.065 178.679 290.163 178.528C290.406 178.099 290.684 177.7 291.003 177.323C293.146 174.764 296.534 173.611 299.794 174.324C300.275 174.428 300.744 174.578 301.201 174.77C301.369 174.827 301.531 174.914 301.676 175.024C301.676 175.076 300.958 174.746 299.753 174.532C296.574 173.953 293.325 175.059 291.165 177.462C290.343 178.366 289.989 179.049 289.937 179.02Z" fill="#263238"/>
<path d="M308.382 181.389C308.018 181.209 307.688 180.972 307.404 180.682C306.68 180.028 306.043 179.275 305.51 178.453C304.977 177.63 304.566 176.739 304.277 175.806C304.132 175.436 304.051 175.048 304.039 174.648C304.502 175.922 305.081 177.15 305.776 178.314C306.552 179.414 307.421 180.445 308.382 181.389Z" fill="#263238"/>
<path d="M127.631 212.706C127.126 212.136 127.118 211.758 127.158 211.575C127.176 211.496 127.206 211.432 127.238 211.384L134.748 212.638C134.763 212.646 134.78 212.655 134.799 212.665C134.873 212.705 134.979 212.766 135.104 212.846C135.356 213.007 135.67 213.237 135.942 213.52C136.217 213.805 136.424 214.119 136.505 214.446C136.583 214.755 136.559 215.115 136.302 215.543C136.133 215.825 135.717 216.014 134.901 215.961C134.117 215.91 133.136 215.641 132.126 215.251C131.121 214.864 130.118 214.37 129.297 213.894C128.458 213.407 127.864 212.969 127.631 212.706ZM127.306 211.304C127.312 211.3 127.311 211.301 127.305 211.305C127.306 211.305 127.306 211.305 127.306 211.304Z" fill="white" stroke="#263238"/>
<mask id="path-52-inside-1" fill="white">
<path d="M134.808 208.538C134.808 208.538 142.047 207.739 145.001 208.115C148.203 208.526 151.603 206.911 153.618 204.698C154.88 203.233 155.755 201.473 156.16 199.579L160.793 196.359C160.793 196.359 161.291 185.408 153.989 187.174L145.458 187.475C145.458 187.475 128.664 190.255 126.069 192.346C126.069 192.346 122.907 195.421 121.986 196.608C121.639 197.06 121.343 201.571 124.552 203.112C124.552 203.112 122.658 205.527 124.326 206.893L125.108 207.472C125.108 207.472 124.025 209.887 125.044 210.577C126.063 211.266 134.119 213.71 136.406 212.117C138.694 210.524 136.042 208.689 134.831 208.526"/>
</mask>
<path d="M134.808 208.538C134.808 208.538 142.047 207.739 145.001 208.115C148.203 208.526 151.603 206.911 153.618 204.698C154.88 203.233 155.755 201.473 156.16 199.579L160.793 196.359C160.793 196.359 161.291 185.408 153.989 187.174L145.458 187.475C145.458 187.475 128.664 190.255 126.069 192.346C126.069 192.346 122.907 195.421 121.986 196.608C121.639 197.06 121.343 201.571 124.552 203.112C124.552 203.112 122.658 205.527 124.326 206.893L125.108 207.472C125.108 207.472 124.025 209.887 125.044 210.577C126.063 211.266 134.119 213.71 136.406 212.117C138.694 210.524 136.042 208.689 134.831 208.526" fill="white"/>
<path d="M145.001 208.115L145.128 207.123L145.127 207.123L145.001 208.115ZM153.618 204.698L154.357 205.372L154.366 205.362L154.375 205.351L153.618 204.698ZM156.16 199.579L155.59 198.758L155.265 198.983L155.182 199.37L156.16 199.579ZM160.793 196.359L161.364 197.18L161.77 196.898L161.792 196.405L160.793 196.359ZM153.989 187.174L154.024 188.174L154.125 188.17L154.224 188.146L153.989 187.174ZM145.458 187.475L145.423 186.476L145.358 186.478L145.295 186.489L145.458 187.475ZM126.069 192.346L125.442 191.567L125.405 191.596L125.372 191.629L126.069 192.346ZM121.986 196.608L121.196 195.995L121.194 195.998L121.986 196.608ZM124.552 203.112L125.339 203.729L126.107 202.749L124.985 202.21L124.552 203.112ZM124.326 206.893L123.692 207.667L123.711 207.682L123.731 207.697L124.326 206.893ZM125.108 207.472L126.02 207.882L126.349 207.148L125.703 206.669L125.108 207.472ZM134.808 208.538C134.918 209.532 134.918 209.532 134.918 209.532C134.918 209.532 134.918 209.532 134.918 209.532C134.918 209.532 134.918 209.532 134.919 209.532C134.919 209.532 134.921 209.532 134.922 209.532C134.925 209.531 134.93 209.531 134.937 209.53C134.95 209.528 134.97 209.526 134.997 209.523C135.049 209.518 135.127 209.51 135.228 209.499C135.429 209.478 135.721 209.449 136.08 209.415C136.799 209.346 137.788 209.259 138.867 209.183C141.061 209.029 143.511 208.934 144.874 209.107L145.127 207.123C143.537 206.921 140.891 207.036 138.727 207.188C137.627 207.265 136.621 207.354 135.89 207.424C135.525 207.458 135.228 207.488 135.022 207.51C134.919 207.52 134.838 207.529 134.783 207.535C134.756 207.538 134.735 207.54 134.721 207.542C134.713 207.542 134.708 207.543 134.704 207.543C134.702 207.544 134.701 207.544 134.7 207.544C134.699 207.544 134.699 207.544 134.699 207.544C134.699 207.544 134.699 207.544 134.698 207.544C134.698 207.544 134.698 207.544 134.808 208.538ZM144.873 209.107C148.463 209.568 152.169 207.774 154.357 205.372L152.879 204.025C151.036 206.048 147.943 207.485 145.128 207.123L144.873 209.107ZM154.375 205.351C155.747 203.759 156.698 201.846 157.138 199.788L155.182 199.37C154.812 201.1 154.013 202.708 152.86 204.046L154.375 205.351ZM156.731 200.4L161.364 197.18L160.222 195.538L155.59 198.758L156.731 200.4ZM160.793 196.359C161.792 196.405 161.792 196.404 161.792 196.404C161.792 196.404 161.792 196.403 161.792 196.403C161.792 196.402 161.792 196.401 161.792 196.4C161.792 196.398 161.793 196.395 161.793 196.391C161.793 196.384 161.793 196.375 161.794 196.363C161.795 196.338 161.796 196.304 161.797 196.26C161.799 196.172 161.801 196.047 161.8 195.89C161.8 195.576 161.79 195.133 161.755 194.608C161.684 193.567 161.51 192.167 161.084 190.805C160.662 189.458 159.958 188.037 158.754 187.081C157.5 186.085 155.836 185.699 153.753 186.202L154.224 188.146C155.793 187.767 156.804 188.086 157.511 188.647C158.267 189.248 158.809 190.234 159.175 191.403C159.537 192.558 159.695 193.786 159.759 194.743C159.791 195.217 159.8 195.616 159.8 195.894C159.801 196.033 159.799 196.141 159.797 196.213C159.796 196.249 159.796 196.276 159.795 196.293C159.795 196.301 159.794 196.308 159.794 196.311C159.794 196.313 159.794 196.314 159.794 196.314C159.794 196.315 159.794 196.315 159.794 196.314C159.794 196.314 159.794 196.314 159.794 196.314C159.794 196.314 159.794 196.314 160.793 196.359ZM153.953 186.175L145.423 186.476L145.493 188.475L154.024 188.174L153.953 186.175ZM145.458 187.475C145.295 186.489 145.295 186.489 145.294 186.489C145.294 186.489 145.294 186.489 145.294 186.489C145.293 186.489 145.292 186.489 145.291 186.489C145.289 186.49 145.286 186.49 145.282 186.491C145.273 186.492 145.261 186.494 145.245 186.497C145.213 186.503 145.165 186.511 145.102 186.521C144.978 186.542 144.795 186.573 144.561 186.613C144.095 186.694 143.425 186.811 142.615 186.959C140.994 187.253 138.803 187.668 136.53 188.148C134.259 188.628 131.89 189.177 129.918 189.741C128.933 190.023 128.031 190.313 127.284 190.605C126.561 190.887 125.892 191.204 125.442 191.567L126.697 193.124C126.894 192.965 127.318 192.738 128.011 192.468C128.678 192.207 129.514 191.937 130.468 191.664C132.375 191.119 134.691 190.581 136.943 190.105C139.192 189.629 141.363 189.219 142.972 188.926C143.776 188.78 144.44 188.664 144.901 188.584C145.132 188.545 145.313 188.514 145.435 188.493C145.497 188.483 145.543 188.475 145.575 188.47C145.59 188.467 145.602 188.465 145.61 188.464C145.614 188.463 145.617 188.463 145.619 188.462C145.62 188.462 145.62 188.462 145.621 188.462C145.621 188.462 145.621 188.462 145.621 188.462C145.621 188.462 145.621 188.462 145.458 187.475ZM126.069 192.346C125.372 191.629 125.372 191.629 125.372 191.629C125.372 191.629 125.372 191.629 125.372 191.629C125.372 191.629 125.371 191.629 125.371 191.63C125.371 191.63 125.37 191.631 125.369 191.631C125.368 191.633 125.365 191.635 125.362 191.638C125.356 191.644 125.347 191.653 125.335 191.665C125.311 191.688 125.276 191.722 125.232 191.766C125.143 191.853 125.015 191.979 124.858 192.133C124.545 192.442 124.118 192.867 123.661 193.329C122.767 194.235 121.7 195.345 121.196 195.995L122.776 197.221C123.193 196.684 124.168 195.663 125.085 194.734C125.534 194.28 125.954 193.861 126.263 193.557C126.417 193.404 126.544 193.28 126.631 193.195C126.675 193.152 126.709 193.119 126.732 193.096C126.743 193.085 126.752 193.077 126.758 193.071C126.761 193.068 126.763 193.066 126.764 193.065C126.765 193.064 126.765 193.063 126.766 193.063C126.766 193.063 126.766 193.063 126.766 193.063C126.766 193.063 126.766 193.063 126.766 193.063C126.766 193.063 126.766 193.063 126.069 192.346ZM121.194 195.998C121.077 196.151 121.013 196.311 120.979 196.407C120.94 196.519 120.91 196.637 120.886 196.752C120.838 196.982 120.806 197.253 120.791 197.547C120.76 198.135 120.796 198.875 120.956 199.653C121.274 201.194 122.125 203.056 124.119 204.013L124.985 202.21C123.771 201.627 123.165 200.463 122.915 199.25C122.792 198.652 122.766 198.083 122.788 197.65C122.799 197.433 122.822 197.266 122.844 197.157C122.856 197.102 122.864 197.075 122.866 197.07C122.873 197.05 122.852 197.122 122.779 197.218L121.194 195.998ZM124.552 203.112C123.765 202.495 123.765 202.495 123.764 202.495C123.764 202.495 123.764 202.496 123.764 202.496C123.764 202.496 123.763 202.497 123.763 202.497C123.762 202.498 123.761 202.499 123.76 202.501C123.758 202.503 123.755 202.507 123.753 202.511C123.747 202.518 123.739 202.528 123.73 202.541C123.711 202.565 123.687 202.599 123.657 202.641C123.598 202.725 123.518 202.843 123.429 202.989C123.254 203.275 123.031 203.688 122.867 204.166C122.549 205.096 122.376 206.588 123.692 207.667L124.96 206.12C124.608 205.832 124.548 205.433 124.76 204.814C124.861 204.518 125.007 204.241 125.135 204.032C125.198 203.93 125.253 203.848 125.29 203.795C125.309 203.768 125.324 203.749 125.332 203.738C125.336 203.732 125.339 203.728 125.34 203.727C125.341 203.726 125.341 203.726 125.341 203.726C125.341 203.726 125.34 203.727 125.34 203.727C125.34 203.727 125.34 203.728 125.339 203.728C125.339 203.728 125.339 203.728 125.339 203.728C125.339 203.729 125.339 203.729 124.552 203.112ZM123.731 207.697L124.512 208.276L125.703 206.669L124.921 206.09L123.731 207.697ZM125.108 207.472C124.195 207.063 124.195 207.064 124.195 207.064C124.195 207.064 124.195 207.064 124.195 207.064C124.195 207.065 124.195 207.065 124.194 207.065C124.194 207.066 124.194 207.067 124.193 207.068C124.192 207.071 124.191 207.074 124.189 207.077C124.186 207.084 124.182 207.093 124.177 207.105C124.167 207.127 124.154 207.159 124.138 207.198C124.106 207.277 124.062 207.387 124.014 207.521C123.918 207.785 123.799 208.157 123.715 208.563C123.632 208.958 123.57 209.448 123.632 209.929C123.695 210.416 123.906 211.014 124.484 211.405L125.604 209.748C125.672 209.794 125.636 209.833 125.616 209.673C125.594 209.507 125.611 209.264 125.673 208.97C125.732 208.686 125.819 208.41 125.895 208.2C125.932 208.097 125.965 208.013 125.988 207.957C126 207.929 126.009 207.908 126.014 207.895C126.017 207.889 126.019 207.884 126.02 207.882C126.021 207.881 126.021 207.88 126.021 207.88C126.021 207.88 126.021 207.88 126.021 207.88C126.021 207.881 126.021 207.881 126.02 207.881C126.02 207.881 126.02 207.881 126.02 207.881C126.02 207.881 126.02 207.882 125.108 207.472ZM124.484 211.405C124.707 211.556 125.032 211.703 125.358 211.834C125.707 211.974 126.138 212.128 126.621 212.284C127.588 212.595 128.797 212.925 130.049 213.182C131.295 213.438 132.616 213.628 133.795 213.645C134.92 213.661 136.131 213.527 136.978 212.938L135.835 211.296C135.538 211.503 134.884 211.661 133.824 211.645C132.817 211.631 131.631 211.465 130.451 211.223C129.275 210.982 128.136 210.671 127.234 210.38C126.783 210.235 126.399 210.097 126.104 209.978C125.957 209.919 125.837 209.867 125.747 209.823C125.701 209.801 125.666 209.783 125.641 209.769C125.614 209.755 125.603 209.747 125.604 209.748L124.484 211.405ZM136.978 212.938C137.691 212.441 138.182 211.808 138.286 211.041C138.389 210.285 138.083 209.637 137.719 209.171C137.355 208.703 136.87 208.33 136.407 208.065C135.951 207.803 135.434 207.598 134.964 207.535L134.698 209.518C134.834 209.536 135.102 209.621 135.412 209.799C135.715 209.973 135.978 210.189 136.142 210.4C136.307 210.612 136.31 210.731 136.305 210.772C136.3 210.803 136.265 210.997 135.835 211.296L136.978 212.938Z" fill="#263238" mask="url(#path-52-inside-1)"/>
<path d="M125.785 202.683C126.104 202.695 126.417 202.729 126.729 202.787C127.337 202.863 128.218 202.973 129.312 203.054C129.857 203.088 130.47 203.123 131.096 203.135C131.721 203.146 132.422 203.135 133.158 203.187C133.945 203.21 134.715 203.453 135.376 203.888C136.111 204.38 136.528 205.231 136.459 206.117C136.389 206.569 136.157 206.98 135.81 207.276C135.486 207.548 135.115 207.756 134.715 207.884C133.98 208.109 133.221 208.254 132.451 208.306C131.16 208.405 129.862 208.382 128.577 208.231C127.482 208.115 126.608 207.97 126.005 207.866C125.687 207.832 125.374 207.762 125.067 207.669C125.386 207.675 125.704 207.698 126.017 207.75C126.631 207.82 127.511 207.93 128.6 208.017C129.874 208.127 131.148 208.127 132.422 208.017C133.169 207.959 133.905 207.82 134.617 207.594C134.982 207.472 135.318 207.287 135.613 207.044C135.903 206.795 136.094 206.453 136.157 206.077C136.21 205.301 135.845 204.559 135.202 204.125C134.588 203.72 133.87 203.494 133.134 203.459C132.428 203.395 131.733 203.419 131.09 203.384C130.447 203.349 129.839 203.32 129.289 203.262C128.194 203.158 127.32 203.019 126.712 202.903C126.399 202.863 126.086 202.787 125.785 202.683Z" fill="#263238"/>
<path d="M125.195 197.454C125.513 197.465 125.826 197.5 126.139 197.558C126.718 197.639 127.621 197.755 128.704 197.847C129.787 197.94 131.084 198.015 132.526 198.015C133.302 197.952 134.09 198.067 134.814 198.357C135.208 198.554 135.515 198.884 135.683 199.289C135.845 199.701 135.885 200.152 135.804 200.587C135.613 201.432 135.086 202.156 134.339 202.596C133.673 203.002 132.92 203.245 132.138 203.309C130.853 203.361 129.561 203.303 128.287 203.129L125.716 202.868C125.397 202.851 125.085 202.805 124.772 202.729C125.09 202.706 125.403 202.706 125.722 202.729L128.304 202.897C129.567 203.036 130.841 203.071 132.109 203.007C132.845 202.938 133.551 202.706 134.183 202.318C134.854 201.924 135.335 201.27 135.503 200.511C135.683 199.759 135.347 198.977 134.675 198.594C133.991 198.328 133.256 198.212 132.526 198.27C131.073 198.27 129.775 198.16 128.687 198.039C127.598 197.917 126.723 197.766 126.121 197.651C125.808 197.61 125.496 197.546 125.195 197.454Z" fill="#263238"/>
<path d="M128.93 198.091C128.675 197.662 128.461 197.216 128.276 196.753C128.003 196.336 127.772 195.896 127.581 195.438C127.638 195.38 128.16 195.855 128.542 196.597C128.826 197.037 128.959 197.564 128.93 198.091Z" fill="#263238"/>
<path d="M148.979 198.039L148.834 198.079L148.388 198.143C147.809 198.189 147.23 198.189 146.651 198.143C145.748 198.068 144.85 197.906 143.97 197.668C142.8 197.373 141.671 196.933 140.605 196.359C139.319 195.618 138.277 194.523 137.588 193.209C137.229 192.479 136.916 191.726 136.661 190.956C136.626 190.869 136.58 190.782 136.534 190.701C136.476 190.643 136.406 190.603 136.331 190.574C136.14 190.499 135.949 190.429 135.752 190.371C135.347 190.244 134.93 190.134 134.501 190.024C132.798 189.578 130.997 189.149 129.156 188.611C128.235 188.338 127.303 188.031 126.376 187.667C125.907 187.481 125.449 187.255 125.015 186.995C124.789 186.856 124.575 186.694 124.39 186.503C124.291 186.398 124.21 186.277 124.152 186.149C124.088 186.016 124.071 185.895 124.025 185.773C123.845 185.263 123.81 184.719 123.932 184.192C124.019 183.937 124.164 183.705 124.349 183.509C124.424 183.427 124.488 183.341 124.54 183.242C124.54 183.242 124.54 183.242 124.587 183.167C124.615 183.132 124.656 183.109 124.697 183.097C124.737 183.092 124.783 183.092 124.824 183.097H125.027C126.034 183.161 126.99 183.329 127.922 183.48C129.816 183.792 131.634 184.128 133.366 184.458C136.841 185.113 139.933 185.738 142.545 186.277C143.194 186.404 143.819 186.555 144.404 186.653L146.084 186.885L148.765 187.267L150.462 187.522L150.902 187.597L151.052 187.632C151 187.643 150.948 187.643 150.896 187.632L150.456 187.591L148.747 187.389L146.055 187.059L144.369 186.844C143.79 186.752 143.159 186.613 142.505 186.491L133.314 184.754C131.577 184.435 129.764 184.099 127.876 183.792C126.932 183.648 125.959 183.48 124.98 183.416H124.807H124.749C124.749 183.416 124.749 183.37 124.72 183.346C124.946 183.427 124.778 183.346 124.83 183.398C124.772 183.526 124.691 183.642 124.592 183.74C124.43 183.908 124.309 184.105 124.233 184.319C124.135 184.788 124.17 185.275 124.332 185.721C124.378 185.947 124.482 186.161 124.633 186.335C124.807 186.503 125.003 186.653 125.212 186.775C125.635 187.024 126.075 187.244 126.527 187.423C127.436 187.794 128.357 188.089 129.277 188.362C131.107 188.906 132.903 189.334 134.605 189.786C135.034 189.902 135.457 190.018 135.868 190.145C136.076 190.203 136.285 190.278 136.482 190.365C136.603 190.412 136.713 190.487 136.794 190.585C136.858 190.678 136.91 190.782 136.951 190.892C137.2 191.657 137.507 192.404 137.86 193.128C138.514 194.408 139.516 195.479 140.756 196.209C141.798 196.782 142.904 197.234 144.057 197.541C144.919 197.79 145.806 197.963 146.703 198.056C147.271 198.114 147.838 198.137 148.406 198.114C148.603 198.114 148.753 198.114 148.852 198.114L148.979 198.039Z" fill="#263238"/>
<path d="M132.7 208.196C132.937 208.167 133.181 208.179 133.412 208.231C134.055 208.324 134.686 208.509 135.277 208.781C135.688 208.972 136.076 209.204 136.435 209.476C136.887 209.789 137.2 210.275 137.292 210.82C137.321 211.451 136.985 212.042 136.435 212.349C135.874 212.656 135.231 212.789 134.594 212.731C132.463 212.615 130.349 212.302 128.275 211.799C127.482 211.596 126.851 211.387 126.422 211.219C126.196 211.15 125.976 211.051 125.768 210.936C126.005 210.965 126.231 211.023 126.457 211.104C126.897 211.231 127.528 211.405 128.322 211.578C130.389 212.019 132.491 212.302 134.605 212.418C135.184 212.476 135.764 212.36 136.279 212.088C136.742 211.845 137.026 211.358 137.014 210.831C136.933 210.362 136.667 209.945 136.279 209.673C135.937 209.401 135.567 209.169 135.173 208.978C134.385 208.613 133.557 208.347 132.7 208.196Z" fill="#263238"/>
<path d="M183.055 168.66C183.055 168.66 191.631 154.541 193.56 145.223C195.488 135.905 205.449 121.12 208.687 117.263C211.924 113.406 224.757 108.912 224.757 108.912L229.494 106.352L266.205 103.126C266.205 103.126 290.627 105.698 298.022 112.444C305.417 119.191 311.191 134.619 311.191 142.327C311.191 150.035 318.656 216.825 318.656 216.825L228.191 216.709L230.218 183.781C230.218 183.781 219.29 176.391 216.401 169.963C213.511 163.534 215.115 166.749 215.115 166.749C215.115 166.749 204.859 188.552 201.326 191.124C197.793 193.695 156.705 206.303 156.705 206.303L151.081 184.742L183.055 168.66Z" fill="#90CAF9"/>
<path d="M289.862 115.137C288.872 115.444 276.618 147.093 275.755 149.971C274.892 152.85 275.755 170.988 275.755 170.988L279.808 178.476C279.808 178.476 278.65 183.943 279.519 186.537L261.381 190.012C261.381 190.012 256.777 186.844 252.457 190.012L231.029 191.825C231.029 191.825 237.313 191.894 235.442 201.531C233.612 210.97 232.216 213.044 232.216 213.044L307.415 211.306C307.415 211.306 315.772 210.889 314.498 194.824C313.224 178.76 309.639 134.445 309.639 134.445C309.639 134.445 304.161 110.701 289.862 115.137Z" fill="#90CAF9"/>
<path d="M275.587 168.457C275.511 168.336 275.448 168.208 275.407 168.069L274.95 166.911C274.753 166.419 274.515 165.811 274.284 165.087C274.052 164.363 273.745 163.558 273.502 162.637C273.259 161.716 272.923 160.714 272.697 159.62C272.471 158.525 272.199 157.355 271.967 156.145C271.498 153.446 271.203 150.719 271.081 147.985C270.994 145.246 271.075 142.507 271.33 139.779C271.481 138.528 271.602 137.335 271.805 136.229C271.898 135.65 271.973 135.14 272.077 134.625C272.182 134.109 272.286 133.629 272.384 133.16C272.57 132.227 272.807 131.422 272.998 130.658C273.189 129.893 273.369 129.303 273.537 128.793C273.705 128.284 273.82 127.924 273.913 127.635C273.954 127.496 274.006 127.363 274.064 127.229C274.052 127.374 274.017 127.513 273.971 127.652C273.89 127.948 273.78 128.341 273.647 128.811C273.514 129.28 273.322 129.969 273.16 130.687C272.998 131.405 272.761 132.25 272.581 133.189C272.488 133.658 272.396 134.144 272.297 134.654C272.199 135.163 272.129 135.696 272.043 136.246C271.851 137.353 271.736 138.563 271.597 139.791C271.081 145.223 271.295 150.701 272.228 156.076C272.454 157.315 272.662 158.49 272.929 159.55C273.195 160.61 273.444 161.647 273.693 162.568C273.942 163.488 274.214 164.305 274.434 165.023C274.654 165.741 274.869 166.361 275.048 166.859L275.454 168.017C275.506 168.156 275.552 168.307 275.587 168.457Z" fill="#263238"/>
<path d="M301.751 202.782C301.751 202.782 301.676 202.712 301.555 202.562L301.056 201.896C300.842 201.6 300.576 201.247 300.251 200.853C299.927 200.459 299.574 199.99 299.14 199.51C298.705 199.029 298.248 198.49 297.715 197.952C297.182 197.413 296.603 196.84 295.978 196.255C294.611 195.004 293.163 193.846 291.646 192.78C290.117 191.738 288.524 190.794 286.874 189.954C286.104 189.584 285.38 189.219 284.673 188.935C283.967 188.651 283.318 188.356 282.716 188.153C282.113 187.95 281.557 187.754 281.065 187.574C280.573 187.394 280.156 187.284 279.808 187.192L279.009 186.954C278.911 186.931 278.818 186.896 278.731 186.85C278.83 186.856 278.928 186.867 279.021 186.896L279.837 187.076C280.191 187.157 280.619 187.261 281.117 187.412C281.615 187.562 282.177 187.713 282.785 187.945C283.393 188.176 284.071 188.391 284.772 188.692C285.472 188.993 286.219 189.329 286.995 189.694C288.669 190.522 290.279 191.466 291.819 192.52C293.343 193.591 294.796 194.761 296.163 196.029C296.783 196.608 297.373 197.187 297.9 197.767C298.427 198.346 298.891 198.861 299.308 199.359C299.724 199.857 300.072 200.332 300.39 200.737C300.709 201.143 300.97 201.513 301.155 201.815C301.34 202.116 301.491 202.324 301.612 202.515C301.67 202.596 301.717 202.683 301.751 202.782Z" fill="#263238"/>
<path d="M308.081 198.571C308.035 198.612 307.369 197.853 306.118 196.834C305.383 196.238 304.612 195.699 303.802 195.213C302.8 194.628 301.757 194.124 300.68 193.701C299.597 193.301 298.479 192.989 297.344 192.763C296.418 192.589 295.474 192.479 294.53 192.433C292.914 192.369 291.912 192.491 291.906 192.433C292.132 192.369 292.37 192.329 292.607 192.317C292.879 192.276 293.157 192.253 293.435 192.242C293.76 192.242 294.124 192.201 294.536 192.242C295.497 192.259 296.452 192.352 297.396 192.514C298.549 192.722 299.684 193.035 300.784 193.446C301.885 193.869 302.939 194.39 303.946 194.998C304.763 195.502 305.539 196.064 306.263 196.689C306.581 196.95 306.842 197.216 307.068 197.442C307.27 197.622 307.467 197.819 307.647 198.021C307.809 198.189 307.96 198.369 308.081 198.571Z" fill="#263238"/>
<path d="M301.126 187.979C301.091 188.031 300.205 187.325 298.584 186.526C298.144 186.306 297.692 186.115 297.229 185.947C296.742 185.738 296.198 185.582 295.63 185.402C293.134 184.684 290.516 184.505 287.945 184.875C287.366 184.974 286.787 185.055 286.289 185.194C285.808 185.304 285.333 185.437 284.864 185.599C283.127 186.178 282.177 186.757 282.148 186.688C282.357 186.526 282.588 186.393 282.826 186.277C283.092 186.12 283.37 185.981 283.654 185.86C284.03 185.686 284.418 185.53 284.812 185.396C285.281 185.223 285.756 185.072 286.243 184.956C286.793 184.806 287.354 184.684 287.922 184.597C290.528 184.192 293.198 184.377 295.723 185.136C296.273 185.298 296.812 185.489 297.339 185.715C297.808 185.895 298.259 186.109 298.699 186.346C299.064 186.532 299.423 186.74 299.765 186.966C300.031 187.122 300.286 187.296 300.53 187.487C300.744 187.626 300.946 187.788 301.126 187.979Z" fill="#263238"/>
<path d="M257.148 211.712C257.391 210.652 257.57 209.575 257.68 208.492C257.773 207.316 257.761 206.129 257.651 204.953C257.512 203.511 257.258 202.087 256.898 200.685C256.516 199.301 256.036 197.946 255.456 196.631C254.958 195.554 254.379 194.523 253.719 193.539C253.088 192.653 252.404 191.796 251.675 190.985C251.912 191.159 252.132 191.356 252.341 191.564C252.596 191.801 252.827 192.056 253.047 192.328L253.464 192.821C253.609 193.006 253.742 193.203 253.893 193.4C254.582 194.379 255.184 195.415 255.688 196.498C256.916 199.162 257.669 202.017 257.912 204.942C258.01 206.135 257.999 207.333 257.877 208.521C257.848 208.775 257.819 209.013 257.796 209.245L257.669 209.882C257.617 210.223 257.536 210.559 257.425 210.889C257.356 211.167 257.263 211.445 257.148 211.712Z" fill="#263238"/>
<path d="M244.54 189.977C244.523 189.925 244.511 189.867 244.505 189.809C244.505 189.682 244.459 189.52 244.424 189.317C244.36 188.86 244.268 188.223 244.152 187.412C243.915 185.755 243.608 183.358 243.249 180.381C242.536 174.445 241.685 166.222 241.019 157.118C240.353 148.014 240.005 139.744 239.861 133.773C239.78 130.785 239.739 128.365 239.727 126.691C239.727 125.874 239.727 125.226 239.727 124.768V124.264C239.681 124.253 239.652 124.206 239.658 124.16C239.664 124.114 239.716 124.085 239.762 124.091C239.809 124.096 239.837 124.148 239.832 124.195C239.826 124.23 239.797 124.253 239.762 124.264C239.762 124.398 239.762 124.56 239.762 124.768C239.762 125.226 239.797 125.868 239.826 126.691C239.878 128.382 239.953 130.797 240.046 133.768C240.26 139.744 240.625 147.997 241.303 157.101C241.98 166.204 242.785 174.416 243.445 180.358C243.781 183.312 244.059 185.709 244.25 187.394C244.343 188.211 244.413 188.848 244.465 189.311C244.465 189.514 244.505 189.676 244.517 189.809C244.528 189.861 244.54 189.919 244.54 189.977Z" fill="#263238"/>
<path d="M214.999 167.166C214.848 166.882 214.715 166.587 214.605 166.28C214.374 165.7 214.026 164.872 213.592 163.847C212.723 161.803 211.426 159.017 209.874 155.994C208.322 152.971 206.92 150.29 205.872 148.275C205.368 147.279 204.963 146.474 204.714 145.912C204.563 145.622 204.43 145.327 204.326 145.02C204.517 145.281 204.679 145.564 204.818 145.854L206.075 148.17C207.129 150.128 208.611 152.803 210.163 155.855C211.715 158.907 212.984 161.687 213.806 163.76C214.217 164.797 214.536 165.643 214.733 166.233C214.848 166.534 214.935 166.847 214.999 167.166Z" fill="#263238"/>
<path d="M210.378 156.464C210.198 156.458 210.019 156.423 209.851 156.365C209.521 156.284 209.046 156.145 208.461 155.954C205.426 154.946 202.542 153.522 199.901 151.715C199.398 151.367 198.998 151.072 198.743 150.858C198.598 150.759 198.465 150.638 198.349 150.504C198.928 150.817 199.49 151.165 200.035 151.535C201.065 152.184 202.513 153.035 204.181 153.852C205.849 154.668 207.401 155.311 208.542 155.74C209.167 155.948 209.781 156.191 210.378 156.464Z" fill="#263238"/>
<path d="M202.612 176.24C202.392 176.142 202.177 176.015 201.986 175.864C201.604 175.603 201.036 175.233 200.324 174.804C196.612 172.54 192.5 170.999 188.215 170.27C187.392 170.125 186.726 170.032 186.263 169.974C186.02 169.963 185.777 169.922 185.545 169.853C185.788 169.824 186.031 169.824 186.275 169.853C186.738 169.853 187.433 169.934 188.249 170.05C190.427 170.357 192.564 170.901 194.62 171.671C196.67 172.441 198.627 173.426 200.469 174.613C201.17 175.076 201.72 175.47 202.085 175.771C202.276 175.91 202.449 176.067 202.612 176.24Z" fill="#263238"/>
<path d="M265.226 103.178C265.221 103.335 265.209 103.491 265.192 103.648C265.151 103.983 265.099 104.429 265.035 104.991C264.885 106.149 264.676 107.84 264.323 109.914C263.923 112.346 263.385 114.749 262.701 117.118C261.867 120.025 260.645 122.805 259.07 125.388C258.19 126.772 257.182 128.069 256.053 129.256L255.937 129.384L255.827 129.239C254.379 127.31 252.497 125.747 250.331 124.681C249.405 124.224 248.438 123.87 247.436 123.616C246.573 123.407 245.687 123.291 244.801 123.262C243.527 123.216 242.258 123.396 241.048 123.789C240.208 124.085 239.762 124.305 239.751 124.276C239.849 124.212 239.959 124.154 240.069 124.108C240.376 123.946 240.689 123.807 241.013 123.691C242.229 123.251 243.515 123.042 244.806 123.071C245.71 123.083 246.613 123.193 247.494 123.396C248.513 123.639 249.503 123.992 250.447 124.45C252.665 125.521 254.588 127.114 256.065 129.083H255.839C256.951 127.907 257.947 126.627 258.815 125.26C260.379 122.701 261.601 119.95 262.447 117.072C263.136 114.72 263.697 112.329 264.126 109.914C264.508 107.852 264.746 106.167 264.931 105.008C265.018 104.429 265.093 104.007 265.145 103.677C265.151 103.509 265.18 103.341 265.226 103.178Z" fill="#263238"/>
<path d="M265.719 103.543L260.142 96.1479L254.078 96.3391L234.376 106.746L265.719 103.543Z" fill="#90CAF9"/>
<path d="M239.739 124.276C239.635 124.287 239.525 124.287 239.421 124.276C239.114 124.247 238.813 124.195 238.511 124.125C237.411 123.841 236.363 123.39 235.402 122.793C234.753 122.382 234.035 122.087 233.288 121.919C232.425 121.733 231.533 121.733 230.67 121.919C228.666 122.37 227.022 123.801 226.298 125.724L225.985 126.569V125.666C225.985 125.44 225.985 125.202 225.985 124.959C226.054 120.396 226.06 116.272 226.246 113.267C226.332 111.773 226.448 110.562 226.576 109.734C226.628 109.317 226.692 108.999 226.738 108.784C226.755 108.674 226.784 108.564 226.819 108.46C226.848 108.46 226.767 108.917 226.692 109.751C226.616 110.585 226.518 111.784 226.46 113.278C226.327 116.267 226.361 120.396 226.286 124.965C226.286 125.208 226.286 125.451 226.286 125.677L225.997 125.619C226.761 123.604 228.493 122.11 230.595 121.652C232.286 121.311 234.046 121.658 235.483 122.619C236.427 123.222 237.446 123.697 238.517 124.021C239.299 124.218 239.745 124.247 239.739 124.276Z" fill="#263238"/>
<path d="M259.642 104.755V104.754V60.3349C259.642 60.1251 259.642 59.9239 259.636 59.7295L259.636 59.7273C259.336 47.3022 249.021 37.4699 236.598 37.7622L236.259 37.79C224.01 38.8051 214.596 49.0524 214.625 61.3413L259.642 104.755ZM259.642 104.755C259.647 107.178 258.791 109.525 257.228 111.381M259.642 104.755L257.228 111.381M257.228 111.381C254.759 114.306 251.783 116.769 248.447 118.651C248.447 118.651 248.447 118.651 248.447 118.651L239.806 123.52L232.66 117.122L232.66 117.121C230.584 115.266 229.352 112.643 229.241 109.859C229.178 108.249 229.146 106.631 229.13 105.414C229.122 104.806 229.118 104.299 229.116 103.944C229.115 103.766 229.115 103.627 229.114 103.532L229.114 103.424L229.114 103.396L229.114 103.389V103.387V103.387V103.387V102.922L228.65 102.888L257.228 111.381ZM228.65 102.888L228.65 102.888L228.645 102.888L228.622 102.886C228.601 102.884 228.568 102.881 228.525 102.876C228.438 102.867 228.309 102.852 228.143 102.829C227.81 102.782 227.33 102.701 226.748 102.565C225.584 102.294 224.023 101.808 222.429 100.948C219.257 99.2362 215.952 96.0469 215.381 90.0601L215.381 90.0581C214.805 84.2615 214.654 72.3533 214.625 61.3414L228.65 102.888Z" fill="white" stroke="#263238"/>
<path d="M228.579 103.202C228.579 103.202 236.461 103.202 244.355 97.2715C244.355 97.2715 241.274 106.503 228.817 106.41L228.579 103.202Z" fill="#90CAF9"/>
<path d="M218.294 69.653C218.364 70.6144 219.186 71.3383 220.147 71.2977C221.086 71.292 221.844 70.5333 221.838 69.5951C221.838 69.5835 221.838 69.572 221.838 69.5604C221.769 68.6048 220.952 67.8751 219.991 67.9157C219.053 67.9157 218.294 68.6743 218.294 69.6125C218.294 69.6241 218.294 69.6357 218.294 69.653Z" fill="#263238"/>
<path d="M217.287 66.329C217.524 66.5375 218.781 65.4372 220.686 65.2866C222.591 65.136 224.068 65.97 224.253 65.7209C224.346 65.6051 224.091 65.2113 223.443 64.8175C222.568 64.3079 221.555 64.0878 220.547 64.1863C219.557 64.2615 218.619 64.6553 217.866 65.304C217.333 65.802 217.171 66.2306 217.287 66.329Z" fill="#263238"/>
<path d="M236.409 68.8828C236.479 69.8441 237.301 70.568 238.262 70.5275C239.201 70.5217 239.965 69.7573 239.959 68.8191C239.959 68.8075 239.959 68.8017 239.959 68.7901C239.89 67.8288 239.067 67.1049 238.106 67.1454C237.168 67.1512 236.403 67.9157 236.409 68.8538C236.409 68.8596 236.409 68.8712 236.409 68.8828Z" fill="#263238"/>
<path d="M236.033 65.136C236.27 65.3445 237.533 64.2442 239.432 64.0936C241.332 63.943 242.814 64.7769 243 64.5221C243.092 64.4121 242.837 64.0125 242.189 63.6245C241.314 63.1149 240.301 62.8948 239.293 62.9875C238.303 63.0627 237.365 63.4566 236.612 64.1052C236.079 64.6032 235.905 65.0376 236.033 65.136Z" fill="#263238"/>
<path d="M230.288 79.8513C230.288 79.7413 229.089 79.6313 227.149 79.5444C226.663 79.5444 226.193 79.4807 226.083 79.1564C226.002 78.6583 226.072 78.1429 226.286 77.6854C226.651 76.4693 227.027 75.201 227.444 73.8632C229.002 68.4253 230.091 63.9718 229.871 63.9139C229.651 63.856 228.209 68.211 226.651 73.6431C226.275 74.9867 225.915 76.2608 225.58 77.4827C225.319 78.0966 225.29 78.78 225.487 79.4112C225.655 79.7471 225.973 79.9903 226.344 80.0598C226.616 80.1119 226.9 80.1235 227.178 80.1061C229.095 80.0251 230.294 79.9324 230.288 79.8513Z" fill="#263238"/>
<path d="M236.004 80.6795C235.691 80.6795 235.859 82.7528 234.209 84.3685C232.558 85.9843 230.346 85.9379 230.352 86.2275C230.352 86.3549 230.879 86.5865 231.811 86.5344C233.021 86.4533 234.162 85.9437 235.037 85.0982C235.876 84.2874 236.369 83.1813 236.409 82.0173C236.415 81.1486 236.143 80.6563 236.004 80.6795Z" fill="#263238"/>
<path d="M234.921 57.7115C235.152 58.2153 237.035 57.81 239.287 57.8968C241.54 57.9837 243.405 58.4412 243.66 57.9489C243.776 57.7173 243.422 57.2598 242.652 56.7907C240.579 55.7077 238.123 55.644 235.992 56.6112C235.199 57.0339 234.822 57.4741 234.921 57.7115Z" fill="#263238"/>
<path d="M217.53 60.7405C217.9 61.1459 219.175 60.5899 220.75 60.4394C222.325 60.2888 223.686 60.4857 223.958 60.0108C224.074 59.7792 223.831 59.3622 223.211 59.0032C222.389 58.563 221.45 58.3951 220.53 58.5109C219.603 58.6036 218.729 58.98 218.034 59.5939C217.512 60.0977 217.373 60.561 217.53 60.7405Z" fill="#263238"/>
<path d="M245.565 47.8609L245.635 47.9072C247.748 49.2971 249.242 51.4456 249.804 53.9127L249.856 54.1617C250.632 57.6364 250.847 61.2559 251.657 64.7423C252.468 68.2286 252.318 70.8925 255.81 71.6917C257.68 72.1029 259.615 71.3153 260.669 69.7169C260.929 69.2073 261.033 68.6282 260.976 68.0606C260.935 59.478 262.661 56.1423 261.902 47.2122C261.711 44.7857 260.362 42.6024 258.277 41.3515C256.296 40.1643 253.899 38.9655 251.906 40.118C249.914 41.2704 247.546 45.3822 246.069 47.1659" fill="#263238"/>
<path d="M259.547 66.6149L259.54 66.4622C259.558 66.4562 259.577 66.45 259.597 66.4435C259.826 66.3693 260.145 66.2767 260.525 66.1937C261.288 66.0266 262.272 65.9034 263.247 66.0285C264.216 66.1529 265.153 66.5188 265.876 67.3096C266.599 68.1013 267.16 69.3763 267.265 71.4209C267.369 73.4594 266.929 74.8528 266.258 75.8094C265.587 76.7678 264.649 77.3378 263.672 77.6643C262.69 77.9921 261.685 78.0682 260.92 78.0468C260.55 78.0364 260.244 78.0035 260.033 77.9684C260.03 77.8993 260.027 77.8208 260.023 77.7335C260.007 77.3847 259.985 76.8982 259.96 76.32C259.909 75.1639 259.844 73.6428 259.78 72.1285C259.715 70.6142 259.652 69.1067 259.604 67.9778L259.547 66.6149Z" fill="white" stroke="#263238"/>
<path d="M252.277 41.3977C254.084 37.8361 247.968 33.4406 243.677 32.4677C239.386 31.4948 234.046 33.9908 230.004 35.7166C227.45 36.8053 224.937 38.2357 222.163 38.3458C220.304 38.4268 218.48 37.8998 216.678 37.425C214.877 36.9501 213.013 36.5215 211.171 36.8053C209.329 37.0891 207.505 38.2242 206.949 40.0021C206.393 41.78 207.586 44.0559 209.445 44.1486C206.996 43.054 203.741 45.023 203.585 47.7044C203.428 50.3857 206.411 52.7312 208.976 51.9493C207.696 51.1328 205.97 52.7949 206.248 54.2658C206.526 55.7368 207.986 56.7445 209.405 57.2367C213.071 58.4934 217.148 57.6595 220.703 56.1248C224.259 54.5901 227.485 52.3953 231 50.7737C234.515 49.1522 240.393 46.2797 244.135 47.2585C246.891 47.9824 249.022 51.0575 250.505 50.2178C251.889 49.3201 252.769 47.8144 252.868 46.1639C252.937 44.5424 252.74 42.915 252.289 41.3572" fill="#263238"/>
<path d="M208.403 43.9981C208.472 43.9517 208.889 44.5772 209.885 45.5038C211.298 46.772 213.001 47.6755 214.843 48.1388C217.553 48.8685 220.443 48.5152 222.892 47.1485C225.666 45.6196 227.919 42.8282 230.554 40.1643C233.189 37.5003 236.374 35.3807 239.699 34.8016C243.023 34.2225 246.173 35.1722 248.026 36.9328C249.509 38.3053 250.366 40.228 250.407 42.2491C250.401 42.7877 250.32 43.3263 250.169 43.8417C250.042 44.1834 249.961 44.3571 249.932 44.3455C250.036 43.6564 250.082 42.9556 250.076 42.2607C249.926 40.3785 249.046 38.6238 247.633 37.3729C245.895 35.8093 242.918 34.9695 239.838 35.5602C236.757 36.1509 233.716 38.1315 231.151 40.7723C228.585 43.4131 226.246 46.245 223.275 47.8434C218.769 50.212 213.244 49.3665 209.66 45.7528C209.289 45.3706 208.959 44.9536 208.669 44.5077C208.467 44.1834 208.38 44.0154 208.403 43.9981Z" fill="#455A64"/>
<path d="M258.555 65.7383C258.526 65.7672 258.167 65.5356 257.79 64.887C257.292 63.9546 257.055 62.9064 257.119 61.8524C257.078 59.1073 259.25 55.9801 259.244 52.1868C259.313 50.4263 258.844 48.6889 257.889 47.2064C257.061 46.0365 255.879 45.1736 254.512 44.7451C253.586 44.444 252.601 44.3918 251.652 44.5945C250.98 44.7625 250.632 44.9478 250.592 44.8841C250.551 44.8204 250.87 44.5598 251.559 44.305C252.561 43.9575 253.65 43.9227 254.675 44.1949C256.215 44.5887 257.576 45.5037 258.52 46.7836C259.609 48.382 260.159 50.2815 260.084 52.2158C260.02 54.0979 259.62 55.9511 258.891 57.6885C258.317 59.0378 257.924 60.4567 257.732 61.9103C257.466 64.4063 258.671 65.6861 258.555 65.7383Z" fill="#455A64"/>
<path d="M311.226 144.232C311.226 144.232 311.226 144.348 311.261 144.574C311.295 144.8 311.301 145.153 311.336 145.57C311.4 146.456 311.487 147.759 311.608 149.45C311.84 152.856 312.187 157.83 312.598 164.137C313.01 170.443 313.508 178.082 314.087 186.809C314.226 188.993 314.371 191.24 314.527 193.556C314.614 194.714 314.66 195.873 314.712 197.089C314.741 197.691 314.741 198.288 314.712 198.89C314.712 199.498 314.677 200.106 314.614 200.714L314.388 202.556C314.255 203.164 314.122 203.778 313.994 204.392C313.867 205.005 313.612 205.596 313.415 206.204C313.218 206.812 312.929 207.391 312.616 207.942C311.4 210.194 309.506 212.302 306.877 213.154H306.842H250.186H232.234H232.037L232.089 212.963C232.639 211.005 233.183 209.071 233.722 207.142C233.994 206.181 234.266 205.214 234.527 204.247C234.822 203.314 235.042 202.359 235.199 201.392C235.477 199.481 235.309 197.535 234.701 195.705C234.417 194.807 233.959 193.973 233.346 193.261C232.755 192.554 231.938 192.074 231.029 191.9L229.842 191.715L231 191.616L252.399 189.821H252.335C253.673 188.836 255.306 188.333 256.968 188.402C258.555 188.489 260.089 188.975 261.433 189.827H261.335L279.478 186.41L279.397 186.549C279.195 185.854 279.085 185.136 279.085 184.412C279.061 183.723 279.085 183.034 279.143 182.344C279.247 181.03 279.426 179.721 279.693 178.43V178.499C278.239 175.783 276.907 173.287 275.674 171.005V170.97C275.39 164.293 275.286 159.029 275.338 155.438C275.338 153.643 275.425 152.265 275.517 151.338C275.54 150.985 275.593 150.638 275.674 150.296C275.726 150.064 275.755 149.948 275.755 149.948C275.755 149.948 275.755 150.07 275.697 150.302C275.627 150.643 275.587 150.997 275.564 151.344C275.482 152.271 275.43 153.661 275.425 155.438C275.425 159.029 275.529 164.293 275.836 170.965V170.93C277.069 173.217 278.413 175.696 279.89 178.406V178.441C279.629 179.733 279.444 181.041 279.339 182.356C279.282 183.039 279.264 183.723 279.287 184.406C279.293 185.107 279.397 185.808 279.594 186.479L279.629 186.595H279.513L261.375 190.07H261.329L261.282 190.041C259.979 189.219 258.485 188.75 256.951 188.674C255.358 188.611 253.789 189.097 252.509 190.047H252.474H252.439L231.046 191.865V191.581C232.025 191.755 232.911 192.271 233.548 193.029C234.185 193.776 234.666 194.639 234.961 195.577C235.587 197.448 235.761 199.446 235.477 201.398C235.326 202.376 235.095 203.343 234.799 204.293C234.533 205.249 234.266 206.216 233.994 207.189C233.456 209.117 232.911 211.052 232.367 212.98L232.222 212.789H250.175L306.83 212.829C308.064 212.407 309.187 211.718 310.114 210.802C311.035 209.905 311.805 208.874 312.402 207.739C312.708 207.16 312.929 206.581 313.189 206.002C313.45 205.422 313.583 204.809 313.768 204.212C313.954 203.616 314.029 203.002 314.162 202.399C314.295 201.797 314.313 201.177 314.388 200.575C314.452 199.973 314.486 199.371 314.492 198.768C314.521 198.172 314.521 197.575 314.492 196.979C314.44 195.792 314.399 194.622 314.313 193.464C314.168 191.147 314.029 188.894 313.884 186.711C313.305 177.984 312.847 170.339 312.448 164.027C312.048 157.714 311.747 152.746 311.533 149.34C311.434 147.649 311.353 146.34 311.301 145.454C311.301 145.02 311.261 144.69 311.249 144.458C311.237 144.227 311.226 144.232 311.226 144.232Z" fill="#263238"/>
<path d="M294.825 112.676C294.495 112.908 294.148 113.122 293.794 113.319C292.856 113.898 291.964 114.541 291.113 115.242C288.333 117.587 285.982 120.396 284.164 123.546C282.362 126.702 280.81 129.992 279.531 133.391L278.326 136.472L277.99 137.312C277.955 137.41 277.915 137.509 277.857 137.596C277.869 137.491 277.892 137.387 277.932 137.289C278.008 137.063 278.106 136.779 278.216 136.432C278.471 135.69 278.841 134.625 279.334 133.31C280.561 129.87 282.09 126.546 283.903 123.378C285.733 120.199 288.125 117.384 290.968 115.062C291.837 114.373 292.758 113.753 293.725 113.209C294.061 113.006 294.345 112.885 294.524 112.792C294.623 112.74 294.721 112.699 294.825 112.676Z" fill="#263238"/>
<g opacity="0.3">
<path opacity="0.3" d="M272.158 134.793C269.749 140.236 268.643 146.167 268.915 152.114C269.135 157.998 269.842 163.899 269.263 169.766C268.684 175.632 266.651 181.615 262.279 185.558C261.711 185.987 261.236 186.52 260.865 187.128C260.501 187.759 260.611 188.558 261.138 189.068C261.694 189.381 262.348 189.45 262.956 189.259C267.143 188.529 271.382 188.008 275.575 187.284C276.473 187.128 279.49 186.537 279.49 186.537C279.282 185.391 279.195 184.227 279.235 183.062C279.368 182.014 279.78 178.429 279.78 178.429C279.583 177.897 279.311 177.393 278.975 176.935C277.405 174.144 276.235 171.144 275.5 168.023C274.069 165.098 273.427 162.156 272.761 159.423C270.925 151.83 270.977 144.366 272.147 134.746" fill="black"/>
</g>
<g opacity="0.3">
<path opacity="0.3" d="M226.251 126.147C226.593 127.015 226.941 127.884 227.282 128.758C227.352 129.036 227.531 129.274 227.78 129.413C228.296 129.61 228.707 128.978 228.938 128.48C229.946 126.5 231.869 125.145 234.075 124.872C235.813 124.67 237.643 125.179 239.374 124.82C237.874 123.847 236.27 123.048 234.591 122.44C232.894 121.826 231.046 121.809 229.338 122.388C227.624 123.008 226.396 124.537 226.17 126.343" fill="black"/>
</g>
<g opacity="0.3">
<path opacity="0.3" d="M240.567 123.952C242.629 123.923 244.685 124.114 246.7 124.531C248.733 124.942 250.575 126.002 251.953 127.554C253.354 129.262 253.876 131.503 254.443 133.635C254.553 134.046 254.75 134.532 255.167 134.579C255.422 134.579 255.671 134.48 255.862 134.306C259.337 131.758 261.618 127.861 262.869 123.749C264.12 119.637 264.41 115.305 264.479 111.008C262.823 113.968 262.105 117.338 261.005 120.546C259.904 123.755 258.3 126.986 255.462 128.839C255.526 128.104 255.294 127.368 254.814 126.807C254.339 126.251 253.771 125.782 253.128 125.428C249.243 123.112 244.563 122.539 240.237 123.847" fill="black"/>
</g>
<path d="M209.335 207.391L209.126 206.937L209.126 206.937L209.125 206.938L209.122 206.939L209.107 206.946L209.048 206.973C208.996 206.997 208.919 207.031 208.82 207.076C208.621 207.166 208.332 207.295 207.973 207.453C207.255 207.769 206.258 208.2 205.139 208.659C202.891 209.581 200.188 210.604 198.276 211.051C197.439 211.245 197.069 211.086 196.914 210.944C196.751 210.794 196.664 210.519 196.708 210.143C196.831 209.283 197.366 208.541 198.142 208.158L198.142 208.158L198.154 208.152C199.624 207.377 202.434 205.907 205.025 204.62C206.32 203.977 207.556 203.381 208.54 202.942C209.033 202.723 209.457 202.545 209.79 202.42C210.145 202.287 210.341 202.237 210.408 202.232L211.082 202.183L210.838 201.553C210.433 200.509 209.428 199.823 208.311 199.815C206.093 199.768 203.876 199.885 201.678 200.148L201.666 200.15L201.655 200.151C201.059 200.25 200.432 200.539 199.823 200.908C199.209 201.281 198.584 201.756 197.988 202.26C196.797 203.268 195.693 204.421 194.997 205.184L194.997 205.184L194.993 205.189C194.66 205.563 194.142 205.708 193.665 205.56C193.165 205.398 192.815 204.941 192.785 204.411C192.785 204.411 192.785 204.411 192.785 204.41L192.75 203.757L192.75 203.757L192.75 203.75C192.734 203.51 192.79 203.271 192.912 203.058L192.912 203.058L192.914 203.053L193.319 202.324L192.454 201.823C192.283 202.107 191.98 202.298 191.639 202.33C191.053 202.38 190.542 201.956 190.486 201.377C190.472 200.997 190.523 200.618 190.633 200.258L190.633 200.258L190.635 200.249L190.728 199.925L190.85 199.499L190.441 199.327L190.221 199.234L190.221 199.234L190.217 199.232C189.308 198.86 188.858 197.838 189.199 196.915C189.262 196.744 189.376 196.6 189.52 196.505L189.52 196.505L189.525 196.502C190.585 195.788 193.821 193.634 197.16 191.598C198.83 190.579 200.519 189.594 201.972 188.833C203.449 188.06 204.615 187.557 205.266 187.447L205.27 187.447C205.6 187.389 206.144 187.406 206.888 187.507C207.619 187.607 208.497 187.782 209.47 188.011C211.416 188.469 213.712 189.134 215.913 189.82C218.112 190.506 220.211 191.21 221.759 191.743C222.533 192.01 223.17 192.233 223.613 192.39C223.834 192.468 224.007 192.53 224.124 192.572L224.258 192.62L224.292 192.632L224.301 192.636L224.303 192.636L224.303 192.636C224.303 192.637 224.303 192.637 224.473 192.166L224.303 192.637L224.386 192.666H224.473H231.497C233.083 193.132 233.979 194.187 234.448 195.558C234.933 196.974 234.957 198.724 234.751 200.466C234.545 202.199 234.117 203.878 233.738 205.128C233.549 205.752 233.373 206.266 233.245 206.624C233.207 206.729 233.174 206.82 233.145 206.897L227.856 207.444L227.743 207.456L227.645 207.516C226.126 208.451 224.504 209.211 222.814 209.784C221.48 210.228 220.505 210.233 219.48 209.884C218.412 209.521 217.264 208.768 215.599 207.602C214.29 206.68 212.663 206.527 211.42 206.581C210.791 206.608 210.239 206.69 209.845 206.764C209.648 206.801 209.489 206.837 209.378 206.864C209.322 206.878 209.279 206.889 209.248 206.897L209.213 206.907L209.203 206.909L209.2 206.91L209.198 206.911L209.198 206.911C209.198 206.911 209.198 206.911 209.335 207.391ZM209.335 207.391L209.127 206.937L209.161 206.921L209.198 206.911L209.335 207.391Z" fill="white" stroke="#263238"/>
<path d="M210.424 194.865C210.424 194.929 209.266 194.57 207.418 194.448C202.473 194.118 197.666 196.168 194.487 199.967C193.855 200.755 193.259 201.577 192.709 202.428C192.795 202.168 192.917 201.919 193.062 201.687C193.427 201.033 193.849 200.413 194.319 199.834C197.469 195.878 202.403 193.776 207.436 194.24C208.183 194.303 208.918 194.425 209.642 194.61C209.909 194.662 210.175 194.749 210.424 194.865Z" fill="#263238"/>
<path d="M208.745 190.979C205.218 189.873 201.384 190.435 198.32 192.496C196.16 193.886 194.191 195.554 192.471 197.459L190.861 199.15C190.676 199.365 190.473 199.556 190.247 199.73C190.404 199.486 190.583 199.26 190.774 199.046C191.128 198.618 191.649 198.01 192.315 197.274C194.017 195.305 195.992 193.597 198.181 192.195C200.411 190.805 203 190.105 205.623 190.18C206.411 190.22 207.192 190.365 207.94 190.608C208.136 190.672 208.328 190.747 208.519 190.834L208.745 190.979Z" fill="#263238"/>
<path d="M111.537 145.232L136.111 216.993H247.343L246.509 213.284L201.53 211.906L180.819 145.198L111.537 145.232Z" fill="#263238"/>
<path d="M158.865 180.455C158.871 182.603 157.127 184.346 154.979 184.352C152.83 184.358 151.087 182.615 151.081 180.466C151.076 178.318 152.819 176.574 154.967 176.569H154.973C157.122 176.569 158.859 178.306 158.865 180.455Z" fill="#F5F5F5"/>
<path d="M99.2678 141.229C102.547 151.067 100.634 196.864 99.2678 218.532H36.6058L39.5338 141.229C46.0928 138.886 82.0894 140.253 99.2678 141.229Z" fill="#90CAF9"/>
<path d="M61.841 139.935C63.0733 139.935 71.212 140.175 75.1273 140.175V162.079H60.4935C60.4292 154.698 60.6086 139.935 61.841 139.935Z" fill="#409BF0"/>
<path d="M76.6426 219.207L78.7363 193.52V191.757H5.2002L9.64915 219.207H76.6426Z" fill="#A4CFF2"/>
<path d="M41.4103 197.989C36.9536 198.286 31.8785 194.399 29.898 192.418H50.8808C49.581 194.151 45.8671 197.692 41.4103 197.989Z" fill="#55ADFF"/>
<path d="M83.2716 191.73L86.6148 181.565C86.8275 180.918 86.3457 180.252 85.6648 180.252L1.27704 180.252C0.682734 180.252 0.219583 180.768 0.2827 181.359L1.36844 191.524C1.42273 192.033 1.85161 192.418 2.36279 192.418H82.3216C82.7535 192.418 83.1366 192.141 83.2716 191.73Z" fill="#E7F0FF"/>
<path d="M47.9242 203.854H72.7015V216.089H45.1708C45.4767 212.011 46.4557 203.854 47.9242 203.854Z" fill="#74B0E0"/>
<rect x="51.6864" y="206.849" width="17.041" height="1.6274" rx="0.8137" fill="white"/>
<rect x="51.6864" y="211.466" width="17.041" height="1.6274" rx="0.8137" fill="white"/>
<path d="M156.802 116.216L123.861 98.4768C127.704 95.8339 130.851 92.2885 133.018 88.163L145.078 65.0731C147.374 60.8058 151.682 57.9953 156.505 57.5828L187.061 73.9945C183.462 75.6963 180.496 78.4939 178.613 82.0006L164.967 107.256C163.032 110.879 160.233 113.986 156.815 116.281L156.802 116.216Z" fill="white"/>
<path d="M156.801 116.217L157.162 115.933L158.233 115.095C159.587 114.012 160.825 112.8 161.922 111.459C162.721 110.505 163.457 109.487 164.102 108.417C164.798 107.244 165.469 105.838 166.243 104.549L171.402 94.9058C173.324 91.3346 175.413 87.4283 177.657 83.2254C178.212 82.1425 178.818 81.0853 179.502 80.0668C180.237 79.0226 181.062 78.0557 181.978 77.179C182.933 76.2765 183.977 75.4772 185.087 74.7939C185.654 74.4458 186.235 74.1235 186.841 73.827C186.841 74.91 186.841 74.1235 186.841 74.3556H186.738L186.518 74.2396L186.08 73.9946L185.19 73.5305L170.435 65.3826L162.554 61.1927L158.555 59.0268L156.53 57.9438L156.401 57.8665H156.337H156.492H156.208L155.653 57.9309C155.279 58.0083 154.905 58.0599 154.544 58.1501C151.616 58.8592 148.998 60.4836 147.076 62.8042C146.148 63.9387 145.348 65.1892 144.729 66.5171L142.691 70.3848L134.952 85.2753C133.817 87.6474 132.488 89.9165 130.992 92.0695C129.509 94.0678 127.768 95.8598 125.833 97.4197C125.369 97.7936 124.892 98.1546 124.401 98.4898L124.234 98.6187L124.143 98.6832C124.143 97.7549 124.143 98.4382 124.143 98.2319L124.518 98.4382L125.291 98.8508L128.258 100.462L133.843 103.505L150.675 112.71L155.241 115.288L156.414 115.959C156.556 116.023 156.685 116.113 156.801 116.217C156.659 116.165 156.518 116.101 156.389 116.023L155.176 115.404L150.559 112.981L133.624 103.956L128.013 100.952L125.033 99.3536L124.272 98.941L123.885 98.7347C123.885 98.5285 123.885 99.186 123.885 98.2577L123.976 98.1933L124.156 98.0643C124.634 97.7291 125.098 97.3811 125.549 97.0072C127.445 95.473 129.135 93.7068 130.592 91.7472C132.063 89.6199 133.353 87.3638 134.462 85.0174L142.201 70.1012L144.239 66.2335C144.871 64.854 145.683 63.5519 146.651 62.3659C148.688 59.9679 151.449 58.279 154.518 57.57C154.892 57.4668 155.292 57.4153 155.679 57.3379L156.26 57.2734H156.556H156.775H156.84L156.969 57.3379L158.994 58.4337L162.992 60.5867L170.809 64.8154L185.59 72.8085L186.48 73.2855L186.905 73.5305L187.125 73.6465H187.241C187.241 73.9044 187.241 73.1179 187.241 74.2138C186.66 74.4974 186.093 74.8068 185.538 75.142C184.455 75.7995 183.449 76.573 182.52 77.4368C181.63 78.2877 180.817 79.2159 180.108 80.2215C179.437 81.2142 178.818 82.2585 178.277 83.3286L171.956 94.9315L166.707 104.536C165.933 105.941 165.249 107.269 164.514 108.404C163.844 109.474 163.096 110.492 162.27 111.446C161.109 112.774 159.819 113.986 158.401 115.03C157.923 115.379 157.549 115.649 157.291 115.804C157.15 115.972 156.982 116.101 156.801 116.217Z" fill="#263238"/>
<path d="M172.112 82.6967C172.112 82.8127 166.656 79.9893 160.052 76.3924C153.449 72.7955 148.16 69.7916 148.225 69.6756C148.289 69.5595 153.681 72.3958 160.284 75.9798C166.888 79.5639 172.176 82.5935 172.112 82.6967Z" fill="#263238"/>
<path d="M170.293 87.2995C170.293 87.4155 164.657 84.489 157.834 80.776C151.011 77.0631 145.542 73.956 145.607 73.84C145.671 73.724 151.243 76.6505 158.066 80.3635C164.889 84.0764 170.371 87.1705 170.293 87.2995Z" fill="#263238"/>
<path d="M168.127 91.296C168.127 91.3991 162.477 88.4855 155.667 84.7725C148.857 81.0596 143.375 77.9397 143.427 77.8236C143.478 77.7076 149.076 80.6341 155.886 84.3471C162.697 88.06 168.178 91.1671 168.127 91.296Z" fill="#263238"/>
<path d="M165.934 95.2924C165.869 95.4084 160.297 92.4819 153.474 88.7689C146.651 85.056 141.183 81.949 141.247 81.8329C141.312 81.7169 146.883 84.6434 153.707 88.3564C160.53 92.0693 165.998 95.1763 165.934 95.2924Z" fill="#263238"/>
<path d="M163.754 99.2892C163.69 99.4052 158.118 96.4916 151.295 92.7658C144.472 89.0399 139.003 85.9458 139.067 85.8298C139.132 85.7137 144.704 88.6402 151.527 92.3532C158.35 96.0662 163.844 99.1861 163.754 99.2892Z" fill="#263238"/>
<path d="M149.657 96.8267C148.973 96.6076 148.328 96.311 147.709 95.9501C146.522 95.357 144.91 94.5061 143.143 93.5392C141.376 92.5723 139.777 91.6827 138.642 90.9608C137.997 90.6385 137.39 90.2388 136.836 89.7876C137.519 89.9939 138.177 90.2904 138.796 90.6643C139.983 91.2573 141.595 92.1082 143.362 93.0751C145.129 94.042 146.729 94.9316 147.864 95.6535C148.509 95.9759 149.102 96.3755 149.657 96.8267Z" fill="#263238"/>
<path d="M157.473 107.179C157.473 107.179 157.602 106.857 157.731 106.264C157.898 105.439 157.808 104.588 157.447 103.827C156.583 102.009 154.416 101.236 152.61 102.1C150.804 102.963 150.018 105.129 150.882 106.934C151.565 108.365 153.087 109.19 154.661 108.984C155.499 108.868 156.273 108.494 156.867 107.901C157.292 107.476 157.447 107.179 157.486 107.205C157.395 107.514 157.228 107.798 156.996 108.03C156.402 108.713 155.603 109.164 154.713 109.319C153.358 109.538 151.991 109.048 151.075 108.03C149.579 106.38 149.708 103.827 151.359 102.332C152.275 101.507 153.513 101.146 154.725 101.339C156.08 101.545 157.241 102.448 157.769 103.711C158.118 104.523 158.169 105.439 157.924 106.29C157.834 106.612 157.679 106.921 157.473 107.179Z" fill="#263238"/>
<path d="M150.672 65.1876L149.925 66.5571L159.448 71.7484L160.195 70.379L150.672 65.1876Z" fill="#263238"/>
<path d="M104.098 90.2103L59.0939 94.4805L61.9728 124.795L106.977 120.525L104.098 90.2103Z" fill="white"/>
<path d="M106.987 120.546C106.935 120.366 106.909 120.172 106.896 119.979C106.896 119.566 106.793 119.038 106.716 118.355C106.561 116.911 106.342 114.848 106.058 112.244C105.529 106.945 104.768 99.3514 103.84 90.2495L104.123 90.4945L59.1607 94.8263C59.0962 94.9036 59.7282 94.143 59.4703 94.4653V94.6845V94.9423V95.4451L59.5606 96.4507L59.754 98.4619C59.883 99.7511 60.012 101.118 60.1281 102.433C60.3731 105.011 60.6182 107.59 60.8633 110.168C61.3405 115.248 61.7919 120.121 62.2175 124.749L61.8822 124.465L94.2434 121.552L103.543 120.752L106.032 120.559H106.677H106.922C106.651 120.611 106.38 120.649 106.11 120.675L103.685 120.946L94.4756 121.9L61.9467 125.136H61.6371V124.826C61.1857 120.211 60.7214 115.338 60.2313 110.258C59.9862 107.68 59.7411 105.101 59.4961 102.523L59.1091 98.5521L58.9157 96.5409L58.8254 95.5353V95.0325V94.7747V94.5555L59.122 94.1946L104.123 89.9917H104.394V90.2624C105.22 99.5061 105.89 107.1 106.355 112.437C106.574 115.015 106.742 117.065 106.871 118.509C106.871 119.167 106.961 119.682 106.987 120.082C107.012 120.482 106.987 120.559 106.987 120.546Z" fill="#263238"/>
<path d="M104.097 90.2239C103.698 90.8298 103.233 91.41 102.73 91.9385L98.8608 96.4766C95.5073 100.344 90.8253 105.501 85.5758 111.38L85.3824 111.599L85.1373 111.444L83.9378 110.684C77.0502 106.288 70.8334 102.278 66.3449 99.3515L61.0567 95.8578L59.6379 94.878C59.3154 94.6459 59.1606 94.517 59.1735 94.4912C59.367 94.5557 59.5476 94.6459 59.7152 94.7619L61.1985 95.6386L66.6028 98.9519C71.1558 101.775 77.4114 105.72 84.2989 110.117L85.4984 110.877H85.0728C90.3223 105.05 95.0688 99.8415 98.5125 96.1156L102.601 91.7194C103.066 91.1908 103.569 90.688 104.097 90.2239Z" fill="#263238"/>
</svg>
