<svg width="296" height="248" viewBox="0 0 296 248" fill="none" xmlns="http://www.w3.org/2000/svg">
<path d="M99.3278 117.47H0V193.948H99.3278V117.47Z" fill="#EBEBEB"/>
<path d="M74.4371 193.411C74.3312 193.411 74.2405 176.363 74.2405 155.343C74.2405 134.315 74.3312 117.266 74.4371 117.266C74.543 117.266 74.6338 134.307 74.6338 155.343C74.6338 176.363 74.5506 193.411 74.4371 193.411Z" fill="#E0E0E0"/>
<path d="M90.9023 176.544H83.2861V185.136H90.9023V176.544Z" fill="#FAFAFA"/>
<path d="M41.5827 117.674H30.2983V133.99H41.5827V117.674Z" fill="#E0E0E0"/>
<path d="M41.5827 177.405H30.2983V193.721H41.5827V177.405Z" fill="#E0E0E0"/>
<path d="M92.5058 56.1765H12.6382V117.666H92.5058V56.1765Z" fill="#F5F5F5"/>
<path d="M72.486 117.236C72.3952 117.236 72.3271 103.532 72.3271 86.6271C72.3271 69.7144 72.3952 56.0105 72.486 56.0105C72.5767 56.0105 72.6448 69.7144 72.6448 86.6271C72.6448 103.532 72.5767 117.236 72.486 117.236Z" fill="#E0E0E0"/>
<path d="M85.729 103.676H79.6028V110.584H85.729V103.676Z" fill="#FAFAFA"/>
<path d="M46.0676 56.3352H36.9993V69.4577H46.0676V56.3352Z" fill="#E0E0E0"/>
<path d="M46.0676 104.363H36.9993V117.485H46.0676V104.363Z" fill="#E0E0E0"/>
<path d="M187.553 0.158691H112.533V57.9188H187.553V0.158691Z" fill="#F5F5F5"/>
<path d="M168.758 57.5109C168.675 57.5109 168.607 44.6376 168.607 28.7592C168.607 12.8733 168.675 0 168.758 0C168.841 0 168.909 12.8733 168.909 28.7592C168.909 44.6376 168.841 57.5109 168.758 57.5109Z" fill="#E0E0E0"/>
<path d="M181.192 44.7734H175.444V51.2667H181.192V44.7734Z" fill="#FAFAFA"/>
<path d="M143.943 0.30957H135.419V12.6317H143.943V0.30957Z" fill="#E0E0E0"/>
<path d="M143.943 45.4229H135.419V57.745H143.943V45.4229Z" fill="#E0E0E0"/>
<path d="M212.693 124.324H126.23V190.903H212.693V124.324Z" fill="#EBEBEB"/>
<path d="M191.032 190.435C190.934 190.435 190.858 175.598 190.858 157.296C190.858 138.987 190.934 124.15 191.032 124.15C191.13 124.15 191.206 138.987 191.206 157.296C191.206 175.591 191.13 190.435 191.032 190.435Z" fill="#E0E0E0"/>
<path d="M205.364 175.749H198.739V183.231H205.364V175.749Z" fill="#FAFAFA"/>
<path d="M162.435 124.498H152.611V138.7H162.435V124.498Z" fill="#E0E0E0"/>
<path d="M162.435 176.497H152.611V190.699H162.435V176.497Z" fill="#E0E0E0"/>
<path d="M200.751 57.9185H114.288V124.497H200.751V57.9185Z" fill="#EBEBEB"/>
<path d="M179.089 124.029C178.991 124.029 178.916 109.193 178.916 90.8909C178.916 72.5813 178.991 57.7449 179.089 57.7449C179.188 57.7449 179.263 72.5813 179.263 90.8909C179.263 109.185 179.188 124.029 179.089 124.029Z" fill="#E0E0E0"/>
<path d="M193.422 109.344H186.796V116.826H193.422V109.344Z" fill="#FAFAFA"/>
<path d="M150.493 58.0923H140.668V72.2945H150.493V58.0923Z" fill="#E0E0E0"/>
<path d="M150.493 110.091H140.668V124.293H150.493V110.091Z" fill="#E0E0E0"/>
<path d="M288.976 134.871H213.956V192.631H288.976V134.871Z" fill="#F5F5F5"/>
<path d="M270.173 192.223C270.09 192.223 270.022 179.349 270.022 163.471C270.022 147.585 270.09 134.712 270.173 134.712C270.257 134.712 270.325 147.585 270.325 163.471C270.325 179.349 270.257 192.223 270.173 192.223Z" fill="#E0E0E0"/>
<path d="M282.607 179.485H276.859V185.979H282.607V179.485Z" fill="#FAFAFA"/>
<path d="M245.366 135.021H236.842V147.344H245.366V135.021Z" fill="#E0E0E0"/>
<path d="M245.366 180.135H236.842V192.457H245.366V180.135Z" fill="#E0E0E0"/>
<path d="M295.624 77.2539H220.604V135.014H295.624V77.2539Z" fill="#EBEBEB"/>
<path d="M276.829 134.606C276.746 134.606 276.678 121.733 276.678 105.854C276.678 89.9685 276.746 77.0952 276.829 77.0952C276.912 77.0952 276.98 89.9685 276.98 105.854C276.98 121.733 276.912 134.606 276.829 134.606Z" fill="#E0E0E0"/>
<path d="M289.263 121.869H283.515V128.362H289.263V121.869Z" fill="#FAFAFA"/>
<path d="M252.014 77.4048H243.49V89.7269H252.014V77.4048Z" fill="#E0E0E0"/>
<path d="M252.014 122.518H243.49V134.84H252.014V122.518Z" fill="#E0E0E0"/>
<path d="M292.818 37.1692H239.141V78.4997H292.818V37.1692Z" fill="#EBEBEB"/>
<path d="M279.37 78.2052C279.31 78.2052 279.264 68.9938 279.264 57.6306C279.264 46.2673 279.31 37.0559 279.37 37.0559C279.431 37.0559 279.476 46.2673 279.476 57.6306C279.476 68.9938 279.431 78.2052 279.37 78.2052Z" fill="#E0E0E0"/>
<path d="M288.265 69.092H284.15V73.7355H288.265V69.092Z" fill="#FAFAFA"/>
<path d="M261.612 37.2749H255.516V46.0937H261.612V37.2749Z" fill="#E0E0E0"/>
<path d="M261.612 69.5601H255.516V78.3788H261.612V69.5601Z" fill="#E0E0E0"/>
<mask id="path-41-inside-1" fill="white">
<path fill-rule="evenodd" clip-rule="evenodd" d="M165.455 86.2538C163.337 87.9979 161.25 89.5156 159.094 91.0709C156.939 92.6263 154.738 94.0911 152.469 95.4728C150.2 96.8545 147.878 98.206 145.435 99.4216C142.939 100.72 140.345 101.808 137.675 102.676C136.972 102.895 136.283 103.084 135.489 103.272C134.71 103.446 133.931 103.567 133.137 103.65C131.821 103.797 130.583 103.859 129.351 103.922L129.053 103.937C126.398 104.058 123.759 104.05 121.187 104.035C116.086 103.976 111.028 103.735 105.942 103.306C105.106 104.531 103.338 104.533 103.331 104.533L103.331 104.533L103.331 104.533L99.7532 102.026L100.487 94.1515L103.724 96.4921L103.724 96.4921L106.462 98.4394C110.925 97.8787 115.401 97.378 119.841 96.8814L119.842 96.8813L120.824 96.7714C123.35 96.4921 125.876 96.1901 128.335 95.8654C129.567 95.6993 130.785 95.503 131.904 95.2916C132.388 95.2085 132.865 95.0953 133.341 94.9594C133.459 94.9188 133.585 94.8766 133.715 94.8326L133.716 94.8326C134.072 94.7129 134.467 94.5799 134.854 94.4308C137.017 93.555 139.12 92.5281 141.139 91.3654C143.234 90.1649 145.322 88.8738 147.379 87.5072C149.436 86.1406 151.486 84.7211 153.52 83.279C155.555 81.8369 157.574 80.3042 159.48 78.8545L165.455 86.2538Z"/>
</mask>
<path fill-rule="evenodd" clip-rule="evenodd" d="M165.455 86.2538C163.337 87.9979 161.25 89.5156 159.094 91.0709C156.939 92.6263 154.738 94.0911 152.469 95.4728C150.2 96.8545 147.878 98.206 145.435 99.4216C142.939 100.72 140.345 101.808 137.675 102.676C136.972 102.895 136.283 103.084 135.489 103.272C134.71 103.446 133.931 103.567 133.137 103.65C131.821 103.797 130.583 103.859 129.351 103.922L129.053 103.937C126.398 104.058 123.759 104.05 121.187 104.035C116.086 103.976 111.028 103.735 105.942 103.306C105.106 104.531 103.338 104.533 103.331 104.533L103.331 104.533L103.331 104.533L99.7532 102.026L100.487 94.1515L103.724 96.4921L103.724 96.4921L106.462 98.4394C110.925 97.8787 115.401 97.378 119.841 96.8814L119.842 96.8813L120.824 96.7714C123.35 96.4921 125.876 96.1901 128.335 95.8654C129.567 95.6993 130.785 95.503 131.904 95.2916C132.388 95.2085 132.865 95.0953 133.341 94.9594C133.459 94.9188 133.585 94.8766 133.715 94.8326L133.716 94.8326C134.072 94.7129 134.467 94.5799 134.854 94.4308C137.017 93.555 139.12 92.5281 141.139 91.3654C143.234 90.1649 145.322 88.8738 147.379 87.5072C149.436 86.1406 151.486 84.7211 153.52 83.279C155.555 81.8369 157.574 80.3042 159.48 78.8545L165.455 86.2538Z" fill="white"/>
<path d="M165.455 86.2538L166.091 87.0257L166.855 86.3961L166.233 85.6256L165.455 86.2538ZM152.469 95.4728L151.949 94.6187L152.469 95.4728ZM145.435 99.4216L144.989 98.5263L144.981 98.5303L144.973 98.5345L145.435 99.4216ZM137.675 102.676L137.972 103.631L137.984 103.627L137.675 102.676ZM135.489 103.272L135.707 104.248L135.721 104.245L135.489 103.272ZM133.137 103.65L133.033 102.655L133.026 102.656L133.137 103.65ZM129.351 103.922L129.301 102.923L129.3 102.923L129.351 103.922ZM129.053 103.937L129.098 104.936L129.104 104.935L129.053 103.937ZM121.187 104.035L121.176 105.035L121.181 105.035L121.187 104.035ZM105.942 103.306L106.026 102.309L105.445 102.26L105.116 102.742L105.942 103.306ZM103.331 104.533L103.33 103.533L102.376 103.534L102.332 104.486L103.331 104.533ZM103.331 104.533L102.525 105.125L104.197 107.403L104.329 104.58L103.331 104.533ZM103.331 104.533L104.137 103.941L104.039 103.809L103.904 103.714L103.331 104.533ZM99.7532 102.026L98.7575 101.934L98.7036 102.512L99.1793 102.845L99.7532 102.026ZM100.487 94.1515L101.073 93.3411L99.6536 92.3149L99.4911 94.0587L100.487 94.1515ZM103.724 96.4921L103.138 97.3024L103.207 97.3525L103.284 97.3901L103.724 96.4921ZM103.724 96.4921L104.303 95.6772L104.237 95.6299L104.164 95.594L103.724 96.4921ZM106.462 98.4394L105.882 99.2543L106.2 99.4802L106.586 99.4316L106.462 98.4394ZM119.841 96.8814L119.731 95.8875L119.73 95.8876L119.841 96.8814ZM119.842 96.8813L119.952 97.8752L119.953 97.8751L119.842 96.8813ZM120.824 96.7714L120.714 95.7775L120.713 95.7776L120.824 96.7714ZM128.335 95.8654L128.465 96.8568L128.468 96.8564L128.335 95.8654ZM131.904 95.2916L131.735 94.306L131.727 94.3074L131.719 94.3089L131.904 95.2916ZM133.341 94.9594L133.616 95.921L133.641 95.9136L133.667 95.9049L133.341 94.9594ZM133.715 94.8326L134.034 95.7805L134.038 95.7791L133.715 94.8326ZM133.716 94.8326L133.397 93.8847L133.393 93.8861L133.716 94.8326ZM134.854 94.4308L135.213 95.364L135.221 95.361L135.229 95.3577L134.854 94.4308ZM141.139 91.3654L140.642 90.4978L140.64 90.4988L141.139 91.3654ZM147.379 87.5072L146.825 86.6742L146.825 86.6742L147.379 87.5072ZM153.52 83.279L152.942 82.4632V82.4632L153.52 83.279ZM159.48 78.8545L160.258 78.2262L159.648 77.4705L158.874 78.0586L159.48 78.8545ZM159.679 91.8819C161.834 90.3269 163.945 88.7925 166.091 87.0257L164.819 85.4819C162.729 87.2034 160.665 88.7042 158.509 90.26L159.679 91.8819ZM152.989 96.3269C155.281 94.9312 157.503 93.452 159.679 91.8819L158.509 90.26C156.374 91.8006 154.195 93.2509 151.949 94.6187L152.989 96.3269ZM145.88 100.317C148.36 99.0829 150.71 97.7147 152.989 96.3269L151.949 94.6187C149.69 95.9943 147.395 97.3291 144.989 98.5263L145.88 100.317ZM137.984 103.627C140.707 102.741 143.352 101.633 145.897 100.309L144.973 98.5345C142.527 99.8077 139.983 100.874 137.366 101.725L137.984 103.627ZM135.721 104.245C136.536 104.051 137.246 103.857 137.972 103.631L137.378 101.721C136.697 101.933 136.031 102.116 135.258 102.299L135.721 104.245ZM133.241 104.644C134.068 104.558 134.885 104.431 135.707 104.248L135.272 102.296C134.535 102.46 133.795 102.576 133.033 102.655L133.241 104.644ZM129.402 104.92C130.63 104.858 131.898 104.794 133.248 104.644L133.026 102.656C131.745 102.799 130.536 102.86 129.301 102.923L129.402 104.92ZM129.104 104.935L129.402 104.92L129.3 102.923L129.002 102.938L129.104 104.935ZM121.181 105.035C123.752 105.05 126.415 105.058 129.098 104.936L129.008 102.938C126.382 103.057 123.766 103.05 121.193 103.035L121.181 105.035ZM105.858 104.302C110.968 104.733 116.05 104.975 121.176 105.035L121.199 103.035C116.121 102.976 111.088 102.736 106.026 102.309L105.858 104.302ZM103.331 105.533C103.382 105.533 103.926 105.53 104.596 105.341C105.255 105.156 106.163 104.756 106.768 103.87L105.116 102.742C104.885 103.08 104.491 103.294 104.055 103.416C103.63 103.535 103.287 103.533 103.33 103.533L103.331 105.533ZM104.329 104.58L104.329 104.58L102.332 104.486L102.332 104.486L104.329 104.58ZM102.525 105.125L102.525 105.125L104.137 103.941L104.137 103.941L102.525 105.125ZM99.1793 102.845L102.757 105.352L103.904 103.714L100.327 101.207L99.1793 102.845ZM99.4911 94.0587L98.7575 101.934L100.749 102.119L101.482 94.2442L99.4911 94.0587ZM104.31 95.6817L101.073 93.3411L99.9009 94.9618L103.138 97.3024L104.31 95.6817ZM104.164 95.594L104.164 95.594L103.284 97.3901L103.284 97.3901L104.164 95.594ZM107.041 97.6245L104.303 95.6772L103.144 97.307L105.882 99.2543L107.041 97.6245ZM119.73 95.8876C115.291 96.384 110.808 96.8855 106.337 97.4472L106.586 99.4316C111.041 98.8718 115.511 98.3719 119.952 97.8752L119.73 95.8876ZM119.731 95.8875L119.731 95.8875L119.952 97.8753L119.952 97.8752L119.731 95.8875ZM120.713 95.7776L119.731 95.8875L119.953 97.8751L120.935 97.7652L120.713 95.7776ZM128.204 94.874C125.754 95.1976 123.235 95.4988 120.714 95.7775L120.934 97.7654C123.466 97.4854 125.999 97.1825 128.465 96.8568L128.204 94.874ZM131.719 94.3089C130.618 94.5169 129.417 94.7104 128.201 94.8744L128.468 96.8564C129.717 96.6881 130.952 96.4891 132.09 96.2742L131.719 94.3089ZM133.067 93.9977C132.619 94.1256 132.178 94.23 131.735 94.306L132.073 96.2772C132.599 96.187 133.111 96.0649 133.616 95.921L133.067 93.9977ZM133.397 93.8848C133.267 93.9285 133.138 93.9719 133.016 94.0138L133.667 95.9049C133.781 95.8657 133.903 95.8247 134.034 95.7805L133.397 93.8848ZM133.393 93.8861L133.393 93.8861L134.038 95.7791L134.038 95.7791L133.393 93.8861ZM134.495 93.4976C134.131 93.6377 133.756 93.764 133.397 93.8848L134.034 95.7804C134.387 95.6617 134.803 95.5221 135.213 95.364L134.495 93.4976ZM140.64 90.4988C138.66 91.6389 136.599 92.6455 134.479 93.5039L135.229 95.3577C137.435 94.4645 139.579 93.4174 141.638 92.232L140.64 90.4988ZM146.825 86.6742C144.786 88.029 142.717 89.3085 140.642 90.4978L141.636 92.233C143.751 91.0213 145.857 89.7186 147.932 88.3401L146.825 86.6742ZM152.942 82.4632C150.913 83.9012 148.872 85.3147 146.825 86.6742L147.932 88.3401C150 86.9665 152.058 85.541 154.098 84.0948L152.942 82.4632ZM158.874 78.0586C156.967 79.5093 154.961 81.0322 152.942 82.4632L154.098 84.0948C156.149 82.6416 158.181 81.099 160.085 79.6504L158.874 78.0586ZM166.233 85.6256L160.258 78.2262L158.702 79.4827L164.677 86.8821L166.233 85.6256Z" fill="#001C44" mask="url(#path-41-inside-1)"/>
<path d="M171.619 80.878C170.711 86.8276 158.164 95.9258 158.164 95.9258L149.156 84.7739C153.097 80.5684 157.287 76.5969 161.688 72.8746C165.735 69.5675 172.602 74.3998 171.619 80.878Z" fill="#90CAF9"/>
<path d="M193.098 73.0634C195.042 73.4937 196.26 75.4191 195.829 77.3519C195.821 77.3821 195.814 77.4199 195.806 77.4501C194.437 83.1204 193.408 88.8662 192.72 94.6573C192.123 99.5348 191.767 104.193 191.548 108.414C191.019 118.305 191.238 125.848 190.943 128.407L157.294 126.082C153.876 99.3536 157.876 82.2899 160.13 75.3662C160.841 73.1691 162.755 71.5684 165.046 71.2588C166.34 71.0927 167.883 70.9266 169.516 70.8285C170.084 70.8285 170.666 70.7756 171.248 70.7605C176.036 70.8058 180.816 71.1229 185.565 71.7194C186.465 71.8251 187.373 71.961 188.258 72.0969C190.02 72.4065 191.707 72.7538 193.098 73.0634Z" fill="#263238"/>
<path d="M184.491 69.2782L184.491 69.2771L184.491 49.9937C184.491 49.9018 184.491 49.8185 184.488 49.7389L184.488 49.7367C184.362 44.5015 180.018 40.3581 174.785 40.4769L174.646 40.4882C169.475 40.9167 165.502 45.2424 165.513 50.4298L184.491 69.2782ZM184.491 69.2782C184.493 70.2632 184.145 71.2171 183.51 71.9717M184.491 69.2782L183.51 71.9717M183.51 71.9717C182.46 73.2158 181.194 74.2636 179.775 75.0641L179.715 75.098L179.666 75.1469L172.243 82.6072V75.9655V75.7418L172.077 75.5927C171.949 75.4784 171.845 75.2873 171.781 74.9858C171.717 74.6849 171.702 74.319 171.715 73.9088C171.727 73.5564 171.759 73.1946 171.79 72.833C171.795 72.7747 171.801 72.7164 171.806 72.6582C171.841 72.2508 171.873 71.8355 171.859 71.4824C171.831 70.7869 171.818 70.0871 171.811 69.5603C171.807 69.2971 171.806 69.0776 171.805 68.924C171.804 68.8472 171.804 68.787 171.804 68.746L171.804 68.6993L171.804 68.6875L171.804 68.6846V68.6839V68.6838V68.6837V68.2184L171.341 68.1851L171.34 68.1851L171.34 68.1851L171.34 68.185L171.34 68.185L171.332 68.1844C171.328 68.184 171.322 68.1835 171.314 68.1827C171.309 68.1822 171.302 68.1815 171.294 68.1807C171.26 68.1771 171.207 68.171 171.139 68.1613C171.001 68.1419 170.801 68.1081 170.558 68.0515C170.07 67.9379 169.417 67.7343 168.753 67.376C167.44 66.6673 166.078 65.3566 165.841 62.8713L165.84 62.8694C165.592 60.3695 165.526 55.2153 165.513 50.43L183.51 71.9717Z" fill="white" stroke="#263238"/>
<path d="M171.578 68.1152C171.578 68.1152 175 68.1152 178.426 65.5408C178.426 65.5408 177.089 69.5483 171.681 69.5081L171.578 68.1152Z" fill="#90CAF9"/>
<path d="M166.823 54.0389C166.854 54.4562 167.211 54.7705 167.628 54.7529C168.035 54.7504 168.365 54.421 168.362 54.0137C168.362 54.0087 168.362 54.0037 168.362 53.9986C168.332 53.5838 167.977 53.267 167.56 53.2846C167.153 53.2846 166.823 53.614 166.823 54.0213C166.823 54.0263 166.823 54.0313 166.823 54.0389Z" fill="#263238"/>
<path d="M166.386 52.5957C166.489 52.6862 167.035 52.2085 167.862 52.1432C168.689 52.0778 169.33 52.4398 169.411 52.3317C169.451 52.2814 169.34 52.1105 169.059 51.9395C168.679 51.7183 168.239 51.6227 167.802 51.6655C167.372 51.6982 166.964 51.8691 166.638 52.1507C166.406 52.3669 166.336 52.553 166.386 52.5957Z" fill="#263238"/>
<path d="M174.688 53.7044C174.718 54.1218 175.075 54.436 175.492 54.4184C175.9 54.4159 176.231 54.084 176.229 53.6768C176.229 53.6717 176.229 53.6692 176.229 53.6642C176.199 53.2468 175.842 52.9326 175.424 52.9502C175.017 52.9527 174.685 53.2845 174.688 53.6918C174.688 53.6944 174.688 53.6994 174.688 53.7044Z" fill="#263238"/>
<path d="M174.524 52.0777C174.627 52.1682 175.175 51.6905 176 51.6252C176.825 51.5598 177.468 51.9218 177.549 51.8112C177.589 51.7634 177.478 51.59 177.197 51.4215C176.817 51.2003 176.377 51.1047 175.94 51.145C175.51 51.1776 175.102 51.3486 174.776 51.6302C174.544 51.8464 174.469 52.035 174.524 52.0777Z" fill="#263238"/>
<path d="M172.03 58.466C172.03 58.4183 171.51 58.3705 170.668 58.3328C170.456 58.3328 170.253 58.3051 170.205 58.1643C170.17 57.9481 170.2 57.7244 170.293 57.5257C170.451 56.9978 170.615 56.4472 170.796 55.8664C171.472 53.5056 171.945 51.5723 171.849 51.5471C171.754 51.522 171.128 53.4126 170.451 55.7709C170.288 56.3541 170.132 56.9073 169.986 57.4377C169.873 57.7042 169.861 58.0009 169.946 58.2749C170.019 58.4208 170.157 58.5264 170.318 58.5565C170.436 58.5792 170.56 58.5842 170.68 58.5766C171.512 58.5414 172.033 58.5012 172.03 58.466Z" fill="#263238"/>
<path d="M174.512 58.8258C174.376 58.8258 174.449 59.7258 173.732 60.4273C173.016 61.1287 172.055 61.1086 172.058 61.2343C172.058 61.2896 172.287 61.3902 172.691 61.3676C173.217 61.3324 173.712 61.1111 174.092 60.7441C174.456 60.3921 174.67 59.9119 174.688 59.4065C174.69 59.0294 174.572 58.8157 174.512 58.8258Z" fill="#263238"/>
<path d="M174.042 48.8547C174.142 49.0734 174.959 48.8974 175.937 48.9351C176.915 48.9729 177.725 49.1715 177.835 48.9578C177.886 48.8572 177.732 48.6586 177.398 48.4549C176.498 47.9848 175.432 47.9572 174.507 48.377C174.162 48.5605 173.999 48.7516 174.042 48.8547Z" fill="#263238"/>
<path d="M166.492 50.1694C166.653 50.3454 167.206 50.104 167.889 50.0387C168.573 49.9733 169.164 50.0588 169.282 49.8526C169.333 49.7521 169.227 49.571 168.958 49.4152C168.601 49.2241 168.194 49.1512 167.794 49.2015C167.392 49.2417 167.012 49.4051 166.71 49.6716C166.484 49.8903 166.424 50.0915 166.492 50.1694Z" fill="#263238"/>
<path d="M178.663 44.5781L178.693 44.5982C179.61 45.2016 180.259 46.1344 180.503 47.2054L180.526 47.3135C180.862 48.822 180.955 50.3933 181.307 51.9068C181.659 53.4203 181.594 54.5768 183.11 54.9238C183.922 55.1023 184.762 54.7603 185.219 54.0664C185.333 53.8452 185.378 53.5938 185.353 53.3474C185.335 49.6215 186.084 48.1733 185.755 44.2965C185.672 43.2431 185.086 42.2953 184.181 41.7522C183.321 41.2368 182.28 40.7164 181.416 41.2167C180.551 41.717 179.522 43.5021 178.881 44.2764" fill="#263238"/>
<path d="M185.04 53.2992L185.022 52.8609C185.08 52.8451 185.145 52.8288 185.217 52.813C185.531 52.7444 185.923 52.6968 186.303 52.7455C186.677 52.7935 187.015 52.931 187.271 53.2119C187.529 53.4937 187.757 53.9776 187.801 54.8203C187.843 55.6569 187.662 56.1958 187.414 56.5487C187.166 56.9034 186.816 57.1203 186.433 57.248C186.048 57.3769 185.646 57.4082 185.337 57.3995C185.294 57.3983 185.253 57.3964 185.215 57.3939C185.209 57.2619 185.202 57.1015 185.194 56.9204C185.173 56.4186 185.144 55.7584 185.116 55.101C185.088 54.4437 185.061 53.7893 185.04 53.2992Z" fill="white" stroke="#263238"/>
<path d="M181.576 41.7723C182.361 40.2261 179.706 38.3179 177.843 37.8955C175.98 37.4731 173.662 38.5567 171.907 39.3059C170.798 39.7786 169.707 40.3996 168.503 40.4473C167.696 40.4825 166.904 40.2538 166.122 40.0476C165.34 39.8414 164.531 39.6554 163.731 39.7786C162.932 39.9018 162.14 40.3945 161.898 41.1664C161.657 41.9382 162.175 42.9263 162.982 42.9665C161.918 42.4913 160.506 43.3461 160.438 44.5102C160.37 45.6742 161.665 46.6925 162.778 46.353C162.223 45.9986 161.473 46.7201 161.594 47.3587C161.715 47.9973 162.348 48.4348 162.964 48.6485C164.556 49.194 166.326 48.832 167.869 48.1657C169.413 47.4995 170.813 46.5466 172.34 45.8427C173.866 45.1387 176.417 43.8917 178.042 44.3166C179.238 44.6309 180.164 45.9659 180.807 45.6013C181.408 45.2116 181.79 44.558 181.833 43.8414C181.863 43.1375 181.778 42.431 181.581 41.7547" fill="#263238"/>
<path d="M162.529 42.9011C162.56 42.881 162.741 43.1525 163.173 43.5548C163.786 44.1054 164.526 44.4976 165.325 44.6987C166.502 45.0155 167.756 44.8621 168.82 44.2688C170.024 43.6051 171.002 42.3932 172.146 41.2367C173.29 40.0802 174.673 39.1601 176.116 38.9087C177.559 38.6572 178.927 39.0696 179.731 39.8339C180.375 40.4297 180.747 41.2644 180.764 42.1418C180.762 42.3757 180.727 42.6095 180.661 42.8332C180.606 42.9816 180.571 43.057 180.558 43.052C180.604 42.7528 180.624 42.4486 180.621 42.1469C180.556 41.3298 180.174 40.568 179.56 40.0249C178.806 39.3461 177.514 38.9816 176.176 39.238C174.839 39.4945 173.519 40.3543 172.405 41.5007C171.291 42.6472 170.275 43.8766 168.986 44.5705C167.03 45.5988 164.631 45.2317 163.075 43.6629C162.914 43.497 162.771 43.3159 162.645 43.1223C162.557 42.9816 162.519 42.9086 162.529 42.9011Z" fill="#455A64"/>
<path d="M184.302 52.3392C184.289 52.3517 184.133 52.2512 183.97 51.9696C183.754 51.5648 183.651 51.1097 183.678 50.6522C183.661 49.4605 184.604 48.1028 184.601 46.4561C184.631 45.6918 184.428 44.9375 184.013 44.2939C183.653 43.7861 183.14 43.4115 182.547 43.2254C182.145 43.0947 181.717 43.0721 181.305 43.1601C181.013 43.233 180.863 43.3134 180.845 43.2858C180.827 43.2581 180.966 43.145 181.265 43.0343C181.7 42.8835 182.172 42.8684 182.617 42.9866C183.286 43.1575 183.877 43.5548 184.287 44.1104C184.76 44.8043 184.998 45.6289 184.966 46.4687C184.938 47.2857 184.765 48.0903 184.448 48.8445C184.199 49.4303 184.028 50.0463 183.945 50.6773C183.829 51.7609 184.352 52.3165 184.302 52.3392Z" fill="#455A64"/>
<path d="M184.96 69.8621C184.96 69.8621 172.247 75.4795 170.59 88.0282C174.085 83.9812 181.822 79.5793 181.822 79.5793L178.411 78.6053C180.581 77.7824 182.82 77.1783 185.112 76.8008C184.734 75.0642 186.753 71.6062 186.753 71.6062L184.96 69.8621Z" fill="#90CAF9"/>
<path d="M173.495 69.6582C173.495 69.6582 175.181 76.831 170.568 88.0282C169.849 83.7547 166.832 76.6045 166.832 76.6045L169.948 77.4426C169.948 77.4426 169.789 76.0005 167.27 74.0751C168.208 72.2782 171.143 70.1565 171.143 70.1565L173.495 69.6582Z" fill="#90CAF9"/>
<path d="M166.508 179.388C168.004 165.528 179 127.148 179 127.148L157.121 126C157.121 126 148.684 164.09 148.04 178.552C147.367 193.589 155.326 227 155.326 227L165.798 226.09C165.798 226.09 164.998 193.311 166.508 179.388Z" fill="#90CAF9"/>
<path opacity="0.5" d="M166.508 175.688C168.004 162.788 179 127.069 179 127.069L157.121 126C157.121 126 148.684 161.45 148.04 174.91C147.367 188.905 155.326 220 155.326 220L165.798 219.153C165.798 219.153 164.998 188.646 166.508 175.688Z" fill="white"/>
<path opacity="0.2" d="M171.082 144.867C166.62 150.56 166.544 170.538 168.269 185.322C169.91 174.661 172.496 161.161 174.773 149.835L171.082 144.867Z" fill="black"/>
<path d="M169 127C169 127 171.397 166.673 174.068 180.107C176.988 194.819 184.416 227 184.416 227H196C196 227 194.096 196.714 192.563 182.258C190.826 165.795 190.781 128.134 190.781 128.134L169 127Z" fill="#90CAF9"/>
<path opacity="0.5" d="M169 127C169 127 171.397 164.69 174.068 177.452C176.988 191.428 184.416 222 184.416 222H196C196 222 194.096 193.229 192.563 179.495C190.826 163.855 190.781 128.077 190.781 128.077L169 127Z" fill="white"/>
<path d="M166.302 239.3L159.987 240.01L157.657 225.71L163.973 225L166.302 239.3Z" fill="#FBD3BF"/>
<path d="M194.573 240.675H188.266L186.7 226.095H193.008L194.573 240.675Z" fill="#FBD3BF"/>
<path d="M187.751 239.942H195.436C195.693 239.942 195.92 240.123 195.973 240.373L197.22 245.967C197.326 246.466 197.016 246.956 196.517 247.062C196.449 247.077 196.373 247.085 196.298 247.085C193.825 247.047 192.017 246.904 188.901 246.904C186.987 246.904 181.209 247.1 178.562 247.1C175.915 247.1 175.537 244.487 176.656 244.253C181.512 243.189 185.172 241.724 186.73 240.327C187.01 240.078 187.373 239.935 187.751 239.942Z" fill="#263238"/>
<path d="M159.888 238.93L166.695 238.175C166.953 238.145 167.195 238.296 167.278 238.545L169.146 243.959C169.32 244.435 169.07 244.956 168.594 245.129C168.526 245.152 168.458 245.167 168.39 245.175C165.916 245.416 162.339 245.673 159.23 246.028C155.6 246.436 154.995 247.41 150.722 247.304C148.128 247.243 147.47 244.616 148.559 244.404C153.52 243.446 154.473 242.698 158.391 239.61C158.815 239.24 159.336 239.006 159.888 238.93Z" fill="#263238"/>
<path opacity="0.2" d="M157.665 225.717L158.86 233.086L165.175 232.377L163.98 225.008L157.665 225.717Z" fill="black"/>
<path opacity="0.2" d="M193.008 226.095H186.7L187.509 233.615H193.817L193.008 226.095Z" fill="black"/>
<path d="M183.603 230.319H197.202V226.264L182 226L183.603 230.319Z" fill="#90CAF9"/>
<path d="M154.974 229.512L167.62 228.077L167.158 224L153 225.382L154.974 229.512Z" fill="#90CAF9"/>
<path d="M185.664 241.045C185.233 241.075 184.809 240.962 184.454 240.72C184.234 240.531 184.121 240.252 184.144 239.965C184.136 239.784 184.242 239.618 184.401 239.542C185.097 239.18 187.131 240.433 187.358 240.576C187.411 240.607 187.441 240.667 187.426 240.728C187.419 240.788 187.373 240.833 187.313 240.848C186.768 240.977 186.216 241.037 185.664 241.045ZM184.726 239.738C184.658 239.738 184.598 239.746 184.537 239.776C184.469 239.806 184.431 239.874 184.439 239.95C184.408 240.154 184.484 240.358 184.643 240.493C184.991 240.78 185.815 240.826 186.912 240.607C186.246 240.176 185.505 239.882 184.726 239.738Z" fill="#90CAF9"/>
<path d="M187.282 240.818C187.26 240.826 187.229 240.826 187.207 240.818C186.556 240.463 185.293 239.082 185.429 238.387C185.475 238.16 185.671 237.994 185.906 237.994C186.133 237.964 186.367 238.032 186.541 238.183C187.297 238.78 187.426 240.599 187.426 240.675C187.434 240.728 187.411 240.788 187.358 240.811C187.335 240.818 187.305 240.818 187.282 240.818ZM186.034 238.266H185.974C185.777 238.266 185.762 238.379 185.755 238.417C185.671 238.832 186.511 239.874 187.124 240.365C187.078 239.648 186.813 238.961 186.367 238.394C186.276 238.311 186.155 238.266 186.034 238.266Z" fill="#90CAF9"/>
<path d="M159.374 239.859C158.391 240.176 156.621 240.614 155.865 240.093C155.638 239.935 155.502 239.678 155.509 239.406C155.494 239.24 155.57 239.082 155.706 238.983C156.417 238.485 159.087 239.467 159.382 239.58C159.442 239.603 159.48 239.663 159.48 239.723C159.48 239.784 159.435 239.844 159.374 239.859ZM155.887 239.21C155.834 239.248 155.804 239.316 155.812 239.384C155.812 239.565 155.895 239.738 156.046 239.837C156.47 240.139 157.506 240.078 158.867 239.693C157.771 239.353 156.326 238.983 155.887 239.21Z" fill="#90CAF9"/>
<path d="M159.374 239.859C159.336 239.874 159.291 239.874 159.253 239.859C158.459 239.61 156.81 238.425 156.848 237.707C156.848 237.534 156.946 237.315 157.347 237.232C157.642 237.164 157.952 237.216 158.202 237.39C159.072 237.956 159.435 239.655 159.45 239.655C159.457 239.708 159.442 239.761 159.404 239.799L159.374 239.859ZM157.249 237.594C157.151 237.647 157.143 237.707 157.143 237.737C157.143 238.168 158.262 239.112 159.087 239.489C158.935 238.787 158.565 238.145 158.035 237.654C157.854 237.526 157.627 237.481 157.415 237.534C157.355 237.541 157.302 237.556 157.249 237.586V237.594Z" fill="#90CAF9"/>
<path d="M159.321 128.573L150.737 88.7077C149.89 85.2119 146.827 82.6901 143.227 82.5391H110.342C113.942 82.6976 117.005 85.2119 117.852 88.7077L126.429 128.573C127.276 132.069 130.339 134.584 133.939 134.742H166.831C163.231 134.584 160.168 132.069 159.321 128.573Z" fill="#263238"/>
<path opacity="0.7" d="M159.321 128.573L150.737 88.7077C149.89 85.2119 146.827 82.6901 143.227 82.5391H110.342C113.942 82.6976 117.005 85.2119 117.852 88.7077L126.429 128.573C127.276 132.069 130.339 134.584 133.939 134.742H166.831C163.231 134.584 160.168 132.069 159.321 128.573Z" fill="#90CAF9"/>
<path d="M97.5095 130.558L96.6665 139.913L97.4198 139.981L98.2628 130.626L97.5095 130.558Z" fill="#90CAF9"/>
<path d="M95.8124 144.437L95.4507 148.354L96.2038 148.423L96.5656 144.506L95.8124 144.437Z" fill="#90CAF9"/>
<path d="M110.342 82.5391H143.227C139.74 82.607 136.851 85.2496 136.488 88.7077L127.957 181.335C127.586 184.793 124.697 187.443 121.21 187.504H100.684C97.6205 187.564 95.0868 185.125 95.0263 182.068C95.0188 181.826 95.0339 181.577 95.0642 181.335L103.595 88.7077C103.966 85.2421 106.855 82.5995 110.342 82.5391Z" fill="#90CAF9"/>
<path d="M115.591 181.335C115.243 184.378 117.428 187.119 120.476 187.466C120.718 187.496 120.968 187.504 121.21 187.504H88.3177C85.2546 187.564 82.7284 185.133 82.6679 182.075C82.6604 181.826 82.6755 181.584 82.7058 181.335H115.591Z" fill="#263238"/>
<path opacity="0.7" d="M115.591 181.335C115.243 184.378 117.428 187.119 120.476 187.466C120.718 187.496 120.968 187.504 121.21 187.504H88.3177C85.2546 187.564 82.7284 185.133 82.6679 182.075C82.6604 181.826 82.6755 181.584 82.7058 181.335H115.591Z" fill="#90CAF9"/>
<g opacity="0.5">
<path opacity="0.5" d="M130.823 92.9209H108.527C107.861 92.9285 107.309 92.3924 107.302 91.728C107.302 91.6751 107.302 91.6298 107.309 91.5769C107.392 90.8219 108.02 90.2481 108.776 90.233H131.035C131.7 90.2254 132.253 90.7615 132.26 91.4259C132.26 91.4788 132.26 91.5241 132.253 91.5769C132.169 92.3093 131.564 92.8832 130.823 92.9209Z" fill="white"/>
<path opacity="0.5" d="M130.127 100.184H107.869C107.203 100.199 106.651 99.6634 106.636 98.9989C106.636 98.9461 106.636 98.8932 106.644 98.8404C106.727 98.0853 107.354 97.5115 108.111 97.4964H130.369C131.035 97.4813 131.587 98.0174 131.602 98.6818C131.602 98.7347 131.602 98.7875 131.595 98.8404C131.511 99.5879 130.884 100.162 130.127 100.184Z" fill="white"/>
<path opacity="0.5" d="M124.016 107.455H107.203C106.537 107.463 105.985 106.927 105.978 106.262C105.978 106.21 105.978 106.164 105.985 106.111C106.069 105.356 106.696 104.783 107.453 104.767H124.251C124.916 104.752 125.468 105.288 125.483 105.953C125.483 106.006 125.483 106.059 125.476 106.111C125.393 106.859 124.772 107.433 124.016 107.455Z" fill="white"/>
<path opacity="0.5" d="M112.24 114.757H106.545C105.879 114.772 105.327 114.236 105.312 113.571C105.312 113.518 105.312 113.473 105.32 113.42C105.403 112.665 106.031 112.091 106.787 112.076H112.49C113.155 112.069 113.707 112.605 113.715 113.269C113.715 113.322 113.715 113.367 113.707 113.42C113.617 114.168 112.996 114.734 112.24 114.757Z" fill="white"/>
<path opacity="0.5" d="M128.138 121.99H105.864C105.199 121.997 104.647 121.461 104.639 120.797C104.639 120.744 104.639 120.699 104.647 120.646C104.73 119.891 105.358 119.317 106.114 119.302H128.365C129.031 119.287 129.583 119.823 129.598 120.487C129.598 120.54 129.598 120.593 129.59 120.646C129.507 121.393 128.887 121.96 128.138 121.99Z" fill="white"/>
<path opacity="0.5" d="M118.722 129.261H105.222C104.556 129.276 104.004 128.74 103.989 128.075C103.989 128.023 103.989 127.97 103.996 127.917C104.08 127.162 104.707 126.588 105.464 126.573H118.956C119.63 126.565 120.182 127.101 120.189 127.773C120.189 127.819 120.189 127.871 120.182 127.917C120.098 128.664 119.478 129.238 118.722 129.261Z" fill="white"/>
<path opacity="0.5" d="M126.815 136.524H104.556C103.89 136.532 103.338 135.996 103.331 135.331C103.331 135.278 103.331 135.233 103.338 135.18C103.422 134.425 104.049 133.851 104.806 133.836H127.042C127.715 133.829 128.267 134.365 128.274 135.037C128.274 135.082 128.274 135.135 128.267 135.18C128.184 135.928 127.563 136.494 126.815 136.524Z" fill="white"/>
<path opacity="0.5" d="M120.696 143.795H103.898C103.233 143.81 102.68 143.274 102.665 142.61C102.665 142.557 102.665 142.504 102.673 142.451C102.756 141.696 103.384 141.122 104.14 141.107H120.938C121.604 141.092 122.156 141.628 122.171 142.293C122.171 142.345 122.171 142.398 122.163 142.451C122.08 143.199 121.452 143.773 120.696 143.795Z" fill="white"/>
<path opacity="0.5" d="M108.935 151.066H103.232C102.559 151.073 102.007 150.537 102 149.865C102 149.82 102 149.767 102.007 149.722C102.09 148.967 102.726 148.393 103.482 148.378H109.177C109.843 148.363 110.395 148.899 110.41 149.563C110.41 149.616 110.41 149.669 110.402 149.722C110.319 150.469 109.691 151.043 108.935 151.066Z" fill="white"/>
<path opacity="0.5" d="M124.825 158.33H102.574C101.909 158.345 101.357 157.809 101.342 157.144C101.342 157.091 101.342 157.038 101.349 156.986C101.432 156.231 102.06 155.657 102.816 155.642H125.075C125.74 155.634 126.293 156.17 126.3 156.835C126.3 156.887 126.3 156.933 126.293 156.986C126.209 157.733 125.582 158.307 124.825 158.33Z" fill="white"/>
<path opacity="0.5" d="M115.402 165.6H101.909C101.243 165.615 100.691 165.079 100.676 164.415C100.676 164.362 100.676 164.309 100.684 164.256C100.767 163.501 101.395 162.928 102.151 162.912H115.644C116.309 162.897 116.861 163.433 116.876 164.098C116.876 164.151 116.876 164.204 116.869 164.256C116.786 165.004 116.158 165.578 115.402 165.6Z" fill="white"/>
<path opacity="0.5" d="M123.502 172.894H101.251C100.585 172.909 100.033 172.373 100.018 171.709C100.018 171.656 100.018 171.603 100.026 171.55C100.109 170.803 100.737 170.229 101.493 170.214H123.751C124.417 170.206 124.969 170.742 124.977 171.407C124.977 171.452 124.977 171.505 124.969 171.55C124.886 172.298 124.258 172.871 123.502 172.894Z" fill="white"/>
</g>
<mask id="path-98-inside-2" fill="white">
<path fill-rule="evenodd" clip-rule="evenodd" d="M198.408 82.139C198.249 84.6004 197.962 86.8882 197.651 89.2514C197.341 91.6147 196.948 93.9326 196.502 96.2732C195.625 101.053 194.324 105.749 192.622 110.302L191.866 112.061L191.677 112.499L191.631 112.612L191.556 112.778L191.329 113.246C191.041 113.79 190.693 114.296 190.285 114.756C189.634 115.496 188.871 116.131 188.016 116.629C187.328 117.044 186.602 117.392 185.845 117.678C183.349 118.577 180.733 119.128 178.085 119.302C173.566 119.635 169.027 119.496 164.543 118.892C162.474 120.047 158.686 117.996 158.686 117.996L158.686 117.993L154.125 116.448L155.698 109.977L160.955 110.279L160.955 110.279L160.955 110.279L165.122 113.893L167.164 113.662C167.928 113.574 168.689 113.465 169.446 113.357L169.446 113.357L169.446 113.357C169.798 113.307 170.149 113.257 170.499 113.209C172.708 112.884 174.894 112.522 176.981 112.038C178.902 111.646 180.778 111.027 182.555 110.196C183.032 109.992 183.455 109.675 183.773 109.267C183.773 109.229 183.748 109.258 183.725 109.284C183.682 109.335 183.649 109.374 183.833 108.875L184.333 107.418C185.558 103.242 186.488 98.9914 187.131 94.6877C187.494 92.4981 187.797 90.2858 188.099 88.066C188.402 85.8462 188.636 83.5887 188.855 81.467L198.408 82.139Z"/>
</mask>
<path fill-rule="evenodd" clip-rule="evenodd" d="M198.408 82.139C198.249 84.6004 197.962 86.8882 197.651 89.2514C197.341 91.6147 196.948 93.9326 196.502 96.2732C195.625 101.053 194.324 105.749 192.622 110.302L191.866 112.061L191.677 112.499L191.631 112.612L191.556 112.778L191.329 113.246C191.041 113.79 190.693 114.296 190.285 114.756C189.634 115.496 188.871 116.131 188.016 116.629C187.328 117.044 186.602 117.392 185.845 117.678C183.349 118.577 180.733 119.128 178.085 119.302C173.566 119.635 169.027 119.496 164.543 118.892C162.474 120.047 158.686 117.996 158.686 117.996L158.686 117.993L154.125 116.448L155.698 109.977L160.955 110.279L160.955 110.279L160.955 110.279L165.122 113.893L167.164 113.662C167.928 113.574 168.689 113.465 169.446 113.357L169.446 113.357L169.446 113.357C169.798 113.307 170.149 113.257 170.499 113.209C172.708 112.884 174.894 112.522 176.981 112.038C178.902 111.646 180.778 111.027 182.555 110.196C183.032 109.992 183.455 109.675 183.773 109.267C183.773 109.229 183.748 109.258 183.725 109.284C183.682 109.335 183.649 109.374 183.833 108.875L184.333 107.418C185.558 103.242 186.488 98.9914 187.131 94.6877C187.494 92.4981 187.797 90.2858 188.099 88.066C188.402 85.8462 188.636 83.5887 188.855 81.467L198.408 82.139Z" fill="white"/>
<path d="M197.651 89.2514L196.66 89.1213L197.651 89.2514ZM198.408 82.139L199.406 82.2034L199.47 81.2113L198.478 81.1415L198.408 82.139ZM196.502 96.2732L195.52 96.086L195.518 96.0927L196.502 96.2732ZM192.622 110.302L193.541 110.697L193.55 110.675L193.559 110.652L192.622 110.302ZM191.866 112.061L192.784 112.457L192.784 112.456L191.866 112.061ZM191.677 112.499L190.758 112.103L190.753 112.115L190.748 112.127L191.677 112.499ZM191.631 112.612L192.541 113.027L192.551 113.006L192.559 112.984L191.631 112.612ZM191.556 112.778L192.455 113.214L192.461 113.204L192.466 113.193L191.556 112.778ZM191.329 113.246L192.213 113.714L192.221 113.698L192.228 113.683L191.329 113.246ZM190.285 114.756L189.537 114.093L189.534 114.096L190.285 114.756ZM188.016 116.629L187.512 115.765L187.506 115.769L187.499 115.773L188.016 116.629ZM185.845 117.678L186.184 118.619L186.192 118.616L186.2 118.613L185.845 117.678ZM178.085 119.302L178.02 118.304L178.012 118.304L178.085 119.302ZM164.543 118.892L164.677 117.901L164.347 117.856L164.056 118.018L164.543 118.892ZM158.686 117.996L157.726 117.714L157.498 118.49L158.21 118.875L158.686 117.996ZM158.686 117.993L159.646 118.275L159.916 117.354L159.007 117.046L158.686 117.993ZM154.125 116.448L153.154 116.212L152.937 117.101L153.804 117.395L154.125 116.448ZM155.698 109.977L155.756 108.979L154.924 108.931L154.727 109.741L155.698 109.977ZM160.955 110.279L161.187 109.306L161.101 109.286L161.012 109.281L160.955 110.279ZM160.955 110.279L161.914 110.561L162.211 109.551L161.187 109.307L160.955 110.279ZM160.955 110.279L159.995 109.997L159.814 110.614L160.3 111.035L160.955 110.279ZM165.122 113.893L164.467 114.648L164.799 114.936L165.235 114.886L165.122 113.893ZM167.164 113.662L167.277 114.655L167.278 114.655L167.164 113.662ZM169.446 113.357L169.587 114.347L169.591 114.346L169.446 113.357ZM169.446 113.357L169.591 114.346L169.598 114.345L169.446 113.357ZM169.446 113.357L169.304 112.367L169.294 112.369L169.446 113.357ZM170.499 113.209L170.635 114.199L170.645 114.198L170.499 113.209ZM176.981 112.038L176.781 111.059L176.768 111.061L176.756 111.064L176.981 112.038ZM182.555 110.196L182.162 109.277L182.147 109.283L182.132 109.29L182.555 110.196ZM183.773 109.267L184.562 109.882L184.773 109.611V109.267H183.773ZM183.725 109.284L182.967 108.632L182.967 108.632L183.725 109.284ZM183.833 108.875L184.771 109.222L184.775 109.211L184.779 109.199L183.833 108.875ZM184.333 107.418L185.279 107.742L185.286 107.721L185.292 107.699L184.333 107.418ZM187.131 94.6877L186.144 94.5241L186.143 94.532L186.142 94.5399L187.131 94.6877ZM188.855 81.467L188.926 80.4695L187.96 80.4016L187.861 81.3642L188.855 81.467ZM198.643 89.3815C198.953 87.0173 199.245 84.7008 199.406 82.2034L197.41 82.0746C197.253 84.5001 196.97 86.7591 196.66 89.1213L198.643 89.3815ZM197.484 96.4605C197.933 94.107 198.33 91.7692 198.643 89.3815L196.66 89.1213C196.353 91.4602 195.963 93.7583 195.52 96.086L197.484 96.4605ZM193.559 110.652C195.281 106.044 196.597 101.291 197.485 96.4538L195.518 96.0927C194.652 100.814 193.367 105.453 191.685 109.952L193.559 110.652ZM192.784 112.456L193.541 110.697L191.703 109.907L190.947 111.666L192.784 112.456ZM192.595 112.895L192.784 112.457L190.948 111.665L190.758 112.103L192.595 112.895ZM192.559 112.984L192.605 112.871L190.748 112.127L190.703 112.24L192.559 112.984ZM192.466 113.193L192.541 113.027L190.721 112.198L190.645 112.364L192.466 113.193ZM192.228 113.683L192.455 113.214L190.656 112.342L190.429 112.81L192.228 113.683ZM191.033 115.42C191.496 114.898 191.889 114.326 192.213 113.714L190.445 112.779C190.193 113.254 189.891 113.694 189.537 114.093L191.033 115.42ZM188.52 117.493C189.469 116.939 190.316 116.235 191.036 115.417L189.534 114.096C188.953 114.757 188.272 115.322 187.512 115.765L188.52 117.493ZM186.2 118.613C187.008 118.307 187.789 117.934 188.533 117.485L187.499 115.773C186.866 116.155 186.195 116.476 185.491 116.743L186.2 118.613ZM178.151 120.3C180.893 120.12 183.601 119.549 186.184 118.619L185.507 116.738C183.097 117.605 180.572 118.136 178.02 118.304L178.151 120.3ZM164.41 119.883C168.962 120.496 173.571 120.637 178.159 120.299L178.012 118.304C173.562 118.632 169.092 118.496 164.677 117.901L164.41 119.883ZM158.686 117.996C158.21 118.875 158.21 118.875 158.21 118.875C158.21 118.875 158.21 118.875 158.211 118.875C158.211 118.876 158.211 118.876 158.212 118.876C158.213 118.877 158.214 118.877 158.216 118.878C158.218 118.88 158.222 118.882 158.227 118.884C158.237 118.889 158.25 118.896 158.266 118.905C158.299 118.922 158.346 118.946 158.405 118.976C158.524 119.035 158.692 119.117 158.9 119.21C159.313 119.396 159.892 119.633 160.546 119.833C161.196 120.032 161.951 120.203 162.709 120.238C163.461 120.273 164.293 120.177 165.031 119.765L164.056 118.018C163.759 118.184 163.341 118.265 162.801 118.24C162.267 118.215 161.687 118.09 161.131 117.92C160.579 117.752 160.081 117.548 159.72 117.386C159.54 117.305 159.397 117.236 159.3 117.187C159.251 117.163 159.215 117.144 159.191 117.132C159.18 117.126 159.171 117.121 159.166 117.118C159.164 117.117 159.162 117.116 159.161 117.116C159.161 117.116 159.161 117.116 159.161 117.116C159.161 117.116 159.161 117.116 159.161 117.116C159.161 117.116 159.161 117.116 159.161 117.116C159.162 117.116 159.162 117.116 158.686 117.996ZM157.727 117.711L157.726 117.714L159.645 118.277L159.646 118.275L157.727 117.711ZM153.804 117.395L158.365 118.94L159.007 117.046L154.446 115.501L153.804 117.395ZM154.727 109.741L153.154 116.212L155.097 116.684L156.67 110.213L154.727 109.741ZM161.012 109.281L155.756 108.979L155.641 110.975L160.897 111.277L161.012 109.281ZM161.187 109.307L161.187 109.306L160.722 111.252L160.722 111.252L161.187 109.307ZM161.914 110.561L161.914 110.561L159.995 109.997L159.995 109.997L161.914 110.561ZM165.777 113.137L161.61 109.524L160.3 111.035L164.467 114.648L165.777 113.137ZM167.052 112.668L165.01 112.899L165.235 114.886L167.277 114.655L167.052 112.668ZM169.304 112.367C168.545 112.476 167.798 112.582 167.05 112.668L167.278 114.655C168.058 114.566 168.832 114.455 169.587 114.347L169.304 112.367ZM169.3 112.368L169.3 112.368L169.591 114.346L169.591 114.346L169.3 112.368ZM169.294 112.369L169.294 112.369L169.598 114.345L169.598 114.345L169.294 112.369ZM170.364 112.218C170.01 112.266 169.656 112.317 169.304 112.367L169.587 114.347C169.94 114.297 170.288 114.247 170.635 114.199L170.364 112.218ZM176.756 111.064C174.708 111.538 172.553 111.896 170.354 112.219L170.645 114.198C172.863 113.872 175.08 113.505 177.207 113.013L176.756 111.064ZM182.132 109.29C180.426 110.087 178.625 110.682 176.781 111.059L177.181 113.018C179.179 112.61 181.13 111.966 182.979 111.102L182.132 109.29ZM182.984 108.653C182.776 108.919 182.492 109.135 182.162 109.277L182.949 111.115C183.571 110.849 184.134 110.431 184.562 109.882L182.984 108.653ZM184.484 109.936C184.493 109.925 184.482 109.938 184.468 109.953C184.465 109.957 184.4 110.028 184.294 110.095C184.243 110.128 184.112 110.206 183.923 110.236C183.7 110.272 183.395 110.238 183.132 110.021C182.906 109.835 182.83 109.608 182.804 109.508C182.775 109.397 182.773 109.308 182.773 109.267H184.773C184.773 109.217 184.77 109.121 184.74 109.004C184.712 108.898 184.634 108.668 184.405 108.479C184.14 108.26 183.831 108.225 183.604 108.262C183.412 108.293 183.277 108.372 183.221 108.408C183.106 108.481 183.031 108.562 183.017 108.577C182.991 108.604 182.969 108.63 182.967 108.632L184.484 109.936ZM182.896 108.527C182.815 108.745 182.742 108.946 182.714 109.087C182.713 109.088 182.666 109.281 182.711 109.507C182.735 109.624 182.837 110.007 183.255 110.211C183.664 110.411 184.022 110.264 184.119 110.219C184.242 110.162 184.325 110.092 184.353 110.068C184.39 110.036 184.418 110.008 184.433 109.993C184.459 109.965 184.483 109.937 184.484 109.936L182.967 108.632C182.956 108.645 182.97 108.629 182.987 108.611C182.997 108.601 183.02 108.577 183.053 108.548C183.077 108.528 183.156 108.461 183.276 108.405C183.371 108.361 183.726 108.215 184.133 108.414C184.548 108.617 184.649 108.997 184.672 109.11C184.699 109.246 184.691 109.354 184.688 109.388C184.683 109.434 184.677 109.469 184.674 109.484C184.664 109.532 184.667 109.503 184.771 109.222L182.896 108.527ZM183.387 107.093L182.887 108.551L184.779 109.199L185.279 107.742L183.387 107.093ZM186.142 94.5399C185.506 98.7993 184.585 103.005 183.373 107.136L185.292 107.699C186.531 103.479 187.471 99.1834 188.12 94.8354L186.142 94.5399ZM187.108 87.931C186.805 90.1528 186.505 92.351 186.144 94.5241L188.118 94.8512C188.483 92.6452 188.788 90.4189 189.09 88.2011L187.108 87.931ZM187.861 81.3642C187.641 83.488 187.408 85.7298 187.108 87.931L189.09 88.2011C189.395 85.9627 189.631 83.6894 189.85 81.5699L187.861 81.3642ZM198.478 81.1415L188.926 80.4695L188.785 82.4646L198.338 83.1366L198.478 81.1415Z" fill="#001C44" mask="url(#path-98-inside-2)"/>
<path d="M198.968 77.5784C202.053 82.7429 199.421 98.9912 199.421 98.9912L183.236 95.971C183.236 95.971 182.359 86.669 185.445 79.5264C188.795 71.7798 195.231 71.3117 198.968 77.5784Z" fill="#90CAF9"/>
</svg>
