<svg width="14" height="14" viewBox="0 0 14 14" fill="none" xmlns="http://www.w3.org/2000/svg">
<path fill-rule="evenodd" clip-rule="evenodd" d="M0.932376 10.9484C1.03516 11.2716 1.19265 11.5747 1.39798 11.8445L0.000129963 13.2486L0.636081 13.8845L2.04013 12.4867C2.30999 12.6923 2.61308 12.8501 2.93624 12.9533C3.65814 13.1932 4.44221 13.1657 5.14555 12.8759C5.52864 12.7174 5.87641 12.4844 6.16864 12.1904L7.76368 10.5891L3.29654 6.12097L1.69428 7.71601C1.39798 8.0123 1.16983 8.35402 1.00981 8.74014C0.720043 9.44349 0.692565 10.2275 0.932376 10.9494L0.932376 10.9484ZM1.85017 9.08599C1.96234 8.8135 2.12763 8.56608 2.33642 8.35815L3.29654 7.39803L6.48662 10.5881L5.5265 11.5482C5.31897 11.7573 5.0719 11.9229 4.7997 12.0355C4.52386 12.153 4.22693 12.213 3.9271 12.2118C3.62728 12.2105 3.33086 12.1481 3.056 12.0283C2.78345 11.9106 2.546 11.7485 2.34365 11.541C2.13717 11.3397 1.97405 11.1012 1.85636 10.8287C1.73671 10.5539 1.67436 10.2577 1.67312 9.95807C1.67188 9.65843 1.73177 9.36168 1.84914 9.08599L1.85017 9.08599ZM6.8304 3.93024L5.29834 5.52528L5.93429 6.16743L7.47255 4.56619L9.39279 6.4854L7.8535 8.08767L8.49565 8.72259L10.0267 7.12755L10.6626 7.76246L12.2639 6.16743C12.559 5.8735 12.7918 5.52308 12.9483 5.1371C13.1078 4.75477 13.1896 4.34451 13.1889 3.93024C13.1889 3.58749 13.1373 3.253 13.034 2.92883C12.9256 2.60879 12.7677 2.31249 12.5602 2.03891L13.958 0.634862L13.3231 -5.66479e-05L11.919 1.39676C11.6455 1.19029 11.3492 1.03233 11.0291 0.923931C10.705 0.820692 10.3705 0.769072 10.0277 0.769072C9.60856 0.769072 9.20593 0.848566 8.81981 1.00859C8.42957 1.16861 8.08682 1.39676 7.78949 1.69306L6.19445 3.29532L6.8304 3.93024V3.93024ZM9.16566 1.84172C9.43862 1.72882 9.73129 1.67127 10.0267 1.67241C10.3374 1.67241 10.6317 1.73126 10.9094 1.84792C11.1769 1.96238 11.4209 2.12551 11.6289 2.32901C11.832 2.53715 11.9948 2.78113 12.109 3.04858C12.2266 3.32757 12.2863 3.62751 12.2845 3.93024C12.2857 4.22683 12.2276 4.52066 12.1138 4.79454C12 5.06842 11.8327 5.31685 11.6217 5.52528L10.6616 6.4854L7.47152 3.29532L8.43164 2.3352C8.64195 2.12461 8.89127 1.957 9.16566 1.84172V1.84172Z" fill="white"/>
</svg>
