<svg width="296" height="235" viewBox="0 0 296 235" fill="none" xmlns="http://www.w3.org/2000/svg">
<path d="M99.3278 117.47H0V193.947H99.3278V117.47Z" fill="#EBEBEB"/>
<path d="M74.4372 193.411C74.3313 193.411 74.2405 176.363 74.2405 155.343C74.2405 134.315 74.3313 117.266 74.4372 117.266C74.5431 117.266 74.6338 134.307 74.6338 155.343C74.6338 176.363 74.5506 193.411 74.4372 193.411Z" fill="#E0E0E0"/>
<path d="M90.9023 176.544H83.2862V185.136H90.9023V176.544Z" fill="#FAFAFA"/>
<path d="M41.5826 117.674H30.2982V133.99H41.5826V117.674Z" fill="#E0E0E0"/>
<path d="M41.5826 177.405H30.2982V193.721H41.5826V177.405Z" fill="#E0E0E0"/>
<path d="M92.5057 56.1766H12.6381V117.666H92.5057V56.1766Z" fill="#F5F5F5"/>
<path d="M72.4858 117.236C72.3951 117.236 72.327 103.532 72.327 86.6271C72.327 69.7143 72.3951 56.0105 72.4858 56.0105C72.5766 56.0105 72.6447 69.7143 72.6447 86.6271C72.6447 103.532 72.5766 117.236 72.4858 117.236Z" fill="#E0E0E0"/>
<path d="M85.729 103.676H79.6028V110.584H85.729V103.676Z" fill="#FAFAFA"/>
<path d="M46.0675 56.3351H36.9992V69.4576H46.0675V56.3351Z" fill="#E0E0E0"/>
<path d="M46.0675 104.363H36.9992V117.485H46.0675V104.363Z" fill="#E0E0E0"/>
<path d="M187.553 0.158577H112.533V57.9186H187.553V0.158577Z" fill="#F5F5F5"/>
<path d="M168.758 57.5109C168.675 57.5109 168.607 44.6376 168.607 28.7592C168.607 12.8733 168.675 0 168.758 0C168.841 0 168.909 12.8733 168.909 28.7592C168.909 44.6376 168.841 57.5109 168.758 57.5109Z" fill="#E0E0E0"/>
<path d="M181.192 44.7735H175.444V51.2668H181.192V44.7735Z" fill="#FAFAFA"/>
<path d="M143.943 0.309563H135.419V12.6317H143.943V0.309563Z" fill="#E0E0E0"/>
<path d="M143.943 45.4228H135.419V57.745H143.943V45.4228Z" fill="#E0E0E0"/>
<path d="M212.693 124.324H126.23V190.903H212.693V124.324Z" fill="#EBEBEB"/>
<path d="M191.032 190.435C190.933 190.435 190.858 175.598 190.858 157.296C190.858 138.987 190.933 124.15 191.032 124.15C191.13 124.15 191.206 138.987 191.206 157.296C191.206 175.591 191.13 190.435 191.032 190.435Z" fill="#E0E0E0"/>
<path d="M205.364 175.749H198.739V183.232H205.364V175.749Z" fill="#FAFAFA"/>
<path d="M162.435 124.498H152.611V138.7H162.435V124.498Z" fill="#E0E0E0"/>
<path d="M162.435 176.497H152.611V190.699H162.435V176.497Z" fill="#E0E0E0"/>
<path d="M200.751 57.9186H114.288V124.497H200.751V57.9186Z" fill="#EBEBEB"/>
<path d="M179.089 124.029C178.991 124.029 178.916 109.193 178.916 90.8909C178.916 72.5814 178.991 57.7449 179.089 57.7449C179.188 57.7449 179.263 72.5814 179.263 90.8909C179.263 109.185 179.188 124.029 179.089 124.029Z" fill="#E0E0E0"/>
<path d="M193.422 109.344H186.796V116.826H193.422V109.344Z" fill="#FAFAFA"/>
<path d="M150.493 58.0923H140.668V72.2944H150.493V58.0923Z" fill="#E0E0E0"/>
<path d="M150.493 110.091H140.668V124.294H150.493V110.091Z" fill="#E0E0E0"/>
<path d="M288.976 134.87H213.956V192.631H288.976V134.87Z" fill="#F5F5F5"/>
<path d="M270.173 192.223C270.09 192.223 270.022 179.349 270.022 163.471C270.022 147.585 270.09 134.712 270.173 134.712C270.257 134.712 270.325 147.585 270.325 163.471C270.325 179.349 270.257 192.223 270.173 192.223Z" fill="#E0E0E0"/>
<path d="M282.607 179.485H276.859V185.979H282.607V179.485Z" fill="#FAFAFA"/>
<path d="M245.366 135.021H236.842V147.344H245.366V135.021Z" fill="#E0E0E0"/>
<path d="M245.366 180.135H236.842V192.457H245.366V180.135Z" fill="#E0E0E0"/>
<path d="M295.624 77.2539H220.604V135.014H295.624V77.2539Z" fill="#EBEBEB"/>
<path d="M276.829 134.606C276.746 134.606 276.678 121.733 276.678 105.855C276.678 89.9687 276.746 77.0953 276.829 77.0953C276.912 77.0953 276.98 89.9687 276.98 105.855C276.98 121.733 276.912 134.606 276.829 134.606Z" fill="#E0E0E0"/>
<path d="M289.263 121.869H283.515V128.362H289.263V121.869Z" fill="#FAFAFA"/>
<path d="M252.014 77.4049H243.49V89.727H252.014V77.4049Z" fill="#E0E0E0"/>
<path d="M252.014 122.518H243.49V134.84H252.014V122.518Z" fill="#E0E0E0"/>
<path d="M292.818 37.1691H239.141V78.4997H292.818V37.1691Z" fill="#EBEBEB"/>
<path d="M279.37 78.2052C279.31 78.2052 279.264 68.9938 279.264 57.6305C279.264 46.2673 279.31 37.0559 279.37 37.0559C279.431 37.0559 279.476 46.2673 279.476 57.6305C279.476 68.9938 279.431 78.2052 279.37 78.2052Z" fill="#E0E0E0"/>
<path d="M288.264 69.0919H284.15V73.7354H288.264V69.0919Z" fill="#FAFAFA"/>
<path d="M261.612 37.2748H255.516V46.0936H261.612V37.2748Z" fill="#E0E0E0"/>
<path d="M261.612 69.5601H255.516V78.3789H261.612V69.5601Z" fill="#E0E0E0"/>
<path d="M225.193 152.855L224.777 154.014L206.053 148.239L147.212 114.291L225.193 152.855Z" fill="#90CAF9"/>
<path d="M147.212 114.313L85.7676 149.771L60.3719 151.367L60 150.099L147.212 114.313Z" fill="#90CAF9"/>
<path d="M144.609 234.335L206.053 198.856V146.948L144.609 182.428V234.335Z" fill="#90CAF9"/>
<path d="M206.053 146.948L144.609 182.428L177.113 164.688L206.053 146.948Z" fill="#C7E5FC"/>
<path d="M144.609 234.335L85.7457 200.343V148.436L144.609 182.428V234.335Z" fill="#409BF0"/>
<path d="M141.546 229.479L128.422 221.867V206.708L141.546 214.321V229.479ZM129.209 221.364L140.693 227.926V214.802L129.209 208.24V221.364Z" fill="#C7E5FC"/>
<path d="M136.406 224.623L133.497 222.961V215.327L136.406 216.989V224.623Z" fill="#C7E5FC"/>
<path d="M139.271 220.095L130.631 215.108L134.94 212.396L139.271 220.095Z" fill="#C7E5FC"/>
<path d="M66.6059 176.522L144.609 182.428V183.719L125.863 211.149L67.0434 177.2L66.6059 176.522Z" fill="#409BF0"/>
<path d="M231.317 179.038L169.895 214.517L144.609 183.719V182.428L231.798 178.316L231.317 179.038Z" fill="#409BF0"/>
<path d="M85.7676 148.479L144.609 182.428L125.447 210.47L66.6059 176.522L85.7676 148.479Z" fill="#C7E5FC"/>
<path d="M166.373 118.906L225.193 152.854L206.053 146.948L147.212 113L166.373 118.906Z" fill="#C7E5FC"/>
<path d="M147.234 113L206.053 146.948L144.609 182.428L85.7676 148.48L147.234 113Z" fill="#7EC0F5"/>
<path d="M87.2988 148.436L147.212 113.875L204.478 146.905L144.587 181.487L87.2988 148.436Z" fill="#90CAF9"/>
<path d="M231.798 178.316L170.376 213.795L144.609 182.406L206.053 146.948L231.798 178.316Z" fill="#C7E5FC"/>
<path d="M147.212 113.022L85.7676 148.48L60 150.098L121.444 114.641L147.212 113.022Z" fill="#C7E5FC"/>
<path d="M176.982 163.944L176.479 164.207L176.282 164.098L176.807 163.813L176.982 163.944Z" fill="#409BF0"/>
<path d="M133.081 174.86L144.587 181.488L158.717 173.329L147.212 166.701L133.081 174.86Z" fill="#409BF0"/>
<path d="M147.212 166.7V113.875L204.478 146.905L158.717 173.328L147.212 166.7Z" fill="#7EC0F5"/>
</svg>
