<svg width="24" height="25" viewBox="0 0 24 25" fill="none" xmlns="http://www.w3.org/2000/svg">
<path d="M2 1.4043H22C22.8284 1.4043 23.5 2.07587 23.5 2.9043V22.9043C23.5 23.7327 22.8284 24.4043 22 24.4043H2C1.17157 24.4043 0.5 23.7327 0.5 22.9043V2.9043C0.5 2.07587 1.17157 1.4043 2 1.4043Z" fill="white" stroke="#D9DFEA"/>
<path d="M8.3999 11.1043V6.9043H15.5999V11.1043" stroke="#CCCCCC" stroke-linecap="round" stroke-linejoin="round"/>
<path d="M8.4 16.5045H7.2C6.88174 16.5045 6.57652 16.3781 6.35147 16.153C6.12643 15.928 6 15.6228 6 15.3045V12.3045C6 11.9862 6.12643 11.681 6.35147 11.456C6.57652 11.2309 6.88174 11.1045 7.2 11.1045H16.8C17.1183 11.1045 17.4235 11.2309 17.6485 11.456C17.8736 11.681 18 11.9862 18 12.3045V15.3045C18 15.6228 17.8736 15.928 17.6485 16.153C17.4235 16.3781 17.1183 16.5045 16.8 16.5045H15.6" stroke="#CCCCCC" stroke-linecap="round" stroke-linejoin="round"/>
<path d="M15.5999 14.1045H8.3999V18.9045H15.5999V14.1045Z" stroke="#CCCCCC" stroke-linecap="round" stroke-linejoin="round"/>
</svg>
