<svg width="24" height="24" viewBox="0 0 24 24" fill="none" xmlns="http://www.w3.org/2000/svg">
<path d="M2 0.5H22C22.8284 0.5 23.5 1.17157 23.5 2V22C23.5 22.8284 22.8284 23.5 22 23.5H2C1.17157 23.5 0.5 22.8284 0.5 22V2C0.5 1.17157 1.17157 0.5 2 0.5Z" fill="white" stroke="#D9DFEA"/>
<path d="M15.2998 12.5502V15.8502C15.2998 16.4552 14.8048 16.9502 14.1998 16.9502H8.1498C7.5448 16.9502 7.0498 16.4552 7.0498 15.8502V9.8002C7.0498 9.1952 7.5448 8.7002 8.1498 8.7002H11.4498" stroke="#CCCCCC" stroke-linecap="round" stroke-linejoin="round"/>
<path d="M13.6484 7.05078H16.9484V10.3508" stroke="#CCCCCC" stroke-linecap="round" stroke-linejoin="round"/>
<path d="M10.8984 13.1008L16.9484 7.05078" stroke="#CCCCCC" stroke-linecap="round" stroke-linejoin="round"/>
</svg>
