<svg width="25" height="25" viewBox="0 0 25 25" fill="none" xmlns="http://www.w3.org/2000/svg">
<path d="M2.11523 0.779297H22.1152C22.9437 0.779297 23.6152 1.45087 23.6152 2.2793V22.2793C23.6152 23.1077 22.9437 23.7793 22.1152 23.7793H2.11523C1.28681 23.7793 0.615234 23.1077 0.615234 22.2793V2.2793C0.615234 1.45087 1.28681 0.779297 2.11523 0.779297Z" fill="white" stroke="#D9DFEA"/>
<path d="M6.26807 8.37891H7.56807H17.9681" stroke="#CCCCCC" stroke-linecap="round" stroke-linejoin="round"/>
<path d="M9.51885 8.3793V7.0793C9.51885 6.73452 9.65581 6.40386 9.89961 6.16006C10.1434 5.91626 10.4741 5.7793 10.8188 5.7793H13.4188C13.7636 5.7793 14.0943 5.91626 14.3381 6.16006C14.5819 6.40386 14.7188 6.73452 14.7188 7.0793V8.3793M16.6688 8.3793V17.4793C16.6688 17.8241 16.5319 18.1547 16.2881 18.3985C16.0443 18.6423 15.7136 18.7793 15.3688 18.7793H8.86885C8.52407 18.7793 8.19341 18.6423 7.94961 18.3985C7.70581 18.1547 7.56885 17.8241 7.56885 17.4793V8.3793H16.6688Z" stroke="#CCCCCC" stroke-linecap="round" stroke-linejoin="round"/>
<path d="M10.8188 11.6289V15.5289" stroke="#CCCCCC" stroke-linecap="round" stroke-linejoin="round"/>
<path d="M13.4185 11.6289V15.5289" stroke="#CCCCCC" stroke-linecap="round" stroke-linejoin="round"/>
</svg>
