<svg width="65" height="64" viewBox="0 0 65 64" fill="none" xmlns="http://www.w3.org/2000/svg">
<g clip-path="url(#clip0)">
<path d="M21.2169 34.8381H10.8725C6.11082 34.8381 2.21115 30.9385 2.21115 26.1768V10.8655C2.21115 6.10377 6.11082 2.2041 10.8725 2.2041H54.3435C59.1052 2.2041 63.0049 6.10377 63.0049 10.8655V26.1768C63.0049 30.9385 59.1052 34.8381 54.3435 34.8381" stroke="#4B4B4B" stroke-width="2.4925" stroke-miterlimit="22.9256" stroke-linecap="round" stroke-linejoin="round"/>
<path d="M21.3811 26.3413C23.0231 25.3151 25.1576 25.8898 26.2249 27.4907L31.7255 35.6594C31.9307 34.7564 32.4643 33.9354 33.3264 33.4017C34.8452 32.4576 36.7745 32.8271 37.8828 34.1406C37.9239 33.0734 38.4986 32.0061 39.4837 31.3903C40.9615 30.4462 42.9319 30.8157 44.0402 32.1292C44.1223 31.0209 44.697 29.9947 45.6822 29.3789C47.3241 28.3527 49.5818 28.8042 50.5259 30.5283L57.3401 43.0072C62.8817 53.1464 52.1679 66.2 41.413 61.1099L22.7357 52.2843C20.9706 51.4634 20.2317 49.3698 21.0527 47.6047C22.6947 46.5785 26.1838 46.127 27.9489 46.989L31.4792 48.672L20.2317 31.1851C19.2055 29.5431 19.7391 27.3675 21.3811 26.3413Z" stroke="#4B4B4B" stroke-width="2.4925" stroke-miterlimit="22.9256" stroke-linecap="round" stroke-linejoin="round"/>
<path d="M38.2523 9.38721V18.8285C38.2523 19.9779 38.1291 20.922 37.8828 21.7019C36.364 26.2584 29.5909 26.1763 28.0721 21.7019C27.7847 20.922 27.6616 19.9368 27.6616 18.8285V9.38721" stroke="#4B4B4B" stroke-width="2.4925" stroke-miterlimit="22.9256" stroke-linecap="round" stroke-linejoin="round"/>
<path d="M16.291 24.0417H13.9923C13.2534 24.0417 12.7608 23.9186 12.4324 23.5902C12.1451 23.3029 11.9809 22.8513 11.9809 22.2356V11.1934C11.9809 10.5366 12.1451 10.085 12.4735 9.7977C12.8018 9.51035 13.2944 9.38721 14.0333 9.38721H16.6605C17.4404 9.38721 18.1382 9.42826 18.7129 9.51035C19.2466 9.59245 19.7391 9.75665 20.1907 10.0029C23.6799 11.8502 22.0789 14.8467 18.5898 16.2835C23.5567 17.6791 24.4187 21.9482 20.3138 23.5081C19.8212 23.7133 19.2466 23.8365 18.5898 23.9186C17.933 24.0007 17.1531 24.0417 16.291 24.0417Z" stroke="#4B4B4B" stroke-width="2.4925" stroke-miterlimit="22.9256" stroke-linecap="round" stroke-linejoin="round"/>
<path d="M42.7266 9.38721C44.4096 11.0702 46.9547 15.3393 48.3914 17.4328C50.0333 15.052 51.6753 12.7122 53.2762 10.3313C53.4404 10.085 53.6457 9.83875 53.8509 9.59245" stroke="#4B4B4B" stroke-width="2.4925" stroke-miterlimit="22.9256" stroke-linecap="round" stroke-linejoin="round"/>
<path d="M48.3093 16.5703V25.0675" stroke="#4B4B4B" stroke-width="2.4925" stroke-miterlimit="22.9256" stroke-linecap="round" stroke-linejoin="round"/>
<path d="M18.5898 16.2847H11.9809" stroke="#4B4B4B" stroke-width="2.4925" stroke-miterlimit="22.9256" stroke-linecap="round" stroke-linejoin="round"/>
</g>
<defs>
<clipPath id="clip0">
<rect width="63.2977" height="62.5178" fill="white" transform="translate(0.979614 0.973633)"/>
</clipPath>
</defs>
</svg>
