<svg width="13" height="14" viewBox="0 0 13 14" fill="none" xmlns="http://www.w3.org/2000/svg">
<path d="M2.8 1.23633L1 3.63633V12.0363C1 12.3546 1.12643 12.6598 1.35147 12.8849C1.57652 13.1099 1.88174 13.2363 2.2 13.2363H10.6C10.9183 13.2363 11.2235 13.1099 11.4485 12.8849C11.6736 12.6598 11.8 12.3546 11.8 12.0363V3.63633L10 1.23633H2.8Z" stroke="#8392A5" stroke-linecap="round" stroke-linejoin="round"/>
<path d="M1 3.63574H11.8" stroke="#8392A5" stroke-linecap="round" stroke-linejoin="round"/>
<path d="M8.8 6.03516C8.8 6.67168 8.54714 7.28213 8.09706 7.73221C7.64697 8.1823 7.03652 8.43516 6.4 8.43516C5.76348 8.43516 5.15303 8.1823 4.70294 7.73221C4.25286 7.28213 4 6.67168 4 6.03516" stroke="#8392A5" stroke-linecap="round" stroke-linejoin="round"/>
</svg>
