<svg width="96" height="95" viewBox="0 0 96 95" fill="none" xmlns="http://www.w3.org/2000/svg">
<path d="M33.7286 92.935L49.2678 78.245L61.2961 90.27L86.0028 64.985L94 73.045V51.205H72.1541L80.0212 59.07L61.4912 78.05L49.4629 66.025L15.9138 93M14.7435 75.775C6.68127 67.845 2 57.64 2 45.485C2 21.5 21.4403 2 45.4968 2C67.5378 2 85.7428 18.38 88.6035 39.7L14.7435 75.775ZM45.4968 39.7C48.6827 39.7 51.2184 42.3 51.2184 45.42C51.2184 48.605 48.6177 51.14 45.4968 51.14C42.376 51.14 39.7102 48.67 39.7102 45.485C39.7102 42.3 42.311 39.7 45.4968 39.7ZM71.2438 30.6L51.0883 42.235L71.2438 30.6ZM40.0353 48.865L33.1435 53.025L40.0353 48.865ZM74.9498 16.04L68.7081 22.28L74.9498 16.04ZM45.4968 3.82V12.595V3.82ZM16.0438 16.04L22.2855 22.28L16.0438 16.04ZM3.82049 45.485H12.5979H3.82049ZM14.7435 75.775L22.2205 68.755L14.7435 75.775Z" stroke="url(#paint0_linear)" stroke-width="4" stroke-miterlimit="22.9256" stroke-linecap="round" stroke-linejoin="round"/>
<defs>
<linearGradient id="paint0_linear" x1="165.875" y1="210.65" x2="54.1812" y2="243.913" gradientUnits="userSpaceOnUse">
<stop stop-color="#33B2FA"/>
<stop offset="0.940675" stop-color="#3B76EF"/>
</linearGradient>
</defs>
</svg>
