<svg width="13" height="13" viewBox="0 0 13 13" fill="none" xmlns="http://www.w3.org/2000/svg">
<g clip-path="url(#clip0)">
<path d="M8.99609 4.75906L4.49609 2.16406" stroke="#8392A5" stroke-linecap="round" stroke-linejoin="round"/>
<path d="M11.2461 8.05854V4.05854C11.2459 3.88318 11.1996 3.71095 11.1119 3.55913C11.0241 3.4073 10.898 3.28123 10.7461 3.19354L7.24609 1.19354C7.09407 1.10578 6.92163 1.05957 6.74609 1.05957C6.57056 1.05957 6.39811 1.10578 6.24609 1.19354L2.74609 3.19354C2.59423 3.28123 2.46808 3.4073 2.38032 3.55913C2.29257 3.71095 2.24627 3.88318 2.24609 4.05854V8.05854C2.24627 8.23391 2.29257 8.40614 2.38032 8.55796C2.46808 8.70979 2.59423 8.83586 2.74609 8.92354L6.24609 10.9235C6.39811 11.0113 6.57056 11.0575 6.74609 11.0575C6.92163 11.0575 7.09407 11.0113 7.24609 10.9235L10.7461 8.92354C10.898 8.83586 11.0241 8.70979 11.1119 8.55796C11.1996 8.40614 11.2459 8.23391 11.2461 8.05854Z" stroke="#8392A5" stroke-linecap="round" stroke-linejoin="round"/>
<path d="M2.38086 3.53809L6.74586 6.06309L11.1109 3.53809" stroke="#8392A5" stroke-linecap="round" stroke-linejoin="round"/>
<path d="M6.74609 11.0986V6.05859" stroke="#8392A5" stroke-linecap="round" stroke-linejoin="round"/>
</g>
<defs>
<clipPath id="clip0">
<rect width="12" height="12" fill="white" transform="translate(0.746094 0.0585938)"/>
</clipPath>
</defs>
</svg>
