<svg width="108" height="97" viewBox="0 0 108 97" fill="none" xmlns="http://www.w3.org/2000/svg">
<path d="M27.4348 65.5201L27.4356 65.5207C29.0483 66.7879 30.0582 68.5997 30.3205 70.6242C30.5482 72.6632 29.9466 74.6461 28.6743 76.2365L28.6731 76.238C27.2037 78.0819 25.0162 79.1211 22.6418 79.1211C20.9162 79.1211 19.2094 78.5157 17.8487 77.4445L17.848 77.4439C16.2341 76.1759 15.2276 74.3658 14.9966 72.3157L14.9964 72.3141C14.7657 70.2959 15.3419 68.2845 16.6349 66.7042L16.6397 66.6984L16.6444 66.6924C18.0788 64.885 20.2642 63.8435 22.6418 63.8435C24.3674 63.8435 26.0742 64.4489 27.4348 65.5201ZM27.1532 75.0381L27.1578 75.0325L27.1623 75.0269C28.1116 73.8403 28.5521 72.3651 28.3929 70.8529L28.3915 70.8397L28.3898 70.8266C28.1925 69.3267 27.4394 67.9773 26.2517 67.0271L26.2441 67.021L26.2364 67.0151C25.2101 66.2257 23.9465 65.7909 22.6418 65.7909C20.8602 65.7909 19.2345 66.5858 18.1303 67.9265L18.1257 67.9321L18.1212 67.9377C17.1719 69.1244 16.7314 70.5996 16.8906 72.1118L16.892 72.1249L16.8937 72.138C17.0911 73.638 17.8441 74.9873 19.0319 75.9375L19.0394 75.9436L19.0471 75.9495C20.0734 76.739 21.3371 77.1737 22.6418 77.1737C24.4233 77.1737 26.0491 76.3789 27.1532 75.0381Z" fill="white" stroke="url(#paint0_linear)" stroke-width="2.03861"/>
<path d="M69.8824 32.3936L69.8827 32.3942C70.7772 34.2409 70.8929 36.2818 70.228 38.2187C69.5684 40.1402 68.162 41.6972 66.3089 42.5962C65.2664 43.0877 64.1421 43.346 62.9914 43.346C60.0481 43.346 57.3344 41.6404 56.0678 39.0208L56.0678 39.0207L56.0647 39.0144C55.1748 37.206 55.0564 35.1351 55.7221 33.1957C56.3818 31.2741 57.7882 29.7171 59.6413 28.8181C60.6837 28.3266 61.808 28.0684 62.9587 28.0684C65.8716 28.0684 68.6167 29.7759 69.8824 32.3936ZM57.524 33.8254L57.5197 33.8373L57.5157 33.8493C57.0431 35.2669 57.119 36.8124 57.7564 38.1669L57.7564 38.1669L57.7598 38.1739C58.715 40.1639 60.7404 41.4313 62.9587 41.4313C63.8367 41.4313 64.6648 41.2309 65.4354 40.8841L65.4354 40.8841L65.4409 40.8816C66.8538 40.2357 67.8836 39.0337 68.3935 37.6216C68.9098 36.1919 68.834 34.6304 68.1542 33.2657C67.1975 31.28 65.1743 30.0158 62.9587 30.0158C62.1174 30.0158 61.2753 30.1689 60.4605 30.5728C59.0559 31.2205 58.0319 32.4187 57.524 33.8254Z" fill="white" stroke="url(#paint1_linear)" stroke-width="2.03861"/>
<path d="M50.8248 23.616L50.8247 23.6165C50.0173 27.1054 46.9349 29.5574 43.323 29.5574C42.8053 29.5574 42.2328 29.4755 41.6091 29.3513C39.591 28.8864 37.8959 27.6773 36.8003 25.9473C35.7047 24.2175 35.359 22.1751 35.7899 20.2156C36.599 16.7294 39.6803 14.2798 43.2903 14.2798C43.8421 14.2798 44.4158 14.3622 45.0369 14.4859C47.055 14.9508 48.7501 16.1599 49.8458 17.8899L49.8458 17.8899L49.85 17.8964C50.9396 19.5882 51.2865 21.6251 50.8248 23.616ZM37.6896 20.6145L37.6896 20.6145L37.6873 20.625C37.3743 22.0726 37.6029 23.6175 38.3699 24.869L38.3744 24.8763L38.3791 24.8836C39.211 26.1909 40.4798 27.0604 41.9609 27.4153C42.4261 27.5402 42.8748 27.5773 43.2903 27.5773C45.9799 27.5773 48.3216 25.7216 48.9216 23.1338C49.2821 21.6449 48.9954 20.1256 48.2061 18.8626L48.2061 18.8626L48.2016 18.8556C47.3697 17.5483 46.1009 16.6788 44.6198 16.3239C44.1546 16.199 43.7059 16.1618 43.2903 16.1618C40.5973 16.1618 38.2862 17.9897 37.6896 20.6145Z" fill="white" stroke="url(#paint2_linear)" stroke-width="2.03861"/>
<path d="M24.9852 34.4798L24.9845 34.4804C23.6238 35.5516 21.917 36.157 20.1914 36.157C17.8243 36.157 15.6307 35.0905 14.1552 33.2678L14.1552 33.2678L14.1518 33.2636C12.8589 31.6834 12.2827 29.672 12.5133 27.6538C12.7446 25.6302 13.7541 23.7936 15.356 22.5636L15.3661 22.5558L15.376 22.5477C16.7233 21.4585 18.4226 20.8794 20.1587 20.8794C22.5319 20.8794 24.7202 21.9177 26.1903 23.7302C27.4612 25.3508 28.0362 27.3385 27.8359 29.3579C27.6036 31.4054 26.5974 33.2131 24.9852 34.4798ZM15.6708 32.0628L15.6754 32.0684L15.68 32.074C16.7841 33.4147 18.4099 34.2096 20.1914 34.2096C21.4828 34.2096 22.7258 33.815 23.7705 32.9719C24.958 32.0212 25.7022 30.6789 25.9357 29.1999L25.9398 29.1739L25.9426 29.1477C26.1017 27.6355 25.6613 26.1603 24.712 24.9736L24.7075 24.968L24.7029 24.9624C23.5987 23.6217 21.9729 22.8268 20.1914 22.8268C18.8737 22.8268 17.6321 23.2176 16.586 24.0594C15.3619 25.0105 14.6002 26.3694 14.4403 27.8888C14.2811 29.401 14.7215 30.8762 15.6708 32.0628Z" fill="white" stroke="url(#paint3_linear)" stroke-width="2.03861"/>
<path d="M80.4343 31.9552L80.968 33.3481L82.0718 32.3447C82.2307 32.2003 82.3998 32.0604 82.5908 31.9026L82.599 31.8957C82.7777 31.7481 82.9765 31.584 83.1701 31.4087C92.283 23.6494 97.5488 19.8054 100.656 17.9045C102.209 16.9543 103.189 16.5104 103.817 16.3009C104.389 16.1099 104.674 16.1102 104.89 16.1104L104.91 16.1104C105.569 16.1104 105.908 16.3557 106.114 16.56C106.384 16.8364 106.518 17.1317 106.555 17.4895C106.595 17.8757 106.526 18.3854 106.286 19.0629C105.798 20.4378 104.714 22.2149 103.094 24.5384L103.09 24.5445L103.085 24.5506C100.728 28.0376 97.1596 32.6469 92.495 38.2574L92.4913 38.2619C89.7892 41.55 86.7913 45.0368 83.7242 48.528L83.4747 48.8121L83.4708 49.1903C83.3429 61.6292 78.3886 73.2992 69.4942 82.1296C60.4716 91.0555 48.5104 95.9807 35.7759 95.9807C28.8202 95.9807 20.274 93.5556 13.5544 89.5879C5.33316 84.7253 1.01931 78.4058 1.01931 71.8425C1.01931 67.7918 2.1531 64.981 3.71029 62.8507C5.28988 60.6897 7.33572 59.1809 9.28782 57.7702L9.29514 57.7649L9.30236 57.7595C9.36468 57.7127 9.42694 57.6661 9.48912 57.6195C12.4996 55.3635 15.3297 53.2428 15.3297 48.7106C15.3297 44.1421 12.4232 41.9933 9.38361 39.746C9.34446 39.7171 9.30529 39.6881 9.26611 39.6592C7.32469 38.2113 5.28586 36.6874 3.70791 34.5158C2.15293 32.3758 1.01931 29.5637 1.01931 25.5135C1.01931 18.9486 5.33496 12.5976 13.5519 7.76957C20.2756 3.83154 28.8228 1.37526 35.7759 1.37526C46.1761 1.37526 56.0584 4.6377 64.3767 10.8123C71.606 16.1863 77.2367 23.6093 80.4343 31.9552ZM68.1844 80.7681L68.1853 80.7672C75.5021 73.5173 80.0499 64.2237 81.287 54.1936L81.6843 50.972L79.5166 53.3882C74.3969 59.0948 69.213 64.6047 64.6836 69.1992L64.4815 69.4043L64.4165 69.6848C63.1183 75.2893 60.5841 79.3829 56.8936 81.9144L56.8891 81.9175C53.8895 83.9989 50.1494 85.0682 45.6756 85.0682C42.4721 85.0682 39.4826 84.5071 37.2575 83.9289C36.1474 83.6404 35.2339 83.3493 34.5867 83.1256C34.2633 83.0137 34.007 82.9189 33.8265 82.8498C33.7362 82.8153 33.6652 82.7873 33.6145 82.767C33.5891 82.7568 33.569 82.7486 33.5544 82.7426L33.5372 82.7355L33.5337 82.734L33.531 82.7329L33.5267 82.731C33.1104 82.5549 32.8633 82.122 32.9297 81.6576C32.9914 81.2258 33.3458 80.8956 33.7902 80.8639L33.7984 80.8633L33.8067 80.8625C34.8372 80.7722 35.7266 80.5378 36.4857 80.1076C37.2547 79.6719 37.8314 79.0684 38.2802 78.331C39.1352 76.9264 39.5629 74.9487 40.0419 72.6017L40.0422 72.6C40.6196 69.746 41.268 66.6244 43.1036 64.0113C44.8949 61.4612 47.898 59.2951 53.4199 58.5755L53.7637 58.5307L54.0089 58.2855C60.9504 51.3441 70.2448 42.6692 78.8539 35.1688L79.3714 34.718L79.1483 34.0689C76.2062 25.5101 70.593 17.826 63.2403 12.3779C55.2878 6.46376 45.7956 3.32265 35.8086 3.32265C29.202 3.32265 20.8903 5.73496 14.5783 9.44201L14.5762 9.44326C12.4543 10.6964 9.58531 12.6712 7.23651 15.3312C4.88543 17.9938 2.99936 21.4096 2.99936 25.5135C2.99936 28.9817 3.9171 31.4669 5.36512 33.4427C6.77357 35.3645 8.65304 36.7529 10.4349 38.0692L10.4693 38.0946C10.4695 38.0947 10.4696 38.0949 10.4698 38.095C13.8918 40.6286 17.3097 43.1951 17.3097 48.678C17.3097 54.1611 13.8915 56.7276 10.4693 59.2613L10.4654 59.2642C10.4221 59.2966 10.3788 59.329 10.3354 59.3614C8.58599 60.669 6.74812 62.0427 5.36578 63.9246C3.91739 65.8964 2.99936 68.3738 2.99936 71.8425C2.99936 78.5367 8.1546 84.1046 14.6076 87.9283C21.1048 91.7782 29.2383 94.066 35.8413 94.066C48.0359 94.066 59.5322 89.3201 68.1844 80.7681ZM62.3795 69.7382L62.5191 69.1819L62.116 68.7738L54.2094 60.7691L53.8482 60.4035L53.3395 60.4764C48.9078 61.112 46.2573 62.8049 44.6128 65.1814C43.036 67.4599 42.4719 70.264 41.9459 72.8786L41.9334 72.9406C41.9332 72.9419 41.9329 72.9432 41.9326 72.9446C41.3278 75.8342 40.712 78.7663 38.8397 80.6675L37.5484 81.9786L39.3448 82.3778C41.1683 82.783 43.3669 83.0882 45.6429 83.0882C50.0006 83.0882 53.6559 81.9789 56.5059 79.6998C59.3527 77.4232 61.2947 74.0604 62.3795 69.7382ZM89.5833 38.7804L89.5835 38.7802C97.9537 28.8079 101.661 23.557 103.243 20.8302L101.834 19.4465C99.1174 21.0899 93.8735 24.7908 83.9913 33.2332L83.982 33.2411L83.973 33.2493C83.3494 33.8083 82.7042 34.3613 82.049 34.9229C81.7165 35.2079 81.3814 35.4951 81.0453 35.7863L81.0442 35.7873C72.5348 43.184 63.4021 51.629 56.261 58.7374L55.5391 59.4559L56.2572 60.1783L61.6154 65.5692L61.6176 65.5714L62.8265 66.7803L63.5562 67.51L64.2768 66.7713C72.1361 58.7156 81.6933 48.1764 89.5833 38.7804Z" fill="white" stroke="url(#paint4_linear)" stroke-width="2.03861"/>
<defs>
<linearGradient id="paint0_linear" x1="45.0276" y1="102.528" x2="23.8211" y2="108.826" gradientUnits="userSpaceOnUse">
<stop stop-color="#33B2FA"/>
<stop offset="0.940675" stop-color="#3B76EF"/>
</linearGradient>
<linearGradient id="paint1_linear" x1="85.2615" y1="66.7527" x2="64.1217" y2="73.0079" gradientUnits="userSpaceOnUse">
<stop stop-color="#33B2FA"/>
<stop offset="0.940675" stop-color="#3B76EF"/>
</linearGradient>
<linearGradient id="paint2_linear" x1="65.6782" y1="52.9641" x2="44.479" y2="59.258" gradientUnits="userSpaceOnUse">
<stop stop-color="#33B2FA"/>
<stop offset="0.940675" stop-color="#3B76EF"/>
</linearGradient>
<linearGradient id="paint3_linear" x1="42.5269" y1="59.5637" x2="21.3305" y2="65.8558" gradientUnits="userSpaceOnUse">
<stop stop-color="#33B2FA"/>
<stop offset="0.940675" stop-color="#3B76EF"/>
</linearGradient>
<linearGradient id="paint4_linear" x1="191.636" y1="221.947" x2="63.2428" y2="264.05" gradientUnits="userSpaceOnUse">
<stop stop-color="#33B2FA"/>
<stop offset="0.940675" stop-color="#3B76EF"/>
</linearGradient>
</defs>
</svg>
