<svg width="117" height="103" viewBox="0 0 117 103" fill="none" xmlns="http://www.w3.org/2000/svg">
<mask id="path-1-inside-1" fill="white">
<path d="M47.7875 103C47.484 103 47.1806 102.917 46.9323 102.752L32.0361 93.5381H7.2642C3.26429 93.5381 0.00918579 90.283 0.00918579 86.3107V47.8287C0.00918579 43.8288 3.26429 40.5737 7.2642 40.5737H45.7185C49.7185 40.5737 52.9736 43.8288 52.9736 47.8287V86.2831C52.9736 89.5933 50.7391 92.3795 47.7047 93.2622L49.3874 100.986C49.5254 101.621 49.2771 102.31 48.7254 102.697C48.4495 102.89 48.1185 103 47.7875 103ZM7.2642 43.884C5.08494 43.884 3.31946 45.6495 3.31946 47.8287V86.2831C3.31946 88.4623 5.08494 90.2278 7.2642 90.2278H32.4775C32.7809 90.2278 33.0843 90.3106 33.3326 90.4761L45.3324 97.8966L44.091 92.2416C43.9807 91.745 44.1186 91.2485 44.422 90.8623C44.7255 90.4761 45.222 90.2554 45.7185 90.2554C47.8978 90.2554 49.6633 88.4899 49.6633 86.3107V47.8287C49.6633 45.6495 47.8978 43.884 45.7185 43.884H7.2642Z"/>
<path d="M47.7875 103C47.484 103 47.1806 102.917 46.9323 102.752L32.0361 93.5381H7.2642C3.26429 93.5381 0.00918579 90.283 0.00918579 86.3107V47.8287C0.00918579 43.8288 3.26429 40.5737 7.2642 40.5737H45.7185C49.7185 40.5737 52.9736 43.8288 52.9736 47.8287V86.2831C52.9736 89.5933 50.7391 92.3795 47.7047 93.2622L49.3874 100.986C49.5254 101.621 49.2771 102.31 48.7254 102.697C48.4495 102.89 48.1185 103 47.7875 103ZM7.2642 43.884C5.08494 43.884 3.31946 45.6495 3.31946 47.8287V86.2831C3.31946 88.4623 5.08494 90.2278 7.2642 90.2278H32.4775C32.7809 90.2278 33.0843 90.3106 33.3326 90.4761L45.3324 97.8966L44.091 92.2416C43.9807 91.745 44.1186 91.2485 44.422 90.8623C44.7255 90.4761 45.222 90.2554 45.7185 90.2554C47.8978 90.2554 49.6633 88.4899 49.6633 86.3107V47.8287C49.6633 45.6495 47.8978 43.884 45.7185 43.884H7.2642Z"/>
<path d="M38.7116 86.9458H14.2708C12.3398 86.9458 10.7674 85.3734 10.7674 83.4148V79.5252C10.7674 73.0426 16.0363 67.7738 22.5189 67.7738H30.5187C37.0013 67.7738 42.2702 73.0426 42.2702 79.5252V83.4148C42.2426 85.3734 40.6702 86.9458 38.7116 86.9458ZM22.4913 71.1116C17.8293 71.1116 14.0501 74.8909 14.0501 79.5528V83.4424C14.0501 83.5527 14.1329 83.6631 14.2708 83.6631H38.7392C38.8496 83.6631 38.9599 83.5803 38.9599 83.4424V79.5528C38.9599 74.8909 35.1807 71.1116 30.5187 71.1116H22.4913Z"/>
<path d="M26.4915 71.1107C20.0917 71.1107 15.3194 63.3592 15.3194 56.4352C15.3194 49.9526 19.8158 45.5941 26.4915 45.5941C33.1672 45.5941 37.6637 49.9526 37.6637 56.4352C37.6637 63.3592 32.8914 71.1107 26.4915 71.1107ZM26.4915 48.8767C21.5537 48.8767 18.6296 51.6905 18.6296 56.4076C18.6296 61.5661 22.133 67.7729 26.4915 67.7729C30.8501 67.7729 34.3534 61.5661 34.3534 56.4076C34.3534 51.6905 31.4018 48.8767 26.4915 48.8767Z"/>
<path d="M109.773 22.0356H76.6974V25.3459H109.773C111.924 25.3459 113.69 27.1114 113.69 29.2906V67.745C113.69 69.9242 111.924 71.6897 109.773 71.6897H84.5593C84.2559 71.6897 83.9524 71.7725 83.6766 71.938L71.6768 79.3309L72.9182 73.6759C73.0285 73.2069 72.8906 72.6828 72.5872 72.2966C72.2561 71.9104 71.7872 71.6897 71.2906 71.6897C69.1114 71.6897 67.3459 69.9242 67.3459 67.745V54.6142H65.4425L64.0356 56.6832V67.745C64.0356 71.0553 66.2701 73.8414 69.3045 74.7241L67.6217 82.4481C67.4838 83.0826 67.7597 83.7446 68.2838 84.1308C68.5872 84.3515 68.9183 84.4343 69.2493 84.4343C69.5527 84.4343 69.8562 84.3515 70.1045 84.186L85.0283 75H109.773C113.745 75 117 71.7449 117 67.745V29.2906C117 25.2907 113.745 22.0356 109.773 22.0356Z"/>
<path d="M97.0553 49.5114C96.2554 49.3183 95.4002 49.2355 94.545 49.2355H86.5176C85.6349 49.2355 84.8073 49.3183 83.9798 49.5114C78.7109 50.67 74.7662 55.3871 74.7662 60.987V64.8765C74.7662 66.8075 76.3661 68.3799 78.2971 68.3799H102.766C104.697 68.3799 106.269 66.8075 106.269 64.8765V60.987C106.269 55.3871 102.324 50.67 97.0553 49.5114ZM102.959 64.8765C102.959 64.9869 102.876 65.0696 102.766 65.0696H78.2971C78.1868 65.0696 78.0764 64.9869 78.0764 64.8765V60.987C78.0764 56.325 81.8832 52.5458 86.5176 52.5458H94.545C99.1794 52.5458 102.959 56.325 102.959 60.987V64.8765Z"/>
<path d="M90.5176 27.0303C83.8419 27.0303 79.3454 31.3888 79.3454 37.8714C79.3454 42.092 81.1385 46.6161 83.9798 49.5126C85.7729 51.3608 88.0349 52.547 90.5176 52.547C93.0279 52.547 95.2623 51.3608 97.0554 49.5126C99.9243 46.6161 101.69 42.092 101.69 37.8714C101.69 31.3888 97.2209 27.0303 90.5176 27.0303ZM90.5176 49.2367C86.1591 49.2367 82.6557 43.0299 82.6557 37.8714C82.6557 33.1543 85.6074 30.3406 90.5176 30.3406C95.4554 30.3406 98.3795 33.1543 98.3795 37.8714C98.3795 43.0299 94.8761 49.2367 90.5176 49.2367Z"/>
<path d="M68.0906 0.270508H29.6087C25.6088 0.270508 22.3537 3.52561 22.3537 7.52552V39.2214H25.6639V7.52552C25.6639 5.34626 27.4294 3.58078 29.6087 3.58078H68.063C70.2423 3.58078 72.0078 5.34626 72.0078 7.52552V45.9799C72.0078 48.1591 70.2423 49.9246 68.063 49.9246H63.8148C63.2631 49.9246 62.7666 50.2005 62.4356 50.6418L58.1598 56.9589L54.2978 52.5452V57.5658L57.0564 60.7382C57.3598 61.0968 57.8288 61.3175 58.2977 61.3175C58.3253 61.3175 58.3529 61.3175 58.4081 61.3175C58.9322 61.2899 59.4011 61.014 59.677 60.6002L64.67 53.2349H68.0354C72.0353 53.2349 75.2905 49.9798 75.2905 45.9799V7.52552C75.318 3.52561 72.0629 0.270508 68.0906 0.270508Z"/>
<path d="M52.8633 27.4705H44.8359C38.3533 27.4705 33.1396 32.7118 33.1121 39.1944H36.3947C36.4223 34.5324 40.2016 30.7808 44.8359 30.7808H52.8633C57.4977 30.7808 61.277 34.56 61.277 39.222V43.1116C61.277 43.2219 61.1942 43.3047 61.0839 43.3047H53.0564C53.6909 44.2702 54.1047 45.4012 54.2426 46.6149H61.0839C63.0149 46.6149 64.5872 45.0426 64.5872 43.1116V39.222C64.5872 32.7394 59.3184 27.4705 52.8633 27.4705Z"/>
<path d="M48.8358 30.7802C42.4359 30.7802 37.6636 23.0286 37.6636 16.1046C37.6636 9.62199 42.1601 5.26346 48.8358 5.26346C55.5115 5.26346 60.0079 9.62199 60.0079 16.1046C60.0079 23.0286 55.2356 30.7802 48.8358 30.7802ZM48.8358 8.57374C43.8979 8.57374 40.9739 11.3875 40.9739 16.1046C40.9739 21.2631 44.4772 27.4699 48.8358 27.4699C53.1943 27.4699 56.6977 21.2631 56.6977 16.1046C56.6977 11.3875 53.7736 8.57374 48.8358 8.57374Z"/>
<path d="M67.5938 102.255H64.9731C64.2283 102.255 63.649 101.648 63.649 100.931V98.5312C63.649 97.7864 64.2559 97.2071 64.9731 97.2071H67.5938C68.3386 97.2071 68.9179 97.814 68.9179 98.5312V100.931C68.9455 101.648 68.3386 102.255 67.5938 102.255Z"/>
<path d="M78.4074 102.255H75.7868C75.042 102.255 74.4627 101.648 74.4627 100.931V98.5312C74.4627 97.7864 75.0695 97.2071 75.7868 97.2071H78.4074C79.1522 97.2071 79.7315 97.814 79.7315 98.5312V100.931C79.7315 101.648 79.1246 102.255 78.4074 102.255Z"/>
<path d="M89.1936 102.255H86.573C85.8282 102.255 85.2489 101.648 85.2489 100.931V98.5312C85.2489 97.7864 85.8557 97.2071 86.573 97.2071H89.1936C89.9384 97.2071 90.5177 97.814 90.5177 98.5312V100.931C90.5177 101.648 89.9384 102.255 89.1936 102.255Z"/>
<path d="M99.9798 102.255H97.3867C96.6419 102.255 96.0626 101.648 96.0626 100.931V98.5312C96.0626 97.7864 96.6695 97.2071 97.3867 97.2071H100.007C100.752 97.2071 101.331 97.814 101.331 98.5312V100.931C101.331 101.648 100.725 102.255 99.9798 102.255Z"/>
</mask>
<path d="M47.7875 103C47.484 103 47.1806 102.917 46.9323 102.752L32.0361 93.5381H7.2642C3.26429 93.5381 0.00918579 90.283 0.00918579 86.3107V47.8287C0.00918579 43.8288 3.26429 40.5737 7.2642 40.5737H45.7185C49.7185 40.5737 52.9736 43.8288 52.9736 47.8287V86.2831C52.9736 89.5933 50.7391 92.3795 47.7047 93.2622L49.3874 100.986C49.5254 101.621 49.2771 102.31 48.7254 102.697C48.4495 102.89 48.1185 103 47.7875 103ZM7.2642 43.884C5.08494 43.884 3.31946 45.6495 3.31946 47.8287V86.2831C3.31946 88.4623 5.08494 90.2278 7.2642 90.2278H32.4775C32.7809 90.2278 33.0843 90.3106 33.3326 90.4761L45.3324 97.8966L44.091 92.2416C43.9807 91.745 44.1186 91.2485 44.422 90.8623C44.7255 90.4761 45.222 90.2554 45.7185 90.2554C47.8978 90.2554 49.6633 88.4899 49.6633 86.3107V47.8287C49.6633 45.6495 47.8978 43.884 45.7185 43.884H7.2642Z" fill="url(#paint0_linear)"/>
<path d="M47.7875 103C47.484 103 47.1806 102.917 46.9323 102.752L32.0361 93.5381H7.2642C3.26429 93.5381 0.00918579 90.283 0.00918579 86.3107V47.8287C0.00918579 43.8288 3.26429 40.5737 7.2642 40.5737H45.7185C49.7185 40.5737 52.9736 43.8288 52.9736 47.8287V86.2831C52.9736 89.5933 50.7391 92.3795 47.7047 93.2622L49.3874 100.986C49.5254 101.621 49.2771 102.31 48.7254 102.697C48.4495 102.89 48.1185 103 47.7875 103ZM7.2642 43.884C5.08494 43.884 3.31946 45.6495 3.31946 47.8287V86.2831C3.31946 88.4623 5.08494 90.2278 7.2642 90.2278H32.4775C32.7809 90.2278 33.0843 90.3106 33.3326 90.4761L45.3324 97.8966L44.091 92.2416C43.9807 91.745 44.1186 91.2485 44.422 90.8623C44.7255 90.4761 45.222 90.2554 45.7185 90.2554C47.8978 90.2554 49.6633 88.4899 49.6633 86.3107V47.8287C49.6633 45.6495 47.8978 43.884 45.7185 43.884H7.2642Z" fill="url(#paint1_linear)"/>
<path d="M38.7116 86.9458H14.2708C12.3398 86.9458 10.7674 85.3734 10.7674 83.4148V79.5252C10.7674 73.0426 16.0363 67.7738 22.5189 67.7738H30.5187C37.0013 67.7738 42.2702 73.0426 42.2702 79.5252V83.4148C42.2426 85.3734 40.6702 86.9458 38.7116 86.9458ZM22.4913 71.1116C17.8293 71.1116 14.0501 74.8909 14.0501 79.5528V83.4424C14.0501 83.5527 14.1329 83.6631 14.2708 83.6631H38.7392C38.8496 83.6631 38.9599 83.5803 38.9599 83.4424V79.5528C38.9599 74.8909 35.1807 71.1116 30.5187 71.1116H22.4913Z" fill="url(#paint2_linear)"/>
<path d="M26.4915 71.1107C20.0917 71.1107 15.3194 63.3592 15.3194 56.4352C15.3194 49.9526 19.8158 45.5941 26.4915 45.5941C33.1672 45.5941 37.6637 49.9526 37.6637 56.4352C37.6637 63.3592 32.8914 71.1107 26.4915 71.1107ZM26.4915 48.8767C21.5537 48.8767 18.6296 51.6905 18.6296 56.4076C18.6296 61.5661 22.133 67.7729 26.4915 67.7729C30.8501 67.7729 34.3534 61.5661 34.3534 56.4076C34.3534 51.6905 31.4018 48.8767 26.4915 48.8767Z" fill="url(#paint3_linear)"/>
<path d="M109.773 22.0356H76.6974V25.3459H109.773C111.924 25.3459 113.69 27.1114 113.69 29.2906V67.745C113.69 69.9242 111.924 71.6897 109.773 71.6897H84.5593C84.2559 71.6897 83.9524 71.7725 83.6766 71.938L71.6768 79.3309L72.9182 73.6759C73.0285 73.2069 72.8906 72.6828 72.5872 72.2966C72.2561 71.9104 71.7872 71.6897 71.2906 71.6897C69.1114 71.6897 67.3459 69.9242 67.3459 67.745V54.6142H65.4425L64.0356 56.6832V67.745C64.0356 71.0553 66.2701 73.8414 69.3045 74.7241L67.6217 82.4481C67.4838 83.0826 67.7597 83.7446 68.2838 84.1308C68.5872 84.3515 68.9183 84.4343 69.2493 84.4343C69.5527 84.4343 69.8562 84.3515 70.1045 84.186L85.0283 75H109.773C113.745 75 117 71.7449 117 67.745V29.2906C117 25.2907 113.745 22.0356 109.773 22.0356Z" fill="url(#paint4_linear)"/>
<path d="M97.0553 49.5114C96.2554 49.3183 95.4002 49.2355 94.545 49.2355H86.5176C85.6349 49.2355 84.8073 49.3183 83.9798 49.5114C78.7109 50.67 74.7662 55.3871 74.7662 60.987V64.8765C74.7662 66.8075 76.3661 68.3799 78.2971 68.3799H102.766C104.697 68.3799 106.269 66.8075 106.269 64.8765V60.987C106.269 55.3871 102.324 50.67 97.0553 49.5114ZM102.959 64.8765C102.959 64.9869 102.876 65.0696 102.766 65.0696H78.2971C78.1868 65.0696 78.0764 64.9869 78.0764 64.8765V60.987C78.0764 56.325 81.8832 52.5458 86.5176 52.5458H94.545C99.1794 52.5458 102.959 56.325 102.959 60.987V64.8765Z" fill="url(#paint5_linear)"/>
<path d="M90.5176 27.0303C83.8419 27.0303 79.3454 31.3888 79.3454 37.8714C79.3454 42.092 81.1385 46.6161 83.9798 49.5126C85.7729 51.3608 88.0349 52.547 90.5176 52.547C93.0279 52.547 95.2623 51.3608 97.0554 49.5126C99.9243 46.6161 101.69 42.092 101.69 37.8714C101.69 31.3888 97.2209 27.0303 90.5176 27.0303ZM90.5176 49.2367C86.1591 49.2367 82.6557 43.0299 82.6557 37.8714C82.6557 33.1543 85.6074 30.3406 90.5176 30.3406C95.4554 30.3406 98.3795 33.1543 98.3795 37.8714C98.3795 43.0299 94.8761 49.2367 90.5176 49.2367Z" fill="url(#paint6_linear)"/>
<path d="M68.0906 0.270508H29.6087C25.6088 0.270508 22.3537 3.52561 22.3537 7.52552V39.2214H25.6639V7.52552C25.6639 5.34626 27.4294 3.58078 29.6087 3.58078H68.063C70.2423 3.58078 72.0078 5.34626 72.0078 7.52552V45.9799C72.0078 48.1591 70.2423 49.9246 68.063 49.9246H63.8148C63.2631 49.9246 62.7666 50.2005 62.4356 50.6418L58.1598 56.9589L54.2978 52.5452V57.5658L57.0564 60.7382C57.3598 61.0968 57.8288 61.3175 58.2977 61.3175C58.3253 61.3175 58.3529 61.3175 58.4081 61.3175C58.9322 61.2899 59.4011 61.014 59.677 60.6002L64.67 53.2349H68.0354C72.0353 53.2349 75.2905 49.9798 75.2905 45.9799V7.52552C75.318 3.52561 72.0629 0.270508 68.0906 0.270508Z" fill="url(#paint7_linear)"/>
<path d="M52.8633 27.4705H44.8359C38.3533 27.4705 33.1396 32.7118 33.1121 39.1944H36.3947C36.4223 34.5324 40.2016 30.7808 44.8359 30.7808H52.8633C57.4977 30.7808 61.277 34.56 61.277 39.222V43.1116C61.277 43.2219 61.1942 43.3047 61.0839 43.3047H53.0564C53.6909 44.2702 54.1047 45.4012 54.2426 46.6149H61.0839C63.0149 46.6149 64.5872 45.0426 64.5872 43.1116V39.222C64.5872 32.7394 59.3184 27.4705 52.8633 27.4705Z" fill="url(#paint8_linear)"/>
<path d="M48.8358 30.7802C42.4359 30.7802 37.6636 23.0286 37.6636 16.1046C37.6636 9.62199 42.1601 5.26346 48.8358 5.26346C55.5115 5.26346 60.0079 9.62199 60.0079 16.1046C60.0079 23.0286 55.2356 30.7802 48.8358 30.7802ZM48.8358 8.57374C43.8979 8.57374 40.9739 11.3875 40.9739 16.1046C40.9739 21.2631 44.4772 27.4699 48.8358 27.4699C53.1943 27.4699 56.6977 21.2631 56.6977 16.1046C56.6977 11.3875 53.7736 8.57374 48.8358 8.57374Z" fill="url(#paint9_linear)"/>
<path d="M67.5938 102.255H64.9731C64.2283 102.255 63.649 101.648 63.649 100.931V98.5312C63.649 97.7864 64.2559 97.2071 64.9731 97.2071H67.5938C68.3386 97.2071 68.9179 97.814 68.9179 98.5312V100.931C68.9455 101.648 68.3386 102.255 67.5938 102.255Z" fill="url(#paint10_linear)"/>
<path d="M78.4074 102.255H75.7868C75.042 102.255 74.4627 101.648 74.4627 100.931V98.5312C74.4627 97.7864 75.0695 97.2071 75.7868 97.2071H78.4074C79.1522 97.2071 79.7315 97.814 79.7315 98.5312V100.931C79.7315 101.648 79.1246 102.255 78.4074 102.255Z" fill="url(#paint11_linear)"/>
<path d="M89.1936 102.255H86.573C85.8282 102.255 85.2489 101.648 85.2489 100.931V98.5312C85.2489 97.7864 85.8557 97.2071 86.573 97.2071H89.1936C89.9384 97.2071 90.5177 97.814 90.5177 98.5312V100.931C90.5177 101.648 89.9384 102.255 89.1936 102.255Z" fill="url(#paint12_linear)"/>
<path d="M99.9798 102.255H97.3867C96.6419 102.255 96.0626 101.648 96.0626 100.931V98.5312C96.0626 97.7864 96.6695 97.2071 97.3867 97.2071H100.007C100.752 97.2071 101.331 97.814 101.331 98.5312V100.931C101.331 101.648 100.725 102.255 99.9798 102.255Z" fill="url(#paint13_linear)"/>
<path d="M47.7875 103C47.484 103 47.1806 102.917 46.9323 102.752L32.0361 93.5381H7.2642C3.26429 93.5381 0.00918579 90.283 0.00918579 86.3107V47.8287C0.00918579 43.8288 3.26429 40.5737 7.2642 40.5737H45.7185C49.7185 40.5737 52.9736 43.8288 52.9736 47.8287V86.2831C52.9736 89.5933 50.7391 92.3795 47.7047 93.2622L49.3874 100.986C49.5254 101.621 49.2771 102.31 48.7254 102.697C48.4495 102.89 48.1185 103 47.7875 103ZM7.2642 43.884C5.08494 43.884 3.31946 45.6495 3.31946 47.8287V86.2831C3.31946 88.4623 5.08494 90.2278 7.2642 90.2278H32.4775C32.7809 90.2278 33.0843 90.3106 33.3326 90.4761L45.3324 97.8966L44.091 92.2416C43.9807 91.745 44.1186 91.2485 44.422 90.8623C44.7255 90.4761 45.222 90.2554 45.7185 90.2554C47.8978 90.2554 49.6633 88.4899 49.6633 86.3107V47.8287C49.6633 45.6495 47.8978 43.884 45.7185 43.884H7.2642Z" stroke="url(#paint14_linear)" stroke-width="2" mask="url(#path-1-inside-1)"/>
<path d="M47.7875 103C47.484 103 47.1806 102.917 46.9323 102.752L32.0361 93.5381H7.2642C3.26429 93.5381 0.00918579 90.283 0.00918579 86.3107V47.8287C0.00918579 43.8288 3.26429 40.5737 7.2642 40.5737H45.7185C49.7185 40.5737 52.9736 43.8288 52.9736 47.8287V86.2831C52.9736 89.5933 50.7391 92.3795 47.7047 93.2622L49.3874 100.986C49.5254 101.621 49.2771 102.31 48.7254 102.697C48.4495 102.89 48.1185 103 47.7875 103ZM7.2642 43.884C5.08494 43.884 3.31946 45.6495 3.31946 47.8287V86.2831C3.31946 88.4623 5.08494 90.2278 7.2642 90.2278H32.4775C32.7809 90.2278 33.0843 90.3106 33.3326 90.4761L45.3324 97.8966L44.091 92.2416C43.9807 91.745 44.1186 91.2485 44.422 90.8623C44.7255 90.4761 45.222 90.2554 45.7185 90.2554C47.8978 90.2554 49.6633 88.4899 49.6633 86.3107V47.8287C49.6633 45.6495 47.8978 43.884 45.7185 43.884H7.2642Z" stroke="url(#paint15_linear)" stroke-width="2" mask="url(#path-1-inside-1)"/>
<path d="M38.7116 86.9458H14.2708C12.3398 86.9458 10.7674 85.3734 10.7674 83.4148V79.5252C10.7674 73.0426 16.0363 67.7738 22.5189 67.7738H30.5187C37.0013 67.7738 42.2702 73.0426 42.2702 79.5252V83.4148C42.2426 85.3734 40.6702 86.9458 38.7116 86.9458ZM22.4913 71.1116C17.8293 71.1116 14.0501 74.8909 14.0501 79.5528V83.4424C14.0501 83.5527 14.1329 83.6631 14.2708 83.6631H38.7392C38.8496 83.6631 38.9599 83.5803 38.9599 83.4424V79.5528C38.9599 74.8909 35.1807 71.1116 30.5187 71.1116H22.4913Z" stroke="url(#paint16_linear)" stroke-width="2" mask="url(#path-1-inside-1)"/>
<path d="M26.4915 71.1107C20.0917 71.1107 15.3194 63.3592 15.3194 56.4352C15.3194 49.9526 19.8158 45.5941 26.4915 45.5941C33.1672 45.5941 37.6637 49.9526 37.6637 56.4352C37.6637 63.3592 32.8914 71.1107 26.4915 71.1107ZM26.4915 48.8767C21.5537 48.8767 18.6296 51.6905 18.6296 56.4076C18.6296 61.5661 22.133 67.7729 26.4915 67.7729C30.8501 67.7729 34.3534 61.5661 34.3534 56.4076C34.3534 51.6905 31.4018 48.8767 26.4915 48.8767Z" stroke="url(#paint17_linear)" stroke-width="2" mask="url(#path-1-inside-1)"/>
<path d="M109.773 22.0356H76.6974V25.3459H109.773C111.924 25.3459 113.69 27.1114 113.69 29.2906V67.745C113.69 69.9242 111.924 71.6897 109.773 71.6897H84.5593C84.2559 71.6897 83.9524 71.7725 83.6766 71.938L71.6768 79.3309L72.9182 73.6759C73.0285 73.2069 72.8906 72.6828 72.5872 72.2966C72.2561 71.9104 71.7872 71.6897 71.2906 71.6897C69.1114 71.6897 67.3459 69.9242 67.3459 67.745V54.6142H65.4425L64.0356 56.6832V67.745C64.0356 71.0553 66.2701 73.8414 69.3045 74.7241L67.6217 82.4481C67.4838 83.0826 67.7597 83.7446 68.2838 84.1308C68.5872 84.3515 68.9183 84.4343 69.2493 84.4343C69.5527 84.4343 69.8562 84.3515 70.1045 84.186L85.0283 75H109.773C113.745 75 117 71.7449 117 67.745V29.2906C117 25.2907 113.745 22.0356 109.773 22.0356Z" stroke="url(#paint18_linear)" stroke-width="2" mask="url(#path-1-inside-1)"/>
<path d="M97.0553 49.5114C96.2554 49.3183 95.4002 49.2355 94.545 49.2355H86.5176C85.6349 49.2355 84.8073 49.3183 83.9798 49.5114C78.7109 50.67 74.7662 55.3871 74.7662 60.987V64.8765C74.7662 66.8075 76.3661 68.3799 78.2971 68.3799H102.766C104.697 68.3799 106.269 66.8075 106.269 64.8765V60.987C106.269 55.3871 102.324 50.67 97.0553 49.5114ZM102.959 64.8765C102.959 64.9869 102.876 65.0696 102.766 65.0696H78.2971C78.1868 65.0696 78.0764 64.9869 78.0764 64.8765V60.987C78.0764 56.325 81.8832 52.5458 86.5176 52.5458H94.545C99.1794 52.5458 102.959 56.325 102.959 60.987V64.8765Z" stroke="url(#paint19_linear)" stroke-width="2" mask="url(#path-1-inside-1)"/>
<path d="M90.5176 27.0303C83.8419 27.0303 79.3454 31.3888 79.3454 37.8714C79.3454 42.092 81.1385 46.6161 83.9798 49.5126C85.7729 51.3608 88.0349 52.547 90.5176 52.547C93.0279 52.547 95.2623 51.3608 97.0554 49.5126C99.9243 46.6161 101.69 42.092 101.69 37.8714C101.69 31.3888 97.2209 27.0303 90.5176 27.0303ZM90.5176 49.2367C86.1591 49.2367 82.6557 43.0299 82.6557 37.8714C82.6557 33.1543 85.6074 30.3406 90.5176 30.3406C95.4554 30.3406 98.3795 33.1543 98.3795 37.8714C98.3795 43.0299 94.8761 49.2367 90.5176 49.2367Z" stroke="url(#paint20_linear)" stroke-width="2" mask="url(#path-1-inside-1)"/>
<path d="M68.0906 0.270508H29.6087C25.6088 0.270508 22.3537 3.52561 22.3537 7.52552V39.2214H25.6639V7.52552C25.6639 5.34626 27.4294 3.58078 29.6087 3.58078H68.063C70.2423 3.58078 72.0078 5.34626 72.0078 7.52552V45.9799C72.0078 48.1591 70.2423 49.9246 68.063 49.9246H63.8148C63.2631 49.9246 62.7666 50.2005 62.4356 50.6418L58.1598 56.9589L54.2978 52.5452V57.5658L57.0564 60.7382C57.3598 61.0968 57.8288 61.3175 58.2977 61.3175C58.3253 61.3175 58.3529 61.3175 58.4081 61.3175C58.9322 61.2899 59.4011 61.014 59.677 60.6002L64.67 53.2349H68.0354C72.0353 53.2349 75.2905 49.9798 75.2905 45.9799V7.52552C75.318 3.52561 72.0629 0.270508 68.0906 0.270508Z" stroke="url(#paint21_linear)" stroke-width="2" mask="url(#path-1-inside-1)"/>
<path d="M52.8633 27.4705H44.8359C38.3533 27.4705 33.1396 32.7118 33.1121 39.1944H36.3947C36.4223 34.5324 40.2016 30.7808 44.8359 30.7808H52.8633C57.4977 30.7808 61.277 34.56 61.277 39.222V43.1116C61.277 43.2219 61.1942 43.3047 61.0839 43.3047H53.0564C53.6909 44.2702 54.1047 45.4012 54.2426 46.6149H61.0839C63.0149 46.6149 64.5872 45.0426 64.5872 43.1116V39.222C64.5872 32.7394 59.3184 27.4705 52.8633 27.4705Z" stroke="url(#paint22_linear)" stroke-width="2" mask="url(#path-1-inside-1)"/>
<path d="M48.8358 30.7802C42.4359 30.7802 37.6636 23.0286 37.6636 16.1046C37.6636 9.62199 42.1601 5.26346 48.8358 5.26346C55.5115 5.26346 60.0079 9.62199 60.0079 16.1046C60.0079 23.0286 55.2356 30.7802 48.8358 30.7802ZM48.8358 8.57374C43.8979 8.57374 40.9739 11.3875 40.9739 16.1046C40.9739 21.2631 44.4772 27.4699 48.8358 27.4699C53.1943 27.4699 56.6977 21.2631 56.6977 16.1046C56.6977 11.3875 53.7736 8.57374 48.8358 8.57374Z" stroke="url(#paint23_linear)" stroke-width="2" mask="url(#path-1-inside-1)"/>
<path d="M67.5938 102.255H64.9731C64.2283 102.255 63.649 101.648 63.649 100.931V98.5312C63.649 97.7864 64.2559 97.2071 64.9731 97.2071H67.5938C68.3386 97.2071 68.9179 97.814 68.9179 98.5312V100.931C68.9455 101.648 68.3386 102.255 67.5938 102.255Z" stroke="url(#paint24_linear)" stroke-width="2" mask="url(#path-1-inside-1)"/>
<path d="M78.4074 102.255H75.7868C75.042 102.255 74.4627 101.648 74.4627 100.931V98.5312C74.4627 97.7864 75.0695 97.2071 75.7868 97.2071H78.4074C79.1522 97.2071 79.7315 97.814 79.7315 98.5312V100.931C79.7315 101.648 79.1246 102.255 78.4074 102.255Z" stroke="url(#paint25_linear)" stroke-width="2" mask="url(#path-1-inside-1)"/>
<path d="M89.1936 102.255H86.573C85.8282 102.255 85.2489 101.648 85.2489 100.931V98.5312C85.2489 97.7864 85.8557 97.2071 86.573 97.2071H89.1936C89.9384 97.2071 90.5177 97.814 90.5177 98.5312V100.931C90.5177 101.648 89.9384 102.255 89.1936 102.255Z" stroke="url(#paint26_linear)" stroke-width="2" mask="url(#path-1-inside-1)"/>
<path d="M99.9798 102.255H97.3867C96.6419 102.255 96.0626 101.648 96.0626 100.931V98.5312C96.0626 97.7864 96.6695 97.2071 97.3867 97.2071H100.007C100.752 97.2071 101.331 97.814 101.331 98.5312V100.931C101.331 101.648 100.725 102.255 99.9798 102.255Z" stroke="url(#paint27_linear)" stroke-width="2" mask="url(#path-1-inside-1)"/>
<defs>
<linearGradient id="paint0_linear" x1="208.399" y1="235.815" x2="69.4093" y2="282.441" gradientUnits="userSpaceOnUse">
<stop stop-color="#33B2FA"/>
<stop offset="0.940675" stop-color="#3B76EF"/>
</linearGradient>
<linearGradient id="paint1_linear" x1="208.399" y1="235.815" x2="69.4093" y2="282.441" gradientUnits="userSpaceOnUse">
<stop stop-color="#33B2FA"/>
<stop offset="0.940675" stop-color="#3B76EF"/>
</linearGradient>
<linearGradient id="paint2_linear" x1="208.399" y1="235.815" x2="69.4093" y2="282.441" gradientUnits="userSpaceOnUse">
<stop stop-color="#33B2FA"/>
<stop offset="0.940675" stop-color="#3B76EF"/>
</linearGradient>
<linearGradient id="paint3_linear" x1="208.399" y1="235.815" x2="69.4093" y2="282.441" gradientUnits="userSpaceOnUse">
<stop stop-color="#33B2FA"/>
<stop offset="0.940675" stop-color="#3B76EF"/>
</linearGradient>
<linearGradient id="paint4_linear" x1="208.399" y1="235.815" x2="69.4093" y2="282.441" gradientUnits="userSpaceOnUse">
<stop stop-color="#33B2FA"/>
<stop offset="0.940675" stop-color="#3B76EF"/>
</linearGradient>
<linearGradient id="paint5_linear" x1="208.399" y1="235.815" x2="69.4093" y2="282.441" gradientUnits="userSpaceOnUse">
<stop stop-color="#33B2FA"/>
<stop offset="0.940675" stop-color="#3B76EF"/>
</linearGradient>
<linearGradient id="paint6_linear" x1="208.399" y1="235.815" x2="69.4093" y2="282.441" gradientUnits="userSpaceOnUse">
<stop stop-color="#33B2FA"/>
<stop offset="0.940675" stop-color="#3B76EF"/>
</linearGradient>
<linearGradient id="paint7_linear" x1="208.399" y1="235.815" x2="69.4093" y2="282.441" gradientUnits="userSpaceOnUse">
<stop stop-color="#33B2FA"/>
<stop offset="0.940675" stop-color="#3B76EF"/>
</linearGradient>
<linearGradient id="paint8_linear" x1="208.399" y1="235.815" x2="69.4093" y2="282.441" gradientUnits="userSpaceOnUse">
<stop stop-color="#33B2FA"/>
<stop offset="0.940675" stop-color="#3B76EF"/>
</linearGradient>
<linearGradient id="paint9_linear" x1="208.399" y1="235.815" x2="69.4093" y2="282.441" gradientUnits="userSpaceOnUse">
<stop stop-color="#33B2FA"/>
<stop offset="0.940675" stop-color="#3B76EF"/>
</linearGradient>
<linearGradient id="paint10_linear" x1="208.399" y1="235.815" x2="69.4093" y2="282.441" gradientUnits="userSpaceOnUse">
<stop stop-color="#33B2FA"/>
<stop offset="0.940675" stop-color="#3B76EF"/>
</linearGradient>
<linearGradient id="paint11_linear" x1="208.399" y1="235.815" x2="69.4093" y2="282.441" gradientUnits="userSpaceOnUse">
<stop stop-color="#33B2FA"/>
<stop offset="0.940675" stop-color="#3B76EF"/>
</linearGradient>
<linearGradient id="paint12_linear" x1="208.399" y1="235.815" x2="69.4093" y2="282.441" gradientUnits="userSpaceOnUse">
<stop stop-color="#33B2FA"/>
<stop offset="0.940675" stop-color="#3B76EF"/>
</linearGradient>
<linearGradient id="paint13_linear" x1="208.399" y1="235.815" x2="69.4093" y2="282.441" gradientUnits="userSpaceOnUse">
<stop stop-color="#33B2FA"/>
<stop offset="0.940675" stop-color="#3B76EF"/>
</linearGradient>
<linearGradient id="paint14_linear" x1="208.399" y1="235.815" x2="69.4093" y2="282.441" gradientUnits="userSpaceOnUse">
<stop stop-color="#33B2FA"/>
<stop offset="0.940675" stop-color="#3B76EF"/>
</linearGradient>
<linearGradient id="paint15_linear" x1="208.399" y1="235.815" x2="69.4093" y2="282.441" gradientUnits="userSpaceOnUse">
<stop stop-color="#33B2FA"/>
<stop offset="0.940675" stop-color="#3B76EF"/>
</linearGradient>
<linearGradient id="paint16_linear" x1="208.399" y1="235.815" x2="69.4093" y2="282.441" gradientUnits="userSpaceOnUse">
<stop stop-color="#33B2FA"/>
<stop offset="0.940675" stop-color="#3B76EF"/>
</linearGradient>
<linearGradient id="paint17_linear" x1="208.399" y1="235.815" x2="69.4093" y2="282.441" gradientUnits="userSpaceOnUse">
<stop stop-color="#33B2FA"/>
<stop offset="0.940675" stop-color="#3B76EF"/>
</linearGradient>
<linearGradient id="paint18_linear" x1="208.399" y1="235.815" x2="69.4093" y2="282.441" gradientUnits="userSpaceOnUse">
<stop stop-color="#33B2FA"/>
<stop offset="0.940675" stop-color="#3B76EF"/>
</linearGradient>
<linearGradient id="paint19_linear" x1="208.399" y1="235.815" x2="69.4093" y2="282.441" gradientUnits="userSpaceOnUse">
<stop stop-color="#33B2FA"/>
<stop offset="0.940675" stop-color="#3B76EF"/>
</linearGradient>
<linearGradient id="paint20_linear" x1="208.399" y1="235.815" x2="69.4093" y2="282.441" gradientUnits="userSpaceOnUse">
<stop stop-color="#33B2FA"/>
<stop offset="0.940675" stop-color="#3B76EF"/>
</linearGradient>
<linearGradient id="paint21_linear" x1="208.399" y1="235.815" x2="69.4093" y2="282.441" gradientUnits="userSpaceOnUse">
<stop stop-color="#33B2FA"/>
<stop offset="0.940675" stop-color="#3B76EF"/>
</linearGradient>
<linearGradient id="paint22_linear" x1="208.399" y1="235.815" x2="69.4093" y2="282.441" gradientUnits="userSpaceOnUse">
<stop stop-color="#33B2FA"/>
<stop offset="0.940675" stop-color="#3B76EF"/>
</linearGradient>
<linearGradient id="paint23_linear" x1="208.399" y1="235.815" x2="69.4093" y2="282.441" gradientUnits="userSpaceOnUse">
<stop stop-color="#33B2FA"/>
<stop offset="0.940675" stop-color="#3B76EF"/>
</linearGradient>
<linearGradient id="paint24_linear" x1="208.399" y1="235.815" x2="69.4093" y2="282.441" gradientUnits="userSpaceOnUse">
<stop stop-color="#33B2FA"/>
<stop offset="0.940675" stop-color="#3B76EF"/>
</linearGradient>
<linearGradient id="paint25_linear" x1="208.399" y1="235.815" x2="69.4093" y2="282.441" gradientUnits="userSpaceOnUse">
<stop stop-color="#33B2FA"/>
<stop offset="0.940675" stop-color="#3B76EF"/>
</linearGradient>
<linearGradient id="paint26_linear" x1="208.399" y1="235.815" x2="69.4093" y2="282.441" gradientUnits="userSpaceOnUse">
<stop stop-color="#33B2FA"/>
<stop offset="0.940675" stop-color="#3B76EF"/>
</linearGradient>
<linearGradient id="paint27_linear" x1="208.399" y1="235.815" x2="69.4093" y2="282.441" gradientUnits="userSpaceOnUse">
<stop stop-color="#33B2FA"/>
<stop offset="0.940675" stop-color="#3B76EF"/>
</linearGradient>
</defs>
</svg>
