<svg width="217" height="53" viewBox="0 0 217 53" fill="none" xmlns="http://www.w3.org/2000/svg">
<path d="M50.9684 15.7412H59.7989C61.9901 15.7412 63.6946 16.275 64.9142 17.3416C66.1339 18.3897 66.7432 19.8278 66.7432 21.6568C66.7432 23.4857 66.1237 24.934 64.8857 26.0006C63.666 27.0671 61.9708 27.6009 59.7989 27.6009H54.6549V36.0884H50.9684V15.7412ZM59.3702 24.7431C60.647 24.7431 61.6084 24.4859 62.2565 23.9716C62.923 23.4378 63.2567 22.6764 63.2567 21.6853C63.2567 20.6759 62.9332 19.9135 62.2851 19.3991C61.637 18.8654 60.6654 18.599 59.3702 18.599H54.6549V24.7431H59.3702Z" fill="white"/>
<path d="M77.9272 36.345C75.9646 36.345 74.2499 35.9256 72.7833 35.0876C71.335 34.2303 70.2113 33.0208 69.4111 31.4583C68.6303 29.8773 68.2394 28.0198 68.2394 25.8856C68.2394 23.7709 68.6303 21.9327 69.4111 20.3702C70.1919 18.7892 71.3064 17.5787 72.7547 16.7408C74.2213 15.9029 75.9462 15.4834 77.9272 15.4834C79.9083 15.4834 81.6229 15.9029 83.0712 16.7408C84.5378 17.5787 85.6524 18.7892 86.4148 20.3702C87.1956 21.9327 87.5865 23.7709 87.5865 25.8856C87.5865 28.0198 87.1956 29.8773 86.4148 31.4583C85.634 33.0208 84.5195 34.2303 83.0712 35.0876C81.624 35.9266 79.9093 36.345 77.9272 36.345ZM77.9272 33.4015C79.8134 33.4015 81.28 32.7534 82.3282 31.4583C83.3764 30.1631 83.9 28.3055 83.9 25.8856C83.9 23.4851 83.3764 21.647 82.3282 20.3702C81.28 19.075 79.8134 18.4269 77.9272 18.4269C76.0411 18.4269 74.5745 19.0648 73.5263 20.3416C72.4781 21.6184 71.9545 23.4657 71.9545 25.8856C71.9545 28.3055 72.4781 30.1631 73.5263 31.4583C74.5745 32.7545 76.0411 33.4015 77.9272 33.4015Z" fill="white"/>
<path d="M118.962 15.7412L111.76 36.0884H108.759L103.644 21.4567L98.4704 36.0884H95.4698L88.2968 15.7412H92.0405L97.1273 30.9159L102.414 15.7412H105.043L110.216 31.0302L115.417 15.7412H118.962Z" fill="white"/>
<path d="M120.802 15.7412H134.405V18.6561H124.403V24.2859H133.805V27.2008H124.403V33.1735H134.405V36.0884H120.802V15.7412Z" fill="white"/>
<path d="M153.523 36.0884H149.637L147.036 29.3156C146.807 28.6869 146.455 28.249 145.979 28.001C145.502 27.753 144.883 27.6295 144.121 27.6295H140.435V36.0884H136.777V15.7412H145.493C147.798 15.7412 149.551 16.2464 150.751 17.2558C151.951 18.2652 152.551 19.7135 152.551 21.5996C152.551 22.9519 152.189 24.1053 151.466 25.0575C150.76 25.9914 149.751 26.6578 148.436 27.0579C149.637 27.3059 150.503 28.1439 151.037 29.5728L153.523 36.0884ZM144.978 24.7717C146.37 24.7717 147.398 24.5145 148.065 24.0001C148.731 23.4857 149.065 22.705 149.065 21.6568C149.065 20.628 148.731 19.8656 148.065 19.3706C147.417 18.8562 146.388 18.599 144.978 18.599H140.377V24.7717H144.978Z" fill="white"/>
<path d="M162.368 37.1624C160.805 37.1624 159.339 36.9532 157.967 36.5337C156.615 36.1142 155.461 35.5141 154.509 34.7333L155.766 32.047C156.757 32.79 157.786 33.3422 158.853 33.7045C159.939 34.0475 161.12 34.2189 162.396 34.2189C163.806 34.2189 164.892 33.9709 165.654 33.4759C166.435 32.9809 166.826 32.2848 166.826 31.3897C166.826 30.6273 166.464 30.0466 165.74 29.6465C165.035 29.227 163.863 28.8371 162.225 28.4748C159.672 27.9227 157.815 27.2082 156.652 26.3315C155.49 25.4548 154.909 24.179 154.909 22.5021C154.909 21.3019 155.233 20.2353 155.881 19.3014C156.529 18.3676 157.443 17.6347 158.624 17.101C159.824 16.5672 161.205 16.3008 162.768 16.3008C164.197 16.3008 165.549 16.5202 166.826 16.9581C168.121 17.3775 169.178 17.9675 169.998 18.7299L168.769 21.4162C166.96 19.9679 164.959 19.2443 162.768 19.2443C161.453 19.2443 160.415 19.5209 159.653 20.073C158.891 20.6068 158.51 21.3396 158.51 22.2735C158.51 23.0737 158.844 23.683 159.51 24.1025C160.196 24.5219 161.358 24.9118 162.997 25.2741C164.692 25.6742 166.074 26.1121 167.14 26.5887C168.207 27.0459 169.026 27.6461 169.598 28.3891C170.169 29.1127 170.455 30.0272 170.455 31.1325C170.455 32.3522 170.132 33.4187 169.484 34.3332C168.836 35.2283 167.903 35.9244 166.683 36.4194C165.463 36.9154 164.025 37.1624 162.368 37.1624Z" fill="white"/>
<path d="M172.851 16.5586H186.454V19.4735H176.451V25.1033H185.854V28.0182H176.451V33.9909H186.454V36.9058H172.851V16.5586Z" fill="white"/>
<path d="M188.827 16.5586H192.513V33.8766H202.029V36.9058H188.827V16.5586Z" fill="white"/>
<path d="M203.797 16.5586H207.484V33.8766H217V36.9058H203.797V16.5586Z" fill="white"/>
<path fill-rule="evenodd" clip-rule="evenodd" d="M18.9921 1.57075C15.1821 3.711 11.5109 6.02783 7.65598 8.13542C6.6374 8.69269 5.61065 9.24485 4.61043 9.83171C3.23054 10.6421 1.77819 11.5719 0.957604 12.9854C0.137019 14.4 0.0543484 16.1157 0.039039 17.7099C-0.013013 23.1601 -0.013013 28.7756 0.039039 34.2339C0.0543484 35.8281 0.13804 37.5438 0.957604 38.9584C1.63836 40.1321 5.05747 42.3765 8.82562 44.6178L6.16178 49.9495L21.5069 28.3428L4.42468 28.7746L30.8681 3.11291C29.9536 2.59444 29.0422 2.08004 28.1349 1.57075C26.7397 0.786904 25.2047 0 23.5635 0C21.9223 0 20.3873 0.786904 18.9921 1.57075Z" fill="white"/>
<path fill-rule="evenodd" clip-rule="evenodd" d="M30.6119 6.1742L24.132 19.5985L43.7617 19.6659L10.823 46.1277C14.0012 47.9628 17.0876 49.6458 18.7073 50.5572C20.1056 51.3441 21.6457 52.1351 23.291 52.1351C24.9362 52.1351 26.4764 51.3441 27.8746 50.5572C32.6573 47.8648 37.5583 45.0448 42.2951 42.2575C43.678 41.444 45.1345 40.5102 45.9571 39.0894C46.7797 37.6687 46.8634 35.9449 46.8787 34.3435C46.9308 28.8638 46.9318 23.2401 46.8787 17.7451C46.8634 16.1437 46.7797 14.4199 45.9571 12.9991C45.1345 11.5784 43.678 10.6446 42.2951 9.83111C39.125 7.9654 35.8814 6.08541 32.6481 4.23909L33.4217 0.352539L30.6119 6.1742Z" fill="white"/>
</svg>
