<svg width="77" height="73" viewBox="0 0 77 73" fill="none" xmlns="http://www.w3.org/2000/svg">
<g clip-path="url(#clip0)">
<path d="M56.1372 32.5205C57.4162 32.5205 58.6478 32.71 59.8321 32.9942L60.2111 37.7313C61.1585 38.0155 62.0585 38.4418 62.9112 38.9155L66.6061 35.9312C67.6482 36.5944 68.5957 37.3997 69.4957 38.2997C70.3957 39.1998 71.1537 40.1945 71.7695 41.2367L68.6904 44.8368C69.1641 45.6895 69.4957 46.6369 69.7799 47.5843L74.517 48.1054C74.8012 49.2897 74.8959 50.5687 74.8959 51.8477C74.8959 53.1267 74.7065 54.3583 74.4222 55.5426L69.6852 55.9216C69.401 56.869 68.9746 57.769 68.5009 58.6217L71.4853 62.3166C70.8221 63.3587 70.0168 64.3061 69.1167 65.2062C68.2167 66.1062 67.2219 66.8641 66.1798 67.48L62.5796 64.4009C61.7269 64.8746 60.7795 65.2062 59.8321 65.4904L59.311 70.2275C58.1268 70.5117 56.8478 70.6064 55.5688 70.6064C54.2898 70.6064 53.0581 70.4169 51.8739 70.1327L51.4949 65.3957C50.5475 65.1114 49.6474 64.6851 48.7948 64.2114L45.0999 67.1957C44.0577 66.5326 43.1103 65.7273 42.2103 64.8272C41.3102 63.9272 40.5523 62.9324 39.9365 61.8902L43.0156 58.2901C42.5419 57.4374 42.2103 56.49 41.926 55.5426L37.189 55.0215C36.9048 53.8373 36.81 52.5582 36.81 51.2792C36.81 50.0002 36.9995 48.7686 37.2837 47.5843L42.0208 47.2054C42.305 46.258 42.7313 45.3579 43.2051 44.5053L40.2681 40.8104C40.9313 39.7682 41.7366 38.8208 42.6366 37.9207C43.5366 37.0207 44.5314 36.2628 45.5736 35.647L49.1737 38.726C50.0264 38.2523 50.9738 37.9207 51.9212 37.6365L52.4423 32.8995C53.6266 32.6626 54.9056 32.5205 56.1372 32.5205Z" stroke="#4B4B4B" stroke-width="3.02414" stroke-miterlimit="22.9256" stroke-linecap="round" stroke-linejoin="round"/>
<path d="M55.9951 43.9351C60.2111 43.9824 63.6217 47.4879 63.5744 51.7038C63.527 55.9198 60.0216 59.3305 55.8056 59.2831C51.5896 59.2357 48.179 55.7303 48.2263 51.5143C48.3211 47.251 51.7791 43.8877 55.9951 43.9351Z" stroke="#4B4B4B" stroke-width="3.02414" stroke-miterlimit="22.9256" stroke-linecap="round" stroke-linejoin="round"/>
<path d="M40.8839 59.8532H3.46118C2.4664 59.8532 1.6611 59.0479 1.6611 58.0531V16.0354C1.6611 15.0407 2.4664 14.2354 3.46118 14.2354H58.0794C59.0742 14.2354 59.8795 15.0407 59.8795 16.0354V34.3205" stroke="#4B4B4B" stroke-width="2.84176" stroke-miterlimit="22.9256" stroke-linecap="round" stroke-linejoin="round"/>
<path d="M1.94687 14.2827L9.14719 3.00853C9.62089 2.29797 11.4683 1.49268 12.4631 1.49268H49.1753C50.1701 1.49268 52.0175 2.29797 52.4912 3.00853L59.6442 14.2827" stroke="#4B4B4B" stroke-width="2.84176" stroke-miterlimit="22.9256" stroke-linecap="round" stroke-linejoin="round"/>
<path d="M35.0573 1.49268L37.1416 14.188V22.8568H24.4937V14.188L26.578 1.49268" stroke="#4B4B4B" stroke-width="2.84176" stroke-miterlimit="22.9256" stroke-linecap="round" stroke-linejoin="round"/>
</g>
<defs>
<clipPath id="clip0">
<rect width="76.1718" height="72.098" fill="white" transform="translate(0.287354 0.0732422)"/>
</clipPath>
</defs>
</svg>
