<svg width="301" height="216" viewBox="0 0 301 216" fill="none" xmlns="http://www.w3.org/2000/svg">
<path d="M247.989 82.1709C234.917 82.1168 222.304 86.9803 212.66 95.793C205.172 93.5269 197.297 92.8227 189.524 93.724C181.751 94.6253 174.247 97.1129 167.478 101.032C152.542 109.716 133.664 107.456 121.442 95.2551L116.947 98.6536L116.216 98.1018L114.366 100.606L111.854 102.506L112.523 103.093L109.528 107.145L116.479 114.082C116.729 114.332 116.899 114.651 116.966 114.999C117.034 115.346 116.997 115.706 116.859 116.031C116.721 116.357 116.489 116.635 116.193 116.829C115.897 117.023 115.549 117.124 115.195 117.12H115.149C105.22 117.117 95.6433 120.796 88.2757 127.443C80.9081 134.09 76.2745 143.232 75.2734 153.097C71.7457 148.96 67.3596 145.64 62.419 143.364C57.4784 141.088 52.1014 139.913 46.6605 139.918H46.5276C46.5031 135.847 45.3938 131.855 43.3138 128.353C41.2338 124.851 38.2579 121.965 34.6917 119.992C31.1255 118.018 27.0975 117.027 23.0212 117.121C18.9449 117.216 14.9671 118.392 11.4964 120.529C8.02568 122.666 5.18699 125.686 3.27177 129.281C1.35655 132.875 0.43381 136.914 0.598294 140.982C0.762779 145.05 2.00856 149.001 4.20772 152.43C6.40689 155.858 9.48022 158.641 13.1122 160.491C10.385 165.853 8.99196 171.792 9.0511 177.805C9.22249 198.252 25.9914 214.941 46.4786 215.046C55.6587 215.093 64.5392 211.787 71.4481 205.751C78.357 199.715 82.8177 191.364 83.9901 182.273C87.8763 187.071 92.8213 190.906 98.4383 193.478C104.055 196.051 110.192 197.291 116.369 197.102C122.546 196.913 128.595 195.3 134.044 192.389C139.493 189.477 144.193 185.347 147.778 180.32C152.591 188.012 159.176 194.443 166.984 199.076C174.792 203.71 183.597 206.411 192.664 206.955C201.73 207.499 210.796 205.869 219.103 202.203C227.411 198.536 234.72 192.939 240.42 185.877C242.877 186.225 245.357 186.4 247.839 186.401C254.725 186.401 261.542 185.041 267.899 182.399C274.256 179.756 280.027 175.884 284.879 171.005C289.73 166.126 293.567 160.336 296.168 153.97C298.769 147.604 300.083 140.786 300.035 133.911C299.832 105.451 276.494 82.2512 247.989 82.1709Z" fill="url(#paint0_linear)"/>
<path style="mix-blend-mode:screen" opacity="0.5" d="M234.48 121.406C224.102 121.407 214.024 124.884 205.858 131.279C197.691 137.675 191.909 146.62 189.434 156.684C185.41 155.739 181.223 155.722 177.191 156.635C175.097 150 171.166 144.091 165.851 139.592C160.537 135.093 154.056 132.187 147.158 131.21C140.26 130.233 133.225 131.224 126.867 134.07C120.51 136.916 115.088 141.5 111.228 147.292C107.999 143.249 103.591 140.309 98.6148 138.877C93.6384 137.446 88.3396 137.595 83.4517 139.304C78.5638 141.012 74.3287 144.195 71.3324 148.413C68.3362 152.631 66.727 157.674 66.7277 162.845C66.5143 162.845 66.3009 162.845 66.0841 162.845C61.1431 162.845 56.3131 164.309 52.2048 167.05C48.0965 169.791 44.8945 173.687 43.0037 178.245C41.1129 182.803 40.6181 187.819 41.5821 192.658C42.546 197.497 44.9253 201.942 48.4191 205.431C51.9129 208.92 56.3643 211.296 61.2103 212.258C66.0564 213.221 71.0794 212.727 75.6443 210.839C80.2091 208.95 84.1108 205.753 86.8559 201.651C89.6009 197.548 91.0661 192.725 91.0661 187.791C91.2795 187.791 91.4928 187.791 91.7097 187.791C97.6336 187.796 103.365 185.69 107.874 181.854C109.918 186.763 113.001 191.172 116.912 194.78C120.823 198.388 125.469 201.108 130.531 202.755C135.593 204.403 140.952 204.937 146.241 204.323C151.53 203.708 156.623 201.959 161.171 199.196C163.531 202.436 166.579 205.115 170.097 207.042C173.614 208.97 177.515 210.097 181.52 210.345C185.524 210.593 189.534 209.954 193.263 208.475C196.992 206.995 200.347 204.712 203.09 201.787C208.642 206.886 215.356 210.556 222.65 212.477C229.943 214.398 237.596 214.514 244.945 212.814C252.293 211.113 259.116 207.649 264.82 202.72C270.524 197.791 274.937 191.547 277.678 184.529C280.418 177.511 281.403 169.932 280.546 162.449C279.689 154.965 277.017 147.803 272.761 141.584C268.505 135.365 262.794 130.277 256.123 126.761C249.453 123.245 242.023 121.407 234.48 121.406Z" fill="url(#paint1_linear)"/>
<path d="M113.799 80.7832C124.524 74.3361 137.824 68.9421 146.88 60.2904L134.41 47.202C119.823 48.7434 105.088 48.068 90.7032 45.1987C98.9872 57.6642 104.684 68.9016 113.799 80.7832Z" fill="#ECECEC"/>
<path opacity="0.1" d="M100.444 46.798C107.687 57.167 116.659 66.2135 126.967 73.542C122.455 75.9679 117.934 78.2977 113.799 80.7831C104.684 68.9015 98.9873 57.6641 90.6864 45.1982C93.9119 45.8418 97.1644 46.375 100.444 46.798Z" fill="black"/>
<path d="M153.156 78.0669C152.164 76.4235 151.636 74.5424 151.626 72.623C151.621 71.6586 152.151 71.1748 152.694 70.3924C153.23 69.6135 154.012 69.0364 154.915 68.7529C155.238 67.8637 155.852 67.1093 156.657 66.6116C157.481 66.1065 157.989 65.6053 158.935 65.6501C160.852 65.7506 162.706 66.367 164.301 67.4342C163.87 67.3118 163.41 67.3449 163.002 67.5277C164.4 68.6253 165.624 69.9278 166.633 71.3913C166.084 70.9955 165.471 70.6986 164.821 70.5141C166.115 72.1215 167.089 73.9632 167.687 75.9386L166.101 74.5761C167.204 76.7497 167.602 79.2133 167.238 81.6236L167.298 81.6926L167.225 81.6909C167.225 81.6909 167.224 81.7416 167.223 81.7698L167.163 81.7007C164.736 81.9532 162.291 81.4402 160.171 80.2337L161.463 81.8825C159.518 81.1949 157.723 80.1379 156.179 78.7695C156.333 79.4263 156.601 80.0509 156.97 80.6152C155.555 79.5403 154.311 78.256 153.282 76.8067C153.097 77.2001 153.053 77.6448 153.156 78.0669Z" fill="#FFB453"/>
<path d="M153.55 75.4645C152.827 74.2645 152.44 72.8919 152.431 71.4908C152.448 70.7863 152.817 70.4341 153.214 69.8513C153.601 69.2753 154.171 68.8473 154.833 68.6375C155.077 67.9858 155.533 67.4348 156.127 67.0721C156.7 66.7021 157.097 66.3336 157.802 66.3671C159.2 66.4429 160.553 66.8935 161.718 67.6716C161.403 67.5863 161.069 67.6103 160.769 67.7395C161.789 68.5438 162.683 69.4962 163.421 70.565C163.022 70.275 162.574 70.0583 162.099 69.9249C163.047 71.0984 163.758 72.4441 164.194 73.8877L163.033 72.8905C163.839 74.4796 164.13 76.2799 163.865 78.0417L163.909 78.0934L163.853 78.0921C163.855 78.109 163.855 78.1261 163.852 78.1428L163.808 78.0967C162.035 78.2812 160.25 77.9059 158.701 77.0236L159.643 78.23C158.22 77.7286 156.909 76.9546 155.783 75.9512C155.894 76.4308 156.088 76.8874 156.355 77.3011C155.322 76.5152 154.414 75.5775 153.662 74.5198C153.517 74.8121 153.477 75.1461 153.55 75.4645Z" fill="#FFDD8B"/>
<path d="M154.395 74.2946C153.854 73.3942 153.565 72.3649 153.557 71.3143C153.57 70.7846 153.847 70.5204 154.15 70.082C154.444 69.6512 154.872 69.33 155.367 69.1689C155.548 68.6792 155.89 68.2655 156.337 67.9962C156.789 67.7193 157.066 67.4494 157.59 67.4618C158.641 67.5149 159.658 67.8526 160.533 68.4389C160.297 68.3707 160.045 68.3887 159.821 68.4898C160.589 69.0899 161.26 69.8036 161.813 70.6062C161.513 70.3894 161.177 70.2269 160.82 70.1261C161.528 71.0071 162.061 72.0148 162.392 73.0954L161.518 72.3474C162.123 73.5398 162.342 74.8912 162.143 76.2136L162.176 76.2482L162.137 76.2473C162.137 76.2473 162.136 76.2755 162.136 76.2867L162.103 76.2521C160.773 76.3908 159.433 76.1109 158.27 75.4515L158.977 76.3534C157.911 75.9761 156.929 75.3957 156.084 74.6444C156.167 75.0055 156.314 75.3488 156.517 75.6584C155.741 75.0673 155.058 74.3631 154.491 73.5694C154.38 73.7937 154.346 74.0489 154.395 74.2946Z" fill="#FFECB1"/>
<path d="M121.914 48.4022C115.929 39.1318 127.195 28.3609 136.179 34.7921C139.06 36.8716 141.742 39.2132 144.191 41.7869C148.924 46.7478 159.067 59.054 161.23 64.2139C158.293 68.4739 154.509 72.0822 150.114 74.8135C145.095 72.4398 133.246 61.695 128.513 56.7341C126.06 54.1673 123.85 51.378 121.914 48.4022Z" fill="#FF6E53"/>
<path d="M125.373 37.748C126.759 36.9712 128.323 36.5651 129.912 36.569C131.359 36.645 132.75 37.1553 133.904 38.0332L137.918 40.9471C139.271 41.9037 140.636 42.8776 142.132 43.7642C141.311 42.244 140.291 40.8395 139.1 39.5877C137.925 38.3356 136.63 37.202 135.233 36.2035C134.453 35.6459 133.583 35.225 132.662 34.9588C131.727 34.7028 130.747 34.6509 129.79 34.8067C128.887 34.956 128.027 35.2954 127.265 35.8025C126.504 36.3096 125.859 36.9727 125.373 37.748Z" fill="white"/>
<path opacity="0.1" d="M121.914 48.4028C118.262 42.7624 121.007 36.5788 125.736 34.0396C124.768 35.6241 124.279 37.4551 124.328 39.3115C124.378 41.1679 124.963 42.9703 126.015 44.5011C127.953 47.4806 130.166 50.272 132.625 52.8388C137.358 57.7998 149.174 68.51 154.193 70.9118C155.579 70.0459 156.907 69.09 158.168 68.0504C157.543 68.7462 156.895 69.4302 156.208 70.0851C154.345 71.8668 152.303 73.4515 150.114 74.814C145.095 72.4404 133.246 61.6956 128.513 56.7346C126.06 54.1678 123.85 51.3785 121.914 48.4028Z" fill="black"/>
<path d="M93.5859 100.074C86.6418 110.484 80.6286 123.515 71.5553 132.15L59.0678 119.066C61.295 104.569 61.3149 89.8175 59.1266 75.314C71.1889 84.1803 82.1459 90.4041 93.5859 100.074Z" fill="#ECECEC"/>
<path opacity="0.2" d="M60.2604 85.1357C70.2778 92.8572 78.8943 102.242 85.734 112.881C88.3635 108.494 90.9088 104.088 93.5854 100.096C82.1454 90.4266 71.1881 84.214 59.1262 75.3364C59.6213 78.5812 59.9994 81.8476 60.2604 85.1357Z" fill="black"/>
<g style="mix-blend-mode:screen">
<path d="M77.8592 149.926C76.8692 148.282 76.3407 146.401 76.3293 144.482C76.3519 143.518 76.8596 143.034 77.4024 142.252C77.935 141.471 78.7156 140.894 79.6176 140.612C79.9405 139.722 80.5543 138.968 81.3597 138.471C82.178 137.966 82.6862 137.459 83.638 137.509C85.5545 137.606 87.409 138.221 89.0041 139.288C88.5747 139.171 88.1186 139.204 87.7105 139.381C89.1072 140.481 90.3311 141.783 91.3415 143.245C90.7916 142.853 90.1786 142.558 89.5293 142.373C90.8243 143.978 91.796 145.818 92.3906 147.792L90.8098 146.43C91.9112 148.606 92.3066 151.071 91.941 153.483L92.0071 153.546L91.9339 153.545C91.9339 153.545 91.9327 153.595 91.9321 153.618L91.8661 153.549C89.442 153.8 86.9999 153.289 84.8798 152.087L86.1663 153.73C84.2216 153.045 82.4289 151.988 80.888 150.618C81.0422 151.275 81.3079 151.901 81.6734 152.469C80.2604 151.391 79.017 150.107 77.9848 148.66C77.8035 149.057 77.7593 149.502 77.8592 149.926Z" fill="#FFB453"/>
</g>
<g style="mix-blend-mode:screen">
<path d="M78.2246 147.33C77.5016 146.13 77.1168 144.757 77.1113 143.356C77.1279 142.652 77.4972 142.294 77.8894 141.683C78.2795 141.108 78.8516 140.68 79.5138 140.469C79.7557 139.818 80.2096 139.266 80.8025 138.904C81.3749 138.539 81.7785 138.165 82.4824 138.204C83.8817 138.274 85.2358 138.723 86.3993 139.503C86.0858 139.417 85.752 139.443 85.4558 139.577C86.4769 140.378 87.371 141.328 88.1076 142.397C87.7066 142.11 87.2597 141.894 86.7861 141.757C87.7294 142.932 88.4386 144.277 88.8753 145.719L87.7202 144.722C88.5264 146.311 88.8153 148.112 88.5464 149.873L88.5959 149.925L88.5396 149.924C88.5396 149.924 88.5387 149.963 88.5383 149.98L88.4887 149.928C86.7169 150.114 84.9313 149.741 83.3822 148.861L84.3239 150.062C82.9038 149.558 81.5934 148.786 80.4638 147.789C80.5783 148.268 80.7735 148.725 81.0411 149.139C80.0081 148.351 79.0988 147.414 78.3434 146.357C78.1911 146.657 78.149 147.002 78.2246 147.33Z" fill="#FF8A53"/>
</g>
<g style="mix-blend-mode:screen">
<path d="M79.0752 146.17C78.5315 145.269 78.242 144.237 78.2375 143.184C78.25 142.654 78.5269 142.39 78.8304 141.952C79.121 141.52 79.5502 141.2 80.0472 141.044C80.2273 140.556 80.5668 140.143 81.0109 139.872C81.4629 139.595 81.7399 139.325 82.2697 139.337C83.3208 139.392 84.3377 139.73 85.2129 140.314C84.9768 140.249 84.7255 140.267 84.5012 140.365C85.2655 140.967 85.935 141.681 86.4871 142.482C86.1861 142.266 85.8505 142.104 85.4947 142.001C86.2063 142.882 86.7399 143.892 87.0657 144.976L86.1979 144.229C86.8041 145.419 87.0209 146.769 86.8177 148.089L86.8562 148.129L86.8168 148.128C86.8133 148.141 86.813 148.155 86.8158 148.168L86.7772 148.133C85.4487 148.269 84.1109 147.987 82.9503 147.327L83.6565 148.229C82.5902 147.852 81.6063 147.274 80.7586 146.525C80.8451 146.884 80.9915 147.224 81.1916 147.534C80.4175 146.945 79.7363 146.242 79.1711 145.451C79.0559 145.672 79.0219 145.926 79.0752 146.17Z" fill="#FF6E53"/>
</g>
<path d="M46.5943 120.256C40.6092 110.986 51.8757 100.215 60.854 106.652C63.7384 108.727 66.4209 111.069 68.8663 113.647C73.5993 118.607 83.7479 130.914 85.9104 136.074C82.9705 140.326 79.1915 143.931 74.806 146.668C69.7873 144.266 57.9376 133.555 53.2048 128.588C50.7447 126.025 48.5314 123.235 46.5943 120.256Z" fill="#FF6E53"/>
<path d="M50.0474 109.624C51.4335 108.846 52.9971 108.44 54.5864 108.445C56.0332 108.52 57.424 109.028 58.5784 109.903L62.5877 112.789C63.9466 113.751 65.3054 114.72 66.8071 115.606C65.9752 114.097 64.9502 112.702 63.7581 111.458C62.5824 110.206 61.287 109.072 59.8903 108.073C59.1107 107.516 58.2412 107.097 57.3198 106.834C56.3851 106.573 55.4044 106.521 54.4474 106.682C53.5478 106.834 52.6905 107.174 51.932 107.681C51.1736 108.188 50.5313 108.85 50.0474 109.624Z" fill="white"/>
<path opacity="0.1" d="M46.5943 120.256C42.9429 114.622 45.688 108.438 50.417 105.893C49.4456 107.477 48.9533 109.308 48.9997 111.165C49.0461 113.022 49.6291 114.827 50.6784 116.36C52.6202 119.335 54.8331 122.124 57.2889 124.692C62.0219 129.653 73.8376 140.369 78.8901 142.771C80.2777 141.905 81.6057 140.948 82.8654 139.904C82.24 140.6 81.5924 141.284 80.9003 141.939C79.0359 143.719 76.9938 145.304 74.806 146.668C69.7873 144.266 57.9376 133.555 53.2048 128.588C50.7447 126.025 48.5314 123.235 46.5943 120.256Z" fill="black"/>
<g style="mix-blend-mode:screen">
<g style="mix-blend-mode:screen">
<path d="M108.872 120.029C106.793 116.583 105.685 112.638 105.667 108.613C105.658 106.594 106.77 105.583 107.909 103.906C109.022 102.25 110.663 101.02 112.565 100.418C113.257 98.5488 114.56 96.9679 116.262 95.9318C117.979 94.8782 119.053 93.815 121.075 93.9133C125.093 94.1274 128.98 95.4186 132.327 97.6516C131.424 97.4032 130.462 97.4742 129.604 97.8526C132.533 100.147 135.1 102.869 137.219 105.926C136.068 105.102 134.783 104.483 133.422 104.095C136.139 107.46 138.178 111.321 139.425 115.463L136.109 112.605C138.423 117.163 139.256 122.331 138.491 127.385L138.623 127.529L138.471 127.525C138.467 127.578 138.465 127.631 138.467 127.683L138.335 127.539C133.249 128.068 128.125 126.995 123.678 124.471L126.382 127.918C122.304 126.476 118.544 124.258 115.309 121.387C115.627 122.765 116.186 124.076 116.96 125.26C114.005 123.002 111.407 120.311 109.253 117.28C108.807 118.123 108.672 119.096 108.872 120.029Z" fill="#FFB453"/>
</g>
<g style="mix-blend-mode:screen">
<path d="M109.705 114.578C108.186 112.059 107.377 109.175 107.364 106.233C107.359 104.756 108.172 103.997 109.001 102.793C109.816 101.584 111.016 100.686 112.405 100.245C112.909 98.8761 113.862 97.7193 115.11 96.9644C116.369 96.1932 117.143 95.4163 118.624 95.4906C121.56 95.6454 124.399 96.5888 126.844 98.2215C126.184 98.0426 125.483 98.0937 124.855 98.3664C126.997 100.049 128.872 102.046 130.417 104.289C129.574 103.682 128.63 103.229 127.629 102.949C129.614 105.409 131.105 108.23 132.019 111.257L129.592 109.164C131.284 112.505 131.895 116.289 131.339 119.993L131.438 120.096L131.32 120.094C131.319 120.133 131.318 120.173 131.317 120.206L131.218 120.103C127.503 120.49 123.759 119.706 120.512 117.86L122.482 120.382C119.503 119.329 116.755 117.709 114.39 115.613C114.625 116.625 115.034 117.588 115.597 118.461C113.432 116.811 111.527 114.845 109.949 112.627C109.646 113.23 109.56 113.919 109.705 114.578Z" fill="#FF8A53"/>
</g>
<g style="mix-blend-mode:screen">
<path d="M111.454 112.15C110.318 110.264 109.71 108.107 109.695 105.905C109.721 104.778 110.298 104.228 110.923 103.323C111.535 102.417 112.435 101.745 113.477 101.415C113.855 100.39 114.569 99.522 115.503 98.9536C116.453 98.3725 117.036 97.7941 118.14 97.8483C120.339 97.9647 122.466 98.6733 124.295 99.899C123.801 99.7586 123.273 99.7961 122.804 100.005C124.413 101.265 125.821 102.762 126.979 104.445C126.349 103.993 125.646 103.652 124.9 103.438C126.387 105.283 127.503 107.398 128.187 109.667L126.369 108.102C127.645 110.594 128.115 113.421 127.713 116.192L127.784 116.272L127.699 116.27C127.699 116.299 127.698 116.327 127.697 116.355L127.626 116.274C124.837 116.566 122.027 115.977 119.59 114.591L121.074 116.487C118.839 115.696 116.778 114.48 115.006 112.904C115.182 113.659 115.487 114.378 115.909 115.029C114.284 113.793 112.854 112.318 111.67 110.655C111.428 111.114 111.352 111.641 111.454 112.15Z" fill="#FF6E53"/>
</g>
</g>
<path d="M39.7319 24.3147C53.6825 22.6577 73.4778 31.9259 89.9 49.1447C98.2762 57.9301 119.792 83.4736 123.621 92.5693C118.43 100.108 111.737 106.494 103.962 111.325C95.0398 107.072 70.5527 84.3797 62.1708 75.5999C45.7485 58.381 37.4211 38.172 39.7319 24.3147Z" fill="white"/>
<path opacity="0.3" d="M39.7319 24.3147C53.6825 22.6577 73.4778 31.9259 89.9 49.1447C98.2762 57.9301 119.792 83.4736 123.621 92.5693C118.43 100.108 111.737 106.494 103.962 111.325C95.0398 107.072 70.5527 84.3797 62.1708 75.5999C45.7485 58.381 37.4211 38.172 39.7319 24.3147Z" fill="black"/>
<path opacity="0.3" d="M78.1277 84.3038C79.3434 80.5654 81.6368 77.281 84.0056 74.1506C86.2693 71.17 88.7477 68.1719 92.1294 66.5653C94.9814 65.1888 110.558 78.0626 116.338 80.9785C117.818 83.0152 119.165 84.9417 120.302 86.7109C119.429 89.6864 118.099 92.5086 116.361 95.0769C113.759 99.0251 110.475 102.467 107.214 105.892C107.896 106.509 108.639 107.055 109.431 107.523C108.547 108.209 107.648 108.868 106.735 109.501L106.689 109.5C106.254 109.805 105.807 110.105 105.366 110.399C104.925 110.693 104.432 111.003 103.963 111.291C101.019 109.885 96.3569 106.454 91.1453 102.181C87.377 96.9668 77.7621 85.4625 78.1277 84.3038Z" fill="black"/>
<path d="M16.8869 0.37005C35.0843 -1.79041 60.909 10.3037 82.3452 32.7664C93.2751 44.2227 116.702 72.6815 121.695 84.5508C114.917 94.3797 106.187 102.707 96.0486 109.014C84.4271 103.468 57.1008 78.7293 46.1709 67.2731C24.7404 44.8104 13.8735 18.4458 16.8869 0.37005Z" fill="#F9F9F9"/>
<path d="M27.9424 13.1993C31.9368 9.39307 36.6498 6.42127 41.8059 4.45756C45.6386 5.95653 49.3653 7.7134 52.9605 9.7161C46.4632 11.5827 40.4804 14.9142 35.472 19.4547C30.4636 23.9951 26.5631 29.6235 24.0701 35.9071C22.2964 32.2463 20.7743 28.4687 19.5145 24.6007C21.6417 20.3405 24.4935 16.4825 27.9424 13.1993Z" fill="#FF6E53"/>
<path d="M17.4853 16.9003C16.2778 10.9339 16.0599 5.33479 16.8872 0.369269C22.0502 -0.248051 27.8344 0.293974 33.9718 1.88754C27.3534 5.49942 21.6994 10.6481 17.4853 16.9003Z" fill="#FF6E53"/>
<path opacity="0.1" d="M16.765 1.23486C23.1611 19.6447 37.1692 41.6846 56.8331 62.2955C66.6789 72.6098 92.1965 97.5256 102.267 104.755C100.241 106.275 98.1658 107.704 96.0484 109.018C84.4269 103.473 57.1007 78.7342 46.1708 67.2779C25.0591 45.1668 14.226 19.2823 16.765 1.23486Z" fill="black"/>
<path d="M49.9129 48.6728C57.2308 48.8449 63.3026 43.0521 63.4746 35.7342C63.6467 28.4163 57.8539 22.3445 50.536 22.1724C43.2181 22.0003 37.1463 27.7932 36.9742 35.1111C36.8021 42.429 42.595 48.5008 49.9129 48.6728Z" fill="#A6F6FF"/>
<g opacity="0.3">
<path opacity="0.3" d="M38.9347 28.4745L61.8338 29.0129C63.1609 31.4198 63.7069 34.1797 63.3962 36.9106L37.0028 36.29C36.8209 33.5475 37.496 30.8163 38.9347 28.4745Z" fill="white"/>
<path opacity="0.3" d="M39.2119 42.826C38.171 41.2819 37.4666 39.5362 37.1444 37.7021L63.1658 38.314C62.7624 40.1314 61.9783 41.8427 60.8654 43.3351L39.2119 42.826Z" fill="white"/>
</g>
<path opacity="0.1" d="M41.0777 25.8349C42.8145 24.1763 44.9693 23.0209 47.3119 22.4919C49.6544 21.963 52.0967 22.0805 54.3777 22.8318C51.3528 23.1282 48.5218 24.4551 46.3588 26.5904C44.1959 28.7256 42.8325 31.5393 42.4971 34.56C42.1618 37.5808 42.8748 40.625 44.5167 43.1827C46.1587 45.7403 48.6297 47.6559 51.5159 48.6085C48.7712 48.8785 46.0106 48.2851 43.6192 46.9112C41.2278 45.5372 39.3248 43.4512 38.1757 40.944C37.0265 38.4368 36.6885 35.6335 37.2087 32.925C37.7289 30.2165 39.0815 27.7379 41.0777 25.8349Z" fill="black"/>
<path d="M39.1718 45.9718C37.0864 43.7854 35.6961 41.0297 35.1767 38.0532C34.6574 35.0767 35.0323 32.013 36.254 29.2495C37.4758 26.486 39.4895 24.1469 42.0406 22.5278C44.5917 20.9088 47.5656 20.0825 50.5862 20.1536C53.6069 20.2246 56.5387 21.1897 59.0108 22.9269C61.483 24.664 63.3846 27.0953 64.4751 29.9131C65.5656 32.7309 65.7961 35.8088 65.1374 38.7577C64.4787 41.7065 62.9604 44.3938 60.7746 46.4798C57.8406 49.2734 53.9182 50.7889 49.8681 50.6937C45.818 50.5984 41.9712 48.9002 39.1718 45.9718ZM42.1022 43.176C43.6354 44.7832 45.6106 45.8995 47.7783 46.384C49.9459 46.8685 52.2086 46.6993 54.28 45.8978C56.3515 45.0963 58.1388 43.6986 59.4159 41.8813C60.693 40.0641 61.4025 37.9089 61.4547 35.6884C61.5069 33.4679 60.8995 31.2818 59.7092 29.4065C58.519 27.5312 56.7993 26.051 54.7678 25.153C52.7363 24.2551 50.4841 23.9797 48.2961 24.3618C46.1081 24.7439 44.0825 25.7662 42.4755 27.2994C40.3235 29.3569 39.0755 32.1841 39.0056 35.1605C38.9356 38.137 40.0492 41.0197 42.1022 43.176Z" fill="#FF6E53"/>
<path d="M72.7028 72.5537C80.0207 72.7258 86.0925 66.9329 86.2646 59.615C86.4367 52.2971 80.6439 46.2253 73.326 46.0533C66.0081 45.8812 59.9363 51.674 59.7642 58.9919C59.5921 66.3098 65.3849 72.3816 72.7028 72.5537Z" fill="#A6F6FF"/>
<g opacity="0.3">
<path opacity="0.3" d="M61.7186 52.3792L84.6176 52.9177C85.9324 55.3203 86.4705 58.0713 86.158 60.7922L59.7872 60.1722C59.6098 57.4373 60.2846 54.7147 61.7186 52.3792Z" fill="white"/>
<path opacity="0.3" d="M62.0134 66.7034C60.9725 65.1594 60.2681 63.4136 59.9459 61.5796L85.956 62.1912C85.5479 64.008 84.7622 65.7187 83.6499 67.2122L62.0134 66.7034Z" fill="white"/>
</g>
<path opacity="0.1" d="M63.862 49.7171C65.5989 48.0586 67.7537 46.9031 70.0962 46.3742C72.4388 45.8452 74.881 45.9627 77.162 46.714C74.1384 47.0134 71.3094 48.342 69.1482 50.4777C66.987 52.6133 65.6249 55.4264 65.2897 58.4462C64.9545 61.466 65.6665 64.5094 67.3067 67.067C68.947 69.6246 71.4158 71.5413 74.3001 72.4964C71.5555 72.7643 68.7956 72.1694 66.405 70.7946C64.0145 69.4197 62.1123 67.3335 60.9635 64.8264C59.8147 62.3194 59.4766 59.5165 59.9961 56.8082C60.5157 54.0998 61.8671 51.621 63.862 49.7171Z" fill="black"/>
<path d="M61.9559 69.8663C59.8705 67.6799 58.4802 64.9242 57.9608 61.9477C57.4415 58.9712 57.8164 55.9075 59.0381 53.144C60.2599 50.3806 62.2736 48.0414 64.8247 46.4224C67.3758 44.8033 70.3497 43.9771 73.3703 44.0481C76.391 44.1191 79.3228 45.0842 81.795 46.8214C84.2671 48.5586 86.1687 50.9898 87.2592 53.8076C88.3497 56.6255 88.5802 59.7034 87.9215 62.6522C87.2628 65.601 85.7446 68.2883 83.5587 70.3743C80.6247 73.1679 76.7023 74.6834 72.6522 74.5882C68.6021 74.493 64.7553 72.7948 61.9559 69.8663ZM64.8863 67.0706C66.4195 68.6777 68.3948 69.7941 70.5624 70.2785C72.73 70.763 74.9927 70.5938 77.0642 69.7923C79.1356 68.9909 80.9229 67.5931 82.2 65.7759C83.4771 63.9586 84.1866 61.8034 84.2388 59.5829C84.291 57.3624 83.6836 55.1763 82.4933 53.301C81.3031 51.4257 79.5835 49.9455 77.5519 49.0476C75.5204 48.1496 73.2683 47.8743 71.0802 48.2563C68.8922 48.6384 66.8666 49.6607 65.2596 51.194C63.111 53.251 61.8654 56.0758 61.7954 59.0496C61.7255 62.0233 62.8371 64.9035 64.8866 67.0593L64.8863 67.0706Z" fill="#FF6E53"/>
<defs>
<linearGradient id="paint0_linear" x1="0.58967" y1="148.608" x2="300.038" y2="148.608" gradientUnits="userSpaceOnUse">
<stop stop-color="#FF7631"/>
<stop offset="1" stop-color="#FFD431"/>
</linearGradient>
<linearGradient id="paint1_linear" x1="54149" y1="19025.3" x2="218482" y2="19025.3" gradientUnits="userSpaceOnUse">
<stop stop-color="#FF7631"/>
<stop offset="1" stop-color="#FFD431"/>
</linearGradient>
</defs>
</svg>
