<svg width="24" height="25" viewBox="0 0 24 25" fill="none" xmlns="http://www.w3.org/2000/svg">
<path d="M2 1H22C22.8284 1 23.5 1.67157 23.5 2.5V22.5C23.5 23.3284 22.8284 24 22 24H2C1.17157 24 0.5 23.3284 0.5 22.5V2.5C0.5 1.67157 1.17157 1 2 1Z" fill="white" stroke="#005EF9"/>
<path d="M11.6577 17.1675C14.6032 17.1675 16.9911 14.7796 16.9911 11.8341C16.9911 8.88855 14.6032 6.50073 11.6577 6.50073C8.71212 6.50073 6.32428 8.88855 6.32428 11.8341C6.32428 14.7796 8.71212 17.1675 11.6577 17.1675Z" stroke="#005EF9" stroke-linecap="round" stroke-linejoin="round"/>
<path d="M18.324 18.5011L15.424 15.6011" stroke="#005EF9" stroke-linecap="round" stroke-linejoin="round"/>
</svg>
