<svg width="72" height="62" viewBox="0 0 72 62" fill="none" xmlns="http://www.w3.org/2000/svg">
<g clip-path="url(#clip0)">
<path d="M2.30569 60.3477H69.7848" stroke="#4B4B4B" stroke-width="2.77597" stroke-miterlimit="22.9256" stroke-linecap="round" stroke-linejoin="round"/>
<path d="M9.392 60.3453V34.332" stroke="#4B4B4B" stroke-width="2.77597" stroke-miterlimit="22.9256" stroke-linecap="round" stroke-linejoin="round"/>
<path d="M26.0332 60.3453V34.332" stroke="#4B4B4B" stroke-width="2.77597" stroke-miterlimit="22.9256" stroke-linecap="round" stroke-linejoin="round"/>
<path d="M62.6987 60.3453V34.332" stroke="#4B4B4B" stroke-width="2.77597" stroke-miterlimit="22.9256" stroke-linecap="round" stroke-linejoin="round"/>
<path d="M9.84916 1.37061H62.1958L69.7392 18.9719C69.8306 19.3833 69.8763 19.8405 69.8763 20.2977C69.8763 24.458 66.4932 27.8411 62.3329 27.8411C59.4984 27.8411 57.0297 26.2867 55.7496 24.0008C54.4695 26.2867 52.0008 27.8411 49.1663 27.8411C46.3318 27.8411 43.863 26.2867 42.5829 24.0008C41.3029 26.2867 38.8341 27.8411 35.9996 27.8411C33.1651 27.8411 30.6964 26.2867 29.4163 24.0008C28.1362 26.2867 25.6674 27.8411 22.833 27.8411C19.9985 27.8411 17.5297 26.2867 16.2496 24.0008C14.9695 26.2867 12.5008 27.8411 9.66629 27.8411C5.50599 27.8411 2.12289 24.458 2.12289 20.2977C2.12289 19.8405 2.16861 19.3833 2.26005 18.9719L9.84916 1.37061Z" stroke="#4B4B4B" stroke-width="2.77597" stroke-miterlimit="22.9256" stroke-linecap="round" stroke-linejoin="round"/>
<path d="M16.2039 23.4072L19.5412 2.28564" stroke="#4B4B4B" stroke-width="2.77597" stroke-miterlimit="22.9256" stroke-linecap="round" stroke-linejoin="round"/>
<path d="M29.2791 23.4072C29.6906 16.3667 30.0563 9.32615 30.4221 2.28564" stroke="#4B4B4B" stroke-width="2.77597" stroke-miterlimit="22.9256" stroke-linecap="round" stroke-linejoin="round"/>
<path d="M42.4001 23.4072C42.0344 16.3667 41.6686 9.32615 41.3029 2.28564" stroke="#4B4B4B" stroke-width="2.77597" stroke-miterlimit="22.9256" stroke-linecap="round" stroke-linejoin="round"/>
<path d="M55.5211 23.4072L52.1837 2.28564" stroke="#4B4B4B" stroke-width="2.77597" stroke-miterlimit="22.9256" stroke-linecap="round" stroke-linejoin="round"/>
<path d="M20.5013 47.6816V42.7441" stroke="#4B4B4B" stroke-width="2.77597" stroke-miterlimit="22.9256" stroke-linecap="round" stroke-linejoin="round"/>
<path d="M39.7485 51.1568L54.9725 35.75" stroke="#4B4B4B" stroke-width="2.77597" stroke-miterlimit="22.9256" stroke-linecap="round" stroke-linejoin="round"/>
<path d="M45.1432 55.4085L55.4296 44.9849" stroke="#4B4B4B" stroke-width="2.77597" stroke-miterlimit="22.9256" stroke-linecap="round" stroke-linejoin="round"/>
</g>
<defs>
<clipPath id="clip0">
<rect width="70.4965" height="61.7644" fill="white" transform="translate(0.797058)"/>
</clipPath>
</defs>
</svg>
