<svg width="16" height="8" viewBox="0 0 16 8" fill="none" xmlns="http://www.w3.org/2000/svg">
<path d="M3.38644 6C3.83406 6 4.17523 5.88612 4.40993 5.65837C4.64705 5.42841 4.76561 5.09453 4.76561 4.65672C4.76561 4.38695 4.68214 4.1581 4.51518 3.97015C4.35065 3.7822 4.09175 3.61968 3.73849 3.48259C3.70461 3.46269 3.6538 3.43726 3.58605 3.4063C3.52072 3.37313 3.4687 3.34549 3.42999 3.32338C3.39369 3.30127 3.35377 3.27474 3.31022 3.24378C3.26667 3.21282 3.23521 3.17855 3.21585 3.14096C3.1965 3.10337 3.18682 3.06136 3.18682 3.01493C3.18682 2.83803 3.34167 2.74959 3.65138 2.74959C3.77962 2.74959 3.91391 2.77501 4.05425 2.82587C4.19701 2.87452 4.31557 2.9497 4.40993 3.05141L4.5914 2.41128C4.58414 2.40022 4.57204 2.38585 4.55511 2.36816C4.53817 2.34826 4.49704 2.31509 4.43171 2.26866C4.3688 2.22001 4.29863 2.178 4.2212 2.14262C4.14377 2.10724 4.0361 2.07518 3.89818 2.04643C3.76269 2.01548 3.61751 2 3.46265 2C2.48755 2 2 2.39469 2 3.18408C2 3.33002 2.0242 3.46711 2.07259 3.59536C2.12098 3.72139 2.17663 3.82532 2.23954 3.90713C2.30245 3.98673 2.38351 4.06412 2.48271 4.1393C2.58434 4.21227 2.66539 4.26534 2.72588 4.29851C2.78637 4.32946 2.86017 4.36484 2.94728 4.40464C3.18682 4.51078 3.35498 4.60144 3.45177 4.67662C3.55097 4.7518 3.60057 4.84245 3.60057 4.94859C3.60057 5.04809 3.55702 5.11664 3.46991 5.15423C3.38523 5.19182 3.2461 5.21061 3.05253 5.21061C2.85896 5.21061 2.6787 5.16639 2.51175 5.07794C2.34479 4.98729 2.21172 4.88115 2.11251 4.75954L2.02178 5.56551C2.06775 5.60973 2.12461 5.65395 2.19236 5.69818C2.26253 5.7424 2.35205 5.78883 2.46094 5.83748C2.56982 5.88612 2.70411 5.92482 2.8638 5.95357C3.02591 5.98452 3.20013 6 3.38644 6Z" fill="#676767"/>
<path d="M7.70804 5.93035H9.04367C8.99286 5.8618 8.91301 5.71918 8.80413 5.50249C8.69524 5.28358 8.58999 5.06578 8.48837 4.84909C8.38674 4.63239 8.27786 4.42565 8.16172 4.22886C8.04558 4.03206 7.95242 3.91155 7.88226 3.86733L8.96382 2.04312H7.75523L6.8515 3.90381V2.04312H5.65017V5.93035H6.8515V4.1194C6.94829 4.26755 7.05959 4.48535 7.18541 4.7728C7.31365 5.05804 7.42495 5.31454 7.51931 5.54229C7.6161 5.76783 7.67901 5.89718 7.70804 5.93035Z" fill="#676767"/>
<path d="M11.3777 6C11.6317 6 11.8543 5.97789 12.0455 5.93367C12.239 5.88944 12.3951 5.83085 12.5137 5.75788C12.6346 5.6827 12.7314 5.58983 12.804 5.47927C12.879 5.3665 12.9298 5.25041 12.9564 5.13101C12.9855 5.01161 13 4.87783 13 4.72968V2.04312H11.8531V4.57048C11.8531 4.712 11.841 4.8325 11.8168 4.93201C11.795 5.0293 11.7624 5.10448 11.7188 5.15755C11.6753 5.2084 11.6281 5.24489 11.5773 5.267C11.5265 5.2869 11.4672 5.29685 11.3994 5.29685C11.276 5.29685 11.1817 5.24489 11.1163 5.14096C11.0534 5.03483 11.022 4.84135 11.022 4.56053V2.04312H9.7299V4.70978C9.7299 4.86014 9.74562 4.99724 9.77708 5.12106C9.80853 5.24489 9.86298 5.36318 9.9404 5.47595C10.0203 5.58651 10.1207 5.67938 10.2416 5.75456C10.365 5.82974 10.5223 5.88944 10.7135 5.93367C10.907 5.97789 11.1284 6 11.3777 6Z" fill="#676767"/>
<path fill-rule="evenodd" clip-rule="evenodd" d="M12.124 8L14.7309 8L15.5999 8L15.5999 7.2L15.5999 4.8L14.7309 4.8L14.7309 7.2L12.124 7.2L12.124 8Z" fill="#676767"/>
<path fill-rule="evenodd" clip-rule="evenodd" d="M12.1242 0H9.51733V0.8H12.9932L14.7311 0.8V3.2H15.6001V0.8V0H14.7311H12.9932H12.1242Z" fill="#676767"/>
<path fill-rule="evenodd" clip-rule="evenodd" d="M3.2 0H0.8H0V0.8V3.2H0.8L0.8 0.8H3.2V0Z" fill="#676767"/>
<path d="M0.800049 0.800049H1.60005V1.60005H0.800049V0.800049Z" fill="#676767"/>
<path d="M14 6.3999H14.8V7.1999H14V6.3999Z" fill="#676767"/>
<path d="M14 0.800049H14.8V1.60005H14V0.800049Z" fill="#676767"/>
<path fill-rule="evenodd" clip-rule="evenodd" d="M0 7.20005V4.80005H0.8L0.8 7.20005H2.4H3.2H5.6V8.00005L3.2 8.00005L2.4 8.00005H0.8H0V7.20005Z" fill="#676767"/>
<path d="M0.800049 6.40015H1.60005V7.20015H0.800049V6.40015Z" fill="#676767"/>
</svg>
