<svg width="36" height="52" viewBox="0 0 36 52" fill="none" xmlns="http://www.w3.org/2000/svg">
<path d="M30.4184 5.21749C27.0553 1.85032 22.578 0 17.82 0C7.99501 0 0 7.99094 0 17.8159C0 20.6138 0.630329 23.2937 1.87472 25.7825C2.67991 27.3888 4.46517 30.1256 6.53508 33.2976C7.99501 35.5343 9.59319 37.9905 11.1141 40.4468L11.1344 40.4834L11.3378 40.8209L11.1792 40.5566C11.3134 40.768 11.4435 40.9795 11.5736 41.191H11.5614L11.3378 40.8209L13.4321 44.3182L13.0051 43.6025C13.0092 43.6025 13.0132 43.5984 13.0173 43.5984C13.1596 43.8383 13.2979 44.0783 13.4321 44.3182C14.7741 46.6525 15.9209 48.8688 16.6691 50.772C16.8684 51.2721 17.3645 51.5934 17.9095 51.5487C18.4463 51.5121 18.8977 51.1258 19.0237 50.6012C19.467 48.7102 20.4552 46.5061 21.7158 44.2084C21.8134 44.0254 21.9151 43.8465 22.0168 43.6635H22.0452L21.7158 44.2084L22.0452 43.6635L22.9928 42.0856L24.3835 39.7758L23.5296 41.195H23.4808C23.8061 40.6704 24.1396 40.1458 24.473 39.6253L24.3795 39.7798L24.473 39.6253L24.5096 39.5643C26.1525 37.0105 27.9175 34.5095 29.4546 32.3257C31.4473 29.4953 33.0252 27.2546 33.7571 25.7906C35.0056 23.3018 35.6359 20.6219 35.6359 17.8241C35.64 13.058 33.7856 8.58467 30.4184 5.21749ZM31.553 24.6763C30.9024 25.9777 29.296 28.255 27.4376 30.8942C24.1274 35.5953 19.8005 41.7359 17.6492 46.9331C15.319 42.2442 11.655 36.6241 8.605 31.9475C6.57575 28.8406 4.8271 26.1566 4.08697 24.6763C3.01744 22.5373 2.47251 20.2274 2.47251 17.8159C2.47251 9.35326 9.35733 2.46845 17.82 2.46845C21.9192 2.46845 25.7743 4.06664 28.6739 6.96615C31.5693 9.86566 33.1675 13.7168 33.1675 17.8159C33.1675 20.2274 32.6226 22.5332 31.553 24.6763Z" fill="white"/>
<path d="M17.82 8.18262C12.6066 8.18262 8.36914 12.4201 8.36914 17.6335C8.36914 22.8469 12.6066 27.0884 17.82 27.0884C23.0334 27.0884 27.2749 22.8469 27.2749 17.6335C27.2749 12.4201 23.0334 8.18262 17.82 8.18262ZM17.82 24.6159C13.9689 24.6159 10.8376 21.4846 10.8376 17.6335C10.8376 13.7864 13.9689 10.6511 17.82 10.6511C21.6711 10.6511 24.8024 13.7864 24.8024 17.6335C24.8024 21.4846 21.6711 24.6159 17.82 24.6159Z" fill="white"/>
</svg>
