<svg width="120" height="78" viewBox="0 0 120 78" fill="none" xmlns="http://www.w3.org/2000/svg">
<mask id="path-1-inside-1" fill="white">
<path fill-rule="evenodd" clip-rule="evenodd" d="M0 17.5163C0 19.248 1.40525 20.661 3.13806 20.661V20.6563H9.06285V25.684H3.13806C1.40525 25.684 0 27.0922 0 28.8287V42.9013C0 44.6378 1.40999 46.046 3.13806 46.046H9.06285V51.0706H3.13806C1.40525 51.0706 0 52.4788 0 54.2153V68.2927C0 70.0244 1.40999 71.4374 3.13806 71.4374V71.4326H61.2896C59.6612 70.3099 58.1088 69.0682 56.6513 67.717H27.5589C24.0031 67.717 21.1072 64.8197 21.1072 61.2516C21.1072 57.6883 23.9984 54.7862 27.5589 54.7862H47.2609C46.7007 53.573 46.2022 52.3313 45.7654 51.0706H12.2531V46.046H43.667C43.5579 44.8138 43.5056 43.5721 43.5056 42.3304H27.5542C23.9984 42.3304 21.1024 39.4283 21.1024 35.865C21.1024 32.3016 23.9936 29.3996 27.5542 29.3996H40.3343L45.1767 25.684H12.2531V20.6563H57.9236L60.8101 18.444L62.7375 16.9407H27.5589C24.0031 16.9407 21.1072 14.0433 21.1072 10.4752C21.1072 8.75301 21.7813 7.13071 23.0014 5.90803C24.2215 4.68535 25.8404 4.00979 27.5589 4.00979H68.2541V3.43889C68.2541 1.70716 66.8441 0.294189 65.116 0.294189H3.13806C1.40525 0.294189 0 1.70716 0 3.43889V17.5163ZM4.23473 10.4752C4.23473 6.91186 7.12592 4.00979 10.6865 4.00979C14.2471 4.00979 17.1383 6.9071 17.1383 10.4752C17.1383 14.0433 14.2424 16.9454 10.6865 16.9454C7.13067 16.9454 4.23473 14.0386 4.23473 10.4752ZM77.73 77.3034C79.9471 77.7268 82.2068 77.9409 84.4476 77.9409C87.8136 77.9409 91.1558 77.4604 94.384 76.5232C94.987 76.3472 95.4712 75.9333 95.7418 75.3671C96.0172 74.801 96.0362 74.1682 95.7988 73.5973L95.7751 73.5403C95.438 72.7172 94.6452 72.1891 93.7479 72.1891C93.5343 72.1891 93.3206 72.2177 93.1117 72.2795C90.2775 73.1073 87.3531 73.526 84.4097 73.526C76.1301 73.526 68.3348 70.2814 62.4527 64.3868C58.2654 60.1907 55.379 54.9289 54.0972 49.1724C53.1952 45.1095 53.105 40.9752 53.8361 36.8743L54.4912 33.192L56.8792 37.4166L59.0915 21.8549L46.6389 31.4079L50.5983 31.4222L50.1426 33.1159C48.6614 38.6488 48.5379 44.5386 49.7818 50.1382C51.244 56.7178 54.5434 62.7265 59.3241 67.5173C64.3754 72.5792 70.737 75.9666 77.73 77.3034ZM90.0769 56.3419C90.2952 56.5369 90.5753 56.6463 90.8649 56.6463C91.202 56.6463 91.5106 56.5084 91.729 56.261L92.0945 55.8566C92.3082 55.6235 92.4126 55.3237 92.3984 55.0098C92.3841 54.6958 92.2464 54.4056 92.0138 54.1962L85.0635 47.8783L85.4528 46.9886C85.7044 46.413 85.8326 45.7945 85.8326 45.1617C85.8326 43.4824 84.9164 41.9409 83.4352 41.1417L82.7278 40.7611V24.4334C82.7278 23.6389 82.0774 22.9871 81.2846 22.9871C80.4917 22.9871 79.8413 23.6341 79.8413 24.4334V40.7658L79.134 41.1464C77.6528 41.9457 76.7318 43.4824 76.7318 45.1665C76.7318 47.6832 78.7732 49.7289 81.2846 49.7289C81.5172 49.7289 81.7593 49.7099 81.9919 49.6719L82.6281 49.5719L90.0769 56.3419ZM10.6865 29.3996C7.12592 29.3996 4.23473 32.3016 4.23473 35.865C4.23473 39.4283 7.13067 42.3304 10.6865 42.3304C14.2424 42.3304 17.1383 39.4283 17.1383 35.865C17.1383 32.3016 14.2471 29.3996 10.6865 29.3996ZM10.6865 54.7862C7.12592 54.7862 4.23473 57.6883 4.23473 61.2516C4.23473 64.8197 7.13067 67.717 10.6865 67.717C14.2424 67.717 17.1383 64.815 17.1383 61.2516C17.1383 57.6883 14.2471 54.7862 10.6865 54.7862ZM107.025 65.606L110.116 50.1965L112.124 54.2879C113.714 49.4495 114.37 43.5978 113.553 38.6167C112.599 32.7936 110.011 27.3795 106.071 22.9551C100.17 16.3326 91.7289 12.5362 82.9082 12.5362C80.5582 12.5362 78.2034 12.8073 75.9057 13.3402C75.7395 13.3782 75.5639 13.3973 75.393 13.3973C74.4577 13.3973 73.6222 12.8073 73.3183 11.932L73.2993 11.8796C73.0952 11.2849 73.1474 10.6522 73.4512 10.1003C73.7503 9.55797 74.2441 9.17738 74.847 9.03941C77.4723 8.42569 80.1736 8.11646 82.8654 8.11646C85.7804 8.11646 88.7001 8.47802 91.5438 9.19165C98.4513 10.9281 104.614 14.6628 109.37 20.0054C113.871 25.0579 116.824 31.2426 117.916 37.8983C118.799 43.2695 118.338 51.0338 116.093 56.5382L120 56.7713L107.025 65.606Z"/>
</mask>
<path fill-rule="evenodd" clip-rule="evenodd" d="M0 17.5163C0 19.248 1.40525 20.661 3.13806 20.661V20.6563H9.06285V25.684H3.13806C1.40525 25.684 0 27.0922 0 28.8287V42.9013C0 44.6378 1.40999 46.046 3.13806 46.046H9.06285V51.0706H3.13806C1.40525 51.0706 0 52.4788 0 54.2153V68.2927C0 70.0244 1.40999 71.4374 3.13806 71.4374V71.4326H61.2896C59.6612 70.3099 58.1088 69.0682 56.6513 67.717H27.5589C24.0031 67.717 21.1072 64.8197 21.1072 61.2516C21.1072 57.6883 23.9984 54.7862 27.5589 54.7862H47.2609C46.7007 53.573 46.2022 52.3313 45.7654 51.0706H12.2531V46.046H43.667C43.5579 44.8138 43.5056 43.5721 43.5056 42.3304H27.5542C23.9984 42.3304 21.1024 39.4283 21.1024 35.865C21.1024 32.3016 23.9936 29.3996 27.5542 29.3996H40.3343L45.1767 25.684H12.2531V20.6563H57.9236L60.8101 18.444L62.7375 16.9407H27.5589C24.0031 16.9407 21.1072 14.0433 21.1072 10.4752C21.1072 8.75301 21.7813 7.13071 23.0014 5.90803C24.2215 4.68535 25.8404 4.00979 27.5589 4.00979H68.2541V3.43889C68.2541 1.70716 66.8441 0.294189 65.116 0.294189H3.13806C1.40525 0.294189 0 1.70716 0 3.43889V17.5163ZM4.23473 10.4752C4.23473 6.91186 7.12592 4.00979 10.6865 4.00979C14.2471 4.00979 17.1383 6.9071 17.1383 10.4752C17.1383 14.0433 14.2424 16.9454 10.6865 16.9454C7.13067 16.9454 4.23473 14.0386 4.23473 10.4752ZM77.73 77.3034C79.9471 77.7268 82.2068 77.9409 84.4476 77.9409C87.8136 77.9409 91.1558 77.4604 94.384 76.5232C94.987 76.3472 95.4712 75.9333 95.7418 75.3671C96.0172 74.801 96.0362 74.1682 95.7988 73.5973L95.7751 73.5403C95.438 72.7172 94.6452 72.1891 93.7479 72.1891C93.5343 72.1891 93.3206 72.2177 93.1117 72.2795C90.2775 73.1073 87.3531 73.526 84.4097 73.526C76.1301 73.526 68.3348 70.2814 62.4527 64.3868C58.2654 60.1907 55.379 54.9289 54.0972 49.1724C53.1952 45.1095 53.105 40.9752 53.8361 36.8743L54.4912 33.192L56.8792 37.4166L59.0915 21.8549L46.6389 31.4079L50.5983 31.4222L50.1426 33.1159C48.6614 38.6488 48.5379 44.5386 49.7818 50.1382C51.244 56.7178 54.5434 62.7265 59.3241 67.5173C64.3754 72.5792 70.737 75.9666 77.73 77.3034ZM90.0769 56.3419C90.2952 56.5369 90.5753 56.6463 90.8649 56.6463C91.202 56.6463 91.5106 56.5084 91.729 56.261L92.0945 55.8566C92.3082 55.6235 92.4126 55.3237 92.3984 55.0098C92.3841 54.6958 92.2464 54.4056 92.0138 54.1962L85.0635 47.8783L85.4528 46.9886C85.7044 46.413 85.8326 45.7945 85.8326 45.1617C85.8326 43.4824 84.9164 41.9409 83.4352 41.1417L82.7278 40.7611V24.4334C82.7278 23.6389 82.0774 22.9871 81.2846 22.9871C80.4917 22.9871 79.8413 23.6341 79.8413 24.4334V40.7658L79.134 41.1464C77.6528 41.9457 76.7318 43.4824 76.7318 45.1665C76.7318 47.6832 78.7732 49.7289 81.2846 49.7289C81.5172 49.7289 81.7593 49.7099 81.9919 49.6719L82.6281 49.5719L90.0769 56.3419ZM10.6865 29.3996C7.12592 29.3996 4.23473 32.3016 4.23473 35.865C4.23473 39.4283 7.13067 42.3304 10.6865 42.3304C14.2424 42.3304 17.1383 39.4283 17.1383 35.865C17.1383 32.3016 14.2471 29.3996 10.6865 29.3996ZM10.6865 54.7862C7.12592 54.7862 4.23473 57.6883 4.23473 61.2516C4.23473 64.8197 7.13067 67.717 10.6865 67.717C14.2424 67.717 17.1383 64.815 17.1383 61.2516C17.1383 57.6883 14.2471 54.7862 10.6865 54.7862ZM107.025 65.606L110.116 50.1965L112.124 54.2879C113.714 49.4495 114.37 43.5978 113.553 38.6167C112.599 32.7936 110.011 27.3795 106.071 22.9551C100.17 16.3326 91.7289 12.5362 82.9082 12.5362C80.5582 12.5362 78.2034 12.8073 75.9057 13.3402C75.7395 13.3782 75.5639 13.3973 75.393 13.3973C74.4577 13.3973 73.6222 12.8073 73.3183 11.932L73.2993 11.8796C73.0952 11.2849 73.1474 10.6522 73.4512 10.1003C73.7503 9.55797 74.2441 9.17738 74.847 9.03941C77.4723 8.42569 80.1736 8.11646 82.8654 8.11646C85.7804 8.11646 88.7001 8.47802 91.5438 9.19165C98.4513 10.9281 104.614 14.6628 109.37 20.0054C113.871 25.0579 116.824 31.2426 117.916 37.8983C118.799 43.2695 118.338 51.0338 116.093 56.5382L120 56.7713L107.025 65.606Z" fill="url(#paint0_linear)"/>
<path d="M3.13806 20.661V21.661H4.13806V20.661H3.13806ZM3.13806 20.6563V19.6563H2.13806V20.6563H3.13806ZM9.06285 20.6563H10.0628V19.6563H9.06285V20.6563ZM9.06285 25.684V26.684H10.0628V25.684H9.06285ZM9.06285 46.046H10.0628V45.046H9.06285V46.046ZM9.06285 51.0706V52.0706H10.0628V51.0706H9.06285ZM3.13806 71.4374V72.4374H4.13806V71.4374H3.13806ZM3.13806 71.4326V70.4326H2.13806V71.4326H3.13806ZM61.2896 71.4326V72.4326H64.5015L61.8572 70.6094L61.2896 71.4326ZM56.6513 67.717L57.3312 66.9837L57.0435 66.717H56.6513V67.717ZM47.2609 54.7862V55.7862H48.8241L48.1687 54.367L47.2609 54.7862ZM45.7654 51.0706L46.7103 50.7433L46.4773 50.0706H45.7654V51.0706ZM12.2531 51.0706H11.2531V52.0706H12.2531V51.0706ZM12.2531 46.046V45.046H11.2531V46.046H12.2531ZM43.667 46.046V47.046H44.7596L44.6631 45.9577L43.667 46.046ZM43.5056 42.3304H44.5056V41.3304H43.5056V42.3304ZM40.3343 29.3996V30.3996H40.6738L40.9431 30.1929L40.3343 29.3996ZM45.1767 25.684L45.7855 26.4773L48.1227 24.684H45.1767V25.684ZM12.2531 25.684H11.2531V26.684H12.2531V25.684ZM12.2531 20.6563V19.6563H11.2531V20.6563H12.2531ZM57.9236 20.6563V21.6563H58.2628L58.5319 21.45L57.9236 20.6563ZM60.8101 18.444L61.4184 19.2378L61.4251 19.2325L60.8101 18.444ZM62.7375 16.9407L63.3526 17.7292L65.6456 15.9407H62.7375V16.9407ZM68.2541 4.00979V5.00979H69.2541V4.00979H68.2541ZM77.73 77.3034L77.5422 78.2856L77.5424 78.2857L77.73 77.3034ZM94.384 76.5232L94.6629 77.4836L94.6643 77.4831L94.384 76.5232ZM95.7418 75.3671L94.8425 74.9297L94.8396 74.9359L95.7418 75.3671ZM95.7988 73.5973L94.8754 73.9812L94.8754 73.9813L95.7988 73.5973ZM95.7751 73.5403L94.8496 73.9193L94.8516 73.9241L95.7751 73.5403ZM93.1117 72.2795L93.3921 73.2394L93.3956 73.2384L93.1117 72.2795ZM62.4527 64.3868L61.7448 65.0932L62.4527 64.3868ZM54.0972 49.1724L53.121 49.3891L53.1211 49.3897L54.0972 49.1724ZM53.8361 36.8743L54.8206 37.0498L54.8206 37.0494L53.8361 36.8743ZM54.4912 33.192L55.3618 32.6999L53.9937 30.2796L53.5067 33.0168L54.4912 33.192ZM56.8792 37.4166L56.0086 37.9087L57.4554 40.4683L57.8692 37.5574L56.8792 37.4166ZM59.0915 21.8549L60.0815 21.9956L60.4263 19.5705L58.4828 21.0615L59.0915 21.8549ZM46.6389 31.4079L46.0303 30.6145L43.7063 32.3974L46.6353 32.4079L46.6389 31.4079ZM50.5983 31.4222L51.564 31.682L51.9017 30.4269L50.6019 30.4222L50.5983 31.4222ZM50.1426 33.1159L49.1769 32.856L49.1766 32.8573L50.1426 33.1159ZM49.7818 50.1382L48.8055 50.355L48.8056 50.3551L49.7818 50.1382ZM59.3241 67.5173L58.6163 68.2236H58.6163L59.3241 67.5173ZM90.0769 56.3419L89.4042 57.0819L89.4107 57.0877L90.0769 56.3419ZM91.729 56.261L90.9871 55.5903L90.9793 55.5992L91.729 56.261ZM92.0945 55.8566L91.3573 55.1809L91.3527 55.186L92.0945 55.8566ZM92.0138 54.1962L91.3412 54.9362L91.3449 54.9396L92.0138 54.1962ZM85.0635 47.8783L84.1474 47.4774L83.8596 48.1352L84.3909 48.6182L85.0635 47.8783ZM85.4528 46.9886L86.369 47.3895L86.3691 47.3891L85.4528 46.9886ZM83.4352 41.1417L83.91 40.2616L83.909 40.261L83.4352 41.1417ZM82.7278 40.7611H81.7278V41.3586L82.254 41.6417L82.7278 40.7611ZM79.8413 40.7658L80.3152 41.6465L80.8413 41.3633V40.7658H79.8413ZM79.134 41.1464L78.6601 40.2658L78.6591 40.2664L79.134 41.1464ZM81.9919 49.6719L81.8368 48.6839L81.8305 48.685L81.9919 49.6719ZM82.6281 49.5719L83.3007 48.8319L82.9462 48.5097L82.4729 48.5841L82.6281 49.5719ZM110.116 50.1965L111.014 49.7558L109.715 47.1101L109.135 49.9998L110.116 50.1965ZM107.025 65.606L106.045 65.4093L105.563 67.8114L107.588 66.4325L107.025 65.606ZM112.124 54.2879L111.226 54.7285L112.308 56.9316L113.074 54.6002L112.124 54.2879ZM113.553 38.6167L112.566 38.7784L112.566 38.7785L113.553 38.6167ZM106.071 22.9551L106.818 22.29L106.818 22.2898L106.071 22.9551ZM75.9057 13.3402L76.129 14.3149L76.1316 14.3143L75.9057 13.3402ZM73.3183 11.932L74.2631 11.604L74.2583 11.5907L73.3183 11.932ZM73.2993 11.8796L72.3535 12.2043L72.3563 12.2126L72.3593 12.2208L73.2993 11.8796ZM73.4512 10.1003L72.5756 9.61743L72.5752 9.61803L73.4512 10.1003ZM74.847 9.03941L75.0701 10.0142L75.0746 10.0132L74.847 9.03941ZM91.5438 9.19165L91.7876 8.22182L91.7872 8.22172L91.5438 9.19165ZM109.37 20.0054L108.624 20.6704L108.624 20.6706L109.37 20.0054ZM117.916 37.8983L116.929 38.0602L116.929 38.0606L117.916 37.8983ZM116.093 56.5382L115.167 56.1605L114.64 57.4533L116.033 57.5364L116.093 56.5382ZM120 56.7713L120.563 57.5979L122.986 55.9477L120.06 55.7731L120 56.7713ZM3.13806 19.661C1.9605 19.661 1 18.6987 1 17.5163H-1C-1 19.7973 0.849986 21.661 3.13806 21.661V19.661ZM2.13806 20.6563V20.661H4.13806V20.6563H2.13806ZM9.06285 19.6563H3.13806V21.6563H9.06285V19.6563ZM10.0628 25.684V20.6563H8.06285V25.684H10.0628ZM3.13806 26.684H9.06285V24.684H3.13806V26.684ZM1 28.8287C1 27.6425 1.95952 26.684 3.13806 26.684V24.684C0.85097 24.684 -1 26.5419 -1 28.8287H1ZM1 42.9013V28.8287H-1V42.9013H1ZM3.13806 45.046C1.96328 45.046 1 44.0865 1 42.9013H-1C-1 45.1891 0.856702 47.046 3.13806 47.046V45.046ZM9.06285 45.046H3.13806V47.046H9.06285V45.046ZM10.0628 51.0706V46.046H8.06285V51.0706H10.0628ZM3.13806 52.0706H9.06285V50.0706H3.13806V52.0706ZM1 54.2153C1 53.0291 1.95952 52.0706 3.13806 52.0706V50.0706C0.850972 50.0706 -1 51.9285 -1 54.2153H1ZM1 68.2927V54.2153H-1V68.2927H1ZM3.13806 70.4374C1.96427 70.4374 1 69.4741 1 68.2927H-1C-1 70.5747 0.855718 72.4374 3.13806 72.4374V70.4374ZM2.13806 71.4326V71.4374H4.13806V71.4326H2.13806ZM61.2896 70.4326H3.13806V72.4326H61.2896V70.4326ZM55.9715 68.4504C57.4645 69.8345 59.0545 71.1062 60.7219 72.2559L61.8572 70.6094C60.2679 69.5135 58.7531 68.3018 57.3312 66.9837L55.9715 68.4504ZM27.5589 68.717H56.6513V66.717H27.5589V68.717ZM20.1072 61.2516C20.1072 65.3705 23.4493 68.717 27.5589 68.717V66.717C24.5569 66.717 22.1072 64.269 22.1072 61.2516H20.1072ZM27.5589 53.7862C23.4436 53.7862 20.1072 57.1385 20.1072 61.2516H22.1072C22.1072 58.2381 24.5531 55.7862 27.5589 55.7862V53.7862ZM47.2609 53.7862H27.5589V55.7862H47.2609V53.7862ZM44.8205 51.3979C45.2678 52.6891 45.7786 53.9615 46.353 55.2054L48.1687 54.367C47.6228 53.1846 47.1366 51.9736 46.7103 50.7433L44.8205 51.3979ZM12.2531 52.0706H45.7654V50.0706H12.2531V52.0706ZM11.2531 46.046V51.0706H13.2531V46.046H11.2531ZM43.667 45.046H12.2531V47.046H43.667V45.046ZM42.5056 42.3304C42.5056 43.6001 42.559 44.8713 42.671 46.1343L44.6631 45.9577C44.5567 44.7564 44.5056 43.5442 44.5056 42.3304H42.5056ZM27.5542 43.3304H43.5056V41.3304H27.5542V43.3304ZM20.1024 35.865C20.1024 39.9786 23.4441 43.3304 27.5542 43.3304V41.3304C24.5526 41.3304 22.1024 38.878 22.1024 35.865H20.1024ZM27.5542 28.3996C23.4389 28.3996 20.1024 31.7518 20.1024 35.865H22.1024C22.1024 32.8514 24.5484 30.3996 27.5542 30.3996V28.3996ZM40.3343 28.3996H27.5542V30.3996H40.3343V28.3996ZM44.568 24.8906L39.7256 28.6062L40.9431 30.1929L45.7855 26.4773L44.568 24.8906ZM12.2531 26.684H45.1767V24.684H12.2531V26.684ZM11.2531 20.6563V25.684H13.2531V20.6563H11.2531ZM57.9236 19.6563H12.2531V21.6563H57.9236V19.6563ZM60.2018 17.6503L57.3153 19.8626L58.5319 21.45L61.4184 19.2377L60.2018 17.6503ZM62.1225 16.1521L60.1951 17.6555L61.4251 19.2325L63.3526 17.7292L62.1225 16.1521ZM27.5589 17.9407H62.7375V15.9407H27.5589V17.9407ZM20.1072 10.4752C20.1072 14.5941 23.4493 17.9407 27.5589 17.9407V15.9407C24.5569 15.9407 22.1072 13.4926 22.1072 10.4752H20.1072ZM22.2935 5.20167C20.8876 6.61063 20.1072 8.48648 20.1072 10.4752H22.1072C22.1072 9.01954 22.675 7.65078 23.7092 6.61439L22.2935 5.20167ZM27.5589 3.00979C25.5725 3.00979 23.6996 3.79264 22.2935 5.20167L23.7092 6.61439C24.7434 5.57807 26.1083 5.00979 27.5589 5.00979V3.00979ZM68.2541 3.00979H27.5589V5.00979H68.2541V3.00979ZM67.2541 3.43889V4.00979H69.2541V3.43889H67.2541ZM65.116 1.29419C66.2898 1.29419 67.2541 2.25745 67.2541 3.43889H69.2541C69.2541 1.15687 67.3984 -0.705811 65.116 -0.705811V1.29419ZM3.13806 1.29419H65.116V-0.705811H3.13806V1.29419ZM1 3.43889C1 2.25647 1.9605 1.29419 3.13806 1.29419V-0.705811C0.849986 -0.705811 -1 1.15786 -1 3.43889H1ZM1 17.5163V3.43889H-1V17.5163H1ZM10.6865 3.00979C6.57117 3.00979 3.23473 6.36205 3.23473 10.4752H5.23473C5.23473 7.46167 7.68068 5.00979 10.6865 5.00979V3.00979ZM18.1383 10.4752C18.1383 6.35681 14.8014 3.00979 10.6865 3.00979V5.00979C13.6928 5.00979 16.1383 7.45739 16.1383 10.4752H18.1383ZM10.6865 17.9454C14.7971 17.9454 18.1383 14.5932 18.1383 10.4752H16.1383C16.1383 13.4935 13.6876 15.9454 10.6865 15.9454V17.9454ZM3.23473 10.4752C3.23473 14.5879 6.57544 17.9454 10.6865 17.9454V15.9454C7.6859 15.9454 5.23473 13.4893 5.23473 10.4752H3.23473ZM84.4476 76.9409C82.2701 76.9409 80.0731 76.7328 77.9176 76.3212L77.5424 78.2857C79.821 78.7208 82.1436 78.9409 84.4476 78.9409V76.9409ZM94.1052 75.5629C90.9666 76.474 87.7183 76.9409 84.4476 76.9409V78.9409C87.9089 78.9409 91.3449 78.4468 94.6629 77.4836L94.1052 75.5629ZM94.8396 74.9359C94.6908 75.2471 94.4318 75.4675 94.1038 75.5633L94.6643 77.4831C95.5422 77.2268 96.2516 76.6194 96.6441 75.7984L94.8396 74.9359ZM94.8754 73.9813C95.0015 74.2845 94.994 74.6183 94.8425 74.9298L96.6411 75.8045C97.0403 74.9837 97.0708 74.052 96.7221 73.2134L94.8754 73.9813ZM94.8516 73.9241L94.8754 73.9812L96.7222 73.2135L96.6985 73.1564L94.8516 73.9241ZM93.7479 73.1891C94.2445 73.1891 94.6684 73.4766 94.8497 73.9192L96.7005 73.1613C96.2076 71.9578 95.0459 71.1891 93.7479 71.1891V73.1891ZM93.3956 73.2384C93.5062 73.2056 93.6237 73.1891 93.7479 73.1891V71.1891C93.4448 71.1891 93.1351 71.2297 92.8278 71.3207L93.3956 73.2384ZM84.4097 74.526C87.4482 74.526 90.467 74.0938 93.3921 73.2394L92.8314 71.3196C90.088 72.1209 87.258 72.526 84.4097 72.526V74.526ZM61.7448 65.0932C67.8133 71.1745 75.8628 74.526 84.4097 74.526V72.526C76.3974 72.526 68.8563 69.3882 63.1605 63.6805L61.7448 65.0932ZM53.1211 49.3897C54.4442 55.3319 57.424 60.7632 61.7448 65.0932L63.1605 63.6805C59.1069 59.6183 56.3137 54.5259 55.0733 48.955L53.1211 49.3897ZM52.8516 36.6988C52.0972 40.9302 52.1904 45.1978 53.121 49.3891L55.0734 48.9557C54.1999 45.0212 54.1127 41.0203 54.8206 37.0498L52.8516 36.6988ZM53.5067 33.0168L52.8515 36.6991L54.8206 37.0494L55.4758 33.3671L53.5067 33.0168ZM57.7497 36.9245L55.3618 32.6999L53.6207 33.6841L56.0086 37.9087L57.7497 36.9245ZM58.1015 21.7141L55.8891 37.2759L57.8692 37.5574L60.0815 21.9956L58.1015 21.7141ZM47.2476 32.2013L59.7002 22.6483L58.4828 21.0615L46.0303 30.6145L47.2476 32.2013ZM50.6019 30.4222L46.6425 30.4079L46.6353 32.4079L50.5947 32.4222L50.6019 30.4222ZM51.1082 33.3757L51.564 31.682L49.6327 31.1623L49.1769 32.856L51.1082 33.3757ZM50.758 49.9213C49.5489 44.4783 49.6691 38.7516 51.1085 33.3745L49.1766 32.8573C47.6537 38.5461 47.527 44.5989 48.8055 50.355L50.758 49.9213ZM60.032 66.8109C55.3848 62.1539 52.1788 56.3147 50.7579 49.9212L48.8056 50.3551C50.3092 57.1209 53.7021 63.2991 58.6163 68.2236L60.032 66.8109ZM77.9178 76.3212C71.1235 75.0223 64.9427 71.732 60.032 66.8109L58.6163 68.2236C63.8082 73.4265 70.3505 76.9108 77.5422 78.2856L77.9178 76.3212ZM90.8649 55.6463C90.8284 55.6463 90.7836 55.6323 90.743 55.596L89.4107 57.0877C89.8068 57.4415 90.3223 57.6463 90.8649 57.6463V55.6463ZM90.9793 55.5992C90.9546 55.6271 90.9211 55.6463 90.8649 55.6463V57.6463C91.4829 57.6463 92.0665 57.3896 92.4786 56.9228L90.9793 55.5992ZM91.3527 55.186L90.9871 55.5904L92.4708 56.9316L92.8363 56.5272L91.3527 55.186ZM91.3994 55.0551C91.402 55.1124 91.3854 55.1503 91.3573 55.181L92.8317 56.5322C93.2309 56.0966 93.4232 55.5351 93.3973 54.9644L91.3994 55.0551ZM91.3449 54.9396C91.3787 54.97 91.3973 55.0089 91.3994 55.0551L93.3973 54.9644C93.3709 54.3826 93.1141 53.8411 92.6827 53.4529L91.3449 54.9396ZM84.3909 48.6182L91.3412 54.9362L92.6865 53.4563L85.7362 47.1383L84.3909 48.6182ZM84.5367 46.5877L84.1474 47.4774L85.9797 48.2792L86.369 47.3895L84.5367 46.5877ZM84.8326 45.1617C84.8326 45.6583 84.7323 46.1403 84.5365 46.5881L86.3691 47.3891C86.6766 46.6857 86.8326 45.9307 86.8326 45.1617H84.8326ZM82.9603 42.0217C84.1171 42.646 84.8326 43.8489 84.8326 45.1617H86.8326C86.8326 43.1158 85.7156 41.2359 83.91 40.2616L82.9603 42.0217ZM82.254 41.6417L82.9613 42.0223L83.909 40.261L83.2016 39.8804L82.254 41.6417ZM81.7278 24.4334V40.7611H83.7278V24.4334H81.7278ZM81.2846 23.9871C81.5231 23.9871 81.7278 24.1891 81.7278 24.4334H83.7278C83.7278 23.0886 82.6317 21.9871 81.2846 21.9871V23.9871ZM80.8413 24.4334C80.8413 24.1865 81.0439 23.9871 81.2846 23.9871V21.9871C79.9396 21.9871 78.8413 23.0817 78.8413 24.4334H80.8413ZM80.8413 40.7658V24.4334H78.8413V40.7658H80.8413ZM79.6078 42.0271L80.3152 41.6465L79.3675 39.8852L78.6601 40.2658L79.6078 42.0271ZM77.7318 45.1665C77.7318 43.8515 78.4498 42.6519 79.6088 42.0265L78.6591 40.2664C76.8558 41.2394 75.7318 43.1132 75.7318 45.1665H77.7318ZM81.2846 48.7289C79.3274 48.7289 77.7318 47.1329 77.7318 45.1665H75.7318C75.7318 48.2335 78.2189 50.7289 81.2846 50.7289V48.7289ZM81.8305 48.685C81.6526 48.7141 81.4646 48.7289 81.2846 48.7289V50.7289C81.5698 50.7289 81.866 50.7058 82.1534 50.6587L81.8305 48.685ZM82.4729 48.5841L81.8368 48.684L82.1471 50.6597L82.7832 50.5598L82.4729 48.5841ZM90.7494 55.6018L83.3007 48.8319L81.9555 50.312L89.4043 57.0819L90.7494 55.6018ZM5.23473 35.865C5.23473 32.8514 7.68068 30.3996 10.6865 30.3996V28.3996C6.57117 28.3996 3.23473 31.7518 3.23473 35.865H5.23473ZM10.6865 41.3304C7.68495 41.3304 5.23473 38.878 5.23473 35.865H3.23473C3.23473 39.9786 6.5764 43.3304 10.6865 43.3304V41.3304ZM16.1383 35.865C16.1383 38.878 13.6881 41.3304 10.6865 41.3304V43.3304C14.7966 43.3304 18.1383 39.9786 18.1383 35.865H16.1383ZM10.6865 30.3996C13.6923 30.3996 16.1383 32.8514 16.1383 35.865H18.1383C18.1383 31.7518 14.8019 28.3996 10.6865 28.3996V30.3996ZM5.23473 61.2516C5.23473 58.2381 7.68068 55.7862 10.6865 55.7862V53.7862C6.57117 53.7862 3.23473 57.1385 3.23473 61.2516H5.23473ZM10.6865 66.717C7.68447 66.717 5.23473 64.269 5.23473 61.2516H3.23473C3.23473 65.3705 6.57687 68.717 10.6865 68.717V66.717ZM16.1383 61.2516C16.1383 64.2647 13.6881 66.717 10.6865 66.717V68.717C14.7966 68.717 18.1383 65.3653 18.1383 61.2516H16.1383ZM10.6865 55.7862C13.6923 55.7862 16.1383 58.2381 16.1383 61.2516H18.1383C18.1383 57.1385 14.8019 53.7862 10.6865 53.7862V55.7862ZM109.135 49.9998L106.045 65.4093L108.006 65.8026L111.096 50.3931L109.135 49.9998ZM113.022 53.8473L111.014 49.7558L109.218 50.6371L111.226 54.7285L113.022 53.8473ZM112.566 38.7785C113.353 43.5762 112.723 49.2643 111.174 53.9756L113.074 54.6002C114.706 49.6348 115.386 43.6194 114.54 38.4549L112.566 38.7785ZM105.324 23.6201C109.139 27.9037 111.643 33.1434 112.566 38.7784L114.54 38.455C113.555 32.4437 110.884 26.8554 106.818 22.29L105.324 23.6201ZM82.9082 13.5362C91.4419 13.5362 99.6119 17.2095 105.324 23.6203L106.818 22.2898C100.728 15.4558 92.0159 11.5362 82.9082 11.5362V13.5362ZM76.1316 14.3143C78.3559 13.7985 80.6348 13.5362 82.9082 13.5362V11.5362C80.4815 11.5362 78.051 11.8162 75.6798 12.366L76.1316 14.3143ZM75.393 14.3973C75.6357 14.3973 75.8864 14.3705 76.129 14.3149L75.6824 12.3654C75.5927 12.386 75.4921 12.3973 75.393 12.3973V14.3973ZM72.3736 12.2599C72.8189 13.5429 74.0375 14.3973 75.393 14.3973V12.3973C74.8779 12.3973 74.4254 12.0717 74.263 11.6041L72.3736 12.2599ZM72.3593 12.2208L72.3783 12.2732L74.2583 11.5907L74.2393 11.5384L72.3593 12.2208ZM72.5752 9.61803C72.134 10.4194 72.0587 11.3454 72.3535 12.2043L74.2451 11.555C74.1317 11.2245 74.1608 10.885 74.3273 10.5826L72.5752 9.61803ZM74.6239 8.0646C73.7351 8.26799 73.0081 8.83314 72.5756 9.61743L74.3269 10.5832C74.4926 10.2828 74.753 10.0868 75.0701 10.0142L74.6239 8.0646ZM82.8654 7.11646C80.0975 7.11646 77.3198 7.43439 74.6194 8.06566L75.0746 10.0132C77.6249 9.417 80.2498 9.11646 82.8654 9.11646V7.11646ZM91.7872 8.22172C88.8643 7.48823 85.8629 7.11646 82.8654 7.11646V9.11646C85.6979 9.11646 88.5358 9.46782 91.3004 10.1616L91.7872 8.22172ZM110.117 19.3404C105.227 13.8484 98.8901 10.0073 91.7876 8.22182L91.3 10.1615C98.0126 11.849 104 15.4771 108.624 20.6704L110.117 19.3404ZM118.903 37.7365C117.78 30.8931 114.744 24.5339 110.117 19.3403L108.624 20.6706C112.999 25.5818 115.868 31.5921 116.929 38.0602L118.903 37.7365ZM117.019 56.9159C119.347 51.2089 119.81 43.2524 118.903 37.7361L116.929 38.0606C117.788 43.2867 117.33 50.8587 115.167 56.1605L117.019 56.9159ZM120.06 55.7731L116.152 55.54L116.033 57.5364L119.94 57.7695L120.06 55.7731ZM107.588 66.4325L120.563 57.5979L119.437 55.9447L106.462 64.7794L107.588 66.4325Z" fill="url(#paint1_linear)" mask="url(#path-1-inside-1)"/>
<defs>
<linearGradient id="paint0_linear" x1="213.75" y1="178.327" x2="82.3701" y2="238.138" gradientUnits="userSpaceOnUse">
<stop stop-color="#33B2FA"/>
<stop offset="0.940675" stop-color="#3B76EF"/>
</linearGradient>
<linearGradient id="paint1_linear" x1="213.75" y1="178.327" x2="82.3701" y2="238.138" gradientUnits="userSpaceOnUse">
<stop stop-color="#33B2FA"/>
<stop offset="0.940675" stop-color="#3B76EF"/>
</linearGradient>
</defs>
</svg>
