<svg width="147" height="122" viewBox="0 0 147 122" fill="none" xmlns="http://www.w3.org/2000/svg">
<path d="M8.16878 40.8158C11.3064 35.5003 24.8756 33.8903 45.95 34.3405C47.066 34.6251 52.2727 34.8475 53.3939 34.7627C56.0891 34.5589 69.168 30.8118 79.4226 15.3088C82.8855 11.4512 87.1515 8.56813 91.7846 6.73074C102.742 2.3867 121.364 5.92413 134.136 34.0221C137.318 41.0086 138.325 48.9152 137.101 56.4611C134.38 73.2192 126.813 103.483 107.303 107.049C107.303 107.049 69.4477 113.229 43.2414 102.986C37.0622 100.568 23.213 97.2121 18.4009 87.4482C11.2754 75.8232 0.305006 54.1507 8.16878 40.8158Z" fill="#F0F8FF"/>
</svg>
