<svg width="169" height="157" viewBox="0 0 169 157" fill="none" xmlns="http://www.w3.org/2000/svg">
<path d="M14.9578 96.1361C10.308 84.8908 8.18917 55.3584 45.9745 50.3162C49.5027 49.8436 52.8429 48.6715 55.8383 46.8552C66.4528 40.3913 82.4331 34.9429 90.5631 23.8169C96.6241 15.5224 107.175 11.8481 117.47 14.7926C129.026 18.097 135.456 28.3564 141.171 53.8621C142.681 60.6227 140.383 70.4055 138.915 73.306C124.404 101.984 118.694 112.452 109.644 120.068C100.338 127.909 85.4083 134.172 39.9862 116.704C32.0314 113.639 18.8407 105.459 15.4204 97.3274C15.1188 96.5795 14.9578 96.1361 14.9578 96.1361Z" fill="#F0F8FF"/>
</svg>
