<svg width="508" height="182" viewBox="0 0 508 182" fill="none" xmlns="http://www.w3.org/2000/svg">
<g filter="url(#filter0_d)">
<rect width="508.5" height="182" rx="4" fill="url(#paint0_linear)"/>
</g>
<mask id="mask0" mask-type="alpha" maskUnits="userSpaceOnUse" x="0" y="0" width="509" height="182">
<rect width="508.5" height="182" rx="4" fill="url(#paint1_linear)"/>
</mask>
<g mask="url(#mask0)">
<g opacity="0.46">
<path opacity="0.46" d="M43.1799 -44H32.8799L68.9799 11.75L43.1799 -44Z" fill="#FFF7A9"/>
<path opacity="0.46" d="M-33 -29.89V-14.69C-6.36 3.30999 42 36.05 43.79 36.94C45.58 37.83 -5.68 -6.38001 -33 -29.89Z" fill="#FFF7A9"/>
<path opacity="0.46" d="M-33 94.44V102.68L32.53 112.77L-33 94.44Z" fill="#FFF7A9"/>
<path opacity="0.46" d="M-61 23V54.86L79.68 102.31L-61 23Z" fill="#FFF7A9"/>
<path opacity="0.46" d="M119.38 -44H109.19L143.93 13.59L119.38 -44Z" fill="#FFF7A9"/>
<path opacity="0.46" d="M398.64 -44H387.96L361.42 27.11L398.64 -44Z" fill="#FFF7A9"/>
<path opacity="0.46" d="M546.18 125.76V107L425 125.23L546.18 125.76Z" fill="#FFF7A9"/>
<path opacity="0.46" d="M512.7 -30.75V-40.46C512.7 -40.9249 512.608 -41.3852 512.431 -41.8147C512.253 -42.2442 511.992 -42.6344 511.663 -42.9632C511.334 -43.2919 510.944 -43.5526 510.515 -43.7305C510.085 -43.9084 509.625 -44 509.16 -44H493.27L394 84.24L512.7 -30.75Z" fill="#FFF7A9"/>
<path opacity="0.46" d="M228.03 -44H219.08L235.47 11.13L228.03 -44Z" fill="#FFF7A9"/>
<path opacity="0.46" d="M292.99 -44H283.96L280.94 1.3L292.99 -44Z" fill="#FFF7A9"/>
<path opacity="0.46" d="M178.85 -44H171.4L184.48 0.0699997L178.85 -44Z" fill="#FFF7A9"/>
<path opacity="0.46" d="M433.92 175.78L512.7 220V210.29L433.92 175.78Z" fill="#FFF7A9"/>
</g>
<g opacity="0.46">
<path opacity="0.46" d="M-33 127.85V136.32L15.53 119.99L-33 127.85Z" fill="#FFF7A9"/>
<path opacity="0.46" d="M318.66 203.8H326.41L319.64 152.56L318.66 203.8Z" fill="#FFF7A9"/>
<path opacity="0.46" d="M409.19 203.8H424.15L393.98 155.63L409.19 203.8Z" fill="#FFF7A9"/>
<path opacity="0.46" d="M3 198.55H43.84L96.16 143L3 198.55Z" fill="#FFF7A9"/>
</g>
</g>
<path d="M249.846 102.156H243.852L242.628 105H239.802L245.688 92.184H247.956L253.842 105H251.07L249.846 102.156ZM248.928 100.014L246.858 95.208L244.788 100.014H248.928ZM245.976 91.086L247.83 88.26H250.35L247.65 91.086H245.976ZM260.336 95.64C261.116 95.64 261.812 95.844 262.424 96.252C263.036 96.648 263.51 97.212 263.846 97.944C264.194 98.676 264.368 99.51 264.368 100.446C264.368 101.382 264.2 102.21 263.864 102.93C263.528 103.638 263.054 104.184 262.442 104.568C261.83 104.952 261.128 105.144 260.336 105.144C259.7 105.144 259.13 105.012 258.626 104.748C258.122 104.484 257.738 104.118 257.474 103.65V108.888H254.756V98.484C254.756 97.512 254.708 96.642 254.612 95.874H257.168L257.348 97.386C257.588 96.846 257.972 96.42 258.5 96.108C259.04 95.796 259.652 95.64 260.336 95.64ZM259.562 103.074C260.234 103.074 260.75 102.852 261.11 102.408C261.47 101.952 261.65 101.298 261.65 100.446C261.65 99.594 261.464 98.928 261.092 98.448C260.732 97.968 260.222 97.728 259.562 97.728C258.89 97.728 258.368 97.962 257.996 98.43C257.636 98.886 257.456 99.546 257.456 100.41C257.456 101.274 257.636 101.934 257.996 102.39C258.368 102.846 258.89 103.074 259.562 103.074ZM280.318 91.752V105H277.636V103.65C277.36 104.118 276.97 104.484 276.466 104.748C275.962 105.012 275.392 105.144 274.756 105.144C273.976 105.144 273.28 104.946 272.668 104.55C272.056 104.142 271.576 103.578 271.228 102.858C270.892 102.126 270.724 101.292 270.724 100.356C270.724 99.42 270.892 98.598 271.228 97.89C271.576 97.17 272.05 96.618 272.65 96.234C273.262 95.838 273.964 95.64 274.756 95.64C275.368 95.64 275.926 95.772 276.43 96.036C276.934 96.288 277.324 96.642 277.6 97.098V91.752H280.318ZM275.548 103.074C276.22 103.074 276.736 102.846 277.096 102.39C277.456 101.922 277.636 101.256 277.636 100.392C277.636 99.54 277.45 98.886 277.078 98.43C276.718 97.962 276.208 97.728 275.548 97.728C274.876 97.728 274.354 97.956 273.982 98.412C273.61 98.868 273.424 99.516 273.424 100.356C273.424 101.22 273.61 101.892 273.982 102.372C274.354 102.84 274.876 103.074 275.548 103.074ZM291.224 95.874V105H288.578V103.668C288.29 104.148 287.912 104.514 287.444 104.766C286.976 105.018 286.448 105.144 285.86 105.144C284.72 105.144 283.868 104.826 283.304 104.19C282.74 103.554 282.458 102.594 282.458 101.31V95.874H285.176V101.364C285.176 102.468 285.65 103.02 286.598 103.02C287.162 103.02 287.618 102.828 287.966 102.444C288.314 102.06 288.488 101.556 288.488 100.932V95.874H291.224ZM288.11 106.224V108.618H285.608V106.224H288.11ZM299.062 95.64C301.222 95.64 302.302 96.918 302.302 99.474V105H299.584V99.6C299.584 98.964 299.464 98.502 299.224 98.214C298.996 97.914 298.63 97.764 298.126 97.764C297.526 97.764 297.046 97.956 296.686 98.34C296.326 98.724 296.146 99.24 296.146 99.888V105H293.428V98.484C293.428 97.512 293.38 96.642 293.284 95.874H295.84L296.02 97.314C296.344 96.774 296.764 96.36 297.28 96.072C297.808 95.784 298.402 95.64 299.062 95.64ZM313.701 95.874V104.586C313.701 106.038 313.281 107.142 312.441 107.898C311.601 108.654 310.377 109.032 308.769 109.032C307.317 109.032 306.057 108.75 304.989 108.186L305.403 106.17C306.507 106.722 307.599 106.998 308.679 106.998C309.459 106.998 310.041 106.812 310.425 106.44C310.809 106.08 311.001 105.528 311.001 104.784V103.2C310.713 103.644 310.311 104.016 309.795 104.316C309.279 104.604 308.709 104.748 308.085 104.748C307.293 104.748 306.591 104.562 305.979 104.19C305.367 103.806 304.887 103.272 304.539 102.588C304.191 101.892 304.017 101.094 304.017 100.194C304.017 99.294 304.191 98.502 304.539 97.818C304.887 97.122 305.367 96.588 305.979 96.216C306.591 95.832 307.293 95.64 308.085 95.64C308.721 95.64 309.297 95.778 309.813 96.054C310.329 96.33 310.725 96.702 311.001 97.17V95.874H313.701ZM308.877 102.678C309.537 102.678 310.053 102.462 310.425 102.03C310.809 101.586 311.001 100.974 311.001 100.194C311.001 99.426 310.815 98.826 310.443 98.394C310.071 97.95 309.549 97.728 308.877 97.728C308.205 97.728 307.677 97.95 307.293 98.394C306.909 98.826 306.717 99.426 306.717 100.194C306.717 100.962 306.909 101.568 307.293 102.012C307.677 102.456 308.205 102.678 308.877 102.678ZM325.258 105.144C323.77 105.144 322.6 104.724 321.748 103.884C320.908 103.044 320.488 101.898 320.488 100.446C320.488 99.498 320.692 98.664 321.1 97.944C321.508 97.212 322.078 96.648 322.81 96.252C323.554 95.844 324.412 95.64 325.384 95.64C326.044 95.64 326.686 95.742 327.31 95.946C327.934 96.15 328.432 96.426 328.804 96.774L328.084 98.664C327.724 98.376 327.328 98.154 326.896 97.998C326.464 97.83 326.044 97.746 325.636 97.746C324.892 97.746 324.31 97.974 323.89 98.43C323.482 98.874 323.278 99.528 323.278 100.392C323.278 101.268 323.482 101.934 323.89 102.39C324.298 102.834 324.88 103.056 325.636 103.056C326.044 103.056 326.464 102.978 326.896 102.822C327.328 102.654 327.724 102.426 328.084 102.138L328.804 104.028C328.408 104.376 327.892 104.652 327.256 104.856C326.62 105.048 325.954 105.144 325.258 105.144ZM335.73 95.64C337.89 95.64 338.97 96.918 338.97 99.474V105H336.252V99.6C336.252 98.964 336.132 98.502 335.892 98.214C335.664 97.914 335.298 97.764 334.794 97.764C334.194 97.764 333.714 97.956 333.354 98.34C332.994 98.724 332.814 99.24 332.814 99.888V105H330.096V91.752H332.814V97.116C333.138 96.636 333.552 96.27 334.056 96.018C334.56 95.766 335.118 95.64 335.73 95.64ZM345.491 105.144C344.519 105.144 343.667 104.952 342.935 104.568C342.215 104.184 341.657 103.632 341.261 102.912C340.877 102.192 340.685 101.352 340.685 100.392C340.685 99.432 340.877 98.592 341.261 97.872C341.657 97.152 342.215 96.6 342.935 96.216C343.667 95.832 344.519 95.64 345.491 95.64C346.451 95.64 347.291 95.832 348.011 96.216C348.731 96.6 349.283 97.152 349.667 97.872C350.063 98.592 350.261 99.432 350.261 100.392C350.261 101.352 350.063 102.192 349.667 102.912C349.283 103.632 348.731 104.184 348.011 104.568C347.291 104.952 346.451 105.144 345.491 105.144ZM345.491 103.074C346.163 103.074 346.673 102.852 347.021 102.408C347.381 101.964 347.561 101.292 347.561 100.392C347.561 99.504 347.381 98.838 347.021 98.394C346.673 97.938 346.163 97.71 345.491 97.71C344.807 97.71 344.285 97.938 343.925 98.394C343.565 98.838 343.385 99.504 343.385 100.392C343.385 102.18 344.087 103.074 345.491 103.074ZM368.221 95.64C369.265 95.64 370.039 95.958 370.543 96.594C371.059 97.218 371.317 98.178 371.317 99.474V105H368.599V99.564C368.599 98.928 368.497 98.472 368.293 98.196C368.089 97.908 367.753 97.764 367.285 97.764C366.733 97.764 366.307 97.956 366.007 98.34C365.707 98.724 365.557 99.264 365.557 99.96V105H362.839V99.564C362.839 98.94 362.731 98.484 362.515 98.196C362.311 97.908 361.981 97.764 361.525 97.764C360.973 97.764 360.541 97.956 360.229 98.34C359.929 98.724 359.779 99.264 359.779 99.96V105H357.061V98.484C357.061 97.512 357.013 96.642 356.917 95.874H359.473L359.635 97.242C359.911 96.726 360.295 96.33 360.787 96.054C361.291 95.778 361.867 95.64 362.515 95.64C363.871 95.64 364.771 96.204 365.215 97.332C365.515 96.816 365.929 96.408 366.457 96.108C366.997 95.796 367.585 95.64 368.221 95.64ZM377.817 105.144C376.845 105.144 375.993 104.952 375.261 104.568C374.541 104.184 373.983 103.632 373.587 102.912C373.203 102.192 373.011 101.352 373.011 100.392C373.011 99.432 373.203 98.592 373.587 97.872C373.983 97.152 374.541 96.6 375.261 96.216C375.993 95.832 376.845 95.64 377.817 95.64C378.777 95.64 379.617 95.832 380.337 96.216C381.057 96.6 381.609 97.152 381.993 97.872C382.389 98.592 382.587 99.432 382.587 100.392C382.587 101.352 382.389 102.192 381.993 102.912C381.609 103.632 381.057 104.184 380.337 104.568C379.617 104.952 378.777 105.144 377.817 105.144ZM377.817 103.074C378.489 103.074 378.999 102.852 379.347 102.408C379.707 101.964 379.887 101.292 379.887 100.392C379.887 99.504 379.707 98.838 379.347 98.394C378.999 97.938 378.489 97.71 377.817 97.71C377.133 97.71 376.611 97.938 376.251 98.394C375.891 98.838 375.711 99.504 375.711 100.392C375.711 102.18 376.413 103.074 377.817 103.074ZM379.059 106.224V108.618H376.557V106.224H379.059ZM384.325 95.874H387.043V105H384.325V95.874ZM387.133 91.59V94.146H384.235V91.59H387.133ZM403.561 95.874V104.586C403.561 106.038 403.141 107.142 402.301 107.898C401.461 108.654 400.237 109.032 398.629 109.032C397.177 109.032 395.917 108.75 394.849 108.186L395.263 106.17C396.367 106.722 397.459 106.998 398.539 106.998C399.319 106.998 399.901 106.812 400.285 106.44C400.669 106.08 400.861 105.528 400.861 104.784V103.2C400.573 103.644 400.171 104.016 399.655 104.316C399.139 104.604 398.569 104.748 397.945 104.748C397.153 104.748 396.451 104.562 395.839 104.19C395.227 103.806 394.747 103.272 394.399 102.588C394.051 101.892 393.877 101.094 393.877 100.194C393.877 99.294 394.051 98.502 394.399 97.818C394.747 97.122 395.227 96.588 395.839 96.216C396.451 95.832 397.153 95.64 397.945 95.64C398.581 95.64 399.157 95.778 399.673 96.054C400.189 96.33 400.585 96.702 400.861 97.17V95.874H403.561ZM398.737 102.678C399.397 102.678 399.913 102.462 400.285 102.03C400.669 101.586 400.861 100.974 400.861 100.194C400.861 99.426 400.675 98.826 400.303 98.394C399.931 97.95 399.409 97.728 398.737 97.728C398.065 97.728 397.537 97.95 397.153 98.394C396.769 98.826 396.577 99.426 396.577 100.194C396.577 100.962 396.769 101.568 397.153 102.012C397.537 102.456 398.065 102.678 398.737 102.678ZM405.735 95.874H408.453V105H405.735V95.874ZM408.543 91.59V94.146H405.645V91.59H408.543ZM419.818 95.874V105H417.136V103.65C416.86 104.118 416.47 104.484 415.966 104.748C415.462 105.012 414.892 105.144 414.256 105.144C413.464 105.144 412.762 104.952 412.15 104.568C411.55 104.184 411.076 103.638 410.728 102.93C410.392 102.21 410.224 101.382 410.224 100.446C410.224 99.51 410.392 98.676 410.728 97.944C411.076 97.212 411.556 96.648 412.168 96.252C412.78 95.844 413.476 95.64 414.256 95.64C414.892 95.64 415.462 95.778 415.966 96.054C416.47 96.33 416.86 96.702 417.136 97.17V95.874H419.818ZM415.048 103.074C415.72 103.074 416.236 102.846 416.596 102.39C416.956 101.934 417.136 101.274 417.136 100.41C417.136 99.546 416.956 98.886 416.596 98.43C416.236 97.962 415.72 97.728 415.048 97.728C414.376 97.728 413.854 97.968 413.482 98.448C413.11 98.928 412.924 99.594 412.924 100.446C412.924 101.298 413.104 101.952 413.464 102.408C413.836 102.852 414.364 103.074 415.048 103.074ZM426.368 105.144C425.396 105.144 424.544 104.952 423.812 104.568C423.092 104.184 422.534 103.632 422.138 102.912C421.754 102.192 421.562 101.352 421.562 100.392C421.562 99.432 421.754 98.592 422.138 97.872C422.534 97.152 423.092 96.6 423.812 96.216C424.544 95.832 425.396 95.64 426.368 95.64C427.328 95.64 428.168 95.832 428.888 96.216C429.608 96.6 430.16 97.152 430.544 97.872C430.94 98.592 431.138 99.432 431.138 100.392C431.138 101.352 430.94 102.192 430.544 102.912C430.16 103.632 429.608 104.184 428.888 104.568C428.168 104.952 427.328 105.144 426.368 105.144ZM426.368 103.074C427.04 103.074 427.55 102.852 427.898 102.408C428.258 101.964 428.438 101.292 428.438 100.392C428.438 99.504 428.258 98.838 427.898 98.394C427.55 97.938 427.04 97.71 426.368 97.71C425.684 97.71 425.162 97.938 424.802 98.394C424.442 98.838 424.262 99.504 424.262 100.392C424.262 102.18 424.964 103.074 426.368 103.074ZM447.082 91.752V105H444.4V103.65C444.124 104.118 443.734 104.484 443.23 104.748C442.726 105.012 442.156 105.144 441.52 105.144C440.74 105.144 440.044 104.946 439.432 104.55C438.82 104.142 438.34 103.578 437.992 102.858C437.656 102.126 437.488 101.292 437.488 100.356C437.488 99.42 437.656 98.598 437.992 97.89C438.34 97.17 438.814 96.618 439.414 96.234C440.026 95.838 440.728 95.64 441.52 95.64C442.132 95.64 442.69 95.772 443.194 96.036C443.698 96.288 444.088 96.642 444.364 97.098V91.752H447.082ZM442.312 103.074C442.984 103.074 443.5 102.846 443.86 102.39C444.22 101.922 444.4 101.256 444.4 100.392C444.4 99.54 444.214 98.886 443.842 98.43C443.482 97.962 442.972 97.728 442.312 97.728C441.64 97.728 441.118 97.956 440.746 98.412C440.374 98.868 440.188 99.516 440.188 100.356C440.188 101.22 440.374 101.892 440.746 102.372C441.118 102.84 441.64 103.074 442.312 103.074ZM449.276 95.874H451.994V105H449.276V95.874ZM452.084 91.59V94.146H449.186V91.59H452.084ZM451.868 106.224V108.618H449.366V106.224H451.868ZM458.535 105.144C457.047 105.144 455.877 104.724 455.025 103.884C454.185 103.044 453.765 101.898 453.765 100.446C453.765 99.498 453.969 98.664 454.377 97.944C454.785 97.212 455.355 96.648 456.087 96.252C456.831 95.844 457.689 95.64 458.661 95.64C459.321 95.64 459.963 95.742 460.587 95.946C461.211 96.15 461.709 96.426 462.081 96.774L461.361 98.664C461.001 98.376 460.605 98.154 460.173 97.998C459.741 97.83 459.321 97.746 458.913 97.746C458.169 97.746 457.587 97.974 457.167 98.43C456.759 98.874 456.555 99.528 456.555 100.392C456.555 101.268 456.759 101.934 457.167 102.39C457.575 102.834 458.157 103.056 458.913 103.056C459.321 103.056 459.741 102.978 460.173 102.822C460.605 102.654 461.001 102.426 461.361 102.138L462.081 104.028C461.685 104.376 461.169 104.652 460.533 104.856C459.897 105.048 459.231 105.144 458.535 105.144ZM469.007 95.64C471.167 95.64 472.247 96.918 472.247 99.474V105H469.529V99.6C469.529 98.964 469.409 98.502 469.169 98.214C468.941 97.914 468.575 97.764 468.071 97.764C467.471 97.764 466.991 97.956 466.631 98.34C466.271 98.724 466.091 99.24 466.091 99.888V105H463.373V91.752H466.091V97.116C466.415 96.636 466.829 96.27 467.333 96.018C467.837 95.766 468.395 95.64 469.007 95.64ZM244.518 120.908V124.454C244.518 124.958 244.65 125.33 244.914 125.57C245.178 125.798 245.52 125.912 245.94 125.912C246.204 125.912 246.504 125.87 246.84 125.786V127.892C246.408 128.06 245.886 128.144 245.274 128.144C244.146 128.144 243.282 127.826 242.682 127.19C242.094 126.554 241.8 125.66 241.8 124.508V120.908H240.072V118.874H241.8V116.732L244.518 115.85V118.874H246.84V120.908H244.518ZM253.545 118.658C253.929 118.658 254.253 118.718 254.517 118.838L254.499 121.322C254.055 121.118 253.611 121.016 253.167 121.016C252.447 121.016 251.895 121.214 251.511 121.61C251.139 121.994 250.953 122.534 250.953 123.23V128H248.235V121.484C248.235 120.512 248.187 119.642 248.091 118.874H250.647L250.827 120.44C251.055 119.864 251.409 119.426 251.889 119.126C252.381 118.814 252.933 118.658 253.545 118.658ZM263.632 123.662H257.62C257.668 124.514 257.89 125.138 258.286 125.534C258.682 125.918 259.27 126.11 260.05 126.11C260.518 126.11 260.986 126.032 261.454 125.876C261.922 125.72 262.354 125.492 262.75 125.192L263.47 127.028C263.038 127.376 262.498 127.652 261.85 127.856C261.214 128.048 260.572 128.144 259.924 128.144C258.388 128.144 257.182 127.724 256.306 126.884C255.43 126.032 254.992 124.874 254.992 123.41C254.992 122.486 255.178 121.664 255.55 120.944C255.934 120.212 256.468 119.648 257.152 119.252C257.836 118.844 258.61 118.64 259.474 118.64C260.758 118.64 261.772 119.06 262.516 119.9C263.26 120.728 263.632 121.85 263.632 123.266V123.662ZM259.546 120.548C259.03 120.548 258.61 120.698 258.286 120.998C257.974 121.298 257.77 121.736 257.674 122.312H261.292C261.148 121.136 260.566 120.548 259.546 120.548ZM256.288 117.704L258.646 113.996H260.284L262.642 117.704H260.518L259.474 115.598L258.412 117.704H256.288ZM270.972 118.64C273.132 118.64 274.212 119.918 274.212 122.474V128H271.494V122.6C271.494 121.964 271.374 121.502 271.134 121.214C270.906 120.914 270.54 120.764 270.036 120.764C269.436 120.764 268.956 120.956 268.596 121.34C268.236 121.724 268.056 122.24 268.056 122.888V128H265.338V121.484C265.338 120.512 265.29 119.642 265.194 118.874H267.75L267.93 120.314C268.254 119.774 268.674 119.36 269.19 119.072C269.718 118.784 270.312 118.64 270.972 118.64ZM290.35 115.184V117.272L284.644 128H281.638L287.326 117.434H281.152V115.184H290.35ZM296.535 128.162C294.987 128.162 293.799 127.598 292.971 126.47C292.155 125.342 291.747 123.71 291.747 121.574C291.747 119.462 292.155 117.848 292.971 116.732C293.799 115.616 294.987 115.058 296.535 115.058C298.083 115.058 299.265 115.616 300.081 116.732C300.909 117.848 301.323 119.462 301.323 121.574C301.323 123.71 300.909 125.342 300.081 126.47C299.265 127.598 298.083 128.162 296.535 128.162ZM296.535 126.002C297.243 126.002 297.759 125.654 298.083 124.958C298.407 124.262 298.569 123.134 298.569 121.574C298.569 120.05 298.407 118.946 298.083 118.262C297.759 117.566 297.243 117.218 296.535 117.218C295.827 117.218 295.311 117.566 294.987 118.262C294.663 118.946 294.501 120.05 294.501 121.574C294.501 123.134 294.663 124.262 294.987 124.958C295.311 125.654 295.827 126.002 296.535 126.002ZM307.328 128.162C305.78 128.162 304.592 127.598 303.764 126.47C302.948 125.342 302.54 123.71 302.54 121.574C302.54 119.462 302.948 117.848 303.764 116.732C304.592 115.616 305.78 115.058 307.328 115.058C308.876 115.058 310.058 115.616 310.874 116.732C311.702 117.848 312.116 119.462 312.116 121.574C312.116 123.71 311.702 125.342 310.874 126.47C310.058 127.598 308.876 128.162 307.328 128.162ZM307.328 126.002C308.036 126.002 308.552 125.654 308.876 124.958C309.2 124.262 309.362 123.134 309.362 121.574C309.362 120.05 309.2 118.946 308.876 118.262C308.552 117.566 308.036 117.218 307.328 117.218C306.62 117.218 306.104 117.566 305.78 118.262C305.456 118.946 305.294 120.05 305.294 121.574C305.294 123.134 305.456 124.262 305.78 124.958C306.104 125.654 306.62 126.002 307.328 126.002ZM316.537 125.102V126.956C316.537 127.664 316.411 128.3 316.159 128.864C315.919 129.44 315.505 130.016 314.917 130.592L313.855 129.764C314.443 129.152 314.809 128.564 314.953 128H313.603V125.102H316.537ZM322.832 128.162C321.284 128.162 320.096 127.598 319.268 126.47C318.452 125.342 318.044 123.71 318.044 121.574C318.044 119.462 318.452 117.848 319.268 116.732C320.096 115.616 321.284 115.058 322.832 115.058C324.38 115.058 325.562 115.616 326.378 116.732C327.206 117.848 327.62 119.462 327.62 121.574C327.62 123.71 327.206 125.342 326.378 126.47C325.562 127.598 324.38 128.162 322.832 128.162ZM322.832 126.002C323.54 126.002 324.056 125.654 324.38 124.958C324.704 124.262 324.866 123.134 324.866 121.574C324.866 120.05 324.704 118.946 324.38 118.262C324.056 117.566 323.54 117.218 322.832 117.218C322.124 117.218 321.608 117.566 321.284 118.262C320.96 118.946 320.798 120.05 320.798 121.574C320.798 123.134 320.96 124.262 321.284 124.958C321.608 125.654 322.124 126.002 322.832 126.002ZM333.625 128.162C332.077 128.162 330.889 127.598 330.061 126.47C329.245 125.342 328.837 123.71 328.837 121.574C328.837 119.462 329.245 117.848 330.061 116.732C330.889 115.616 332.077 115.058 333.625 115.058C335.173 115.058 336.355 115.616 337.171 116.732C337.999 117.848 338.413 119.462 338.413 121.574C338.413 123.71 337.999 125.342 337.171 126.47C336.355 127.598 335.173 128.162 333.625 128.162ZM333.625 126.002C334.333 126.002 334.849 125.654 335.173 124.958C335.497 124.262 335.659 123.134 335.659 121.574C335.659 120.05 335.497 118.946 335.173 118.262C334.849 117.566 334.333 117.218 333.625 117.218C332.917 117.218 332.401 117.566 332.077 118.262C331.753 118.946 331.591 120.05 331.591 121.574C331.591 123.134 331.753 124.262 332.077 124.958C332.401 125.654 332.917 126.002 333.625 126.002ZM344.418 128.162C342.87 128.162 341.682 127.598 340.854 126.47C340.038 125.342 339.63 123.71 339.63 121.574C339.63 119.462 340.038 117.848 340.854 116.732C341.682 115.616 342.87 115.058 344.418 115.058C345.966 115.058 347.148 115.616 347.964 116.732C348.792 117.848 349.206 119.462 349.206 121.574C349.206 123.71 348.792 125.342 347.964 126.47C347.148 127.598 345.966 128.162 344.418 128.162ZM344.418 126.002C345.126 126.002 345.642 125.654 345.966 124.958C346.29 124.262 346.452 123.134 346.452 121.574C346.452 120.05 346.29 118.946 345.966 118.262C345.642 117.566 345.126 117.218 344.418 117.218C343.71 117.218 343.194 117.566 342.87 118.262C342.546 118.946 342.384 120.05 342.384 121.574C342.384 123.134 342.546 124.262 342.87 124.958C343.194 125.654 343.71 126.002 344.418 126.002ZM363.311 115.184L357.551 128H355.301L349.541 115.184H352.457L356.453 124.49L360.485 115.184H363.311ZM375.431 115.184V128H373.343L366.953 119.828V128H364.325V115.184H366.395L372.785 123.338V115.184H375.431ZM378.001 115.184H382.951C384.355 115.184 385.561 115.436 386.569 115.94C387.577 116.444 388.345 117.176 388.873 118.136C389.413 119.096 389.683 120.242 389.683 121.574C389.683 122.918 389.419 124.07 388.891 125.03C388.363 125.99 387.595 126.728 386.587 127.244C385.579 127.748 384.367 128 382.951 128H378.001V115.184ZM382.771 125.732C385.507 125.732 386.875 124.346 386.875 121.574C386.875 118.826 385.507 117.452 382.771 117.452H380.809V125.732H382.771Z" fill="white"/>
<g clip-path="url(#clip0)">
<path d="M127.097 34.3709L122.556 29.0858L123.646 18.8259L128.069 28.369L127.097 34.3709Z" fill="url(#paint2_linear)"/>
<path style="mix-blend-mode:multiply" d="M123.646 18.8259L126.448 28.6953L127.096 34.3709L128.069 28.369L123.646 18.8259Z" fill="url(#paint3_linear)"/>
<path d="M141.031 28.4011V21.1582L147.066 12.6636L146.284 21.6771L141.031 28.4011Z" fill="url(#paint4_linear)"/>
<path style="mix-blend-mode:multiply" d="M147.066 12.6636L144.402 21.6771L141.031 28.4011L146.284 21.6771L147.066 12.6636Z" fill="url(#paint5_linear)"/>
<path opacity="0.46" d="M189 196.5H200.75L209.53 160L189 196.5Z" fill="#FFF7A9"/>
</g>
<path d="M46.707 76.0381L29.1475 57.8316L34.4581 54.9086L18.8941 36.6983L10.3307 44.8273L19.8435 54.2359L14.2825 57.3704L46.707 76.0381Z" fill="url(#paint6_linear)"/>
<path style="mix-blend-mode:multiply" d="M10.1238 44.4091L13.076 41.6141L24.384 54.5601L19.3131 57.51L46.9212 75.8571L14.0651 57.1132L19.7391 53.8981L10.1238 44.4091Z" fill="url(#paint7_linear)"/>
<path d="M182.256 129.465L192.395 122.302L190.093 120.366L199.264 113L203.762 117.269L197.222 121.452L199.631 123.517L182.256 129.465Z" fill="url(#paint8_linear)"/>
<path style="mix-blend-mode:multiply" d="M203.762 117.269L202.31 115.894L194.952 121.34L197.095 123.222L182.256 129.465L199.631 123.517L197.222 121.452L203.762 117.269Z" fill="url(#paint9_linear)"/>
<path d="M176.11 142.266L188.248 139.757L186.897 137.056L198.227 133.974L200.662 139.693L193.011 140.907L194.404 143.769L176.11 142.266Z" fill="url(#paint10_linear)"/>
<path style="mix-blend-mode:multiply" d="M200.662 139.693L199.875 137.847L190.97 139.896L192.193 142.485L176.11 142.266L194.404 143.769L193.011 140.907L200.662 139.693Z" fill="url(#paint11_linear)"/>
<path d="M149.024 160.655L144.173 153.747L140.517 155.468L145.534 162.629C145.652 162.798 145.825 162.919 146.022 162.971C146.22 163.024 146.43 163.004 146.615 162.915L148.67 161.938C148.785 161.886 148.887 161.808 148.969 161.712C149.05 161.615 149.11 161.502 149.144 161.379C149.178 161.257 149.184 161.129 149.164 161.004C149.143 160.879 149.095 160.76 149.024 160.655Z" fill="url(#paint12_linear)"/>
<path style="mix-blend-mode:multiply" d="M145.559 155.709L144.181 153.747L140.517 155.468L141.691 157.148C142.953 156.598 144.244 156.117 145.559 155.709Z" fill="url(#paint13_linear)"/>
<path d="M135.15 148.111C134.806 148.296 134.545 148.609 134.424 148.982C134.302 149.356 134.328 149.763 134.496 150.118L135.78 152.864L137.068 155.607C137.234 155.964 137.53 156.242 137.894 156.385C138.259 156.529 138.664 156.525 139.026 156.376C143.682 154.446 159.61 148.52 171.558 151.344L167.536 142.76L165.623 138.673L163.71 134.586L159.688 126.002C154.252 137.112 139.578 145.695 135.15 148.111Z" fill="url(#paint14_linear)"/>
<path style="mix-blend-mode:screen" d="M143.503 145.098C147.164 142.874 150.636 140.35 153.887 137.553C156.613 135.264 159.211 132.826 161.67 130.249L159.688 126.039C154.252 137.124 139.579 145.707 135.151 148.111C134.841 148.279 134.599 148.549 134.466 148.876C134.333 149.204 134.316 149.567 134.419 149.905C137.503 148.401 140.562 146.852 143.503 145.098Z" fill="url(#paint15_linear)"/>
<path style="mix-blend-mode:multiply" d="M136.024 153.363L137.068 155.591C137.234 155.947 137.53 156.226 137.894 156.369C138.259 156.512 138.664 156.509 139.026 156.359C143.682 154.446 159.611 148.52 171.558 151.344L167.561 142.818C163.429 142.912 150.438 145.201 136.024 153.363Z" fill="url(#paint16_linear)"/>
<path d="M142.142 144.355C142.098 144.261 142.034 144.179 141.956 144.112C141.878 144.045 141.786 143.996 141.687 143.968C141.588 143.94 141.485 143.933 141.383 143.948C141.282 143.963 141.184 144 141.098 144.056C138.397 145.806 136.113 147.101 134.736 147.849C134.361 148.051 134.077 148.39 133.943 148.796C133.809 149.202 133.836 149.645 134.017 150.032L136.812 155.995C136.996 156.38 137.319 156.678 137.715 156.831C138.111 156.983 138.549 156.976 138.941 156.813C140.387 156.216 142.833 155.268 145.896 154.283C145.993 154.251 146.083 154.198 146.159 154.129C146.235 154.059 146.295 153.975 146.336 153.88C146.376 153.785 146.397 153.683 146.395 153.58C146.393 153.476 146.37 153.375 146.326 153.281L142.142 144.355Z" fill="url(#paint17_linear)"/>
<path style="mix-blend-mode:multiply" d="M135.61 153.4L136.828 155.995C137.012 156.38 137.335 156.678 137.731 156.831C138.127 156.983 138.566 156.976 138.957 156.813C140.403 156.216 142.849 155.268 145.912 154.283C146.01 154.251 146.099 154.198 146.175 154.129C146.251 154.059 146.311 153.975 146.352 153.88C146.393 153.785 146.413 153.683 146.411 153.58C146.41 153.476 146.386 153.375 146.343 153.281L144.401 149.141C141.333 150.255 138.388 151.682 135.61 153.4Z" fill="url(#paint18_linear)"/>
<path d="M158.632 126.525C157.661 126.987 159.529 133.028 162.808 140.014C166.086 146.999 169.531 152.3 170.502 151.839L171.558 151.336L170.372 148.806C169.718 146.292 168.268 142.482 166.33 138.342C164.392 134.201 162.385 130.654 160.878 128.532L159.688 126.039L158.632 126.525Z" fill="url(#paint19_linear)"/>
<path d="M159.688 126.039C160.663 125.577 164.108 130.87 167.386 137.86C170.665 144.849 172.529 150.894 171.558 151.348C170.587 151.802 167.142 146.513 163.864 139.527C160.586 132.542 158.717 126.488 159.688 126.039Z" fill="url(#paint20_linear)"/>
<path style="mix-blend-mode:screen" d="M159.688 126.039C160.663 125.577 164.108 130.87 167.386 137.86C170.665 144.849 172.529 150.894 171.558 151.348C170.587 151.802 167.142 146.513 163.864 139.527C160.586 132.542 158.717 126.488 159.688 126.039Z" fill="url(#paint21_linear)"/>
<path d="M160.191 127.093C160.898 126.758 163.905 131.675 166.907 138.076C169.909 144.477 171.782 149.93 171.059 150.277C170.335 150.625 167.345 145.695 164.343 139.294C161.341 132.893 159.481 127.429 160.191 127.093Z" fill="url(#paint22_linear)"/>
<path style="mix-blend-mode:multiply" d="M160.191 127.093C160.898 126.758 163.905 131.675 166.907 138.076C169.909 144.477 171.782 149.93 171.059 150.277C170.335 150.625 167.345 145.695 164.343 139.294C161.341 132.893 159.481 127.429 160.191 127.093Z" fill="url(#paint23_linear)"/>
<path d="M230.373 61.7462L248.234 52.9658L245.135 49.3079L261.534 39.9668L267.441 47.8765L256.041 52.8451L259.264 56.7301L230.373 61.7462Z" fill="url(#paint24_linear)"/>
<path style="mix-blend-mode:multiply" d="M265.419 45.891L252.382 51.9049L254.883 55.4628L230.373 61.7462L259.16 56.9843L255.921 53.1379L267.261 48.3146L265.419 45.891Z" fill="url(#paint25_linear)"/>
<path d="M237.69 34.1141L246.2 22.891L243.079 21.5609L250.486 10.4475L256.733 13.5754L251.1 20.3365L254.372 21.7707L237.69 34.1141Z" fill="url(#paint26_linear)"/>
<path style="mix-blend-mode:multiply" d="M254.824 12.9614L248.487 20.9033L251.198 22.3599L237.69 34.1141L254.386 21.9647L251.117 20.5599L256.758 13.9096L254.824 12.9614Z" fill="url(#paint27_linear)"/>
<path d="M257.401 32.8588L261.42 27.3546L270.671 24.2624L265.083 30.6797L257.401 32.8588Z" fill="url(#paint28_linear)"/>
<path style="mix-blend-mode:multiply" d="M270.671 24.2624L263.666 29.6294L257.401 32.8588L265.083 30.6797L270.671 24.2624Z" fill="url(#paint29_linear)"/>
<mask id="path-50-inside-1" fill="white">
<path d="M69.1297 64.7025C71.6327 64.1022 73.4257 64.257 74.5087 65.1671C75.6173 66.0512 75.9785 67.6598 75.5922 69.9929L74.3615 77.4259C73.9752 79.7591 73.0277 81.6914 71.5191 83.2231C70.0361 84.7287 68.0431 85.7817 65.5401 86.3821L52.5821 89.4899L56.1716 67.8103L69.1297 64.7025ZM69.6115 71.4273C69.9192 69.5691 69.0763 68.879 67.0827 69.3571L61.4343 70.7118L59.2806 83.7196L64.929 82.3649C66.9225 81.8868 68.0731 80.7186 68.3808 78.8603L69.6115 71.4273Z"/>
<path d="M87.46 81.1248L75.4988 83.9936L76.2167 79.6577L79.207 78.9405L81.3607 65.9327L78.3704 66.6499L79.0883 62.314L91.0496 59.4452L90.3317 63.7811L87.3414 64.4983L85.1876 77.5061L88.1779 76.7889L87.46 81.1248Z"/>
<path d="M90.4936 76.0848C96.5115 74.9389 100.595 74.1082 102.743 73.5929C103.253 73.4707 103.674 73.2409 104.006 72.9034C104.364 72.54 104.582 72.1208 104.661 71.6459L105.123 68.8586L97.4807 70.6914C95.1549 71.2492 93.5407 71.1704 92.6381 70.455C91.7612 69.7136 91.5021 68.259 91.8611 66.091L92.0149 65.1619C92.3739 62.9939 93.1543 61.2999 94.356 60.0798C95.5833 58.8337 97.3599 57.9318 99.6857 57.3739L111.348 54.5769L110.63 58.9128L100.297 61.3911C98.9678 61.7099 98.2007 62.4886 97.9956 63.7275L97.893 64.3469C97.6879 65.5857 98.2499 66.0458 99.5789 65.727L105.56 64.2926C107.73 63.772 109.246 63.8644 110.108 64.5698C110.97 65.2752 111.233 66.6396 110.898 68.663L110.642 70.2115C110.307 72.235 109.551 73.8438 108.375 75.0379C107.199 76.2321 105.525 77.0895 103.355 77.6101C102.225 77.881 101.032 78.1473 99.7764 78.4088L96.7401 79.018C94.4979 79.4567 92.1849 79.8726 89.8013 80.2659L90.4936 76.0848Z"/>
<path d="M130.7 70.4568C125.692 72.0545 121.56 73.2438 118.303 74.0247C116.133 74.5454 114.617 74.453 113.755 73.7476C112.893 73.0422 112.63 71.6778 112.965 69.6543L114.606 59.7437C114.965 57.5757 115.745 55.8817 116.947 54.6616C118.174 53.4155 119.951 52.5136 122.277 51.9557L134.238 49.087L133.52 53.4229L122.888 55.9729C121.559 56.2917 120.792 57.0705 120.586 58.3093L118.946 68.22C118.867 68.6948 118.948 69.0423 119.188 69.2623C119.453 69.4563 119.819 69.4976 120.284 69.386C120.749 69.2744 121.259 69.1522 121.812 69.0194C122.37 68.866 122.949 68.7072 123.55 68.5431C124.152 68.379 124.753 68.2149 125.355 68.0508C125.978 67.8814 126.772 67.6516 127.734 67.3612C128.719 67.0655 129.938 66.7037 131.392 66.2758L130.7 70.4568Z"/>
<path d="M150.877 50.747C151.082 49.5082 150.52 49.0481 149.191 49.3669L143.543 50.7216C142.214 51.0403 141.447 51.8191 141.242 53.058L139.601 62.9686C139.396 64.2075 139.958 64.6675 141.287 64.3488L146.935 62.994C148.264 62.6753 149.031 61.8965 149.236 60.6577L150.877 50.747ZM155.217 59.2233C154.858 61.3912 154.065 63.0982 152.837 64.3443C151.636 65.5644 149.872 66.4534 147.546 67.0112L139.24 69.0034C136.914 69.5612 135.3 69.4824 134.397 68.767C133.52 68.0256 133.261 66.571 133.62 64.403L135.261 54.4924C135.62 52.3244 136.4 50.6304 137.602 49.4103C138.829 48.1642 140.606 47.2622 142.932 46.7044L151.238 44.7122C153.564 44.1544 155.165 44.2462 156.042 44.9875C156.945 45.703 157.217 47.1447 156.858 49.3126L155.217 59.2233Z"/>
<path d="M176.122 39.0416L182.102 37.6072L179.487 53.4023C179.128 55.5702 178.335 57.2773 177.108 58.5233C175.906 59.7434 174.142 60.6324 171.816 61.1902L164.175 63.0231C161.849 63.5809 160.235 63.5021 159.332 62.7867C158.455 62.0453 158.196 60.5906 158.555 58.4227L161.17 42.6275L167.151 41.1931L164.536 56.9883C164.33 58.2271 164.892 58.6871 166.221 58.3684L171.205 57.1731C172.534 56.8543 173.301 56.0755 173.507 54.8367L176.122 39.0416Z"/>
<path d="M202.768 53.4695L196.455 54.9836L190.634 43.8883L188.481 56.8961L182.5 58.3305L186.09 36.6509L192.402 35.1368L198.223 46.2321L200.377 33.2243L206.357 31.7899L202.768 53.4695Z"/>
<path d="M218.067 49.8001L212.086 51.2345L214.958 33.8908L207.981 35.5643L208.699 31.2284L228.634 26.447L227.916 30.783L220.939 32.4564L218.067 49.8001Z"/>
</mask>
<path d="M69.1297 64.7025C71.6327 64.1022 73.4257 64.257 74.5087 65.1671C75.6173 66.0512 75.9785 67.6598 75.5922 69.9929L74.3615 77.4259C73.9752 79.7591 73.0277 81.6914 71.5191 83.2231C70.0361 84.7287 68.0431 85.7817 65.5401 86.3821L52.5821 89.4899L56.1716 67.8103L69.1297 64.7025ZM69.6115 71.4273C69.9192 69.5691 69.0763 68.879 67.0827 69.3571L61.4343 70.7118L59.2806 83.7196L64.929 82.3649C66.9225 81.8868 68.0731 80.7186 68.3808 78.8603L69.6115 71.4273Z" stroke="white" stroke-width="2" mask="url(#path-50-inside-1)"/>
<path d="M87.46 81.1248L75.4988 83.9936L76.2167 79.6577L79.207 78.9405L81.3607 65.9327L78.3704 66.6499L79.0883 62.314L91.0496 59.4452L90.3317 63.7811L87.3414 64.4983L85.1876 77.5061L88.1779 76.7889L87.46 81.1248Z" stroke="white" stroke-width="2" mask="url(#path-50-inside-1)"/>
<path d="M90.4936 76.0848C96.5115 74.9389 100.595 74.1082 102.743 73.5929C103.253 73.4707 103.674 73.2409 104.006 72.9034C104.364 72.54 104.582 72.1208 104.661 71.6459L105.123 68.8586L97.4807 70.6914C95.1549 71.2492 93.5407 71.1704 92.6381 70.455C91.7612 69.7136 91.5021 68.259 91.8611 66.091L92.0149 65.1619C92.3739 62.9939 93.1543 61.2999 94.356 60.0798C95.5833 58.8337 97.3599 57.9318 99.6857 57.3739L111.348 54.5769L110.63 58.9128L100.297 61.3911C98.9678 61.7099 98.2007 62.4886 97.9956 63.7275L97.893 64.3469C97.6879 65.5857 98.2499 66.0458 99.5789 65.727L105.56 64.2926C107.73 63.772 109.246 63.8644 110.108 64.5698C110.97 65.2752 111.233 66.6396 110.898 68.663L110.642 70.2115C110.307 72.235 109.551 73.8438 108.375 75.0379C107.199 76.2321 105.525 77.0895 103.355 77.6101C102.225 77.881 101.032 78.1473 99.7764 78.4088L96.7401 79.018C94.4979 79.4567 92.1849 79.8726 89.8013 80.2659L90.4936 76.0848Z" stroke="white" stroke-width="2" mask="url(#path-50-inside-1)"/>
<path d="M130.7 70.4568C125.692 72.0545 121.56 73.2438 118.303 74.0247C116.133 74.5454 114.617 74.453 113.755 73.7476C112.893 73.0422 112.63 71.6778 112.965 69.6543L114.606 59.7437C114.965 57.5757 115.745 55.8817 116.947 54.6616C118.174 53.4155 119.951 52.5136 122.277 51.9557L134.238 49.087L133.52 53.4229L122.888 55.9729C121.559 56.2917 120.792 57.0705 120.586 58.3093L118.946 68.22C118.867 68.6948 118.948 69.0423 119.188 69.2623C119.453 69.4563 119.819 69.4976 120.284 69.386C120.749 69.2744 121.259 69.1522 121.812 69.0194C122.37 68.866 122.949 68.7072 123.55 68.5431C124.152 68.379 124.753 68.2149 125.355 68.0508C125.978 67.8814 126.772 67.6516 127.734 67.3612C128.719 67.0655 129.938 66.7037 131.392 66.2758L130.7 70.4568Z" stroke="white" stroke-width="2" mask="url(#path-50-inside-1)"/>
<path d="M150.877 50.747C151.082 49.5082 150.52 49.0481 149.191 49.3669L143.543 50.7216C142.214 51.0403 141.447 51.8191 141.242 53.058L139.601 62.9686C139.396 64.2075 139.958 64.6675 141.287 64.3488L146.935 62.994C148.264 62.6753 149.031 61.8965 149.236 60.6577L150.877 50.747ZM155.217 59.2233C154.858 61.3912 154.065 63.0982 152.837 64.3443C151.636 65.5644 149.872 66.4534 147.546 67.0112L139.24 69.0034C136.914 69.5612 135.3 69.4824 134.397 68.767C133.52 68.0256 133.261 66.571 133.62 64.403L135.261 54.4924C135.62 52.3244 136.4 50.6304 137.602 49.4103C138.829 48.1642 140.606 47.2622 142.932 46.7044L151.238 44.7122C153.564 44.1544 155.165 44.2462 156.042 44.9875C156.945 45.703 157.217 47.1447 156.858 49.3126L155.217 59.2233Z" stroke="white" stroke-width="2" mask="url(#path-50-inside-1)"/>
<path d="M176.122 39.0416L182.102 37.6072L179.487 53.4023C179.128 55.5702 178.335 57.2773 177.108 58.5233C175.906 59.7434 174.142 60.6324 171.816 61.1902L164.175 63.0231C161.849 63.5809 160.235 63.5021 159.332 62.7867C158.455 62.0453 158.196 60.5906 158.555 58.4227L161.17 42.6275L167.151 41.1931L164.536 56.9883C164.33 58.2271 164.892 58.6871 166.221 58.3684L171.205 57.1731C172.534 56.8543 173.301 56.0755 173.507 54.8367L176.122 39.0416Z" stroke="white" stroke-width="2" mask="url(#path-50-inside-1)"/>
<path d="M202.768 53.4695L196.455 54.9836L190.634 43.8883L188.481 56.8961L182.5 58.3305L186.09 36.6509L192.402 35.1368L198.223 46.2321L200.377 33.2243L206.357 31.7899L202.768 53.4695Z" stroke="white" stroke-width="2" mask="url(#path-50-inside-1)"/>
<path d="M218.067 49.8001L212.086 51.2345L214.958 33.8908L207.981 35.5643L208.699 31.2284L228.634 26.447L227.916 30.783L220.939 32.4564L218.067 49.8001Z" stroke="white" stroke-width="2" mask="url(#path-50-inside-1)"/>
<path d="M71.2635 66.5771C73.7665 65.9768 75.5595 66.1317 76.6425 67.0417C77.7511 67.9258 78.1123 69.5344 77.726 71.8676L76.4952 79.3006C76.1089 81.6337 75.1615 83.5661 73.6529 85.0977C72.1699 86.6034 70.1769 87.6564 67.6739 88.2567L54.7159 91.3645L58.3054 69.685L71.2635 66.5771ZM71.7453 73.302C72.053 71.4437 71.2101 70.7536 69.2165 71.2318L63.5681 72.5865L61.4144 85.5942L67.0628 84.2395C69.0563 83.7614 70.2069 82.5932 70.5146 80.735L71.7453 73.302Z" fill="white"/>
<path d="M89.5938 82.9994L77.6325 85.8682L78.3505 81.5323L81.3408 80.8151L83.4945 67.8074L80.5042 68.5245L81.2221 64.1886L93.1834 61.3198L92.4655 65.6558L89.4751 66.373L87.3214 79.3807L90.3117 78.6635L89.5938 82.9994Z" fill="white"/>
<path d="M92.6273 77.9594C98.6453 76.8135 102.729 75.9829 104.877 75.4676C105.387 75.3454 105.808 75.1155 106.14 74.7781C106.498 74.4146 106.716 73.9955 106.795 73.5206L107.256 70.7332L99.6145 72.566C97.2887 73.1238 95.6745 73.045 94.7719 72.3296C93.895 71.5883 93.6359 70.1336 93.9949 67.9656L94.1487 67.0365C94.5077 64.8685 95.288 63.1745 96.4898 61.9544C97.7171 60.7083 99.4937 59.8064 101.819 59.2486L113.482 56.4515L112.764 60.7874L102.431 63.2657C101.102 63.5845 100.334 64.3633 100.129 65.6021L100.027 66.2215C99.8217 67.4604 100.384 67.9204 101.713 67.6017L107.693 66.1673C109.864 65.6466 111.38 65.739 112.242 66.4444C113.104 67.1498 113.367 68.5142 113.032 70.5376L112.776 72.0862C112.44 74.1096 111.685 75.7184 110.509 76.9125C109.333 78.1067 107.659 78.9641 105.488 79.4847C104.359 79.7557 103.166 80.0219 101.91 80.2834L98.8739 80.8927C96.6317 81.3313 94.3187 81.7472 91.9351 82.1405L92.6273 77.9594Z" fill="white"/>
<path d="M132.833 72.3315C127.825 73.9291 123.693 75.1184 120.437 75.8994C118.267 76.42 116.75 76.3276 115.889 75.6222C115.027 74.9168 114.764 73.5524 115.099 71.529L116.74 61.6183C117.099 59.4504 117.879 57.7563 119.081 56.5362C120.308 55.2901 122.085 54.3882 124.41 53.8304L136.372 50.9616L135.654 55.2975L125.022 57.8475C123.692 58.1663 122.925 58.9451 122.72 60.1839L121.079 70.0946C121.001 70.5695 121.081 70.9169 121.322 71.1369C121.587 71.331 121.953 71.3722 122.418 71.2606C122.883 71.1491 123.392 71.0269 123.946 70.8941C124.503 70.7406 125.083 70.5818 125.684 70.4177C126.286 70.2537 126.887 70.0896 127.489 69.9255C128.112 69.7561 128.905 69.5262 129.868 69.2358C130.853 68.9401 132.072 68.5783 133.526 68.1504L132.833 72.3315Z" fill="white"/>
<path d="M153.011 52.6216C153.216 51.3828 152.654 50.9228 151.325 51.2415L145.677 52.5962C144.348 52.915 143.581 53.6938 143.375 54.9326L141.734 64.8433C141.529 66.0821 142.091 66.5421 143.42 66.2234L149.069 64.8687C150.398 64.5499 151.165 63.7711 151.37 62.5323L153.011 52.6216ZM157.351 61.0979C156.992 63.2659 156.199 64.9729 154.971 66.2189C153.769 67.4391 152.006 68.328 149.68 68.8858L141.373 70.8781C139.048 71.4359 137.433 71.3571 136.531 70.6417C135.654 69.9003 135.395 68.4456 135.754 66.2777L137.395 56.367C137.754 54.199 138.534 52.505 139.736 51.2849C140.963 50.0388 142.74 49.1369 145.066 48.5791L153.372 46.5868C155.698 46.029 157.299 46.1208 158.176 46.8622C159.079 47.5776 159.35 49.0193 158.992 51.1872L157.351 61.0979Z" fill="white"/>
<path d="M178.256 40.9162L184.236 39.4818L181.621 55.2769C181.262 57.4449 180.469 59.1519 179.242 60.398C178.04 61.6181 176.276 62.507 173.95 63.0649L166.308 64.8977C163.982 65.4555 162.368 65.3767 161.466 64.6613C160.589 63.9199 160.33 62.4652 160.689 60.2973L163.304 44.5022L169.285 43.0678L166.669 58.8629C166.464 60.1017 167.026 60.5618 168.355 60.243L173.339 59.0477C174.668 58.7289 175.435 57.9501 175.64 56.7113L178.256 40.9162Z" fill="white"/>
<path d="M204.901 55.3441L198.589 56.8582L192.768 45.763L190.614 58.7707L184.634 60.2051L188.223 38.5255L194.536 37.0115L200.357 48.1067L202.51 35.0989L208.491 33.6645L204.901 55.3441Z" fill="white"/>
<path d="M220.201 51.6747L214.22 53.1091L217.092 35.7655L210.114 37.4389L210.832 33.103L230.768 28.3217L230.05 32.6576L223.073 34.3311L220.201 51.6747Z" fill="white"/>
<mask id="path-52-inside-2" fill="white">
<path d="M113.684 113.421C113.355 115.406 112.685 117.281 111.672 119.049C110.659 120.816 109.433 122.398 107.995 123.796C106.556 125.193 104.957 126.384 103.198 127.369C101.459 128.349 99.6871 129.055 97.8828 129.488L80.3057 133.703L81.6527 125.568L99.2298 121.352C99.8177 121.211 100.42 120.985 101.036 120.674C101.672 120.358 102.255 119.955 102.784 119.465C103.333 118.971 103.798 118.397 104.179 117.743C104.58 117.084 104.849 116.339 104.987 115.507C105.112 114.751 105.069 114.126 104.859 113.632C104.672 113.115 104.367 112.725 103.943 112.464C103.542 112.179 103.054 112.015 102.477 111.972C101.923 111.905 101.352 111.942 100.764 112.083L83.1875 116.299L89.5905 92.4421L116.503 85.9873L115.156 94.1227L96.0893 98.6957L94.1441 105.859L102.111 103.948C103.916 103.515 105.591 103.394 107.136 103.586C108.701 103.774 110.02 104.274 111.092 105.087C112.168 105.882 112.949 106.983 113.436 108.39C113.927 109.779 114.009 111.456 113.684 113.421Z"/>
<path d="M146.255 98.3689C147.003 93.8524 146.747 90.6926 145.488 88.8895C144.25 87.0815 142.191 86.5227 139.312 87.2132C136.453 87.8988 134.054 89.5178 132.112 92.0703C130.171 94.6227 128.824 98.1761 128.07 102.73C127.322 107.247 127.557 110.412 128.775 112.224C129.994 114.037 132.032 114.601 134.891 113.915C136.33 113.57 137.661 112.997 138.884 112.195C140.11 111.375 141.199 110.324 142.151 109.044C143.123 107.758 143.95 106.235 144.631 104.475C145.335 102.691 145.876 100.655 146.255 98.3689ZM154.557 96.3778C153.918 100.233 152.923 103.602 151.569 106.485C150.216 109.369 148.612 111.822 146.759 113.845C144.905 115.869 142.853 117.504 140.602 118.752C138.375 119.976 136.055 120.877 133.642 121.455C131.23 122.034 129.02 122.21 127.014 121.984C125.03 121.733 123.384 120.976 122.075 119.711C120.789 118.423 119.909 116.565 119.435 114.138C118.964 111.692 119.044 108.561 119.676 104.743C120.315 100.888 121.309 97.5286 122.659 94.6641C124.013 91.7808 125.606 89.3299 127.44 87.3114C129.293 85.288 131.335 83.655 133.566 82.4123C135.816 81.1648 138.148 80.2517 140.56 79.6731C142.973 79.0945 145.171 78.9302 147.154 79.1805C149.161 79.4069 150.817 80.162 152.123 81.4457C153.429 82.7294 154.319 84.5847 154.793 87.0116C155.268 89.4384 155.189 92.5605 154.557 96.3778Z"/>
<path d="M172.939 81.6523C173.218 79.9704 173.159 78.7958 172.764 78.1285C172.391 77.4375 171.719 77.2087 170.746 77.4421C169.813 77.6658 169.026 78.2447 168.385 79.1788C167.746 80.0941 167.288 81.3926 167.01 83.0745C166.734 84.7375 166.783 85.9145 167.155 86.6055C167.527 87.2966 168.18 87.5302 169.112 87.3066C170.085 87.0732 170.893 86.4894 171.534 85.5553C172.196 84.6162 172.664 83.3152 172.939 81.6523ZM178.717 80.2665C178.404 82.1562 177.905 83.8185 177.22 85.2531C176.558 86.664 175.765 87.8706 174.839 88.8728C173.914 89.875 172.885 90.6845 171.751 91.3013C170.637 91.9132 169.462 92.3674 168.225 92.664C167.009 92.9558 165.895 93.0415 164.883 92.9213C163.891 92.7962 163.067 92.4221 162.411 91.7992C161.758 91.1573 161.306 90.2403 161.056 89.0482C160.826 87.8513 160.864 86.3268 161.171 84.4749C161.484 82.5851 161.971 80.9348 162.633 79.5239C163.315 78.1081 164.119 76.8991 165.044 75.8969C165.969 74.8947 166.989 74.0876 168.102 73.4757C169.236 72.859 170.411 72.4047 171.628 72.113C172.865 71.8164 173.979 71.7306 174.97 71.8557C175.985 71.9571 176.821 72.3192 177.477 72.9422C178.133 73.5652 178.576 74.4751 178.806 75.6721C179.057 76.8642 179.027 78.3956 178.717 80.2665ZM166.549 113.019L159.95 114.601L190.643 68.2057L197.242 66.623L166.549 113.019ZM190.019 98.0803C190.3 96.3795 190.243 95.1955 189.848 94.5282C189.472 93.8561 188.798 93.6367 187.825 93.8701C186.892 94.0938 186.107 94.6633 185.469 95.5785C184.83 96.4938 184.37 97.8018 184.089 99.5026C183.817 101.147 183.867 102.314 184.239 103.005C184.614 103.677 185.268 103.902 186.201 103.678C187.174 103.445 187.98 102.87 188.618 101.955C189.28 101.016 189.746 99.7244 190.019 98.0803ZM195.797 96.6946C195.484 98.5843 194.986 100.237 194.304 101.653C193.642 103.064 192.849 104.27 191.923 105.272C190.998 106.275 189.969 107.084 188.835 107.701C187.721 108.313 186.546 108.767 185.309 109.064C184.093 109.355 182.979 109.441 181.967 109.321C180.972 109.215 180.146 108.85 179.49 108.227C178.837 107.585 178.386 106.668 178.135 105.476C177.905 104.279 177.943 102.755 178.25 100.903C178.563 99.0132 179.05 97.3628 179.712 95.9519C180.394 94.5362 181.198 93.3272 182.123 92.325C183.048 91.3227 184.068 90.5157 185.182 89.9038C186.319 89.2681 187.495 88.8044 188.712 88.5127C189.948 88.2161 191.063 88.1303 192.054 88.2555C193.069 88.3568 193.903 88.7284 194.556 89.3703C195.212 89.9932 195.656 90.9032 195.886 92.1001C196.136 93.2922 196.106 94.8237 195.797 96.6946Z"/>
</mask>
<path d="M113.684 113.421C113.355 115.406 112.685 117.281 111.672 119.049C110.659 120.816 109.433 122.398 107.995 123.796C106.556 125.193 104.957 126.384 103.198 127.369C101.459 128.349 99.6871 129.055 97.8828 129.488L80.3057 133.703L81.6527 125.568L99.2298 121.352C99.8177 121.211 100.42 120.985 101.036 120.674C101.672 120.358 102.255 119.955 102.784 119.465C103.333 118.971 103.798 118.397 104.179 117.743C104.58 117.084 104.849 116.339 104.987 115.507C105.112 114.751 105.069 114.126 104.859 113.632C104.672 113.115 104.367 112.725 103.943 112.464C103.542 112.179 103.054 112.015 102.477 111.972C101.923 111.905 101.352 111.942 100.764 112.083L83.1875 116.299L89.5905 92.4421L116.503 85.9873L115.156 94.1227L96.0893 98.6957L94.1441 105.859L102.111 103.948C103.916 103.515 105.591 103.394 107.136 103.586C108.701 103.774 110.02 104.274 111.092 105.087C112.168 105.882 112.949 106.983 113.436 108.39C113.927 109.779 114.009 111.456 113.684 113.421Z" stroke="white" stroke-width="2" mask="url(#path-52-inside-2)"/>
<path d="M146.255 98.3689C147.003 93.8524 146.747 90.6926 145.488 88.8895C144.25 87.0815 142.191 86.5227 139.312 87.2132C136.453 87.8988 134.054 89.5178 132.112 92.0703C130.171 94.6227 128.824 98.1761 128.07 102.73C127.322 107.247 127.557 110.412 128.775 112.224C129.994 114.037 132.032 114.601 134.891 113.915C136.33 113.57 137.661 112.997 138.884 112.195C140.11 111.375 141.199 110.324 142.151 109.044C143.123 107.758 143.95 106.235 144.631 104.475C145.335 102.691 145.876 100.655 146.255 98.3689ZM154.557 96.3778C153.918 100.233 152.923 103.602 151.569 106.485C150.216 109.369 148.612 111.822 146.759 113.845C144.905 115.869 142.853 117.504 140.602 118.752C138.375 119.976 136.055 120.877 133.642 121.455C131.23 122.034 129.02 122.21 127.014 121.984C125.03 121.733 123.384 120.976 122.075 119.711C120.789 118.423 119.909 116.565 119.435 114.138C118.964 111.692 119.044 108.561 119.676 104.743C120.315 100.888 121.309 97.5286 122.659 94.6641C124.013 91.7808 125.606 89.3299 127.44 87.3114C129.293 85.288 131.335 83.655 133.566 82.4123C135.816 81.1648 138.148 80.2517 140.56 79.6731C142.973 79.0945 145.171 78.9302 147.154 79.1805C149.161 79.4069 150.817 80.162 152.123 81.4457C153.429 82.7294 154.319 84.5847 154.793 87.0116C155.268 89.4384 155.189 92.5605 154.557 96.3778Z" stroke="white" stroke-width="2" mask="url(#path-52-inside-2)"/>
<path d="M172.939 81.6523C173.218 79.9704 173.159 78.7958 172.764 78.1285C172.391 77.4375 171.719 77.2087 170.746 77.4421C169.813 77.6658 169.026 78.2447 168.385 79.1788C167.746 80.0941 167.288 81.3926 167.01 83.0745C166.734 84.7375 166.783 85.9145 167.155 86.6055C167.527 87.2966 168.18 87.5302 169.112 87.3066C170.085 87.0732 170.893 86.4894 171.534 85.5553C172.196 84.6162 172.664 83.3152 172.939 81.6523ZM178.717 80.2665C178.404 82.1562 177.905 83.8185 177.22 85.2531C176.558 86.664 175.765 87.8706 174.839 88.8728C173.914 89.875 172.885 90.6845 171.751 91.3013C170.637 91.9132 169.462 92.3674 168.225 92.664C167.009 92.9558 165.895 93.0415 164.883 92.9213C163.891 92.7962 163.067 92.4221 162.411 91.7992C161.758 91.1573 161.306 90.2403 161.056 89.0482C160.826 87.8513 160.864 86.3268 161.171 84.4749C161.484 82.5851 161.971 80.9348 162.633 79.5239C163.315 78.1081 164.119 76.8991 165.044 75.8969C165.969 74.8947 166.989 74.0876 168.102 73.4757C169.236 72.859 170.411 72.4047 171.628 72.113C172.865 71.8164 173.979 71.7306 174.97 71.8557C175.985 71.9571 176.821 72.3192 177.477 72.9422C178.133 73.5652 178.576 74.4751 178.806 75.6721C179.057 76.8642 179.027 78.3956 178.717 80.2665ZM166.549 113.019L159.95 114.601L190.643 68.2057L197.242 66.623L166.549 113.019ZM190.019 98.0803C190.3 96.3795 190.243 95.1955 189.848 94.5282C189.472 93.8561 188.798 93.6367 187.825 93.8701C186.892 94.0938 186.107 94.6633 185.469 95.5785C184.83 96.4938 184.37 97.8018 184.089 99.5026C183.817 101.147 183.867 102.314 184.239 103.005C184.614 103.677 185.268 103.902 186.201 103.678C187.174 103.445 187.98 102.87 188.618 101.955C189.28 101.016 189.746 99.7244 190.019 98.0803ZM195.797 96.6946C195.484 98.5843 194.986 100.237 194.304 101.653C193.642 103.064 192.849 104.27 191.923 105.272C190.998 106.275 189.969 107.084 188.835 107.701C187.721 108.313 186.546 108.767 185.309 109.064C184.093 109.355 182.979 109.441 181.967 109.321C180.972 109.215 180.146 108.85 179.49 108.227C178.837 107.585 178.386 106.668 178.135 105.476C177.905 104.279 177.943 102.755 178.25 100.903C178.563 99.0132 179.05 97.3628 179.712 95.9519C180.394 94.5362 181.198 93.3272 182.123 92.325C183.048 91.3227 184.068 90.5157 185.182 89.9038C186.319 89.2681 187.495 88.8044 188.712 88.5127C189.948 88.2161 191.063 88.1303 192.054 88.2555C193.069 88.3568 193.903 88.7284 194.556 89.3703C195.212 89.9932 195.656 90.9032 195.886 92.1001C196.136 93.2922 196.106 94.8237 195.797 96.6946Z" stroke="white" stroke-width="2" mask="url(#path-52-inside-2)"/>
<path d="M116.26 115.334C115.931 117.318 115.261 119.194 114.248 120.961C113.235 122.728 112.009 124.311 110.571 125.708C109.132 127.106 107.533 128.297 105.774 129.281C104.035 130.261 102.263 130.967 100.459 131.4L82.8817 135.616L84.2287 127.48L101.806 123.265C102.394 123.124 102.996 122.898 103.612 122.586C104.248 122.271 104.831 121.868 105.36 121.378C105.909 120.883 106.374 120.309 106.754 119.655C107.156 118.996 107.425 118.251 107.563 117.42C107.688 116.664 107.645 116.039 107.435 115.545C107.248 115.027 106.943 114.638 106.519 114.376C106.118 114.091 105.629 113.927 105.053 113.884C104.499 113.817 103.928 113.854 103.34 113.995L85.7634 118.211L92.1664 94.3545L119.079 87.8997L117.732 96.0351L98.6652 100.608L96.72 107.771L104.687 105.86C106.492 105.427 108.166 105.307 109.712 105.499C111.277 105.686 112.596 106.186 113.668 107C114.744 107.794 115.525 108.895 116.012 110.303C116.503 111.691 116.585 113.368 116.26 115.334Z" fill="white"/>
<path d="M148.831 100.281C149.579 95.7648 149.323 92.605 148.064 90.8018C146.825 88.9939 144.767 88.4351 141.888 89.1256C139.029 89.8111 136.63 91.4302 134.688 93.9827C132.747 96.5351 131.4 100.089 130.646 104.643C129.898 109.159 130.133 112.324 131.351 114.137C132.57 115.95 134.608 116.513 137.467 115.828C138.906 115.482 140.237 114.909 141.46 114.108C142.686 113.287 143.775 112.237 144.727 110.956C145.699 109.67 146.526 108.147 147.207 106.387C147.911 104.603 148.452 102.568 148.831 100.281ZM157.133 98.2901C156.494 102.145 155.499 105.514 154.145 108.398C152.792 111.281 151.188 113.735 149.335 115.758C147.481 117.781 145.429 119.417 143.178 120.664C140.951 121.888 138.631 122.789 136.218 123.368C133.806 123.946 131.596 124.123 129.589 123.896C127.606 123.646 125.96 122.888 124.651 121.624C123.365 120.335 122.485 118.477 122.011 116.05C121.54 113.605 121.62 110.473 122.252 106.656C122.891 102.801 123.885 99.441 125.235 96.5765C126.589 93.6932 128.182 91.2422 130.015 89.2238C131.869 87.2004 133.911 85.5674 136.141 84.3247C138.392 83.0772 140.724 82.1641 143.136 81.5855C145.549 81.0068 147.747 80.8426 149.73 81.0928C151.737 81.3193 153.393 82.0744 154.699 83.3581C156.005 84.6418 156.895 86.4971 157.369 88.9239C157.844 91.3508 157.765 94.4729 157.133 98.2901Z" fill="white"/>
<path d="M175.515 83.5647C175.794 81.8828 175.735 80.7082 175.34 80.0409C174.967 79.3499 174.295 79.1211 173.321 79.3545C172.389 79.5781 171.602 80.157 170.961 81.0912C170.322 82.0064 169.864 83.305 169.585 84.9869C169.31 86.6499 169.359 87.8269 169.731 88.5179C170.103 89.2089 170.756 89.4426 171.688 89.219C172.661 88.9856 173.469 88.4018 174.11 87.4676C174.772 86.5286 175.24 85.2276 175.515 83.5647ZM181.293 82.1789C180.98 84.0686 180.481 85.7308 179.796 87.1655C179.134 88.5764 178.341 89.783 177.415 90.7852C176.49 91.7874 175.461 92.5969 174.327 93.2137C173.213 93.8255 172.038 94.2798 170.801 94.5764C169.585 94.8681 168.471 94.9539 167.459 94.8336C166.467 94.7085 165.643 94.3345 164.987 93.7115C164.334 93.0697 163.882 92.1527 163.632 90.9606C163.402 89.7637 163.44 88.2392 163.747 86.3873C164.06 84.4975 164.547 82.8472 165.209 81.4363C165.891 80.0205 166.695 78.8115 167.62 77.8093C168.545 76.8071 169.565 76 170.678 75.3881C171.812 74.7714 172.987 74.3171 174.204 74.0254C175.44 73.7288 176.555 73.643 177.546 73.7681C178.561 73.8695 179.397 74.2316 180.053 74.8546C180.709 75.4776 181.152 76.3875 181.382 77.5845C181.633 78.7766 181.603 80.308 181.293 82.1789ZM169.125 114.931L162.526 116.514L193.219 70.1181L199.818 68.5354L169.125 114.931ZM192.595 99.9927C192.876 98.2919 192.819 97.1079 192.423 96.4406C192.048 95.7685 191.374 95.5491 190.401 95.7825C189.468 96.0062 188.683 96.5756 188.044 97.4909C187.406 98.4062 186.946 99.7142 186.665 101.415C186.392 103.059 186.442 104.227 186.815 104.918C187.19 105.59 187.844 105.814 188.777 105.59C189.75 105.357 190.556 104.783 191.194 103.867C191.855 102.928 192.322 101.637 192.595 99.9927ZM198.373 98.6069C198.06 100.497 197.562 102.149 196.88 103.565C196.218 104.976 195.424 106.183 194.499 107.185C193.574 108.187 192.544 108.997 191.411 109.613C190.297 110.225 189.122 110.679 187.885 110.976C186.669 111.268 185.554 111.354 184.543 111.233C183.548 111.127 182.722 110.763 182.066 110.14C181.413 109.498 180.962 108.581 180.711 107.389C180.481 106.192 180.519 104.667 180.826 102.815C181.139 100.926 181.626 99.2752 182.288 97.8643C182.97 96.4486 183.774 95.2396 184.699 94.2374C185.624 93.2351 186.644 92.4281 187.758 91.8162C188.895 91.1805 190.071 90.7168 191.288 90.4251C192.524 90.1285 193.639 90.0427 194.63 90.1678C195.645 90.2692 196.479 90.6408 197.132 91.2826C197.788 91.9056 198.231 92.8156 198.462 94.0125C198.712 95.2046 198.682 96.7361 198.373 98.6069Z" fill="white"/>
<defs>
<filter id="filter0_d" x="-6" y="-6" width="528.5" height="202" filterUnits="userSpaceOnUse" color-interpolation-filters="sRGB">
<feFlood flood-opacity="0" result="BackgroundImageFix"/>
<feColorMatrix in="SourceAlpha" type="matrix" values="0 0 0 0 0 0 0 0 0 0 0 0 0 0 0 0 0 0 127 0"/>
<feOffset dx="4" dy="4"/>
<feGaussianBlur stdDeviation="5"/>
<feColorMatrix type="matrix" values="0 0 0 0 0.200282 0 0 0 0 0.254481 0 0 0 0 0.335778 0 0 0 0.1 0"/>
<feBlend mode="normal" in2="BackgroundImageFix" result="effect1_dropShadow"/>
<feBlend mode="normal" in="SourceGraphic" in2="effect1_dropShadow" result="shape"/>
</filter>
<linearGradient id="paint0_linear" x1="112" y1="32.5" x2="537.5" y2="247" gradientUnits="userSpaceOnUse">
<stop offset="0.0052944" stop-color="#E46D00"/>
<stop offset="1" stop-color="#F98200"/>
</linearGradient>
<linearGradient id="paint1_linear" x1="106.5" y1="77" x2="390" y2="154" gradientUnits="userSpaceOnUse">
<stop stop-color="#F4BA14"/>
<stop offset="0.983464" stop-color="#B55600"/>
</linearGradient>
<linearGradient id="paint2_linear" x1="1032.97" y1="1176.62" x2="886.74" y2="998.562" gradientUnits="userSpaceOnUse">
<stop stop-color="#DA9029"/>
<stop offset="1" stop-color="#F1CE44"/>
</linearGradient>
<linearGradient id="paint3_linear" x1="827.901" y1="966.136" x2="864.703" y2="966.136" gradientUnits="userSpaceOnUse">
<stop stop-color="#F1CE44"/>
<stop offset="1" stop-color="#DA9029"/>
</linearGradient>
<linearGradient id="paint4_linear" x1="1351.16" y1="906.084" x2="1256.62" y2="818.02" gradientUnits="userSpaceOnUse">
<stop stop-color="#DA9029"/>
<stop offset="1" stop-color="#F1CE44"/>
</linearGradient>
<linearGradient id="paint5_linear" x1="1299.08" y1="793.246" x2="1367.57" y2="793.246" gradientUnits="userSpaceOnUse">
<stop stop-color="#F1CE44"/>
<stop offset="1" stop-color="#DA9029"/>
</linearGradient>
<linearGradient id="paint6_linear" x1="30.7837" y1="67.7138" x2="26.6174" y2="53.8792" gradientUnits="userSpaceOnUse">
<stop stop-color="#DA9029"/>
<stop offset="1" stop-color="#F1CE44"/>
</linearGradient>
<linearGradient id="paint7_linear" x1="31.4333" y1="57.5264" x2="21.5069" y2="65.9134" gradientUnits="userSpaceOnUse">
<stop stop-color="#F1CE44"/>
<stop offset="1" stop-color="#DA9029"/>
</linearGradient>
<linearGradient id="paint8_linear" x1="7117.86" y1="4577.01" x2="7242.26" y2="4273.25" gradientUnits="userSpaceOnUse">
<stop stop-color="#DA9029"/>
<stop offset="1" stop-color="#F1CE44"/>
</linearGradient>
<linearGradient id="paint9_linear" x1="6734.2" y1="3717.25" x2="7604.11" y2="3717.25" gradientUnits="userSpaceOnUse">
<stop stop-color="#F1CE44"/>
<stop offset="1" stop-color="#DA9029"/>
</linearGradient>
<linearGradient id="paint10_linear" x1="7980.02" y1="3144.9" x2="7965.71" y2="2975.71" gradientUnits="userSpaceOnUse">
<stop stop-color="#DA9029"/>
<stop offset="1" stop-color="#F1CE44"/>
</linearGradient>
<linearGradient id="paint11_linear" x1="7372.36" y1="1909.95" x2="8506.18" y2="1909.95" gradientUnits="userSpaceOnUse">
<stop stop-color="#F1CE44"/>
<stop offset="1" stop-color="#DA9029"/>
</linearGradient>
<linearGradient id="paint12_linear" x1="2037.01" y1="3300.76" x2="2221.43" y2="3300.76" gradientUnits="userSpaceOnUse">
<stop stop-color="#BC002C"/>
<stop offset="1" stop-color="#BE3036"/>
</linearGradient>
<linearGradient id="paint13_linear" x1="144.405" y1="157.998" x2="143.081" y2="155.684" gradientUnits="userSpaceOnUse">
<stop stop-color="white"/>
<stop offset="1" stop-color="#BE3036"/>
</linearGradient>
<linearGradient id="paint14_linear" x1="9056.63" y1="9149.59" x2="9443.14" y2="10347.9" gradientUnits="userSpaceOnUse">
<stop stop-color="#F1CE44"/>
<stop offset="1" stop-color="#DA9029"/>
</linearGradient>
<linearGradient id="paint15_linear" x1="5702.57" y1="7051.09" x2="7539.43" y2="7051.09" gradientUnits="userSpaceOnUse">
<stop stop-color="#F1CE44"/>
<stop offset="1" stop-color="#DA9029"/>
</linearGradient>
<linearGradient id="paint16_linear" x1="8919.4" y1="4391.42" x2="8952.32" y2="4663.47" gradientUnits="userSpaceOnUse">
<stop stop-color="#F1CE44"/>
<stop offset="1" stop-color="#DA9029"/>
</linearGradient>
<linearGradient id="paint17_linear" x1="2674.21" y1="4313.26" x2="3061.21" y2="4313.26" gradientUnits="userSpaceOnUse">
<stop stop-color="#D80027"/>
<stop offset="1" stop-color="#BE3036"/>
</linearGradient>
<linearGradient id="paint18_linear" x1="2548.4" y1="2751.93" x2="2514.1" y2="2662.35" gradientUnits="userSpaceOnUse">
<stop stop-color="#D80027"/>
<stop offset="1" stop-color="#BE3036"/>
</linearGradient>
<linearGradient id="paint19_linear" x1="3631.41" y1="6967.79" x2="4554.54" y2="7870.05" gradientUnits="userSpaceOnUse">
<stop stop-color="#F1CE44"/>
<stop offset="1" stop-color="#DA9029"/>
</linearGradient>
<linearGradient id="paint20_linear" x1="3448.16" y1="7530.89" x2="3825.63" y2="7530.89" gradientUnits="userSpaceOnUse">
<stop stop-color="#F1CE44"/>
<stop offset="1" stop-color="#DA9029"/>
</linearGradient>
<linearGradient id="paint21_linear" x1="3448.16" y1="7530.89" x2="3825.63" y2="7530.89" gradientUnits="userSpaceOnUse">
<stop stop-color="#F1CE44"/>
<stop offset="1" stop-color="#DA9029"/>
</linearGradient>
<linearGradient id="paint22_linear" x1="3354.18" y1="6826.63" x2="3231.7" y2="6865.93" gradientUnits="userSpaceOnUse">
<stop stop-color="#F1CE44"/>
<stop offset="1" stop-color="#DA9029"/>
</linearGradient>
<linearGradient id="paint23_linear" x1="3324.68" y1="6867.73" x2="3228.54" y2="6898.57" gradientUnits="userSpaceOnUse">
<stop stop-color="#F1CE44"/>
<stop offset="1" stop-color="#DA9029"/>
</linearGradient>
<linearGradient id="paint24_linear" x1="8212" y1="7119.52" x2="8695.34" y2="6355.74" gradientUnits="userSpaceOnUse">
<stop stop-color="#DA9029"/>
<stop offset="1" stop-color="#F1CE44"/>
</linearGradient>
<linearGradient id="paint25_linear" x1="7741.83" y1="6048.38" x2="9400.5" y2="6731.01" gradientUnits="userSpaceOnUse">
<stop stop-color="#F1CE44"/>
<stop offset="1" stop-color="#DA9029"/>
</linearGradient>
<linearGradient id="paint26_linear" x1="7526.32" y1="1964.6" x2="7589.6" y2="1328.09" gradientUnits="userSpaceOnUse">
<stop stop-color="#DA9029"/>
<stop offset="1" stop-color="#F1CE44"/>
</linearGradient>
<linearGradient id="paint27_linear" x1="6888.93" y1="1436.34" x2="8154.72" y2="1341.61" gradientUnits="userSpaceOnUse">
<stop stop-color="#F1CE44"/>
<stop offset="1" stop-color="#DA9029"/>
</linearGradient>
<linearGradient id="paint28_linear" x1="2981.06" y1="1642.45" x2="3142.69" y2="1708.97" gradientUnits="userSpaceOnUse">
<stop stop-color="#DA9029"/>
<stop offset="1" stop-color="#F1CE44"/>
</linearGradient>
<linearGradient id="paint29_linear" x1="2981.06" y1="1642.45" x2="3142.69" y2="1708.97" gradientUnits="userSpaceOnUse">
<stop stop-color="#F1CE44"/>
<stop offset="1" stop-color="#DA9029"/>
</linearGradient>
<clipPath id="clip0">
<rect x="39" y="-6" width="202" height="188" fill="white"/>
</clipPath>
</defs>
</svg>
