<svg width="529" height="202" viewBox="0 0 529 202" fill="none" xmlns="http://www.w3.org/2000/svg">
<g filter="url(#filter0_d)">
<rect x="6" y="6" width="508.5" height="182" rx="4" fill="url(#paint0_linear)"/>
</g>
<path d="M83.902 139.802C86.2337 139.339 88.5188 138.667 90.7295 137.794C95.8066 135.81 100.305 132.588 103.815 128.423C108.298 123.104 111.167 116.617 112.084 109.726L111.793 109.793C108.359 114.982 103.113 118.708 97.0766 120.246C85.824 123.091 78.6165 116.475 78.6165 105.844C78.6165 94.0301 87.1761 81.4912 99.9596 78.2561C112.743 75.021 120.643 83.3765 120.643 99.3179C120.643 113.05 116.017 123.86 109.871 131.335C105.054 137.169 98.784 141.636 91.6905 144.286C89.1643 145.343 86.5459 146.164 83.8684 146.74L83.902 139.802ZM86.9749 103.122C86.9749 110.931 91.6905 115.181 98.9986 113.329C101.607 112.662 104.047 111.46 106.164 109.798C108.28 108.137 110.026 106.053 111.29 103.68C111.822 102.673 112.087 101.548 112.062 100.411C112.062 89.7575 108.117 82.5622 99.2668 84.7933C92.0816 86.6563 86.9749 94.2867 86.9749 103.122Z" fill="white"/>
<path d="M131.315 127.798C133.645 127.324 135.93 126.648 138.143 125.779C143.218 123.798 147.714 120.575 151.217 116.408C155.707 111.093 158.577 104.605 159.486 97.7114L159.207 97.7784C155.773 102.968 150.527 106.695 144.49 108.231C133.193 111.076 126.019 104.461 126.019 93.807C126.019 81.9932 134.578 69.4543 147.373 66.2191C160.168 62.984 168.046 71.3507 168.046 87.2809C168.046 101.013 163.431 111.823 157.273 119.298C152.464 125.135 146.196 129.603 139.104 132.249C136.578 133.306 133.959 134.127 131.282 134.703L131.315 127.798ZM134.388 91.1073C134.388 98.9162 139.104 103.167 146.412 101.315C149.021 100.651 151.463 99.4495 153.58 97.7876C155.697 96.1258 157.442 94.0403 158.704 91.6651C159.241 90.6608 159.506 89.5344 159.475 88.3965C159.475 77.7429 155.53 70.5475 146.691 72.7786C139.484 74.6082 134.388 82.2721 134.388 91.1073Z" fill="white"/>
<path d="M178.728 115.784C181.058 115.308 183.342 114.632 185.556 113.764C190.631 111.783 195.127 108.561 198.63 104.394C203.136 99.0838 206.021 92.5948 206.944 85.6968L206.653 85.7638C203.227 90.9551 197.983 94.6826 191.948 96.2166C180.65 99.0613 173.42 92.4571 173.42 81.7924C173.42 69.9786 181.98 57.4396 194.775 54.2045C207.569 50.9694 215.447 59.3361 215.447 75.2663C215.447 88.9989 210.832 99.8087 204.675 107.283C199.872 113.122 193.607 117.59 186.517 120.235C183.989 121.288 181.371 122.109 178.695 122.689L178.728 115.784ZM181.801 79.0704C181.801 86.8793 186.517 91.1296 193.825 89.2778C196.434 88.612 198.875 87.4099 200.991 85.7483C203.108 84.0866 204.854 82.0021 206.117 79.6282C206.648 78.6217 206.913 77.4968 206.888 76.3596C206.888 65.706 202.943 58.5106 194.093 60.7417C186.897 62.6382 181.801 70.2574 181.801 79.0704Z" fill="white"/>
<path d="M88.6178 141.018C90.9496 140.55 93.2347 139.874 95.4454 138.998C100.522 137.018 105.02 133.801 108.531 129.639C113.019 124.318 115.888 117.827 116.8 110.931L116.509 111.009C113.076 116.199 107.829 119.925 101.792 121.462C90.551 124.318 83.3323 117.691 83.3323 107.038C83.3323 95.2349 91.8919 82.696 104.687 79.4497C117.481 76.2034 125.37 84.5701 125.37 100.5C125.37 114.233 120.755 125.043 114.598 132.517C109.789 138.358 103.522 142.829 96.4287 145.48C93.8981 146.524 91.2807 147.345 88.6066 147.934L88.6178 141.018ZM91.7019 104.327C91.7019 112.136 96.4175 116.386 103.726 114.534C106.334 113.867 108.774 112.664 110.891 111.003C113.007 109.341 114.753 107.258 116.017 104.885C116.549 103.878 116.814 102.753 116.789 101.616C116.789 90.9623 112.844 83.7669 103.994 85.9981C96.7975 87.8722 91.7019 95.5026 91.7019 104.327V104.327Z" stroke="white" stroke-miterlimit="10"/>
<path d="M136.031 129.003C138.361 128.554 140.646 127.896 142.858 127.04C147.935 125.06 152.433 121.842 155.944 117.68C160.427 112.357 163.296 105.867 164.213 98.9721L163.922 99.0501C160.485 104.233 155.239 107.955 149.206 109.492C137.953 112.348 130.745 105.721 130.745 95.0676C130.745 83.2649 139.305 70.726 152.089 67.4798C164.872 64.2335 172.772 72.6113 172.772 88.5527C172.772 102.274 168.157 113.095 162 120.558C157.187 126.399 150.916 130.87 143.819 133.521C141.291 134.572 138.673 135.394 135.997 135.975L136.031 129.003ZM139.115 92.3122C139.115 100.121 143.819 104.371 151.128 102.52C153.736 101.853 156.176 100.65 158.292 98.9884C160.409 97.3269 162.155 95.2431 163.419 92.8699C163.95 91.8635 164.216 90.7386 164.19 89.6013C164.19 78.9477 160.246 71.7524 151.396 73.9835C144.211 75.8576 139.115 83.5327 139.115 92.3122Z" stroke="white" stroke-miterlimit="10"/>
<path d="M183.477 117C185.809 116.53 188.094 115.855 190.305 114.98C195.38 113.003 199.875 109.785 203.379 105.621C207.861 100.287 210.719 93.7835 211.615 86.8793L211.335 86.9574C207.898 92.1407 202.652 95.8625 196.619 97.3991C185.366 100.255 178.158 93.6285 178.158 82.9749C178.158 71.1722 186.707 58.6333 199.502 55.387C212.296 52.1408 220.174 60.5186 220.174 76.46C220.174 90.1814 215.559 101.002 209.413 108.465C204.602 114.317 198.331 118.799 191.233 121.462C188.704 122.513 186.086 123.335 183.41 123.916L183.477 117ZM186.55 80.3087C186.55 88.1176 191.266 92.3679 198.574 90.5161C201.182 89.8491 203.623 88.6464 205.739 86.9849C207.856 85.3234 209.602 83.2396 210.866 80.8665C211.393 79.859 211.655 78.7341 211.626 77.5979C211.626 66.9443 207.692 59.7489 198.842 61.98C191.612 63.843 186.517 71.4734 186.517 80.2975L186.55 80.3087Z" stroke="white" stroke-miterlimit="10"/>
<path d="M149.82 171.93C195.754 171.93 232.991 167.2 232.991 161.365C232.991 155.531 195.754 150.801 149.82 150.801C103.886 150.801 66.6487 155.531 66.6487 161.365C66.6487 167.2 103.886 171.93 149.82 171.93Z" fill="url(#paint1_radial)"/>
<path d="M168.783 57.607L79.3877 79.5278V49.9319L168.783 28V57.607Z" fill="url(#paint2_linear)"/>
<path d="M230.98 134.579L149.757 153.655L148.693 130.065L229.917 111L230.98 134.579Z" fill="url(#paint3_linear)"/>
<path d="M60 44.6442L91.2661 37.4154" stroke="#E77715" stroke-linecap="round" stroke-linejoin="round"/>
<path d="M205.301 64.1889L236.567 56.96" stroke="#E77715" stroke-linecap="round" stroke-linejoin="round"/>
<path d="M164.023 43.0712L188.126 37.4934" stroke="#E5AA17" stroke-linecap="round" stroke-linejoin="round"/>
<path d="M115 147.373L133.896 143" stroke="#E77715" stroke-linecap="round" stroke-linejoin="round"/>
<path d="M38 142.223L86.5529 131" stroke="#E5AA17" stroke-linecap="round" stroke-linejoin="round"/>
<path d="M116.364 49.5899L113.96 63.4336L111.78 63.9913L103.023 53.0026L105.848 52.2799L112.026 60.3053L113.626 50.2903L116.364 49.5899ZM121.395 58.5403L122.113 61.3479L119.27 62.075L118.552 59.2674L121.395 58.5403ZM121.042 48.3932L123.762 47.6973L126.938 60.1134L124.218 60.8093L121.042 48.3932ZM131.17 56.0397L131.888 58.8473L129.045 59.5744L128.327 56.7668L131.17 56.0397ZM130.817 45.8926L136.449 44.4516C137.821 44.1007 138.97 44.1599 139.895 44.6292C140.832 45.0956 141.446 45.8985 141.737 47.0378C142.026 48.1655 141.873 49.1646 141.278 50.0352C140.68 50.8941 139.701 51.4976 138.341 51.8455L135.429 52.5905L136.713 57.6128L133.993 58.3087L130.817 45.8926ZM137.461 49.8596C138.88 49.4967 139.452 48.7805 139.178 47.711C138.902 46.6298 138.054 46.2706 136.636 46.6335L134.073 47.2892L134.898 50.5154L137.461 49.8596Z" fill="white"/>
<path d="M155.482 133.59L158.216 132.95L160.616 143.203L166.189 141.898L166.711 144.124L158.403 146.069L155.482 133.59ZM166.126 134.888L168.772 134.269L170.853 143.154L168.206 143.774L166.126 134.888ZM167.884 130.077L168.466 132.566L165.644 133.226L165.062 130.737L167.884 130.077ZM175.146 130.743C174.737 130.839 174.437 131.032 174.247 131.323C174.053 131.603 174.015 131.994 174.133 132.496L174.248 132.987L176.106 132.552L176.569 134.532L174.712 134.967L176.328 141.873L173.682 142.492L172.065 135.587L170.4 135.977L169.936 133.996L171.601 133.606L171.47 133.046C171.208 131.924 171.29 130.986 171.718 130.233C172.145 129.48 172.902 128.976 173.989 128.722C174.596 128.579 175.117 128.538 175.549 128.597L176.034 130.665C175.676 130.662 175.38 130.688 175.146 130.743ZM186.659 134.999L180.805 136.369C181.046 137.188 181.405 137.745 181.881 138.04C182.354 138.324 182.97 138.377 183.729 138.199C184.185 138.092 184.623 137.91 185.043 137.651C185.463 137.392 185.832 137.072 186.149 136.69L187.269 138.313C186.927 138.75 186.464 139.142 185.88 139.489C185.304 139.82 184.701 140.06 184.07 140.208C182.575 140.558 181.305 140.424 180.26 139.806C179.213 139.176 178.523 138.148 178.189 136.723C177.978 135.823 177.972 134.98 178.17 134.195C178.377 133.394 178.769 132.723 179.344 132.182C179.917 131.629 180.625 131.254 181.466 131.057C182.716 130.764 183.799 130.942 184.715 131.59C185.628 132.227 186.246 133.234 186.569 134.613L186.659 134.999ZM181.971 132.898C181.468 133.016 181.094 133.258 180.847 133.623C180.611 133.987 180.512 134.46 180.55 135.042L184.073 134.218C183.665 133.105 182.964 132.666 181.971 132.898ZM190.852 131.189L191.66 134.641C191.775 135.132 191.988 135.464 192.3 135.638C192.609 135.8 192.968 135.833 193.377 135.737C193.634 135.677 193.916 135.568 194.224 135.409L194.705 137.46C194.322 137.722 193.833 137.923 193.237 138.062C192.139 138.319 191.225 138.206 190.496 137.724C189.778 137.239 189.288 136.435 189.026 135.314L188.205 131.808L186.523 132.202L186.059 130.222L187.742 129.828L187.253 127.742L189.699 126.264L190.388 129.208L192.649 128.679L193.113 130.66L190.852 131.189ZM194.007 128.361L196.653 127.742L198.734 136.627L196.087 137.247L194.007 128.361ZM195.765 123.55L196.347 126.039L193.525 126.699L192.943 124.21L195.765 123.55ZM209.629 124.464C210.646 124.226 211.472 124.359 212.108 124.863C212.752 125.353 213.222 126.229 213.518 127.491L214.777 132.872L212.131 133.491L210.892 128.198C210.747 127.579 210.544 127.158 210.282 126.936C210.018 126.702 209.658 126.638 209.202 126.745C208.665 126.871 208.294 127.155 208.089 127.597C207.884 128.039 207.861 128.599 208.02 129.277L209.169 134.184L206.522 134.804L205.283 129.511C205.141 128.904 204.932 128.484 204.656 128.253C204.392 128.019 204.038 127.954 203.594 128.058C203.056 128.184 202.679 128.469 202.463 128.914C202.259 129.357 202.236 129.917 202.394 130.594L203.543 135.502L200.897 136.121L199.411 129.777C199.19 128.83 198.945 127.994 198.676 127.268L201.165 126.685L201.634 127.981C201.786 127.415 202.069 126.942 202.485 126.561C202.913 126.178 203.443 125.912 204.073 125.764C205.394 125.455 206.399 125.799 207.088 126.796C207.263 126.225 207.573 125.734 208.018 125.321C208.473 124.895 209.01 124.609 209.629 124.464ZM223.851 126.292L217.997 127.663C218.238 128.481 218.596 129.038 219.072 129.333C219.545 129.617 220.162 129.67 220.921 129.492C221.377 129.385 221.815 129.203 222.235 128.944C222.655 128.686 223.024 128.365 223.341 127.983L224.46 129.606C224.119 130.044 223.656 130.436 223.072 130.782C222.496 131.114 221.893 131.354 221.262 131.501C219.766 131.851 218.497 131.717 217.452 131.099C216.405 130.469 215.715 129.442 215.381 128.016C215.17 127.116 215.164 126.274 215.362 125.488C215.569 124.688 215.96 124.017 216.536 123.475C217.109 122.922 217.816 122.547 218.658 122.35C219.908 122.057 220.991 122.235 221.907 122.884C222.82 123.52 223.438 124.528 223.761 125.907L223.851 126.292ZM219.163 124.191C218.66 124.309 218.285 124.551 218.038 124.917C217.803 125.28 217.704 125.753 217.742 126.336L221.265 125.511C220.856 124.399 220.156 123.959 219.163 124.191Z" fill="white"/>
<path d="M263.639 158.427L264.431 157.455L263.207 157.14L263.504 156.249L264.665 156.708L264.602 155.457H265.529L265.448 156.699L266.627 156.249L266.915 157.14L265.691 157.455L266.492 158.427L265.736 158.976L265.061 157.923L264.386 158.976L263.639 158.427ZM270.776 162.081C270.128 162.081 269.561 161.946 269.075 161.676C268.595 161.4 268.226 161.016 267.968 160.524C267.71 160.026 267.581 159.447 267.581 158.787C267.581 158.133 267.71 157.56 267.968 157.068C268.226 156.57 268.595 156.186 269.075 155.916C269.561 155.646 270.128 155.511 270.776 155.511C271.202 155.511 271.607 155.577 271.991 155.709C272.381 155.835 272.699 156.015 272.945 156.249L272.504 157.257C272.216 157.041 271.934 156.885 271.658 156.789C271.388 156.687 271.103 156.636 270.803 156.636C270.227 156.636 269.786 156.819 269.48 157.185C269.174 157.551 269.021 158.085 269.021 158.787C269.021 159.495 269.174 160.035 269.48 160.407C269.786 160.773 270.227 160.956 270.803 160.956C271.103 160.956 271.388 160.908 271.658 160.812C271.934 160.71 272.216 160.551 272.504 160.335L272.945 161.343C272.699 161.577 272.381 161.76 271.991 161.892C271.607 162.018 271.202 162.081 270.776 162.081ZM276.658 157.32C277.738 157.32 278.278 157.959 278.278 159.237V162H276.919V159.3C276.919 158.982 276.859 158.751 276.739 158.607C276.625 158.457 276.442 158.382 276.19 158.382C275.89 158.382 275.65 158.478 275.47 158.67C275.29 158.862 275.2 159.12 275.2 159.444V162H273.841V155.376H275.2V158.058C275.362 157.818 275.569 157.635 275.821 157.509C276.073 157.383 276.352 157.32 276.658 157.32ZM279.361 157.437H280.72V162H279.361V157.437ZM280.396 156.852H279.712V156.627C279.712 156.501 279.742 156.396 279.802 156.312C279.862 156.228 279.943 156.144 280.045 156.06C280.111 156.006 280.159 155.958 280.189 155.916C280.225 155.874 280.243 155.829 280.243 155.781C280.243 155.643 280.141 155.574 279.937 155.574C279.793 155.574 279.643 155.601 279.487 155.655L279.307 155.142C279.559 155.028 279.817 154.971 280.081 154.971C280.411 154.971 280.669 155.037 280.855 155.169C281.041 155.301 281.134 155.463 281.134 155.655C281.134 155.799 281.095 155.916 281.017 156.006C280.945 156.096 280.84 156.189 280.702 156.285C280.6 156.357 280.522 156.423 280.468 156.483C280.42 156.537 280.396 156.6 280.396 156.672V156.852ZM288.934 157.437V162H287.593V161.325C287.455 161.559 287.26 161.742 287.008 161.874C286.756 162.006 286.471 162.072 286.153 162.072C285.757 162.072 285.406 161.976 285.1 161.784C284.8 161.592 284.563 161.319 284.389 160.965C284.221 160.605 284.137 160.191 284.137 159.723C284.137 159.255 284.221 158.838 284.389 158.472C284.563 158.106 284.803 157.824 285.109 157.626C285.415 157.422 285.763 157.32 286.153 157.32C286.471 157.32 286.756 157.389 287.008 157.527C287.26 157.665 287.455 157.851 287.593 158.085V157.437H288.934ZM286.549 161.037C286.885 161.037 287.143 160.923 287.323 160.695C287.503 160.467 287.593 160.137 287.593 159.705C287.593 159.273 287.503 158.943 287.323 158.715C287.143 158.481 286.885 158.364 286.549 158.364C286.213 158.364 285.952 158.484 285.766 158.724C285.58 158.964 285.487 159.297 285.487 159.723C285.487 160.149 285.577 160.476 285.757 160.704C285.943 160.926 286.207 161.037 286.549 161.037ZM286.225 156.852L287.116 154.998H288.448L287.062 156.852H286.225ZM292.82 157.32C293.21 157.32 293.558 157.422 293.864 157.626C294.17 157.824 294.407 158.106 294.575 158.472C294.749 158.838 294.836 159.255 294.836 159.723C294.836 160.191 294.752 160.605 294.584 160.965C294.416 161.319 294.179 161.592 293.873 161.784C293.567 161.976 293.216 162.072 292.82 162.072C292.502 162.072 292.217 162.006 291.965 161.874C291.713 161.742 291.521 161.559 291.389 161.325V163.944H290.03V158.742C290.03 158.256 290.006 157.821 289.958 157.437H291.236L291.326 158.193C291.446 157.923 291.638 157.71 291.902 157.554C292.172 157.398 292.478 157.32 292.82 157.32ZM292.433 161.037C292.769 161.037 293.027 160.926 293.207 160.704C293.387 160.476 293.477 160.149 293.477 159.723C293.477 159.297 293.384 158.964 293.198 158.724C293.018 158.484 292.763 158.364 292.433 158.364C292.097 158.364 291.836 158.481 291.65 158.715C291.47 158.943 291.38 159.273 291.38 159.705C291.38 160.137 291.47 160.467 291.65 160.695C291.836 160.923 292.097 161.037 292.433 161.037ZM302.811 155.376V162H301.47V161.325C301.332 161.559 301.137 161.742 300.885 161.874C300.633 162.006 300.348 162.072 300.03 162.072C299.64 162.072 299.292 161.973 298.986 161.775C298.68 161.571 298.44 161.289 298.266 160.929C298.098 160.563 298.014 160.146 298.014 159.678C298.014 159.21 298.098 158.799 298.266 158.445C298.44 158.085 298.677 157.809 298.977 157.617C299.283 157.419 299.634 157.32 300.03 157.32C300.336 157.32 300.615 157.386 300.867 157.518C301.119 157.644 301.314 157.821 301.452 158.049V155.376H302.811ZM300.426 161.037C300.762 161.037 301.02 160.923 301.2 160.695C301.38 160.461 301.47 160.128 301.47 159.696C301.47 159.27 301.377 158.943 301.191 158.715C301.011 158.481 300.756 158.364 300.426 158.364C300.09 158.364 299.829 158.478 299.643 158.706C299.457 158.934 299.364 159.258 299.364 159.678C299.364 160.11 299.457 160.446 299.643 160.686C299.829 160.92 300.09 161.037 300.426 161.037ZM308.264 157.437V162H306.941V161.334C306.797 161.574 306.608 161.757 306.374 161.883C306.14 162.009 305.876 162.072 305.582 162.072C305.012 162.072 304.586 161.913 304.304 161.595C304.022 161.277 303.881 160.797 303.881 160.155V157.437H305.24V160.182C305.24 160.734 305.477 161.01 305.951 161.01C306.233 161.01 306.461 160.914 306.635 160.722C306.809 160.53 306.896 160.278 306.896 159.966V157.437H308.264ZM306.707 162.612V163.809H305.456V162.612H306.707ZM312.183 157.32C313.263 157.32 313.803 157.959 313.803 159.237V162H312.444V159.3C312.444 158.982 312.384 158.751 312.264 158.607C312.15 158.457 311.967 158.382 311.715 158.382C311.415 158.382 311.175 158.478 310.995 158.67C310.815 158.862 310.725 159.12 310.725 159.444V162H309.366V158.742C309.366 158.256 309.342 157.821 309.294 157.437H310.572L310.662 158.157C310.824 157.887 311.034 157.68 311.292 157.536C311.556 157.392 311.853 157.32 312.183 157.32ZM319.503 157.437V161.793C319.503 162.519 319.293 163.071 318.873 163.449C318.453 163.827 317.841 164.016 317.037 164.016C316.311 164.016 315.681 163.875 315.147 163.593L315.354 162.585C315.906 162.861 316.452 162.999 316.992 162.999C317.382 162.999 317.673 162.906 317.865 162.72C318.057 162.54 318.153 162.264 318.153 161.892V161.1C318.009 161.322 317.808 161.508 317.55 161.658C317.292 161.802 317.007 161.874 316.695 161.874C316.299 161.874 315.948 161.781 315.642 161.595C315.336 161.403 315.096 161.136 314.922 160.794C314.748 160.446 314.661 160.047 314.661 159.597C314.661 159.147 314.748 158.751 314.922 158.409C315.096 158.061 315.336 157.794 315.642 157.608C315.948 157.416 316.299 157.32 316.695 157.32C317.013 157.32 317.301 157.389 317.559 157.527C317.817 157.665 318.015 157.851 318.153 158.085V157.437H319.503ZM317.091 160.839C317.421 160.839 317.679 160.731 317.865 160.515C318.057 160.293 318.153 159.987 318.153 159.597C318.153 159.213 318.06 158.913 317.874 158.697C317.688 158.475 317.427 158.364 317.091 158.364C316.755 158.364 316.491 158.475 316.299 158.697C316.107 158.913 316.011 159.213 316.011 159.597C316.011 159.981 316.107 160.284 316.299 160.506C316.491 160.728 316.755 160.839 317.091 160.839ZM325.281 162.072C324.537 162.072 323.952 161.862 323.526 161.442C323.106 161.022 322.896 160.449 322.896 159.723C322.896 159.249 322.998 158.832 323.202 158.472C323.406 158.106 323.691 157.824 324.057 157.626C324.429 157.422 324.858 157.32 325.344 157.32C325.674 157.32 325.995 157.371 326.307 157.473C326.619 157.575 326.868 157.713 327.054 157.887L326.694 158.832C326.514 158.688 326.316 158.577 326.1 158.499C325.884 158.415 325.674 158.373 325.47 158.373C325.098 158.373 324.807 158.487 324.597 158.715C324.393 158.937 324.291 159.264 324.291 159.696C324.291 160.134 324.393 160.467 324.597 160.695C324.801 160.917 325.092 161.028 325.47 161.028C325.674 161.028 325.884 160.989 326.1 160.911C326.316 160.827 326.514 160.713 326.694 160.569L327.054 161.514C326.856 161.688 326.598 161.826 326.28 161.928C325.962 162.024 325.629 162.072 325.281 162.072ZM330.517 157.32C331.597 157.32 332.137 157.959 332.137 159.237V162H330.778V159.3C330.778 158.982 330.718 158.751 330.598 158.607C330.484 158.457 330.301 158.382 330.049 158.382C329.749 158.382 329.509 158.478 329.329 158.67C329.149 158.862 329.059 159.12 329.059 159.444V162H327.7V155.376H329.059V158.058C329.221 157.818 329.428 157.635 329.68 157.509C329.932 157.383 330.211 157.32 330.517 157.32ZM335.398 162.072C334.912 162.072 334.486 161.976 334.12 161.784C333.76 161.592 333.481 161.316 333.283 160.956C333.091 160.596 332.995 160.176 332.995 159.696C332.995 159.216 333.091 158.796 333.283 158.436C333.481 158.076 333.76 157.8 334.12 157.608C334.486 157.416 334.912 157.32 335.398 157.32C335.878 157.32 336.298 157.416 336.658 157.608C337.018 157.8 337.294 158.076 337.486 158.436C337.684 158.796 337.783 159.216 337.783 159.696C337.783 160.176 337.684 160.596 337.486 160.956C337.294 161.316 337.018 161.592 336.658 161.784C336.298 161.976 335.878 162.072 335.398 162.072ZM335.398 161.037C335.734 161.037 335.989 160.926 336.163 160.704C336.343 160.482 336.433 160.146 336.433 159.696C336.433 159.252 336.343 158.919 336.163 158.697C335.989 158.469 335.734 158.355 335.398 158.355C335.056 158.355 334.795 158.469 334.615 158.697C334.435 158.919 334.345 159.252 334.345 159.696C334.345 160.59 334.696 161.037 335.398 161.037ZM344.333 162L342.542 159.957V162H341.183V155.376H342.542V159.399L344.252 157.446H345.881L343.946 159.633L345.998 162H344.333ZM349.159 157.32C350.239 157.32 350.779 157.959 350.779 159.237V162H349.42V159.3C349.42 158.982 349.36 158.751 349.24 158.607C349.126 158.457 348.943 158.382 348.691 158.382C348.391 158.382 348.151 158.478 347.971 158.67C347.791 158.862 347.701 159.12 347.701 159.444V162H346.342V155.376H347.701V158.058C347.863 157.818 348.07 157.635 348.322 157.509C348.574 157.383 348.853 157.32 349.159 157.32ZM356.434 157.437V162H355.093V161.325C354.955 161.559 354.76 161.742 354.508 161.874C354.256 162.006 353.971 162.072 353.653 162.072C353.257 162.072 352.906 161.976 352.6 161.784C352.3 161.592 352.063 161.319 351.889 160.965C351.721 160.605 351.637 160.191 351.637 159.723C351.637 159.255 351.721 158.838 351.889 158.472C352.063 158.106 352.303 157.824 352.609 157.626C352.915 157.422 353.263 157.32 353.653 157.32C353.971 157.32 354.256 157.389 354.508 157.527C354.76 157.665 354.955 157.851 355.093 158.085V157.437H356.434ZM354.049 161.037C354.385 161.037 354.643 160.923 354.823 160.695C355.003 160.467 355.093 160.137 355.093 159.705C355.093 159.273 355.003 158.943 354.823 158.715C354.643 158.481 354.385 158.364 354.049 158.364C353.713 158.364 353.452 158.484 353.266 158.724C353.08 158.964 352.987 159.297 352.987 159.723C352.987 160.149 353.077 160.476 353.257 160.704C353.443 160.926 353.707 161.037 354.049 161.037ZM353.725 156.852L354.616 154.998H355.948L354.562 156.852H353.725ZM359.69 162.072C358.946 162.072 358.361 161.862 357.935 161.442C357.515 161.022 357.305 160.449 357.305 159.723C357.305 159.249 357.407 158.832 357.611 158.472C357.815 158.106 358.1 157.824 358.466 157.626C358.838 157.422 359.267 157.32 359.753 157.32C360.083 157.32 360.404 157.371 360.716 157.473C361.028 157.575 361.277 157.713 361.463 157.887L361.103 158.832C360.923 158.688 360.725 158.577 360.509 158.499C360.293 158.415 360.083 158.373 359.879 158.373C359.507 158.373 359.216 158.487 359.006 158.715C358.802 158.937 358.7 159.264 358.7 159.696C358.7 160.134 358.802 160.467 359.006 160.695C359.21 160.917 359.501 161.028 359.879 161.028C360.083 161.028 360.293 160.989 360.509 160.911C360.725 160.827 360.923 160.713 361.103 160.569L361.463 161.514C361.265 161.688 361.007 161.826 360.689 161.928C360.371 162.024 360.038 162.072 359.69 162.072ZM364.927 157.32C366.007 157.32 366.547 157.959 366.547 159.237V162H365.188V159.3C365.188 158.982 365.128 158.751 365.008 158.607C364.894 158.457 364.711 158.382 364.459 158.382C364.159 158.382 363.919 158.478 363.739 158.67C363.559 158.862 363.469 159.12 363.469 159.444V162H362.11V155.376H363.469V158.058C363.631 157.818 363.838 157.635 364.09 157.509C364.342 157.383 364.621 157.32 364.927 157.32ZM372.977 157.32C374.057 157.32 374.597 157.959 374.597 159.237V162H373.238V159.3C373.238 158.982 373.178 158.751 373.058 158.607C372.944 158.457 372.761 158.382 372.509 158.382C372.209 158.382 371.969 158.478 371.789 158.67C371.609 158.862 371.519 159.12 371.519 159.444V162H370.16V155.376H371.519V158.058C371.681 157.818 371.888 157.635 372.14 157.509C372.392 157.383 372.671 157.32 372.977 157.32ZM380.252 157.437V162H378.911V161.325C378.773 161.559 378.578 161.742 378.326 161.874C378.074 162.006 377.789 162.072 377.471 162.072C377.075 162.072 376.724 161.976 376.418 161.784C376.118 161.592 375.881 161.319 375.707 160.965C375.539 160.605 375.455 160.191 375.455 159.723C375.455 159.255 375.539 158.838 375.707 158.472C375.881 158.106 376.121 157.824 376.427 157.626C376.733 157.422 377.081 157.32 377.471 157.32C377.789 157.32 378.074 157.389 378.326 157.527C378.578 157.665 378.773 157.851 378.911 158.085V157.437H380.252ZM377.867 161.037C378.203 161.037 378.461 160.923 378.641 160.695C378.821 160.467 378.911 160.137 378.911 159.705C378.911 159.273 378.821 158.943 378.641 158.715C378.461 158.481 378.203 158.364 377.867 158.364C377.531 158.364 377.27 158.484 377.084 158.724C376.898 158.964 376.805 159.297 376.805 159.723C376.805 160.149 376.895 160.476 377.075 160.704C377.261 160.926 377.525 161.037 377.867 161.037ZM376.157 154.998H377.489L378.38 156.852H377.543L376.157 154.998ZM384.166 157.32C385.246 157.32 385.786 157.959 385.786 159.237V162H384.427V159.3C384.427 158.982 384.367 158.751 384.247 158.607C384.133 158.457 383.95 158.382 383.698 158.382C383.398 158.382 383.158 158.478 382.978 158.67C382.798 158.862 382.708 159.12 382.708 159.444V162H381.349V158.742C381.349 158.256 381.325 157.821 381.277 157.437H382.555L382.645 158.157C382.807 157.887 383.017 157.68 383.275 157.536C383.539 157.392 383.836 157.32 384.166 157.32ZM391.485 157.437V161.793C391.485 162.519 391.275 163.071 390.855 163.449C390.435 163.827 389.823 164.016 389.019 164.016C388.293 164.016 387.663 163.875 387.129 163.593L387.336 162.585C387.888 162.861 388.434 162.999 388.974 162.999C389.364 162.999 389.655 162.906 389.847 162.72C390.039 162.54 390.135 162.264 390.135 161.892V161.1C389.991 161.322 389.79 161.508 389.532 161.658C389.274 161.802 388.989 161.874 388.677 161.874C388.281 161.874 387.93 161.781 387.624 161.595C387.318 161.403 387.078 161.136 386.904 160.794C386.73 160.446 386.643 160.047 386.643 159.597C386.643 159.147 386.73 158.751 386.904 158.409C387.078 158.061 387.318 157.794 387.624 157.608C387.93 157.416 388.281 157.32 388.677 157.32C388.995 157.32 389.283 157.389 389.541 157.527C389.799 157.665 389.997 157.851 390.135 158.085V157.437H391.485ZM389.073 160.839C389.403 160.839 389.661 160.731 389.847 160.515C390.039 160.293 390.135 159.987 390.135 159.597C390.135 159.213 390.042 158.913 389.856 158.697C389.67 158.475 389.409 158.364 389.073 158.364C388.737 158.364 388.473 158.475 388.281 158.697C388.089 158.913 387.993 159.213 387.993 159.597C387.993 159.981 388.089 160.284 388.281 160.506C388.473 160.728 388.737 160.839 389.073 160.839ZM400.477 156.96H399.676V162H398.335V161.325C398.197 161.559 398.002 161.742 397.75 161.874C397.498 162.006 397.213 162.072 396.895 162.072C396.505 162.072 396.157 161.973 395.851 161.775C395.545 161.571 395.305 161.289 395.131 160.929C394.963 160.563 394.879 160.146 394.879 159.678C394.879 159.21 394.963 158.799 395.131 158.445C395.305 158.085 395.542 157.809 395.842 157.617C396.148 157.419 396.499 157.32 396.895 157.32C397.201 157.32 397.48 157.386 397.732 157.518C397.984 157.644 398.179 157.821 398.317 158.049V156.96H396.589V156.015H398.317V155.376H399.676V156.015H400.477V156.96ZM397.291 161.037C397.627 161.037 397.885 160.923 398.065 160.695C398.245 160.461 398.335 160.128 398.335 159.696C398.335 159.27 398.242 158.943 398.056 158.715C397.876 158.481 397.621 158.364 397.291 158.364C396.955 158.364 396.694 158.478 396.508 158.706C396.322 158.934 396.229 159.258 396.229 159.678C396.229 160.11 396.322 160.446 396.508 160.686C396.694 160.92 396.955 161.037 397.291 161.037ZM405.345 157.437V162H404.004V161.325C403.866 161.559 403.671 161.742 403.419 161.874C403.167 162.006 402.882 162.072 402.564 162.072C402.168 162.072 401.817 161.976 401.511 161.784C401.211 161.592 400.974 161.319 400.8 160.965C400.632 160.605 400.548 160.191 400.548 159.723C400.548 159.255 400.632 158.838 400.8 158.472C400.974 158.106 401.214 157.824 401.52 157.626C401.826 157.422 402.174 157.32 402.564 157.32C402.882 157.32 403.167 157.389 403.419 157.527C403.671 157.665 403.866 157.851 404.004 158.085V157.437H405.345ZM402.96 161.037C403.296 161.037 403.554 160.923 403.734 160.695C403.914 160.467 404.004 160.137 404.004 159.705C404.004 159.273 403.914 158.943 403.734 158.715C403.554 158.481 403.296 158.364 402.96 158.364C402.624 158.364 402.363 158.484 402.177 158.724C401.991 158.964 401.898 159.297 401.898 159.723C401.898 160.149 401.988 160.476 402.168 160.704C402.354 160.926 402.618 161.037 402.96 161.037ZM401.475 156.564C401.475 156.126 401.565 155.799 401.745 155.583C401.931 155.361 402.168 155.25 402.456 155.25C402.57 155.25 402.678 155.274 402.78 155.322C402.888 155.364 403.011 155.427 403.149 155.511C403.281 155.583 403.38 155.637 403.446 155.673C403.518 155.703 403.59 155.718 403.662 155.718C403.776 155.718 403.866 155.679 403.932 155.601C404.004 155.523 404.046 155.415 404.058 155.277H404.634C404.634 155.709 404.541 156.036 404.355 156.258C404.175 156.48 403.941 156.591 403.653 156.591C403.539 156.591 403.428 156.57 403.32 156.528C403.218 156.48 403.098 156.414 402.96 156.33C402.828 156.258 402.726 156.207 402.654 156.177C402.588 156.141 402.519 156.123 402.447 156.123C402.333 156.123 402.24 156.162 402.168 156.24C402.102 156.318 402.063 156.426 402.051 156.564H401.475ZM413.545 155.376V162H412.204V161.325C412.066 161.559 411.871 161.742 411.619 161.874C411.367 162.006 411.082 162.072 410.764 162.072C410.374 162.072 410.026 161.973 409.72 161.775C409.414 161.571 409.174 161.289 409 160.929C408.832 160.563 408.748 160.146 408.748 159.678C408.748 159.21 408.832 158.799 409 158.445C409.174 158.085 409.411 157.809 409.711 157.617C410.017 157.419 410.368 157.32 410.764 157.32C411.07 157.32 411.349 157.386 411.601 157.518C411.853 157.644 412.048 157.821 412.186 158.049V155.376H413.545ZM411.16 161.037C411.496 161.037 411.754 160.923 411.934 160.695C412.114 160.461 412.204 160.128 412.204 159.696C412.204 159.27 412.111 158.943 411.925 158.715C411.745 158.481 411.49 158.364 411.16 158.364C410.824 158.364 410.563 158.478 410.377 158.706C410.191 158.934 410.098 159.258 410.098 159.678C410.098 160.11 410.191 160.446 410.377 160.686C410.563 160.92 410.824 161.037 411.16 161.037ZM418.998 157.437V162H417.675V161.334C417.531 161.574 417.342 161.757 417.108 161.883C416.874 162.009 416.61 162.072 416.316 162.072C415.746 162.072 415.32 161.913 415.038 161.595C414.756 161.277 414.615 160.797 414.615 160.155V157.437H415.974V160.182C415.974 160.734 416.211 161.01 416.685 161.01C416.967 161.01 417.195 160.914 417.369 160.722C417.543 160.53 417.63 160.278 417.63 159.966V157.437H418.998ZM415.011 154.998H416.343L417.234 156.852H416.397L415.011 154.998ZM422.917 157.32C423.997 157.32 424.537 157.959 424.537 159.237V162H423.178V159.3C423.178 158.982 423.118 158.751 422.998 158.607C422.884 158.457 422.701 158.382 422.449 158.382C422.149 158.382 421.909 158.478 421.729 158.67C421.549 158.862 421.459 159.12 421.459 159.444V162H420.1V158.742C420.1 158.256 420.076 157.821 420.028 157.437H421.306L421.396 158.157C421.558 157.887 421.768 157.68 422.026 157.536C422.29 157.392 422.587 157.32 422.917 157.32ZM430.236 157.437V161.793C430.236 162.519 430.026 163.071 429.606 163.449C429.186 163.827 428.574 164.016 427.77 164.016C427.044 164.016 426.414 163.875 425.88 163.593L426.087 162.585C426.639 162.861 427.185 162.999 427.725 162.999C428.115 162.999 428.406 162.906 428.598 162.72C428.79 162.54 428.886 162.264 428.886 161.892V161.1C428.742 161.322 428.541 161.508 428.283 161.658C428.025 161.802 427.74 161.874 427.428 161.874C427.032 161.874 426.681 161.781 426.375 161.595C426.069 161.403 425.829 161.136 425.655 160.794C425.481 160.446 425.394 160.047 425.394 159.597C425.394 159.147 425.481 158.751 425.655 158.409C425.829 158.061 426.069 157.794 426.375 157.608C426.681 157.416 427.032 157.32 427.428 157.32C427.746 157.32 428.034 157.389 428.292 157.527C428.55 157.665 428.748 157.851 428.886 158.085V157.437H430.236ZM427.824 160.839C428.154 160.839 428.412 160.731 428.598 160.515C428.79 160.293 428.886 159.987 428.886 159.597C428.886 159.213 428.793 158.913 428.607 158.697C428.421 158.475 428.16 158.364 427.824 158.364C427.488 158.364 427.224 158.475 427.032 158.697C426.84 158.913 426.744 159.213 426.744 159.597C426.744 159.981 426.84 160.284 427.032 160.506C427.224 160.728 427.488 160.839 427.824 160.839ZM435.565 158.454V160.227C435.565 160.479 435.631 160.665 435.763 160.785C435.895 160.899 436.066 160.956 436.276 160.956C436.408 160.956 436.558 160.935 436.726 160.893V161.946C436.51 162.03 436.249 162.072 435.943 162.072C435.379 162.072 434.947 161.913 434.647 161.595C434.353 161.277 434.206 160.83 434.206 160.254V158.454H433.342V157.437H434.206V156.366L435.565 155.925V157.437H436.726V158.454H435.565ZM440.24 157.32C441.32 157.32 441.86 157.959 441.86 159.237V162H440.501V159.3C440.501 158.982 440.441 158.751 440.321 158.607C440.207 158.457 440.024 158.382 439.772 158.382C439.472 158.382 439.232 158.478 439.052 158.67C438.872 158.862 438.782 159.12 438.782 159.444V162H437.423V155.376H438.782V158.058C438.944 157.818 439.151 157.635 439.403 157.509C439.655 157.383 439.934 157.32 440.24 157.32ZM448.343 156.276V156.618C448.343 156.978 448.247 157.284 448.055 157.536C447.869 157.788 447.617 157.953 447.299 158.031V162H445.976V161.334C445.832 161.574 445.643 161.757 445.409 161.883C445.175 162.009 444.911 162.072 444.617 162.072C444.047 162.072 443.621 161.913 443.339 161.595C443.057 161.277 442.916 160.797 442.916 160.155V157.437H444.275V160.182C444.275 160.734 444.512 161.01 444.986 161.01C445.268 161.01 445.496 160.914 445.67 160.722C445.844 160.53 445.931 160.278 445.931 159.966V157.437H446.318C446.63 157.437 446.849 157.365 446.975 157.221C447.107 157.071 447.173 156.816 447.173 156.456V156.276H448.343ZM445.472 156.852H444.788V156.627C444.788 156.501 444.818 156.396 444.878 156.312C444.938 156.228 445.019 156.144 445.121 156.06C445.187 156.006 445.235 155.958 445.265 155.916C445.301 155.874 445.319 155.829 445.319 155.781C445.319 155.643 445.217 155.574 445.013 155.574C444.869 155.574 444.719 155.601 444.563 155.655L444.383 155.142C444.635 155.028 444.893 154.971 445.157 154.971C445.487 154.971 445.745 155.037 445.931 155.169C446.117 155.301 446.21 155.463 446.21 155.655C446.21 155.799 446.171 155.916 446.093 156.006C446.021 156.096 445.916 156.189 445.778 156.285C445.676 156.357 445.598 156.423 445.544 156.483C445.496 156.537 445.472 156.6 445.472 156.672V156.852ZM453.942 157.32C454.338 157.32 454.689 157.419 454.995 157.617C455.301 157.809 455.538 158.085 455.706 158.445C455.874 158.799 455.958 159.21 455.958 159.678C455.958 160.146 455.871 160.563 455.697 160.929C455.529 161.289 455.292 161.571 454.986 161.775C454.68 161.973 454.332 162.072 453.942 162.072C453.624 162.072 453.336 162.006 453.078 161.874C452.826 161.736 452.634 161.55 452.502 161.316V162H451.152V155.376H452.511V158.076C452.643 157.842 452.835 157.659 453.087 157.527C453.345 157.389 453.63 157.32 453.942 157.32ZM453.555 161.037C453.891 161.037 454.149 160.92 454.329 160.686C454.509 160.452 454.599 160.116 454.599 159.678C454.599 159.258 454.509 158.934 454.329 158.706C454.149 158.478 453.891 158.364 453.555 158.364C453.219 158.364 452.958 158.481 452.772 158.715C452.592 158.943 452.502 159.27 452.502 159.696C452.502 160.128 452.592 160.461 452.772 160.695C452.958 160.923 453.219 161.037 453.555 161.037ZM461.401 157.437V162H460.06V161.325C459.922 161.559 459.727 161.742 459.475 161.874C459.223 162.006 458.938 162.072 458.62 162.072C458.224 162.072 457.873 161.976 457.567 161.784C457.267 161.592 457.03 161.319 456.856 160.965C456.688 160.605 456.604 160.191 456.604 159.723C456.604 159.255 456.688 158.838 456.856 158.472C457.03 158.106 457.27 157.824 457.576 157.626C457.882 157.422 458.23 157.32 458.62 157.32C458.938 157.32 459.223 157.389 459.475 157.527C459.727 157.665 459.922 157.851 460.06 158.085V157.437H461.401ZM459.016 161.037C459.352 161.037 459.61 160.923 459.79 160.695C459.97 160.467 460.06 160.137 460.06 159.705C460.06 159.273 459.97 158.943 459.79 158.715C459.61 158.481 459.352 158.364 459.016 158.364C458.68 158.364 458.419 158.484 458.233 158.724C458.047 158.964 457.954 159.297 457.954 159.723C457.954 160.149 458.044 160.476 458.224 160.704C458.41 160.926 458.674 161.037 459.016 161.037ZM459.466 156.852H458.782V156.627C458.782 156.501 458.812 156.396 458.872 156.312C458.932 156.228 459.013 156.144 459.115 156.06C459.181 156.006 459.229 155.958 459.259 155.916C459.295 155.874 459.313 155.829 459.313 155.781C459.313 155.643 459.211 155.574 459.007 155.574C458.863 155.574 458.713 155.601 458.557 155.655L458.377 155.142C458.629 155.028 458.887 154.971 459.151 154.971C459.481 154.971 459.739 155.037 459.925 155.169C460.111 155.301 460.204 155.463 460.204 155.655C460.204 155.799 460.165 155.916 460.087 156.006C460.015 156.096 459.91 156.189 459.772 156.285C459.67 156.357 459.592 156.423 459.538 156.483C459.49 156.537 459.466 156.6 459.466 156.672V156.852ZM465.315 157.32C466.395 157.32 466.935 157.959 466.935 159.237V162H465.576V159.3C465.576 158.982 465.516 158.751 465.396 158.607C465.282 158.457 465.099 158.382 464.847 158.382C464.547 158.382 464.307 158.478 464.127 158.67C463.947 158.862 463.857 159.12 463.857 159.444V162H462.498V158.742C462.498 158.256 462.474 157.821 462.426 157.437H463.704L463.794 158.157C463.956 157.887 464.166 157.68 464.424 157.536C464.688 157.392 464.985 157.32 465.315 157.32ZM473.339 157.32C473.735 157.32 474.086 157.419 474.392 157.617C474.698 157.809 474.935 158.085 475.103 158.445C475.271 158.799 475.355 159.21 475.355 159.678C475.355 160.146 475.268 160.563 475.094 160.929C474.926 161.289 474.689 161.571 474.383 161.775C474.077 161.973 473.729 162.072 473.339 162.072C473.021 162.072 472.733 162.006 472.475 161.874C472.223 161.736 472.031 161.55 471.899 161.316V162H470.549V155.376H471.908V158.076C472.04 157.842 472.232 157.659 472.484 157.527C472.742 157.389 473.027 157.32 473.339 157.32ZM472.952 161.037C473.288 161.037 473.546 160.92 473.726 160.686C473.906 160.452 473.996 160.116 473.996 159.678C473.996 159.258 473.906 158.934 473.726 158.706C473.546 158.478 473.288 158.364 472.952 158.364C472.616 158.364 472.355 158.481 472.169 158.715C471.989 158.943 471.899 159.27 471.899 159.696C471.899 160.128 471.989 160.461 472.169 160.695C472.355 160.923 472.616 161.037 472.952 161.037ZM480.322 159.831H477.316C477.34 160.257 477.451 160.569 477.649 160.767C477.847 160.959 478.141 161.055 478.531 161.055C478.765 161.055 478.999 161.016 479.233 160.938C479.467 160.86 479.683 160.746 479.881 160.596L480.241 161.514C480.025 161.688 479.755 161.826 479.431 161.928C479.113 162.024 478.792 162.072 478.468 162.072C477.7 162.072 477.097 161.862 476.659 161.442C476.221 161.016 476.002 160.437 476.002 159.705C476.002 159.243 476.095 158.832 476.281 158.472C476.473 158.106 476.74 157.824 477.082 157.626C477.424 157.422 477.811 157.32 478.243 157.32C478.885 157.32 479.392 157.53 479.764 157.95C480.136 158.364 480.322 158.925 480.322 159.633V159.831ZM478.279 158.274C478.021 158.274 477.811 158.349 477.649 158.499C477.493 158.649 477.391 158.868 477.343 159.156H479.152C479.08 158.568 478.789 158.274 478.279 158.274ZM482.797 158.454V160.227C482.797 160.479 482.863 160.665 482.995 160.785C483.127 160.899 483.298 160.956 483.508 160.956C483.64 160.956 483.79 160.935 483.958 160.893V161.946C483.742 162.03 483.481 162.072 483.175 162.072C482.611 162.072 482.179 161.913 481.879 161.595C481.585 161.277 481.438 160.83 481.438 160.254V158.454H480.574V157.437H481.438V156.366L482.797 155.925V157.437H483.958V158.454H482.797ZM489.227 157.437V162H487.886V161.325C487.748 161.559 487.553 161.742 487.301 161.874C487.049 162.006 486.764 162.072 486.446 162.072C486.05 162.072 485.699 161.976 485.393 161.784C485.093 161.592 484.856 161.319 484.682 160.965C484.514 160.605 484.43 160.191 484.43 159.723C484.43 159.255 484.514 158.838 484.682 158.472C484.856 158.106 485.096 157.824 485.402 157.626C485.708 157.422 486.056 157.32 486.446 157.32C486.764 157.32 487.049 157.389 487.301 157.527C487.553 157.665 487.748 157.851 487.886 158.085V157.437H489.227ZM486.842 161.037C487.178 161.037 487.436 160.923 487.616 160.695C487.796 160.467 487.886 160.137 487.886 159.705C487.886 159.273 487.796 158.943 487.616 158.715C487.436 158.481 487.178 158.364 486.842 158.364C486.506 158.364 486.245 158.484 486.059 158.724C485.873 158.964 485.78 159.297 485.78 159.723C485.78 160.149 485.87 160.476 486.05 160.704C486.236 160.926 486.5 161.037 486.842 161.037Z" fill="#F4BB15"/>
<g opacity="0.5">
<mask id="mask0" mask-type="alpha" maskUnits="userSpaceOnUse" x="6" y="6" width="509" height="182">
<rect x="6" y="6" width="508.5" height="182" rx="4" fill="url(#paint4_linear)"/>
</mask>
<g mask="url(#mask0)">
<path d="M248.145 103.097C247.711 100.665 248.259 98.1607 249.669 96.1324C251.078 94.1041 253.235 92.7176 255.665 92.2769L417.705 63.1469C420.137 62.71 422.643 63.2568 424.672 64.6669C426.701 66.077 428.087 68.2352 428.525 70.6669C428.741 71.8718 428.718 73.1074 428.457 74.3033C428.195 75.4992 427.701 76.6319 427.002 77.6367C426.302 78.6415 425.412 79.4986 424.381 80.1593C423.351 80.8199 422.2 81.271 420.995 81.4869L258.995 110.617C257.789 110.839 256.55 110.82 255.351 110.562C254.152 110.304 253.015 109.811 252.007 109.112C250.999 108.414 250.138 107.522 249.476 106.49C248.813 105.458 248.361 104.305 248.145 103.097Z" fill="url(#paint5_linear)"/>
<path d="M395.145 129.097C394.711 126.665 395.259 124.161 396.669 122.132C398.078 120.104 400.235 118.718 402.665 118.277L564.705 89.1469C567.137 88.71 569.643 89.2568 571.672 90.6669C573.701 92.077 575.087 94.2352 575.525 96.6669C575.741 97.8718 575.718 99.1074 575.457 100.303C575.195 101.499 574.701 102.632 574.002 103.637C573.302 104.641 572.412 105.499 571.381 106.159C570.351 106.82 569.2 107.271 567.995 107.487L405.995 136.617C404.789 136.839 403.55 136.82 402.351 136.562C401.152 136.304 400.015 135.811 399.007 135.112C397.999 134.414 397.138 133.522 396.476 132.49C395.813 131.458 395.361 130.305 395.145 129.097Z" fill="url(#paint6_linear)"/>
<path d="M199.145 29.0969C198.711 26.6652 199.259 24.1607 200.669 22.1324C202.078 20.1041 204.235 18.7176 206.665 18.2769L368.705 -10.8531C371.137 -11.29 373.643 -10.7432 375.672 -9.3331C377.701 -7.92296 379.087 -5.76483 379.525 -3.33314C379.741 -2.12824 379.718 -0.892558 379.457 0.303338C379.195 1.49923 378.701 2.63191 378.002 3.63668C377.302 4.64145 376.412 5.49863 375.381 6.15925C374.351 6.81987 373.2 7.271 371.995 7.48686L209.995 36.6169C208.789 36.8389 207.55 36.8203 206.351 36.5621C205.152 36.3039 204.015 35.8112 203.007 35.1124C201.999 34.4136 201.138 33.5224 200.476 32.49C199.813 31.4577 199.361 30.3045 199.145 29.0969Z" fill="url(#paint7_linear)"/>
<path d="M76.1453 208.097C75.7112 205.665 76.259 203.161 77.6687 201.132C79.0784 199.104 81.2348 197.718 83.6653 197.277L245.705 168.147C248.137 167.71 250.643 168.257 252.672 169.667C254.701 171.077 256.087 173.235 256.525 175.667C256.741 176.872 256.718 178.107 256.457 179.303C256.195 180.499 255.701 181.632 255.002 182.637C254.302 183.641 253.412 184.499 252.381 185.159C251.351 185.82 250.2 186.271 248.995 186.487L86.9953 215.617C85.7887 215.839 84.5503 215.82 83.351 215.562C82.1517 215.304 81.0152 214.811 80.007 214.112C78.9987 213.414 78.1385 212.522 77.4758 211.49C76.813 210.458 76.3609 209.305 76.1453 208.097Z" fill="url(#paint8_linear)"/>
<path d="M385.145 37.0969C384.711 34.6652 385.259 32.1607 386.669 30.1324C388.078 28.1041 390.235 26.7176 392.665 26.2769L554.705 -2.85314C557.137 -3.28999 559.643 -2.74325 561.672 -1.3331C563.701 0.0770435 565.087 2.23517 565.525 4.66686C565.741 5.87176 565.718 7.10744 565.457 8.30334C565.195 9.49923 564.701 10.6319 564.002 11.6367C563.302 12.6415 562.412 13.4986 561.381 14.1593C560.351 14.8199 559.2 15.271 557.995 15.4869L395.995 44.6169C394.789 44.8389 393.55 44.8203 392.351 44.5621C391.152 44.3039 390.015 43.8112 389.007 43.1124C387.999 42.4136 387.138 41.5224 386.476 40.49C385.813 39.4577 385.361 38.3045 385.145 37.0969Z" fill="url(#paint9_linear)"/>
</g>
</g>
<path d="M276.276 74.926V81.208C275.652 81.508 274.92 81.742 274.08 81.91C273.252 82.078 272.4 82.162 271.524 82.162C270.168 82.162 268.992 81.898 267.996 81.37C267 80.842 266.232 80.086 265.692 79.102C265.164 78.118 264.9 76.942 264.9 75.574C264.9 74.242 265.164 73.084 265.692 72.1C266.232 71.116 266.988 70.36 267.96 69.832C268.944 69.292 270.09 69.022 271.398 69.022C272.322 69.022 273.18 69.148 273.972 69.4C274.776 69.652 275.436 70.006 275.952 70.462L275.052 72.478C274.452 72.046 273.87 71.734 273.306 71.542C272.742 71.35 272.13 71.254 271.47 71.254C268.998 71.254 267.762 72.694 267.762 75.574C267.762 78.514 269.052 79.984 271.632 79.984C272.34 79.984 273.048 79.894 273.756 79.714V76.888H271.236V74.926H276.276ZM279.23 72.874H281.948V82H279.23V72.874ZM282.038 68.59V71.146H279.14V68.59H282.038ZM294.034 72.874V82H291.352V80.65C291.076 81.118 290.686 81.484 290.182 81.748C289.678 82.012 289.108 82.144 288.472 82.144C287.68 82.144 286.978 81.952 286.366 81.568C285.766 81.184 285.292 80.638 284.944 79.93C284.608 79.21 284.44 78.382 284.44 77.446C284.44 76.51 284.608 75.676 284.944 74.944C285.292 74.212 285.772 73.648 286.384 73.252C286.996 72.844 287.692 72.64 288.472 72.64C289.108 72.64 289.678 72.778 290.182 73.054C290.686 73.33 291.076 73.702 291.352 74.17V72.874H294.034ZM289.264 80.074C289.936 80.074 290.452 79.846 290.812 79.39C291.172 78.934 291.352 78.274 291.352 77.41C291.352 76.546 291.172 75.886 290.812 75.43C290.452 74.962 289.936 74.728 289.264 74.728C288.592 74.728 288.07 74.968 287.698 75.448C287.326 75.928 287.14 76.594 287.14 77.446C287.14 78.298 287.32 78.952 287.68 79.408C288.052 79.852 288.58 80.074 289.264 80.074ZM290.164 71.704H288.796V71.254C288.796 71.002 288.856 70.792 288.976 70.624C289.096 70.456 289.258 70.288 289.462 70.12C289.594 70.012 289.69 69.916 289.75 69.832C289.822 69.748 289.858 69.658 289.858 69.562C289.858 69.286 289.654 69.148 289.246 69.148C288.958 69.148 288.658 69.202 288.346 69.31L287.986 68.284C288.49 68.056 289.006 67.942 289.534 67.942C290.194 67.942 290.71 68.074 291.082 68.338C291.454 68.602 291.64 68.926 291.64 69.31C291.64 69.598 291.562 69.832 291.406 70.012C291.262 70.192 291.052 70.378 290.776 70.57C290.572 70.714 290.416 70.846 290.308 70.966C290.212 71.074 290.164 71.2 290.164 71.344V71.704ZM308.107 72.64C309.151 72.64 309.925 72.958 310.429 73.594C310.945 74.218 311.203 75.178 311.203 76.474V82H308.485V76.564C308.485 75.928 308.383 75.472 308.179 75.196C307.975 74.908 307.639 74.764 307.171 74.764C306.619 74.764 306.193 74.956 305.893 75.34C305.593 75.724 305.443 76.264 305.443 76.96V82H302.725V76.564C302.725 75.94 302.617 75.484 302.401 75.196C302.197 74.908 301.867 74.764 301.411 74.764C300.859 74.764 300.427 74.956 300.115 75.34C299.815 75.724 299.665 76.264 299.665 76.96V82H296.947V75.484C296.947 74.512 296.899 73.642 296.803 72.874H299.359L299.521 74.242C299.797 73.726 300.181 73.33 300.673 73.054C301.177 72.778 301.753 72.64 302.401 72.64C303.757 72.64 304.657 73.204 305.101 74.332C305.401 73.816 305.815 73.408 306.343 73.108C306.883 72.796 307.471 72.64 308.107 72.64ZM335.372 78.25V82H320.702V78.55L327.812 70.99C329.292 69.39 330.032 67.93 330.032 66.61C330.032 65.77 329.782 65.14 329.282 64.72C328.802 64.28 328.092 64.06 327.152 64.06C325.332 64.06 323.442 64.75 321.482 66.13L319.982 62.77C320.842 62.03 321.942 61.45 323.282 61.03C324.622 60.59 325.982 60.37 327.362 60.37C329.582 60.37 331.342 60.91 332.642 61.99C333.962 63.05 334.622 64.48 334.622 66.28C334.622 67.52 334.362 68.67 333.842 69.73C333.342 70.77 332.492 71.93 331.292 73.21L326.462 78.25H335.372ZM346.97 82.27C344.39 82.27 342.41 81.33 341.03 79.45C339.67 77.57 338.99 74.85 338.99 71.29C338.99 67.77 339.67 65.08 341.03 63.22C342.41 61.36 344.39 60.43 346.97 60.43C349.55 60.43 351.52 61.36 352.88 63.22C354.26 65.08 354.95 67.77 354.95 71.29C354.95 74.85 354.26 77.57 352.88 79.45C351.52 81.33 349.55 82.27 346.97 82.27ZM346.97 78.67C348.15 78.67 349.01 78.09 349.55 76.93C350.09 75.77 350.36 73.89 350.36 71.29C350.36 68.75 350.09 66.91 349.55 65.77C349.01 64.61 348.15 64.03 346.97 64.03C345.79 64.03 344.93 64.61 344.39 65.77C343.85 66.91 343.58 68.75 343.58 71.29C343.58 73.89 343.85 75.77 344.39 76.93C344.93 78.09 345.79 78.67 346.97 78.67ZM363.788 73.36C362.068 73.36 360.718 72.8 359.738 71.68C358.758 70.56 358.268 68.93 358.268 66.79C358.268 64.71 358.758 63.11 359.738 61.99C360.718 60.87 362.068 60.31 363.788 60.31C365.528 60.31 366.888 60.87 367.868 61.99C368.848 63.11 369.338 64.72 369.338 66.82C369.338 68.94 368.848 70.56 367.868 71.68C366.888 72.8 365.528 73.36 363.788 73.36ZM363.458 82L375.848 60.64H379.748L367.358 82H363.458ZM363.788 70.51C364.428 70.51 364.888 70.23 365.168 69.67C365.468 69.09 365.618 68.14 365.618 66.82C365.618 65.52 365.468 64.59 365.168 64.03C364.868 63.45 364.408 63.16 363.788 63.16C363.188 63.16 362.738 63.45 362.438 64.03C362.158 64.59 362.018 65.52 362.018 66.82C362.018 68.14 362.158 69.09 362.438 69.67C362.718 70.23 363.168 70.51 363.788 70.51ZM379.388 82.21C377.668 82.21 376.318 81.65 375.338 80.53C374.378 79.41 373.898 77.78 373.898 75.64C373.898 73.54 374.378 71.94 375.338 70.84C376.318 69.72 377.668 69.16 379.388 69.16C381.148 69.16 382.508 69.72 383.468 70.84C384.448 71.94 384.938 73.55 384.938 75.67C384.938 77.79 384.448 79.41 383.468 80.53C382.508 81.65 381.148 82.21 379.388 82.21ZM379.388 79.36C380.028 79.36 380.488 79.08 380.768 78.52C381.068 77.94 381.218 76.99 381.218 75.67C381.218 74.37 381.068 73.44 380.768 72.88C380.468 72.3 380.008 72.01 379.388 72.01C378.788 72.01 378.338 72.3 378.038 72.88C377.758 73.44 377.618 74.37 377.618 75.67C377.618 76.99 377.758 77.94 378.038 78.52C378.318 79.08 378.768 79.36 379.388 79.36ZM397.575 74.908V78.454C397.575 78.958 397.707 79.33 397.971 79.57C398.235 79.798 398.577 79.912 398.997 79.912C399.261 79.912 399.561 79.87 399.897 79.786V81.892C399.465 82.06 398.943 82.144 398.331 82.144C397.203 82.144 396.339 81.826 395.739 81.19C395.151 80.554 394.857 79.66 394.857 78.508V74.908H393.129V72.874H394.857V70.732L397.575 69.85V72.874H399.897V74.908H397.575ZM407.321 72.658C407.705 72.658 408.029 72.718 408.293 72.838L408.275 75.322C407.831 75.118 407.387 75.016 406.943 75.016C406.223 75.016 405.671 75.214 405.287 75.61C404.915 75.994 404.729 76.534 404.729 77.23V82H402.011V75.484C402.011 74.512 401.963 73.642 401.867 72.874H404.423L404.603 74.44C404.831 73.864 405.185 73.426 405.665 73.126C406.157 72.814 406.709 72.658 407.321 72.658ZM414.294 82.144C413.322 82.144 412.47 81.952 411.738 81.568C411.018 81.184 410.46 80.632 410.064 79.912C409.68 79.192 409.488 78.352 409.488 77.392C409.488 76.432 409.68 75.592 410.064 74.872C410.46 74.152 411.018 73.6 411.738 73.216C412.47 72.832 413.322 72.64 414.294 72.64C415.254 72.64 416.094 72.832 416.814 73.216C417.534 73.6 418.086 74.152 418.47 74.872C418.866 75.592 419.064 76.432 419.064 77.392C419.064 78.352 418.866 79.192 418.47 79.912C418.086 80.632 417.534 81.184 416.814 81.568C416.094 81.952 415.254 82.144 414.294 82.144ZM414.294 80.074C414.966 80.074 415.476 79.852 415.824 79.408C416.184 78.964 416.364 78.292 416.364 77.392C416.364 76.504 416.184 75.838 415.824 75.394C415.476 74.938 414.966 74.71 414.294 74.71C413.61 74.71 413.088 74.938 412.728 75.394C412.368 75.838 412.188 76.504 412.188 77.392C412.188 79.18 412.89 80.074 414.294 80.074ZM415.536 83.224V85.618H413.034V83.224H415.536ZM427.156 72.64C429.316 72.64 430.396 73.918 430.396 76.474V82H427.678V76.6C427.678 75.964 427.558 75.502 427.318 75.214C427.09 74.914 426.724 74.764 426.22 74.764C425.62 74.764 425.14 74.956 424.78 75.34C424.42 75.724 424.24 76.24 424.24 76.888V82H421.522V75.484C421.522 74.512 421.474 73.642 421.378 72.874H423.934L424.114 74.314C424.438 73.774 424.858 73.36 425.374 73.072C425.902 72.784 426.496 72.64 427.156 72.64ZM449.809 71.92H448.207V82H445.525V80.65C445.249 81.118 444.859 81.484 444.355 81.748C443.851 82.012 443.281 82.144 442.645 82.144C441.865 82.144 441.169 81.946 440.557 81.55C439.945 81.142 439.465 80.578 439.117 79.858C438.781 79.126 438.613 78.292 438.613 77.356C438.613 76.42 438.781 75.598 439.117 74.89C439.465 74.17 439.939 73.618 440.539 73.234C441.151 72.838 441.853 72.64 442.645 72.64C443.257 72.64 443.815 72.772 444.319 73.036C444.823 73.288 445.213 73.642 445.489 74.098V71.92H442.033V70.03H445.489V68.752H448.207V70.03H449.809V71.92ZM443.437 80.074C444.109 80.074 444.625 79.846 444.985 79.39C445.345 78.922 445.525 78.256 445.525 77.392C445.525 76.54 445.339 75.886 444.967 75.43C444.607 74.962 444.097 74.728 443.437 74.728C442.765 74.728 442.243 74.956 441.871 75.412C441.499 75.868 441.313 76.516 441.313 77.356C441.313 78.22 441.499 78.892 441.871 79.372C442.243 79.84 442.765 80.074 443.437 80.074ZM460.679 71.236C460.679 71.884 460.523 72.448 460.211 72.928C459.899 73.408 459.473 73.75 458.933 73.954C459.365 74.362 459.689 74.866 459.905 75.466C460.133 76.054 460.247 76.702 460.247 77.41C460.247 78.37 460.049 79.21 459.653 79.93C459.269 80.638 458.717 81.184 457.997 81.568C457.277 81.952 456.437 82.144 455.477 82.144C454.505 82.144 453.653 81.952 452.921 81.568C452.201 81.184 451.643 80.638 451.247 79.93C450.863 79.21 450.671 78.37 450.671 77.41C450.671 76.438 450.863 75.598 451.247 74.89C451.643 74.17 452.201 73.618 452.921 73.234C453.641 72.838 454.475 72.64 455.423 72.64C455.711 72.64 456.071 72.676 456.503 72.748C456.707 72.784 456.857 72.802 456.953 72.802C457.385 72.802 457.727 72.67 457.979 72.406C458.231 72.13 458.357 71.632 458.357 70.912V70.552H460.679V71.236ZM455.477 80.074C456.149 80.074 456.659 79.852 457.007 79.408C457.367 78.964 457.547 78.292 457.547 77.392C457.547 76.504 457.367 75.838 457.007 75.394C456.659 74.938 456.149 74.71 455.477 74.71C454.793 74.71 454.271 74.938 453.911 75.394C453.551 75.838 453.371 76.504 453.371 77.392C453.371 79.18 454.073 80.074 455.477 80.074ZM451.859 67.996H454.523L456.305 71.704H454.631L451.859 67.996ZM462.704 72.874H465.422V82H462.704V72.874ZM465.512 68.59V71.146H462.614V68.59H465.512ZM269.418 105.144C267.93 105.144 266.76 104.724 265.908 103.884C265.068 103.044 264.648 101.898 264.648 100.446C264.648 99.498 264.852 98.664 265.26 97.944C265.668 97.212 266.238 96.648 266.97 96.252C267.714 95.844 268.572 95.64 269.544 95.64C270.204 95.64 270.846 95.742 271.47 95.946C272.094 96.15 272.592 96.426 272.964 96.774L272.244 98.664C271.884 98.376 271.488 98.154 271.056 97.998C270.624 97.83 270.204 97.746 269.796 97.746C269.052 97.746 268.47 97.974 268.05 98.43C267.642 98.874 267.438 99.528 267.438 100.392C267.438 101.268 267.642 101.934 268.05 102.39C268.458 102.834 269.04 103.056 269.796 103.056C270.204 103.056 270.624 102.978 271.056 102.822C271.488 102.654 271.884 102.426 272.244 102.138L272.964 104.028C272.568 104.376 272.052 104.652 271.416 104.856C270.78 105.048 270.114 105.144 269.418 105.144ZM280.61 95.64C282.77 95.64 283.85 96.918 283.85 99.474V105H281.132V99.6C281.132 98.964 281.012 98.502 280.772 98.214C280.544 97.914 280.178 97.764 279.674 97.764C279.074 97.764 278.594 97.956 278.234 98.34C277.874 98.724 277.694 99.24 277.694 99.888V105H274.976V91.752H277.694V97.116C278.018 96.636 278.432 96.27 278.936 96.018C279.44 95.766 279.998 95.64 280.61 95.64ZM291.091 105.144C290.119 105.144 289.267 104.952 288.535 104.568C287.815 104.184 287.257 103.632 286.861 102.912C286.477 102.192 286.285 101.352 286.285 100.392C286.285 99.432 286.477 98.592 286.861 97.872C287.257 97.152 287.815 96.6 288.535 96.216C289.267 95.832 290.119 95.64 291.091 95.64C292.051 95.64 292.891 95.832 293.611 96.216C294.331 96.6 294.883 97.152 295.267 97.872C295.663 98.592 295.861 99.432 295.861 100.392C295.861 101.352 295.663 102.192 295.267 102.912C294.883 103.632 294.331 104.184 293.611 104.568C292.891 104.952 292.051 105.144 291.091 105.144ZM291.091 103.074C291.763 103.074 292.273 102.852 292.621 102.408C292.981 101.964 293.161 101.292 293.161 100.392C293.161 99.504 292.981 98.838 292.621 98.394C292.273 97.938 291.763 97.71 291.091 97.71C290.407 97.71 289.885 97.938 289.525 98.394C289.165 98.838 288.985 99.504 288.985 100.392C288.985 102.18 289.687 103.074 291.091 103.074ZM307.521 97.908V101.454C307.521 101.958 307.653 102.33 307.917 102.57C308.181 102.798 308.523 102.912 308.943 102.912C309.207 102.912 309.507 102.87 309.843 102.786V104.892C309.411 105.06 308.889 105.144 308.277 105.144C307.149 105.144 306.285 104.826 305.685 104.19C305.097 103.554 304.803 102.66 304.803 101.508V97.908H303.075V95.874H304.803V93.732L307.521 92.85V95.874H309.843V97.908H307.521ZM321.102 95.874V105H318.42V103.65C318.144 104.118 317.754 104.484 317.25 104.748C316.746 105.012 316.176 105.144 315.54 105.144C314.748 105.144 314.046 104.952 313.434 104.568C312.834 104.184 312.36 103.638 312.012 102.93C311.676 102.21 311.508 101.382 311.508 100.446C311.508 99.51 311.676 98.676 312.012 97.944C312.36 97.212 312.84 96.648 313.452 96.252C314.064 95.844 314.76 95.64 315.54 95.64C316.176 95.64 316.746 95.778 317.25 96.054C317.754 96.33 318.144 96.702 318.42 97.17V95.874H321.102ZM316.332 103.074C317.004 103.074 317.52 102.846 317.88 102.39C318.24 101.934 318.42 101.274 318.42 100.41C318.42 99.546 318.24 98.886 317.88 98.43C317.52 97.962 317.004 97.728 316.332 97.728C315.66 97.728 315.138 97.968 314.766 98.448C314.394 98.928 314.208 99.594 314.208 100.446C314.208 101.298 314.388 101.952 314.748 102.408C315.12 102.852 315.648 103.074 316.332 103.074ZM318.222 92.778L319.536 90.222H321.786L319.554 92.778H318.222ZM313.344 94.704L315.738 92.202H317.304L319.698 94.704H317.682L316.53 93.426L315.36 94.704H313.344ZM327.436 97.908V101.454C327.436 101.958 327.568 102.33 327.832 102.57C328.096 102.798 328.438 102.912 328.858 102.912C329.122 102.912 329.422 102.87 329.758 102.786V104.892C329.326 105.06 328.804 105.144 328.192 105.144C327.064 105.144 326.2 104.826 325.6 104.19C325.012 103.554 324.718 102.66 324.718 101.508V97.908H322.99V95.874H324.718V93.732L327.436 92.85V95.874H329.758V97.908H327.436ZM341.975 105.144C340.487 105.144 339.317 104.724 338.465 103.884C337.625 103.044 337.205 101.898 337.205 100.446C337.205 99.498 337.409 98.664 337.817 97.944C338.225 97.212 338.795 96.648 339.527 96.252C340.271 95.844 341.129 95.64 342.101 95.64C342.761 95.64 343.403 95.742 344.027 95.946C344.651 96.15 345.149 96.426 345.521 96.774L344.801 98.664C344.441 98.376 344.045 98.154 343.613 97.998C343.181 97.83 342.761 97.746 342.353 97.746C341.609 97.746 341.027 97.974 340.607 98.43C340.199 98.874 339.995 99.528 339.995 100.392C339.995 101.268 340.199 101.934 340.607 102.39C341.015 102.834 341.597 103.056 342.353 103.056C342.761 103.056 343.181 102.978 343.613 102.822C344.045 102.654 344.441 102.426 344.801 102.138L345.521 104.028C345.125 104.376 344.609 104.652 343.973 104.856C343.337 105.048 342.671 105.144 341.975 105.144ZM356.677 95.874V105H353.995V103.65C353.719 104.118 353.329 104.484 352.825 104.748C352.321 105.012 351.751 105.144 351.115 105.144C350.323 105.144 349.621 104.952 349.009 104.568C348.409 104.184 347.935 103.638 347.587 102.93C347.251 102.21 347.083 101.382 347.083 100.446C347.083 99.51 347.251 98.676 347.587 97.944C347.935 97.212 348.415 96.648 349.027 96.252C349.639 95.844 350.335 95.64 351.115 95.64C351.751 95.64 352.321 95.778 352.825 96.054C353.329 96.33 353.719 96.702 353.995 97.17V95.874H356.677ZM351.907 103.074C352.579 103.074 353.095 102.846 353.455 102.39C353.815 101.934 353.995 101.274 353.995 100.41C353.995 99.546 353.815 98.886 353.455 98.43C353.095 97.962 352.579 97.728 351.907 97.728C351.235 97.728 350.713 97.968 350.341 98.448C349.969 98.928 349.783 99.594 349.783 100.446C349.783 101.298 349.963 101.952 350.323 102.408C350.695 102.852 351.223 103.074 351.907 103.074ZM352.807 94.704H351.439V94.254C351.439 94.002 351.499 93.792 351.619 93.624C351.739 93.456 351.901 93.288 352.105 93.12C352.237 93.012 352.333 92.916 352.393 92.832C352.465 92.748 352.501 92.658 352.501 92.562C352.501 92.286 352.297 92.148 351.889 92.148C351.601 92.148 351.301 92.202 350.989 92.31L350.629 91.284C351.133 91.056 351.649 90.942 352.177 90.942C352.837 90.942 353.353 91.074 353.725 91.338C354.097 91.602 354.283 91.926 354.283 92.31C354.283 92.598 354.205 92.832 354.049 93.012C353.905 93.192 353.695 93.378 353.419 93.57C353.215 93.714 353.059 93.846 352.951 93.966C352.855 94.074 352.807 94.2 352.807 94.344V94.704ZM374.607 95.874V104.586C374.607 106.038 374.187 107.142 373.347 107.898C372.507 108.654 371.283 109.032 369.675 109.032C368.223 109.032 366.963 108.75 365.895 108.186L366.309 106.17C367.413 106.722 368.505 106.998 369.585 106.998C370.365 106.998 370.947 106.812 371.331 106.44C371.715 106.08 371.907 105.528 371.907 104.784V103.2C371.619 103.644 371.217 104.016 370.701 104.316C370.185 104.604 369.615 104.748 368.991 104.748C368.199 104.748 367.497 104.562 366.885 104.19C366.273 103.806 365.793 103.272 365.445 102.588C365.097 101.892 364.923 101.094 364.923 100.194C364.923 99.294 365.097 98.502 365.445 97.818C365.793 97.122 366.273 96.588 366.885 96.216C367.497 95.832 368.199 95.64 368.991 95.64C369.627 95.64 370.203 95.778 370.719 96.054C371.235 96.33 371.631 96.702 371.907 97.17V95.874H374.607ZM369.783 102.678C370.443 102.678 370.959 102.462 371.331 102.03C371.715 101.586 371.907 100.974 371.907 100.194C371.907 99.426 371.721 98.826 371.349 98.394C370.977 97.95 370.455 97.728 369.783 97.728C369.111 97.728 368.583 97.95 368.199 98.394C367.815 98.826 367.623 99.426 367.623 100.194C367.623 100.962 367.815 101.568 368.199 102.012C368.583 102.456 369.111 102.678 369.783 102.678ZM377.502 95.874H380.22V105H377.502V95.874ZM380.31 91.59V94.146H377.412V91.59H380.31ZM392.305 95.874V105H389.623V103.65C389.347 104.118 388.957 104.484 388.453 104.748C387.949 105.012 387.379 105.144 386.743 105.144C385.951 105.144 385.249 104.952 384.637 104.568C384.037 104.184 383.563 103.638 383.215 102.93C382.879 102.21 382.711 101.382 382.711 100.446C382.711 99.51 382.879 98.676 383.215 97.944C383.563 97.212 384.043 96.648 384.655 96.252C385.267 95.844 385.963 95.64 386.743 95.64C387.379 95.64 387.949 95.778 388.453 96.054C388.957 96.33 389.347 96.702 389.623 97.17V95.874H392.305ZM387.535 103.074C388.207 103.074 388.723 102.846 389.083 102.39C389.443 101.934 389.623 101.274 389.623 100.41C389.623 99.546 389.443 98.886 389.083 98.43C388.723 97.962 388.207 97.728 387.535 97.728C386.863 97.728 386.341 97.968 385.969 98.448C385.597 98.928 385.411 99.594 385.411 100.446C385.411 101.298 385.591 101.952 385.951 102.408C386.323 102.852 386.851 103.074 387.535 103.074ZM399.575 105.144C398.603 105.144 397.751 104.952 397.019 104.568C396.299 104.184 395.741 103.632 395.345 102.912C394.961 102.192 394.769 101.352 394.769 100.392C394.769 99.432 394.961 98.592 395.345 97.872C395.741 97.152 396.299 96.6 397.019 96.216C397.751 95.832 398.603 95.64 399.575 95.64C400.535 95.64 401.375 95.832 402.095 96.216C402.815 96.6 403.367 97.152 403.751 97.872C404.147 98.592 404.345 99.432 404.345 100.392C404.345 101.352 404.147 102.192 403.751 102.912C403.367 103.632 402.815 104.184 402.095 104.568C401.375 104.952 400.535 105.144 399.575 105.144ZM399.575 103.074C400.247 103.074 400.757 102.852 401.105 102.408C401.465 101.964 401.645 101.292 401.645 100.392C401.645 99.504 401.465 98.838 401.105 98.394C400.757 97.938 400.247 97.71 399.575 97.71C398.891 97.71 398.369 97.938 398.009 98.394C397.649 98.838 397.469 99.504 397.469 100.392C397.469 102.18 398.171 103.074 399.575 103.074ZM421.729 91.752V105H419.047V103.65C418.771 104.118 418.381 104.484 417.877 104.748C417.373 105.012 416.803 105.144 416.167 105.144C415.387 105.144 414.691 104.946 414.079 104.55C413.467 104.142 412.987 103.578 412.639 102.858C412.303 102.126 412.135 101.292 412.135 100.356C412.135 99.42 412.303 98.598 412.639 97.89C412.987 97.17 413.461 96.618 414.061 96.234C414.673 95.838 415.375 95.64 416.167 95.64C416.779 95.64 417.337 95.772 417.841 96.036C418.345 96.288 418.735 96.642 419.011 97.098V91.752H421.729ZM416.959 103.074C417.631 103.074 418.147 102.846 418.507 102.39C418.867 101.922 419.047 101.256 419.047 100.392C419.047 99.54 418.861 98.886 418.489 98.43C418.129 97.962 417.619 97.728 416.959 97.728C416.287 97.728 415.765 97.956 415.393 98.412C415.021 98.868 414.835 99.516 414.835 100.356C414.835 101.22 415.021 101.892 415.393 102.372C415.765 102.84 416.287 103.074 416.959 103.074ZM424.643 95.874H427.361V105H424.643V95.874ZM427.451 91.59V94.146H424.553V91.59H427.451ZM427.235 106.224V108.618H424.733V106.224H427.235ZM434.622 105.144C433.134 105.144 431.964 104.724 431.112 103.884C430.272 103.044 429.852 101.898 429.852 100.446C429.852 99.498 430.056 98.664 430.464 97.944C430.872 97.212 431.442 96.648 432.174 96.252C432.918 95.844 433.776 95.64 434.748 95.64C435.408 95.64 436.05 95.742 436.674 95.946C437.298 96.15 437.796 96.426 438.168 96.774L437.448 98.664C437.088 98.376 436.692 98.154 436.26 97.998C435.828 97.83 435.408 97.746 435 97.746C434.256 97.746 433.674 97.974 433.254 98.43C432.846 98.874 432.642 99.528 432.642 100.392C432.642 101.268 432.846 101.934 433.254 102.39C433.662 102.834 434.244 103.056 435 103.056C435.408 103.056 435.828 102.978 436.26 102.822C436.692 102.654 437.088 102.426 437.448 102.138L438.168 104.028C437.772 104.376 437.256 104.652 436.62 104.856C435.984 105.048 435.318 105.144 434.622 105.144ZM445.814 95.64C447.974 95.64 449.054 96.918 449.054 99.474V105H446.336V99.6C446.336 98.964 446.216 98.502 445.976 98.214C445.748 97.914 445.382 97.764 444.878 97.764C444.278 97.764 443.798 97.956 443.438 98.34C443.078 98.724 442.898 99.24 442.898 99.888V105H440.18V91.752H442.898V97.116C443.222 96.636 443.636 96.27 444.14 96.018C444.644 95.766 445.202 95.64 445.814 95.64Z" fill="white"/>
<defs>
<filter id="filter0_d" x="0" y="0" width="528.5" height="202" filterUnits="userSpaceOnUse" color-interpolation-filters="sRGB">
<feFlood flood-opacity="0" result="BackgroundImageFix"/>
<feColorMatrix in="SourceAlpha" type="matrix" values="0 0 0 0 0 0 0 0 0 0 0 0 0 0 0 0 0 0 127 0"/>
<feOffset dx="4" dy="4"/>
<feGaussianBlur stdDeviation="5"/>
<feColorMatrix type="matrix" values="0 0 0 0 0.200282 0 0 0 0 0.254481 0 0 0 0 0.335778 0 0 0 0.1 0"/>
<feBlend mode="normal" in2="BackgroundImageFix" result="effect1_dropShadow"/>
<feBlend mode="normal" in="SourceGraphic" in2="effect1_dropShadow" result="shape"/>
</filter>
<linearGradient id="paint0_linear" x1="486" y1="76" x2="55" y2="108.5" gradientUnits="userSpaceOnUse">
<stop stop-color="#0B499A"/>
<stop offset="1" stop-color="#1764B9"/>
</linearGradient>
<radialGradient id="paint1_radial" cx="0" cy="0" r="1" gradientUnits="userSpaceOnUse" gradientTransform="translate(149.577 161.704) scale(85.2823 11.3121)">
<stop stop-color="#003370"/>
<stop offset="0.2" stop-color="#003370" stop-opacity="0.68"/>
<stop offset="0.42" stop-color="#003370" stop-opacity="0.38"/>
<stop offset="0.63" stop-color="#003370" stop-opacity="0.17"/>
<stop offset="0.83" stop-color="#003370" stop-opacity="0.04"/>
<stop offset="1" stop-color="#003370" stop-opacity="0"/>
</radialGradient>
<linearGradient id="paint2_linear" x1="79.3877" y1="53.7695" x2="168.783" y2="53.7695" gradientUnits="userSpaceOnUse">
<stop stop-color="#F4BA14"/>
<stop offset="1" stop-color="#F57711"/>
</linearGradient>
<linearGradient id="paint3_linear" x1="7035.77" y1="3776.34" x2="11437.2" y2="3577.84" gradientUnits="userSpaceOnUse">
<stop stop-color="#F4BA14"/>
<stop offset="1" stop-color="#F57711"/>
</linearGradient>
<linearGradient id="paint4_linear" x1="486" y1="76" x2="55" y2="108.5" gradientUnits="userSpaceOnUse">
<stop stop-color="#0B499A"/>
<stop offset="1" stop-color="#1764B9"/>
</linearGradient>
<linearGradient id="paint5_linear" x1="386.065" y1="72.1769" x2="272.865" y2="107.047" gradientUnits="userSpaceOnUse">
<stop stop-color="#1765BA"/>
<stop offset="1" stop-color="#0A4798"/>
</linearGradient>
<linearGradient id="paint6_linear" x1="533.065" y1="98.1769" x2="419.865" y2="133.047" gradientUnits="userSpaceOnUse">
<stop stop-color="#1765BA"/>
<stop offset="1" stop-color="#0A4798"/>
</linearGradient>
<linearGradient id="paint7_linear" x1="337.065" y1="-1.82314" x2="223.865" y2="33.0469" gradientUnits="userSpaceOnUse">
<stop stop-color="#1765BA"/>
<stop offset="1" stop-color="#0A4798"/>
</linearGradient>
<linearGradient id="paint8_linear" x1="214.065" y1="177.177" x2="100.865" y2="212.047" gradientUnits="userSpaceOnUse">
<stop stop-color="#1765BA"/>
<stop offset="1" stop-color="#0A4798"/>
</linearGradient>
<linearGradient id="paint9_linear" x1="523.065" y1="6.17686" x2="409.865" y2="41.0469" gradientUnits="userSpaceOnUse">
<stop stop-color="#1765BA"/>
<stop offset="1" stop-color="#0A4798"/>
</linearGradient>
</defs>
</svg>
