<svg width="1034" height="182" viewBox="0 0 1034 182" fill="none" xmlns="http://www.w3.org/2000/svg">
<mask id="mask0" mask-type="alpha" maskUnits="userSpaceOnUse" x="0" y="0" width="1034" height="182">
<rect width="1034" height="182" rx="4" fill="#C4C4C4"/>
</mask>
<g mask="url(#mask0)">
<g filter="url(#filter0_d)">
<rect y="1" width="1034" height="182" rx="4" fill="url(#paint0_linear)"/>
</g>
<mask id="mask1" mask-type="alpha" maskUnits="userSpaceOnUse" x="0" y="1" width="1034" height="182">
<rect y="1" width="1034" height="182" rx="4" fill="url(#paint1_linear)"/>
</mask>
<g mask="url(#mask1)">
<g opacity="0.46">
<path opacity="0.46" d="M126.88 -43H108.305L173.408 12.75L126.88 -43Z" fill="#FFF7A9"/>
<path opacity="0.46" d="M-10.5044 -28.89V-13.69C37.5387 4.30999 124.752 37.05 127.98 37.94C131.208 38.83 38.765 -5.38001 -10.5044 -28.89Z" fill="#FFF7A9"/>
<path opacity="0.46" d="M-10.5044 95.4399V103.68L107.674 113.77L-10.5044 95.4399Z" fill="#FFF7A9"/>
<path opacity="0.46" d="M-61 24V55.86L192.705 103.31L-61 24Z" fill="#FFF7A9"/>
<path opacity="0.46" d="M264.301 -43H245.924L308.575 14.59L264.301 -43Z" fill="#FFF7A9"/>
<path opacity="0.46" d="M767.924 -43H748.663L700.8 28.11L767.924 -43Z" fill="#FFF7A9"/>
<path opacity="0.46" d="M1034 126.76V108L815.461 126.23L1034 126.76Z" fill="#FFF7A9"/>
<path opacity="0.46" d="M973.622 -29.75V-39.46C973.622 -39.9249 973.456 -40.3852 973.136 -40.8147C972.815 -41.2442 972.344 -41.6344 971.752 -41.9632C971.159 -42.2919 970.455 -42.5526 969.68 -42.7305C968.906 -42.9084 968.076 -43 967.237 -43H938.581L759.556 85.24L973.622 -29.75Z" fill="#FFF7A9"/>
<path opacity="0.46" d="M460.242 -43H444.102L473.66 12.13L460.242 -43Z" fill="#FFF7A9"/>
<path opacity="0.46" d="M577.392 -43H561.107L555.661 2.3L577.392 -43Z" fill="#FFF7A9"/>
<path opacity="0.46" d="M371.55 -43H358.114L381.703 1.07L371.55 -43Z" fill="#FFF7A9"/>
<path opacity="0.46" d="M831.548 176.78L973.621 221V211.29L831.548 176.78Z" fill="#FFF7A9"/>
</g>
<g opacity="0.46">
<path opacity="0.46" d="M-10.5044 128.85V137.32L77.0155 120.99L-10.5044 128.85Z" fill="#FFF7A9"/>
<path opacity="0.46" d="M623.687 204.8H637.663L625.454 153.56L623.687 204.8Z" fill="#FFF7A9"/>
<path opacity="0.46" d="M786.95 204.8H813.929L759.52 156.63L786.95 204.8Z" fill="#FFF7A9"/>
<path opacity="0.46" d="M54.4189 199.55H128.071L222.425 144L54.4189 199.55Z" fill="#FFF7A9"/>
</g>
</g>
<path d="M383.128 105.208H375.136L373.504 109H369.736L377.584 91.912H380.608L388.456 109H384.76L383.128 105.208ZM381.904 102.352L379.144 95.944L376.384 102.352H381.904ZM389.915 91.912H397.667C399.555 91.912 401.019 92.368 402.059 93.28C403.115 94.192 403.643 95.432 403.643 97C403.643 98.552 403.115 99.792 402.059 100.72C401.003 101.632 399.539 102.088 397.667 102.088H393.659V109H389.915V91.912ZM397.187 99.232C399.139 99.232 400.115 98.496 400.115 97.024C400.115 95.536 399.139 94.792 397.187 94.792H393.659V99.232H397.187ZM406.11 91.912H413.862C415.75 91.912 417.214 92.368 418.254 93.28C419.31 94.192 419.838 95.432 419.838 97C419.838 98.552 419.31 99.792 418.254 100.72C417.198 101.632 415.734 102.088 413.862 102.088H409.854V109H406.11V91.912ZM413.382 99.232C415.334 99.232 416.31 98.496 416.31 97.024C416.31 95.536 415.334 94.792 413.382 94.792H409.854V99.232H413.382ZM422.306 91.912H426.05V105.952H433.682V109H422.306V91.912ZM440.818 102.376V109H437.074V102.352L430.018 91.912H434.266L438.922 99.208L443.626 91.912H447.898L440.818 102.376ZM455.095 91.912H466.615V94.864H458.791V98.824H466.135V101.8H458.791V109H455.095V91.912ZM476.677 109.216C474.981 109.216 473.501 108.864 472.237 108.16C470.989 107.44 470.021 106.416 469.333 105.088C468.661 103.76 468.325 102.208 468.325 100.432C468.325 98.656 468.661 97.112 469.333 95.8C470.021 94.488 470.989 93.48 472.237 92.776C473.501 92.056 474.981 91.696 476.677 91.696C478.373 91.696 479.845 92.056 481.093 92.776C482.341 93.48 483.301 94.488 483.973 95.8C484.645 97.112 484.981 98.656 484.981 100.432C484.981 102.208 484.645 103.76 483.973 105.088C483.301 106.416 482.341 107.44 481.093 108.16C479.845 108.864 478.373 109.216 476.677 109.216ZM476.677 106.288C478.117 106.288 479.237 105.784 480.037 104.776C480.853 103.768 481.261 102.32 481.261 100.432C481.261 98.544 480.853 97.104 480.037 96.112C479.237 95.12 478.117 94.624 476.677 94.624C475.237 94.624 474.109 95.12 473.293 96.112C472.493 97.104 472.093 98.544 472.093 100.432C472.093 102.336 472.493 103.792 473.293 104.8C474.109 105.792 475.237 106.288 476.677 106.288ZM502.331 109H498.371L496.187 103.312C496.011 102.864 495.739 102.552 495.371 102.376C495.019 102.2 494.571 102.112 494.027 102.112H491.603V109H487.907V91.912H495.515C497.499 91.912 499.003 92.344 500.027 93.208C501.051 94.072 501.563 95.312 501.563 96.928C501.563 98.064 501.259 99.04 500.651 99.856C500.059 100.672 499.203 101.256 498.083 101.608C499.091 101.816 499.819 102.512 500.267 103.696L502.331 109ZM494.963 99.256C496.035 99.256 496.819 99.08 497.315 98.728C497.811 98.36 498.059 97.792 498.059 97.024C498.059 96.256 497.811 95.696 497.315 95.344C496.819 94.976 496.035 94.792 494.963 94.792H491.555V99.256H494.963ZM523.073 105.208H515.081L513.449 109H509.681L517.529 91.912H520.553L528.401 109H524.705L523.073 105.208ZM521.849 102.352L519.089 95.944L516.329 102.352H521.849ZM529.86 91.912H533.604V105.952H541.236V109H529.86V91.912ZM543.524 91.912H547.268V105.952H554.9V109H543.524V91.912ZM567.874 94.96H562.522V91.912H577.018V94.96H571.666V109H567.874V94.96ZM593.433 109H589.473L587.289 103.312C587.113 102.864 586.841 102.552 586.473 102.376C586.121 102.2 585.673 102.112 585.129 102.112H582.705V109H579.009V91.912H586.617C588.601 91.912 590.105 92.344 591.129 93.208C592.153 94.072 592.665 95.312 592.665 96.928C592.665 98.064 592.361 99.04 591.753 99.856C591.161 100.672 590.305 101.256 589.185 101.608C590.193 101.816 590.921 102.512 591.369 103.696L593.433 109ZM586.065 99.256C587.137 99.256 587.921 99.08 588.417 98.728C588.913 98.36 589.161 97.792 589.161 97.024C589.161 96.256 588.913 95.696 588.417 95.344C587.921 94.976 587.137 94.792 586.065 94.792H582.657V99.256H586.065ZM607.191 105.208H599.199L597.567 109H593.798L601.647 91.912H604.671L612.519 109H608.823L607.191 105.208ZM605.967 102.352L603.207 95.944L600.447 102.352H605.967ZM628.785 91.912V109H626.001L617.481 98.104V109H613.977V91.912H616.737L625.257 102.784V91.912H628.785ZM638.188 109.216C636.892 109.216 635.644 109.048 634.444 108.712C633.26 108.36 632.276 107.872 631.492 107.248L632.692 104.56C634.34 105.712 636.18 106.288 638.212 106.288C639.3 106.288 640.132 106.12 640.708 105.784C641.3 105.432 641.596 104.944 641.596 104.32C641.596 103.776 641.324 103.352 640.78 103.048C640.252 102.728 639.316 102.424 637.972 102.136C636.468 101.832 635.268 101.464 634.372 101.032C633.492 100.584 632.844 100.048 632.428 99.424C632.028 98.784 631.828 97.992 631.828 97.048C631.828 96.024 632.108 95.104 632.668 94.288C633.244 93.472 634.044 92.84 635.068 92.392C636.092 91.928 637.276 91.696 638.62 91.696C639.836 91.696 641.004 91.872 642.124 92.224C643.244 92.576 644.14 93.056 644.812 93.664L643.612 96.352C642.108 95.2 640.452 94.624 638.644 94.624C637.684 94.624 636.916 94.816 636.34 95.2C635.764 95.584 635.476 96.104 635.476 96.76C635.476 97.144 635.58 97.464 635.788 97.72C636.012 97.976 636.38 98.208 636.892 98.416C637.404 98.608 638.132 98.8 639.076 98.992C641.268 99.472 642.844 100.096 643.804 100.864C644.78 101.632 645.268 102.68 645.268 104.008C645.268 105.608 644.644 106.88 643.396 107.824C642.148 108.752 640.412 109.216 638.188 109.216ZM659.175 105.208H651.183L649.551 109H645.783L653.631 91.912H656.655L664.503 109H660.807L659.175 105.208ZM657.951 102.352L655.191 95.944L652.431 102.352H657.951ZM673.509 109.216C671.781 109.216 670.269 108.856 668.973 108.136C667.693 107.4 666.709 106.376 666.021 105.064C665.333 103.736 664.989 102.192 664.989 100.432C664.989 98.688 665.333 97.16 666.021 95.848C666.709 94.52 667.693 93.496 668.973 92.776C670.269 92.056 671.781 91.696 673.509 91.696C674.645 91.696 675.725 91.872 676.749 92.224C677.789 92.56 678.637 93.04 679.293 93.664L678.117 96.352C677.349 95.776 676.597 95.36 675.861 95.104C675.141 94.832 674.381 94.696 673.581 94.696C672.045 94.696 670.869 95.184 670.053 96.16C669.237 97.136 668.829 98.56 668.829 100.432C668.829 102.32 669.237 103.76 670.053 104.752C670.869 105.728 672.045 106.216 673.581 106.216C674.381 106.216 675.141 106.088 675.861 105.832C676.597 105.56 677.349 105.136 678.117 104.56L679.293 107.248C678.637 107.872 677.789 108.36 676.749 108.712C675.725 109.048 674.645 109.216 673.509 109.216ZM685.624 94.96H680.272V91.912H694.768V94.96H689.416V109H685.624V94.96ZM696.759 91.912H700.503V109H696.759V91.912ZM711.779 109.216C710.083 109.216 708.603 108.864 707.339 108.16C706.091 107.44 705.123 106.416 704.435 105.088C703.763 103.76 703.427 102.208 703.427 100.432C703.427 98.656 703.763 97.112 704.435 95.8C705.123 94.488 706.091 93.48 707.339 92.776C708.603 92.056 710.083 91.696 711.779 91.696C713.475 91.696 714.947 92.056 716.195 92.776C717.443 93.48 718.403 94.488 719.075 95.8C719.747 97.112 720.083 98.656 720.083 100.432C720.083 102.208 719.747 103.76 719.075 105.088C718.403 106.416 717.443 107.44 716.195 108.16C714.947 108.864 713.475 109.216 711.779 109.216ZM711.779 106.288C713.219 106.288 714.339 105.784 715.139 104.776C715.955 103.768 716.363 102.32 716.363 100.432C716.363 98.544 715.955 97.104 715.139 96.112C714.339 95.12 713.219 94.624 711.779 94.624C710.339 94.624 709.211 95.12 708.395 96.112C707.595 97.104 707.195 98.544 707.195 100.432C707.195 102.336 707.595 103.792 708.395 104.8C709.211 105.792 710.339 106.288 711.779 106.288ZM737.817 91.912V109H735.033L726.513 98.104V109H723.009V91.912H725.769L734.289 102.784V91.912H737.817ZM747.219 109.216C745.923 109.216 744.675 109.048 743.475 108.712C742.291 108.36 741.307 107.872 740.523 107.248L741.723 104.56C743.371 105.712 745.211 106.288 747.243 106.288C748.331 106.288 749.163 106.12 749.739 105.784C750.331 105.432 750.627 104.944 750.627 104.32C750.627 103.776 750.355 103.352 749.811 103.048C749.283 102.728 748.347 102.424 747.003 102.136C745.499 101.832 744.299 101.464 743.403 101.032C742.523 100.584 741.875 100.048 741.459 99.424C741.059 98.784 740.859 97.992 740.859 97.048C740.859 96.024 741.139 95.104 741.699 94.288C742.275 93.472 743.075 92.84 744.099 92.392C745.123 91.928 746.307 91.696 747.651 91.696C748.867 91.696 750.035 91.872 751.155 92.224C752.275 92.576 753.171 93.056 753.843 93.664L752.643 96.352C751.139 95.2 749.483 94.624 747.675 94.624C746.715 94.624 745.947 94.816 745.371 95.2C744.795 95.584 744.507 96.104 744.507 96.76C744.507 97.144 744.611 97.464 744.819 97.72C745.043 97.976 745.411 98.208 745.923 98.416C746.435 98.608 747.163 98.8 748.107 98.992C750.299 99.472 751.875 100.096 752.835 100.864C753.811 101.632 754.299 102.68 754.299 104.008C754.299 105.608 753.675 106.88 752.427 107.824C751.179 108.752 749.443 109.216 747.219 109.216ZM775.191 105.208H767.199L765.567 109H761.798L769.647 91.912H772.671L780.519 109H776.823L775.191 105.208ZM773.967 102.352L771.207 95.944L768.447 102.352H773.967ZM792.945 100.168C793.937 100.456 794.705 100.96 795.249 101.68C795.793 102.4 796.065 103.28 796.065 104.32C796.065 105.76 795.529 106.904 794.457 107.752C793.385 108.584 791.929 109 790.089 109H781.977V91.912H789.849C791.625 91.912 793.025 92.312 794.049 93.112C795.089 93.896 795.609 94.976 795.609 96.352C795.609 97.248 795.369 98.032 794.889 98.704C794.425 99.376 793.777 99.864 792.945 100.168ZM785.625 98.872H789.225C790.185 98.872 790.897 98.712 791.361 98.392C791.841 98.056 792.081 97.544 792.081 96.856C792.081 96.152 791.841 95.632 791.361 95.296C790.897 94.96 790.185 94.792 789.225 94.792H785.625V98.872ZM789.657 106.12C790.665 106.12 791.393 105.952 791.841 105.616C792.305 105.264 792.537 104.712 792.537 103.96C792.537 103.192 792.305 102.632 791.841 102.28C791.393 101.928 790.665 101.752 789.657 101.752H785.625V106.12H789.657ZM806.536 109.216C804.84 109.216 803.36 108.864 802.096 108.16C800.848 107.44 799.88 106.416 799.192 105.088C798.52 103.76 798.184 102.208 798.184 100.432C798.184 98.656 798.52 97.112 799.192 95.8C799.88 94.488 800.848 93.48 802.096 92.776C803.36 92.056 804.84 91.696 806.536 91.696C808.232 91.696 809.704 92.056 810.952 92.776C812.2 93.48 813.16 94.488 813.832 95.8C814.504 97.112 814.84 98.656 814.84 100.432C814.84 102.208 814.504 103.76 813.832 105.088C813.16 106.416 812.2 107.44 810.952 108.16C809.704 108.864 808.232 109.216 806.536 109.216ZM806.536 106.288C807.976 106.288 809.096 105.784 809.896 104.776C810.712 103.768 811.12 102.32 811.12 100.432C811.12 98.544 810.712 97.104 809.896 96.112C809.096 95.12 807.976 94.624 806.536 94.624C805.096 94.624 803.968 95.12 803.152 96.112C802.352 97.104 801.952 98.544 801.952 100.432C801.952 102.336 802.352 103.792 803.152 104.8C803.968 105.792 805.096 106.288 806.536 106.288ZM833.594 91.912L825.914 109H822.914L815.234 91.912H819.122L824.45 104.32L829.826 91.912H833.594ZM834.946 91.912H846.73V94.816H838.594V98.848H846.226V101.776H838.594V106.096H846.73V109H834.946V91.912ZM868.231 104.032C868.231 105.328 867.783 106.432 866.887 107.344C865.991 108.24 864.783 108.816 863.263 109.072V111.784H860.335V109.168C858.127 108.96 856.359 108.336 855.031 107.296L856.255 104.608C857.567 105.568 859.015 106.12 860.599 106.264V101.944C859.511 101.656 858.599 101.344 857.863 101.008C857.127 100.672 856.503 100.184 855.991 99.544C855.495 98.888 855.247 98.024 855.247 96.952C855.247 95.656 855.711 94.544 856.639 93.616C857.583 92.672 858.815 92.072 860.335 91.816V89.128H863.263V91.792C864.175 91.92 865.039 92.144 865.855 92.464C866.671 92.768 867.335 93.152 867.847 93.616L866.623 96.304C865.471 95.472 864.271 94.944 863.023 94.72V99.184C864.079 99.44 864.967 99.736 865.687 100.072C866.407 100.392 867.007 100.872 867.487 101.512C867.983 102.152 868.231 102.992 868.231 104.032ZM858.991 96.712C858.991 97.144 859.127 97.504 859.399 97.792C859.687 98.064 860.087 98.296 860.599 98.488V94.792C860.087 94.936 859.687 95.176 859.399 95.512C859.127 95.832 858.991 96.232 858.991 96.712ZM863.023 106.072C863.999 105.784 864.487 105.16 864.487 104.2C864.487 103.832 864.359 103.528 864.103 103.288C863.863 103.032 863.503 102.808 863.023 102.616V106.072ZM878.782 100.216C879.774 100.504 880.534 101.008 881.062 101.728C881.606 102.432 881.878 103.304 881.878 104.344C881.878 105.848 881.31 107.032 880.174 107.896C879.038 108.76 877.494 109.192 875.542 109.192C874.358 109.192 873.222 109.024 872.134 108.688C871.046 108.336 870.166 107.864 869.494 107.272L870.694 104.584C872.214 105.688 873.774 106.24 875.374 106.24C876.414 106.24 877.166 106.064 877.63 105.712C878.11 105.344 878.35 104.768 878.35 103.984C878.35 103.232 878.11 102.688 877.63 102.352C877.166 102 876.414 101.824 875.374 101.824H872.926V98.896H874.966C875.958 98.896 876.694 98.728 877.174 98.392C877.654 98.04 877.894 97.512 877.894 96.808C877.894 96.104 877.678 95.568 877.246 95.2C876.83 94.832 876.23 94.648 875.446 94.648C874.71 94.648 873.958 94.792 873.19 95.08C872.422 95.352 871.67 95.76 870.934 96.304L869.734 93.616C870.422 93.024 871.302 92.56 872.374 92.224C873.446 91.872 874.55 91.696 875.686 91.696C876.838 91.696 877.846 91.888 878.71 92.272C879.59 92.656 880.262 93.192 880.726 93.88C881.206 94.568 881.446 95.376 881.446 96.304C881.446 97.232 881.214 98.04 880.75 98.728C880.286 99.4 879.63 99.896 878.782 100.216ZM890.341 109.216C888.277 109.216 886.693 108.464 885.589 106.96C884.501 105.456 883.957 103.28 883.957 100.432C883.957 97.616 884.501 95.464 885.589 93.976C886.693 92.488 888.277 91.744 890.341 91.744C892.405 91.744 893.981 92.488 895.069 93.976C896.173 95.464 896.725 97.616 896.725 100.432C896.725 103.28 896.173 105.456 895.069 106.96C893.981 108.464 892.405 109.216 890.341 109.216ZM890.341 106.336C891.285 106.336 891.973 105.872 892.405 104.944C892.837 104.016 893.053 102.512 893.053 100.432C893.053 98.4 892.837 96.928 892.405 96.016C891.973 95.088 891.285 94.624 890.341 94.624C889.397 94.624 888.709 95.088 888.277 96.016C887.845 96.928 887.629 98.4 887.629 100.432C887.629 102.512 887.845 104.016 888.277 104.944C888.709 105.872 889.397 106.336 890.341 106.336Z" fill="white"/>
<g clip-path="url(#clip0)">
<path d="M231.065 35.3709L226.524 30.0858L227.614 19.8259L232.038 29.369L231.065 35.3709Z" fill="url(#paint2_linear)"/>
<path style="mix-blend-mode:multiply" d="M227.614 19.8259L230.416 29.6953L231.065 35.3709L232.038 29.369L227.614 19.8259Z" fill="url(#paint3_linear)"/>
<path d="M245 29.4011V22.1582L251.034 13.6636L250.252 22.6771L245 29.4011Z" fill="url(#paint4_linear)"/>
<path style="mix-blend-mode:multiply" d="M251.034 13.6636L248.37 22.6771L245 29.4011L250.252 22.6771L251.034 13.6636Z" fill="url(#paint5_linear)"/>
<path opacity="0.46" d="M292.968 197.5H304.718L313.498 161L292.968 197.5Z" fill="#FFF7A9"/>
</g>
<path d="M107.675 82.0381L90.1156 63.8316L95.4261 60.9086L79.8621 42.6983L71.2987 50.8273L80.8115 60.2359L75.2505 63.3704L107.675 82.0381Z" fill="url(#paint6_linear)"/>
<path style="mix-blend-mode:multiply" d="M71.0921 50.4091L74.0442 47.614L85.3523 60.5601L80.2813 63.5099L107.889 81.857L75.0334 63.1131L80.7074 59.8981L71.0921 50.4091Z" fill="url(#paint7_linear)"/>
<path d="M243.224 135.465L253.363 128.302L251.061 126.366L260.232 119L264.73 123.269L258.19 127.452L260.599 129.517L243.224 135.465Z" fill="url(#paint8_linear)"/>
<path style="mix-blend-mode:multiply" d="M264.73 123.269L263.278 121.894L255.92 127.339L258.063 129.222L243.224 135.465L260.599 129.517L258.19 127.452L264.73 123.269Z" fill="url(#paint9_linear)"/>
<path d="M237.078 148.266L249.216 145.757L247.866 143.056L259.195 139.974L261.63 145.693L253.98 146.907L255.373 149.769L237.078 148.266Z" fill="url(#paint10_linear)"/>
<path style="mix-blend-mode:multiply" d="M261.63 145.693L260.843 143.847L251.938 145.896L253.161 148.485L237.078 148.266L255.373 149.769L253.98 146.907L261.63 145.693Z" fill="url(#paint11_linear)"/>
<path d="M209.992 166.655L205.142 159.747L201.485 161.468L206.502 168.629C206.62 168.798 206.793 168.919 206.991 168.971C207.189 169.024 207.398 169.004 207.583 168.915L209.639 167.938C209.753 167.886 209.855 167.808 209.937 167.712C210.019 167.615 210.078 167.502 210.112 167.379C210.146 167.257 210.152 167.129 210.132 167.004C210.111 166.879 210.063 166.76 209.992 166.655Z" fill="url(#paint12_linear)"/>
<path style="mix-blend-mode:multiply" d="M206.527 161.709L205.15 159.747L201.485 161.468L202.659 163.148C203.921 162.597 205.212 162.117 206.527 161.709V161.709Z" fill="url(#paint13_linear)"/>
<path d="M196.119 154.111C195.774 154.296 195.514 154.609 195.392 154.982C195.27 155.356 195.296 155.763 195.465 156.118L196.749 158.864L198.036 161.607C198.202 161.964 198.498 162.242 198.863 162.385C199.227 162.529 199.632 162.525 199.995 162.376C204.65 160.446 220.579 154.52 232.527 157.344L228.505 148.76L226.591 144.673L224.678 140.586L220.656 132.002C215.221 143.112 200.547 151.695 196.119 154.111Z" fill="url(#paint14_linear)"/>
<path style="mix-blend-mode:screen" d="M204.471 151.098C208.132 148.874 211.605 146.35 214.855 143.553C217.581 141.264 220.18 138.826 222.639 136.249L220.656 132.039C215.221 143.124 200.547 151.707 196.119 154.111C195.81 154.279 195.568 154.549 195.434 154.876C195.301 155.204 195.285 155.567 195.388 155.905C198.471 154.401 201.53 152.852 204.471 151.098Z" fill="url(#paint15_linear)"/>
<path style="mix-blend-mode:multiply" d="M196.992 159.363L198.036 161.591C198.202 161.947 198.498 162.226 198.862 162.369C199.227 162.512 199.632 162.509 199.994 162.359C204.65 160.446 220.579 154.52 232.527 157.344L228.529 148.818C224.398 148.912 211.406 151.201 196.992 159.363Z" fill="url(#paint16_linear)"/>
<path d="M203.11 150.355C203.066 150.261 203.003 150.179 202.924 150.112C202.846 150.045 202.754 149.996 202.655 149.968C202.557 149.94 202.453 149.933 202.351 149.948C202.25 149.963 202.153 150 202.066 150.056C199.365 151.806 197.082 153.101 195.705 153.849C195.329 154.051 195.045 154.39 194.911 154.796C194.777 155.202 194.804 155.645 194.985 156.032L197.78 161.995C197.964 162.38 198.287 162.678 198.683 162.831C199.079 162.983 199.518 162.976 199.909 162.813C201.355 162.216 203.801 161.268 206.864 160.283C206.962 160.251 207.051 160.198 207.127 160.129C207.203 160.059 207.263 159.975 207.304 159.88C207.345 159.785 207.365 159.683 207.363 159.58C207.362 159.476 207.338 159.375 207.295 159.281L203.11 150.355Z" fill="url(#paint17_linear)"/>
<path style="mix-blend-mode:multiply" d="M196.578 159.4L197.797 161.995C197.981 162.38 198.304 162.679 198.699 162.831C199.095 162.983 199.534 162.976 199.926 162.813C201.372 162.216 203.817 161.268 206.881 160.283C206.978 160.251 207.068 160.198 207.144 160.129C207.219 160.06 207.28 159.975 207.32 159.88C207.361 159.785 207.381 159.683 207.38 159.58C207.378 159.476 207.355 159.375 207.311 159.281L205.369 155.141C202.302 156.255 199.356 157.682 196.578 159.4V159.4Z" fill="url(#paint18_linear)"/>
<path d="M219.6 132.525C218.629 132.987 220.498 139.028 223.776 146.014C227.055 152.999 230.499 158.3 231.47 157.838L232.527 157.336L231.34 154.806C230.686 152.292 229.236 148.482 227.298 144.342C225.36 140.201 223.354 136.653 221.846 134.532L220.656 132.039L219.6 132.525Z" fill="url(#paint19_linear)"/>
<path d="M220.656 132.039C221.631 131.577 225.076 136.87 228.354 143.86C231.633 150.849 233.497 156.894 232.527 157.348C231.556 157.802 228.111 152.513 224.832 145.527C221.554 138.542 219.685 132.488 220.656 132.039Z" fill="url(#paint20_linear)"/>
<path style="mix-blend-mode:screen" d="M220.656 132.039C221.631 131.577 225.076 136.87 228.354 143.86C231.633 150.849 233.497 156.894 232.527 157.348C231.556 157.802 228.111 152.513 224.832 145.527C221.554 138.542 219.685 132.488 220.656 132.039Z" fill="url(#paint21_linear)"/>
<path d="M221.16 133.093C221.867 132.758 224.873 137.675 227.875 144.076C230.877 150.477 232.75 155.93 232.027 156.277C231.304 156.625 228.314 151.695 225.312 145.294C222.309 138.893 220.449 133.429 221.16 133.093Z" fill="url(#paint22_linear)"/>
<path style="mix-blend-mode:multiply" d="M221.16 133.093C221.867 132.758 224.873 137.675 227.875 144.076C230.877 150.477 232.75 155.93 232.027 156.277C231.304 156.625 228.314 151.695 225.312 145.294C222.309 138.893 220.449 133.429 221.16 133.093Z" fill="url(#paint23_linear)"/>
<path d="M291.341 67.7462L309.202 58.9657L306.104 55.3078L322.502 45.9667L328.409 53.8765L317.009 58.8451L320.232 62.73L291.341 67.7462Z" fill="url(#paint24_linear)"/>
<path style="mix-blend-mode:multiply" d="M326.387 51.8909L313.351 57.9049L315.851 61.4628L291.341 67.7462L320.128 62.9843L316.889 59.1378L328.229 54.3145L326.387 51.8909Z" fill="url(#paint25_linear)"/>
<path d="M298.658 40.1141L307.168 28.891L304.048 27.5609L311.455 16.4475L317.701 19.5754L312.068 26.3365L315.34 27.7707L298.658 40.1141Z" fill="url(#paint26_linear)"/>
<path style="mix-blend-mode:multiply" d="M315.792 18.9614L309.455 26.9033L312.167 28.3599L298.658 40.1141L315.355 27.9647L312.085 26.5599L317.726 19.9096L315.792 18.9614Z" fill="url(#paint27_linear)"/>
<path d="M257.401 33.8589L261.42 28.3546L270.671 25.2624L265.083 31.6797L257.401 33.8589Z" fill="url(#paint28_linear)"/>
<path style="mix-blend-mode:multiply" d="M270.671 25.2624L263.666 30.6295L257.401 33.8589L265.083 31.6797L270.671 25.2624Z" fill="url(#paint29_linear)"/>
<mask id="path-51-inside-1" fill="white">
<path d="M130.098 70.7025C132.601 70.1022 134.394 70.257 135.477 71.1671C136.586 72.0512 136.947 73.6598 136.561 75.9929L135.33 83.4259C134.944 85.7591 133.996 87.6914 132.488 89.2231C131.005 90.7287 129.012 91.7817 126.509 92.3821L113.551 95.4899L117.14 73.8103L130.098 70.7025ZM130.58 77.4273C130.888 75.5691 130.045 74.879 128.051 75.3571L122.403 76.7118L120.249 89.7196L125.897 88.3649C127.891 87.8868 129.042 86.7186 129.349 84.8603L130.58 77.4273Z"/>
<path d="M148.429 87.1248L136.467 89.9936L137.185 85.6577L140.175 84.9405L142.329 71.9327L139.339 72.6499L140.057 68.314L152.018 65.4452L151.3 69.7811L148.31 70.4983L146.156 83.5061L149.146 82.7889L148.429 87.1248Z"/>
<path d="M151.462 82.0848C157.48 80.9389 161.563 80.1082 163.712 79.5929C164.221 79.4707 164.642 79.2409 164.975 78.9034C165.333 78.54 165.551 78.1208 165.63 77.6459L166.091 74.8586L158.449 76.6914C156.123 77.2492 154.509 77.1704 153.607 76.455C152.73 75.7136 152.471 74.259 152.83 72.091L152.983 71.1619C153.342 68.9939 154.123 67.2999 155.325 66.0798C156.552 64.8337 158.328 63.9318 160.654 63.3739L172.316 60.5769L171.599 64.9128L161.265 67.3911C159.936 67.7099 159.169 68.4886 158.964 69.7275L158.862 70.3469C158.656 71.5857 159.218 72.0458 160.547 71.727L166.528 70.2926C168.699 69.772 170.215 69.8644 171.077 70.5698C171.938 71.2752 172.202 72.6396 171.867 74.663L171.61 76.2115C171.275 78.235 170.52 79.8438 169.343 81.0379C168.167 82.2321 166.494 83.0895 164.323 83.6101C163.193 83.881 162.001 84.1473 160.745 84.4088L157.709 85.018C155.466 85.4567 153.153 85.8726 150.77 86.2659L151.462 82.0848Z"/>
<path d="M191.668 76.4568C186.66 78.0545 182.528 79.2438 179.272 80.0247C177.101 80.5454 175.585 80.453 174.723 79.7476C173.862 79.0422 173.598 77.6778 173.933 75.6543L175.574 65.7437C175.933 63.5757 176.714 61.8817 177.915 60.6616C179.143 59.4155 180.919 58.5136 183.245 57.9557L195.206 55.087L194.488 59.4229L183.856 61.9729C182.527 62.2917 181.76 63.0705 181.555 64.3093L179.914 74.22C179.835 74.6948 179.916 75.0423 180.156 75.2623C180.422 75.4563 180.787 75.4976 181.253 75.386C181.718 75.2744 182.227 75.1522 182.781 75.0194C183.338 74.866 183.917 74.7072 184.519 74.5431C185.12 74.379 185.722 74.2149 186.323 74.0508C186.947 73.8814 187.74 73.6516 188.703 73.3612C189.688 73.0655 190.907 72.7037 192.36 72.2758L191.668 76.4568Z"/>
<path d="M211.846 56.747C212.051 55.5082 211.489 55.0481 210.16 55.3669L204.511 56.7216C203.182 57.0403 202.415 57.8191 202.21 59.058L200.569 68.9686C200.364 70.2075 200.926 70.6675 202.255 70.3488L207.903 68.994C209.232 68.6753 210 67.8965 210.205 66.6577L211.846 56.747ZM216.185 65.2233C215.826 67.3912 215.033 69.0982 213.806 70.3443C212.604 71.5644 210.84 72.4534 208.515 73.0112L200.208 75.0034C197.882 75.5612 196.268 75.4824 195.366 74.767C194.489 74.0256 194.23 72.571 194.589 70.403L196.23 60.4924C196.588 58.3244 197.369 56.6304 198.571 55.4103C199.798 54.1642 201.574 53.2622 203.9 52.7044L212.207 50.7122C214.532 50.1544 216.134 50.2462 217.011 50.9875C217.913 51.703 218.185 53.1447 217.826 55.3126L216.185 65.2233Z"/>
<path d="M237.09 45.0416L243.071 43.6072L240.456 59.4023C240.097 61.5702 239.304 63.2773 238.076 64.5233C236.875 65.7434 235.111 66.6324 232.785 67.1902L225.143 69.0231C222.817 69.5809 221.203 69.5021 220.3 68.7867C219.424 68.0453 219.165 66.5906 219.523 64.4227L222.139 48.6275L228.119 47.1931L225.504 62.9883C225.299 64.2271 225.861 64.6871 227.19 64.3684L232.174 63.1731C233.503 62.8543 234.27 62.0755 234.475 60.8367L237.09 45.0416Z"/>
<path d="M263.736 59.4695L257.423 60.9836L251.603 49.8883L249.449 62.8961L243.468 64.3305L247.058 42.6509L253.371 41.1368L259.191 52.2321L261.345 39.2243L267.326 37.7899L263.736 59.4695Z"/>
<path d="M279.036 55.8001L273.055 57.2345L275.927 39.8908L268.949 41.5643L269.667 37.2284L289.603 32.447L288.885 36.783L281.907 38.4564L279.036 55.8001Z"/>
</mask>
<path d="M130.098 70.7025C132.601 70.1022 134.394 70.257 135.477 71.1671C136.586 72.0512 136.947 73.6598 136.561 75.9929L135.33 83.4259C134.944 85.7591 133.996 87.6914 132.488 89.2231C131.005 90.7287 129.012 91.7817 126.509 92.3821L113.551 95.4899L117.14 73.8103L130.098 70.7025ZM130.58 77.4273C130.888 75.5691 130.045 74.879 128.051 75.3571L122.403 76.7118L120.249 89.7196L125.897 88.3649C127.891 87.8868 129.042 86.7186 129.349 84.8603L130.58 77.4273Z" stroke="white" stroke-width="2" mask="url(#path-51-inside-1)"/>
<path d="M148.429 87.1248L136.467 89.9936L137.185 85.6577L140.175 84.9405L142.329 71.9327L139.339 72.6499L140.057 68.314L152.018 65.4452L151.3 69.7811L148.31 70.4983L146.156 83.5061L149.146 82.7889L148.429 87.1248Z" stroke="white" stroke-width="2" mask="url(#path-51-inside-1)"/>
<path d="M151.462 82.0848C157.48 80.9389 161.563 80.1082 163.712 79.5929C164.221 79.4707 164.642 79.2409 164.975 78.9034C165.333 78.54 165.551 78.1208 165.63 77.6459L166.091 74.8586L158.449 76.6914C156.123 77.2492 154.509 77.1704 153.607 76.455C152.73 75.7136 152.471 74.259 152.83 72.091L152.983 71.1619C153.342 68.9939 154.123 67.2999 155.325 66.0798C156.552 64.8337 158.328 63.9318 160.654 63.3739L172.316 60.5769L171.599 64.9128L161.265 67.3911C159.936 67.7099 159.169 68.4886 158.964 69.7275L158.862 70.3469C158.656 71.5857 159.218 72.0458 160.547 71.727L166.528 70.2926C168.699 69.772 170.215 69.8644 171.077 70.5698C171.938 71.2752 172.202 72.6396 171.867 74.663L171.61 76.2115C171.275 78.235 170.52 79.8438 169.343 81.0379C168.167 82.2321 166.494 83.0895 164.323 83.6101C163.193 83.881 162.001 84.1473 160.745 84.4088L157.709 85.018C155.466 85.4567 153.153 85.8726 150.77 86.2659L151.462 82.0848Z" stroke="white" stroke-width="2" mask="url(#path-51-inside-1)"/>
<path d="M191.668 76.4568C186.66 78.0545 182.528 79.2438 179.272 80.0247C177.101 80.5454 175.585 80.453 174.723 79.7476C173.862 79.0422 173.598 77.6778 173.933 75.6543L175.574 65.7437C175.933 63.5757 176.714 61.8817 177.915 60.6616C179.143 59.4155 180.919 58.5136 183.245 57.9557L195.206 55.087L194.488 59.4229L183.856 61.9729C182.527 62.2917 181.76 63.0705 181.555 64.3093L179.914 74.22C179.835 74.6948 179.916 75.0423 180.156 75.2623C180.422 75.4563 180.787 75.4976 181.253 75.386C181.718 75.2744 182.227 75.1522 182.781 75.0194C183.338 74.866 183.917 74.7072 184.519 74.5431C185.12 74.379 185.722 74.2149 186.323 74.0508C186.947 73.8814 187.74 73.6516 188.703 73.3612C189.688 73.0655 190.907 72.7037 192.36 72.2758L191.668 76.4568Z" stroke="white" stroke-width="2" mask="url(#path-51-inside-1)"/>
<path d="M211.846 56.747C212.051 55.5082 211.489 55.0481 210.16 55.3669L204.511 56.7216C203.182 57.0403 202.415 57.8191 202.21 59.058L200.569 68.9686C200.364 70.2075 200.926 70.6675 202.255 70.3488L207.903 68.994C209.232 68.6753 210 67.8965 210.205 66.6577L211.846 56.747ZM216.185 65.2233C215.826 67.3912 215.033 69.0982 213.806 70.3443C212.604 71.5644 210.84 72.4534 208.515 73.0112L200.208 75.0034C197.882 75.5612 196.268 75.4824 195.366 74.767C194.489 74.0256 194.23 72.571 194.589 70.403L196.23 60.4924C196.588 58.3244 197.369 56.6304 198.571 55.4103C199.798 54.1642 201.574 53.2622 203.9 52.7044L212.207 50.7122C214.532 50.1544 216.134 50.2462 217.011 50.9875C217.913 51.703 218.185 53.1447 217.826 55.3126L216.185 65.2233Z" stroke="white" stroke-width="2" mask="url(#path-51-inside-1)"/>
<path d="M237.09 45.0416L243.071 43.6072L240.456 59.4023C240.097 61.5702 239.304 63.2773 238.076 64.5233C236.875 65.7434 235.111 66.6324 232.785 67.1902L225.143 69.0231C222.817 69.5809 221.203 69.5021 220.3 68.7867C219.424 68.0453 219.165 66.5906 219.523 64.4227L222.139 48.6275L228.119 47.1931L225.504 62.9883C225.299 64.2271 225.861 64.6871 227.19 64.3684L232.174 63.1731C233.503 62.8543 234.27 62.0755 234.475 60.8367L237.09 45.0416Z" stroke="white" stroke-width="2" mask="url(#path-51-inside-1)"/>
<path d="M263.736 59.4695L257.423 60.9836L251.603 49.8883L249.449 62.8961L243.468 64.3305L247.058 42.6509L253.371 41.1368L259.191 52.2321L261.345 39.2243L267.326 37.7899L263.736 59.4695Z" stroke="white" stroke-width="2" mask="url(#path-51-inside-1)"/>
<path d="M279.036 55.8001L273.055 57.2345L275.927 39.8908L268.949 41.5643L269.667 37.2284L289.603 32.447L288.885 36.783L281.907 38.4564L279.036 55.8001Z" stroke="white" stroke-width="2" mask="url(#path-51-inside-1)"/>
<path d="M132.232 72.5771C134.735 71.9768 136.528 72.1317 137.611 73.0417C138.72 73.9258 139.081 75.5344 138.694 77.8676L137.464 85.3006C137.077 87.6337 136.13 89.5661 134.621 91.0977C133.138 92.6034 131.145 93.6564 128.642 94.2567L115.684 97.3645L119.274 75.685L132.232 72.5771ZM132.714 79.302C133.021 77.4437 132.179 76.7536 130.185 77.2318L124.537 78.5865L122.383 91.5942L128.031 90.2395C130.025 89.7614 131.175 88.5932 131.483 86.735L132.714 79.302Z" fill="white"/>
<path d="M150.562 88.9994L138.601 91.8682L139.319 87.5323L142.309 86.8151L144.463 73.8074L141.473 74.5245L142.191 70.1886L154.152 67.3198L153.434 71.6558L150.444 72.373L148.29 85.3807L151.28 84.6635L150.562 88.9994Z" fill="white"/>
<path d="M153.596 83.9594C159.614 82.8135 163.697 81.9829 165.846 81.4676C166.355 81.3454 166.776 81.1155 167.108 80.7781C167.466 80.4146 167.685 79.9955 167.763 79.5206L168.225 76.7332L160.583 78.566C158.257 79.1238 156.643 79.045 155.74 78.3296C154.863 77.5883 154.604 76.1336 154.963 73.9656L155.117 73.0365C155.476 70.8685 156.257 69.1745 157.458 67.9544C158.686 66.7083 160.462 65.8064 162.788 65.2486L174.45 62.4515L173.732 66.7874L163.399 69.2657C162.07 69.5845 161.303 70.3633 161.098 71.6021L160.995 72.2215C160.79 73.4604 161.352 73.9204 162.681 73.6017L168.662 72.1673C170.833 71.6466 172.349 71.739 173.21 72.4444C174.072 73.1498 174.335 74.5142 174 76.5376L173.744 78.0862C173.409 80.1096 172.653 81.7184 171.477 82.9125C170.301 84.1067 168.628 84.9641 166.457 85.4847C165.327 85.7557 164.134 86.0219 162.879 86.2834L159.842 86.8927C157.6 87.3313 155.287 87.7472 152.904 88.1405L153.596 83.9594Z" fill="white"/>
<path d="M193.802 78.3315C188.794 79.9291 184.662 81.1184 181.406 81.8994C179.235 82.42 177.719 82.3276 176.857 81.6222C175.996 80.9168 175.732 79.5524 176.067 77.529L177.708 67.6183C178.067 65.4504 178.847 63.7563 180.049 62.5362C181.277 61.2901 183.053 60.3882 185.379 59.8304L197.34 56.9616L196.622 61.2975L185.99 63.8475C184.661 64.1663 183.894 64.9451 183.689 66.1839L182.048 76.0946C181.969 76.5695 182.05 76.9169 182.29 77.1369C182.556 77.331 182.921 77.3722 183.386 77.2606C183.851 77.1491 184.361 77.0269 184.915 76.8941C185.472 76.7406 186.051 76.5818 186.653 76.4177C187.254 76.2537 187.856 76.0896 188.457 75.9255C189.081 75.7561 189.874 75.5262 190.837 75.2358C191.822 74.9401 193.041 74.5783 194.494 74.1504L193.802 78.3315Z" fill="white"/>
<path d="M213.979 58.6216C214.185 57.3828 213.623 56.9228 212.294 57.2415L206.645 58.5962C205.316 58.915 204.549 59.6938 204.344 60.9326L202.703 70.8433C202.498 72.0821 203.06 72.5421 204.389 72.2234L210.037 70.8687C211.366 70.5499 212.133 69.7711 212.338 68.5323L213.979 58.6216ZM218.319 67.0979C217.96 69.2659 217.167 70.9729 215.94 72.2189C214.738 73.4391 212.974 74.328 210.648 74.8858L202.342 76.8781C200.016 77.4359 198.402 77.3571 197.499 76.6417C196.622 75.9003 196.363 74.4456 196.722 72.2777L198.363 62.367C198.722 60.199 199.503 58.505 200.704 57.2849C201.932 56.0388 203.708 55.1369 206.034 54.5791L214.34 52.5868C216.666 52.029 218.268 52.1208 219.145 52.8622C220.047 53.5776 220.319 55.0193 219.96 57.1872L218.319 67.0979Z" fill="white"/>
<path d="M239.224 46.9162L245.205 45.4818L242.589 61.2769C242.231 63.4449 241.437 65.1519 240.21 66.398C239.008 67.6181 237.245 68.507 234.919 69.0649L227.277 70.8977C224.951 71.4555 223.337 71.3767 222.434 70.6613C221.557 69.9199 221.298 68.4652 221.657 66.2973L224.272 50.5022L230.253 49.0678L227.638 64.8629C227.433 66.1017 227.995 66.5618 229.324 66.243L234.308 65.0477C235.637 64.7289 236.404 63.9501 236.609 62.7113L239.224 46.9162Z" fill="white"/>
<path d="M265.87 61.3441L259.557 62.8582L253.737 51.763L251.583 64.7707L245.602 66.2051L249.192 44.5255L255.505 43.0115L261.325 54.1067L263.479 41.0989L269.46 39.6645L265.87 61.3441Z" fill="white"/>
<path d="M281.169 57.6747L275.189 59.1091L278.06 41.7655L271.083 43.4389L271.801 39.103L291.736 34.3217L291.018 38.6576L284.041 40.3311L281.169 57.6747Z" fill="white"/>
<mask id="path-53-inside-2" fill="white">
<path d="M174.653 119.421C174.324 121.406 173.653 123.281 172.64 125.049C171.627 126.816 170.402 128.398 168.963 129.796C167.525 131.193 165.926 132.384 164.166 133.369C162.427 134.349 160.656 135.055 158.851 135.488L141.274 139.703L142.621 131.568L160.198 127.352C160.786 127.211 161.388 126.985 162.004 126.674C162.641 126.358 163.223 125.955 163.752 125.465C164.301 124.971 164.766 124.397 165.147 123.743C165.548 123.084 165.818 122.339 165.955 121.507C166.08 120.751 166.038 120.126 165.828 119.632C165.641 119.115 165.335 118.725 164.911 118.464C164.511 118.179 164.022 118.015 163.445 117.972C162.892 117.905 162.321 117.942 161.733 118.083L144.156 122.299L150.559 98.442L177.472 91.9873L176.125 100.123L157.058 104.696L155.113 111.858L163.08 109.948C164.884 109.515 166.559 109.394 168.104 109.586C169.67 109.774 170.989 110.274 172.061 111.087C173.136 111.882 173.918 112.983 174.405 114.39C174.895 115.779 174.978 117.456 174.653 119.421Z"/>
<path d="M207.223 104.369C207.971 99.8524 207.716 96.6926 206.457 94.8894C205.218 93.0815 203.159 92.5227 200.28 93.2131C197.422 93.8987 195.022 95.5178 193.081 98.0702C191.14 100.623 189.792 104.176 189.038 108.73C188.29 113.247 188.526 116.412 189.744 118.224C190.962 120.037 193.001 120.601 195.859 119.915C197.299 119.57 198.63 118.997 199.853 118.195C201.079 117.375 202.168 116.324 203.12 115.044C204.092 113.758 204.918 112.235 205.599 110.475C206.303 108.691 206.845 106.655 207.223 104.369ZM215.525 102.378C214.887 106.233 213.891 109.602 212.538 112.485C211.184 115.369 209.581 117.822 207.727 119.845C205.874 121.869 203.821 123.504 201.571 124.752C199.343 125.976 197.023 126.877 194.611 127.455C192.198 128.034 189.989 128.21 187.982 127.984C185.999 127.733 184.353 126.976 183.043 125.711C181.758 124.423 180.878 122.565 180.404 120.138C179.932 117.692 180.013 114.561 180.645 110.743C181.283 106.888 182.278 103.529 183.628 100.664C184.981 97.7807 186.575 95.3298 188.408 93.3113C190.262 91.288 192.304 89.655 194.534 88.4123C196.785 87.1647 199.116 86.2517 201.529 85.673C203.941 85.0944 206.139 84.9302 208.123 85.1804C210.129 85.4069 211.786 86.162 213.092 87.4457C214.398 88.7294 215.288 90.5847 215.762 93.0115C216.236 95.4384 216.157 98.5604 215.525 102.378Z"/>
<path d="M233.908 87.6522C234.186 85.9704 234.128 84.7958 233.732 84.1285C233.36 83.4375 232.687 83.2087 231.714 83.4421C230.781 83.6657 229.994 84.2446 229.353 85.1788C228.715 86.094 228.256 87.3926 227.978 89.0745C227.703 90.7375 227.751 91.9145 228.123 92.6055C228.496 93.2965 229.148 93.5302 230.081 93.3065C231.054 93.0732 231.861 92.4894 232.502 91.5552C233.164 90.6162 233.633 89.3152 233.908 87.6522ZM239.686 86.2665C239.373 88.1562 238.874 89.8184 238.189 91.2531C237.527 92.664 236.733 93.8705 235.808 94.8728C234.883 95.875 233.853 96.6845 232.719 97.3012C231.606 97.9131 230.43 98.3674 229.194 98.664C227.977 98.9557 226.863 99.0415 225.851 98.9212C224.86 98.7961 224.036 98.4221 223.38 97.7991C222.727 97.1573 222.275 96.2403 222.025 95.0482C221.794 93.8512 221.833 92.3268 222.139 90.4748C222.452 88.5851 222.94 86.9348 223.601 85.5239C224.284 84.1081 225.087 82.8991 226.013 81.8969C226.938 80.8947 227.957 80.0876 229.071 79.4757C230.205 78.859 231.38 78.4047 232.596 78.113C233.833 77.8164 234.947 77.7306 235.939 77.8557C236.954 77.9571 237.789 78.3192 238.446 78.9422C239.102 79.5651 239.545 80.4751 239.775 81.6721C240.025 82.8641 239.996 84.3956 239.686 86.2665ZM227.517 119.019L220.918 120.601L251.612 74.2056L258.211 72.6229L227.517 119.019ZM250.987 104.08C251.269 102.38 251.212 101.195 250.816 100.528C250.441 99.8561 249.766 99.6367 248.793 99.8701C247.861 100.094 247.075 100.663 246.437 101.578C245.799 102.494 245.339 103.802 245.057 105.503C244.785 107.147 244.835 108.314 245.207 109.005C245.583 109.677 246.237 109.902 247.169 109.678C248.142 109.445 248.948 108.87 249.586 107.955C250.248 107.016 250.715 105.724 250.987 104.08ZM256.765 102.695C256.452 104.584 255.955 106.237 255.273 107.653C254.611 109.064 253.817 110.27 252.892 111.272C251.967 112.275 250.937 113.084 249.803 113.701C248.689 114.313 247.514 114.767 246.278 115.064C245.061 115.355 243.947 115.441 242.935 115.321C241.94 115.215 241.115 114.85 240.459 114.227C239.806 113.585 239.354 112.668 239.104 111.476C238.874 110.279 238.912 108.755 239.219 106.903C239.531 105.013 240.019 103.363 240.681 101.952C241.363 100.536 242.167 99.3272 243.092 98.3249C244.017 97.3227 245.036 96.5157 246.15 95.9038C247.287 95.2681 248.464 94.8044 249.68 94.5127C250.917 94.2161 252.031 94.1303 253.023 94.2554C254.038 94.3568 254.872 94.7284 255.525 95.3702C256.181 95.9932 256.624 96.9031 256.854 98.1001C257.105 99.2922 257.075 100.824 256.765 102.695Z"/>
</mask>
<path d="M174.653 119.421C174.324 121.406 173.653 123.281 172.64 125.049C171.627 126.816 170.402 128.398 168.963 129.796C167.525 131.193 165.926 132.384 164.166 133.369C162.427 134.349 160.656 135.055 158.851 135.488L141.274 139.703L142.621 131.568L160.198 127.352C160.786 127.211 161.388 126.985 162.004 126.674C162.641 126.358 163.223 125.955 163.752 125.465C164.301 124.971 164.766 124.397 165.147 123.743C165.548 123.084 165.818 122.339 165.955 121.507C166.08 120.751 166.038 120.126 165.828 119.632C165.641 119.115 165.335 118.725 164.911 118.464C164.511 118.179 164.022 118.015 163.445 117.972C162.892 117.905 162.321 117.942 161.733 118.083L144.156 122.299L150.559 98.442L177.472 91.9873L176.125 100.123L157.058 104.696L155.113 111.858L163.08 109.948C164.884 109.515 166.559 109.394 168.104 109.586C169.67 109.774 170.989 110.274 172.061 111.087C173.136 111.882 173.918 112.983 174.405 114.39C174.895 115.779 174.978 117.456 174.653 119.421Z" stroke="white" stroke-width="2" mask="url(#path-53-inside-2)"/>
<path d="M207.223 104.369C207.971 99.8524 207.716 96.6926 206.457 94.8894C205.218 93.0815 203.159 92.5227 200.28 93.2131C197.422 93.8987 195.022 95.5178 193.081 98.0702C191.14 100.623 189.792 104.176 189.038 108.73C188.29 113.247 188.526 116.412 189.744 118.224C190.962 120.037 193.001 120.601 195.859 119.915C197.299 119.57 198.63 118.997 199.853 118.195C201.079 117.375 202.168 116.324 203.12 115.044C204.092 113.758 204.918 112.235 205.599 110.475C206.303 108.691 206.845 106.655 207.223 104.369ZM215.525 102.378C214.887 106.233 213.891 109.602 212.538 112.485C211.184 115.369 209.581 117.822 207.727 119.845C205.874 121.869 203.821 123.504 201.571 124.752C199.343 125.976 197.023 126.877 194.611 127.455C192.198 128.034 189.989 128.21 187.982 127.984C185.999 127.733 184.353 126.976 183.043 125.711C181.758 124.423 180.878 122.565 180.404 120.138C179.932 117.692 180.013 114.561 180.645 110.743C181.283 106.888 182.278 103.529 183.628 100.664C184.981 97.7807 186.575 95.3298 188.408 93.3113C190.262 91.288 192.304 89.655 194.534 88.4123C196.785 87.1647 199.116 86.2517 201.529 85.673C203.941 85.0944 206.139 84.9302 208.123 85.1804C210.129 85.4069 211.786 86.162 213.092 87.4457C214.398 88.7294 215.288 90.5847 215.762 93.0115C216.236 95.4384 216.157 98.5604 215.525 102.378Z" stroke="white" stroke-width="2" mask="url(#path-53-inside-2)"/>
<path d="M233.908 87.6522C234.186 85.9704 234.128 84.7958 233.732 84.1285C233.36 83.4375 232.687 83.2087 231.714 83.4421C230.781 83.6657 229.994 84.2446 229.353 85.1788C228.715 86.094 228.256 87.3926 227.978 89.0745C227.703 90.7375 227.751 91.9145 228.123 92.6055C228.496 93.2965 229.148 93.5302 230.081 93.3065C231.054 93.0732 231.861 92.4894 232.502 91.5552C233.164 90.6162 233.633 89.3152 233.908 87.6522ZM239.686 86.2665C239.373 88.1562 238.874 89.8184 238.189 91.2531C237.527 92.664 236.733 93.8705 235.808 94.8728C234.883 95.875 233.853 96.6845 232.719 97.3012C231.606 97.9131 230.43 98.3674 229.194 98.664C227.977 98.9557 226.863 99.0415 225.851 98.9212C224.86 98.7961 224.036 98.4221 223.38 97.7991C222.727 97.1573 222.275 96.2403 222.025 95.0482C221.794 93.8512 221.833 92.3268 222.139 90.4748C222.452 88.5851 222.94 86.9348 223.601 85.5239C224.284 84.1081 225.087 82.8991 226.013 81.8969C226.938 80.8947 227.957 80.0876 229.071 79.4757C230.205 78.859 231.38 78.4047 232.596 78.113C233.833 77.8164 234.947 77.7306 235.939 77.8557C236.954 77.9571 237.789 78.3192 238.446 78.9422C239.102 79.5651 239.545 80.4751 239.775 81.6721C240.025 82.8641 239.996 84.3956 239.686 86.2665ZM227.517 119.019L220.918 120.601L251.612 74.2056L258.211 72.6229L227.517 119.019ZM250.987 104.08C251.269 102.38 251.212 101.195 250.816 100.528C250.441 99.8561 249.766 99.6367 248.793 99.8701C247.861 100.094 247.075 100.663 246.437 101.578C245.799 102.494 245.339 103.802 245.057 105.503C244.785 107.147 244.835 108.314 245.207 109.005C245.583 109.677 246.237 109.902 247.169 109.678C248.142 109.445 248.948 108.87 249.586 107.955C250.248 107.016 250.715 105.724 250.987 104.08ZM256.765 102.695C256.452 104.584 255.955 106.237 255.273 107.653C254.611 109.064 253.817 110.27 252.892 111.272C251.967 112.275 250.937 113.084 249.803 113.701C248.689 114.313 247.514 114.767 246.278 115.064C245.061 115.355 243.947 115.441 242.935 115.321C241.94 115.215 241.115 114.85 240.459 114.227C239.806 113.585 239.354 112.668 239.104 111.476C238.874 110.279 238.912 108.755 239.219 106.903C239.531 105.013 240.019 103.363 240.681 101.952C241.363 100.536 242.167 99.3272 243.092 98.3249C244.017 97.3227 245.036 96.5157 246.15 95.9038C247.287 95.2681 248.464 94.8044 249.68 94.5127C250.917 94.2161 252.031 94.1303 253.023 94.2554C254.038 94.3568 254.872 94.7284 255.525 95.3702C256.181 95.9932 256.624 96.9031 256.854 98.1001C257.105 99.2922 257.075 100.824 256.765 102.695Z" stroke="white" stroke-width="2" mask="url(#path-53-inside-2)"/>
<path d="M177.228 121.334C176.9 123.318 176.229 125.194 175.216 126.961C174.203 128.728 172.977 130.311 171.539 131.708C170.1 133.106 168.502 134.297 166.742 135.281C165.003 136.261 163.231 136.967 161.427 137.4L143.85 141.616L145.197 133.48L162.774 129.265C163.362 129.124 163.964 128.897 164.58 128.586C165.216 128.27 165.799 127.868 166.328 127.378C166.877 126.883 167.342 126.309 167.723 125.655C168.124 124.996 168.393 124.251 168.531 123.42C168.656 122.664 168.614 122.039 168.403 121.545C168.216 121.027 167.911 120.638 167.487 120.376C167.087 120.091 166.598 119.927 166.021 119.884C165.467 119.817 164.897 119.854 164.309 119.995L146.732 124.211L153.135 100.354L180.048 93.8996L178.701 102.035L159.633 106.608L157.688 113.771L165.656 111.86C167.46 111.427 169.135 111.307 170.68 111.499C172.245 111.686 173.564 112.186 174.637 113C175.712 113.794 176.493 114.895 176.981 116.303C177.471 117.691 177.554 119.368 177.228 121.334Z" fill="white"/>
<path d="M209.799 106.281C210.547 101.765 210.291 98.6049 209.032 96.8018C207.794 94.9938 205.735 94.435 202.856 95.1255C199.998 95.8111 197.598 97.4301 195.657 99.9826C193.715 102.535 192.368 106.088 191.614 110.643C190.866 115.159 191.101 118.324 192.32 120.137C193.538 121.95 195.576 122.513 198.435 121.828C199.874 121.482 201.206 120.909 202.428 120.108C203.655 119.287 204.744 118.237 205.695 116.956C206.668 115.67 207.494 114.147 208.175 112.387C208.879 110.603 209.42 108.568 209.799 106.281ZM218.101 104.29C217.463 108.145 216.467 111.514 215.113 114.398C213.76 117.281 212.156 119.734 210.303 121.758C208.449 123.781 206.397 125.417 204.146 126.664C201.919 127.888 199.599 128.789 197.187 129.368C194.774 129.946 192.564 130.122 190.558 129.896C188.574 129.646 186.928 128.888 185.619 127.623C184.333 126.335 183.453 124.477 182.979 122.05C182.508 119.605 182.589 116.473 183.221 112.656C183.859 108.801 184.853 105.441 186.204 102.576C187.557 99.6931 189.15 97.2422 190.984 95.2237C192.837 93.2004 194.879 91.5673 197.11 90.3246C199.36 89.0771 201.692 88.164 204.105 87.5854C206.517 87.0068 208.715 86.8426 210.698 87.0928C212.705 87.3192 214.361 88.0743 215.667 89.358C216.973 90.6418 217.863 92.497 218.338 94.9239C218.812 97.3507 218.733 100.473 218.101 104.29Z" fill="white"/>
<path d="M236.484 89.5646C236.762 87.8827 236.704 86.7081 236.308 86.0409C235.936 85.3498 235.263 85.121 234.29 85.3544C233.357 85.5781 232.57 86.157 231.929 87.0911C231.291 88.0064 230.832 89.305 230.554 90.9868C230.278 92.6498 230.327 93.8268 230.699 94.5179C231.071 95.2089 231.724 95.4426 232.656 95.2189C233.63 94.9855 234.437 94.4017 235.078 93.4676C235.74 92.5286 236.208 91.2276 236.484 89.5646ZM242.262 88.1788C241.949 90.0686 241.45 91.7308 240.764 93.1654C240.102 94.5763 239.309 95.7829 238.384 96.7851C237.458 97.7873 236.429 98.5968 235.295 99.2136C234.181 99.8255 233.006 100.28 231.769 100.576C230.553 100.868 229.439 100.954 228.427 100.834C227.435 100.708 226.611 100.334 225.955 99.7115C225.302 99.0696 224.851 98.1526 224.6 96.9606C224.37 95.7636 224.408 94.2391 224.715 92.3872C225.028 90.4974 225.515 88.8471 226.177 87.4362C226.859 86.0205 227.663 84.8115 228.588 83.8092C229.513 82.807 230.533 82 231.647 81.3881C232.78 80.7713 233.956 80.3171 235.172 80.0253C236.409 79.7287 237.523 79.643 238.515 79.7681C239.53 79.8694 240.365 80.2316 241.021 80.8545C241.677 81.4775 242.121 82.3875 242.351 83.5844C242.601 84.7765 242.571 86.308 242.262 88.1788ZM230.093 120.931L223.494 122.514L254.187 76.118L260.786 74.5353L230.093 120.931ZM253.563 105.993C253.844 104.292 253.787 103.108 253.392 102.441C253.016 101.768 252.342 101.549 251.369 101.782C250.436 102.006 249.651 102.576 249.013 103.491C248.374 104.406 247.915 105.714 247.633 107.415C247.361 109.059 247.411 110.227 247.783 110.918C248.158 111.59 248.812 111.814 249.745 111.59C250.718 111.357 251.524 110.783 252.162 109.867C252.824 108.928 253.291 107.637 253.563 105.993ZM259.341 104.607C259.028 106.497 258.53 108.149 257.848 109.565C257.186 110.976 256.393 112.183 255.468 113.185C254.542 114.187 253.513 114.997 252.379 115.613C251.265 116.225 250.09 116.679 248.853 116.976C247.637 117.268 246.523 117.354 245.511 117.233C244.516 117.127 243.691 116.762 243.034 116.14C242.381 115.498 241.93 114.581 241.679 113.389C241.449 112.192 241.488 110.667 241.794 108.815C242.107 106.925 242.594 105.275 243.256 103.864C243.939 102.449 244.742 101.24 245.667 100.237C246.593 99.2351 247.612 98.428 248.726 97.8161C249.863 97.1805 251.04 96.7168 252.256 96.425C253.493 96.1284 254.607 96.0427 255.598 96.1678C256.613 96.2691 257.448 96.6407 258.1 97.2826C258.757 97.9055 259.2 98.8155 259.43 100.012C259.68 101.205 259.651 102.736 259.341 104.607Z" fill="white"/>
<path d="M376.6 151.996H372.424L371.56 154H370L373.864 145.456H375.124L379 154H377.452L376.6 151.996ZM376.084 150.796L374.512 147.136L372.94 150.796H376.084ZM383.272 147.784C383.792 147.784 384.252 147.92 384.652 148.192C385.06 148.456 385.376 148.832 385.6 149.32C385.832 149.8 385.948 150.352 385.948 150.976C385.948 151.6 385.836 152.148 385.612 152.62C385.388 153.092 385.072 153.456 384.664 153.712C384.264 153.968 383.8 154.096 383.272 154.096C382.832 154.096 382.44 154.004 382.096 153.82C381.752 153.628 381.488 153.364 381.304 153.028V156.592H379.816V149.656C379.816 149.016 379.784 148.444 379.72 147.94H381.124L381.244 148.984C381.404 148.608 381.664 148.316 382.024 148.108C382.384 147.892 382.8 147.784 383.272 147.784ZM382.864 152.92C383.368 152.92 383.756 152.752 384.028 152.416C384.3 152.08 384.436 151.6 384.436 150.976C384.436 150.344 384.3 149.852 384.028 149.5C383.756 149.14 383.372 148.96 382.876 148.96C382.364 148.96 381.972 149.132 381.7 149.476C381.428 149.82 381.292 150.312 381.292 150.952C381.292 151.584 381.428 152.072 381.7 152.416C381.972 152.752 382.36 152.92 382.864 152.92ZM390.713 147.784C391.233 147.784 391.693 147.92 392.093 148.192C392.501 148.456 392.817 148.832 393.041 149.32C393.273 149.8 393.389 150.352 393.389 150.976C393.389 151.6 393.277 152.148 393.053 152.62C392.829 153.092 392.513 153.456 392.105 153.712C391.705 153.968 391.241 154.096 390.713 154.096C390.273 154.096 389.881 154.004 389.537 153.82C389.193 153.628 388.929 153.364 388.745 153.028V156.592H387.257V149.656C387.257 149.016 387.225 148.444 387.161 147.94H388.565L388.685 148.984C388.845 148.608 389.105 148.316 389.465 148.108C389.825 147.892 390.241 147.784 390.713 147.784ZM390.305 152.92C390.809 152.92 391.197 152.752 391.469 152.416C391.741 152.08 391.877 151.6 391.877 150.976C391.877 150.344 391.741 149.852 391.469 149.5C391.197 149.14 390.813 148.96 390.317 148.96C389.805 148.96 389.413 149.132 389.141 149.476C388.869 149.82 388.733 150.312 388.733 150.952C388.733 151.584 388.869 152.072 389.141 152.416C389.413 152.752 389.801 152.92 390.305 152.92ZM394.699 145.168H396.187V154H394.699V145.168ZM397.828 147.94H399.316V154H397.828V147.94ZM399.4 145.192V146.668H397.732V145.192H399.4ZM403.705 154.096C403.073 154.096 402.525 153.968 402.061 153.712C401.597 153.456 401.241 153.096 400.993 152.632C400.745 152.16 400.621 151.608 400.621 150.976C400.621 150.344 400.749 149.788 401.005 149.308C401.269 148.828 401.637 148.456 402.109 148.192C402.589 147.92 403.141 147.784 403.765 147.784C404.197 147.784 404.613 147.852 405.013 147.988C405.421 148.124 405.745 148.312 405.985 148.552L405.565 149.608C405.309 149.4 405.037 149.244 404.749 149.14C404.461 149.028 404.177 148.972 403.897 148.972C403.353 148.972 402.929 149.144 402.625 149.488C402.321 149.824 402.169 150.312 402.169 150.952C402.169 151.592 402.317 152.08 402.613 152.416C402.917 152.752 403.345 152.92 403.897 152.92C404.177 152.92 404.461 152.864 404.749 152.752C405.037 152.64 405.309 152.48 405.565 152.272L405.985 153.328C405.729 153.568 405.397 153.756 404.989 153.892C404.581 154.028 404.153 154.096 403.705 154.096ZM412.788 147.94V154H411.312V153.028C411.128 153.364 410.864 153.628 410.52 153.82C410.176 154.004 409.784 154.096 409.344 154.096C408.816 154.096 408.348 153.968 407.94 153.712C407.532 153.456 407.216 153.092 406.992 152.62C406.768 152.148 406.656 151.6 406.656 150.976C406.656 150.352 406.768 149.8 406.992 149.32C407.224 148.832 407.544 148.456 407.952 148.192C408.36 147.92 408.824 147.784 409.344 147.784C409.784 147.784 410.176 147.88 410.52 148.072C410.864 148.256 411.128 148.516 411.312 148.852V147.94H412.788ZM409.752 152.92C410.248 152.92 410.632 152.748 410.904 152.404C411.176 152.06 411.312 151.576 411.312 150.952C411.312 150.312 411.176 149.82 410.904 149.476C410.632 149.132 410.244 148.96 409.74 148.96C409.244 148.96 408.856 149.14 408.576 149.5C408.304 149.852 408.168 150.344 408.168 150.976C408.168 151.6 408.304 152.08 408.576 152.416C408.856 152.752 409.248 152.92 409.752 152.92ZM417.877 147.784C418.405 147.784 418.869 147.916 419.269 148.18C419.677 148.436 419.993 148.8 420.217 149.272C420.441 149.744 420.553 150.292 420.553 150.916C420.553 151.54 420.437 152.096 420.205 152.584C419.981 153.064 419.665 153.436 419.257 153.7C418.857 153.964 418.397 154.096 417.877 154.096C417.429 154.096 417.029 154 416.677 153.808C416.333 153.616 416.073 153.348 415.897 153.004V154H414.421V145.168H415.909V148.852C416.093 148.516 416.357 148.256 416.701 148.072C417.045 147.88 417.437 147.784 417.877 147.784ZM417.481 152.92C417.977 152.92 418.361 152.744 418.633 152.392C418.905 152.04 419.041 151.548 419.041 150.916C419.041 150.292 418.905 149.812 418.633 149.476C418.361 149.132 417.973 148.96 417.469 148.96C416.965 148.96 416.577 149.132 416.305 149.476C416.033 149.82 415.897 150.308 415.897 150.94C415.897 151.58 416.033 152.072 416.305 152.416C416.577 152.752 416.969 152.92 417.481 152.92ZM421.863 145.168H423.351V154H421.863V145.168ZM430.296 151.048H426.12C426.152 151.696 426.312 152.176 426.6 152.488C426.896 152.792 427.332 152.944 427.908 152.944C428.572 152.944 429.188 152.728 429.756 152.296L430.188 153.328C429.9 153.56 429.544 153.748 429.12 153.892C428.704 154.028 428.28 154.096 427.848 154.096C426.856 154.096 426.076 153.816 425.508 153.256C424.94 152.696 424.656 151.928 424.656 150.952C424.656 150.336 424.78 149.788 425.028 149.308C425.276 148.828 425.624 148.456 426.072 148.192C426.52 147.92 427.028 147.784 427.596 147.784C428.428 147.784 429.084 148.056 429.564 148.6C430.052 149.136 430.296 149.876 430.296 150.82V151.048ZM427.632 148.864C427.232 148.864 426.904 148.984 426.648 149.224C426.4 149.456 426.24 149.796 426.168 150.244H428.988C428.94 149.788 428.8 149.444 428.568 149.212C428.344 148.98 428.032 148.864 427.632 148.864ZM440.379 147.94V154H438.915V153.064C438.723 153.4 438.467 153.656 438.147 153.832C437.827 154.008 437.459 154.096 437.043 154.096C435.563 154.096 434.823 153.264 434.823 151.6V147.94H436.311V151.612C436.311 152.052 436.399 152.376 436.575 152.584C436.759 152.792 437.039 152.896 437.415 152.896C437.855 152.896 438.207 152.752 438.471 152.464C438.735 152.176 438.867 151.792 438.867 151.312V147.94H440.379ZM445.475 147.784C446.923 147.784 447.647 148.616 447.647 150.28V154H446.147V150.352C446.147 149.872 446.055 149.524 445.871 149.308C445.687 149.084 445.403 148.972 445.019 148.972C444.563 148.972 444.195 149.12 443.915 149.416C443.635 149.704 443.495 150.088 443.495 150.568V154H442.007V149.656C442.007 149.016 441.975 148.444 441.911 147.94H443.315L443.423 148.936C443.631 148.568 443.911 148.284 444.263 148.084C444.623 147.884 445.027 147.784 445.475 147.784ZM451.146 149.068V151.78C451.146 152.492 451.478 152.848 452.142 152.848C452.326 152.848 452.526 152.816 452.742 152.752V153.94C452.478 154.036 452.158 154.084 451.782 154.084C451.094 154.084 450.566 153.892 450.198 153.508C449.83 153.124 449.646 152.572 449.646 151.852V149.068H448.482V147.94H449.646V146.464L451.146 145.96V147.94H452.754V149.068H451.146ZM453.785 147.94H455.273V154H453.785V147.94ZM455.357 145.192V146.668H453.689V145.192H455.357ZM456.914 145.168H458.402V154H456.914V145.168ZM463.444 145.456H469.024V146.692H464.98V149.032H468.784V150.28H464.98V154H463.444V145.456ZM475.39 151.048H471.214C471.246 151.696 471.406 152.176 471.694 152.488C471.99 152.792 472.426 152.944 473.002 152.944C473.666 152.944 474.282 152.728 474.85 152.296L475.282 153.328C474.994 153.56 474.638 153.748 474.214 153.892C473.798 154.028 473.374 154.096 472.942 154.096C471.95 154.096 471.17 153.816 470.602 153.256C470.034 152.696 469.75 151.928 469.75 150.952C469.75 150.336 469.874 149.788 470.122 149.308C470.37 148.828 470.718 148.456 471.166 148.192C471.614 147.92 472.122 147.784 472.69 147.784C473.522 147.784 474.178 148.056 474.658 148.6C475.146 149.136 475.39 149.876 475.39 150.82V151.048ZM472.726 148.864C472.326 148.864 471.998 148.984 471.742 149.224C471.494 149.456 471.334 149.796 471.262 150.244H474.082C474.034 149.788 473.894 149.444 473.662 149.212C473.438 148.98 473.126 148.864 472.726 148.864ZM480.116 147.784C480.644 147.784 481.108 147.916 481.508 148.18C481.916 148.436 482.232 148.8 482.456 149.272C482.68 149.744 482.792 150.292 482.792 150.916C482.792 151.54 482.676 152.096 482.444 152.584C482.22 153.064 481.904 153.436 481.496 153.7C481.096 153.964 480.636 154.096 480.116 154.096C479.668 154.096 479.268 154 478.916 153.808C478.572 153.616 478.312 153.348 478.136 153.004V154H476.66V145.168H478.148V148.852C478.332 148.516 478.596 148.256 478.94 148.072C479.284 147.88 479.676 147.784 480.116 147.784ZM479.72 152.92C480.216 152.92 480.6 152.744 480.872 152.392C481.144 152.04 481.28 151.548 481.28 150.916C481.28 150.292 481.144 149.812 480.872 149.476C480.6 149.132 480.212 148.96 479.708 148.96C479.204 148.96 478.816 149.132 478.544 149.476C478.272 149.82 478.136 150.308 478.136 150.94C478.136 151.58 478.272 152.072 478.544 152.416C478.816 152.752 479.208 152.92 479.72 152.92ZM493.166 152.74V154H487.43V152.86L490.334 149.728C490.678 149.352 490.93 149.008 491.09 148.696C491.25 148.384 491.33 148.076 491.33 147.772C491.33 147.38 491.214 147.084 490.982 146.884C490.758 146.684 490.434 146.584 490.01 146.584C489.258 146.584 488.486 146.88 487.694 147.472L487.178 146.344C487.514 146.04 487.946 145.8 488.474 145.624C489.002 145.44 489.534 145.348 490.07 145.348C490.926 145.348 491.602 145.56 492.098 145.984C492.602 146.4 492.854 146.964 492.854 147.676C492.854 148.164 492.746 148.624 492.53 149.056C492.322 149.488 491.97 149.972 491.474 150.508L489.374 152.74H493.166ZM497.109 145.348C498.189 145.348 499.021 145.716 499.605 146.452C500.197 147.18 500.493 148.22 500.493 149.572C500.493 150.516 500.353 151.328 500.073 152.008C499.793 152.688 499.389 153.208 498.861 153.568C498.341 153.928 497.721 154.108 497.001 154.108C496.489 154.108 495.989 154.024 495.501 153.856C495.021 153.68 494.605 153.432 494.253 153.112L494.769 151.984C495.529 152.576 496.253 152.872 496.941 152.872C497.573 152.872 498.061 152.604 498.405 152.068C498.757 151.524 498.941 150.748 498.957 149.74C498.773 150.108 498.493 150.4 498.117 150.616C497.749 150.832 497.329 150.94 496.857 150.94C496.353 150.94 495.901 150.824 495.501 150.592C495.109 150.36 494.801 150.036 494.577 149.62C494.353 149.204 494.241 148.728 494.241 148.192C494.241 147.648 494.361 147.16 494.601 146.728C494.849 146.296 495.189 145.96 495.621 145.72C496.061 145.472 496.557 145.348 497.109 145.348ZM497.193 149.704C497.641 149.704 498.005 149.56 498.285 149.272C498.565 148.984 498.705 148.608 498.705 148.144C498.705 147.68 498.565 147.304 498.285 147.016C498.005 146.72 497.641 146.572 497.193 146.572C496.745 146.572 496.385 146.716 496.113 147.004C495.849 147.292 495.717 147.672 495.717 148.144C495.717 148.616 495.849 148.996 496.113 149.284C496.385 149.564 496.745 149.704 497.193 149.704ZM503.704 149.068V151.78C503.704 152.492 504.036 152.848 504.7 152.848C504.884 152.848 505.084 152.816 505.3 152.752V153.94C505.036 154.036 504.716 154.084 504.34 154.084C503.652 154.084 503.124 153.892 502.756 153.508C502.388 153.124 502.204 152.572 502.204 151.852V149.068H501.04V147.94H502.204V146.464L503.704 145.96V147.94H505.312V149.068H503.704ZM509.811 147.784C511.259 147.784 511.983 148.616 511.983 150.28V154H510.483V150.352C510.483 149.872 510.391 149.524 510.207 149.308C510.023 149.084 509.739 148.972 509.355 148.972C508.899 148.972 508.531 149.12 508.251 149.416C507.971 149.704 507.831 150.088 507.831 150.568V154H506.343V145.168H507.831V148.816C508.039 148.488 508.315 148.236 508.659 148.06C509.003 147.876 509.387 147.784 509.811 147.784Z" fill="white"/>
</g>
<rect x="371" y="45" width="180" height="26" rx="2" fill="white"/>
<path d="M380.989 52.744H387.372V54.317H382.965V56.501H387.099V58.087H382.965V60.427H387.372V62H380.989V52.744ZM392.71 55.24C394.27 55.24 395.05 56.163 395.05 58.009V62H393.087V58.1C393.087 57.6407 393 57.307 392.827 57.099C392.662 56.8823 392.398 56.774 392.034 56.774C391.601 56.774 391.254 56.9127 390.994 57.19C390.734 57.4673 390.604 57.84 390.604 58.308V62H388.641V57.294C388.641 56.592 388.606 55.9637 388.537 55.409H390.383L390.513 56.449C390.747 56.059 391.05 55.76 391.423 55.552C391.804 55.344 392.233 55.24 392.71 55.24ZM399.084 56.878V59.439C399.084 59.803 399.179 60.0717 399.37 60.245C399.56 60.4097 399.807 60.492 400.111 60.492C400.301 60.492 400.518 60.4617 400.761 60.401V61.922C400.449 62.0433 400.072 62.104 399.63 62.104C398.815 62.104 398.191 61.8743 397.758 61.415C397.333 60.9557 397.121 60.31 397.121 59.478V56.878H395.873V55.409H397.121V53.862L399.084 53.225V55.409H400.761V56.878H399.084ZM407.683 58.867H403.341C403.376 59.4823 403.536 59.933 403.822 60.219C404.108 60.4963 404.533 60.635 405.096 60.635C405.434 60.635 405.772 60.5787 406.11 60.466C406.448 60.3533 406.76 60.1887 407.046 59.972L407.566 61.298C407.254 61.5493 406.864 61.7487 406.396 61.896C405.937 62.0347 405.473 62.104 405.005 62.104C403.896 62.104 403.025 61.8007 402.392 61.194C401.759 60.5787 401.443 59.7423 401.443 58.685C401.443 58.0177 401.577 57.424 401.846 56.904C402.123 56.3753 402.509 55.968 403.003 55.682C403.497 55.3873 404.056 55.24 404.68 55.24C405.607 55.24 406.34 55.5433 406.877 56.15C407.414 56.748 407.683 57.5583 407.683 58.581V58.867ZM404.732 56.618C404.359 56.618 404.056 56.7263 403.822 56.943C403.597 57.1597 403.449 57.476 403.38 57.892H405.993C405.889 57.0427 405.469 56.618 404.732 56.618ZM412.751 55.253C413.028 55.253 413.262 55.2963 413.453 55.383L413.44 57.177C413.119 57.0297 412.798 56.956 412.478 56.956C411.958 56.956 411.559 57.099 411.282 57.385C411.013 57.6623 410.879 58.0523 410.879 58.555V62H408.916V57.294C408.916 56.592 408.881 55.9637 408.812 55.409H410.658L410.788 56.54C410.952 56.124 411.208 55.8077 411.555 55.591C411.91 55.3657 412.309 55.253 412.751 55.253ZM421.024 62.104C419.949 62.104 419.104 61.8007 418.489 61.194C417.882 60.5873 417.579 59.7597 417.579 58.711C417.579 58.0263 417.726 57.424 418.021 56.904C418.316 56.3753 418.727 55.968 419.256 55.682C419.793 55.3873 420.413 55.24 421.115 55.24C421.592 55.24 422.055 55.3137 422.506 55.461C422.957 55.6083 423.316 55.8077 423.585 56.059L423.065 57.424C422.805 57.216 422.519 57.0557 422.207 56.943C421.895 56.8217 421.592 56.761 421.297 56.761C420.76 56.761 420.339 56.9257 420.036 57.255C419.741 57.5757 419.594 58.048 419.594 58.672C419.594 59.3047 419.741 59.7857 420.036 60.115C420.331 60.4357 420.751 60.596 421.297 60.596C421.592 60.596 421.895 60.5397 422.207 60.427C422.519 60.3057 422.805 60.141 423.065 59.933L423.585 61.298C423.299 61.5493 422.926 61.7487 422.467 61.896C422.008 62.0347 421.527 62.104 421.024 62.104ZM427.664 62.104C426.962 62.104 426.347 61.9653 425.818 61.688C425.298 61.4107 424.895 61.012 424.609 60.492C424.332 59.972 424.193 59.3653 424.193 58.672C424.193 57.9787 424.332 57.372 424.609 56.852C424.895 56.332 425.298 55.9333 425.818 55.656C426.347 55.3787 426.962 55.24 427.664 55.24C428.357 55.24 428.964 55.3787 429.484 55.656C430.004 55.9333 430.403 56.332 430.68 56.852C430.966 57.372 431.109 57.9787 431.109 58.672C431.109 59.3653 430.966 59.972 430.68 60.492C430.403 61.012 430.004 61.4107 429.484 61.688C428.964 61.9653 428.357 62.104 427.664 62.104ZM427.664 60.609C428.149 60.609 428.518 60.4487 428.769 60.128C429.029 59.8073 429.159 59.322 429.159 58.672C429.159 58.0307 429.029 57.5497 428.769 57.229C428.518 56.8997 428.149 56.735 427.664 56.735C427.17 56.735 426.793 56.8997 426.533 57.229C426.273 57.5497 426.143 58.0307 426.143 58.672C426.143 59.9633 426.65 60.609 427.664 60.609ZM438.968 52.432V62H437.031V61.025C436.831 61.363 436.55 61.6273 436.186 61.818C435.822 62.0087 435.41 62.104 434.951 62.104C434.387 62.104 433.885 61.961 433.443 61.675C433.001 61.3803 432.654 60.973 432.403 60.453C432.16 59.9243 432.039 59.322 432.039 58.646C432.039 57.97 432.16 57.3763 432.403 56.865C432.654 56.345 432.996 55.9463 433.43 55.669C433.872 55.383 434.379 55.24 434.951 55.24C435.393 55.24 435.796 55.3353 436.16 55.526C436.524 55.708 436.805 55.9637 437.005 56.293V52.432H438.968ZM435.523 60.609C436.008 60.609 436.381 60.4443 436.641 60.115C436.901 59.777 437.031 59.296 437.031 58.672C437.031 58.0567 436.896 57.5843 436.628 57.255C436.368 56.917 435.999 56.748 435.523 56.748C435.037 56.748 434.66 56.9127 434.392 57.242C434.123 57.5713 433.989 58.0393 433.989 58.646C433.989 59.27 434.123 59.7553 434.392 60.102C434.66 60.44 435.037 60.609 435.523 60.609ZM446.467 58.867H442.125C442.16 59.4823 442.32 59.933 442.606 60.219C442.892 60.4963 443.317 60.635 443.88 60.635C444.218 60.635 444.556 60.5787 444.894 60.466C445.232 60.3533 445.544 60.1887 445.83 59.972L446.35 61.298C446.038 61.5493 445.648 61.7487 445.18 61.896C444.721 62.0347 444.257 62.104 443.789 62.104C442.68 62.104 441.809 61.8007 441.176 61.194C440.544 60.5787 440.227 59.7423 440.227 58.685C440.227 58.0177 440.362 57.424 440.63 56.904C440.908 56.3753 441.293 55.968 441.787 55.682C442.281 55.3873 442.84 55.24 443.464 55.24C444.392 55.24 445.124 55.5433 445.661 56.15C446.199 56.748 446.467 57.5583 446.467 58.581V58.867ZM443.516 56.618C443.144 56.618 442.84 56.7263 442.606 56.943C442.381 57.1597 442.234 57.476 442.164 57.892H444.777C444.673 57.0427 444.253 56.618 443.516 56.618ZM451.486 52.744H457.726V54.343H453.488V56.488H457.466V58.1H453.488V62H451.486V52.744ZM459.002 52.744H461.03V60.349H465.164V62H459.002V52.744ZM472.578 59.946H468.249L467.365 62H465.324L469.575 52.744H471.213L475.464 62H473.462L472.578 59.946ZM471.915 58.399L470.42 54.928L468.925 58.399H471.915ZM479.365 62.117C478.663 62.117 477.987 62.026 477.337 61.844C476.695 61.6533 476.162 61.389 475.738 61.051L476.388 59.595C477.28 60.219 478.277 60.531 479.378 60.531C479.967 60.531 480.418 60.44 480.73 60.258C481.05 60.0673 481.211 59.803 481.211 59.465C481.211 59.1703 481.063 58.9407 480.769 58.776C480.483 58.6027 479.976 58.438 479.248 58.282C478.433 58.1173 477.783 57.918 477.298 57.684C476.821 57.4413 476.47 57.151 476.245 56.813C476.028 56.4663 475.92 56.0373 475.92 55.526C475.92 54.9713 476.071 54.473 476.375 54.031C476.687 53.589 477.12 53.2467 477.675 53.004C478.229 52.7527 478.871 52.627 479.599 52.627C480.257 52.627 480.89 52.7223 481.497 52.913C482.103 53.1037 482.589 53.3637 482.953 53.693L482.303 55.149C481.488 54.525 480.591 54.213 479.612 54.213C479.092 54.213 478.676 54.317 478.364 54.525C478.052 54.733 477.896 55.0147 477.896 55.37C477.896 55.578 477.952 55.7513 478.065 55.89C478.186 56.0287 478.385 56.1543 478.663 56.267C478.94 56.371 479.334 56.475 479.846 56.579C481.033 56.839 481.887 57.177 482.407 57.593C482.935 58.009 483.2 58.5767 483.2 59.296C483.2 60.1627 482.862 60.8517 482.186 61.363C481.51 61.8657 480.569 62.117 479.365 62.117ZM492.94 52.744V62H490.951V58.113H486.661V62H484.672V52.744H486.661V56.488H490.951V52.744H492.94ZM498.039 62.117C497.337 62.117 496.661 62.026 496.011 61.844C495.37 61.6533 494.837 61.389 494.412 61.051L495.062 59.595C495.955 60.219 496.952 60.531 498.052 60.531C498.642 60.531 499.092 60.44 499.404 60.258C499.725 60.0673 499.885 59.803 499.885 59.465C499.885 59.1703 499.738 58.9407 499.443 58.776C499.157 58.6027 498.65 58.438 497.922 58.282C497.108 58.1173 496.458 57.918 495.972 57.684C495.496 57.4413 495.145 57.151 494.919 56.813C494.703 56.4663 494.594 56.0373 494.594 55.526C494.594 54.9713 494.746 54.473 495.049 54.031C495.361 53.589 495.795 53.2467 496.349 53.004C496.904 52.7527 497.545 52.627 498.273 52.627C498.932 52.627 499.565 52.7223 500.171 52.913C500.778 53.1037 501.263 53.3637 501.627 53.693L500.977 55.149C500.163 54.525 499.266 54.213 498.286 54.213C497.766 54.213 497.35 54.317 497.038 54.525C496.726 54.733 496.57 55.0147 496.57 55.37C496.57 55.578 496.627 55.7513 496.739 55.89C496.861 56.0287 497.06 56.1543 497.337 56.267C497.615 56.371 498.009 56.475 498.52 56.579C499.708 56.839 500.561 57.177 501.081 57.593C501.61 58.009 501.874 58.5767 501.874 59.296C501.874 60.1627 501.536 60.8517 500.86 61.363C500.184 61.8657 499.244 62.117 498.039 62.117ZM509.407 59.946H505.078L504.194 62H502.153L506.404 52.744H508.042L512.293 62H510.291L509.407 59.946ZM508.744 58.399L507.249 54.928L505.754 58.399H508.744ZM513.084 52.744H515.112V60.349H519.246V62H513.084V52.744ZM520.485 52.744H526.868V54.317H522.461V56.501H526.595V58.087H522.461V60.427H526.868V62H520.485V52.744ZM531.803 56.007C532.375 56.007 532.882 56.1327 533.324 56.384C533.775 56.6267 534.122 56.9733 534.364 57.424C534.616 57.8747 534.741 58.3947 534.741 58.984C534.741 59.608 534.594 60.1583 534.299 60.635C534.013 61.103 533.597 61.467 533.051 61.727C532.514 61.9783 531.886 62.104 531.166 62.104C530.577 62.104 529.992 62.0087 529.411 61.818C528.839 61.6273 528.376 61.376 528.02 61.064L528.67 59.608C529.494 60.206 530.334 60.505 531.192 60.505C532.276 60.505 532.817 60.024 532.817 59.062C532.817 58.6027 532.674 58.243 532.388 57.983C532.111 57.7143 531.73 57.58 531.244 57.58C530.941 57.58 530.633 57.6363 530.321 57.749C530.018 57.8617 529.745 58.0177 529.502 58.217H528.345V52.744H534.286V54.304H530.321V56.371C530.729 56.1283 531.223 56.007 531.803 56.007ZM539.039 62.117C537.921 62.117 537.063 61.7097 536.465 60.895C535.876 60.0803 535.581 58.9017 535.581 57.359C535.581 55.8337 535.876 54.668 536.465 53.862C537.063 53.056 537.921 52.653 539.039 52.653C540.157 52.653 541.011 53.056 541.6 53.862C542.198 54.668 542.497 55.8337 542.497 57.359C542.497 58.9017 542.198 60.0803 541.6 60.895C541.011 61.7097 540.157 62.117 539.039 62.117ZM539.039 60.557C539.55 60.557 539.923 60.3057 540.157 59.803C540.391 59.3003 540.508 58.4857 540.508 57.359C540.508 56.2583 540.391 55.461 540.157 54.967C539.923 54.4643 539.55 54.213 539.039 54.213C538.528 54.213 538.155 54.4643 537.921 54.967C537.687 55.461 537.57 56.2583 537.57 57.359C537.57 58.4857 537.687 59.3003 537.921 59.803C538.155 60.3057 538.528 60.557 539.039 60.557Z" fill="#EC7401"/>
<defs>
<filter id="filter0_d" x="-6" y="-5" width="1054" height="202" filterUnits="userSpaceOnUse" color-interpolation-filters="sRGB">
<feFlood flood-opacity="0" result="BackgroundImageFix"/>
<feColorMatrix in="SourceAlpha" type="matrix" values="0 0 0 0 0 0 0 0 0 0 0 0 0 0 0 0 0 0 127 0"/>
<feOffset dx="4" dy="4"/>
<feGaussianBlur stdDeviation="5"/>
<feColorMatrix type="matrix" values="0 0 0 0 0.200282 0 0 0 0 0.254481 0 0 0 0 0.335778 0 0 0 0.1 0"/>
<feBlend mode="normal" in2="BackgroundImageFix" result="effect1_dropShadow"/>
<feBlend mode="normal" in="SourceGraphic" in2="effect1_dropShadow" result="shape"/>
</filter>
<linearGradient id="paint0_linear" x1="227.744" y1="33.5" x2="756.861" y2="575.886" gradientUnits="userSpaceOnUse">
<stop offset="0.0052944" stop-color="#E46D00"/>
<stop offset="1" stop-color="#F98200"/>
</linearGradient>
<linearGradient id="paint1_linear" x1="216.56" y1="78" x2="690.884" y2="339.964" gradientUnits="userSpaceOnUse">
<stop stop-color="#F4BA14"/>
<stop offset="0.983464" stop-color="#B55600"/>
</linearGradient>
<linearGradient id="paint2_linear" x1="1136.94" y1="1177.62" x2="990.709" y2="999.562" gradientUnits="userSpaceOnUse">
<stop stop-color="#DA9029"/>
<stop offset="1" stop-color="#F1CE44"/>
</linearGradient>
<linearGradient id="paint3_linear" x1="931.869" y1="967.136" x2="968.672" y2="967.136" gradientUnits="userSpaceOnUse">
<stop stop-color="#F1CE44"/>
<stop offset="1" stop-color="#DA9029"/>
</linearGradient>
<linearGradient id="paint4_linear" x1="1455.13" y1="907.084" x2="1360.58" y2="819.02" gradientUnits="userSpaceOnUse">
<stop stop-color="#DA9029"/>
<stop offset="1" stop-color="#F1CE44"/>
</linearGradient>
<linearGradient id="paint5_linear" x1="1403.05" y1="794.246" x2="1471.54" y2="794.246" gradientUnits="userSpaceOnUse">
<stop stop-color="#F1CE44"/>
<stop offset="1" stop-color="#DA9029"/>
</linearGradient>
<linearGradient id="paint6_linear" x1="91.7517" y1="73.7138" x2="87.5855" y2="59.8792" gradientUnits="userSpaceOnUse">
<stop stop-color="#DA9029"/>
<stop offset="1" stop-color="#F1CE44"/>
</linearGradient>
<linearGradient id="paint7_linear" x1="92.4016" y1="63.5264" x2="82.4752" y2="71.9134" gradientUnits="userSpaceOnUse">
<stop stop-color="#F1CE44"/>
<stop offset="1" stop-color="#DA9029"/>
</linearGradient>
<linearGradient id="paint8_linear" x1="7178.83" y1="4583.01" x2="7303.23" y2="4279.25" gradientUnits="userSpaceOnUse">
<stop stop-color="#DA9029"/>
<stop offset="1" stop-color="#F1CE44"/>
</linearGradient>
<linearGradient id="paint9_linear" x1="6795.17" y1="3723.25" x2="7665.07" y2="3723.25" gradientUnits="userSpaceOnUse">
<stop stop-color="#F1CE44"/>
<stop offset="1" stop-color="#DA9029"/>
</linearGradient>
<linearGradient id="paint10_linear" x1="8040.99" y1="3150.9" x2="8026.68" y2="2981.71" gradientUnits="userSpaceOnUse">
<stop stop-color="#DA9029"/>
<stop offset="1" stop-color="#F1CE44"/>
</linearGradient>
<linearGradient id="paint11_linear" x1="7433.32" y1="1915.95" x2="8567.14" y2="1915.95" gradientUnits="userSpaceOnUse">
<stop stop-color="#F1CE44"/>
<stop offset="1" stop-color="#DA9029"/>
</linearGradient>
<linearGradient id="paint12_linear" x1="2097.97" y1="3306.76" x2="2282.39" y2="3306.76" gradientUnits="userSpaceOnUse">
<stop stop-color="#BC002C"/>
<stop offset="1" stop-color="#BE3036"/>
</linearGradient>
<linearGradient id="paint13_linear" x1="205.373" y1="163.998" x2="204.049" y2="161.684" gradientUnits="userSpaceOnUse">
<stop stop-color="white"/>
<stop offset="1" stop-color="#BE3036"/>
</linearGradient>
<linearGradient id="paint14_linear" x1="9117.6" y1="9155.59" x2="9504.11" y2="10353.9" gradientUnits="userSpaceOnUse">
<stop stop-color="#F1CE44"/>
<stop offset="1" stop-color="#DA9029"/>
</linearGradient>
<linearGradient id="paint15_linear" x1="5763.54" y1="7057.09" x2="7600.4" y2="7057.09" gradientUnits="userSpaceOnUse">
<stop stop-color="#F1CE44"/>
<stop offset="1" stop-color="#DA9029"/>
</linearGradient>
<linearGradient id="paint16_linear" x1="8980.37" y1="4397.42" x2="9013.29" y2="4669.47" gradientUnits="userSpaceOnUse">
<stop stop-color="#F1CE44"/>
<stop offset="1" stop-color="#DA9029"/>
</linearGradient>
<linearGradient id="paint17_linear" x1="2735.18" y1="4319.26" x2="3122.18" y2="4319.26" gradientUnits="userSpaceOnUse">
<stop stop-color="#D80027"/>
<stop offset="1" stop-color="#BE3036"/>
</linearGradient>
<linearGradient id="paint18_linear" x1="2609.36" y1="2757.93" x2="2575.07" y2="2668.35" gradientUnits="userSpaceOnUse">
<stop stop-color="#D80027"/>
<stop offset="1" stop-color="#BE3036"/>
</linearGradient>
<linearGradient id="paint19_linear" x1="3692.38" y1="6973.79" x2="4615.51" y2="7876.05" gradientUnits="userSpaceOnUse">
<stop stop-color="#F1CE44"/>
<stop offset="1" stop-color="#DA9029"/>
</linearGradient>
<linearGradient id="paint20_linear" x1="3509.13" y1="7536.89" x2="3886.59" y2="7536.89" gradientUnits="userSpaceOnUse">
<stop stop-color="#F1CE44"/>
<stop offset="1" stop-color="#DA9029"/>
</linearGradient>
<linearGradient id="paint21_linear" x1="3509.13" y1="7536.89" x2="3886.59" y2="7536.89" gradientUnits="userSpaceOnUse">
<stop stop-color="#F1CE44"/>
<stop offset="1" stop-color="#DA9029"/>
</linearGradient>
<linearGradient id="paint22_linear" x1="3415.15" y1="6832.63" x2="3292.67" y2="6871.93" gradientUnits="userSpaceOnUse">
<stop stop-color="#F1CE44"/>
<stop offset="1" stop-color="#DA9029"/>
</linearGradient>
<linearGradient id="paint23_linear" x1="3385.65" y1="6873.73" x2="3289.51" y2="6904.57" gradientUnits="userSpaceOnUse">
<stop stop-color="#F1CE44"/>
<stop offset="1" stop-color="#DA9029"/>
</linearGradient>
<linearGradient id="paint24_linear" x1="8272.96" y1="7125.52" x2="8756.31" y2="6361.74" gradientUnits="userSpaceOnUse">
<stop stop-color="#DA9029"/>
<stop offset="1" stop-color="#F1CE44"/>
</linearGradient>
<linearGradient id="paint25_linear" x1="7802.8" y1="6054.38" x2="9461.47" y2="6737.01" gradientUnits="userSpaceOnUse">
<stop stop-color="#F1CE44"/>
<stop offset="1" stop-color="#DA9029"/>
</linearGradient>
<linearGradient id="paint26_linear" x1="7587.29" y1="1970.6" x2="7650.56" y2="1334.09" gradientUnits="userSpaceOnUse">
<stop stop-color="#DA9029"/>
<stop offset="1" stop-color="#F1CE44"/>
</linearGradient>
<linearGradient id="paint27_linear" x1="6949.9" y1="1442.34" x2="8215.69" y2="1347.61" gradientUnits="userSpaceOnUse">
<stop stop-color="#F1CE44"/>
<stop offset="1" stop-color="#DA9029"/>
</linearGradient>
<linearGradient id="paint28_linear" x1="2981.06" y1="1643.45" x2="3142.69" y2="1709.97" gradientUnits="userSpaceOnUse">
<stop stop-color="#DA9029"/>
<stop offset="1" stop-color="#F1CE44"/>
</linearGradient>
<linearGradient id="paint29_linear" x1="2981.06" y1="1643.45" x2="3142.69" y2="1709.97" gradientUnits="userSpaceOnUse">
<stop stop-color="#F1CE44"/>
<stop offset="1" stop-color="#DA9029"/>
</linearGradient>
<clipPath id="clip0">
<rect x="142.968" y="-5" width="202" height="188" fill="white"/>
</clipPath>
</defs>
</svg>
