<svg width="55" height="32" viewBox="0 0 55 32" fill="none" xmlns="http://www.w3.org/2000/svg">
<path d="M55 0H0V32H55V0Z" fill="white"/>
<path d="M11.1256 8C13.3753 8.01119 15.6921 8.53723 18.0761 9.6005L18.188 9.64527L18.2328 9.7572V9.76839C18.423 10.3616 18.5909 10.9436 18.7364 11.5368C18.8819 12.13 18.9826 12.712 19.0722 13.3052C19.1841 14.0774 19.2513 14.8497 19.2624 15.622V16.5286C19.2177 18.476 18.8707 20.4235 18.2439 22.3821L18.1992 22.4941L18.0873 22.5388C15.8264 23.5349 13.5656 24.0274 11.3047 24.0274C11.2487 24.0274 11.1928 24.0274 11.1256 24.0274V23.479C11.1928 23.479 11.2487 23.479 11.3047 23.479C13.4536 23.479 15.6026 23.0201 17.7515 22.0799C18.6916 19.1811 18.9491 16.2823 18.5238 13.3723C18.4454 12.8127 18.3335 12.2307 18.188 11.6599C18.0649 11.1227 17.9194 10.5854 17.7403 10.0594C15.4683 9.05208 13.2634 8.55962 11.1256 8.54842V8ZM4.51096 9.61169C6.61512 8.53723 8.80882 8 11.0697 8C11.0809 8 11.1032 8 11.1144 8V8.54842C11.1032 8.54842 11.0809 8.54842 11.0697 8.54842C8.92074 8.54842 6.85016 9.05208 4.83554 10.0594C4.02969 11.9845 3.57081 13.9543 3.54842 15.9577C3.51485 17.95 3.92896 19.987 4.83554 22.0688C6.92851 22.9753 9.02147 23.4454 11.1256 23.4678V24.0162C8.92074 23.9938 6.72704 23.5014 4.52216 22.5276L4.37666 22.3933C3.44769 20.3004 3.01119 18.2298 3 16.2152V16.0697C3 16.0249 3 16.0025 3 15.9577C3.02238 13.8536 3.51485 11.783 4.37666 9.7572L4.51096 9.61169Z" fill="#235DA6"/>
<path fill-rule="evenodd" clip-rule="evenodd" d="M11.2711 20.4765C11.1592 18.9319 11.2264 17.3314 10.7675 15.8652C10.3422 14.4998 8.71927 13.7163 8.6857 12.2053C8.65212 11.0301 9.5475 9.67586 11.2264 9.67586C12.7933 9.66467 13.7782 10.8175 13.8901 12.0822C14.0244 13.5596 12.2337 14.5445 11.7748 15.9548C11.2823 17.3874 11.4166 18.9767 11.2711 20.4765Z" fill="#235DA6"/>
<path fill-rule="evenodd" clip-rule="evenodd" d="M11.8867 20.1097C11.8195 18.7667 11.8195 17.4908 12.1889 16.3492C12.603 15.062 13.4536 13.9764 14.7631 13.6182C15.6585 13.372 16.968 14.4241 16.7666 15.4985C16.5875 16.3603 15.7257 17.3788 14.3378 17.4908C13.6887 17.5467 13.42 18.0616 13.0171 18.3638C14.8191 18.1847 15.9943 17.4796 16.8001 16.7409C16.9233 17.3677 17.0016 18.4197 16.5091 18.7891C15.5466 19.4718 14.6512 18.9234 13.5096 19.2367C12.8828 19.4158 12.4799 19.8187 11.8867 20.1097Z" fill="#235DA6"/>
<path fill-rule="evenodd" clip-rule="evenodd" d="M10.6555 20.1097C10.7227 18.7667 10.7227 17.4908 10.3533 16.3492C9.93922 15.062 9.0886 13.9764 7.7791 13.6182C6.88371 13.372 5.56302 14.4241 5.77567 15.4985C5.95475 16.3603 6.81656 17.3788 8.20441 17.4908C8.84237 17.5467 9.12218 18.0616 9.5251 18.3638C7.72314 18.1847 6.55913 17.4796 5.75329 16.7297C5.63017 17.3565 5.55182 18.4085 6.04429 18.7779C7.00683 19.4606 7.90221 18.9122 9.04383 19.2255C9.6706 19.4158 10.0623 19.8187 10.6555 20.1097Z" fill="#235DA6"/>
<path fill-rule="evenodd" clip-rule="evenodd" d="M14.9534 22.1039V21.8912L15.1101 21.8464L14.9534 21.6002V21.1973L15.6809 22.2046L15.4235 22.2718L15.2444 22.0255L14.9534 22.1039ZM14.9534 21.1973V21.6002L14.8415 21.4435L14.7967 21.9248L14.9534 21.88V22.0927L14.7631 22.1374L14.7296 22.4396L14.4721 22.5068L14.64 21.1973L14.8974 21.1301L14.9534 21.1973ZM12.5471 22.809V22.5963H12.603C12.6926 22.5851 12.7485 22.5851 12.7709 22.5739C12.8045 22.5628 12.8381 22.5404 12.8493 22.518C12.8716 22.4844 12.8828 22.4508 12.8828 22.4173C12.8717 22.3725 12.8716 22.3501 12.8381 22.3165C12.8269 22.2941 12.7933 22.2718 12.7597 22.2718C12.7262 22.2606 12.659 22.2606 12.5471 22.2718V22.0591C12.6142 22.0591 12.6478 22.0479 12.6702 22.0479C12.715 22.0367 12.7373 22.0143 12.7709 21.9919C12.7933 21.9696 12.8045 21.936 12.7933 21.8912C12.7933 21.8464 12.7821 21.8241 12.7485 21.8017C12.7373 21.7793 12.7038 21.7569 12.6478 21.7569C12.6366 21.7569 12.603 21.7569 12.5471 21.7681V21.5554C12.6366 21.5443 12.7038 21.5443 12.7373 21.5554C12.7821 21.5554 12.8381 21.5666 12.8717 21.6002C12.9164 21.6114 12.9388 21.645 12.9724 21.6898C12.9948 21.7345 13.0171 21.7793 13.0171 21.8353C13.0283 21.8912 13.006 21.9472 12.9836 21.9919C12.9612 22.0367 12.9164 22.0815 12.8605 22.1151C12.9388 22.1263 13.006 22.1598 13.0507 22.2158C13.0955 22.2606 13.1179 22.3165 13.1291 22.3949C13.1291 22.4508 13.1179 22.5068 13.1067 22.5628C13.0843 22.6187 13.0507 22.6635 13.006 22.6971C12.9612 22.7306 12.9052 22.753 12.8493 22.7642C12.8045 22.7754 12.7038 22.7754 12.5471 22.7978V22.809ZM14.0692 22.1263L14.3154 22.1598C14.3043 22.2941 14.2595 22.4061 14.1812 22.4956C14.114 22.5628 14.0021 22.6299 13.879 22.6523C13.7223 22.6747 13.5768 22.6411 13.4537 22.5516C13.3193 22.4508 13.2522 22.3165 13.2074 22.1263C13.1738 21.9248 13.1962 21.7569 13.2858 21.6226C13.3641 21.4883 13.4984 21.4099 13.6663 21.3764C13.823 21.354 13.9349 21.3764 14.058 21.4435C14.1252 21.4883 14.1812 21.5443 14.2147 21.645L13.9797 21.7457C13.9573 21.6898 13.9125 21.645 13.8678 21.6114C13.8118 21.5778 13.7558 21.5666 13.6887 21.5778C13.5992 21.589 13.532 21.645 13.4872 21.7121C13.4425 21.7905 13.4313 21.9024 13.4537 22.0479C13.4872 22.2046 13.532 22.3053 13.5992 22.3613C13.6663 22.4173 13.7447 22.4396 13.8342 22.4284C13.9013 22.4173 13.9461 22.3837 13.9909 22.3277C14.0357 22.2941 14.0692 22.2158 14.0692 22.1263ZM12.5471 21.5666V21.7793C12.5135 21.7793 12.4799 21.7905 12.4463 21.7905L12.3008 21.8017L12.3232 22.0815L12.4911 22.0703C12.5023 22.0703 12.5359 22.0703 12.5471 22.0591V22.2718C12.5471 22.2718 12.5471 22.2718 12.5359 22.2718L12.3456 22.2829L12.368 22.6187L12.5471 22.6075V22.8202L12.1441 22.8649L12.0322 21.6338L12.5247 21.589C12.5359 21.5666 12.5359 21.5666 12.5471 21.5666ZM10.9913 22.3725V22.1598C11.0473 22.1598 11.0809 22.1486 11.1033 22.1486C11.1368 22.1374 11.1592 22.1151 11.1816 22.0927C11.1928 22.0591 11.204 22.0255 11.204 21.9919C11.2152 21.9472 11.1928 21.9136 11.1704 21.88C11.148 21.8464 11.1145 21.8353 11.0697 21.8241C11.0473 21.8241 11.0249 21.8129 10.9801 21.8129V21.6002C11.1033 21.6002 11.1704 21.6114 11.2152 21.6226C11.2823 21.6338 11.3495 21.6786 11.3943 21.7457C11.439 21.8129 11.4614 21.8912 11.4614 21.9919C11.4614 22.0591 11.4502 22.1263 11.4166 22.1822C11.3831 22.227 11.3495 22.2718 11.3159 22.3053C11.2711 22.3277 11.2264 22.3501 11.1816 22.3613C11.1368 22.3725 11.0697 22.3725 10.9913 22.3725ZM10.9913 21.6114V21.8241C10.969 21.8241 10.9354 21.8241 10.8906 21.8241L10.7675 21.8129V22.171H10.9018C10.9354 22.171 10.969 22.171 10.9913 22.171V22.3837C10.9801 22.3837 10.9466 22.3837 10.9242 22.3837H10.7675L10.7563 22.8538L10.5101 22.8426L10.5325 21.6114L10.9242 21.6226C10.9578 21.6114 10.9801 21.6114 10.9913 21.6114ZM8.66334 22.2606V21.88C8.73049 21.8912 8.78645 21.8912 8.80884 21.8912C8.84241 21.88 8.8648 21.88 8.88718 21.8464C8.89837 21.8241 8.92076 21.8017 8.93195 21.7569C8.94314 21.7121 8.93195 21.6898 8.92076 21.6562C8.90957 21.6226 8.87599 21.6114 8.83122 21.589C8.82003 21.5778 8.76407 21.5778 8.67453 21.5554V21.3428L8.77526 21.354C8.90957 21.3764 8.98791 21.3988 9.04387 21.4323C9.09984 21.4659 9.14461 21.5107 9.16699 21.5778C9.18937 21.6338 9.20057 21.7121 9.17818 21.7793C9.16699 21.8688 9.12222 21.936 9.05507 21.9919C8.99911 22.0367 8.90957 22.0591 8.79764 22.0591C8.84241 22.1039 8.88718 22.1374 8.90957 22.1822C8.94314 22.227 8.97672 22.3053 9.0103 22.4061L9.11103 22.6747L8.82003 22.6187L8.68572 22.3165C8.68572 22.3165 8.68572 22.2829 8.66334 22.2606ZM9.37964 21.4883L9.62588 21.5107L9.56991 22.1822C9.55872 22.2829 9.55872 22.3613 9.55872 22.3837C9.56991 22.4396 9.5923 22.4844 9.62588 22.518C9.67064 22.5628 9.71541 22.5739 9.78257 22.5851C9.84972 22.5963 9.91688 22.5739 9.93926 22.5516C9.98403 22.5292 10.0064 22.4956 10.0176 22.4508C10.0288 22.4061 10.0288 22.3389 10.04 22.2382L10.096 21.5554L10.3422 21.5778L10.2862 22.227C10.275 22.3837 10.2638 22.4844 10.2415 22.5404C10.2303 22.5963 10.1967 22.6523 10.1631 22.6859C10.1183 22.7306 10.0624 22.753 10.0064 22.7754C9.95045 22.7978 9.87211 22.7978 9.77138 22.7866C9.64826 22.7754 9.55872 22.753 9.50276 22.7194C9.4468 22.6859 9.40203 22.6523 9.36845 22.6075C9.33488 22.5628 9.32368 22.5068 9.31249 22.462C9.3013 22.3949 9.3013 22.2829 9.31249 22.1486L9.37964 21.4883ZM7.42099 21.8576L7.46576 21.6562L7.9918 21.7905L7.85749 22.2606C7.79033 22.3053 7.71199 22.3277 7.60006 22.3277C7.49933 22.3389 7.3986 22.3277 7.29787 22.3053C7.16356 22.2718 7.06283 22.2158 6.99568 22.1486C6.91733 22.0703 6.86137 21.9696 6.83899 21.8688C6.82779 21.7569 6.82779 21.645 6.85018 21.5331C6.88376 21.4099 6.93972 21.3092 7.01806 21.2197C7.08522 21.1413 7.18595 21.0854 7.29787 21.063C7.38741 21.0406 7.48814 21.0518 7.60006 21.0742C7.74556 21.1189 7.85749 21.1749 7.92464 21.2644C7.9918 21.3428 8.02537 21.4547 8.01418 21.5666L7.76795 21.5554C7.76795 21.4883 7.75676 21.4323 7.71199 21.3876C7.66722 21.3428 7.62245 21.3092 7.5553 21.2868C7.45456 21.2644 7.36503 21.2756 7.28668 21.3204C7.20833 21.3652 7.15237 21.4659 7.1076 21.589C7.06283 21.7345 7.07402 21.8464 7.11879 21.936C7.16356 22.0255 7.24191 22.0815 7.33145 22.1039C7.38741 22.1151 7.43218 22.1151 7.48814 22.1151C7.5441 22.1039 7.58887 22.0927 7.64483 22.0703L7.6896 21.9136L7.42099 21.8576ZM8.66334 21.354L8.24922 21.2868L8.03657 22.4956L8.2828 22.5404L8.37233 22.0367L8.4283 22.0479C8.48426 22.0591 8.52903 22.0703 8.55141 22.0815C8.5738 22.0927 8.59618 22.1263 8.61857 22.1486C8.62976 22.171 8.65214 22.2158 8.67453 22.2718V21.88C8.65214 21.88 8.62976 21.8688 8.59618 21.8688L8.4171 21.8353L8.46187 21.5331L8.65214 21.5666C8.66334 21.5666 8.66334 21.5666 8.66334 21.5666V21.354Z" fill="#235DA6"/>
<path fill-rule="evenodd" clip-rule="evenodd" d="M47.0754 19.841V17.5689H48.0715V13.5733L47.0754 15.5767V10.5849H51.0039L52 22.0794H48.0715V19.8522H47.0754V19.841ZM47.0754 10.5849V15.5767L46.0793 17.5801H47.0754V19.8522H45.1951L44.4228 21.9675H41.9941V19.3373L44.7138 13.4838H44.1542L45.6987 10.5961H47.0754V10.5849ZM41.9829 14.4127L43.2028 11.5251L41.9829 10.8536V14.4127ZM32.3015 13.3047C32.3575 12.9689 32.3575 12.6555 32.3015 12.3421V13.3047ZM41.9829 10.8536V14.4127L41.8262 14.8044C39.4198 13.092 35.8831 14.6478 35.6816 16.4609C35.4801 18.3524 36.9239 19.8857 40.6062 18.7441L39.3415 22.1242C34.484 22.6614 32.5925 20.7364 32.3127 18.4867V17.222C32.3799 16.6288 32.5365 16.058 32.7492 15.5319C35.1444 9.58882 39.0281 10.9207 40.5055 10.8088L40.7181 10.1484L41.9829 10.8536ZM41.9829 19.3261L40.7629 21.9563H41.9829V19.3261ZM27.9365 21.8892C30.5443 21.3743 33.0962 18.2517 30.5331 15.7558C31.5292 15.2186 32.156 14.2672 32.3015 13.3159V12.3533C32.1224 11.3572 31.3614 10.5514 29.9175 10.529L27.9365 10.4842V12.7003H28.7535C29.6265 12.7003 29.5146 14.9723 28.4178 14.9723H27.9253V16.7183C29.1117 16.9422 28.6864 18.5875 27.9253 19.0911V21.8892H27.9365ZM32.3015 17.222V18.4979C32.2567 18.0726 32.2567 17.6473 32.3015 17.222ZM24.5005 10.4171L22.9 13.5285L23.6163 13.4726L21.68 21.9563H27.2202C27.4664 21.9563 27.6903 21.9339 27.9365 21.8892V19.0911C27.8022 19.1918 27.6455 19.2478 27.4888 19.2478H25.4966L26.1569 16.6959H27.6455C27.7462 16.6959 27.847 16.7071 27.9253 16.7183V14.9723H26.5375L27.0971 12.7003H27.9253V10.4842L24.5005 10.4171Z" fill="#235DA6"/>
</svg>
