<svg id="Layer_1" data-name="Layer 1" xmlns="http://www.w3.org/2000/svg" xmlns:xlink="http://www.w3.org/1999/xlink" viewBox="0 0 508.5 182"><defs><style>.cls-1{fill:url(#linear-gradient);}.cls-2{fill:#fff;}.cls-3,.cls-7,.cls-8{fill:none;}.cls-3{stroke:#fff;stroke-miterlimit:10;}.cls-4{fill:url(#radial-gradient);}.cls-5{fill:url(#linear-gradient-3);}.cls-6{fill:url(#linear-gradient-4);}.cls-7{stroke:#e77715;}.cls-7,.cls-8{stroke-linecap:round;stroke-linejoin:round;}.cls-8{stroke:#e5aa17;}.cls-9{opacity:0.5;}.cls-10{mask:url(#mask);}.cls-11{fill:url(#linear-gradient-5);}.cls-12{fill:url(#linear-gradient-6);}.cls-13{fill:url(#linear-gradient-7);}.cls-14{fill:url(#linear-gradient-8);}.cls-15{fill:url(#linear-gradient-9);}.cls-16{fill:#1054a7;}.cls-17{fill:#f4bb15;}</style><linearGradient id="linear-gradient" x1="480.3" y1="118.53" x2="49.3" y2="86.03" gradientTransform="matrix(1, 0, 0, -1, 0, 192.49)" gradientUnits="userSpaceOnUse"><stop offset="0" stop-color="#0b499a"/><stop offset="1" stop-color="#1764b9"/></linearGradient><radialGradient id="radial-gradient" cx="-3946.25" cy="2883.15" r="1" gradientTransform="matrix(85.28, 0, 0, -11.31, 336688.81, 32770.16)" gradientUnits="userSpaceOnUse"><stop offset="0" stop-color="#003370"/><stop offset="0.2" stop-color="#003370" stop-opacity="0.68"/><stop offset="0.42" stop-color="#003370" stop-opacity="0.38"/><stop offset="0.63" stop-color="#003370" stop-opacity="0.17"/><stop offset="0.83" stop-color="#003370" stop-opacity="0.04"/><stop offset="1" stop-color="#003370" stop-opacity="0"/></radialGradient><linearGradient id="linear-gradient-3" x1="73.39" y1="144.72" x2="162.78" y2="144.72" gradientTransform="matrix(1, 0, 0, -1, 0, 192.49)" gradientUnits="userSpaceOnUse"><stop offset="0" stop-color="#f4ba14"/><stop offset="1" stop-color="#f57711"/></linearGradient><linearGradient id="linear-gradient-4" x1="6851.87" y1="366.88" x2="11253.3" y2="565.38" xlink:href="#linear-gradient-3"/><mask id="mask" x="0" y="-17" width="569.67" height="226.77" maskUnits="userSpaceOnUse"><g id="mask0"><rect class="cls-1" width="508.5" height="182" rx="4" ry="4"/></g></mask><linearGradient id="linear-gradient-5" x1="380.07" y1="126.31" x2="266.87" y2="91.44" gradientTransform="matrix(1, 0, 0, -1, 0, 192.49)" gradientUnits="userSpaceOnUse"><stop offset="0" stop-color="#1765ba"/><stop offset="1" stop-color="#0a4798"/></linearGradient><linearGradient id="linear-gradient-6" x1="527.07" y1="100.31" x2="413.87" y2="65.44" xlink:href="#linear-gradient-5"/><linearGradient id="linear-gradient-7" x1="331.07" y1="200.31" x2="217.87" y2="165.44" xlink:href="#linear-gradient-5"/><linearGradient id="linear-gradient-8" x1="208.07" y1="21.31" x2="94.87" y2="-13.56" xlink:href="#linear-gradient-5"/><linearGradient id="linear-gradient-9" x1="517.07" y1="192.31" x2="403.87" y2="157.44" xlink:href="#linear-gradient-5"/></defs><title>bn1-Việt Nam!</title><rect class="cls-1" width="508.5" height="182" rx="4" ry="4"/><path class="cls-2" d="M77.9,133.8a38.76,38.76,0,0,0,6.83-2,32.56,32.56,0,0,0,13.09-9.37,36.42,36.42,0,0,0,8.26-18.69l-.29.06a25.07,25.07,0,0,1-14.71,10.46c-11.26,2.84-18.46-3.78-18.46-14.41C72.62,88,81.18,75.49,94,72.26s20.68,5.12,20.68,21.06c0,13.73-4.62,24.54-10.77,32a43.24,43.24,0,0,1-18.18,12.95,45.47,45.47,0,0,1-7.82,2.45ZM81,97.12c0,7.81,4.71,12.06,12,10.21a19.37,19.37,0,0,0,12.29-9.65,6.65,6.65,0,0,0,.77-3.27c0-10.65-3.94-17.85-12.79-15.62C86.08,80.66,81,88.29,81,97.12Z"/><path class="cls-2" d="M125.32,121.8a41.41,41.41,0,0,0,6.82-2,32.53,32.53,0,0,0,13.08-9.37,36.35,36.35,0,0,0,8.27-18.7l-.28.07a25.08,25.08,0,0,1-14.72,10.45C127.19,105.08,120,98.46,120,87.81c0-11.82,8.56-24.36,21.35-27.59s20.68,5.13,20.68,21.06c0,13.73-4.62,24.54-10.78,32a43,43,0,0,1-18.17,13,43.53,43.53,0,0,1-7.82,2.45Zm3.07-36.69c0,7.81,4.71,12.06,12,10.21a19.48,19.48,0,0,0,7.17-3.53,19.24,19.24,0,0,0,5.12-6.12,6.58,6.58,0,0,0,.78-3.27c0-10.66-3.95-17.85-12.79-15.62-7.21,1.83-12.3,9.49-12.3,18.33Z"/><path class="cls-2" d="M172.73,109.78a40.85,40.85,0,0,0,6.83-2,32.5,32.5,0,0,0,13.07-9.37,36.29,36.29,0,0,0,8.31-18.69l-.29.06A25,25,0,0,1,186,90.22c-11.3,2.84-18.53-3.76-18.53-14.43,0-11.81,8.56-24.35,21.35-27.59s20.68,5.14,20.68,21.07c0,13.73-4.62,24.54-10.77,32a43,43,0,0,1-18.16,13,45.74,45.74,0,0,1-7.82,2.45Zm3.07-36.71c0,7.81,4.72,12.06,12,10.21a19.36,19.36,0,0,0,12.3-9.65,6.76,6.76,0,0,0,.77-3.27c0-10.65-3.95-17.85-12.8-15.62C180.9,56.64,175.8,64.26,175.8,73.07Z"/><path class="cls-3" d="M82.62,135a40.85,40.85,0,0,0,6.83-2,32.67,32.67,0,0,0,13.08-9.36,36.38,36.38,0,0,0,8.27-18.71l-.29.08a25,25,0,0,1-14.72,10.45c-11.24,2.86-18.46-3.77-18.46-14.42,0-11.8,8.56-24.34,21.36-27.59s20.68,5.12,20.68,21c0,13.73-4.62,24.54-10.77,32a43.08,43.08,0,0,1-18.17,13,46.65,46.65,0,0,1-7.82,2.45ZM85.7,98.33c0,7.81,4.72,12.06,12,10.2A19.39,19.39,0,0,0,110,98.89a6.79,6.79,0,0,0,.77-3.27c0-10.66-4-17.85-12.8-15.62C90.8,81.87,85.7,89.5,85.7,98.33Z"/><path class="cls-3" d="M130,123a39.48,39.48,0,0,0,6.83-2,32.67,32.67,0,0,0,13.08-9.36A36.38,36.38,0,0,0,158.21,93l-.29.08a25,25,0,0,1-14.71,10.44c-11.26,2.86-18.46-3.77-18.46-14.42,0-11.81,8.55-24.34,21.34-27.59s20.68,5.13,20.68,21.07c0,13.72-4.61,24.55-10.77,32a43,43,0,0,1-18.18,13A46.68,46.68,0,0,1,130,130Zm3.09-36.69c0,7.81,4.7,12.06,12,10.21a19.37,19.37,0,0,0,12.29-9.65,6.65,6.65,0,0,0,.77-3.27c0-10.65-3.94-17.85-12.79-15.62C138.21,69.86,133.12,77.53,133.12,86.31Z"/><path class="cls-3" d="M177.48,111a39.56,39.56,0,0,0,6.82-2,32.44,32.44,0,0,0,13.08-9.36,36.37,36.37,0,0,0,8.23-18.74l-.27.08A25.14,25.14,0,0,1,190.62,91.4c-11.25,2.85-18.46-3.77-18.46-14.43,0-11.8,8.55-24.34,21.34-27.58s20.67,5.13,20.67,21.07c0,13.72-4.61,24.54-10.76,32a43.05,43.05,0,0,1-18.18,13,46.39,46.39,0,0,1-7.82,2.46Zm3.07-36.69c0,7.81,4.72,12.06,12,10.21a19.44,19.44,0,0,0,12.3-9.65,6.9,6.9,0,0,0,.76-3.27c0-10.66-3.94-17.85-12.79-15.62-7.23,1.86-12.32,9.49-12.32,18.32Z"/><path class="cls-4" d="M143.82,165.93c45.93,0,83.17-4.73,83.17-10.56s-37.24-10.57-83.17-10.57-83.17,4.73-83.17,10.57S97.89,165.93,143.82,165.93Z"/><path class="cls-5" d="M162.78,51.61,73.39,73.53V43.93L162.78,22Z"/><path class="cls-6" d="M225,128.58l-81.22,19.07-1.07-23.58L223.92,105Z"/><path class="cls-7" d="M54,38.64l31.27-7.22"/><path class="cls-7" d="M199.3,58.19,230.57,51"/><path class="cls-8" d="M158,37.07l24.11-5.58"/><path class="cls-7" d="M109,141.37,127.9,137"/><path class="cls-8" d="M32,136.22,80.55,125"/><path class="cls-2" d="M110.36,43.59,108,57.43l-2.18.56L97,47l2.83-.72,6.18,8,1.6-10Zm5,8.95.72,2.81-2.84.73-.72-2.81ZM115,42.39l2.72-.69,3.18,12.41-2.72.7ZM125.17,50l.72,2.81-2.85.72-.71-2.8Zm-.35-10.15,5.63-1.44a4.85,4.85,0,0,1,3.45.18A3.88,3.88,0,0,1,135.28,44a4.94,4.94,0,0,1-2.94,1.81l-2.91.74,1.28,5-2.72.7Zm6.64,4c1.42-.36,2-1.08,1.72-2.15s-1.13-1.44-2.54-1.08l-2.57.66.83,3.23Z"/><path class="cls-2" d="M149.48,127.59l2.74-.64,2.4,10.25,5.57-1.3.52,2.22-8.31,1.95Zm10.65,1.3,2.64-.62,2.08,8.88-2.64.62Zm1.75-4.81.59,2.49-2.83.66-.58-2.49Zm7.27.66a1.3,1.3,0,0,0-1,1.76l.12.49,1.85-.44.47,2-1.86.44,1.62,6.9-2.65.62-1.61-6.9-1.67.39-.46-2,1.66-.39-.13-.56a3.82,3.82,0,0,1,.25-2.82,3.33,3.33,0,0,1,2.27-1.51,4.39,4.39,0,0,1,1.56-.12l.48,2.06A4.26,4.26,0,0,0,169.15,124.74ZM180.66,129l-5.86,1.37a2.83,2.83,0,0,0,1.08,1.67,2.45,2.45,0,0,0,1.85.16,4.52,4.52,0,0,0,1.31-.55,4.63,4.63,0,0,0,1.11-1l1.12,1.62a5,5,0,0,1-1.39,1.18,6.84,6.84,0,0,1-1.81.72,5,5,0,0,1-3.81-.4,4.6,4.6,0,0,1-2.07-3.09,5.25,5.25,0,0,1,0-2.52,4.15,4.15,0,0,1,1.17-2,4.43,4.43,0,0,1,2.13-1.12,3.8,3.8,0,0,1,3.24.53,4.84,4.84,0,0,1,1.86,3ZM176,126.9a1.79,1.79,0,0,0-1.12.72,2.26,2.26,0,0,0-.3,1.42l3.52-.82C177.66,127.1,177,126.67,176,126.9Zm8.88-1.71.81,3.45a1.45,1.45,0,0,0,.64,1,1.56,1.56,0,0,0,1.08.1,3.63,3.63,0,0,0,.84-.33l.48,2.05a4.37,4.37,0,0,1-1.46.6,3.35,3.35,0,0,1-2.74-.34,3.77,3.77,0,0,1-1.47-2.41l-.82-3.5-1.69.39-.46-2,1.68-.39-.49-2.09,2.45-1.48.69,2.95,2.26-.53.46,2Zm3.16-2.83,2.64-.62,2.08,8.89-2.64.62Zm1.75-4.81.59,2.49-2.83.66-.58-2.49Zm13.87.91a2.82,2.82,0,0,1,2.48.4,4.53,4.53,0,0,1,1.41,2.63l1.26,5.38-2.65.62-1.24-5.29a2.31,2.31,0,0,0-.61-1.26,1.12,1.12,0,0,0-1.08-.19,1.48,1.48,0,0,0-1.11.85,2.53,2.53,0,0,0-.07,1.68l1.15,4.9-2.65.62-1.24-5.29a2.31,2.31,0,0,0-.62-1.26,1.14,1.14,0,0,0-1.07-.19,1.59,1.59,0,0,0-1.13.85,2.67,2.67,0,0,0-.07,1.68l1.15,4.91-2.64.62-1.49-6.34a22.13,22.13,0,0,0-.73-2.51l2.48-.58.47,1.29a3,3,0,0,1,.86-1.42,3.54,3.54,0,0,1,1.58-.8,2.64,2.64,0,0,1,3,1,3.22,3.22,0,0,1,.93-1.48A3.46,3.46,0,0,1,203.63,118.46Zm14.22,1.83L212,121.66a2.79,2.79,0,0,0,1.07,1.67,2.4,2.4,0,0,0,1.85.16,4.5,4.5,0,0,0,2.42-1.51l1.12,1.63a4.82,4.82,0,0,1-1.39,1.17,6.71,6.71,0,0,1-1.81.72,5,5,0,0,1-3.81-.4,4.61,4.61,0,0,1-2.07-3.08,5.29,5.29,0,0,1,0-2.53,4.18,4.18,0,0,1,1.18-2,4.48,4.48,0,0,1,2.12-1.12,3.9,3.9,0,0,1,3.25.53,4.87,4.87,0,0,1,1.85,3Zm-4.69-2.1a1.78,1.78,0,0,0-1.12.73,2.23,2.23,0,0,0-.3,1.42l3.52-.83C214.86,118.4,214.15,118,213.16,118.19Z"/><g class="cls-9"><g class="cls-10"><path class="cls-11" d="M242.15,97.1a9.32,9.32,0,0,1,7.51-10.82l162-29.13a9.32,9.32,0,0,1,10.82,7.52h0a9.26,9.26,0,0,1-1.52,7,9.34,9.34,0,0,1-6,3.85L253,104.62a9.32,9.32,0,0,1-9.51-4.13,9,9,0,0,1-1.33-3.39Z"/><path class="cls-12" d="M389.14,123.1a9.33,9.33,0,0,1,7.53-10.82l162-29.13a9.33,9.33,0,0,1,10.82,7.52h0a9.43,9.43,0,0,1-.07,3.63,9.34,9.34,0,0,1-7.47,7.19L400,130.62a9.34,9.34,0,0,1-10.85-7.52Z"/><path class="cls-13" d="M193.15,23.1a9.32,9.32,0,0,1,7.51-10.82l162-29.13a9.31,9.31,0,0,1,7,1.52,9.28,9.28,0,0,1,3.85,6h0a9.24,9.24,0,0,1-.06,3.63A9.33,9.33,0,0,1,372-2.36,9.39,9.39,0,0,1,369.38.16,9.39,9.39,0,0,1,366,1.49L204,30.62a9.32,9.32,0,0,1-9.51-4.13,9.11,9.11,0,0,1-1.33-3.39Z"/><path class="cls-14" d="M70.15,202.1a9.32,9.32,0,0,1,7.52-10.82l162-29.13a9.31,9.31,0,0,1,10.81,7.52h0a9.26,9.26,0,0,1-1.52,7,9.34,9.34,0,0,1-6,3.85L81,209.62a9.32,9.32,0,0,1-9.52-4.13,9.11,9.11,0,0,1-1.33-3.39Z"/><path class="cls-15" d="M379.14,31.1a9.33,9.33,0,0,1,7.53-10.82l162-29.13a9.29,9.29,0,0,1,7,1.52,9.34,9.34,0,0,1,3.86,6h0a9.43,9.43,0,0,1-.07,3.63A9.33,9.33,0,0,1,558,5.64a9.39,9.39,0,0,1-2.62,2.52A9.39,9.39,0,0,1,552,9.49L390,38.62a9.34,9.34,0,0,1-10.85-7.52Z"/></g></g><rect class="cls-2" x="258" y="98" width="179" height="18" rx="2" ry="2"/><path class="cls-16" d="M271.45,102.46V111h-1.39l-4.26-5.45V111h-1.75v-8.54h1.37l4.26,5.43v-5.43Zm5.35,2.3c1.44,0,2.16.85,2.16,2.56V111h-1.81v-3.6a1.43,1.43,0,0,0-.24-.92.87.87,0,0,0-.74-.3,1.24,1.24,0,0,0-1,.38,1.49,1.49,0,0,0-.35,1V111H273v-8.83h1.82v3.57a2.13,2.13,0,0,1,.82-.73A2.46,2.46,0,0,1,276.8,104.76Zm9.7.16V111h-1.79v-.9a1.84,1.84,0,0,1-.78.73,2.4,2.4,0,0,1-1.14.27,2.52,2.52,0,0,1-1.4-.39,2.6,2.6,0,0,1-.95-1.09,4.22,4.22,0,0,1,0-3.32,2.61,2.61,0,0,1,1-1.13,2.47,2.47,0,0,1,1.39-.41,2.29,2.29,0,0,1,1.14.28,1.92,1.92,0,0,1,.78.74v-.86Zm-3.18,4.8a1.24,1.24,0,0,0,1-.46,2.6,2.6,0,0,0,0-2.64,1.22,1.22,0,0,0-1-.47,1.26,1.26,0,0,0-1.05.48,2.19,2.19,0,0,0-.37,1.33,2.06,2.06,0,0,0,.36,1.31A1.3,1.3,0,0,0,283.32,109.72Zm1,2.1v1.59h-1.67v-1.59Zm-2.95-7.68,1.57-2.48H284l1.57,2.48h-1.41l-.7-1.41-.71,1.41Zm10.35.62a2.44,2.44,0,0,1,1.39.41,2.53,2.53,0,0,1,.95,1.13,4.17,4.17,0,0,1,0,3.32,2.47,2.47,0,0,1-.95,1.09,2.52,2.52,0,0,1-1.4.39,2.4,2.4,0,0,1-1.14-.27,1.81,1.81,0,0,1-.77-.73v3.49H288v-6.93a13,13,0,0,0-.1-1.74h1.71l.12,1a1.86,1.86,0,0,1,.77-.85A2.38,2.38,0,0,1,291.68,104.76Zm-.51,5a1.25,1.25,0,0,0,1-.45,2.06,2.06,0,0,0,.36-1.31,2.12,2.12,0,0,0-.38-1.33,1.17,1.17,0,0,0-1-.48,1.28,1.28,0,0,0-1.05.47,2.6,2.6,0,0,0,0,2.64A1.3,1.3,0,0,0,291.17,109.72Zm15.18-5a1.82,1.82,0,0,1,1.54.64,2.92,2.92,0,0,1,.52,1.92V111H306.6v-3.62a1.56,1.56,0,0,0-.21-.92.76.76,0,0,0-.67-.28,1,1,0,0,0-.85.38,1.73,1.73,0,0,0-.3,1.08V111h-1.81v-3.62a1.52,1.52,0,0,0-.22-.92.74.74,0,0,0-.66-.28,1,1,0,0,0-.86.38,1.73,1.73,0,0,0-.3,1.08V111h-1.81v-4.34a14.87,14.87,0,0,0-.1-1.74h1.7l.11.91a1.89,1.89,0,0,1,.77-.79,2.3,2.3,0,0,1,1.15-.28,1.74,1.74,0,0,1,1.8,1.13,2.18,2.18,0,0,1,.83-.82A2.29,2.29,0,0,1,306.35,104.76Zm9.58.16V111h-1.78v-.9a2,2,0,0,1-.78.73,2.4,2.4,0,0,1-1.14.27,2.5,2.5,0,0,1-2.35-1.48,4.22,4.22,0,0,1,0-3.32,2.66,2.66,0,0,1,.95-1.13,2.5,2.5,0,0,1,1.4-.41,2.29,2.29,0,0,1,1.14.28,2.06,2.06,0,0,1,.78.74v-.86Zm-3.17,4.8a1.26,1.26,0,0,0,1-.46,2.6,2.6,0,0,0,0-2.64,1.24,1.24,0,0,0-1-.47,1.26,1.26,0,0,0-1.05.48,2.12,2.12,0,0,0-.37,1.33,2.06,2.06,0,0,0,.36,1.31A1.3,1.3,0,0,0,312.76,109.72Zm-2-6a2,2,0,0,1,.37-1.31,1.18,1.18,0,0,1,.94-.44,1,1,0,0,1,.44.1,3.26,3.26,0,0,1,.49.25l.39.21a.79.79,0,0,0,.29.06.46.46,0,0,0,.36-.15.73.73,0,0,0,.17-.43H315a2,2,0,0,1-.38,1.3,1.12,1.12,0,0,1-.93.45,1.2,1.2,0,0,1-.45-.09,4.88,4.88,0,0,1-.47-.26c-.18-.1-.32-.16-.41-.2a.57.57,0,0,0-.28-.08.51.51,0,0,0-.37.16.76.76,0,0,0-.16.43Zm16.37.07a2,2,0,0,1-.31,1.13,1.75,1.75,0,0,1-.85.69,2.55,2.55,0,0,1,.65,1,3.66,3.66,0,0,1,.23,1.3,3.37,3.37,0,0,1-.4,1.68,2.63,2.63,0,0,1-1.1,1.09,3.47,3.47,0,0,1-1.68.39,3.6,3.6,0,0,1-1.71-.39,2.65,2.65,0,0,1-1.11-1.09,3.47,3.47,0,0,1-.39-1.68,3.42,3.42,0,0,1,.39-1.68,2.62,2.62,0,0,1,1.11-1.1,3.36,3.36,0,0,1,1.67-.4,4.31,4.31,0,0,1,.72.07,1.53,1.53,0,0,0,.3,0,.9.9,0,0,0,.69-.27,1.51,1.51,0,0,0,.25-1v-.24h1.54Zm-3.46,5.9a1.23,1.23,0,0,0,1-.45,2.66,2.66,0,0,0,0-2.67,1.21,1.21,0,0,0-1-.46,1.24,1.24,0,0,0-1.05.46,2.07,2.07,0,0,0-.36,1.33C322.27,109.12,322.74,109.72,323.68,109.72Zm.46-5.58h-.91v-.3a.7.7,0,0,1,.12-.42,1.5,1.5,0,0,1,.33-.34,1.12,1.12,0,0,0,.19-.19.27.27,0,0,0,.07-.18c0-.19-.14-.28-.41-.28a1.91,1.91,0,0,0-.6.11l-.24-.68a2.39,2.39,0,0,1,1-.23,1.8,1.8,0,0,1,1,.26.77.77,0,0,1,.37.65.67.67,0,0,1-.16.47,1.77,1.77,0,0,1-.42.37,2.33,2.33,0,0,0-.31.26.42.42,0,0,0-.1.26Zm9.53,2.13v2.37a1,1,0,0,0,.26.74,1,1,0,0,0,.69.23,2.43,2.43,0,0,0,.6-.09v1.41a3,3,0,0,1-1.05.17,2.26,2.26,0,0,1-1.72-.64,2.5,2.5,0,0,1-.59-1.79v-2.4h-1.15v-1.35h1.15v-1.43l1.81-.59v2h1.55v1.35Zm6-1.5a1.6,1.6,0,0,1,.65.12l0,1.66a2,2,0,0,0-.88-.21,1.34,1.34,0,0,0-1.48,1.48V111h-1.81v-4.34a13,13,0,0,0-.1-1.74h1.71l.12,1a1.76,1.76,0,0,1,.7-.88A2.11,2.11,0,0,1,339.69,104.77Zm7.36.15V111h-1.79v-.9a1.84,1.84,0,0,1-.78.73,2.37,2.37,0,0,1-1.14.27,2.54,2.54,0,0,1-1.4-.39,2.6,2.6,0,0,1-.95-1.09,4.22,4.22,0,0,1,0-3.32,2.61,2.61,0,0,1,1-1.13,2.47,2.47,0,0,1,1.39-.41,2.27,2.27,0,0,1,1.14.28,1.92,1.92,0,0,1,.78.74v-.86Zm-3.18,4.8a1.24,1.24,0,0,0,1-.46,2.6,2.6,0,0,0,0-2.64,1.37,1.37,0,0,0-2.07,0,2.12,2.12,0,0,0-.38,1.33,2.06,2.06,0,0,0,.36,1.31A1.3,1.3,0,0,0,343.87,109.72Zm8.4-5c1.44,0,2.16.85,2.16,2.56V111h-1.82v-3.6a1.43,1.43,0,0,0-.23-.92.88.88,0,0,0-.74-.3,1.24,1.24,0,0,0-1,.38,1.45,1.45,0,0,0-.36,1V111h-1.81v-4.34a15,15,0,0,0-.09-1.74h1.7l.12,1a2.16,2.16,0,0,1,.84-.83A2.47,2.47,0,0,1,352.27,104.76Zm9.76.16v5.8a2.81,2.81,0,0,1-.84,2.21,3.53,3.53,0,0,1-2.45.76,5.27,5.27,0,0,1-2.52-.57l.27-1.34a4.86,4.86,0,0,0,2.19.55,1.59,1.59,0,0,0,1.16-.37,1.43,1.43,0,0,0,.39-1.1V109.8a2.24,2.24,0,0,1-.81.74,2.2,2.2,0,0,1-1.14.29,2.52,2.52,0,0,1-2.36-1.44,3.79,3.79,0,0,1,0-3.18,2.56,2.56,0,0,1,1-1.07,2.65,2.65,0,0,1,1.4-.38,2.3,2.3,0,0,1,1.15.28,2,2,0,0,1,.8.74v-.86Zm-3.22,4.53a1.27,1.27,0,0,0,1-.43,2.12,2.12,0,0,0,0-2.42,1.45,1.45,0,0,0-2.1,0,1.7,1.7,0,0,0-.39,1.2,1.78,1.78,0,0,0,.39,1.21A1.32,1.32,0,0,0,358.81,109.45Zm10.32-3.18v2.37a1,1,0,0,0,.26.74,1,1,0,0,0,.69.23,2.36,2.36,0,0,0,.6-.09v1.41a2.94,2.94,0,0,1-1,.17,2.27,2.27,0,0,1-1.73-.64,2.54,2.54,0,0,1-.59-1.79v-2.4h-1.15v-1.35h1.15v-1.43l1.81-.59v2h1.55v1.35Zm6.23-1.51c1.44,0,2.16.85,2.16,2.56V111h-1.81v-3.6a1.43,1.43,0,0,0-.24-.92.85.85,0,0,0-.73-.3,1.24,1.24,0,0,0-1,.38,1.45,1.45,0,0,0-.36,1V111h-1.81v-8.83h1.81v3.57a2.16,2.16,0,0,1,.83-.73A2.41,2.41,0,0,1,375.36,104.76Zm9.7.16V111h-1.78v-.9a2,2,0,0,1-.78.73,2.4,2.4,0,0,1-1.14.27,2.58,2.58,0,0,1-1.41-.39,2.68,2.68,0,0,1-.95-1.09,4.34,4.34,0,0,1,0-3.32,2.75,2.75,0,0,1,1-1.13,2.5,2.5,0,0,1,1.4-.41,2.29,2.29,0,0,1,1.14.28,2.06,2.06,0,0,1,.78.74v-.86Zm-3.18,4.8a1.26,1.26,0,0,0,1-.46,2.6,2.6,0,0,0,0-2.64,1.38,1.38,0,0,0-2.08,0,2.12,2.12,0,0,0-.37,1.33,2.06,2.06,0,0,0,.36,1.31A1.29,1.29,0,0,0,381.88,109.72Zm8.4-5c1.44,0,2.16.85,2.16,2.56V111h-1.81v-3.6a1.43,1.43,0,0,0-.24-.92.86.86,0,0,0-.73-.3,1.24,1.24,0,0,0-1,.38,1.45,1.45,0,0,0-.36,1V111h-1.81v-4.34a14.87,14.87,0,0,0-.1-1.74h1.71l.12,1a2.16,2.16,0,0,1,.84-.83A2.43,2.43,0,0,1,390.28,104.76Zm7.36,0c1.44,0,2.16.85,2.16,2.56V111H398v-3.6a1.43,1.43,0,0,0-.24-.92.86.86,0,0,0-.73-.3,1.24,1.24,0,0,0-1,.38,1.45,1.45,0,0,0-.36,1V111h-1.81v-8.83h1.81v3.57a2.09,2.09,0,0,1,.83-.73A2.39,2.39,0,0,1,397.64,104.76Zm9.26,1.51v2.37a1,1,0,0,0,.27.74,1,1,0,0,0,.68.23,2.36,2.36,0,0,0,.6-.09v1.41a3,3,0,0,1-1.05.17,2.26,2.26,0,0,1-1.72-.64,2.54,2.54,0,0,1-.59-1.79v-2.4h-1.15v-1.35h1.15v-1.43l1.81-.59v2h1.55v1.35Zm5.38,4.83a3.55,3.55,0,0,1-1.7-.39,2.7,2.7,0,0,1-1.12-1.1,3.9,3.9,0,0,1,0-3.36,2.78,2.78,0,0,1,1.12-1.11,3.67,3.67,0,0,1,1.7-.38,3.59,3.59,0,0,1,1.68.38,2.7,2.7,0,0,1,1.11,1.11,3.81,3.81,0,0,1,0,3.36,2.62,2.62,0,0,1-1.11,1.1A3.47,3.47,0,0,1,412.28,111.1Zm0-1.38a1.21,1.21,0,0,0,1-.45,2.66,2.66,0,0,0,0-2.67,1.19,1.19,0,0,0-1-.46,1.24,1.24,0,0,0-1,.46,2.07,2.07,0,0,0-.36,1.33C410.88,109.12,411.35,109.72,412.28,109.72Zm10.44-4.8V111h-1.79v-.9a2,2,0,0,1-.78.73,2.4,2.4,0,0,1-1.14.27,2.53,2.53,0,0,1-2.35-1.48,4.22,4.22,0,0,1,0-3.32,2.61,2.61,0,0,1,1-1.13,2.44,2.44,0,0,1,1.39-.41,2.29,2.29,0,0,1,1.14.28,2.06,2.06,0,0,1,.78.74v-.86Zm-3.18,4.8a1.26,1.26,0,0,0,1-.46,2.6,2.6,0,0,0,0-2.64,1.24,1.24,0,0,0-1-.47,1.26,1.26,0,0,0-1.05.48,2.12,2.12,0,0,0-.37,1.33,2.06,2.06,0,0,0,.36,1.31A1.3,1.3,0,0,0,419.54,109.72Zm-.43-5.58,1.18-2.48h1.78l-1.85,2.48Zm8.82.62c1.45,0,2.17.85,2.17,2.56V111h-1.82v-3.6a1.43,1.43,0,0,0-.24-.92.85.85,0,0,0-.73-.3,1.24,1.24,0,0,0-1,.38,1.45,1.45,0,0,0-.36,1V111h-1.81v-4.34a13,13,0,0,0-.1-1.74h1.71l.12,1a2.16,2.16,0,0,1,.84-.83A2.43,2.43,0,0,1,427.93,104.76Z"/><path class="cls-2" d="M270.28,54.93v6.28a9.48,9.48,0,0,1-2.2.7,12.7,12.7,0,0,1-2.56.25,7.37,7.37,0,0,1-3.52-.79,5.5,5.5,0,0,1-2.31-2.27,7.33,7.33,0,0,1-.79-3.53,7.2,7.2,0,0,1,.79-3.47A5.64,5.64,0,0,1,262,49.83,7,7,0,0,1,265.4,49a8.49,8.49,0,0,1,2.57.38,5.33,5.33,0,0,1,2,1.06l-.9,2a6.8,6.8,0,0,0-1.74-.94,5.77,5.77,0,0,0-1.84-.29q-3.71,0-3.71,4.32T265.63,60a8.64,8.64,0,0,0,2.13-.27V56.89h-2.52v-2Zm3-2.06H276V62h-2.72ZM276,48.59v2.56h-2.9V48.59Zm12,4.28V62h-2.68V60.65a2.83,2.83,0,0,1-1.17,1.1,3.65,3.65,0,0,1-1.71.39,3.89,3.89,0,0,1-2.1-.57,4,4,0,0,1-1.43-1.64,5.9,5.9,0,0,1-.5-2.48,6.08,6.08,0,0,1,.5-2.51,4.06,4.06,0,0,1,1.44-1.69,3.69,3.69,0,0,1,2.09-.61,3.54,3.54,0,0,1,1.71.41,2.94,2.94,0,0,1,1.17,1.12v-1.3Zm-4.77,7.2a1.84,1.84,0,0,0,1.55-.68,3.9,3.9,0,0,0,0-4,1.82,1.82,0,0,0-1.55-.7,1.86,1.86,0,0,0-1.56.72,3.19,3.19,0,0,0-.56,2,3.11,3.11,0,0,0,.54,2A2,2,0,0,0,283.26,60.07Zm.9-8.37H282.8v-.45a1.07,1.07,0,0,1,.18-.63,3.15,3.15,0,0,1,.48-.5,1.57,1.57,0,0,0,.29-.29.4.4,0,0,0,.11-.27c0-.27-.21-.41-.61-.41a2.67,2.67,0,0,0-.9.16l-.36-1a3.82,3.82,0,0,1,1.54-.34,2.6,2.6,0,0,1,1.55.4,1.17,1.17,0,0,1,.56,1,1.05,1.05,0,0,1-.23.7,3.27,3.27,0,0,1-.63.56,2.54,2.54,0,0,0-.47.4.51.51,0,0,0-.15.37Zm17.95.94a2.81,2.81,0,0,1,2.32,1,4.46,4.46,0,0,1,.77,2.88V62h-2.72V56.56a2.36,2.36,0,0,0-.3-1.36,1.15,1.15,0,0,0-1-.44,1.55,1.55,0,0,0-1.28.58,2.56,2.56,0,0,0-.45,1.62v5h-2.71V56.56a2.23,2.23,0,0,0-.33-1.36,1.12,1.12,0,0,0-1-.44,1.61,1.61,0,0,0-1.3.58,2.62,2.62,0,0,0-.44,1.62v5H291V55.48a20.42,20.42,0,0,0-.15-2.61h2.56l.16,1.37a3,3,0,0,1,1.15-1.19,3.62,3.62,0,0,1,1.73-.41,2.61,2.61,0,0,1,2.7,1.69,3.38,3.38,0,0,1,1.24-1.22A3.5,3.5,0,0,1,302.11,52.64Zm27.26,5.61V62H314.7V58.55L321.81,51q2.22-2.4,2.22-4.38a2.33,2.33,0,0,0-.75-1.89,3.05,3.05,0,0,0-2.13-.66,9.91,9.91,0,0,0-5.67,2.07L314,42.77a9.22,9.22,0,0,1,3.3-1.74,13,13,0,0,1,4.08-.66A8,8,0,0,1,326.64,42a5.21,5.21,0,0,1,2,4.29,7.73,7.73,0,0,1-.78,3.45,14.59,14.59,0,0,1-2.55,3.48l-4.83,5Zm11.6,4A6.92,6.92,0,0,1,335,59.45q-2-2.82-2-8.16t2-8.07A7,7,0,0,1,341,40.43a6.87,6.87,0,0,1,5.91,2.79Q349,46,349,51.29t-2.07,8.16A6.84,6.84,0,0,1,341,62.27Zm0-3.6a2.69,2.69,0,0,0,2.58-1.74,14.33,14.33,0,0,0,.81-5.64,13.78,13.78,0,0,0-.81-5.52,2.78,2.78,0,0,0-5.16,0,13.78,13.78,0,0,0-.81,5.52,14.33,14.33,0,0,0,.81,5.64A2.69,2.69,0,0,0,341,58.67Zm16.82-5.31a5.1,5.1,0,0,1-4.05-1.68,7.22,7.22,0,0,1-1.47-4.89,7.07,7.07,0,0,1,1.47-4.8,5.76,5.76,0,0,1,8.13,0,7.12,7.12,0,0,1,1.47,4.83,7.17,7.17,0,0,1-1.47,4.86A5.14,5.14,0,0,1,357.79,53.36ZM357.46,62l12.39-21.36h3.9L361.36,62Zm.33-11.49a1.43,1.43,0,0,0,1.38-.84,6.61,6.61,0,0,0,.45-2.85,6.3,6.3,0,0,0-.45-2.79,1.47,1.47,0,0,0-1.38-.87,1.44,1.44,0,0,0-1.35.87,6.7,6.7,0,0,0-.42,2.79,7,7,0,0,0,.42,2.85A1.41,1.41,0,0,0,357.79,50.51Zm15.6,11.7a5.1,5.1,0,0,1-4.05-1.68,7.32,7.32,0,0,1-1.44-4.89,7.09,7.09,0,0,1,1.44-4.8,5.76,5.76,0,0,1,8.13,0,7,7,0,0,1,1.47,4.83,7.17,7.17,0,0,1-1.47,4.86A5.08,5.08,0,0,1,373.39,62.21Zm0-2.85a1.43,1.43,0,0,0,1.38-.84,6.61,6.61,0,0,0,.45-2.85,6.3,6.3,0,0,0-.45-2.79,1.47,1.47,0,0,0-1.38-.87,1.44,1.44,0,0,0-1.35.87,6.7,6.7,0,0,0-.42,2.79,7,7,0,0,0,.42,2.85A1.41,1.41,0,0,0,373.39,59.36Zm18.19-4.45v3.54a1.45,1.45,0,0,0,.39,1.12,1.51,1.51,0,0,0,1,.34,4,4,0,0,0,.9-.12v2.1a4.35,4.35,0,0,1-1.57.25,3.37,3.37,0,0,1-2.59-1,3.8,3.8,0,0,1-.88-2.68v-3.6h-1.73v-2h1.73V50.73l2.72-.88v3h2.32v2Zm9.74-2.25a2.33,2.33,0,0,1,1,.18l0,2.48a3.18,3.18,0,0,0-1.33-.3,2.16,2.16,0,0,0-1.65.59,2.23,2.23,0,0,0-.56,1.62V62H396V55.48a22.59,22.59,0,0,0-.14-2.61h2.55l.18,1.57a2.59,2.59,0,0,1,1.07-1.31A2.94,2.94,0,0,1,401.32,52.66Zm7,9.48a5.45,5.45,0,0,1-2.55-.57,4.13,4.13,0,0,1-1.68-1.66,5.86,5.86,0,0,1,0-5,4,4,0,0,1,1.68-1.65,5.33,5.33,0,0,1,2.55-.58,5.21,5.21,0,0,1,2.52.58,3.89,3.89,0,0,1,1.66,1.65,5.68,5.68,0,0,1,0,5,4,4,0,0,1-1.66,1.66A5.32,5.32,0,0,1,408.29,62.14Zm0-2.07a1.81,1.81,0,0,0,1.53-.66,3.18,3.18,0,0,0,.54-2,3.14,3.14,0,0,0-.54-2,1.8,1.8,0,0,0-1.53-.68,1.88,1.88,0,0,0-1.56.68,3.14,3.14,0,0,0-.54,2C406.19,59.18,406.89,60.07,408.29,60.07Zm1.25,3.15v2.4H407v-2.4Zm11.62-10.58q3.24,0,3.24,3.83V62h-2.72V56.6a2.16,2.16,0,0,0-.36-1.39,1.3,1.3,0,0,0-1.1-.45,1.9,1.9,0,0,0-1.44.58,2.17,2.17,0,0,0-.54,1.55V62h-2.72V55.48a22.59,22.59,0,0,0-.14-2.61h2.55l.18,1.44a3.48,3.48,0,0,1,1.26-1.24A3.67,3.67,0,0,1,421.16,52.64Zm22.65-.72h-1.6V62h-2.69V60.65a2.86,2.86,0,0,1-1.16,1.1,4,4,0,0,1-3.8-.2,4.12,4.12,0,0,1-1.44-1.69,5.88,5.88,0,0,1-.51-2.5,5.65,5.65,0,0,1,.51-2.47,3.93,3.93,0,0,1,1.42-1.66,3.82,3.82,0,0,1,2.1-.59,3.48,3.48,0,0,1,1.68.4,2.8,2.8,0,0,1,1.17,1.06V51.92H436V50h3.46V48.75h2.72V50h1.6Zm-6.37,8.15a1.83,1.83,0,0,0,1.54-.68,3.15,3.15,0,0,0,.54-2,3,3,0,0,0-.55-2,1.81,1.81,0,0,0-1.53-.7,1.93,1.93,0,0,0-1.57.68,3,3,0,0,0-.56,2,3.22,3.22,0,0,0,.56,2A1.89,1.89,0,0,0,437.44,60.07Zm17.24-8.83a3.06,3.06,0,0,1-.47,1.69,2.53,2.53,0,0,1-1.28,1,3.82,3.82,0,0,1,1,1.52,5.23,5.23,0,0,1,.35,1.94,5.11,5.11,0,0,1-.6,2.52A4,4,0,0,1,452,61.57a5.32,5.32,0,0,1-2.52.57,5.49,5.49,0,0,1-2.56-.57,4.06,4.06,0,0,1-1.67-1.64,5.21,5.21,0,0,1-.58-2.52,5.16,5.16,0,0,1,.58-2.52,4,4,0,0,1,1.67-1.66,5.19,5.19,0,0,1,2.5-.59,7,7,0,0,1,1.08.11l.45,0a1.36,1.36,0,0,0,1-.39,2.28,2.28,0,0,0,.38-1.5v-.36h2.32Zm-5.2,8.83a1.84,1.84,0,0,0,1.53-.66,3.18,3.18,0,0,0,.54-2,3.14,3.14,0,0,0-.54-2,1.82,1.82,0,0,0-1.53-.68,1.89,1.89,0,0,0-1.57.68,3.14,3.14,0,0,0-.54,2C447.37,59.18,448.07,60.07,449.48,60.07ZM445.86,48h2.66l1.78,3.7h-1.67Zm10.84,4.87h2.72V62H456.7Zm2.81-4.28v2.56h-2.9V48.59ZM263.42,85.14a4.78,4.78,0,0,1-3.51-1.26,4.63,4.63,0,0,1-1.26-3.43,5,5,0,0,1,.61-2.51A4.28,4.28,0,0,1,261,76.25a5.22,5.22,0,0,1,2.57-.61,6,6,0,0,1,1.93.31,4,4,0,0,1,1.49.82l-.72,1.89a4.16,4.16,0,0,0-1.18-.66,3.48,3.48,0,0,0-1.26-.25,2.24,2.24,0,0,0-1.75.68,2.79,2.79,0,0,0-.61,2,2.9,2.9,0,0,0,.61,2,2.27,2.27,0,0,0,1.75.67,3.69,3.69,0,0,0,1.26-.24,4.48,4.48,0,0,0,1.18-.68L267,84a4.33,4.33,0,0,1-1.54.83A7,7,0,0,1,263.42,85.14Zm11.19-9.5q3.24,0,3.24,3.83V85h-2.72V79.6a2.16,2.16,0,0,0-.36-1.39,1.29,1.29,0,0,0-1.1-.45,1.9,1.9,0,0,0-1.44.58,2.17,2.17,0,0,0-.54,1.55V85H269V71.75h2.71v5.37a3.22,3.22,0,0,1,1.25-1.1A3.69,3.69,0,0,1,274.61,75.64Zm10.48,9.5a5.45,5.45,0,0,1-2.55-.57,4.13,4.13,0,0,1-1.68-1.66,5.86,5.86,0,0,1,0-5,4,4,0,0,1,1.68-1.65,5.33,5.33,0,0,1,2.55-.58,5.21,5.21,0,0,1,2.52.58,3.94,3.94,0,0,1,1.66,1.65,5.68,5.68,0,0,1,0,5,4,4,0,0,1-1.66,1.66A5.32,5.32,0,0,1,285.09,85.14Zm0-2.07a1.84,1.84,0,0,0,1.53-.66,3.18,3.18,0,0,0,.54-2,3.14,3.14,0,0,0-.54-2,1.82,1.82,0,0,0-1.53-.68,1.92,1.92,0,0,0-1.57.68,3.2,3.2,0,0,0-.54,2C283,82.18,283.69,83.07,285.09,83.07Zm16.43-5.16v3.54a1.42,1.42,0,0,0,.4,1.12,1.48,1.48,0,0,0,1,.34,3.85,3.85,0,0,0,.9-.12v2.1a4.25,4.25,0,0,1-1.56.25,3.41,3.41,0,0,1-2.6-1,3.85,3.85,0,0,1-.88-2.68v-3.6h-1.72v-2h1.72V73.73l2.72-.88v3h2.32v2Zm13.58-2V85h-2.68V83.65a3,3,0,0,1-1.17,1.1,3.65,3.65,0,0,1-1.71.39,4,4,0,0,1-2.11-.57A4,4,0,0,1,306,82.93a5.9,5.9,0,0,1-.5-2.48,6.08,6.08,0,0,1,.5-2.51,4.06,4.06,0,0,1,1.44-1.69,3.66,3.66,0,0,1,2.09-.61,3.54,3.54,0,0,1,1.71.41,3.08,3.08,0,0,1,1.17,1.12v-1.3Zm-4.77,7.2a1.85,1.85,0,0,0,1.55-.68,3.9,3.9,0,0,0,0-4,1.84,1.84,0,0,0-1.55-.7,1.86,1.86,0,0,0-1.56.72,3.84,3.84,0,0,0,0,4A2,2,0,0,0,310.33,83.07Zm1.89-10.29,1.32-2.56h2.25l-2.24,2.56Zm-4.88,1.92,2.4-2.5h1.56l2.4,2.5h-2l-1.15-1.27-1.17,1.27Zm14.1,3.21v3.54a1.45,1.45,0,0,0,.39,1.12,1.52,1.52,0,0,0,1,.34,4,4,0,0,0,.9-.12v2.1a4.31,4.31,0,0,1-1.57.25,3.37,3.37,0,0,1-2.59-1,3.8,3.8,0,0,1-.88-2.68v-3.6H317v-2h1.73V73.73l2.72-.88v3h2.32v2ZM336,85.14a4.82,4.82,0,0,1-3.52-1.26,4.63,4.63,0,0,1-1.26-3.43,5,5,0,0,1,.62-2.51,4.28,4.28,0,0,1,1.71-1.69,5.22,5.22,0,0,1,2.57-.61A6,6,0,0,1,338,76a4,4,0,0,1,1.49.82l-.72,1.89a4.08,4.08,0,0,0-1.19-.66,3.4,3.4,0,0,0-1.26-.25,2.23,2.23,0,0,0-1.74.68,2.79,2.79,0,0,0-.62,2,2.9,2.9,0,0,0,.62,2,2.27,2.27,0,0,0,1.74.67,3.6,3.6,0,0,0,1.26-.24,4.38,4.38,0,0,0,1.19-.68l.72,1.89a4.38,4.38,0,0,1-1.55.83A6.89,6.89,0,0,1,336,85.14Zm14.7-9.27V85H348V83.65a2.86,2.86,0,0,1-1.16,1.1,3.72,3.72,0,0,1-1.72.39,3.89,3.89,0,0,1-2.1-.57,3.94,3.94,0,0,1-1.42-1.64,5.75,5.75,0,0,1-.51-2.48,5.92,5.92,0,0,1,.51-2.51A4,4,0,0,1,343,76.25a3.83,3.83,0,0,1,3.8-.2A3,3,0,0,1,348,77.17v-1.3Zm-4.77,7.2a1.82,1.82,0,0,0,1.54-.68,3.9,3.9,0,0,0,0-4,1.8,1.8,0,0,0-1.54-.7,1.86,1.86,0,0,0-1.57.72,3.19,3.19,0,0,0-.56,2,3.11,3.11,0,0,0,.54,2A2,2,0,0,0,345.91,83.07Zm.9-8.37h-1.37v-.45a1.07,1.07,0,0,1,.18-.63,2.85,2.85,0,0,1,.49-.5,1.47,1.47,0,0,0,.28-.29.4.4,0,0,0,.11-.27c0-.27-.2-.41-.61-.41a2.67,2.67,0,0,0-.9.16l-.36-1a3.83,3.83,0,0,1,1.55-.34,2.62,2.62,0,0,1,1.55.4,1.16,1.16,0,0,1,.55,1,1.05,1.05,0,0,1-.23.7,3,3,0,0,1-.63.56,2.54,2.54,0,0,0-.47.4.55.55,0,0,0-.14.37Zm21.8,1.17v8.72a4.23,4.23,0,0,1-1.26,3.31A5.37,5.37,0,0,1,363.67,89a8,8,0,0,1-3.78-.84l.42-2a7.31,7.31,0,0,0,3.27.83,2.44,2.44,0,0,0,1.75-.56,2.19,2.19,0,0,0,.58-1.66V83.2A3.45,3.45,0,0,1,363,84.75a4,4,0,0,1-2.1-.56,3.85,3.85,0,0,1-1.44-1.6,5.3,5.3,0,0,1-.53-2.4,5.11,5.11,0,0,1,.53-2.37,3.68,3.68,0,0,1,1.44-1.6,3.81,3.81,0,0,1,2.1-.58,3.68,3.68,0,0,1,1.73.41,3.06,3.06,0,0,1,1.19,1.12v-1.3Zm-4.83,6.81a1.94,1.94,0,0,0,1.55-.65,2.74,2.74,0,0,0,.58-1.84,2.71,2.71,0,0,0-.56-1.8,2,2,0,0,0-1.57-.66,2,2,0,0,0-1.58.66,2.67,2.67,0,0,0-.58,1.8A2.7,2.7,0,0,0,362.2,82,2,2,0,0,0,363.78,82.68Zm7.72-6.81h2.72V85H371.5Zm2.81-4.28v2.56h-2.9V71.59Zm12,4.28V85h-2.68V83.65a2.83,2.83,0,0,1-1.17,1.1,3.65,3.65,0,0,1-1.71.39,3.89,3.89,0,0,1-2.1-.57,4,4,0,0,1-1.43-1.64,5.9,5.9,0,0,1-.5-2.48,6.08,6.08,0,0,1,.5-2.51,4.06,4.06,0,0,1,1.44-1.69,3.69,3.69,0,0,1,2.09-.61,3.54,3.54,0,0,1,1.71.41,2.94,2.94,0,0,1,1.17,1.12v-1.3Zm-4.76,7.2a1.83,1.83,0,0,0,1.54-.68,3.9,3.9,0,0,0,0-4,1.82,1.82,0,0,0-1.54-.7,1.86,1.86,0,0,0-1.57.72,3.19,3.19,0,0,0-.56,2,3.11,3.11,0,0,0,.54,2A2,2,0,0,0,381.54,83.07Zm12,2.07a5.46,5.46,0,0,1-2.56-.57,4,4,0,0,1-1.67-1.66,5.76,5.76,0,0,1,0-5A4,4,0,0,1,391,76.22a5.34,5.34,0,0,1,2.56-.58,5.21,5.21,0,0,1,2.52.58,3.86,3.86,0,0,1,1.65,1.65,5.59,5.59,0,0,1,0,5,3.94,3.94,0,0,1-1.65,1.66A5.32,5.32,0,0,1,393.58,85.14Zm0-2.07a1.84,1.84,0,0,0,1.53-.66,3.25,3.25,0,0,0,.53-2,3.2,3.2,0,0,0-.53-2,1.82,1.82,0,0,0-1.53-.68,1.89,1.89,0,0,0-1.57.68,3.14,3.14,0,0,0-.54,2C391.47,82.18,392.17,83.07,393.58,83.07Zm22.15-11.32V85h-2.68V83.65a3,3,0,0,1-1.17,1.1,4,4,0,0,1-3.8-.2,4.19,4.19,0,0,1-1.44-1.69,5.88,5.88,0,0,1-.5-2.5,5.65,5.65,0,0,1,.5-2.47,4,4,0,0,1,1.42-1.66,3.85,3.85,0,0,1,2.11-.59,3.46,3.46,0,0,1,1.67.4A2.74,2.74,0,0,1,413,77.1V71.75ZM411,83.07a1.85,1.85,0,0,0,1.55-.68,3.22,3.22,0,0,0,.54-2,3.05,3.05,0,0,0-.56-2,1.81,1.81,0,0,0-1.53-.7,1.94,1.94,0,0,0-1.57.68,3,3,0,0,0-.56,2,3.22,3.22,0,0,0,.56,2A1.9,1.9,0,0,0,411,83.07Zm7.68-7.2h2.72V85h-2.72Zm2.81-4.28v2.56h-2.9V71.59Zm-.22,14.63v2.4h-2.5v-2.4Zm7.39-1.08a4.78,4.78,0,0,1-3.51-1.26,4.63,4.63,0,0,1-1.26-3.43,5.1,5.1,0,0,1,.61-2.51,4.28,4.28,0,0,1,1.71-1.69,5.29,5.29,0,0,1,2.58-.61,5.94,5.94,0,0,1,1.92.31,4,4,0,0,1,1.5.82l-.72,1.89a4.21,4.21,0,0,0-1.19-.66,3.4,3.4,0,0,0-1.26-.25,2.25,2.25,0,0,0-1.75.68,2.84,2.84,0,0,0-.61,2,3,3,0,0,0,.61,2,2.27,2.27,0,0,0,1.75.67,3.6,3.6,0,0,0,1.26-.24,4.53,4.53,0,0,0,1.19-.68l.72,1.89a4.38,4.38,0,0,1-1.55.83A7,7,0,0,1,428.62,85.14Zm11.19-9.5q3.24,0,3.24,3.83V85h-2.71V79.6a2.16,2.16,0,0,0-.36-1.39,1.3,1.3,0,0,0-1.1-.45,1.9,1.9,0,0,0-1.44.58,2.17,2.17,0,0,0-.54,1.55V85h-2.72V71.75h2.72v5.37a3.2,3.2,0,0,1,1.24-1.1A3.69,3.69,0,0,1,439.81,75.64Z"/><path class="cls-17" d="M257.64,159.43l.79-1-1.22-.32.29-.89,1.17.46-.07-1.25h.93l-.08,1.24,1.18-.45.29.89-1.23.32.8,1-.75.55-.68-1.06-.67,1.06Zm7.14,3.65a3.42,3.42,0,0,1-1.7-.4,2.82,2.82,0,0,1-1.11-1.16,3.65,3.65,0,0,1-.39-1.73,3.61,3.61,0,0,1,.39-1.72,2.74,2.74,0,0,1,1.11-1.15,3.42,3.42,0,0,1,1.7-.41,3.74,3.74,0,0,1,1.21.2,2.48,2.48,0,0,1,1,.54l-.45,1a2.86,2.86,0,0,0-.84-.47,2.47,2.47,0,0,0-.86-.15,1.65,1.65,0,0,0-1.32.54,2.45,2.45,0,0,0-.46,1.61,2.48,2.48,0,0,0,.46,1.62,1.65,1.65,0,0,0,1.32.55,2.47,2.47,0,0,0,.86-.15,3.4,3.4,0,0,0,.84-.47l.45,1a2.5,2.5,0,0,1-1,.55A3.74,3.74,0,0,1,264.78,163.08Zm5.88-4.76q1.62,0,1.62,1.92V163h-1.36v-2.7a1.06,1.06,0,0,0-.18-.69.66.66,0,0,0-.55-.23,1,1,0,0,0-.72.29,1.08,1.08,0,0,0-.27.77V163h-1.36v-6.62h1.36v2.68a1.56,1.56,0,0,1,.62-.55A1.79,1.79,0,0,1,270.66,158.32Zm2.7.12h1.36V163h-1.36Zm1-.59h-.69v-.22a.55.55,0,0,1,.09-.32,1.18,1.18,0,0,1,.25-.25.92.92,0,0,0,.14-.14.2.2,0,0,0,.05-.14q0-.21-.3-.21a1.42,1.42,0,0,0-.45.08l-.18-.51a1.91,1.91,0,0,1,.77-.17,1.36,1.36,0,0,1,.78.2.58.58,0,0,1,.27.48.52.52,0,0,1-.11.36,1.55,1.55,0,0,1-.32.28,1.22,1.22,0,0,0-.23.19.28.28,0,0,0-.07.19Zm8.53.59V163h-1.34v-.68a1.4,1.4,0,0,1-.58.55,1.73,1.73,0,0,1-.86.2,1.89,1.89,0,0,1-1-.29,1.91,1.91,0,0,1-.71-.82,2.86,2.86,0,0,1-.25-1.24,3,3,0,0,1,.25-1.25,1.92,1.92,0,0,1,.72-.84,1.79,1.79,0,0,1,1-.31,1.74,1.74,0,0,1,.86.21,1.42,1.42,0,0,1,.58.56v-.65Zm-2.38,3.6a.94.94,0,0,0,.77-.34,2,2,0,0,0,0-2,1,1,0,0,0-1.55,0,1.58,1.58,0,0,0-.28,1,1.53,1.53,0,0,0,.27,1A1,1,0,0,0,280.55,162Zm-.32-4.19.89-1.85h1.33l-1.39,1.85Zm6.59.47a1.77,1.77,0,0,1,1,.31,1.92,1.92,0,0,1,.72.84,3,3,0,0,1,.26,1.25,2.86,2.86,0,0,1-.26,1.24,1.79,1.79,0,0,1-.71.82,1.84,1.84,0,0,1-1.05.29,1.76,1.76,0,0,1-.86-.2,1.32,1.32,0,0,1-.57-.55v2.62H284v-5.2a10.19,10.19,0,0,0-.07-1.3h1.28l.09.75a1.41,1.41,0,0,1,.57-.64A1.87,1.87,0,0,1,286.82,158.32Zm-.39,3.72a.93.93,0,0,0,.78-.34,1.53,1.53,0,0,0,.27-1,1.65,1.65,0,0,0-.28-1,.91.91,0,0,0-.77-.36,1,1,0,0,0-.78.35,2,2,0,0,0,0,2A1,1,0,0,0,286.43,162Zm10.38-5.66V163h-1.34v-.68a1.4,1.4,0,0,1-.58.55,1.76,1.76,0,0,1-.86.2,1.84,1.84,0,0,1-1-.3,2,2,0,0,1-.72-.84,2.94,2.94,0,0,1-.26-1.25,2.79,2.79,0,0,1,.26-1.23,1.94,1.94,0,0,1,.71-.83,1.85,1.85,0,0,1,1-.3,1.83,1.83,0,0,1,.84.2,1.35,1.35,0,0,1,.58.53v-2.67ZM294.43,162a1,1,0,0,0,.77-.34,1.63,1.63,0,0,0,.27-1,1.52,1.52,0,0,0-.28-1,.91.91,0,0,0-.76-.35,1,1,0,0,0-.79.35,1.51,1.51,0,0,0-.28,1,1.66,1.66,0,0,0,.28,1A1,1,0,0,0,294.43,162Zm7.83-3.6V163h-1.32v-.67a1.37,1.37,0,0,1-.57.55,1.57,1.57,0,0,1-.79.19,1.66,1.66,0,0,1-1.28-.47,2.15,2.15,0,0,1-.42-1.45v-2.71h1.36v2.74c0,.55.24.83.71.83a.91.91,0,0,0,.69-.29,1.09,1.09,0,0,0,.26-.75v-2.53Zm-1.55,5.17v1.2h-1.25v-1.2Zm5.47-5.29q1.62,0,1.62,1.92V163h-1.36v-2.7a1.06,1.06,0,0,0-.18-.69.63.63,0,0,0-.55-.23,1,1,0,0,0-.72.29,1.12,1.12,0,0,0-.26.77V163h-1.36v-3.26a10.07,10.07,0,0,0-.08-1.3h1.28l.09.72a1.63,1.63,0,0,1,.63-.62A1.78,1.78,0,0,1,306.18,158.32Zm7.32.12v4.35a2.12,2.12,0,0,1-.63,1.66A2.64,2.64,0,0,1,311,165a3.88,3.88,0,0,1-1.89-.43l.2-1A3.75,3.75,0,0,0,311,164a1.18,1.18,0,0,0,.87-.28,1.06,1.06,0,0,0,.29-.83v-.79a1.71,1.71,0,0,1-.6.56,1.76,1.76,0,0,1-.85.21,2.06,2.06,0,0,1-1.06-.27,2.1,2.1,0,0,1-.72-.81,2.85,2.85,0,0,1,0-2.38,1.94,1.94,0,0,1,.72-.8,2,2,0,0,1,1.06-.29,1.79,1.79,0,0,1,.86.21,1.33,1.33,0,0,1,.59.56v-.65Zm-2.41,3.4a.94.94,0,0,0,.77-.33,1.58,1.58,0,0,0,0-1.81,1,1,0,0,0-.78-.34,1,1,0,0,0-.79.34,1.3,1.3,0,0,0-.29.9,1.38,1.38,0,0,0,.29.91A1,1,0,0,0,311.09,161.84Zm8.19,1.23a2.38,2.38,0,0,1-1.75-.63,2.32,2.32,0,0,1-.63-1.72,2.54,2.54,0,0,1,.3-1.25,2.11,2.11,0,0,1,.86-.84,2.55,2.55,0,0,1,1.28-.31,3.22,3.22,0,0,1,1,.15,1.82,1.82,0,0,1,.74.42l-.36.94a2.13,2.13,0,0,0-.59-.33,1.65,1.65,0,0,0-.63-.13,1.15,1.15,0,0,0-.87.34,1.4,1.4,0,0,0-.31,1,1.44,1.44,0,0,0,.31,1,1.12,1.12,0,0,0,.87.33,1.84,1.84,0,0,0,.63-.12,2.16,2.16,0,0,0,.59-.34l.36.94a2,2,0,0,1-.77.42A3.66,3.66,0,0,1,319.28,163.07Zm5.24-4.75q1.62,0,1.62,1.92V163h-1.36v-2.7a1.06,1.06,0,0,0-.18-.69.66.66,0,0,0-.55-.23,1,1,0,0,0-.72.29,1.08,1.08,0,0,0-.27.77V163H321.7v-6.62h1.36v2.68a1.56,1.56,0,0,1,.62-.55A1.79,1.79,0,0,1,324.52,158.32Zm4.88,4.75a2.63,2.63,0,0,1-1.28-.29,2,2,0,0,1-.84-.82,2.88,2.88,0,0,1,0-2.52,2,2,0,0,1,.84-.83,2.75,2.75,0,0,1,1.28-.29,2.66,2.66,0,0,1,1.26.29,2,2,0,0,1,.83.83,2.88,2.88,0,0,1,0,2.52,2,2,0,0,1-.83.82A2.55,2.55,0,0,1,329.4,163.07Zm0-1a.89.89,0,0,0,.76-.34,2,2,0,0,0,0-2,.9.9,0,0,0-.76-.35,1,1,0,0,0-.79.35,1.55,1.55,0,0,0-.26,1C328.35,161.59,328.7,162,329.4,162Zm8.93,1-1.79-2v2h-1.36v-6.62h1.36v4l1.71-2h1.63L338,160.63,340,163Zm4.83-4.68q1.62,0,1.62,1.92V163h-1.36v-2.7a1.06,1.06,0,0,0-.18-.69.65.65,0,0,0-.55-.23,1,1,0,0,0-.72.29,1.08,1.08,0,0,0-.27.77V163h-1.36v-6.62h1.36v2.68a1.56,1.56,0,0,1,.62-.55A1.79,1.79,0,0,1,343.16,158.32Zm7.27.12V163h-1.34v-.68a1.4,1.4,0,0,1-.58.55,1.73,1.73,0,0,1-.86.2,1.89,1.89,0,0,1-1-.29,1.91,1.91,0,0,1-.71-.82,2.86,2.86,0,0,1-.25-1.24,3,3,0,0,1,.25-1.25,1.92,1.92,0,0,1,.72-.84,1.79,1.79,0,0,1,1-.31,1.74,1.74,0,0,1,.86.21,1.42,1.42,0,0,1,.58.56v-.65Zm-2.38,3.6a.94.94,0,0,0,.77-.34,2,2,0,0,0,0-2,1,1,0,0,0-1.55,0,1.58,1.58,0,0,0-.28,1,1.53,1.53,0,0,0,.27,1A1,1,0,0,0,348.05,162Zm-.32-4.19.89-1.85H350l-1.39,1.85Zm6,5.22a2.42,2.42,0,0,1-1.76-.63,2.36,2.36,0,0,1-.63-1.72,2.54,2.54,0,0,1,.31-1.25,2.11,2.11,0,0,1,.86-.84,2.55,2.55,0,0,1,1.28-.31,3.22,3.22,0,0,1,1,.15,1.82,1.82,0,0,1,.74.42l-.36.94a2.13,2.13,0,0,0-.59-.33,1.65,1.65,0,0,0-.63-.13,1.15,1.15,0,0,0-.87.34,1.4,1.4,0,0,0-.31,1,1.44,1.44,0,0,0,.31,1,1.12,1.12,0,0,0,.87.33,1.84,1.84,0,0,0,.63-.12,2.16,2.16,0,0,0,.59-.34l.36.94a2,2,0,0,1-.77.42A3.66,3.66,0,0,1,353.69,163.07Zm5.24-4.75q1.62,0,1.62,1.92V163h-1.36v-2.7a1.06,1.06,0,0,0-.18-.69.66.66,0,0,0-.55-.23,1,1,0,0,0-.72.29,1.08,1.08,0,0,0-.27.77V163h-1.36v-6.62h1.36v2.68a1.56,1.56,0,0,1,.62-.55A1.79,1.79,0,0,1,358.93,158.32Zm8.05,0q1.62,0,1.62,1.92V163h-1.36v-2.7a1.06,1.06,0,0,0-.18-.69.66.66,0,0,0-.55-.23,1,1,0,0,0-.72.29,1.08,1.08,0,0,0-.27.77V163h-1.36v-6.62h1.36v2.68a1.56,1.56,0,0,1,.62-.55A1.79,1.79,0,0,1,367,158.32Zm7.27.12V163h-1.34v-.68a1.4,1.4,0,0,1-.58.55,1.76,1.76,0,0,1-.86.2,1.86,1.86,0,0,1-1.05-.29,1.91,1.91,0,0,1-.71-.82,2.86,2.86,0,0,1-.26-1.24,3,3,0,0,1,.26-1.25,1.92,1.92,0,0,1,.72-.84,1.88,1.88,0,0,1,1.9-.1,1.42,1.42,0,0,1,.58.56v-.65Zm-2.38,3.6a1,1,0,0,0,.77-.34,2,2,0,0,0,0-2,.93.93,0,0,0-.77-.35,1,1,0,0,0-.79.36,1.65,1.65,0,0,0-.28,1,1.47,1.47,0,0,0,.28,1A.94.94,0,0,0,371.87,162Zm-1.71-6h1.33l.89,1.85h-.84Zm8,2.32q1.62,0,1.62,1.92V163h-1.36v-2.7a1.06,1.06,0,0,0-.18-.69.66.66,0,0,0-.55-.23,1,1,0,0,0-.72.29,1.08,1.08,0,0,0-.27.77V163h-1.36v-3.26a10.19,10.19,0,0,0-.07-1.3h1.27l.09.72a1.78,1.78,0,0,1,.63-.62A1.82,1.82,0,0,1,378.17,158.32Zm7.31.12v4.35a2.15,2.15,0,0,1-.62,1.66A2.68,2.68,0,0,1,383,165a3.88,3.88,0,0,1-1.89-.43l.21-1A3.67,3.67,0,0,0,383,164a1.22,1.22,0,0,0,.88-.28,1.1,1.1,0,0,0,.29-.83v-.79a1.84,1.84,0,0,1-.61.56,1.76,1.76,0,0,1-.85.21,2.06,2.06,0,0,1-1.06-.27,2.1,2.1,0,0,1-.72-.81,2.85,2.85,0,0,1,0-2.38,1.94,1.94,0,0,1,.72-.8,2,2,0,0,1,1.06-.29,1.79,1.79,0,0,1,.86.21,1.41,1.41,0,0,1,.6.56v-.65Zm-2.41,3.4a1,1,0,0,0,.78-.33,1.58,1.58,0,0,0,0-1.81,1,1,0,0,0-.79-.34,1,1,0,0,0-.79.34,1.3,1.3,0,0,0-.29.9,1.38,1.38,0,0,0,.29.91A1,1,0,0,0,383.07,161.84ZM394.48,158h-.8v5h-1.35v-.68a1.34,1.34,0,0,1-.58.55,1.73,1.73,0,0,1-.86.2,1.89,1.89,0,0,1-1-.3,2,2,0,0,1-.72-.84,2.94,2.94,0,0,1-.25-1.25,2.79,2.79,0,0,1,.25-1.23,1.94,1.94,0,0,1,.71-.83,1.89,1.89,0,0,1,1.05-.3,1.8,1.8,0,0,1,.84.2,1.38,1.38,0,0,1,.59.53V158h-1.73v-1h1.73v-.63h1.36V157h.8ZM391.29,162a1,1,0,0,0,.78-.34,1.7,1.7,0,0,0,.26-1,1.58,1.58,0,0,0-.27-1,1,1,0,0,0-1.55,0,1.46,1.46,0,0,0-.28,1,1.6,1.6,0,0,0,.28,1A.93.93,0,0,0,391.29,162Zm8.06-3.6V163H398v-.68a1.34,1.34,0,0,1-.58.55,1.73,1.73,0,0,1-.86.2,1.89,1.89,0,0,1-1.05-.29,1.91,1.91,0,0,1-.71-.82,2.86,2.86,0,0,1-.25-1.24,3,3,0,0,1,.25-1.25,1.92,1.92,0,0,1,.72-.84,1.79,1.79,0,0,1,1-.31,1.74,1.74,0,0,1,.86.21,1.36,1.36,0,0,1,.58.56v-.65ZM397,162a.94.94,0,0,0,.77-.34,2,2,0,0,0,0-2,1,1,0,0,0-1.55,0,1.58,1.58,0,0,0-.28,1,1.53,1.53,0,0,0,.27,1A1,1,0,0,0,397,162Zm-1.48-4.48a1.59,1.59,0,0,1,.26-1,.91.91,0,0,1,.72-.33.71.71,0,0,1,.32.07,2.62,2.62,0,0,1,.37.19l.3.16a.54.54,0,0,0,.21.05.32.32,0,0,0,.27-.12.55.55,0,0,0,.13-.32h.57a1.53,1.53,0,0,1-.27,1,.89.89,0,0,1-.71.33,1,1,0,0,1-.33-.06l-.36-.2-.31-.15a.36.36,0,0,0-.2-.06.35.35,0,0,0-.28.12.54.54,0,0,0-.12.32Zm12.07-1.18V163H406.2v-.68a1.34,1.34,0,0,1-.58.55,1.73,1.73,0,0,1-.86.2,1.86,1.86,0,0,1-1-.3,2,2,0,0,1-.72-.84,2.94,2.94,0,0,1-.25-1.25,2.79,2.79,0,0,1,.25-1.23,1.94,1.94,0,0,1,.71-.83,1.89,1.89,0,0,1,1.05-.3,1.8,1.8,0,0,1,.84.2,1.38,1.38,0,0,1,.59.53v-2.67ZM405.16,162a.94.94,0,0,0,.77-.34,1.63,1.63,0,0,0,.27-1,1.52,1.52,0,0,0-.28-1,.91.91,0,0,0-.76-.35.93.93,0,0,0-.78.35,1.46,1.46,0,0,0-.28,1,1.6,1.6,0,0,0,.28,1A.93.93,0,0,0,405.16,162Zm7.84-3.6V163h-1.33v-.67a1.41,1.41,0,0,1-.56.55,1.62,1.62,0,0,1-.79.19,1.65,1.65,0,0,1-1.28-.47,2.15,2.15,0,0,1-.43-1.45v-2.71H410v2.74c0,.55.24.83.71.83a.88.88,0,0,0,.69-.29,1.09,1.09,0,0,0,.26-.75v-2.53ZM409,156h1.33l.89,1.85h-.83Zm7.91,2.32q1.62,0,1.62,1.92V163h-1.36v-2.7a1.06,1.06,0,0,0-.18-.69.66.66,0,0,0-.55-.23,1,1,0,0,0-.72.29,1.08,1.08,0,0,0-.27.77V163H414.1v-3.26a10.19,10.19,0,0,0-.07-1.3h1.28l.09.72a1.63,1.63,0,0,1,.63-.62A1.75,1.75,0,0,1,416.92,158.32Zm7.32.12v4.35a2.12,2.12,0,0,1-.63,1.66,2.67,2.67,0,0,1-1.84.57,3.88,3.88,0,0,1-1.89-.43l.21-1a3.68,3.68,0,0,0,1.64.41,1.2,1.2,0,0,0,.87-.28,1.1,1.1,0,0,0,.29-.83v-.79a1.84,1.84,0,0,1-.61.56,1.76,1.76,0,0,1-.85.21,2,2,0,0,1-1.05-.27,2,2,0,0,1-.73-.81,2.85,2.85,0,0,1,0-2.38,1.89,1.89,0,0,1,.73-.8,1.92,1.92,0,0,1,1.05-.29,1.77,1.77,0,0,1,.86.21,1.41,1.41,0,0,1,.6.56v-.65Zm-2.42,3.4a1,1,0,0,0,.78-.33,1.58,1.58,0,0,0,0-1.81,1,1,0,0,0-.79-.34,1,1,0,0,0-.79.34,1.3,1.3,0,0,0-.29.9,1.38,1.38,0,0,0,.29.91A1,1,0,0,0,421.82,161.84Zm7.75-2.39v1.78a.75.75,0,0,0,.19.56.79.79,0,0,0,.52.17,2.07,2.07,0,0,0,.45-.07V163a2.3,2.3,0,0,1-.79.12,1.71,1.71,0,0,1-1.29-.47,1.89,1.89,0,0,1-.44-1.35v-1.8h-.87v-1h.87v-1.07l1.36-.44v1.51h1.16v1Zm4.67-1.13q1.62,0,1.62,1.92V163H434.5v-2.7a1.06,1.06,0,0,0-.18-.69.65.65,0,0,0-.55-.23,1,1,0,0,0-.72.29,1.08,1.08,0,0,0-.27.77V163h-1.36v-6.62h1.36v2.68a1.56,1.56,0,0,1,.62-.55A1.79,1.79,0,0,1,434.24,158.32Zm8.1-1v.34a1.45,1.45,0,0,1-.29.92,1.26,1.26,0,0,1-.75.49v4H440v-.67a1.5,1.5,0,0,1-.57.55,1.62,1.62,0,0,1-.79.19,1.65,1.65,0,0,1-1.28-.47,2.15,2.15,0,0,1-.42-1.45v-2.71h1.35v2.74c0,.55.24.83.72.83a.88.88,0,0,0,.68-.29,1.09,1.09,0,0,0,.26-.75v-2.53h.39a.83.83,0,0,0,.66-.22,1.16,1.16,0,0,0,.19-.76v-.18Zm-2.87.57h-.68v-.22a.55.55,0,0,1,.09-.32,1.39,1.39,0,0,1,.24-.25,1.06,1.06,0,0,0,.15-.14.27.27,0,0,0,.05-.14c0-.14-.1-.21-.31-.21a1.53,1.53,0,0,0-.45.08l-.18-.51a2,2,0,0,1,.78-.17,1.33,1.33,0,0,1,.77.2.56.56,0,0,1,.28.48.52.52,0,0,1-.12.36,1.46,1.46,0,0,1-.31.28,1.83,1.83,0,0,0-.24.19.34.34,0,0,0-.07.19Zm8.47.47a1.85,1.85,0,0,1,1.05.3,1.89,1.89,0,0,1,.72.83,3.14,3.14,0,0,1,0,2.48,2,2,0,0,1-.71.84,1.89,1.89,0,0,1-1.05.3,1.76,1.76,0,0,1-.86-.2,1.4,1.4,0,0,1-.58-.55V163h-1.35v-6.62h1.36v2.7a1.29,1.29,0,0,1,.58-.55A1.76,1.76,0,0,1,447.94,158.32Zm-.39,3.72a.93.93,0,0,0,.78-.35,1.64,1.64,0,0,0,.27-1,1.51,1.51,0,0,0-.27-1,.93.93,0,0,0-.78-.35,1,1,0,0,0-.78.35,1.58,1.58,0,0,0-.27,1,1.63,1.63,0,0,0,.27,1A1,1,0,0,0,447.55,162Zm7.85-3.6V163h-1.34v-.68a1.4,1.4,0,0,1-.58.55,1.76,1.76,0,0,1-.86.2,1.84,1.84,0,0,1-1.05-.29,1.91,1.91,0,0,1-.71-.82,2.86,2.86,0,0,1-.26-1.24,3,3,0,0,1,.26-1.25,1.92,1.92,0,0,1,.72-.84,1.88,1.88,0,0,1,1.9-.1,1.42,1.42,0,0,1,.58.56v-.65ZM453,162a1,1,0,0,0,.77-.34,2,2,0,0,0,0-2,.93.93,0,0,0-.77-.35,1,1,0,0,0-.79.36,1.65,1.65,0,0,0-.28,1,1.53,1.53,0,0,0,.27,1A1,1,0,0,0,453,162Zm.45-4.19h-.69v-.22a.55.55,0,0,1,.09-.32,1.39,1.39,0,0,1,.24-.25.69.69,0,0,0,.15-.14.2.2,0,0,0,.05-.14q0-.21-.3-.21a1.42,1.42,0,0,0-.45.08l-.18-.51a1.91,1.91,0,0,1,.77-.17,1.31,1.31,0,0,1,.77.2.56.56,0,0,1,.28.48.52.52,0,0,1-.11.36,1.55,1.55,0,0,1-.32.28,1.22,1.22,0,0,0-.23.19.28.28,0,0,0-.07.19Zm5.85.47c1.07,0,1.61.64,1.61,1.92V163h-1.35v-2.7a1.06,1.06,0,0,0-.18-.69.66.66,0,0,0-.55-.23,1,1,0,0,0-.72.29,1.08,1.08,0,0,0-.27.77V163H456.5v-3.26a12.44,12.44,0,0,0-.07-1.3h1.27l.09.72a1.7,1.7,0,0,1,1.53-.84Zm8,0a1.89,1.89,0,0,1,1.76,1.13,3,3,0,0,1,0,2.48,1.89,1.89,0,0,1-.71.84,1.84,1.84,0,0,1-1,.3,1.73,1.73,0,0,1-.86-.2,1.34,1.34,0,0,1-.58-.55V163h-1.35v-6.62h1.36v2.7a1.32,1.32,0,0,1,.57-.55A1.79,1.79,0,0,1,467.34,158.32ZM467,162a.93.93,0,0,0,.78-.35,1.64,1.64,0,0,0,.27-1,1.51,1.51,0,0,0-.27-1,.93.93,0,0,0-.78-.35,1,1,0,0,0-.78.35,1.58,1.58,0,0,0-.27,1,1.63,1.63,0,0,0,.27,1A1,1,0,0,0,467,162Zm7.37-1.21h-3a1.37,1.37,0,0,0,.33.94,1.22,1.22,0,0,0,.88.28,2.09,2.09,0,0,0,.7-.11,2.24,2.24,0,0,0,.65-.34l.36.91a2.3,2.3,0,0,1-.81.42,3.54,3.54,0,0,1-1,.14,2.51,2.51,0,0,1-1.81-.63,2.28,2.28,0,0,1-.66-1.73,2.73,2.73,0,0,1,.28-1.24,2,2,0,0,1,.8-.84,2.17,2.17,0,0,1,1.16-.31,1.91,1.91,0,0,1,1.52.63,2.39,2.39,0,0,1,.56,1.68Zm-2-1.56a.89.89,0,0,0-.63.23,1.14,1.14,0,0,0-.31.66h1.81C473.08,159.57,472.79,159.27,472.28,159.27Zm4.52.18v1.78a.75.75,0,0,0,.19.56.81.81,0,0,0,.52.17,2.07,2.07,0,0,0,.45-.07V163a2.3,2.3,0,0,1-.79.12,1.71,1.71,0,0,1-1.29-.47,1.89,1.89,0,0,1-.44-1.35v-1.8h-.87v-1h.87v-1.07l1.36-.44v1.51H478v1Zm6.43-1V163h-1.34v-.68a1.42,1.42,0,0,1-.59.55,1.72,1.72,0,0,1-.85.2,1.9,1.9,0,0,1-1.06-.29,2,2,0,0,1-.71-.82,2.86,2.86,0,0,1-.25-1.24,3,3,0,0,1,.25-1.25,2.06,2.06,0,0,1,.72-.84,1.82,1.82,0,0,1,1.05-.31,1.73,1.73,0,0,1,.85.21,1.45,1.45,0,0,1,.59.56v-.65Zm-2.39,3.6a1,1,0,0,0,.78-.34,2,2,0,0,0,0-2,1,1,0,0,0-1.56,0,1.58,1.58,0,0,0-.28,1,1.53,1.53,0,0,0,.27,1A1,1,0,0,0,480.84,162Z"/></svg>