<svg width="37" height="37" viewBox="0 0 37 37" fill="none" xmlns="http://www.w3.org/2000/svg">
<g clip-path="url(#clip0)">
<path fill-rule="evenodd" clip-rule="evenodd" d="M17.8179 11.0363C17.9373 10.9884 18.0705 10.9884 18.1899 11.0363L24.1579 13.4233L21.7539 14.3843L15.5999 11.9233L17.8179 11.0363ZM14.2539 12.4623L20.4079 14.9233L18.0039 15.8843L11.8499 13.4233L14.2539 12.4623ZM11.0039 14.1623L17.5039 16.7623V24.6842L11.0039 22.0843V14.1623ZM18.5039 24.6853V16.7613L25.0039 14.1623V22.0852L18.5039 24.6853ZM18.5609 10.1073C18.2033 9.96425 17.8045 9.96425 17.4469 10.1073L10.3179 12.9593C10.2252 12.9964 10.1458 13.0604 10.0898 13.1431C10.0338 13.2258 10.0039 13.3234 10.0039 13.4233V22.0852C10.004 22.2851 10.064 22.4803 10.1761 22.6457C10.2882 22.8111 10.4473 22.9391 10.6329 23.0133L17.8179 25.8872C17.9373 25.9351 18.0705 25.9351 18.1899 25.8872L25.3739 23.0133C25.5597 22.9393 25.719 22.8113 25.8313 22.6459C25.9436 22.4805 26.0037 22.2852 26.0039 22.0852V13.4233C26.0039 13.3234 25.974 13.2258 25.918 13.1431C25.862 13.0604 25.7826 12.9964 25.6899 12.9593L18.5609 10.1073Z" fill="#005EF9"/>
</g>
<circle cx="18.5" cy="18.5" r="18" stroke="#005EF9"/>
<defs>
<clipPath id="clip0">
<rect width="16" height="16" fill="white" transform="matrix(-1 0 0 1 26.0039 10)"/>
</clipPath>
</defs>
</svg>
