<svg width="37" height="37" viewBox="0 0 37 37" fill="none" xmlns="http://www.w3.org/2000/svg">
<path d="M20.4167 9.875V13.7083C20.4167 13.9625 20.5177 14.2063 20.6974 14.386C20.8771 14.5657 21.1209 14.6667 21.375 14.6667H25.2084" stroke="#005EF9" stroke-linecap="round" stroke-linejoin="round"/>
<path d="M23.2917 27.125H13.7084C13.2 27.125 12.7125 26.9231 12.3531 26.5636C11.9936 26.2042 11.7917 25.7167 11.7917 25.2083V11.7917C11.7917 11.2833 11.9936 10.7958 12.3531 10.4364C12.7125 10.0769 13.2 9.875 13.7084 9.875H20.4167L25.2084 14.6667V25.2083C25.2084 25.7167 25.0064 26.2042 24.647 26.5636C24.2875 26.9231 23.8 27.125 23.2917 27.125Z" stroke="#005EF9" stroke-linecap="round" stroke-linejoin="round"/>
<path d="M15.625 15.625H16.5833" stroke="#005EF9" stroke-linecap="round" stroke-linejoin="round"/>
<path d="M15.625 19.4583H21.375" stroke="#005EF9" stroke-linecap="round" stroke-linejoin="round"/>
<path d="M15.625 23.2917H21.375" stroke="#005EF9" stroke-linecap="round" stroke-linejoin="round"/>
<circle cx="18.5" cy="18.5" r="18" stroke="#005EF9"/>
</svg>
