<svg width="70" height="31" viewBox="0 0 70 31" fill="none" xmlns="http://www.w3.org/2000/svg">
<rect x="0.5" y="-0.5" width="4" height="30" transform="matrix(1 0 0 -1 0 30)" fill="#0167FA" stroke="white"/>
<rect x="0.5" y="-0.5" width="4" height="23.8" transform="matrix(1 0 0 -1 5 30)" fill="#0167FA" stroke="white"/>
<rect x="0.5" y="-0.5" width="4" height="23.8" transform="matrix(1 0 0 -1 44.9999 30)" fill="#0167FA" stroke="white"/>
<rect x="0.5" y="-0.5" width="4" height="18.84" transform="matrix(1 0 0 -1 9.99988 30)" fill="#0167FA" stroke="white"/>
<rect x="0.5" y="-0.5" width="4.00001" height="18.84" transform="matrix(1 0 0 -1 40 30)" fill="#0167FA" stroke="white"/>
<rect x="0.5" y="-0.5" width="4" height="13.88" transform="matrix(1 0 0 -1 15 30)" fill="#0167FA" stroke="white"/>
<rect x="0.5" y="-0.5" width="4.00001" height="23.8" transform="matrix(1 0 0 -1 20 30)" fill="#0167FA" stroke="white"/>
<rect x="0.5" y="-0.5" width="4" height="23.8" transform="matrix(1 0 0 -1 35 30)" fill="#0167FA" stroke="white"/>
<rect x="0.5" y="-0.5" width="4" height="13.88" transform="matrix(1 0 0 -1 55 30)" fill="#0167FA" stroke="white"/>
<rect x="0.5" y="-0.5" width="4" height="23.8" transform="matrix(1 0 0 -1 60.0001 30)" fill="#0167FA" stroke="white"/>
<rect x="0.5" y="-0.5" width="4" height="23.8" transform="matrix(1 0 0 -1 65 30)" fill="#0167FA" stroke="white"/>
<rect x="0.5" y="-0.5" width="4" height="10.16" transform="matrix(1 0 0 -1 25.0001 30)" fill="#0167FA" stroke="white"/>
<rect x="0.5" y="-0.5" width="4" height="17.6" transform="matrix(1 0 0 -1 30 30)" fill="#0167FA" stroke="white"/>
<rect x="0.5" y="-0.5" width="4" height="17.6" transform="matrix(1 0 0 -1 50 30)" fill="#0167FA" stroke="white"/>
</svg>
