<svg width="18" height="10" viewBox="0 0 18 10" fill="none" xmlns="http://www.w3.org/2000/svg">
<rect width="18" height="10" rx="1" fill="#8392A5"/>
<path d="M2.5 4.19944C2.5 4.03394 2.5363 3.87866 2.60889 3.73361C2.68148 3.58856 2.77969 3.46211 2.90352 3.35425C3.02949 3.24454 3.17574 3.15807 3.34227 3.09484C3.50881 3.03161 3.68708 3 3.8771 3H5.98439V3.80056H3.8771C3.81305 3.80056 3.75327 3.81079 3.69776 3.83124C3.64225 3.8517 3.59314 3.88052 3.55044 3.91771C3.50987 3.95305 3.47785 3.99489 3.45436 4.04324C3.43088 4.09159 3.41914 4.14365 3.41914 4.19944C3.41914 4.25523 3.43088 4.30823 3.45436 4.35844C3.47785 4.40679 3.50987 4.44956 3.55044 4.48675C3.59314 4.52208 3.64225 4.54998 3.69776 4.57043C3.75327 4.59089 3.81305 4.60112 3.8771 4.60112H4.79624C4.98626 4.60112 5.16453 4.63273 5.33106 4.69596C5.49973 4.75732 5.64598 4.84286 5.76982 4.95258C5.89578 5.06044 5.994 5.18782 6.06445 5.33473C6.13704 5.47978 6.17334 5.63505 6.17334 5.80056C6.17334 5.96606 6.13704 6.12134 6.06445 6.26639C5.994 6.41144 5.89578 6.53882 5.76982 6.64854C5.64598 6.75639 5.49973 6.84193 5.33106 6.90516C5.16453 6.96839 4.98626 7 4.79624 7H2.7562V6.19944H4.79624C4.86029 6.19944 4.92007 6.18921 4.97558 6.16876C5.03109 6.1483 5.07913 6.12041 5.1197 6.08508C5.1624 6.04788 5.19549 6.00511 5.21898 5.95676C5.24246 5.90841 5.2542 5.85635 5.2542 5.80056C5.2542 5.74477 5.24246 5.6927 5.21898 5.64435C5.19549 5.596 5.1624 5.55416 5.1197 5.51883C5.07913 5.48164 5.03109 5.45281 4.97558 5.43236C4.92007 5.4119 4.86029 5.40167 4.79624 5.40167H3.8771C3.68708 5.40167 3.50881 5.37006 3.34227 5.30683C3.17574 5.24361 3.02949 5.15807 2.90352 5.05021C2.77969 4.94049 2.68148 4.81311 2.60889 4.66806C2.5363 4.52115 2.5 4.36495 2.5 4.19944Z" fill="white"/>
<path d="M8.19776 7H7.27862V3H8.19776V5L9.90793 3H10.952L9.5012 4.68759L10.952 7H9.90793L8.89912 5.38215L8.19776 6.19944V7Z" fill="white"/>
<path d="M15.5 5.40167C15.5 5.62297 15.452 5.83124 15.3559 6.0265C15.2598 6.2199 15.1285 6.38912 14.962 6.53417C14.7954 6.67736 14.6001 6.7908 14.3759 6.87448C14.1539 6.95816 13.9158 7 13.6617 7C13.4077 7 13.1685 6.95816 12.9444 6.87448C12.7223 6.7908 12.528 6.67736 12.3615 6.53417C12.1971 6.38912 12.0669 6.2199 11.9708 6.0265C11.8747 5.83124 11.8267 5.62297 11.8267 5.40167V3H12.7426V5.40167C12.7426 5.51139 12.7661 5.6146 12.8131 5.7113C12.8622 5.808 12.9283 5.89261 13.0116 5.96513C13.0949 6.03766 13.192 6.0953 13.303 6.13808C13.4162 6.17899 13.5358 6.19944 13.6617 6.19944C13.7877 6.19944 13.9062 6.17899 14.0172 6.13808C14.1304 6.0953 14.2286 6.03766 14.3118 5.96513C14.3951 5.89261 14.4602 5.808 14.5072 5.7113C14.5563 5.6146 14.5809 5.51139 14.5809 5.40167V3H15.5V5.40167Z" fill="white"/>
</svg>
