<svg width="281" height="183" viewBox="0 0 281 183" fill="none" xmlns="http://www.w3.org/2000/svg">
<g opacity="0.5">
<path d="M99.6824 8H62.5293C61.662 8 60.959 8.83218 60.959 9.85873C60.959 10.8853 61.662 11.7175 62.5293 11.7175H99.6824C100.55 11.7175 101.253 10.8853 101.253 9.85873C101.253 8.83218 100.55 8 99.6824 8Z" fill="#9FC5FF"/>
<path d="M130.13 8H111.647C110.78 8 110.077 8.83218 110.077 9.85873C110.077 10.8853 110.78 11.7175 111.647 11.7175H130.13C130.997 11.7175 131.7 10.8853 131.7 9.85873C131.7 8.83218 130.997 8 130.13 8Z" fill="#9FC5FF"/>
<path d="M214.989 23.2051H177.836C176.969 23.2051 176.266 24.0373 176.266 25.0638C176.266 26.0904 176.969 26.9225 177.836 26.9225H214.989C215.856 26.9225 216.559 26.0904 216.559 25.0638C216.559 24.0373 215.856 23.2051 214.989 23.2051Z" fill="#9FC5FF"/>
<path d="M245.436 23.2051H226.954C226.087 23.2051 225.384 24.0373 225.384 25.0638C225.384 26.0904 226.087 26.9225 226.954 26.9225H245.436C246.304 26.9225 247.007 26.0904 247.007 25.0638C247.007 24.0373 246.304 23.2051 245.436 23.2051Z" fill="#9FC5FF"/>
<path d="M47.5008 37.3857H10.3476C9.48039 37.3857 8.77734 38.2179 8.77734 39.2445C8.77734 40.271 9.48039 41.1032 10.3476 41.1032H47.5008C48.368 41.1032 49.0711 40.271 49.0711 39.2445C49.0711 38.2179 48.368 37.3857 47.5008 37.3857Z" fill="#9FC5FF"/>
<path d="M77.9491 37.3857H59.4668C58.5995 37.3857 57.8965 38.2179 57.8965 39.2445C57.8965 40.271 58.5995 41.1032 59.4668 41.1032H77.9491C78.8164 41.1032 79.5194 40.271 79.5194 39.2445C79.5194 38.2179 78.8164 37.3857 77.9491 37.3857Z" fill="#9FC5FF"/>
<path d="M53.4371 76.0107H1.57029C0.703044 76.0107 0 76.8429 0 77.8695C0 78.896 0.703044 79.7282 1.57029 79.7282H53.4371C54.3043 79.7282 55.0074 78.896 55.0074 77.8695C55.0074 76.8429 54.3043 76.0107 53.4371 76.0107Z" fill="#9FC5FF"/>
<path d="M95.0186 76.0107H68.6377C67.7704 76.0107 67.0674 76.8429 67.0674 77.8695C67.0674 78.896 67.7704 79.7282 68.6377 79.7282H95.0186C95.8859 79.7282 96.5889 78.896 96.5889 77.8695C96.5889 76.8429 95.8859 76.0107 95.0186 76.0107Z" fill="#9FC5FF"/>
<path d="M215.711 108.539H163.844C162.976 108.539 162.273 109.371 162.273 110.398C162.273 111.424 162.976 112.257 163.844 112.257H215.711C216.578 112.257 217.281 111.424 217.281 110.398C217.281 109.371 216.578 108.539 215.711 108.539Z" fill="#9FC5FF"/>
<path d="M257.293 108.539H230.912C230.045 108.539 229.342 109.371 229.342 110.398C229.342 111.424 230.045 112.257 230.912 112.257H257.293C258.16 112.257 258.863 111.424 258.863 110.398C258.863 109.371 258.16 108.539 257.293 108.539Z" fill="#9FC5FF"/>
<path d="M181.4 82.3486H129.533C128.666 82.3486 127.963 83.1808 127.963 84.2074C127.963 85.2339 128.666 86.0661 129.533 86.0661H181.4C182.267 86.0661 182.97 85.2339 182.97 84.2074C182.97 83.1808 182.267 82.3486 181.4 82.3486Z" fill="#9FC5FF"/>
<path d="M222.981 82.3486H196.601C195.733 82.3486 195.03 83.1808 195.03 84.2074C195.03 85.2339 195.733 86.0661 196.601 86.0661H222.981C223.849 86.0661 224.552 85.2339 224.552 84.2074C224.552 83.1808 223.849 82.3486 222.981 82.3486Z" fill="#9FC5FF"/>
<path d="M53.4534 106.698H24.4658C23.5986 106.698 22.8955 107.53 22.8955 108.557C22.8955 109.584 23.5986 110.416 24.4658 110.416H53.4534C54.3207 110.416 55.0237 109.584 55.0237 108.557C55.0237 107.53 54.3207 106.698 53.4534 106.698Z" fill="#9FC5FF"/>
<path d="M42.3828 138.538H24.4658C23.5986 138.538 22.8955 139.37 22.8955 140.397C22.8955 141.423 23.5986 142.256 24.4658 142.256H42.3828C43.2501 142.256 43.9531 141.423 43.9531 140.397C43.9531 139.37 43.2501 138.538 42.3828 138.538Z" fill="#9FC5FF"/>
<path d="M97.5634 138.538H51.5381C50.6708 138.538 49.9678 139.37 49.9678 140.397C49.9678 141.423 50.6708 142.256 51.5381 142.256H97.5634C98.4306 142.256 99.1337 141.423 99.1337 140.397C99.1337 139.37 98.4306 138.538 97.5634 138.538Z" fill="#9FC5FF"/>
<path d="M75.1073 159.97H29.082C28.2148 159.97 27.5117 160.802 27.5117 161.828C27.5117 162.855 28.2148 163.687 29.082 163.687H75.1073C75.9746 163.687 76.6776 162.855 76.6776 161.828C76.6776 160.802 75.9746 159.97 75.1073 159.97Z" fill="#9FC5FF"/>
<path d="M148.848 159.97H124.132C123.265 159.97 122.562 160.802 122.562 161.828C122.562 162.855 123.265 163.687 124.132 163.687H148.848C149.715 163.687 150.419 162.855 150.419 161.828C150.419 160.802 149.715 159.97 148.848 159.97Z" fill="#9FC5FF"/>
<path d="M209.65 159.97H157.045C156.178 159.97 155.475 160.802 155.475 161.828C155.475 162.855 156.178 163.687 157.045 163.687H209.65C210.517 163.687 211.22 162.855 211.22 161.828C211.22 160.802 210.517 159.97 209.65 159.97Z" fill="#9FC5FF"/>
<path d="M249.222 149.486H210.734C209.867 149.486 209.164 150.319 209.164 151.345C209.164 152.372 209.867 153.204 210.734 153.204H249.222C250.089 153.204 250.793 152.372 250.793 151.345C250.793 150.319 250.089 149.486 249.222 149.486Z" fill="#9FC5FF"/>
<path d="M249.222 173.018H210.734C209.867 173.018 209.164 173.85 209.164 174.876C209.164 175.903 209.867 176.735 210.734 176.735H249.222C250.089 176.735 250.793 175.903 250.793 174.876C250.793 173.85 250.089 173.018 249.222 173.018Z" fill="#9FC5FF"/>
<path d="M244.621 131.53H192.017C191.149 131.53 190.446 132.362 190.446 133.389C190.446 134.416 191.149 135.248 192.017 135.248H244.621C245.489 135.248 246.192 134.416 246.192 133.389C246.192 132.362 245.489 131.53 244.621 131.53Z" fill="#9FC5FF"/>
<path d="M279.276 131.53H258.579C257.712 131.53 257.009 132.362 257.009 133.389C257.009 134.416 257.712 135.248 258.579 135.248H279.276C280.143 135.248 280.846 134.416 280.846 133.389C280.846 132.362 280.143 131.53 279.276 131.53Z" fill="#9FC5FF"/>
<path d="M82.2678 106.698H68.6377C67.7704 106.698 67.0674 107.53 67.0674 108.557C67.0674 109.584 67.7704 110.416 68.6377 110.416H82.2678C83.1351 110.416 83.8381 109.584 83.8381 108.557C83.8381 107.53 83.1351 106.698 82.2678 106.698Z" fill="#9FC5FF"/>
<path d="M216.749 56.1787H179.596C178.728 56.1787 178.025 57.0109 178.025 58.0374C178.025 59.064 178.728 59.8962 179.596 59.8962H216.749C217.616 59.8962 218.319 59.064 218.319 58.0374C218.319 57.0109 217.616 56.1787 216.749 56.1787Z" fill="#9FC5FF"/>
<path d="M266.934 56.1787H228.713C227.846 56.1787 227.143 57.0109 227.143 58.0374C227.143 59.064 227.846 59.8962 228.713 59.8962H266.934C267.801 59.8962 268.504 59.064 268.504 58.0374C268.504 57.0109 267.801 56.1787 266.934 56.1787Z" fill="#9FC5FF"/>
</g>
<g clip-path="url(#clip0)">
<path d="M57.8464 41.1175L139.344 1.77351C139.344 1.7735 139.344 1.77349 139.344 1.77348C140.831 1.05598 142.564 1.05598 144.051 1.77348C144.051 1.77349 144.051 1.7735 144.051 1.77351L225.549 41.1174C226.398 41.5274 226.938 42.3869 226.938 43.3297V140.141C226.938 141.084 226.398 141.943 225.549 142.353L144.051 181.697C142.564 182.415 140.831 182.415 139.344 181.697L57.8465 142.353C56.9976 141.943 56.458 141.084 56.458 140.141V43.3297C56.458 42.3869 56.9973 41.5274 57.8464 41.1175Z" fill="white" stroke="#61B3FF"/>
<path d="M56.4496 41.7109C56.1389 42.1841 55.958 42.7411 55.958 43.3294V140.141C55.958 141.275 56.6074 142.31 57.6291 142.803L139.127 182.147C139.939 182.539 140.818 182.735 141.698 182.735V82.8653L56.4496 41.7109Z" fill="#86C5FF"/>
<path d="M226.946 41.7109C227.257 42.1841 227.438 42.7411 227.438 43.3294V140.141C227.438 141.275 226.789 142.31 225.767 142.803L144.269 182.147C143.457 182.539 142.578 182.735 141.698 182.735V82.8653L226.946 41.7109Z" fill="#45A6FF"/>
<path d="M80.3472 134.981C79.9171 134.981 79.478 134.886 79.0654 134.687L66.4828 128.612C65.0105 127.902 64.3955 126.135 65.1057 124.665C65.8131 123.196 67.5858 122.584 69.0525 123.288L81.635 129.363C83.1074 130.074 83.7223 131.841 83.0121 133.31C82.5042 134.366 81.4473 134.981 80.3472 134.981Z" fill="white"/>
<path d="M91.928 127.443C91.4979 127.443 91.0589 127.347 90.6462 127.148L66.4999 115.493C65.0304 114.782 64.4126 113.015 65.1228 111.546C65.8302 110.079 67.6058 109.464 69.0696 110.169L93.2155 121.824C94.685 122.535 95.3028 124.302 94.5926 125.771C94.085 126.827 93.0282 127.443 91.928 127.443Z" fill="white"/>
<path d="M198.058 55.6101L112.51 14.2822L89.959 25.2129L175.699 66.6047L198.058 55.6101Z" fill="#216BF1"/>
<path d="M175.698 66.6046V98.6704C175.698 99.7603 176.838 100.475 177.819 100.002L196.386 91.0385C197.408 90.5451 198.057 89.5107 198.057 88.376V55.6104L175.698 66.6046Z" fill="#1859C4"/>
</g>
<path d="M141.889 108.577C128.778 108.577 118.11 119.245 118.11 132.356C118.11 145.467 128.778 156.135 141.889 156.135C155.001 156.135 165.668 145.467 165.668 132.356C165.668 119.245 155.001 108.577 141.889 108.577ZM141.889 154.153C129.87 154.153 120.092 144.375 120.092 132.356C120.092 120.337 129.87 110.559 141.889 110.559C153.908 110.559 163.687 120.337 163.687 132.356C163.687 144.375 153.908 154.153 141.889 154.153Z" fill="#005EF9" stroke="white" stroke-width="2"/>
<path d="M154.77 131.366H142.88V119.476C142.88 118.929 142.437 118.485 141.89 118.485C141.342 118.485 140.899 118.929 140.899 119.476V131.366H129.009C128.462 131.366 128.019 131.809 128.019 132.356C128.019 132.904 128.462 133.347 129.009 133.347H140.899V145.237C140.899 145.784 141.342 146.227 141.89 146.227C142.437 146.227 142.88 145.784 142.88 145.237V133.347H154.77C155.318 133.347 155.761 132.904 155.761 132.356C155.761 131.809 155.318 131.366 154.77 131.366Z" fill="#005EF9" stroke="white" stroke-width="2"/>
<defs>
<clipPath id="clip0">
<rect width="182" height="182" fill="white" transform="translate(50.6982 0.735352)"/>
</clipPath>
</defs>
</svg>
