<svg width="332" height="248" viewBox="0 0 332 248" fill="none" xmlns="http://www.w3.org/2000/svg">
<g opacity="0.5">
<path d="M117.74 47H73.8563C72.8319 47 72.0015 47.8331 72.0015 48.8607C72.0015 49.8883 72.8319 50.7213 73.8563 50.7213H117.74C118.764 50.7213 119.595 49.8883 119.595 48.8607C119.595 47.8331 118.764 47 117.74 47Z" fill="#9FC5FF"/>
<path d="M153.704 47H131.873C130.849 47 130.018 47.8331 130.018 48.8607C130.018 49.8883 130.849 50.7213 131.873 50.7213H153.704C154.728 50.7213 155.558 49.8883 155.558 48.8607C155.558 47.8331 154.728 47 153.704 47Z" fill="#9FC5FF"/>
<path d="M253.935 62.2203H210.051C209.027 62.2203 208.197 63.0533 208.197 64.081C208.197 65.1086 209.027 65.9416 210.051 65.9416H253.935C254.959 65.9416 255.79 65.1086 255.79 64.081C255.79 63.0533 254.959 62.2203 253.935 62.2203Z" fill="#9FC5FF"/>
<path d="M289.898 62.2203H268.068C267.044 62.2203 266.213 63.0533 266.213 64.081C266.213 65.1086 267.044 65.9416 268.068 65.9416H289.898C290.923 65.9416 291.753 65.1086 291.753 64.081C291.753 63.0533 290.923 62.2203 289.898 62.2203Z" fill="#9FC5FF"/>
<path d="M56.1062 76.4172H12.2227C11.1983 76.4172 10.3679 77.2503 10.3679 78.2779C10.3679 79.3055 11.1983 80.1386 12.2227 80.1386H56.1062C57.1306 80.1386 57.961 79.3055 57.961 78.2779C57.961 77.2503 57.1306 76.4172 56.1062 76.4172Z" fill="#9FC5FF"/>
<path d="M92.0701 76.4172H70.2396C69.2152 76.4172 68.3848 77.2503 68.3848 78.2779C68.3848 79.3055 69.2152 80.1386 70.2396 80.1386H92.0701C93.0944 80.1386 93.9248 79.3055 93.9248 78.2779C93.9248 77.2503 93.0944 76.4172 92.0701 76.4172Z" fill="#9FC5FF"/>
<path d="M63.1174 115.082H1.85476C0.830403 115.082 0 115.915 0 116.943C0 117.97 0.830403 118.803 1.85476 118.803H63.1174C64.1417 118.803 64.9721 117.97 64.9721 116.943C64.9721 115.915 64.1417 115.082 63.1174 115.082Z" fill="#9FC5FF"/>
<path d="M112.231 115.082H81.0712C80.0468 115.082 79.2164 115.915 79.2164 116.943C79.2164 117.97 80.0468 118.803 81.0712 118.803H112.231C113.255 118.803 114.086 117.97 114.086 116.943C114.086 115.915 113.255 115.082 112.231 115.082Z" fill="#9FC5FF"/>
<path d="M254.788 147.644H193.525C192.501 147.644 191.671 148.477 191.671 149.504C191.671 150.532 192.501 151.365 193.525 151.365H254.788C255.812 151.365 256.643 150.532 256.643 149.504C256.643 148.477 255.812 147.644 254.788 147.644Z" fill="#9FC5FF"/>
<path d="M303.902 147.644H272.742C271.717 147.644 270.887 148.477 270.887 149.504C270.887 150.532 271.717 151.365 272.742 151.365H303.902C304.926 151.365 305.756 150.532 305.756 149.504C305.756 148.477 304.926 147.644 303.902 147.644Z" fill="#9FC5FF"/>
<path d="M214.262 121.427H152.999C151.975 121.427 151.144 122.26 151.144 123.287C151.144 124.315 151.975 125.148 152.999 125.148H214.262C215.286 125.148 216.116 124.315 216.116 123.287C216.116 122.26 215.286 121.427 214.262 121.427Z" fill="#9FC5FF"/>
<path d="M263.375 121.427H232.216C231.191 121.427 230.361 122.26 230.361 123.287C230.361 124.315 231.191 125.148 232.216 125.148H263.375C264.4 125.148 265.23 124.315 265.23 123.287C265.23 122.26 264.4 121.427 263.375 121.427Z" fill="#9FC5FF"/>
<path d="M63.1358 145.802H28.897C27.8726 145.802 27.0422 146.635 27.0422 147.662C27.0422 148.69 27.8726 149.523 28.897 149.523H63.1358C64.1601 149.523 64.9905 148.69 64.9905 147.662C64.9905 146.635 64.1601 145.802 63.1358 145.802Z" fill="#9FC5FF"/>
<path d="M50.0598 177.675H28.897C27.8726 177.675 27.0422 178.508 27.0422 179.536C27.0422 180.563 27.8726 181.396 28.897 181.396H50.0598C51.0841 181.396 51.9145 180.563 51.9145 179.536C51.9145 178.508 51.0841 177.675 50.0598 177.675Z" fill="#9FC5FF"/>
<path d="M115.236 177.675H60.873C59.8487 177.675 59.0182 178.508 59.0182 179.536C59.0182 180.563 59.8487 181.396 60.873 181.396H115.236C116.26 181.396 117.091 180.563 117.091 179.536C117.091 178.508 116.26 177.675 115.236 177.675Z" fill="#9FC5FF"/>
<path d="M88.7128 199.128H34.3499C33.3256 199.128 32.4952 199.961 32.4952 200.989C32.4952 202.017 33.3256 202.85 34.3499 202.85H88.7128C89.7372 202.85 90.5676 202.017 90.5676 200.989C90.5676 199.961 89.7372 199.128 88.7128 199.128Z" fill="#9FC5FF"/>
<path d="M175.812 199.128H146.618C145.594 199.128 144.764 199.961 144.764 200.989C144.764 202.017 145.594 202.85 146.618 202.85H175.812C176.837 202.85 177.667 202.017 177.667 200.989C177.667 199.961 176.837 199.128 175.812 199.128Z" fill="#9FC5FF"/>
<path d="M247.628 199.128H185.494C184.47 199.128 183.639 199.961 183.639 200.989C183.639 202.017 184.47 202.85 185.494 202.85H247.628C248.653 202.85 249.483 202.017 249.483 200.989C249.483 199.961 248.653 199.128 247.628 199.128Z" fill="#9FC5FF"/>
<path d="M294.368 188.634H248.908C247.884 188.634 247.054 189.467 247.054 190.495C247.054 191.523 247.884 192.356 248.908 192.356H294.368C295.393 192.356 296.223 191.523 296.223 190.495C296.223 189.467 295.393 188.634 294.368 188.634Z" fill="#9FC5FF"/>
<path d="M294.368 212.19H248.908C247.884 212.19 247.054 213.023 247.054 214.051C247.054 215.079 247.884 215.912 248.908 215.912H294.368C295.393 215.912 296.223 215.079 296.223 214.051C296.223 213.023 295.393 212.19 294.368 212.19Z" fill="#9FC5FF"/>
<path d="M288.934 170.66H226.8C225.775 170.66 224.945 171.493 224.945 172.521C224.945 173.548 225.775 174.382 226.8 174.382H288.934C289.958 174.382 290.789 173.548 290.789 172.521C290.789 171.493 289.958 170.66 288.934 170.66Z" fill="#9FC5FF"/>
<path d="M329.868 170.66H305.423C304.398 170.66 303.568 171.493 303.568 172.521C303.568 173.548 304.398 174.382 305.423 174.382H329.868C330.893 174.382 331.723 173.548 331.723 172.521C331.723 171.493 330.893 170.66 329.868 170.66Z" fill="#9FC5FF"/>
<path d="M97.1705 145.802H81.0712C80.0468 145.802 79.2164 146.635 79.2164 147.662C79.2164 148.69 80.0468 149.523 81.0712 149.523H97.1705C98.1948 149.523 99.0252 148.69 99.0252 147.662C99.0252 146.635 98.1948 145.802 97.1705 145.802Z" fill="#9FC5FF"/>
<path d="M256.012 95.2286H212.129C211.104 95.2286 210.274 96.0616 210.274 97.0892C210.274 98.1169 211.104 98.9499 212.129 98.9499H256.012C257.037 98.9499 257.867 98.1169 257.867 97.0892C257.867 96.0616 257.037 95.2286 256.012 95.2286Z" fill="#9FC5FF"/>
<path d="M315.29 95.2286H270.145C269.121 95.2286 268.291 96.0616 268.291 97.0892C268.291 98.1169 269.121 98.9499 270.145 98.9499H315.29C316.314 98.9499 317.145 98.1169 317.145 97.0892C317.145 96.0616 316.314 95.2286 315.29 95.2286Z" fill="#9FC5FF"/>
</g>
<g opacity="0.9">
<path d="M77 60C77 58.3431 78.3431 57 80 57H251C252.657 57 254 58.3431 254 60V71H77V60Z" fill="#216BF1"/>
<path d="M77.25 71.25H253.75V193C253.75 194.519 252.519 195.75 251 195.75H80C78.4812 195.75 77.25 194.519 77.25 193V71.25Z" fill="white" stroke="#A3C5FF" stroke-width="0.5"/>
<path d="M209.915 143.27H166.057C165.108 143.27 164.339 144.038 164.339 144.985C164.339 145.932 165.108 146.7 166.057 146.7H209.915C210.864 146.7 211.633 145.932 211.633 144.985C211.633 144.038 210.864 143.27 209.915 143.27Z" fill="#8DC7FD"/>
<path d="M209.915 155.722H166.057C165.108 155.722 164.339 156.49 164.339 157.437C164.339 158.384 165.108 159.152 166.057 159.152H209.915C210.864 159.152 211.633 158.384 211.633 157.437C211.633 156.49 210.864 155.722 209.915 155.722Z" fill="#8DC7FD"/>
<path d="M229.51 147.843L225.586 144.426C225.506 144.359 225.44 144.278 225.392 144.186C225.343 144.094 225.313 143.994 225.304 143.891C225.294 143.787 225.305 143.683 225.336 143.584C225.366 143.485 225.416 143.393 225.483 143.313C225.549 143.233 225.631 143.167 225.723 143.119C225.815 143.07 225.915 143.04 226.019 143.031C226.122 143.021 226.227 143.032 226.326 143.063C226.426 143.093 226.518 143.143 226.598 143.21L229.376 145.642L233.337 141.24C233.407 141.167 233.492 141.11 233.585 141.07C233.678 141.031 233.778 141.011 233.879 141.011C233.98 141.011 234.08 141.031 234.174 141.07C234.267 141.11 234.351 141.167 234.421 141.24C234.497 141.307 234.558 141.388 234.602 141.479C234.645 141.569 234.671 141.668 234.677 141.768C234.682 141.869 234.668 141.969 234.635 142.064C234.601 142.159 234.55 142.247 234.482 142.322L229.51 147.843Z" fill="#4DA8F2"/>
<path d="M229.51 161.012L225.586 157.571C225.425 157.437 225.323 157.245 225.304 157.036C225.284 156.827 225.349 156.619 225.483 156.458C225.617 156.297 225.81 156.195 226.019 156.176C226.228 156.157 226.436 156.221 226.598 156.355L229.376 158.787L233.337 154.385C233.402 154.307 233.483 154.243 233.574 154.197C233.665 154.152 233.764 154.125 233.866 154.119C233.968 154.114 234.069 154.129 234.165 154.164C234.26 154.199 234.348 154.254 234.421 154.324C234.497 154.391 234.558 154.472 234.602 154.563C234.645 154.654 234.671 154.752 234.677 154.853C234.682 154.953 234.668 155.054 234.635 155.149C234.601 155.244 234.55 155.331 234.482 155.406L229.51 161.012Z" fill="#4DA8F2"/>
<path d="M209.915 168.953H166.057C165.108 168.953 164.339 169.72 164.339 170.667C164.339 171.614 165.108 172.382 166.057 172.382H209.915C210.864 172.382 211.633 171.614 211.633 170.667C211.633 169.72 210.864 168.953 209.915 168.953Z" fill="#8DC7FD"/>
<path d="M229.51 174.23L225.586 170.825C225.425 170.692 225.323 170.499 225.304 170.291C225.284 170.082 225.349 169.874 225.483 169.713C225.617 169.552 225.81 169.45 226.019 169.431C226.228 169.411 226.436 169.476 226.598 169.609L229.376 172.042L233.337 167.627C233.407 167.555 233.492 167.497 233.585 167.458C233.678 167.419 233.778 167.398 233.879 167.398C233.98 167.398 234.08 167.419 234.174 167.458C234.267 167.497 234.351 167.555 234.421 167.627C234.497 167.694 234.558 167.776 234.602 167.866C234.645 167.957 234.671 168.055 234.677 168.156C234.682 168.256 234.668 168.357 234.635 168.452C234.601 168.547 234.55 168.635 234.482 168.71L229.51 174.23Z" fill="#4DA8F2"/>
<path d="M94.4148 153.874H89.126V173.026H94.4148V153.874Z" fill="#216BF1"/>
<path d="M101.934 151.941H96.6448V173.027H101.934V151.941Z" fill="#216BF1"/>
<path d="M109.55 155.953H104.261V173.026H109.55V155.953Z" fill="#216BF1"/>
<path d="M117.166 148.049H111.877V173.039H117.166V148.049Z" fill="#216BF1"/>
<path d="M125.16 150.53H119.872V173.026H125.16V150.53Z" fill="#216BF1"/>
<path d="M133.264 153.874H127.975V173.026H133.264V153.874Z" fill="#216BF1"/>
<path d="M140.783 151.941H135.494V173.027H140.783V151.941Z" fill="#216BF1"/>
<path d="M148.412 155.953H143.123V173.026H148.412V155.953Z" fill="#216BF1"/>
<g opacity="0.8">
<rect x="160.25" y="82.25" width="73.5" height="49.5" rx="2.75" fill="white" stroke="#005EF9" stroke-width="0.5"/>
<rect x="89" y="82" width="59" height="23" rx="3" fill="#005EF9"/>
<rect x="89.25" y="110.25" width="58.5" height="22.5" rx="2.75" fill="white" stroke="#005EF9" stroke-width="0.5"/>
<rect x="197" y="80" width="74" height="50" rx="3" fill="#005EF9"/>
<path fill-rule="evenodd" clip-rule="evenodd" d="M99.5 99C102.538 99 105 96.5376 105 93.5C105 90.4624 102.538 88 99.5 88C96.4624 88 94 90.4624 94 93.5C94 96.5376 96.4624 99 99.5 99ZM99.5 98C101.985 98 104 95.9853 104 93.5C104 91.0147 101.985 89 99.5 89C97.0147 89 95 91.0147 95 93.5C95 95.9853 97.0147 98 99.5 98Z" fill="white"/>
<mask id="path-47-inside-1" fill="white">
<path fill-rule="evenodd" clip-rule="evenodd" d="M99.5 127C102.538 127 105 124.538 105 121.5C105 118.462 102.538 116 99.5 116C96.4624 116 94 118.462 94 121.5C94 124.538 96.4624 127 99.5 127ZM99.5 126C101.985 126 104 123.985 104 121.5C104 119.015 101.985 117 99.5 117C97.0147 117 95 119.015 95 121.5C95 123.985 97.0147 126 99.5 126Z"/>
</mask>
<path fill-rule="evenodd" clip-rule="evenodd" d="M99.5 127C102.538 127 105 124.538 105 121.5C105 118.462 102.538 116 99.5 116C96.4624 116 94 118.462 94 121.5C94 124.538 96.4624 127 99.5 127ZM99.5 126C101.985 126 104 123.985 104 121.5C104 119.015 101.985 117 99.5 117C97.0147 117 95 119.015 95 121.5C95 123.985 97.0147 126 99.5 126Z" fill="#4884EF"/>
<path d="M104 121.5C104 123.985 101.985 126 99.5 126V128C103.09 128 106 125.09 106 121.5H104ZM99.5 117C101.985 117 104 119.015 104 121.5H106C106 117.91 103.09 115 99.5 115V117ZM95 121.5C95 119.015 97.0147 117 99.5 117V115C95.9101 115 93 117.91 93 121.5H95ZM99.5 126C97.0147 126 95 123.985 95 121.5H93C93 125.09 95.9101 128 99.5 128V126ZM103 121.5C103 123.433 101.433 125 99.5 125V127C102.538 127 105 124.538 105 121.5H103ZM99.5 118C101.433 118 103 119.567 103 121.5H105C105 118.462 102.538 116 99.5 116V118ZM96 121.5C96 119.567 97.567 118 99.5 118V116C96.4624 116 94 118.462 94 121.5H96ZM99.5 125C97.567 125 96 123.433 96 121.5H94C94 124.538 96.4624 127 99.5 127V125Z" fill="#005EF9" mask="url(#path-47-inside-1)"/>
<rect x="203" y="86" width="25" height="21" rx="3" fill="white"/>
<rect x="232" y="86" width="32" height="5" rx="2.5" fill="white"/>
<rect x="232" y="94" width="32" height="5" rx="2.5" fill="white"/>
<rect x="251" y="120" width="13" height="3" rx="1.5" fill="white"/>
</g>
</g>
<rect x="151" width="30" height="30" rx="3" fill="url(#paint0_linear)"/>
<rect x="151" width="30" height="30" rx="3" fill="#EF4F2C"/>
<path d="M171.376 22.5C172.191 22.4795 172.849 21.8578 172.919 21.0899L172.924 20.9977L173.5 10.0368V10.0208C173.5 9.84229 173.347 9.69893 173.158 9.69893H169.459C169.369 7.43011 167.645 5.625 165.53 5.625C163.418 5.625 161.694 7.43011 161.604 9.69601H157.897C157.713 9.69893 157.562 9.84229 157.562 10.0178L157.564 10.0427L158.091 20.9611L158.098 21.0972C158.177 21.8564 158.766 22.4693 159.565 22.4971L171.319 22.4985L171.376 22.5ZM165.53 6.60947C167.072 6.60947 168.328 7.98013 168.385 9.69601H162.679C162.736 7.98013 163.991 6.60947 165.53 6.60947ZM168.467 18.2564C168.36 19.0726 167.834 19.725 167.019 20.0527C166.564 20.2356 165.955 20.3321 165.473 20.3014C164.72 20.2751 164.016 20.1039 163.367 19.7909C163.13 19.6768 162.783 19.45 162.521 19.2452L162.488 19.0799L162.829 18.6089L163.043 18.5899L163.148 18.6645C163.774 19.1238 164.579 19.4691 165.476 19.5012C166.607 19.4866 167.43 19.0127 167.575 18.2769C167.735 17.4635 167.052 16.7672 165.73 16.3796C165.311 16.2567 164.253 15.8588 164.059 15.752C163.139 15.2445 162.71 14.5833 162.772 13.7641C162.865 12.6304 163.985 11.782 165.407 11.7761C166.082 11.7747 166.714 11.9151 167.276 12.1374C167.485 12.2194 167.871 12.4154 168.009 12.5119L168.06 12.7094C168.004 12.7986 167.835 13.0429 167.769 13.1453L167.572 13.1731C166.844 12.7153 166.096 12.5602 165.424 12.547C164.454 12.5646 163.723 13.1058 163.675 13.8475C163.662 14.5189 164.205 15.0046 165.357 15.3761C167.736 16.0929 168.636 16.9355 168.467 18.2564Z" fill="white"/>
<rect x="17" y="34" width="30" height="30" rx="3" fill="url(#paint1_linear)"/>
<path d="M32.0717 57.4373C31.9109 57.4384 31.7527 57.4001 31.6129 57.3263C30.4155 56.6816 21.5476 51.5068 21.2127 51.3488C20.9578 51.2382 20.7838 51.0114 20.7537 50.7511V43.4928C20.7473 43.2218 20.8912 42.9669 21.1347 42.8182L21.1989 42.784C22.0568 42.2887 24.9287 40.6577 25.3828 40.4229C25.4871 40.3654 25.6058 40.3344 25.7269 40.3333C25.8405 40.3344 25.9522 40.3608 26.0526 40.4101C26.0526 40.4101 30.0714 42.8481 30.6862 43.0658C31.1175 43.2502 31.5879 43.3422 32.0625 43.3348C32.6003 43.3453 33.1317 43.2246 33.6039 42.9847C34.2049 42.6901 38.0448 40.4229 38.0861 40.4229C38.1829 40.3685 38.2941 40.3404 38.4072 40.3418C38.5285 40.3423 38.6473 40.3733 38.7513 40.4315C39.2743 40.7004 42.8343 42.7285 42.9857 42.8182C43.2361 42.9588 43.3879 43.2121 43.3848 43.4842V50.7426C43.3567 51.0035 43.1821 51.231 42.9261 51.3403C42.5911 51.5111 33.7507 56.6859 32.5304 57.3178C32.3915 57.3945 32.2332 57.4358 32.0717 57.4373Z" fill="url(#paint2_linear)"/>
<path d="M32.0273 57.4374H32.0732C32.2339 57.4384 32.3921 57.4001 32.532 57.3264C33.7294 56.6816 42.5927 51.5069 42.9276 51.3489C43.1837 51.2395 43.3583 51.0121 43.3864 50.7511V43.4928C43.3878 43.3699 43.358 43.2485 43.2992 43.1384L32.0273 48.8981V57.4374Z" fill="url(#paint3_linear)"/>
<path d="M31.9882 57.3351H31.9428C31.7838 57.3361 31.6272 57.2982 31.4889 57.2253C30.3043 56.5874 21.5354 51.4678 21.204 51.3115C20.9507 51.2033 20.7779 50.9782 20.7501 50.7201V43.5391C20.7487 43.4175 20.7782 43.2974 20.8364 43.1885L31.9882 48.8868V57.3351Z" fill="url(#paint4_linear)"/>
<path d="M26.3439 45.0969C26.7066 45.0985 27.0692 45.0939 27.4319 45.099C27.4324 46.7466 27.4302 48.3937 27.433 50.0408C28.0539 50.0413 28.7036 50.0398 29.3246 50.0413V50.0571C29.3246 50.3816 29.324 50.6967 29.3208 51.0168C28.3279 51.0178 27.3356 51.0178 26.3428 51.0168C26.3428 49.0435 26.3406 47.0702 26.3439 45.0969Z" fill="white"/>
<path d="M30.3598 47.0205C30.8533 46.6071 31.5575 46.4411 32.1877 46.6082C32.5575 46.6991 32.8726 46.9252 33.123 47.1994C33.123 47.0096 33.123 46.8184 33.123 46.6305C33.4501 46.6305 33.7772 46.6295 34.1042 46.631C34.1058 48.0784 34.1053 49.5258 34.1048 50.9737C33.7772 50.9747 33.4496 50.9747 33.1225 50.9737C33.1225 50.7812 33.1188 50.5892 33.1251 50.3978C32.8549 50.7401 32.4433 50.9646 32.0082 51.0351C31.4224 51.1321 30.7996 50.9564 30.3515 50.5776C29.8162 50.1347 29.5293 49.444 29.5445 48.7655C29.5497 48.1079 29.8392 47.4466 30.3598 47.0205ZM31.6619 47.4289C31.3786 47.4685 31.1094 47.6036 30.9164 47.8108C30.3984 48.3689 30.4187 49.3323 30.979 49.8564C31.4527 50.3008 32.2816 50.3033 32.7594 49.8635C33.3379 49.3328 33.351 48.3354 32.8011 47.7808C32.5116 47.4878 32.0698 47.3674 31.6619 47.4289Z" fill="white"/>
<path d="M34.8876 46.6324C36.0556 46.6313 37.224 46.6313 38.392 46.6324C38.3925 46.8923 38.3951 47.1528 38.3905 47.4128C37.6368 48.3356 36.8656 49.2445 36.1175 50.172C36.8861 50.1761 37.6552 50.1746 38.4238 50.1725C38.4704 50.4542 38.4314 50.767 38.4437 51.0606C37.2471 51.0617 36.0505 51.0617 34.8543 51.0606C34.8605 50.7981 34.8364 50.5298 34.8661 50.2714C35.628 49.3558 36.3848 48.4351 37.1467 47.5195C36.3935 47.5174 35.6408 47.5195 34.8876 47.5184C34.8861 47.2227 34.8861 46.9276 34.8876 46.6324Z" fill="white"/>
<path d="M287 149.73C287.491 148.814 288.395 148.002 289.485 148.01C297.631 148.004 305.778 148.021 313.924 148.004C315.485 147.907 316.917 149.397 316.767 150.956C316.745 159.113 316.764 167.267 316.75 175.422C316.753 176.767 315.544 177.99 314.19 177.971C306.052 177.985 297.914 177.957 289.779 177.982C288.587 178.129 287.53 177.355 287 176.34V149.73ZM292.422 156.694C292.406 160.963 292.336 165.24 292.464 169.506C294.436 169.461 296.411 169.503 298.383 169.484C299.612 169.489 300.918 169.17 301.8 168.263C303.439 166.693 303.312 163.806 301.584 162.344C302.613 160.93 302.699 158.694 301.284 157.501C299.778 156.248 297.684 156.631 295.876 156.567C294.733 156.644 293.529 156.392 292.422 156.694ZM303.434 156.772C303.445 160.988 303.359 165.215 303.478 169.425C306.027 169.564 308.59 169.445 311.145 169.481C311.192 168.629 311.194 167.778 311.194 166.926C309.675 166.932 308.152 166.926 306.632 166.935C306.637 163.737 306.624 160.536 306.643 157.338C306.676 157.024 306.66 156.47 306.183 156.57C305.292 156.661 304.199 156.298 303.434 156.772Z" fill="#D8124A"/>
<path d="M295.623 159.207C296.647 159.127 297.695 159.03 298.713 159.216C299.828 159.598 299.781 161.409 298.613 161.681C297.676 161.726 296.641 161.881 295.751 161.617C295.457 160.902 295.701 159.992 295.623 159.207Z" fill="#D8124A"/>
<path d="M295.593 164.444C296.647 164.283 297.751 164.216 298.796 164.427C299.853 164.857 299.726 166.566 298.647 166.865C297.645 167.015 296.625 166.94 295.621 166.854C295.632 166.05 295.629 165.248 295.593 164.444Z" fill="#D8124A"/>
<path d="M292.422 156.694C293.529 156.392 294.733 156.645 295.876 156.567C297.684 156.631 299.778 156.248 301.284 157.502C302.699 158.694 302.613 160.93 301.584 162.344C303.312 163.806 303.439 166.693 301.8 168.263C300.918 169.17 299.612 169.489 298.383 169.484C296.411 169.503 294.436 169.462 292.464 169.506C292.336 165.24 292.406 160.963 292.422 156.694ZM295.623 159.207C295.701 159.992 295.457 160.902 295.751 161.618C296.641 161.881 297.676 161.726 298.613 161.681C299.781 161.41 299.828 159.598 298.713 159.216C297.695 159.03 296.647 159.127 295.623 159.207ZM295.593 164.444C295.629 165.248 295.632 166.05 295.62 166.854C296.625 166.94 297.645 167.015 298.646 166.865C299.725 166.566 299.853 164.857 298.796 164.427C297.751 164.217 296.647 164.283 295.593 164.444Z" fill="#FEFCFD"/>
<path d="M303.434 156.772C304.2 156.298 305.292 156.661 306.183 156.569C306.66 156.47 306.676 157.024 306.643 157.338C306.624 160.536 306.638 163.737 306.632 166.935C308.152 166.926 309.675 166.932 311.195 166.926C311.195 167.778 311.192 168.629 311.145 169.481C308.59 169.445 306.027 169.564 303.478 169.425C303.359 165.215 303.445 160.988 303.434 156.772Z" fill="#FEFCFD"/>
<rect x="285" y="32" width="30" height="30" rx="3" fill="#F0F0F0"/>
<rect x="285" y="32" width="30" height="30" rx="3" fill="#F0F0F0"/>
<path d="M299.693 34.4969C299.774 34.2065 300.063 33.9752 300.373 34.0378C300.584 34.0399 300.727 34.2127 300.842 34.3682C301.05 34.2319 301.264 34.0509 301.533 34.0895C301.518 34.457 301.394 34.828 301.203 35.1391C301.098 35.1996 300.99 35.2526 300.882 35.305C300.698 35.2361 300.507 35.1501 300.306 35.1783C300.122 35.1948 299.979 35.3222 299.833 35.422C299.725 35.3841 299.618 35.3456 299.511 35.307C299.277 35.0255 298.977 34.722 298.972 34.3345C299.226 34.3021 299.461 34.4109 299.693 34.4969Z" fill="#94C13D"/>
<path d="M300.447 36.5294C300.694 36.5425 300.859 36.3347 301.021 36.1805C301.491 36.323 301.956 36.4778 302.425 36.6203C302.582 36.6753 302.751 36.7573 302.821 36.919C302.874 37.1523 302.879 37.3932 302.9 37.6314C302.624 37.9012 302.728 38.3375 303.031 38.5392C303.035 38.6163 303.039 38.6934 303.043 38.7711C302.692 38.6562 302.329 38.5846 301.97 38.5027C301.813 38.5385 301.625 38.6011 301.57 38.7705C301.35 39.4436 301.254 40.1511 301.009 40.816C300.925 40.4368 300.818 40.0623 300.757 39.6776C300.723 39.4567 300.629 39.1869 300.377 39.1414C300.142 39.1167 299.911 39.1896 299.684 39.2405C299.286 39.3438 298.877 39.4057 298.478 39.5062C298.467 39.3906 298.455 39.2743 298.444 39.1586C298.667 38.9363 298.913 38.67 298.915 38.3355C298.921 37.9597 298.557 37.7043 298.226 37.6252C298.178 37.3664 298.374 37.1778 298.575 37.0532C299 36.793 299.431 36.5425 299.873 36.3113C300.047 36.4207 300.228 36.5563 300.447 36.5294Z" fill="#94C13D"/>
<path d="M301.203 35.139C301.558 34.9381 301.919 34.7474 302.269 34.5375C302.348 34.8857 302.468 35.2271 302.489 35.5857C302.513 35.936 302.506 36.2878 302.481 36.6381L302.425 36.6202C301.956 36.4777 301.491 36.3229 301.021 36.1804C300.859 36.3346 300.694 36.5424 300.446 36.5293C300.228 36.5562 300.047 36.4206 299.873 36.3112C299.431 36.5424 299 36.7929 298.574 37.0531C298.274 36.3986 298.233 35.6635 298.345 34.9594C298.742 35.0468 299.119 35.2037 299.511 35.307C299.618 35.3455 299.725 35.3841 299.832 35.4219C299.978 35.3221 300.122 35.1948 300.306 35.1783C300.507 35.15 300.698 35.2361 300.881 35.3049C300.99 35.2526 301.098 35.1996 301.203 35.139Z" fill="#17A84B"/>
<path d="M307.753 43.2366C308.073 43.2057 308.483 43.1437 308.689 43.4569C308.896 43.6902 308.745 44.0027 308.702 44.2663C308.468 45.5128 308.309 46.775 308.236 48.0415C308.154 48.9335 308.115 49.8289 308.117 50.7237C308.077 52.4974 308.19 54.2683 308.335 56.0344C308.488 57.4653 308.676 58.8942 308.992 60.2996C309.056 60.6493 308.724 61.0065 308.368 60.97C303.043 60.9686 297.716 60.9686 292.39 60.97C292.16 60.959 291.887 61.0223 291.707 60.8372C291.467 60.6713 291.493 60.3437 291.556 60.0938C292.353 56.2058 292.558 52.211 292.33 48.2521C292.279 47.2162 292.151 46.1859 291.994 45.161C291.962 44.9036 291.88 44.618 292.03 44.3812C292.164 44.2023 292.395 44.1183 292.613 44.1107C293.826 44.0529 295.039 43.9986 296.249 43.9043C298.888 43.7824 301.522 43.5663 304.16 43.4472C305.357 43.3516 306.556 43.302 307.753 43.2366ZM296.146 46.4481C295.737 46.6147 295.675 47.2555 296.055 47.484C296.362 47.7228 296.871 47.5342 296.947 47.1536C297.111 46.7124 296.57 46.2114 296.146 46.4481ZM303.568 46.4213C303.18 46.603 303.107 47.1949 303.471 47.4406C303.787 47.7063 304.351 47.495 304.394 47.0786C304.516 46.6284 303.979 46.1948 303.568 46.4213ZM296.131 48.7648C295.953 48.8502 295.826 49.025 295.805 49.2219C295.728 50.9832 296.891 52.7059 298.543 53.313C299.546 53.7218 300.708 53.7135 301.707 53.2964C303.335 52.677 304.483 50.9673 304.403 49.2212C304.377 48.7538 303.721 48.5425 303.413 48.8805C303.123 49.1537 303.281 49.5846 303.162 49.926C302.952 51.0678 302.035 52.019 300.921 52.317C300.149 52.5111 299.292 52.4409 298.599 52.0314C297.647 51.5324 297.016 50.4972 296.984 49.4256C296.982 49.2143 296.935 48.9775 296.757 48.8426C296.589 48.6933 296.333 48.6898 296.131 48.7648Z" fill="#1F8ACB"/>
<path d="M297.305 37.8123C297.551 37.5886 297.912 37.5467 298.226 37.6251C298.557 37.7043 298.921 37.9596 298.914 38.3354C298.913 38.6699 298.667 38.9363 298.444 39.1586C298.209 39.352 297.958 39.5241 297.709 39.6982C297.694 39.7065 297.665 39.7244 297.649 39.7333C297.964 40.9268 298.176 42.1436 298.471 43.3419C297.57 43.4087 296.67 43.4761 295.768 43.5078C295.658 43.5064 295.549 43.503 295.439 43.4995C295.253 42.4644 294.975 41.4478 294.77 40.4168C294.697 40.4071 294.624 40.3975 294.552 40.3885C294.094 40.3087 293.612 40.2502 293.209 40.0011C292.946 39.8379 292.803 39.5055 292.923 39.2082C293.061 38.9349 293.263 38.6527 293.571 38.5605C294.006 38.396 294.49 38.5866 294.841 38.8537C295.194 39.085 295.486 39.394 295.757 39.7161C295.925 39.5255 296.18 39.4828 296.418 39.5557C296.559 38.9191 296.793 38.246 297.305 37.8123ZM297.676 38.2721C297.338 38.5488 297.179 38.9824 297.066 39.3926C297.515 39.1152 298.033 38.8737 298.312 38.4049C298.234 38.1709 297.861 38.1021 297.676 38.2721ZM293.497 39.3706C293.461 39.555 293.656 39.6335 293.796 39.6789C294.226 39.798 294.676 39.8015 295.117 39.8476C294.786 39.5633 294.485 39.1889 294.035 39.1015C293.825 39.0402 293.558 39.151 293.497 39.3706Z" fill="#E41E26"/>
<path d="M299.684 39.2405C299.911 39.1895 300.142 39.1166 300.377 39.1413C300.629 39.1868 300.722 39.4566 300.757 39.6775C300.817 40.0623 300.925 40.4367 301.009 40.8159C301.161 41.604 301.363 42.3831 301.524 43.1705C300.507 43.2435 299.488 43.2896 298.47 43.3419C298.176 42.1436 297.964 40.9267 297.649 39.7333C297.664 39.7243 297.694 39.7064 297.709 39.6982C297.962 39.6231 298.22 39.5626 298.478 39.5061C298.877 39.4056 299.285 39.3437 299.684 39.2405Z" fill="#F3931F"/>
<path d="M292.25 40.884C293.015 40.7085 293.781 40.5378 294.552 40.3885C294.624 40.3974 294.697 40.4071 294.77 40.4167C294.975 41.4477 295.253 42.4643 295.439 43.4995C295.549 43.5029 295.658 43.5064 295.768 43.5077C294.62 43.5504 293.476 43.6612 292.328 43.7018C292.222 43.1313 292.056 42.5738 291.953 42.0025C291.914 41.7409 291.794 41.487 291.824 41.2179C291.891 41.0368 292.061 40.9116 292.25 40.884Z" fill="#F3931F"/>
<rect x="219" y="218" width="30" height="30" rx="3" fill="#CA2430"/>
<rect x="219" y="218" width="30" height="30" rx="3" fill="#CA2430"/>
<path d="M235.463 222.08C235.767 221.797 235.579 221.204 236.026 221.043C236.203 220.921 236.372 221.084 236.47 221.226C236.747 221.629 236.843 222.122 236.975 222.587C238.009 222.591 239.062 222.632 240.055 222.951C240.438 223.088 240.833 223.256 241.114 223.563C241.261 223.736 241.364 224.021 241.208 224.222C240.96 224.436 240.61 224.436 240.302 224.411C240.502 224.312 240.704 224.219 240.906 224.125C240.76 223.936 240.531 223.796 240.301 223.934C239.493 224.311 239.022 225.138 238.638 225.909C240.149 226.781 241.463 228.015 242.359 229.527C242.924 230.546 243.3 231.734 243.136 232.912C242.98 234.061 242.295 235.151 241.272 235.7C240.581 236.074 239.763 236.09 239.004 235.98C238.101 235.814 237.243 235.462 236.43 235.038C236.706 235.706 237.093 236.341 237.171 237.076C237.312 238.22 237.174 239.436 236.626 240.462C236.955 240.878 237.504 241.16 237.627 241.71C237.68 242.319 237.146 242.712 236.83 243.158C236.534 243.496 236.375 243.934 236.077 244.268C235.827 244.457 235.541 244.169 235.558 243.905C235.572 243.528 235.587 243.148 235.642 242.776C235.744 242.499 235.914 242.253 236.04 241.986C235.988 241.993 235.885 242.006 235.833 242.013C235.518 242.632 235.344 243.319 235.254 244.007C235.179 244.55 235.247 245.106 235.129 245.645C235.045 245.949 234.635 246.035 234.399 245.854C234.071 245.635 234.017 245.208 233.943 244.851C233.813 243.868 233.564 242.872 233.796 241.883C233.186 241.829 232.616 241.6 232.037 241.418C231.954 241.608 231.857 241.803 231.867 242.019C231.848 242.719 231.915 243.418 232.029 244.108C232.039 244.298 232.12 244.556 231.943 244.696C231.589 244.82 231.239 244.642 230.957 244.437C231.005 244.825 231.108 245.203 231.173 245.587C231.195 245.748 231.114 245.966 230.929 245.981C230.536 246.066 230.052 245.861 229.966 245.434C229.808 244.764 229.428 244.165 229.336 243.476C229.271 242.983 229.199 242.436 229.505 242.006C229.192 241.086 228.651 240.248 228.47 239.287C228.192 239.674 227.856 240.051 227.395 240.21C226.923 240.407 226.279 240.372 225.957 239.925C225.738 239.547 225.741 239.094 225.699 238.671C225.816 238.976 225.892 239.313 226.107 239.569C226.309 239.668 226.535 239.52 226.605 239.323C226.78 238.856 226.84 238.316 226.657 237.843C226.512 237.435 226.346 237.015 226.393 236.573C226.446 235.907 227.018 235.404 227.606 235.188C228.26 234.952 228.929 235.38 229.33 235.879C229.571 236.143 229.537 236.52 229.567 236.852C230.197 236.613 230.822 236.934 231.456 236.951C232.065 236.989 232.745 236.899 233.196 236.443C233.458 236.167 233.687 235.815 233.678 235.418C233.68 234.545 233.473 233.679 233.134 232.879C232.815 233.187 232.562 233.675 232.07 233.705C231.791 233.717 231.639 233.456 231.492 233.262C231.683 233.293 231.875 233.392 232.071 233.352C232.197 233.242 232.268 233.08 232.263 232.914C232.242 231.353 231.489 229.889 230.443 228.772C230.472 227.765 230.91 226.84 231.301 225.935C231.631 225.226 231.946 224.477 232.523 223.931C233.076 223.373 233.806 223.031 234.555 222.834C234.975 222.767 235.19 222.36 235.463 222.08ZM235.591 222.219C234.955 222.87 234.398 223.628 234.122 224.509C233.919 225.102 233.864 225.733 233.752 226.347C233.711 226.373 233.627 226.424 233.585 226.45C233.607 226.183 233.642 225.919 233.67 225.655C233.005 226.12 232.62 226.874 232.356 227.624C232.131 228.34 231.975 229.118 232.154 229.861C232.417 230.707 232.845 231.49 233.142 232.324C233.45 233.181 233.815 234.046 233.816 234.974C234.573 235.328 235.434 235.259 236.222 235.057C235.945 234.736 235.632 234.447 235.317 234.166C235.951 234.534 236.577 234.917 237.239 235.234C236.836 234.543 236.886 233.656 237.328 232.996C237.277 232.942 237.176 232.832 237.125 232.777C237.32 232.874 237.514 232.973 237.705 233.079C237.59 233.058 237.474 233.037 237.36 233.016C237.099 233.492 236.935 234.061 237.118 234.595C237.268 234.96 237.478 235.38 237.89 235.486C238.746 235.783 239.686 236.003 240.583 235.757C241.898 235.428 242.823 234.134 242.96 232.808C243.117 231.327 242.491 229.869 241.597 228.726C241 227.977 240.333 227.27 239.546 226.722C238.733 226.161 237.885 225.63 236.938 225.339C236.874 225.659 236.813 225.978 236.739 226.297C236.693 226.28 236.603 226.248 236.559 226.232C236.705 225.671 236.798 225.099 236.845 224.522C236.915 223.383 236.876 222.134 236.212 221.161C235.701 221.304 235.962 221.951 235.591 222.219ZM236.999 222.759C237.055 223.555 237.077 224.362 236.964 225.155C237.49 225.327 238.002 225.542 238.485 225.817C238.896 224.968 239.444 224.039 240.375 223.714C240.733 223.581 240.948 223.907 241.122 224.157C241.149 223.661 240.681 223.407 240.294 223.241C239.252 222.815 238.107 222.788 236.999 222.759ZM234.68 222.974C233.991 223.187 233.292 223.454 232.759 223.962C232.139 224.496 231.812 225.267 231.475 225.995C231.107 226.865 230.669 227.747 230.632 228.711C231.689 229.843 232.407 231.329 232.454 232.9C232.441 233.117 232.331 233.313 232.263 233.516C232.581 233.292 232.764 232.926 233.093 232.716C232.934 232.287 232.773 231.861 232.588 231.444C232.235 230.609 231.76 229.748 231.908 228.805C232.085 227.531 232.567 226.136 233.699 225.424C233.86 224.548 234.187 223.713 234.68 222.974ZM233.795 235.13C233.791 235.427 233.744 235.719 233.659 236.004C234.614 236.401 235.761 236.638 236.714 236.105C236.712 235.734 236.491 235.419 236.272 235.141C235.486 235.468 234.583 235.444 233.795 235.13ZM227.652 235.374C227.22 235.539 226.82 235.864 226.641 236.302C226.454 236.792 226.662 237.303 226.833 237.764C227.061 238.31 226.974 238.941 226.745 239.471C226.627 239.744 226.322 239.798 226.06 239.815C226.658 240.412 227.645 240.072 228.095 239.459C228.605 238.852 228.639 237.978 228.383 237.253C228.143 237.245 227.92 237.318 227.75 237.492L227.764 237.336C227.692 237.347 227.55 237.369 227.48 237.38C227.797 237.253 228.109 237.102 228.445 237.029C228.705 236.98 228.89 237.205 229.077 237.344C229.183 237.231 229.289 237.119 229.396 237.008C229.342 236.655 229.425 236.236 229.152 235.958C228.793 235.536 228.218 235.166 227.652 235.374ZM233.65 236.152C233.438 236.495 233.149 236.799 232.77 236.949C232.014 237.254 231.178 237.137 230.405 236.974C230.061 236.881 229.666 236.974 229.422 237.243C228.69 237.93 228.449 239.1 228.864 240.02C229.135 240.615 229.386 241.22 229.636 241.825C229.777 242.157 229.392 242.418 229.453 242.754C229.414 243.642 229.839 244.432 230.115 245.245C230.362 245.202 230.608 245.156 230.853 245.108C230.786 244.398 230.744 243.684 230.774 242.971C230.786 242.61 231.223 242.443 231.219 242.07C231.254 241.494 231.346 240.916 231.644 240.413C231.615 240.649 231.582 240.884 231.555 241.121C232.342 241.257 233.067 241.65 233.87 241.701C233.972 241.444 234.079 241.188 234.196 240.939C234.177 241.628 233.816 242.26 233.881 242.961C233.953 243.707 234.044 244.456 234.207 245.189C234.474 245.093 234.745 245.008 235.014 244.922C235.032 244.043 235.15 243.156 235.488 242.341C235.708 241.832 235.854 241.298 236.005 240.768C236.325 240.763 236.424 240.398 236.566 240.17C237.123 238.958 237.174 237.522 236.791 236.25C235.789 236.712 234.64 236.571 233.65 236.152ZM228.605 237.213C228.639 237.426 228.676 237.641 228.71 237.855C228.794 237.742 228.879 237.629 228.964 237.518C228.845 237.417 228.724 237.314 228.605 237.213ZM236.098 241.15C236.011 241.35 235.971 241.566 235.913 241.777C236.04 241.833 236.168 241.891 236.296 241.95C236.138 242.253 235.935 242.534 235.811 242.855C235.774 243.141 235.795 243.43 235.794 243.718C235.877 243.72 236.043 243.726 236.126 243.729C236.5 243.393 236.72 242.917 237.072 242.555C237.338 242.289 237.548 241.871 237.357 241.503C237.112 241.191 236.804 240.938 236.534 240.65C236.39 240.817 236.23 240.972 236.098 241.15ZM231.343 242.345C231.272 242.622 230.931 242.761 230.948 243.07C230.925 243.387 230.958 243.707 231.029 244.017C231.287 243.963 231.544 243.902 231.8 243.838C231.702 243.199 231.645 242.552 231.674 241.906C231.679 241.718 231.774 241.553 231.844 241.384C231.756 241.364 231.578 241.324 231.49 241.304C231.448 241.651 231.447 242.008 231.343 242.345Z" fill="#3D3D3D"/>
<path d="M236.301 222.213C236.547 222.36 236.587 222.662 236.621 222.921C236.51 222.757 236.415 222.586 236.335 222.406C236.329 223.069 236.411 223.734 236.361 224.397C236.253 225.203 235.987 225.976 235.722 226.742C235.643 226.943 235.598 227.18 235.408 227.311C235.718 226.317 236.13 225.342 236.256 224.299C236.302 223.604 236.142 222.902 236.301 222.213Z" fill="#3D3D3D"/>
<path d="M235.965 227.871C236.705 227.587 237.616 228.154 237.59 228.871C237.635 229.52 236.912 230.079 236.202 229.966C235.511 229.891 235.013 229.216 235.207 228.616C235.306 228.277 235.597 227.991 235.965 227.871ZM236.802 228.012C236.558 228.119 236.736 228.504 236.997 228.386C237.318 228.307 237.076 227.862 236.802 228.012ZM235.964 229.026C235.629 229.157 235.545 229.601 235.839 229.81C236.151 230.086 236.746 229.851 236.719 229.457C236.737 229.119 236.297 228.873 235.964 229.026Z" fill="#3D3D3D"/>
<path d="M233.838 235.078C234.59 235.374 235.451 235.396 236.2 235.088C236.409 235.35 236.619 235.648 236.621 235.999C235.713 236.503 234.619 236.279 233.709 235.904C233.79 235.634 233.834 235.358 233.838 235.078Z" fill="#CA2430"/>
<path d="M228.612 237.262C228.692 237.338 228.774 237.416 228.854 237.493C228.797 237.577 228.739 237.662 228.682 237.748C228.659 237.585 228.635 237.423 228.612 237.262Z" fill="#CA2430"/>
<path d="M235.529 222.291C235.901 222.025 235.639 221.385 236.151 221.243C236.816 222.207 236.856 223.444 236.785 224.572C236.738 225.144 236.645 225.71 236.498 226.265C236.543 226.282 236.633 226.313 236.679 226.33C236.753 226.014 236.814 225.698 236.878 225.381C237.826 225.67 238.676 226.196 239.489 226.751C240.277 227.294 240.945 227.994 241.543 228.736C242.438 229.868 243.066 231.313 242.908 232.779C242.771 234.093 241.844 235.375 240.528 235.701C239.629 235.944 238.688 235.727 237.832 235.432C237.418 235.327 237.209 234.911 237.058 234.55C236.875 234.02 237.039 233.457 237.301 232.986C237.415 233.007 237.531 233.027 237.646 233.048C237.455 232.943 237.261 232.845 237.065 232.749C237.116 232.803 237.218 232.912 237.269 232.966C236.826 233.62 236.776 234.498 237.18 235.183C236.517 234.868 235.89 234.49 235.255 234.124C235.571 234.403 235.883 234.689 236.161 235.007C235.373 235.208 234.51 235.276 233.753 234.925C233.751 234.006 233.386 233.149 233.078 232.3C232.779 231.474 232.352 230.699 232.088 229.86C231.908 229.124 232.065 228.353 232.29 227.645C232.554 226.902 232.94 226.154 233.606 225.695C233.578 225.956 233.543 226.218 233.521 226.481C233.562 226.456 233.647 226.405 233.688 226.38C233.8 225.771 233.855 225.147 234.059 224.559C234.335 223.687 234.893 222.935 235.529 222.291ZM236.319 222.146C236.157 222.844 236.32 223.557 236.273 224.263C236.145 225.321 235.728 226.31 235.413 227.319C235.606 227.186 235.652 226.946 235.732 226.742C236 225.964 236.27 225.18 236.379 224.362C236.43 223.689 236.347 223.014 236.353 222.341C236.434 222.523 236.529 222.698 236.643 222.864C236.608 222.601 236.568 222.294 236.319 222.146ZM235.9 227.763C235.549 227.89 235.272 228.195 235.177 228.556C234.992 229.194 235.467 229.912 236.125 229.992C236.803 230.112 237.492 229.518 237.45 228.827C237.474 228.064 236.605 227.461 235.9 227.763Z" fill="white"/>
<path d="M236.901 222.942C238.065 222.97 239.267 222.996 240.362 223.401C240.769 223.559 241.26 223.801 241.232 224.274C241.049 224.035 240.823 223.725 240.447 223.852C239.469 224.161 238.894 225.046 238.461 225.854C237.955 225.593 237.416 225.388 236.864 225.224C236.983 224.468 236.96 223.7 236.901 222.942Z" fill="white"/>
<path d="M234.679 223.184C234.176 223.916 233.843 224.742 233.68 225.61C232.525 226.315 232.034 227.696 231.854 228.957C231.703 229.89 232.187 230.743 232.547 231.57C232.736 231.983 232.9 232.405 233.061 232.829C232.726 233.037 232.54 233.399 232.216 233.621C232.285 233.42 232.397 233.226 232.41 233.011C232.363 231.456 231.631 229.985 230.553 228.865C230.591 227.909 231.037 227.037 231.412 226.175C231.756 225.454 232.09 224.691 232.721 224.163C233.264 223.66 233.977 223.395 234.679 223.184Z" fill="white"/>
<path d="M236.742 227.831C237.03 227.66 237.283 228.166 236.946 228.256C236.674 228.391 236.487 227.952 236.742 227.831Z" fill="white"/>
<path d="M235.93 229.057C236.235 228.901 236.637 229.153 236.62 229.497C236.645 229.9 236.101 230.14 235.815 229.858C235.546 229.645 235.623 229.192 235.93 229.057Z" fill="white"/>
<path d="M227.563 235.38C228.14 235.171 228.725 235.544 229.09 235.97C229.369 236.25 229.285 236.673 229.34 237.029C229.231 237.141 229.122 237.254 229.014 237.368C228.824 237.228 228.635 237 228.371 237.05C228.029 237.124 227.711 237.276 227.388 237.404C227.46 237.394 227.604 237.371 227.677 237.36L227.663 237.517C227.837 237.342 228.064 237.268 228.308 237.276C228.569 238.008 228.534 238.889 228.014 239.502C227.556 240.12 226.551 240.463 225.942 239.86C226.209 239.843 226.519 239.789 226.64 239.514C226.872 238.979 226.961 238.343 226.729 237.792C226.555 237.327 226.343 236.811 226.533 236.317C226.716 235.875 227.124 235.547 227.563 235.38Z" fill="white"/>
<path d="M233.67 236.049C234.674 236.462 235.84 236.602 236.856 236.146C237.244 237.402 237.192 238.82 236.628 240.017C236.483 240.242 236.384 240.602 236.058 240.608C235.906 241.131 235.758 241.659 235.535 242.161C235.192 242.966 235.072 243.842 235.054 244.71C234.781 244.795 234.506 244.879 234.236 244.974C234.07 244.25 233.978 243.51 233.904 242.773C233.839 242.081 234.205 241.457 234.224 240.776C234.105 241.023 233.997 241.275 233.894 241.53C233.079 241.479 232.344 241.091 231.545 240.956C231.573 240.723 231.606 240.49 231.636 240.257C231.334 240.754 231.24 241.325 231.204 241.894C231.209 242.262 230.766 242.427 230.753 242.784C230.723 243.487 230.766 244.193 230.834 244.895C230.585 244.941 230.336 244.987 230.085 245.029C229.806 244.226 229.374 243.446 229.414 242.57C229.352 242.237 229.742 241.98 229.599 241.652C229.346 241.054 229.091 240.457 228.817 239.869C228.396 238.96 228.64 237.805 229.383 237.126C229.63 236.861 230.031 236.769 230.38 236.861C231.163 237.021 232.011 237.137 232.778 236.836C233.162 236.688 233.455 236.387 233.67 236.049Z" fill="white"/>
<path d="M236.168 241.134C236.284 240.965 236.426 240.819 236.554 240.66C236.794 240.933 237.067 241.173 237.284 241.468C237.454 241.816 237.267 242.211 237.031 242.463C236.72 242.805 236.524 243.256 236.192 243.573C236.119 243.57 235.972 243.565 235.898 243.563C235.899 243.29 235.88 243.017 235.913 242.746C236.023 242.443 236.203 242.176 236.343 241.89C236.229 241.835 236.116 241.78 236.003 241.727C236.054 241.527 236.09 241.323 236.168 241.134Z" fill="white"/>
<path d="M231.363 242.17C231.447 241.839 231.447 241.487 231.482 241.146C231.553 241.165 231.696 241.204 231.767 241.224C231.711 241.39 231.634 241.553 231.63 241.738C231.606 242.374 231.652 243.01 231.732 243.639C231.525 243.702 231.318 243.763 231.11 243.815C231.053 243.51 231.026 243.196 231.044 242.883C231.031 242.579 231.306 242.443 231.363 242.17Z" fill="white"/>
<rect x="82" y="218" width="30" height="30" rx="3" fill="#F0F0F0"/>
<rect x="82" y="218" width="30" height="30" rx="3" fill="#F0F0F0"/>
<path d="M96.9276 220.984H97.704C98.8402 221.088 99.9511 221.522 100.807 222.284C101.788 223.117 102.389 224.324 102.592 225.585C104.394 225.581 106.195 225.585 107.996 225.582C107.994 229.318 107.996 233.053 107.996 236.788C107.988 237.805 108.063 238.84 107.799 239.834C107.225 242.23 105.264 244.224 102.879 244.841C101.848 245.139 100.767 245.068 99.7082 245.072C95.3534 245.072 90.9999 245.073 86.6451 245.072C86.6505 238.575 86.6478 232.079 86.6465 225.583C88.4502 225.585 90.254 225.581 92.0578 225.585C92.2171 224.73 92.4998 223.886 93.0241 223.182C93.9173 221.916 95.3893 221.114 96.9276 220.984ZM95.6136 222.716C94.4642 223.259 93.6492 224.385 93.4196 225.627C94.7774 225.733 96.11 226.106 97.3284 226.718C98.5429 226.102 99.8755 225.736 101.232 225.626C101.055 224.772 100.649 223.955 99.9923 223.369C98.8482 222.28 97.0258 222.018 95.6136 222.716ZM87.407 226.342C87.4004 232.334 87.407 238.324 87.403 244.315C87.9459 244.315 88.4901 244.315 89.0329 244.316C91.7923 244.326 94.5518 244.315 97.3112 244.32C98.6026 244.32 99.8927 244.322 101.183 244.322C102.594 244.332 103.974 243.784 105.06 242.895C106.436 241.71 107.292 239.931 107.251 238.103C107.251 234.183 107.259 230.263 107.247 226.344C105.531 226.33 103.816 226.341 102.101 226.337C100.434 226.333 98.7752 226.763 97.3151 227.565C95.8684 226.749 94.2067 226.338 92.5489 226.337C90.834 226.34 89.1205 226.333 87.407 226.342Z" fill="#414141"/>
<path d="M91.0078 229.008C92.3656 228.519 93.9344 228.652 95.1861 229.374C96.0953 229.878 96.7987 230.689 97.2739 231.605C97.2832 231.645 97.3018 231.723 97.311 231.763C97.7809 230.777 98.5056 229.898 99.4719 229.369C100.753 228.635 102.363 228.515 103.74 229.043C105.007 229.517 106.058 230.529 106.581 231.775C107.133 233.064 107.109 234.589 106.508 235.858C105.993 236.967 105.057 237.871 103.932 238.348C103.093 238.727 102.154 238.784 101.246 238.739C100.802 238.618 100.361 238.488 99.9231 238.346C99.0285 239.204 98.1618 240.088 97.2898 240.966C96.4125 240.11 95.5564 239.234 94.683 238.374C94.2397 238.508 93.7924 238.63 93.3438 238.743C92.5156 238.776 91.6648 238.733 90.8883 238.418C89.6593 237.95 88.6346 236.974 88.1024 235.771C87.525 234.492 87.5316 232.964 88.1077 231.685C88.6585 230.449 89.7309 229.456 91.0078 229.008ZM91.686 229.586C90.8631 229.785 90.1039 230.234 89.5358 230.863C88.1369 232.33 88.0506 234.817 89.3421 236.381C90.5446 237.952 92.8859 238.474 94.6352 237.541C96.4695 236.653 97.4398 234.35 96.7669 232.42C96.1417 230.344 93.7845 229.022 91.686 229.586ZM100.974 229.578C100.181 229.76 99.4493 230.182 98.8812 230.762C97.4703 232.165 97.2752 234.577 98.4499 236.186C99.5741 237.85 101.937 238.488 103.746 237.611C105.628 236.783 106.682 234.495 106.055 232.529C105.482 230.408 103.102 229.026 100.974 229.578ZM96.7961 236.662C97.1345 236.638 97.473 236.62 97.8128 236.613C97.6309 236.33 97.4663 236.038 97.3164 235.738C97.1531 236.053 96.9792 236.361 96.7961 236.662ZM95.3347 238.114C95.936 238.847 96.6647 239.471 97.331 240.148L97.3256 240.094C98.0158 239.464 98.6596 238.787 99.3192 238.125C98.7764 237.571 98.0596 237.19 97.2712 237.184C96.5505 237.285 95.8179 237.543 95.3347 238.114Z" fill="#414141"/>
<path d="M93.0228 230.999C93.8815 231.03 94.7575 231.353 95.2871 232.058C96.0383 232.967 96.0662 234.378 95.3588 235.319C94.7429 236.192 93.5789 236.624 92.5436 236.362C91.3517 236.106 90.4279 234.947 90.4677 233.725C90.4465 233.254 90.6164 232.808 90.7929 232.38C91.0146 232.765 91.3159 233.154 91.7764 233.25C92.5529 233.462 93.3984 232.801 93.3971 232.001C93.4276 231.625 93.1966 231.308 93.0228 230.999Z" fill="#414141"/>
<path d="M101.245 230.999C102.038 231.036 102.855 231.293 103.386 231.913C104.09 232.65 104.27 233.798 103.904 234.736C103.519 235.728 102.505 236.432 101.439 236.435C100.429 236.47 99.4416 235.874 98.9863 234.975C98.5483 234.172 98.6253 233.187 99.0155 232.382C99.2239 232.721 99.4655 233.086 99.869 233.208C100.574 233.488 101.43 233 101.585 232.266C101.726 231.809 101.484 231.371 101.245 230.999Z" fill="#414141"/>
<path d="M87.4071 226.342C89.1206 226.333 90.8341 226.34 92.5489 226.337C94.2067 226.338 95.8685 226.749 97.3152 227.565C97.3325 228.912 97.3683 230.261 97.2741 231.605C96.7989 230.689 96.0954 229.878 95.1863 229.374C93.9346 228.652 92.3658 228.519 91.008 229.008C89.7311 229.456 88.6587 230.449 88.1079 231.685C87.5318 232.964 87.5252 234.492 88.1026 235.771C88.6348 236.974 89.6595 237.95 90.8885 238.418C91.665 238.733 92.5158 238.776 93.344 238.743C92.46 239.351 91.5681 239.976 90.8792 240.81C89.9992 241.816 89.4059 243.04 89.033 244.316C88.4901 244.315 87.9459 244.315 87.4031 244.315C87.4071 238.324 87.4004 232.334 87.4071 226.342Z" fill="#60BB55"/>
<path d="M96.7963 236.662C96.9794 236.361 97.1533 236.053 97.3166 235.738C97.4665 236.038 97.6311 236.33 97.813 236.613C97.4732 236.62 97.1347 236.638 96.7963 236.662Z" fill="#60BB55"/>
<path d="M97.2902 240.966C98.1622 240.088 99.0289 239.204 99.9235 238.346C100.361 238.488 100.802 238.618 101.247 238.739C102.071 239.299 102.886 239.893 103.554 240.639C104.176 241.302 104.635 242.095 105.06 242.895C103.974 243.784 102.594 244.332 101.183 244.322C99.893 244.322 98.6028 244.32 97.3114 244.32C97.2968 243.203 97.318 242.084 97.2902 240.966Z" fill="#60BB55"/>
<path d="M97.3151 227.565C98.7751 226.763 100.434 226.333 102.101 226.337C103.816 226.341 105.531 226.33 107.247 226.344C107.259 230.263 107.251 234.183 107.251 238.103C107.292 239.931 106.436 241.71 105.06 242.895C104.635 242.095 104.176 241.302 103.553 240.639C102.886 239.893 102.071 239.299 101.247 238.739C102.154 238.784 103.093 238.727 103.932 238.348C105.057 237.871 105.993 236.967 106.508 235.858C107.109 234.589 107.133 233.064 106.581 231.775C106.058 230.529 105.007 229.517 103.74 229.043C102.363 228.515 100.753 228.635 99.472 229.369C98.5057 229.898 97.781 230.777 97.3112 231.763C97.3019 231.723 97.2833 231.645 97.274 231.605C97.3682 230.261 97.3324 228.912 97.3151 227.565Z" fill="#4F9D4E"/>
<path d="M91.6862 229.586C93.7846 229.022 96.1419 230.344 96.767 232.42C97.44 234.35 96.4697 236.653 94.6354 237.541C92.8861 238.474 90.5447 237.952 89.3422 236.381C88.0508 234.817 88.1371 232.33 89.536 230.863C90.1041 230.234 90.8633 229.785 91.6862 229.586ZM93.0228 230.999C93.1967 231.308 93.4276 231.625 93.3971 232.001C93.3984 232.801 92.5529 233.462 91.7765 233.25C91.3159 233.154 91.0146 232.765 90.7929 232.38C90.6164 232.808 90.4465 233.254 90.4678 233.725C90.4279 234.947 91.3517 236.106 92.5436 236.362C93.5789 236.624 94.7429 236.192 95.3588 235.319C96.0662 234.378 96.0384 232.967 95.2871 232.058C94.7575 231.353 93.8815 231.03 93.0228 230.999Z" fill="#FFFFFD"/>
<path d="M100.974 229.578C103.102 229.026 105.482 230.408 106.055 232.529C106.682 234.495 105.628 236.783 103.746 237.611C101.937 238.488 99.5741 237.85 98.4499 236.186C97.2752 234.577 97.4703 232.165 98.8812 230.762C99.4493 230.182 100.181 229.76 100.974 229.578ZM101.245 230.999C101.484 231.371 101.726 231.809 101.585 232.266C101.43 233 100.574 233.488 99.8687 233.208C99.4652 233.086 99.2237 232.721 99.0153 232.382C98.6251 233.187 98.5481 234.172 98.9861 234.975C99.4413 235.874 100.429 236.47 101.439 236.435C102.505 236.432 103.519 235.728 103.904 234.736C104.27 233.798 104.089 232.65 103.386 231.913C102.855 231.293 102.037 231.036 101.245 230.999Z" fill="#FFFFFD"/>
<path d="M95.3348 238.114C95.818 237.543 96.5506 237.285 97.2713 237.184C97.2846 238.154 97.2196 239.127 97.3258 240.094L97.3311 240.148C96.6648 239.471 95.9361 238.847 95.3348 238.114Z" fill="#FFFFFD"/>
<path d="M97.2715 237.184C98.0599 237.19 98.7767 237.571 99.3195 238.125C98.6599 238.787 98.0161 239.464 97.326 240.094C97.2198 239.127 97.2848 238.154 97.2715 237.184Z" fill="#8BC567"/>
<path d="M93.3439 238.743C93.7925 238.63 94.2398 238.508 94.6831 238.374C95.5565 239.234 96.4126 240.11 97.2899 240.966C97.3178 242.084 97.2965 243.203 97.3111 244.32C94.5517 244.315 91.7923 244.326 89.0329 244.317C89.4059 243.04 89.9992 241.816 90.8791 240.81C91.568 239.976 92.4599 239.351 93.3439 238.743Z" fill="#8BC567"/>
<path d="M20.235 146H43.743C45.433 146.076 46.912 147.549 47 149.238V172.747C46.922 174.443 45.435 175.927 43.739 176H20.258C18.568 175.925 17.089 174.452 17 172.764V149.251C17.08 147.564 18.55 146.09 20.235 146ZM37.007 149.819C34.986 150.254 33.211 151.724 32.441 153.647C32.014 154.746 31.885 156.028 32.387 157.125C32.863 158.182 33.798 158.94 34.762 159.535C35.614 160.073 36.618 160.425 37.287 161.211C37.753 161.748 37.773 162.592 37.373 163.171C37.091 163.584 36.628 163.83 36.162 163.976C35.429 164.208 34.653 164.082 33.899 164.126C31.215 164.148 28.531 164.151 25.847 164.19C26.033 163.58 26.209 162.967 26.399 162.359C28.181 162.362 29.963 162.352 31.745 162.364C32.079 161.54 32.409 160.714 32.729 159.885C30.285 159.887 27.84 159.883 25.396 159.888C24.873 159.895 24.211 160.09 24.075 160.667C23.591 162.393 23.095 164.116 22.622 165.845C22.527 166.602 23.31 167.171 24.007 167.165C27.841 167.125 31.677 167.151 35.511 167.113C37.134 167.003 38.8 166.449 39.963 165.27C41.069 164.173 41.538 162.528 41.337 161.001C41.187 159.872 40.469 158.903 39.585 158.221C38.602 157.428 37.375 157.008 36.407 156.193C35.999 155.856 35.674 155.342 35.778 154.792C35.921 153.94 36.491 153.141 37.3 152.806C38.105 152.495 38.982 152.691 39.809 152.791C40.21 151.875 40.613 150.96 41.023 150.049C39.721 149.693 38.338 149.548 37.007 149.819ZM25.046 168.442C23.991 168.718 23.337 169.949 23.703 170.978C23.98 171.886 24.963 172.497 25.9 172.333C26.841 172.22 27.618 171.34 27.597 170.39C27.625 169.741 27.292 169.093 26.757 168.727C26.269 168.381 25.62 168.269 25.046 168.442ZM34.454 168.451C33.681 168.671 33.102 169.408 33.044 170.207C32.948 171.198 33.709 172.18 34.695 172.324C35.627 172.513 36.627 171.923 36.928 171.024C37.205 170.292 36.973 169.422 36.404 168.895C35.895 168.416 35.121 168.238 34.454 168.451Z" fill="#E61E25"/>
<path d="M37.007 149.819C38.338 149.548 39.721 149.693 41.023 150.049C40.613 150.96 40.21 151.875 39.809 152.791C38.982 152.691 38.105 152.495 37.3 152.806C36.491 153.141 35.921 153.94 35.778 154.792C35.674 155.342 35.999 155.856 36.407 156.193C37.375 157.008 38.602 157.428 39.585 158.221C40.469 158.903 41.187 159.872 41.337 161.001C41.538 162.528 41.069 164.173 39.963 165.27C38.8 166.449 37.134 167.003 35.511 167.113C31.677 167.151 27.841 167.125 24.007 167.165C23.31 167.171 22.527 166.602 22.622 165.845C23.095 164.116 23.591 162.393 24.075 160.667C24.211 160.09 24.873 159.895 25.396 159.888C27.84 159.883 30.285 159.887 32.729 159.885C32.409 160.714 32.079 161.54 31.745 162.364C29.963 162.352 28.181 162.362 26.399 162.359C26.209 162.967 26.033 163.58 25.847 164.19C28.531 164.151 31.215 164.148 33.899 164.126C34.653 164.082 35.429 164.208 36.162 163.976C36.628 163.83 37.091 163.584 37.373 163.171C37.773 162.592 37.753 161.748 37.287 161.211C36.618 160.425 35.614 160.073 34.762 159.535C33.798 158.94 32.863 158.182 32.387 157.125C31.885 156.028 32.014 154.746 32.441 153.647C33.211 151.724 34.986 150.254 37.007 149.819Z" fill="white"/>
<path d="M25.046 168.442C25.62 168.269 26.269 168.381 26.757 168.727C27.292 169.093 27.625 169.741 27.597 170.39C27.618 171.34 26.841 172.22 25.9 172.333C24.963 172.497 23.98 171.886 23.703 170.978C23.337 169.949 23.991 168.718 25.046 168.442Z" fill="white"/>
<path d="M34.454 168.451C35.121 168.238 35.895 168.416 36.404 168.895C36.973 169.422 37.205 170.292 36.928 171.024C36.627 171.923 35.627 172.513 34.695 172.324C33.709 172.18 32.948 171.198 33.044 170.207C33.102 169.408 33.681 168.671 34.454 168.451Z" fill="white"/>
<defs>
<linearGradient id="paint0_linear" x1="166" y1="0" x2="166" y2="30" gradientUnits="userSpaceOnUse">
<stop stop-color="#3E8DFF"/>
<stop offset="1" stop-color="#0042A2"/>
</linearGradient>
<linearGradient id="paint1_linear" x1="32" y1="34" x2="32" y2="64" gradientUnits="userSpaceOnUse">
<stop stop-color="#0017B6"/>
<stop offset="1" stop-color="#0E186A"/>
</linearGradient>
<linearGradient id="paint2_linear" x1="20.7397" y1="43.3486" x2="43.1624" y2="43.162" gradientUnits="userSpaceOnUse">
<stop offset="1e-07" stop-color="#FFB900"/>
<stop offset="0.337553" stop-color="#F38000"/>
<stop offset="0.56729" stop-color="#F83C72"/>
<stop offset="0.78" stop-color="#FC1CBE"/>
<stop offset="0.93" stop-color="#FE08ED"/>
<stop offset="1" stop-color="#FF00FF"/>
</linearGradient>
<linearGradient id="paint3_linear" x1="31.8768" y1="55.6525" x2="46.2827" y2="47.0819" gradientUnits="userSpaceOnUse">
<stop stop-color="#EE0A3F"/>
<stop offset="1" stop-color="#EE0A3F" stop-opacity="0"/>
</linearGradient>
<linearGradient id="paint4_linear" x1="27.9523" y1="52.5824" x2="20.4019" y2="46.0471" gradientUnits="userSpaceOnUse">
<stop stop-color="#ED6600"/>
<stop offset="1" stop-color="#F98200"/>
</linearGradient>
</defs>
</svg>
