<svg width="324" height="78" viewBox="0 0 324 78" fill="none" xmlns="http://www.w3.org/2000/svg">
<mask id="mask0" mask-type="alpha" maskUnits="userSpaceOnUse" x="0" y="0" width="47" height="75">
<path fill-rule="evenodd" clip-rule="evenodd" d="M28.3571 2.34484C22.6681 5.54107 17.1875 8.99903 11.432 12.1472C9.91136 12.9787 8.3785 13.8032 6.88408 14.6807C4.82408 15.8904 2.65553 17.2785 1.43065 19.3897C0.20576 21.5012 0.0816353 24.0639 0.0585242 26.4439C-0.0193782 34.5817 -0.0196379 42.9663 0.0585242 51.1155C0.0816353 53.4955 0.20576 56.0582 1.43065 58.1694C2.44753 59.9223 7.55222 63.2731 13.1789 66.6199L9.19908 74.5795L16.049 64.9345L32.1112 42.3178L6.60518 42.9627L46.089 4.64783C44.7241 3.87422 43.3629 3.1063 42.0077 2.34484C39.9248 1.17462 37.6324 0 35.1824 0C32.7321 0 30.4397 1.17462 28.3571 2.34484Z" fill="white"/>
</mask>
<g mask="url(#mask0)">
<path fill-rule="evenodd" clip-rule="evenodd" d="M28.3571 2.34484C22.6681 5.54107 17.1875 8.99903 11.432 12.1472C9.91136 12.9787 8.3785 13.8032 6.88408 14.6807C4.82408 15.8904 2.65553 17.2785 1.43065 19.3897C0.20576 21.5012 0.0816353 24.0639 0.0585242 26.4439C-0.0193782 34.5817 -0.0196379 42.9663 0.0585242 51.1155C0.0816353 53.4955 0.20576 56.0582 1.43065 58.1694C2.44753 59.9223 7.55222 63.2731 13.1789 66.6199L9.19908 74.5795L16.049 64.9345L32.1112 42.3178L6.60518 42.9627L46.089 4.64783C44.7241 3.87422 43.3629 3.1063 42.0077 2.34484C39.9248 1.17462 37.6324 0 35.1824 0C32.7321 0 30.4397 1.17462 28.3571 2.34484Z" fill="white"/>
</g>
<mask id="mask1" mask-type="alpha" maskUnits="userSpaceOnUse" x="16" y="0" width="55" height="78">
<path fill-rule="evenodd" clip-rule="evenodd" d="M45.7059 9.21751L36.0301 29.2616L65.3392 29.3628L16.1595 68.8727C20.9048 71.6123 25.5135 74.1253 27.9313 75.4861C30.0195 76.6614 32.318 77.8415 34.7746 77.8415C37.2314 77.8415 39.5299 76.6614 41.6183 75.4861C48.7597 71.4664 56.0763 67.2555 63.1489 63.0946C65.2144 61.8794 67.3885 60.4851 68.6169 58.364C69.8451 56.2432 69.9693 53.669 69.9925 51.2783C70.0706 43.0967 70.0714 34.7 69.9925 26.4953C69.9693 24.1046 69.8451 21.5304 68.6169 19.4093C67.3885 17.2885 65.2144 15.8942 63.1489 14.679C58.4155 11.894 53.5726 9.08696 48.7459 6.32975L49.9009 0.527222L45.7059 9.21751Z" fill="white"/>
</mask>
<g mask="url(#mask1)">
<path fill-rule="evenodd" clip-rule="evenodd" d="M45.7059 9.21751L36.0301 29.2616L65.3392 29.3628L16.1595 68.8727C20.9048 71.6123 25.5135 74.1253 27.9313 75.4861C30.0195 76.6614 32.318 77.8415 34.7746 77.8415C37.2314 77.8415 39.5299 76.6614 41.6183 75.4861C48.7597 71.4664 56.0763 67.2555 63.1489 63.0946C65.2144 61.8794 67.3885 60.4851 68.6169 58.364C69.8451 56.2432 69.9693 53.669 69.9925 51.2783C70.0706 43.0967 70.0714 34.7 69.9925 26.4953C69.9693 24.1046 69.8451 21.5304 68.6169 19.4093C67.3885 17.2885 65.2144 15.8942 63.1489 14.679C58.4155 11.894 53.5726 9.08696 48.7459 6.32975L49.9009 0.527222L45.7059 9.21751Z" fill="white"/>
</g>
<path d="M76.0999 23.5033H89.2846C92.5558 23.5033 95.1017 24.2998 96.9223 25.8928C98.7428 27.4573 99.6531 29.605 99.6531 32.3358C99.6531 35.0666 98.7286 37.2285 96.8796 38.8215C95.0591 40.4145 92.5274 41.2109 89.2846 41.2109H81.6041V53.8836H76.0999V23.5033ZM88.6445 36.9441C90.5504 36.9441 91.9869 36.56 92.9541 35.792C93.9497 34.9955 94.4475 33.8577 94.4475 32.3785C94.4475 30.8708 93.9639 29.733 92.9967 28.965C92.0296 28.1685 90.5788 27.7702 88.6445 27.7702H81.6041V36.9441H88.6445Z" fill="white"/>
<path d="M116.353 54.2676C113.423 54.2676 110.862 53.6418 108.672 52.3902C106.51 51.1101 104.832 49.3038 103.637 46.9713C102.471 44.6102 101.888 41.8368 101.888 38.6508C101.888 35.4933 102.471 32.7483 103.637 30.4157C104.803 28.0547 106.468 26.2484 108.629 24.9968C110.82 23.7451 113.394 23.1193 116.353 23.1193C119.311 23.1193 121.871 23.7451 124.033 24.9968C126.223 26.2484 127.887 28.0547 129.025 30.4157C130.191 32.7483 130.775 35.4933 130.775 38.6508C130.775 41.8368 130.191 44.6102 129.025 46.9713C127.859 49.3038 126.195 51.1101 124.033 52.3902C121.871 53.6418 119.311 54.2676 116.353 54.2676ZM116.353 49.8727C119.169 49.8727 121.359 48.9056 122.924 46.9713C124.488 45.0369 125.27 42.2634 125.27 38.6508C125.27 35.0666 124.488 32.3216 122.924 30.4157C121.359 28.4814 119.169 27.5142 116.353 27.5142C113.536 27.5142 111.346 28.4672 109.781 30.373C108.217 32.2789 107.435 35.0382 107.435 38.6508C107.435 42.2634 108.217 45.0369 109.781 46.9713C111.346 48.9056 113.536 49.8727 116.353 49.8727Z" fill="white"/>
<path d="M177.619 23.5033L166.867 53.8836H162.386L154.749 32.0371L147.026 53.8836H142.545L131.836 23.5033H137.425L145.02 46.1605L152.914 23.5033H156.84L164.563 46.3312L172.328 23.5033H177.619Z" fill="white"/>
<path d="M180.367 23.5033H200.678V27.8556H185.744V36.2614H199.782V40.6136H185.744V49.5314H200.678V53.8836H180.367V23.5033Z" fill="white"/>
<path d="M229.224 53.8836H223.421L219.538 43.7711C219.197 42.8324 218.67 42.1781 217.959 41.8083C217.248 41.4385 216.323 41.2536 215.186 41.2536H209.681V53.8836H204.22V23.5033H217.234C220.676 23.5033 223.293 24.2572 225.085 25.7648C226.877 27.2724 227.773 29.4343 227.773 32.2505C227.773 34.2701 227.232 35.9911 226.152 37.4134C225.099 38.8073 223.591 39.8029 221.629 40.4002C223.421 40.77 224.715 42.0217 225.512 44.1551L229.224 53.8836ZM216.466 36.9867C218.542 36.9867 220.078 36.6027 221.074 35.8347C222.07 35.0666 222.567 33.9003 222.567 32.3358C222.567 30.7997 222.07 29.6619 221.074 28.9223C220.107 28.1543 218.571 27.7702 216.466 27.7702H209.596V36.9867H216.466Z" fill="white"/>
<path d="M242.429 55.4868C240.097 55.4868 237.906 55.1738 235.858 54.548C233.839 53.9222 232.118 53.0262 230.695 51.8599L232.573 47.849C234.052 48.9584 235.588 49.7833 237.181 50.3238C238.803 50.8358 240.566 51.0919 242.472 51.0919C244.577 51.0919 246.198 50.7221 247.336 49.9825C248.503 49.2429 249.086 48.2046 249.086 46.8676C249.086 45.7298 248.545 44.8622 247.464 44.2648C246.412 43.639 244.662 43.0559 242.216 42.5154C238.404 41.6905 235.631 40.6237 233.896 39.3152C232.16 38.0067 231.293 36.1008 231.293 33.5976C231.293 31.8055 231.776 30.2125 232.744 28.8187C233.711 27.4248 235.076 26.3297 236.84 25.5332C238.632 24.7367 240.694 24.3384 243.027 24.3384C245.16 24.3384 247.18 24.6656 249.086 25.3198C251.02 25.9456 252.599 26.8275 253.822 27.9653L251.987 31.9762C249.285 29.8143 246.298 28.7333 243.027 28.7333C241.064 28.7333 239.514 29.1458 238.376 29.9707C237.238 30.7672 236.669 31.8624 236.669 33.2562C236.669 34.451 237.167 35.3612 238.162 35.9871C239.187 36.6129 240.922 37.196 243.368 37.7365C245.9 38.3338 247.962 38.9881 249.555 39.6993C251.148 40.382 252.371 41.278 253.225 42.3874C254.078 43.4683 254.505 44.8337 254.505 46.4836C254.505 48.3042 254.021 49.8971 253.054 51.2625C252.087 52.5995 250.693 53.6378 248.872 54.3774C247.052 55.117 244.904 55.4868 242.429 55.4868Z" fill="white"/>
<path d="M258.082 24.7225H278.392V29.0747H263.458V37.4805H277.496V41.8327H263.458V50.7505H278.392V55.1027H258.082V24.7225Z" fill="white"/>
<path d="M281.935 24.7225H287.439V50.5798H301.648V55.1027H281.935V24.7225Z" fill="white"/>
<path d="M304.287 24.7225H309.791V50.5798H324V55.1027H304.287V24.7225Z" fill="white"/>
</svg>
