<svg width="55" height="61" viewBox="0 0 55 61" fill="none" xmlns="http://www.w3.org/2000/svg">
<path d="M22.9039 2.5537L3.40903 13.7584C2.37503 14.356 1.51625 15.2128 0.91818 16.2435C0.320109 17.2743 0.00360471 18.443 0.000173441 19.6334V42.0429C-0.00841888 43.2448 0.30238 44.4276 0.90105 45.4714C1.49972 46.5151 2.36497 47.3827 3.40903 47.986L22.9039 59.1907C23.9445 59.7889 25.1249 60.1038 26.3264 60.1038C27.528 60.1038 28.7084 59.7889 29.749 59.1907L49.2849 47.986C50.3209 47.3873 51.181 46.5283 51.7792 45.495C52.3774 44.4616 52.6927 43.2901 52.6938 42.0974V19.6334C52.6903 18.443 52.3738 17.2743 51.7758 16.2435C51.1777 15.2128 50.3189 14.356 49.2849 13.7584L29.7216 2.5537C28.6843 1.96056 27.509 1.64844 26.3127 1.64844C25.1165 1.64844 23.9412 1.96056 22.9039 2.5537Z" fill="#FFA26B"/>
<path d="M21.894 8.21271H47.6688V34.7983H21.894V8.21271Z" fill="#52B8D9"/>
<path d="M47.6687 35.244H21.8939C21.648 35.244 21.4482 35.0442 21.4482 34.7983V8.21271C21.4482 7.96637 21.648 7.76703 21.8939 7.76703H47.6687C47.915 7.76703 48.1144 7.96637 48.1144 8.21271V34.7983C48.1144 35.0442 47.9159 35.244 47.6687 35.244ZM22.3396 34.3526H47.223V8.6584H22.3396V34.3526Z" fill="#63312D"/>
<path d="M16.6938 8.21271H42.4686V34.7983H16.6938V8.21271Z" fill="#82D9FF"/>
<path d="M18.4766 9.99544H42.4686V8.21271H16.6938V34.7992H18.4766V9.99544Z" fill="#CAF4FF"/>
<path d="M42.4676 35.244H16.6937C16.4478 35.244 16.248 35.0442 16.248 34.7983V8.21271C16.248 7.96637 16.4478 7.76703 16.6937 7.76703H42.4685C42.7148 7.76703 42.9142 7.96637 42.9142 8.21271V34.7983C42.9133 35.0442 42.7148 35.244 42.4676 35.244ZM17.1394 34.3526H42.0228V8.6584H17.1394V34.3526Z" fill="#63312D"/>
<path d="M32.9346 16.732L31.8143 17.596L30.6944 16.732L29.5759 17.596L28.4608 16.732L27.344 17.596L26.228 16.732V8.21271H32.9346V16.732Z" fill="#F8F3F3"/>
<path d="M29.5762 18.0417C29.4801 18.0417 29.3839 18.0103 29.3033 17.949L28.4612 17.2966L27.6164 17.949C27.4558 18.073 27.2321 18.073 27.0706 17.949L25.9555 17.085C25.8467 17.0006 25.7827 16.8705 25.7827 16.7321V8.21141C25.7827 7.96551 25.9825 7.76573 26.2284 7.76573H32.9341C33.18 7.76573 33.3798 7.96551 33.3798 8.21141V16.7321C33.3798 16.8705 33.3154 17.0006 33.207 17.085L32.0871 17.949C31.927 18.073 31.7041 18.0739 31.5426 17.9498L30.6939 17.2957L29.8491 17.9481C29.7686 18.0103 29.6724 18.0417 29.5762 18.0417ZM30.6939 16.2872C30.7892 16.2872 30.8859 16.3177 30.9668 16.3799L31.8147 17.0337L32.4884 16.514V8.6584H26.6741V16.514L27.3435 17.0328L28.1883 16.3799C28.3489 16.2563 28.5726 16.2563 28.7341 16.3799L29.5771 17.0328L30.4223 16.3799C30.5024 16.3186 30.5986 16.2872 30.6939 16.2872Z" fill="#63312D"/>
<path d="M54.0715 28.2467C53.255 27.0781 51.6668 26.7547 50.4581 27.5107L38.8034 34.7975H35.1434C36.86 34.7975 38.2515 33.406 38.2515 31.6894C38.2515 29.9724 36.86 28.581 35.1434 28.581H24.8818C24.8818 28.581 22.4772 24.9258 17.6682 24.9258C12.8584 24.9258 10.5508 28.3886 10.5508 28.3886V41.7878H40.7928L53.5209 31.8927C54.6456 31.0183 54.888 29.4153 54.0715 28.2467Z" fill="#F9DD9D"/>
<path d="M40.7922 42.2335H10.5502C10.3038 42.2335 10.1045 42.0337 10.1045 41.7878V28.3894C10.1045 28.3011 10.1302 28.2158 10.1794 28.1427C10.279 27.9929 12.6776 24.4819 17.6676 24.4819C22.0539 24.4819 24.5087 27.3366 25.1106 28.137H35.1437C37.1027 28.137 38.6974 29.7308 38.6974 31.6903C38.6974 32.7492 38.2322 33.7011 37.4953 34.3526H38.6752L50.2221 27.1325C51.6314 26.252 53.4846 26.6289 54.4374 27.9929C55.3892 29.3565 55.1067 31.225 53.7928 32.2456L41.066 42.1386C40.9876 42.2004 40.8919 42.2335 40.7922 42.2335ZM10.9959 41.3421H40.639L53.2474 31.5414C54.1858 30.8124 54.3873 29.478 53.7075 28.5026C53.0272 27.5277 51.7045 27.2583 50.6952 27.8885L39.0408 35.1765C38.9703 35.2209 38.8885 35.244 38.8045 35.244H35.1446C34.8987 35.244 34.6989 35.0442 34.6989 34.7983C34.6989 34.5524 34.8987 34.3526 35.1446 34.3526C36.6126 34.3526 37.8069 33.1583 37.8069 31.6903C37.8069 30.2231 36.6126 29.0284 35.1446 29.0284H24.8821C24.7333 29.0284 24.5927 28.9526 24.5104 28.8282C24.4874 28.7933 22.1671 25.3733 17.6685 25.3733C13.6277 25.3733 11.4198 27.9812 10.9967 28.5357V41.3421H10.9959Z" fill="#63312D"/>
<path d="M25.292 34.3518H35.1445V35.2431H25.292V34.3518Z" fill="#63312D"/>
<path d="M10.5507 43.7882H3.44629V24.9263H10.5507V43.7882Z" fill="#F7A085"/>
<path d="M10.5501 44.2343H3.44568C3.19977 44.2343 3 44.0349 3 43.7886V24.9267C3 24.6804 3.19977 24.481 3.44568 24.481H10.5501C10.796 24.481 10.9957 24.6804 10.9957 24.9267V43.7886C10.9957 44.0349 10.7968 44.2343 10.5501 44.2343ZM3.89137 43.3429H10.1044V25.3724H3.89137V43.3429Z" fill="#63312D"/>
</svg>
