<svg width="65" height="66" viewBox="0 0 65 66" fill="none" xmlns="http://www.w3.org/2000/svg">
<path d="M23.9039 7.5537L4.40903 18.7584C3.37503 19.356 2.51625 20.2128 1.91818 21.2435C1.32011 22.2743 1.0036 23.443 1.00017 24.6334V47.0429C0.991581 48.2448 1.30238 49.4276 1.90105 50.4714C2.49972 51.5151 3.36497 52.3827 4.40903 52.986L23.9039 64.1907C24.9445 64.7889 26.1249 65.1038 27.3264 65.1038C28.528 65.1038 29.7084 64.7889 30.749 64.1907L50.2849 52.986C51.3209 52.3873 52.181 51.5283 52.7792 50.495C53.3774 49.4616 53.6927 48.2901 53.6938 47.0974V24.6334C53.6903 23.443 53.3738 22.2743 52.7758 21.2435C52.1777 20.2128 51.3189 19.356 50.2849 18.7584L30.7216 7.5537C29.6843 6.96056 28.509 6.64844 27.3127 6.64844C26.1165 6.64844 24.9412 6.96056 23.9039 7.5537Z" fill="#CAE7FF"/>
<g clip-path="url(#clip0)">
<g clip-path="url(#clip1)">
<path d="M52.3253 28.6065C52.3148 28.6126 52.3148 28.6126 52.3044 28.6186C47.6071 31.3306 41.5901 29.7271 38.8721 25.0194C36.1541 20.3118 37.7636 14.3052 42.4713 11.5872C42.4818 11.5812 42.4818 11.5812 42.4922 11.5751C43.3082 11.104 43.3569 9.93208 42.5531 9.43372C34.997 4.72959 25.1402 4.25504 16.9102 9.06243C5.09352 15.9685 1.09405 31.0267 7.93734 42.8797C14.7867 54.7431 29.9516 58.8065 41.815 51.9571C50.0273 47.2158 54.494 38.4995 54.2058 29.641C54.1762 28.6957 53.1457 28.1189 52.3253 28.6065ZM42.871 43.1317C41.1762 44.1101 38.998 43.5265 38.0195 41.8317C37.041 40.137 37.6247 37.9588 39.3195 36.9803C41.0142 36.0018 43.1924 36.5854 44.1709 38.2802C45.1494 39.975 44.5657 42.1532 42.871 43.1317Z" fill="#FFE4B8"/>
<path d="M42.1836 52.5953C38.0199 54.9992 33.2799 56.1875 28.4904 56.0096C23.8313 55.84 19.3013 54.3963 15.4137 51.8425C15.0756 51.6192 14.9837 51.1701 15.207 50.832C15.4302 50.4939 15.8793 50.402 16.2174 50.6252C19.8901 53.0242 24.15 54.3867 28.5543 54.5499C33.0726 54.7171 37.5357 53.6049 41.4693 51.3339C49.1794 46.8824 53.7904 38.585 53.4989 29.6726C53.4932 29.3969 53.3069 29.2674 53.2227 29.2184C53.1446 29.1797 52.939 29.0893 52.6983 29.2282L52.6774 29.2403C47.635 32.1515 41.1664 30.4183 38.2551 25.3758C38.0558 25.0306 38.1752 24.585 38.5204 24.3857C38.8656 24.1864 39.3112 24.3058 39.5105 24.651C42.0231 29.003 47.6006 30.4975 51.9526 27.9849L51.9735 27.9728C52.5803 27.6225 53.316 27.6162 53.9258 27.9476C54.5416 28.2895 54.9145 28.9111 54.9461 29.6182C55.2429 39.0715 50.3541 47.8781 42.1836 52.5953ZM14.7486 50.8595C14.508 50.9984 14.1828 50.9909 13.9497 50.8046C12.9575 50.0524 12.0308 49.2204 11.1608 48.3418C10.8839 48.0553 10.8833 47.5953 11.1698 47.3184C11.4562 47.0414 11.9162 47.0408 12.1932 47.3273C13.012 48.1657 13.892 48.9409 14.8227 49.659C15.1459 49.9048 15.2004 50.3615 14.959 50.6683C14.9099 50.7524 14.8323 50.8112 14.7486 50.8595ZM10.9206 47.2251C10.6277 47.3942 10.2453 47.336 10.0074 47.0688C8.96672 45.8703 8.18563 44.759 7.30983 43.2421C3.90329 37.3417 2.98272 30.4804 4.72762 23.9353C6.46648 17.3798 10.6658 11.8727 16.548 8.43474C16.5898 8.41058 16.6212 8.39246 16.6631 8.3683C24.844 3.64504 34.8987 3.81003 42.9386 8.82067C43.5231 9.18067 43.875 9.8144 43.8571 10.5082C43.8453 11.2125 43.472 11.8465 42.8548 12.2028L42.8339 12.2149C39.3083 14.2504 37.5619 18.4251 38.5668 22.3642C38.6659 22.7534 38.4355 23.1515 38.0464 23.2506C37.6572 23.3497 37.2591 23.1192 37.16 22.7301C35.9874 18.1624 38.0186 13.3211 42.1091 10.9595L42.13 10.9474C42.2974 10.8508 42.406 10.6765 42.4051 10.4817C42.3987 10.3739 42.3813 10.1747 42.168 10.0468C34.5893 5.32774 25.098 5.17222 17.3774 9.62972C17.346 9.64784 17.3042 9.672 17.2728 9.69012C11.7254 12.9348 7.76137 18.1247 6.12421 24.3007C4.48704 30.4767 5.35195 36.9517 8.56522 42.5173C9.39874 43.961 10.1376 44.999 11.109 46.1259C11.3711 46.4349 11.3386 46.8861 11.0401 47.1421C11.0043 47.1768 10.9625 47.2009 10.9206 47.2251Z" fill="#63312D" stroke="white" stroke-width="0.2"/>
<path d="M19.3615 27.9007C21.1006 26.8966 21.372 24.1108 19.9676 21.6783C18.5633 19.2459 16.015 18.088 14.2759 19.0921C12.5368 20.0961 12.2654 22.882 13.6698 25.3144C15.0741 27.7468 17.6224 28.9048 19.3615 27.9007Z" fill="#F05F88"/>
<path d="M17.0285 29.2477C18.7676 28.2436 19.039 25.4578 17.6346 23.0253C16.2303 20.5929 13.682 19.435 11.9429 20.439C10.2038 21.4431 9.93241 24.229 11.3368 26.6614C12.7411 29.0938 15.2894 30.2517 17.0285 29.2477Z" fill="white"/>
<path d="M17.9223 28.7307C19.3154 27.8886 19.2669 25.2574 17.814 22.8536C16.361 20.4499 14.0538 19.1839 12.6607 20.026C11.2675 20.8681 11.316 23.4994 12.769 25.9031C14.222 28.3069 16.5292 29.5728 17.9223 28.7307Z" fill="#F05F88"/>
<path d="M30.6345 18.3374C32.3736 17.3333 32.645 14.5475 31.2406 12.1151C29.8362 9.68264 27.2879 8.52472 25.5488 9.5288C23.8097 10.5329 23.5384 13.3187 24.9427 15.7511C26.3471 18.1836 28.8954 19.3415 30.6345 18.3374Z" fill="#4E9BD4"/>
<path d="M28.2912 19.6904C30.0303 18.6863 30.3017 15.9005 28.8973 13.4681C27.493 11.0356 24.9447 9.87773 23.2056 10.8818C21.4665 11.8859 21.1951 14.6717 22.5995 17.1041C24.0038 19.5366 26.5521 20.6945 28.2912 19.6904Z" fill="white"/>
<path d="M29.107 19.2193C30.5168 18.4054 30.5212 15.7737 29.1168 13.3412C27.7124 10.9088 25.4311 9.59675 24.0214 10.4107C22.6116 11.2246 22.6072 13.8563 24.0116 16.2887C25.4159 18.7212 27.6973 20.0332 29.107 19.2193Z" fill="#4E9BD4"/>
<path d="M20.4294 42.6277C22.1685 41.6237 22.4399 38.8378 21.0355 36.4054C19.6311 33.973 17.0829 32.815 15.3437 33.8191C13.6046 34.8232 13.3333 37.609 14.7377 40.0415C16.142 42.4739 18.6903 43.6318 20.4294 42.6277Z" fill="#FBD20A"/>
<path d="M18.0964 43.9747C19.8355 42.9706 20.1069 40.1848 18.7025 37.7524C17.2981 35.3199 14.7498 34.162 13.0107 35.1661C11.2716 36.1702 11.0003 38.956 12.4046 41.3884C13.809 43.8209 16.3573 44.9788 18.0964 43.9747Z" fill="white"/>
<path d="M18.9019 43.5096C20.3117 42.6957 20.3161 40.064 18.9117 37.6315C17.5074 35.1991 15.2261 33.8871 13.8163 34.701C12.4065 35.5149 12.4021 38.1466 13.8065 40.5791C15.2109 43.0115 17.4922 44.3235 18.9019 43.5096Z" fill="#FBD20A"/>
<path d="M32.0603 50.1126C33.7994 49.1086 34.0707 46.3227 32.6664 43.8903C31.262 41.4578 28.7137 40.2999 26.9746 41.304C25.2355 42.3081 24.9641 45.0939 26.3685 47.5263C27.7729 49.9588 30.3212 51.1167 32.0603 50.1126Z" fill="#F16723"/>
<path d="M29.7273 51.4596C31.4664 50.4555 31.7377 47.6697 30.3334 45.2373C28.929 42.8048 26.3807 41.6469 24.6416 42.651C22.9025 43.6551 22.6311 46.4409 24.0355 48.8733C25.4399 51.3058 27.9882 52.4637 29.7273 51.4596Z" fill="white"/>
<path d="M30.5328 50.9945C31.9426 50.1806 31.947 47.5489 30.5426 45.1164C29.1382 42.684 26.8569 41.372 25.4471 42.1859C24.0374 42.9998 24.033 45.6315 25.4374 48.0639C26.8417 50.4964 29.123 51.8084 30.5328 50.9945Z" fill="#F16723"/>
<path d="M18.4689 29.2532C15.6966 30.8538 12.1323 29.8987 10.5317 27.1264C8.9311 24.3541 9.88616 20.7898 12.6585 19.1892C15.4308 17.5886 18.9951 18.5436 20.5957 21.3159C22.1963 24.0882 21.2412 27.6526 18.4689 29.2532ZM13.3833 20.4445C11.3014 21.6465 10.5851 24.3197 11.7871 26.4016C12.989 28.4834 15.6623 29.1997 17.7441 27.9978C19.826 26.7958 20.5423 24.1226 19.3403 22.0407C18.1384 19.9589 15.4651 19.2426 13.3833 20.4445Z" fill="black"/>
<path d="M29.8254 19.6417C27.0531 21.2423 23.4887 20.2872 21.8881 17.5149C20.2875 14.7426 21.2426 11.1783 24.0149 9.57768C26.7872 7.97709 30.3516 8.93215 31.9521 11.7045C33.5527 14.4768 32.5977 18.0411 29.8254 19.6417ZM24.7397 10.8331C22.6579 12.035 21.9416 14.7083 23.1435 16.7901C24.3455 18.872 27.0187 19.5883 29.1006 18.3863C31.1824 17.1843 31.8987 14.5111 30.6968 12.4293C29.4948 10.3474 26.8216 9.63111 24.7397 10.8331Z" fill="black"/>
<path d="M19.6203 43.9318C16.848 45.5324 13.2837 44.5774 11.6831 41.8051C10.0825 39.0328 11.0375 35.4684 13.8098 33.8678C16.5821 32.2672 20.1465 33.2223 21.7471 35.9946C23.3477 38.7669 22.3926 42.3313 19.6203 43.9318ZM14.5346 35.1232C12.4528 36.3252 11.7365 38.9984 12.9384 41.0803C14.1404 43.1621 16.8136 43.8784 18.8955 42.6765C20.9773 41.4745 21.6936 38.8013 20.4917 36.7194C19.2897 34.6376 16.6165 33.9213 14.5346 35.1232Z" fill="black"/>
<path d="M31.2614 51.4107C28.4891 53.0113 24.9248 52.0563 23.3242 49.284C21.7236 46.5116 22.6786 42.9473 25.451 41.3467C28.2233 39.7461 31.7876 40.7012 33.3882 43.4735C34.9888 46.2458 34.0337 49.8101 31.2614 51.4107ZM26.1757 42.6021C24.0939 43.8041 23.3776 46.4773 24.5796 48.5592C25.7815 50.641 28.4548 51.3573 30.5366 50.1553C32.6185 48.9534 33.3348 46.2801 32.1328 44.1983C30.9308 42.1164 28.2576 41.4002 26.1757 42.6021Z" fill="black"/>
<path d="M42.9948 43.3838C41.1845 44.429 38.8569 43.8054 37.8117 41.995C36.7665 40.1847 37.3902 37.8571 39.2005 36.8119C41.0109 35.7667 43.3384 36.3904 44.3836 38.2007C45.4288 40.0111 44.8052 42.3386 42.9948 43.3838ZM39.6738 37.6317C38.3143 38.4166 37.8466 40.1622 38.6315 41.5217C39.4164 42.8812 41.162 43.3489 42.5215 42.564C43.881 41.7791 44.3487 40.0335 43.5638 38.674C42.7789 37.3145 41.0333 36.8468 39.6738 37.6317Z" fill="#63312D"/>
</g>
</g>
<defs>
<clipPath id="clip0">
<rect width="65" height="65" fill="white"/>
</clipPath>
<clipPath id="clip1">
<rect x="-14" y="20.9247" width="61.8494" height="61.8494" transform="rotate(-30 -14 20.9247)" fill="white"/>
</clipPath>
</defs>
</svg>
