<svg width="346" height="346" viewBox="0 0 346 346" fill="none" xmlns="http://www.w3.org/2000/svg">
<rect width="346" height="346" fill="white"/>
<path d="M34.9292 215.843H49.6186C53.2632 215.843 56.0996 216.73 58.1279 218.505C60.1562 220.248 61.1704 222.641 61.1704 225.683C61.1704 228.725 60.1404 231.134 58.0804 232.909C56.0521 234.684 53.2315 235.571 49.6186 235.571H41.0617V249.69H34.9292V215.843ZM48.9055 230.817C51.0289 230.817 52.6293 230.389 53.7069 229.534C54.8161 228.646 55.3707 227.379 55.3707 225.731C55.3707 224.051 54.8319 222.783 53.7544 221.927C52.6769 221.04 51.0606 220.596 48.9055 220.596H41.0617V230.817H48.9055Z" fill="#414042"/>
<path d="M79.7756 250.118C76.5113 250.118 73.659 249.42 71.2187 248.026C68.8101 246.6 66.9402 244.587 65.6091 241.989C64.3098 239.358 63.6601 236.268 63.6601 232.719C63.6601 229.201 64.3098 226.143 65.6091 223.544C66.9085 220.913 68.7625 218.901 71.1711 217.506C73.6114 216.112 76.4796 215.415 79.7756 215.415C83.0716 215.415 85.9239 216.112 88.3325 217.506C90.7728 218.901 92.6268 220.913 93.8945 223.544C95.1939 226.143 95.8436 229.201 95.8436 232.719C95.8436 236.268 95.1939 239.358 93.8945 241.989C92.5951 244.587 90.7411 246.6 88.3325 248.026C85.9239 249.42 83.0716 250.118 79.7756 250.118ZM79.7756 245.221C82.9131 245.221 85.3534 244.144 87.0965 241.989C88.8396 239.834 89.7111 236.744 89.7111 232.719C89.7111 228.725 88.8396 225.667 87.0965 223.544C85.3534 221.389 82.9131 220.311 79.7756 220.311C76.638 220.311 74.1977 221.373 72.4547 223.496C70.7116 225.62 69.8401 228.694 69.8401 232.719C69.8401 236.744 70.7116 239.834 72.4547 241.989C74.1977 244.144 76.638 245.221 79.7756 245.221Z" fill="#414042"/>
<path d="M148.034 215.843L136.055 249.69H131.063L122.554 225.35L113.949 249.69H108.958L97.0255 215.843H103.253L111.715 241.085L120.51 215.843H124.883L133.487 241.276L142.139 215.843H148.034Z" fill="#414042"/>
<path d="M151.096 215.843H173.724V220.691H157.086V230.056H172.726V234.905H157.086V244.841H173.724V249.69H151.096V215.843Z" fill="#414042"/>
<path d="M205.528 249.69H199.063L194.737 238.423C194.356 237.377 193.77 236.648 192.978 236.236C192.185 235.824 191.155 235.618 189.888 235.618H183.755V249.69H177.67V215.843H192.17C196.004 215.843 198.92 216.682 200.917 218.362C202.913 220.042 203.912 222.45 203.912 225.588C203.912 227.838 203.309 229.755 202.105 231.34C200.933 232.893 199.253 234.002 197.066 234.668C199.063 235.08 200.505 236.474 201.392 238.851L205.528 249.69ZM191.314 230.865C193.627 230.865 195.339 230.437 196.448 229.581C197.557 228.725 198.112 227.426 198.112 225.683C198.112 223.972 197.557 222.704 196.448 221.88C195.371 221.024 193.659 220.596 191.314 220.596H183.66V230.865H191.314Z" fill="#414042"/>
<path d="M220.241 251.476C217.642 251.476 215.202 251.127 212.92 250.43C210.67 249.733 208.752 248.735 207.168 247.435L209.259 242.967C210.907 244.203 212.619 245.122 214.393 245.724C216.2 246.294 218.165 246.58 220.288 246.58C222.633 246.58 224.44 246.168 225.708 245.344C227.007 244.52 227.657 243.363 227.657 241.873C227.657 240.606 227.054 239.639 225.85 238.973C224.678 238.276 222.728 237.626 220.003 237.024C215.756 236.105 212.666 234.917 210.733 233.459C208.8 232.001 207.833 229.878 207.833 227.089C207.833 225.092 208.372 223.317 209.449 221.764C210.527 220.212 212.048 218.991 214.013 218.104C216.01 217.217 218.307 216.773 220.906 216.773C223.283 216.773 225.533 217.137 227.657 217.866C229.812 218.564 231.571 219.546 232.933 220.814L230.889 225.282C227.878 222.874 224.551 221.669 220.906 221.669C218.719 221.669 216.992 222.129 215.724 223.048C214.457 223.935 213.823 225.156 213.823 226.708C213.823 228.04 214.378 229.054 215.487 229.751C216.628 230.448 218.561 231.098 221.286 231.7C224.107 232.366 226.405 233.094 228.18 233.887C229.954 234.647 231.317 235.646 232.268 236.882C233.219 238.086 233.694 239.607 233.694 241.445C233.694 243.474 233.155 245.248 232.078 246.77C231 248.259 229.447 249.416 227.419 250.24C225.391 251.064 222.998 251.476 220.241 251.476Z" fill="#0167FA"/>
<path d="M237.68 217.201H260.308V222.05H243.669V231.415H259.31V236.264H243.669V246.199H260.308V251.048H237.68V217.201Z" fill="#0167FA"/>
<path d="M264.254 217.201H270.387V246.009H286.217V251.048H264.254V217.201Z" fill="#0167FA"/>
<path d="M289.157 217.201H295.29V246.009H311.12V251.048H289.157V217.201Z" fill="#0167FA"/>
<mask id="mask0" mask-type="alpha" maskUnits="userSpaceOnUse" x="109" y="62" width="84" height="135">
<path fill-rule="evenodd" clip-rule="evenodd" d="M160.799 66.2145C150.574 71.9591 140.723 78.1743 130.379 83.8326V83.8326C127.646 85.327 124.891 86.8089 122.205 88.386V88.386C118.502 90.5604 114.605 93.0552 112.403 96.8498V96.8498C110.201 100.645 109.978 105.251 109.937 109.529V109.529C109.797 124.155 109.796 139.225 109.937 153.872V153.872C109.978 158.149 110.201 162.755 112.403 166.55V166.55C114.231 169.7 123.406 175.723 133.518 181.738V181.738L126.365 196.044L138.677 178.709L167.546 138.059L121.703 139.218L192.669 70.3537C190.216 68.9633 187.769 67.5831 185.333 66.2145V66.2145C181.59 64.1112 177.47 62 173.066 62V62C168.662 62 164.542 64.1112 160.799 66.2145" fill="white"/>
</mask>
<g mask="url(#mask0)">
<path fill-rule="evenodd" clip-rule="evenodd" d="M160.799 66.2145C150.574 71.9591 140.723 78.1743 130.379 83.8326V83.8326C127.646 85.327 124.891 86.8089 122.205 88.386V88.386C118.502 90.5604 114.605 93.0552 112.403 96.8498V96.8498C110.201 100.645 109.978 105.251 109.937 109.529V109.529C109.797 124.155 109.796 139.225 109.937 153.872V153.872C109.978 158.149 110.201 162.755 112.403 166.55V166.55C114.231 169.7 123.406 175.723 133.518 181.738V181.738L126.365 196.044L138.677 178.709L167.546 138.059L121.703 139.218L192.669 70.3537C190.216 68.9633 187.769 67.5831 185.333 66.2145V66.2145C181.59 64.1112 177.47 62 173.066 62V62C168.662 62 164.542 64.1112 160.799 66.2145" fill="#0167FA"/>
</g>
<mask id="mask1" mask-type="alpha" maskUnits="userSpaceOnUse" x="138" y="62" width="98" height="140">
<path fill-rule="evenodd" clip-rule="evenodd" d="M191.98 78.5669L174.59 114.593L227.268 114.775L138.876 185.787C147.404 190.711 155.688 195.228 160.034 197.674V197.674C163.787 199.786 167.918 201.907 172.333 201.907V201.907C176.749 201.907 180.88 199.786 184.634 197.674V197.674C197.469 190.449 210.619 182.88 223.331 175.402V175.402C227.044 173.218 230.951 170.712 233.159 166.9V166.9C235.367 163.088 235.59 158.461 235.631 154.164V154.164C235.772 139.459 235.773 124.367 235.631 109.621V109.621C235.59 105.324 235.367 100.697 233.159 96.8849V96.8849C230.951 93.0731 227.044 90.5671 223.331 88.383V88.383C214.824 83.3774 206.119 78.3322 197.444 73.3766V73.3766L199.52 62.9475L191.98 78.5669Z" fill="white"/>
</mask>
<g mask="url(#mask1)">
<path fill-rule="evenodd" clip-rule="evenodd" d="M191.98 78.5669L174.59 114.593L227.268 114.775L138.876 185.787C147.404 190.711 155.688 195.228 160.034 197.674V197.674C163.787 199.786 167.918 201.907 172.333 201.907V201.907C176.749 201.907 180.88 199.786 184.634 197.674V197.674C197.469 190.449 210.619 182.88 223.331 175.402V175.402C227.044 173.218 230.951 170.712 233.159 166.9V166.9C235.367 163.088 235.59 158.461 235.631 154.164V154.164C235.772 139.459 235.773 124.367 235.631 109.621V109.621C235.59 105.324 235.367 100.697 233.159 96.8849V96.8849C230.951 93.0731 227.044 90.5671 223.331 88.383V88.383C214.824 83.3774 206.119 78.3322 197.444 73.3766V73.3766L199.52 62.9475L191.98 78.5669Z" fill="#0167FA"/>
</g>
<path d="M90.188 292.785H87L98.7392 265.953H101.44L113.179 292.785H110.028L99.5643 268.214H100.689L90.188 292.785ZM91.9882 285.889L93.0759 283.326H107.103L108.191 285.889H91.9882Z" fill="#919191"/>
<path d="M133.408 292.785H130.408V287.698L130.858 288.112C130.433 289.695 129.62 290.913 128.42 291.768C127.22 292.622 125.757 293.049 124.032 293.049C122.382 293.049 120.919 292.647 119.644 291.843C118.394 291.014 117.418 289.858 116.718 288.376C116.018 286.868 115.668 285.122 115.668 283.138C115.668 281.153 116.006 279.432 116.681 277.975C117.381 276.518 118.356 275.387 119.606 274.583C120.881 273.779 122.357 273.377 124.032 273.377C125.757 273.377 127.22 273.817 128.42 274.696C129.62 275.55 130.433 276.756 130.858 278.314L130.37 278.691V265.049H133.408V292.785ZM124.632 290.524C126.457 290.524 127.87 289.896 128.87 288.64C129.895 287.358 130.408 285.55 130.408 283.213C130.408 280.902 129.908 279.118 128.908 277.862C127.907 276.58 126.482 275.94 124.632 275.94C122.782 275.94 121.331 276.568 120.281 277.824C119.256 279.08 118.744 280.851 118.744 283.138C118.744 285.474 119.256 287.296 120.281 288.602C121.331 289.883 122.782 290.524 124.632 290.524Z" fill="#919191"/>
<path d="M144.833 292.785L136.807 273.867H139.995L146.821 290.562H145.92L152.821 273.867H155.859L147.721 292.785H144.833Z" fill="#919191"/>
<path d="M166.225 293.049C164.55 293.049 163.075 292.659 161.8 291.881C160.55 291.077 159.574 289.946 158.874 288.489C158.199 287.007 157.862 285.273 157.862 283.288C157.862 281.304 158.212 279.57 158.912 278.088C159.612 276.606 160.587 275.45 161.837 274.621C163.113 273.792 164.575 273.377 166.225 273.377C167.951 273.377 169.413 273.804 170.614 274.659C171.814 275.513 172.626 276.731 173.051 278.314L172.601 278.615V273.829H175.602V292.785H172.601V287.886L173.051 288.112C172.626 289.695 171.814 290.913 170.614 291.768C169.413 292.622 167.951 293.049 166.225 293.049ZM166.826 290.524C168.676 290.524 170.101 289.896 171.101 288.64C172.101 287.358 172.601 285.55 172.601 283.213C172.601 280.877 172.089 279.08 171.064 277.824C170.063 276.568 168.651 275.94 166.826 275.94C164.975 275.94 163.525 276.593 162.475 277.899C161.45 279.181 160.937 280.977 160.937 283.288C160.937 285.6 161.45 287.384 162.475 288.64C163.525 289.896 164.975 290.524 166.826 290.524Z" fill="#919191"/>
<path d="M181.475 292.785V279.143C181.475 278.264 181.45 277.384 181.4 276.505C181.375 275.601 181.3 274.709 181.175 273.829H184.063L184.401 277.749L184.026 278.05C184.551 276.518 185.426 275.362 186.651 274.583C187.876 273.779 189.289 273.377 190.889 273.377C195.415 273.377 197.678 275.877 197.678 280.877V292.785H194.64V281.027C194.64 279.269 194.29 277.987 193.59 277.183C192.89 276.354 191.789 275.94 190.289 275.94C188.539 275.94 187.139 276.48 186.089 277.56C185.039 278.641 184.513 280.098 184.513 281.932V292.785H181.475Z" fill="#919191"/>
<path d="M211.328 293.049C209.478 293.049 207.878 292.647 206.528 291.843C205.177 291.039 204.127 289.908 203.377 288.451C202.652 286.994 202.29 285.273 202.29 283.288C202.29 281.329 202.665 279.608 203.415 278.126C204.165 276.618 205.227 275.45 206.603 274.621C207.978 273.792 209.603 273.377 211.478 273.377C212.754 273.377 213.979 273.603 215.154 274.056C216.354 274.483 217.342 275.086 218.117 275.864L217.104 278.126C216.179 277.397 215.266 276.857 214.366 276.505C213.491 276.128 212.578 275.94 211.628 275.94C209.728 275.94 208.215 276.58 207.09 277.862C205.99 279.143 205.44 280.952 205.44 283.288C205.44 285.6 205.99 287.384 207.09 288.64C208.19 289.896 209.703 290.524 211.628 290.524C212.553 290.524 213.466 290.348 214.366 289.996C215.266 289.619 216.179 289.067 217.104 288.338L218.117 290.599C217.317 291.353 216.304 291.956 215.079 292.408C213.879 292.835 212.629 293.049 211.328 293.049Z" fill="#919191"/>
<path d="M237.436 290.524C236.611 291.303 235.549 291.918 234.249 292.37C232.973 292.823 231.661 293.049 230.31 293.049C228.36 293.049 226.672 292.659 225.247 291.881C223.847 291.102 222.759 289.984 221.984 288.527C221.234 287.044 220.859 285.286 220.859 283.251C220.859 281.291 221.234 279.57 221.984 278.088C222.734 276.606 223.772 275.45 225.097 274.621C226.447 273.792 227.998 273.377 229.748 273.377C231.423 273.377 232.861 273.754 234.061 274.508C235.261 275.236 236.174 276.292 236.799 277.673C237.449 279.055 237.774 280.713 237.774 282.648V283.213H223.522V281.216H236.049L235.074 282.61C235.124 280.399 234.686 278.703 233.761 277.523C232.861 276.342 231.536 275.751 229.785 275.751C227.96 275.751 226.522 276.405 225.472 277.711C224.447 278.992 223.935 280.776 223.935 283.062C223.935 285.524 224.472 287.384 225.547 288.64C226.647 289.896 228.248 290.524 230.348 290.524C231.448 290.524 232.498 290.348 233.498 289.996C234.524 289.619 235.499 289.054 236.424 288.301L237.436 290.524Z" fill="#919191"/>
<path d="M259 292.785H256V287.698L256.45 288.112C256.025 289.695 255.212 290.913 254.012 291.768C252.812 292.622 251.349 293.049 249.624 293.049C247.973 293.049 246.511 292.647 245.236 291.843C243.985 291.014 243.01 289.858 242.31 288.376C241.61 286.868 241.26 285.122 241.26 283.138C241.26 281.153 241.597 279.432 242.273 277.975C242.973 276.518 243.948 275.387 245.198 274.583C246.473 273.779 247.948 273.377 249.624 273.377C251.349 273.377 252.812 273.817 254.012 274.696C255.212 275.55 256.025 276.756 256.45 278.314L255.962 278.691V265.049H259V292.785ZM250.224 290.524C252.049 290.524 253.462 289.896 254.462 288.64C255.487 287.358 256 285.55 256 283.213C256 280.902 255.5 279.118 254.499 277.862C253.499 276.58 252.074 275.94 250.224 275.94C248.373 275.94 246.923 276.568 245.873 277.824C244.848 279.08 244.335 280.851 244.335 283.138C244.335 285.474 244.848 287.296 245.873 288.602C246.923 289.883 248.373 290.524 250.224 290.524Z" fill="#919191"/>
</svg>
