<svg width="101" height="112" viewBox="0 0 101 112" fill="none" xmlns="http://www.w3.org/2000/svg">
<mask id="mask0" mask-type="alpha" maskUnits="userSpaceOnUse" x="0" y="0" width="66" height="107">
<path fill-rule="evenodd" clip-rule="evenodd" d="M40.6181 3.35016C32.4901 7.91672 24.6596 12.8572 16.4366 17.3551C14.264 18.5431 12.0739 19.7211 9.9388 20.9748C6.9956 22.7032 3.89732 24.6864 2.14729 27.7028C0.397248 30.7196 0.219907 34.381 0.186887 37.7813C0.0755852 49.4082 0.0752142 61.3875 0.186887 73.0306C0.219907 76.431 0.397248 80.0923 2.14729 83.1087C3.60015 85.6132 10.8934 90.4005 18.9324 95.1823L13.2463 106.554L23.0331 92.7742L45.9817 60.4609L9.54033 61.3824L65.9523 6.64052C64.0023 5.53524 62.0574 4.43809 60.1212 3.35016C57.1453 1.67822 53.8701 0 50.3696 0C46.8688 0 43.5935 1.67822 40.6181 3.35016Z" fill="white"/>
</mask>
<g mask="url(#mask0)">
<path fill-rule="evenodd" clip-rule="evenodd" d="M40.6181 3.35016C32.4901 7.91672 24.6596 12.8572 16.4366 17.3551C14.264 18.5431 12.0739 19.7211 9.9388 20.9748C6.9956 22.7032 3.89732 24.6864 2.14729 27.7028C0.397248 30.7196 0.219907 34.381 0.186887 37.7813C0.0755852 49.4082 0.0752142 61.3875 0.186887 73.0306C0.219907 76.431 0.397248 80.0923 2.14729 83.1087C3.60015 85.6132 10.8934 90.4005 18.9324 95.1823L13.2463 106.554L23.0331 92.7742L45.9817 60.4609L9.54033 61.3824L65.9523 6.64052C64.0023 5.53524 62.0574 4.43809 60.1212 3.35016C57.1453 1.67822 53.8701 0 50.3696 0C46.8688 0 43.5935 1.67822 40.6181 3.35016Z" fill="#0167FA"/>
</g>
<mask id="mask1" mask-type="alpha" maskUnits="userSpaceOnUse" x="23" y="0" width="78" height="112">
<path fill-rule="evenodd" clip-rule="evenodd" d="M65.405 13.1694L51.5809 41.8071L93.4558 41.9518L23.1912 98.401C29.9708 102.315 36.5555 105.905 40.0099 107.85C42.9933 109.529 46.2773 111.215 49.7871 111.215C53.2973 111.215 56.5812 109.529 59.565 107.85C69.7682 102.107 80.2217 96.0903 90.3266 90.1456C93.2776 88.4093 96.3838 86.4172 98.1389 83.3868C99.8936 80.3568 100.071 76.6789 100.104 73.2632C100.216 61.5739 100.217 49.5771 100.104 37.8548C100.071 34.4391 99.8936 30.7612 98.1389 27.7308C96.3838 24.7008 93.2776 22.7087 90.3266 20.9724C83.5637 16.9934 76.6445 12.9829 69.7485 9.04357L71.3986 0.753296L65.405 13.1694Z" fill="white"/>
</mask>
<g mask="url(#mask1)">
<path fill-rule="evenodd" clip-rule="evenodd" d="M65.405 13.1694L51.5809 41.8071L93.4558 41.9518L23.1912 98.401C29.9708 102.315 36.5555 105.905 40.0099 107.85C42.9933 109.529 46.2773 111.215 49.7871 111.215C53.2973 111.215 56.5812 109.529 59.565 107.85C69.7682 102.107 80.2217 96.0903 90.3266 90.1456C93.2776 88.4093 96.3838 86.4172 98.1389 83.3868C99.8936 80.3568 100.071 76.6789 100.104 73.2632C100.216 61.5739 100.217 49.5771 100.104 37.8548C100.071 34.4391 99.8936 30.7612 98.1389 27.7308C96.3838 24.7008 93.2776 22.7087 90.3266 20.9724C83.5637 16.9934 76.6445 12.9829 69.7485 9.04357L71.3986 0.753296L65.405 13.1694Z" fill="#0167FA"/>
</g>
</svg>
